<?xml version="1.0" encoding="UTF-8" standalone="no"?><!-- Generator: Adobe Illustrator 18.0.0, SVG Export Plug-In . SVG Version: 6.00 Build 0)  --><svg xmlns="http://www.w3.org/2000/svg" xmlns:xlink="http://www.w3.org/1999/xlink" contentScriptType="text/ecmascript" zoomAndPan="magnify" contentStyleType="text/css" id="图层_1" mapName="上海市" mapType="省市地图" enable-background="new 0 0 800 600" version="1.1" xml:space="preserve" preserveAspectRatio="xMidYMid meet" viewBox="0 0 800 600" x="0px" y="0px">
<path name="青浦区" fill="#D3D3D3" id="path0" d="M251.314,447.621c0.864-1.504,0.448-2.79,0.51-4.513  c0.036-0.984-0.03-1.369,0.981-1.472c0.807-0.084,1.521,0.312,2.086,0.777c1.194,0.981,1.7,2.449,2.336,3.738  c0.746,1.507,1.341,2.573,2.547,3.749c1.344,1.31,2.099,1.617,3.926,0.691c0.775-0.393,1.08-0.995,1.554-1.693  c0.577-0.851,0.814-1.029,1.975-1.085c1.744-0.084,3.336-0.024,4.91-0.655c-0.88-0.54-1.101-2.888-0.903-3.855  c0.258-1.263,1.659-1.883,1.963-3.064c0.301-1.175-0.912-2.391-1.353-3.316c-0.62-1.299-0.332-2.2,0.059-3.448  c0.32-1.023,0.112-2.239,0.6-3.254c0.647-1.342,1.777-2.478,1.48-4.171c-0.114-0.649-0.582-1.409-0.894-1.957  c-0.353-0.624-0.536-1.346-0.954-1.893c-0.715-0.935-2.414-2.316-3.529-2.871c-0.656-0.326-1.276-0.722-1.965-0.979  c-0.746-0.277-1.535-0.235-0.908-1.35c0.722-1.28,3.086-0.247,4.327-0.313c0.538-0.706,0.654-0.85,0.72-1.831  c0.169-0.09,0.083-0.078,0.196-0.196c2.418-0.684-0.594-4.514-1.363-5.441c-0.743-0.896-1.205-1.608-1.696-2.722  c-0.211-0.479-0.333-1.128-0.879-1.278c-0.617-0.17-1.145,0.271-1.197,0.869c-1.161,0.553-0.939-3.073-0.844-3.712  c0.118-0.786-0.168-1.578-0.024-2.356c0.113-0.608,0.508-0.948,0.705-1.554c0.871-0.051,1.872-0.217,2.27,0.769  c0.51,1.269,0.282,1.741,1.597,2.325c0.961,0.426,2.011,0.819,3.061,0.383c0.749-0.31,0.79-0.817,1.723-0.724  c0.65,0.066,1.304,0.359,1.857,0.641c0.447,0.228,1.042,0.787,1.547,0.788c0.701,0.001,0.688-0.382,1.18-0.787  c0.667-0.551,2.006-0.453,2.571,0.304c0.902-0.243,1.237-1.403,2.119-1.436c0.273-0.009,0.87,0.32,1.199,0.37  c0.458,0.071,0.935,0.034,1.363,0.079c-1.144-1.193-3.123-2.134-3.517-3.808c-0.206-0.875-0.445-1.229-0.963-1.889  c-1.023-1.307-1.85-2.257-3.167-3.294c-1.066-0.838-2.093-2.407-3.51-2.693c-0.918-0.187-1.459,0.26-2.252,0.541  c-1.027,0.365-1.046,0.043-1.107-1.009c-0.08-1.388-0.067-3.24-0.388-4.619c-0.414-1.785-0.651-2.621,1.053-3.824  c1.279-0.905,1.86-1.809,2.547-3.139c1.003-1.941,2.111-2.404,4.047-1.583c1.648,0.699,3.895,1.132,4.046,3.333  c0.947,0.473,1.938,0.519,3.026,0.699c1.025,0.169,1.801,0.566,2.77,0.91c1.099,0.391,1.902,0.417,2.822,1.083  c0.832,0.602,1.088,1.54,1.938,2.123c0.272-0.404,0.699-0.918,0.792-1.383c0.145-0.739-0.203-0.673-0.376-1.25  c-0.148-0.491,0.078-1.184-0.261-1.599c-0.249-0.303-1.137-0.307-1.017-0.864c0.247-1.146,2.262,0.226,2.731,0.324  c1.132,0.234,1.924-0.554,2.854-1.023c0.479-1.289,0.025-1.447-0.857-2.314c0.812-0.146,1.41-0.705,2.248-0.81  c0.711-0.089,1.577,0.142,1.989-0.66c0.246-0.479,0.011-1.479,0.072-2.088c0.078-0.786,0.353-1.539,0.308-2.346  c0.683,0.367,0.944,0.901,1.855,0.584c0.456-0.159,1.5-0.844,1.644-1.3c0.196-0.62-0.389-1.2-0.787-1.525  c-0.735-0.598-1.092-0.548-1.35-1.504c-0.654-2.419,0.514-5.596,0.309-8.029c1.155-0.202,2.035,0.5,3.024,0.897  c1.031,0.412,1.66,0.224,2.655-0.126c0.824-0.288,1.443-0.64,2.355-0.194c0.743,0.363,1.284,1.065,1.962,1.544  c1.782,1.256,8.484-1.908,8.812,0.417c0.095,0.679-0.363,1.515-0.467,2.161c-0.121,0.748-0.155,1.565-0.199,2.354  c-0.088,1.616-0.109,3.105-0.774,4.5c2.322,0.108,4.466-1.157,6.352-2.358c-0.048-0.567-0.265-1.696,0.334-2.121  c0.707-0.503,1.393,0.463,1.967,0.082c0.42-0.279,0.501-1.607,0.464-2.067c-0.062-0.763-0.546-1.204-0.674-1.95  c1.174,0.286,2.511,0.142,3.717,0.065c1.146-0.075,1.862,0.468,2.832,0.791c0.164-0.829-0.149-1.779,0.527-2.516  c0.563-0.612,1.855-0.484,2.727-0.414c0.946,0.077,1.597,0.642,2.451,0.884c1.543,0.435,2.771-0.006,3.694-1.15  c0.457-0.567,1.489-1.64,1.119-2.482c-0.225-0.512-2.1-0.754-2.734-0.8c-0.034-0.575-0.18-1.578-0.685-1.867  c-0.108-0.947-0.514-2.461,0.179-3.308c0.77,0.191,1.131,0.622,1.74,1.058c1.152-1.188,3.303-1.227,4.857-0.993  c0.846,0.126,1.453,0.391,2.257-0.148c0.471-0.316,1.353-1.238,1.564-1.682c1.227-0.485,2.197-2.623,3.72-2.101  c0.958,0.327,1.027,1.12,2.177,0.933c0.798-0.129,1.895-0.705,2.735-0.942c-0.72-1.329-1.509-2.559-2.264-3.865  c-0.935-1.62-1.353-3.408-2.328-4.999c-0.501-0.814-1.238-1.387-1.76-2.166c-0.501-0.749-0.609-1.448-1.016-2.244  c-1.07-2.095-3.071-2.048-4.289-0.267c-1.466,2.144-3.005,1.389-5.297,0.814c-2.035-0.512-3.35-1.117-4.39-3.039  c-1.772-3.271-2.49-7.344-3.454-10.84c-1.893-0.653-2.034-3.687-2.862-5.123c-0.878-1.522-2.748-2.523-4.2-3.537  c0.664-0.548,3.195-2.476,2.392-3.428c0.009-0.013,0.018-0.028,0.027-0.041c-0.947-1.042-3.527-2.224-4.922-3.042  c-1.473-0.862-2.883-0.839-4.608-0.687c-0.809,0.071-1.587,0.204-2.356,0.299c-1.019,0.129-1.07,0.309-1.75,0.976  c-1.335,1.314-2.717,0.8-4.341,0.396c-1.587-0.394-3.147-0.286-3.452,1.453c-1.402,0.644-2.855,0.844-4.307,0.044  c-1.476-0.814-2.014-2.241-3.735-1.564c-1.838,0.724-2.181-0.094-3.45-1.31c-0.912-0.875-2.881-2.155-3.585-0.491  c-0.27,0.64-0.056,1.528-0.807,1.767c-0.707,0.224-1.696-0.398-2.087-0.857c-0.879-1.026-0.993-2.578-1.444-3.752  c-0.519-1.355-1.455-2.921-1.416-4.752c-1.189,0.769-2.582,1.31-3.237,1.376c-2.857,0.292-5.639-0.776-8.47-0.915  c-2.286-0.112-4.479-0.234-6.772-0.129c-1.095,0.051-2.393,0.129-3.436-0.14c-0.934-0.243-1.485-0.948-2.381-1.272  c-5.249-1.896-3.034,7.408-4.316,9.239c-0.83,0.209-2.399-0.329-3.091,0.049c-0.61,0.335-0.958,1.979-1.103,2.562  c-0.464,1.87-0.261,3.746-0.357,5.787c-0.101,2.114-0.347,4.242-0.531,6.413c-0.093,1.096-0.497,2.188-0.29,3.273  c0.214,1.13,0.806,1.923,0.945,3.143c0.197,1.742-0.102,3.278,0.523,4.965c0.694,1.868,1.113,3.776,1.999,5.495  c1.07,2.074,3.247,3.372,4.15,5.548c0.832,2.006,0.513,5.616-0.358,7.542c-0.735,1.623-2.54,2.182-3.406,3.567  c-0.461,0.739-0.272,1.745-0.704,2.428c-0.558,0.883-1.7,1.032-2.597,1.077c-2.022,0.098-3.938-0.122-5.867,0.411  c-0.713,1.706-1.689,3.193-3.166,4.296c-1,0.747-1.325,0.974-2.615,1.051c-1.017,0.058-1.937,0.156-2.878,0.393  c-1.932,0.482-3.623,1.791-5.497,2.254c-2.083,0.513-4.184,0.703-6.286,1.014c-2.136,0.317-4.178,0.587-6.408,0.786  c-2.138,0.191-4.362,0.128-6.543,0.133c-4.202,0.013-8.311-0.944-12.564-1.176c-2.492-0.136-4.98,0.264-7.48,0.137  c-2.587-0.132-5.011,0.571-7.439,1.463c-1.935,0.711-4.105,0.711-5.991,1.567c-1.331,0.604-4.111,2.061-4.609,3.378  c-0.374,0.989-0.075,2.118-0.495,3.14c-0.437,1.062-0.707,1.663-1.507,2.45c-1.166,1.149-4.461,2.162-4.702,3.568  c-0.414,2.44,3.505,1.375,5.133,1.835c1.806,0.507,2.777,2.588,5.107,2.227c0.982-0.153,1.935-0.885,2.752-1.417  c0.999-0.65,1.245-0.891,2.48-0.811c0.837,0.054,1.737,0.106,2.598,0.15c0.092,0.793,0.651,1.306,1.037,1.973  c0.392,0.677,0.445,1.562,0.717,2.294c0.456,1.232,2.745,2.744,1.165,3.861c0.034,0.96-0.694,1.725-0.537,2.983  c0.137,1.094,0.168,2.181-0.009,3.264c-0.222,1.353-0.485,1.93-0.024,3.168c0.4,1.071,1.085,2.412,2.099,3.007  c0.411,0.784,1.284,2.605-0.219,3.14c-0.365,0.973-1.236,0.79-1.042,2.175c0.066,0.472,0.568,2.036,0.889,2.381  c1.163,1.253,4.423-0.144,6.02-0.158c1.936-0.019,2.902,2.034,4.973,2.26c2.088,0.228,4.493,0.07,6.544-0.138  c0.685-0.069,1.427-0.065,2.071-0.282c0.739-1.61,3.064-2.583,3.922-4.068c0.536-0.928,0.524-1.81,1.829-1.406  c0.553,0.171,1.488,1.115,1.865,1.595c1.201,1.532,1.722,3.327,3.795,3.898c1.887,0.518,4.48,0.205,6.407,0.398  c0.828,0.082,1.882,0.056,2.65,0.357c0.818,0.322,1.237,0.967,2.173,0.969c0.304,0.84,0.328,2.006,0.422,2.852  c0.08,0.733,0.638,2.292,0.49,2.918c-0.462,1.969-3.011,1.502-2.231,4.057c0.58,1.903,1.37,2.878,2.905,4.317  c1.734,1.625,1.809,3.051,1.688,5.444c-0.013,0.239-2.856,0.862-3.199,1.117c-1.041,0.772-1.074,2.04-1.014,3.264  c0.135,2.731,0.679,5.484,0.963,8.206c0.043,0.407,0.053,0.803,0.057,1.186c0.984-0.075,1.74-0.743,2.692-0.666  c0.831,0.069,1.86,1.146,2.484,1.729c0.696,0.651,1.378,1.492,2.218,1.937c0.549,0.292,0.982,0.357,1.329,0.515  c0.614-0.27,1.211-0.694,1.721-1.067C249.266,449.909,250.561,448.932,251.314,447.621z" stroke-miterlimit="10" stroke="#FFFFFF"/>
<path name="嘉定区" fill="#D3D3D3" id="path1" d="M292.069,301.186c0.451,1.174,0.565,2.726,1.444,3.752  c0.391,0.458,1.38,1.081,2.087,0.857c0.751-0.239,0.537-1.128,0.807-1.767c0.704-1.664,2.674-0.384,3.585,0.491  c1.269,1.217,1.611,2.034,3.45,1.31c1.721-0.677,2.259,0.75,3.735,1.564c1.452,0.8,2.905,0.6,4.307-0.044  c0.305-1.739,1.865-1.847,3.452-1.453c1.624,0.405,3.005,0.918,4.341-0.396c0.68-0.668,0.73-0.847,1.75-0.976  c0.769-0.095,1.547-0.228,2.356-0.299c1.725-0.151,3.135-0.175,4.608,0.687c1.395,0.818,3.975,2,4.922,3.042  c0.615-0.903,1.193-2.317,2.145-2.852c1.027-0.578,2.995-0.075,4.09,0.14c1.375,0.273,2.718,0.785,3.926,1.502  c1.107,0.656,2.181,1.749,3.512,1.953c0.243,0.412,0.606,0.715,1.049,0.915c0.455,1.174,1.724,2.546,2.531,3.638  c1.194,1.617,1.757,3.073,3.605,3.959c1.749,0.84,4.285,1.072,6.181,1.546c1.994,0.498,4.143-0.065,5.892-1.08  c1.473-0.855,2.44-2.628,3.795-3.374c0,0,3.042-0.825,4.09-0.262l0.677,0.032c-0.556-0.342-0.608-0.712,0.794-1.207  c0.719-0.253,1.042-0.574,1.645-1.009c1.099-0.79,2.936-0.631,4.145-1.058c1.621-0.57,2.385-1.088,2.63-2.866  c0.247-1.785-0.11-2.868-1.549-3.706c-1.273-0.741-3.013-1.506-4.5-1.685c-0.058-0.658-0.554-1.815-0.213-2.272  c0.211-0.282,1.579-0.804,1.947-0.969c0.152-2.661-4.915-2.673-6.656-2.731c-1.423-0.048-2.819-0.18-4.221-0.393  c-0.544-0.083-1.599-0.131-2.065-0.389c-0.698-0.383-0.458-0.722-0.681-1.476c-0.368-1.257-1.418-2.34-2.066-3.434  c-0.336-0.565-1.042-0.983-0.884-1.673c0.138-0.603,0.857-0.915,1.281-1.271c0.991-0.829,1.852-1.992,2.765-2.753  c0.516-0.43,1.128-0.804,1.547-1.34c-0.362-0.569-0.51-1.552-0.703-2.073c-0.217-0.59-0.615-0.937-0.572-1.691  c0.075-1.302,1.382-2.054,1.689-3.024c0.786-0.538,2.138-1.598,1.984-2.645c0.028-0.083,0.125-0.094,0.149-0.2  c-0.056-0.013-0.113-0.024-0.171-0.035c-0.017-1.74-1.453-3.161-1.787-4.789c-0.311-1.511,0.437-3.91-1.353-4.732  c-0.036-0.092,0.002-0.17-0.034-0.262c-1.069-0.568-2.123-2.256-2.358-3.427c-0.279-1.378,0.598-2.432,1.418-3.435  c1.322-1.618-1.427-4.728-2.385-6.11c-0.776-1.12-1.201-2.549-2.035-3.735c-0.821-1.169-1.311-2.561-1.711-3.899  c-0.409-1.363-1.29-2.441-1.846-3.747c-0.298-0.699-0.498-1.447-0.804-2.142c-0.11-0.252-0.235-0.675-0.37-0.905  c-0.065-0.108-0.587-0.643-0.599-0.783c-0.125-1.315,2.136-2.126,3.051-2.653c0.734-0.421,1.26-0.66,2.062-0.881  c1.002-0.273,1.261-0.483,1.694-1.377c0.748-1.535,0.671-3.082,0.584-4.808c-0.079-1.601-0.083-3.25-0.316-4.81  c-0.097-0.658-0.137-1.616-0.39-2.257c-0.307-0.774-1.022-0.868-1.596-1.445c-1.071-1.074-1.238-2.756-2.057-3.931  c-0.819-1.175-1.943-2.455-2.837-3.555c-0.823-1.014-2.112-2.296-1.661-3.732c0.232-0.735,0.744-1.367,0.514-2.179  c-0.154-0.548-0.784-1.15-1.09-1.625c1.182-0.652,0.269-2.948-0.127-3.733c-0.591-1.17-1.496-1.739-2.165-2.742  c-0.427-0.641-0.362-1.284-0.585-1.967c-0.188-0.569-0.629-1.175-0.942-1.708c-0.464-0.793-1.642-2.411-2.723-2.526  c-0.106,0.209-0.225,0.413-0.364,0.606c-0.214,0.172-0.456,0.327-0.74,0.424c-0.099,0.188-0.221,0.357-0.348,0.523  c-0.261,0.175-0.523,0.349-0.785,0.523l0.209,0.089c-1.139,0.963-2.818,1.377-4.331,1.461c-1.111,0.061-2.006,0.176-2.881,0.786  c-0.706,0.491-1.189,1.473-1.986,1.937c-0.818,0.477-1.875,0.535-2.726,0.808c-0.948,0.303-1.493,0.855-2.214,1.479  c-1.492,1.292-3.517,1.431-5.497,0.886c-2.669-0.733-1.569-2.858-2.624-4.719c-1.393-2.457-3.531,0.57-4.414,1.728  c-1.199,1.572-1.857,3.093-2.785,4.685c-1.113,1.908-3.312,0.982-4.877,0.167c-0.936-0.486-1.512-0.197-2.429,0.248  c-0.355,0.617-0.744,1.365-1.092,1.918c-1.61,0.93-2.807,2.937-3.911,4.312c-1.171,1.457-2.456,2.635-3.69,3.926  c-1.195,1.252-2.355,2.781-3.864,3.724c-1.794,1.117-3.914,0.43-5.788,1.44c-0.921,0.496-1.74,1.118-2.748,1.507  c-0.793,0.305-2.903,0.185-2.725,1.188c0.842,0.28,1.148,1.025,1.562,1.724c0.108,0.185,0.034,0.565,0.342,0.951  c0.233,0.293,0.771,0.447,1.057,0.644c0.799,0.55,1.414,1.077,2.383,1.284c0.412,0.087,0.999-0.166,1.343,0.096  c0.41,0.309,0.193,0.915,0.542,1.317c-0.268,0.353-0.296,0.573-0.82,0.703c-0.032,0.114,0.024,0.249-0.037,0.352  c-1.109,0.378-5.329,1.509-5.483,3.028c-0.07,0.688,1.305,1.996,1.677,2.65c0.325,0.571,0.463,1.228,0.776,1.799  c0.186,0.342,0.986,1.065,1.049,1.342c0.247,1.056-1.006,2.369-1.556,3.246c-0.731,1.168-1.822,2.347-2.964,3.026  c-0.216,1.315,0.634,1.511,0.903,2.461c0.439,1.553,0.264,2.497-1.109,3.065c-1.873,0.774-3.811,1.375-5.677,2.205  c-1.022,0.454-2.075,0.879-3.156,1.152c-1.225,0.309-2.436,1.114-3.656,1.322c-0.534,0.972-1.232,0.664-1.461,2.073  c-0.157,0.968-0.216,1.824-0.272,2.748c-0.048,0.813-0.257,1.883-0.255,2.746c0.009,2.883,0.253,4.292,3.536,3.793  c0.594-0.09,0.913-0.569,1.346-0.129c0.301,0.303,0.057,1.308,0.09,1.708c0.262,3.135,3.087,1.867,4.874,3.894  c1.468,1.665,1.017,3.759,0.488,5.781c-0.553,2.109-1.39,3.375-1.011,5.734c0.181,1.13,0.202,1.886,0.102,3.039  c-0.087,1.001-0.067,2.23,0.654,2.781c2.072,1.578,4.015-0.679,5.755-1.244c2.765-0.894,2.212,2.121,2.228,3.828  c0.013,1.24,0.344,1.767,1.145,2.621c0.522,0.555,2.183,1.121,2.426,1.529c0.683,1.139-0.424,2.345-1.81,3.241  C290.614,298.266,291.55,299.831,292.069,301.186z" stroke-miterlimit="10" stroke="#FFFFFF"/>
<path name="宝山区" fill="#D3D3D3" id="path2" d="M436.054,258.584c-0.789-1.472-3.041-2.357-4.099-3.85  c-0.554-0.78-0.913-1.741-1.496-2.629c-0.593-0.898-1.777-1.535-2.188-2.484c-0.434-0.999-0.355-2.67-0.187-3.72  c0.2-1.253,1.045-2.439,1.474-3.636c1.042-2.908,1.515-5.951,2.594-8.787c0.484-1.273,1.93-2.149,2.36-3.528l-0.022-0.178  c0.4-0.931,0.526-1.774-0.284-3.395c-0.782-1.872-2.186-3.746-3.434-5.306c-5.775-7.18-14.36-9.99-22.634-12.799  c-3.434-1.248-7.023-1.873-10.613-2.965c-4.37-1.405-7.18-3.122-10.925-5.463c-3.122-2.029-6.556-1.405-9.834-2.654  c-2.185-0.625-3.746-2.184-5.463-3.434c-2.029-1.561-4.371-2.654-6.243-4.214c-1.405-1.406-2.498-4.215-4.371-5.308  c-3.59-2.029-2.029,1.874-3.59,2.966c-1.561,1.092-4.057-1.092-5.774-0.625c-2.209,0.368-2.3,2.182-3.071,3.7  c1.082,0.115,2.26,1.733,2.723,2.526c0.312,0.533,0.754,1.139,0.942,1.708c0.223,0.683,0.158,1.325,0.585,1.967  c0.669,1.002,1.574,1.572,2.165,2.742c0.397,0.786,1.309,3.081,0.127,3.733c0.307,0.475,0.936,1.077,1.09,1.625  c0.23,0.812-0.282,1.444-0.514,2.179c-0.451,1.436,0.838,2.718,1.661,3.732c0.894,1.101,2.018,2.38,2.837,3.555  c0.819,1.175,0.987,2.857,2.057,3.931c0.574,0.577,1.29,0.67,1.596,1.445c0.253,0.641,0.293,1.599,0.39,2.257  c0.233,1.56,0.238,3.209,0.316,4.81c0.088,1.726,0.165,3.273-0.584,4.808c-0.434,0.893-0.693,1.103-1.694,1.377  c-0.802,0.221-1.328,0.46-2.062,0.881c-0.916,0.527-3.177,1.338-3.051,2.653c0.011,0.139,0.533,0.674,0.599,0.783  c0.136,0.23,0.26,0.654,0.37,0.905c0.306,0.696,0.506,1.444,0.804,2.142c0.556,1.306,1.437,2.384,1.846,3.747  c0.4,1.338,0.89,2.731,1.711,3.899c0.834,1.186,1.259,2.615,2.035,3.735c0.958,1.382,3.707,4.492,2.385,6.11  c-0.819,1.002-1.696,2.056-1.418,3.435c0.236,1.172,1.29,2.86,2.358,3.427c0.036,0.092-0.002,0.17,0.034,0.262  c1.79,0.822,1.042,3.221,1.353,4.732c0.334,1.628,1.77,3.049,1.787,4.789c0.058,0.01,0.115,0.022,0.171,0.035  c-0.023,0.107-0.121,0.117-0.149,0.2c0.153,1.046-1.199,2.107-1.984,2.645c-0.307,0.97-1.614,1.723-1.689,3.024  c-0.043,0.754,0.355,1.101,0.572,1.691c0.192,0.521,0.341,1.504,0.703,2.073c0.062-0.079,0.132-0.151,0.184-0.238  c0.269-0.455,0.243-1.048,0.623-1.454c0.817-0.876,2.489-0.86,3.54-1.362c1.233-0.587,2.781-1.241,3.257,0.262  c0.418,1.32,0.397,2.658,1.45,3.726c1.003,1.017,2.712,0.918,4.008,1.191c1.337,0.279,2.54,0.651,3.922,0.787  c2.91,0.287,5.526,0.849,8.424,0.996c0.434,1.425-0.404,2.365-0.325,3.672c0.056,0.93,0.52,0.952,1.285,1.283  c0.808,0.348,1.672,1.199,2.572,0.987c0.765-0.18,1.454-1.137,1.885-1.737l0.464-0.191c-0.582-1.492,0.146-3.151,0.49-4.542  c0.376-1.52,0.617-3.173,0.615-4.787c0-1.056-0.271-2.603,0.509-3.321c2.356-0.265,4.56-2.676,4.302-5.122l0.196-0.49  c3.423,0,6.867,0.22,10.305,0.393c0.903,0.045,1.582-0.174,2.184,0.467c0.574,0.609,0.494,1.467,0.784,2.184l0.37-0.099  c1.07,0.267,2.435,0.142,3.438-0.294c0.647-0.282,1.24-0.526,1.883-0.415c0.954,0.166,3.335,1.232,3.711,2.083l-0.002,0.098  c0.643,0.087,1.324,0.081,1.685,0.67c2.381,0.572,0.748-5.892,0.574-7.052c-0.204-1.371-0.297-2.463-0.297-3.924  c0-0.701-0.105-1.491-0.075-2.159c0.03-0.691,0.352-1.243,0.387-1.946c0.578-0.378,0.804-1.103,1.257-1.582  c0.46-0.487,1.066-0.965,1.593-1.361c0.755-0.564,2.153-1.461,3.269-1.889L436.054,258.584z" stroke-miterlimit="10" stroke="#FFFFFF"/>
<path name="杨浦区" fill="#D3D3D3" id="path3" d="M458.06,290.07c0,0.62-0.11,1.13-0.31,1.89  c-0.34,1.24-0.94,2.26-1.79,3.31c-0.8,0.97-1.81,2.57-2.91,3.18c-0.04,0.09,0,0.17-0.03,0.26c-2.38,1.08-4.62,2.49-7.05,3.47  c-1.43,0.58-2.88,1.09-4.31,1.6c0.56-1.93-0.63-3.91-1.91-7.28c-0.4-1.05,1.52-3.65,0.88-4.65c-1.33-2.12-3.76-0.56-5.45-2.85  c-3.02-4.12-6.51-7.89-6.78-11.08c0.64,0.09,1.32,0.08,1.68,0.67c2.39,0.57,0.75-5.89,0.58-7.05c-0.21-1.37-0.3-2.47-0.3-3.93  c0-0.7-0.1-1.49-0.07-2.16c0.03-0.69,0.35-1.24,0.38-1.94c0.58-0.38,0.81-1.1,1.26-1.58c0.46-0.49,1.07-0.97,1.59-1.36  c0.76-0.57,2.16-1.47,3.27-1.89l0.08,0.01c0.1-0.03,0.21-0.05,0.31-0.06c1.36-0.15,2.52,0.94,3.7,1.4c1.76,0.69,3.42,1.36,5.09,2.16  c1.32,0.63,2.64,1.38,3.93,2.09c1.25,0.68,2.69,1.24,3.6,2.28c1.85,2.11,2.01,5.4,2.8,8c0.4,1.34,0.46,3.07,0.66,4.44  c0.24,1.62,0.32,3.2,0.68,4.81c0.32,1.4,0.31,2.76,0.38,4.14C458.05,288.65,458.06,289.37,458.06,290.07z" stroke-miterlimit="10" stroke="#FFFFFF"/>
<path name="虹口区" fill="#D3D3D3" id="path4" d="M441.66,303.78c-1.03,0.37-2.05,0.73-3.05,1.13l-0.41,0.1  c-1.82,1.32-5.47,0.88-7.35,1.37c-0.49,0.13-0.79,0.38-1.09,0.65l-0.28,0.53c-0.98,1.22-2.06,2.2-1.94,3.91  c-2.18-0.15-3.82,0.23-5.16-0.79c-0.48-0.35-0.91-0.89-1.31-1.68c-0.48-0.93,0.76-1.45,0-3.73c-1.23-3.66-4.57-9.51-5.57-11.26  c-2.62-4.62,1.11-11.7,3.5-17.46l0.37-0.1c1.07,0.26,2.43,0.14,3.44-0.3c0.64-0.28,1.24-0.52,1.88-0.41  c0.95,0.16,3.34,1.23,3.71,2.08v0.1c0.27,3.19,3.76,6.96,6.78,11.08c1.69,2.29,4.12,0.73,5.45,2.85c0.64,1-1.28,3.6-0.88,4.65  C441.03,299.87,442.22,301.85,441.66,303.78z" stroke-miterlimit="10" stroke="#FFFFFF"/>
<path name="闸北区" fill="#D3D3D3" id="path5" d="M422.38,310.68c-4.63,2.07-2.55,3.32-4.72,3.07  c-2.16-0.25-5.16-1.19-7.16,0.03s-5,3.22-10.5,1.97c0,0,1-2.5,3.25-7.25s0-13.4,0-13.4c-0.25-1.4-2.25,0.15-3.64-3.34  c-0.58-1.49,0.15-3.15,0.49-4.54c0.38-1.52,0.62-3.17,0.62-4.79c0-1.05-0.27-2.6,0.51-3.32c2.35-0.26,4.56-2.67,4.3-5.12l0.2-0.49  c3.42,0,6.86,0.22,10.3,0.4c0.9,0.04,1.58-0.18,2.19,0.46c0.57,0.61,0.49,1.47,0.78,2.19c-2.39,5.76-6.12,12.84-3.5,17.46  c1,1.75,4.34,7.6,5.57,11.26c0.76,2.28-0.48,2.8,0,3.73C421.47,309.79,421.9,310.33,422.38,310.68z" stroke-miterlimit="10" stroke="#FFFFFF"/>
<path name="普陀区" fill="#D3D3D3" id="path6" d="M403.25,308.5c-2.25,4.75-3.25,7.25-3.25,7.25  c-3.25,1.75-4.93,0.57-6.2,1.88c-1.28,1.31-2.1,3.85-9.3,3.51c-6.67-0.31-7.29-3.56-10.77-7.1l0.68,0.03  c-0.56-0.34-0.61-0.71,0.79-1.21c0.72-0.25,1.04-0.57,1.64-1.01c1.1-0.79,2.94-0.63,4.15-1.05c1.62-0.57,2.38-1.09,2.63-2.87  s-0.11-2.87-1.55-3.7c-1.27-0.75-3.01-1.51-4.5-1.69c-0.06-0.66-0.55-1.81-0.21-2.27c0.21-0.28,1.58-0.81,1.94-0.97  c0.16-2.66-4.91-2.67-6.65-2.73c-1.42-0.05-2.82-0.18-4.22-0.39c-0.55-0.09-1.6-0.14-2.07-0.39c-0.69-0.39-0.46-0.73-0.68-1.48  c-0.37-1.26-1.42-2.34-2.06-3.43c-0.34-0.57-1.05-0.99-0.89-1.68c0.14-0.6,0.86-0.91,1.28-1.27c0.99-0.83,1.86-1.99,2.77-2.75  c0.59-0.49,1.33-0.9,1.73-1.58c0.27-0.45,0.24-1.05,0.62-1.45c0.82-0.88,2.49-0.86,3.54-1.36c1.24-0.59,2.78-1.24,3.26,0.26  c0.42,1.32,0.4,2.66,1.45,3.72c1,1.02,2.71,0.92,4.01,1.2c1.34,0.27,2.54,0.65,3.92,0.78c2.91,0.29,5.53,0.85,8.42,1  c0.44,1.42-0.4,2.36-0.32,3.67c0.05,0.93,0.52,0.95,1.28,1.28c0.81,0.35,1.68,1.2,2.57,0.99c0.77-0.18,1.46-1.14,1.89-1.74  l0.46-0.19c1.39,3.49,3.39,1.94,3.64,3.34C403.25,295.1,405.5,303.75,403.25,308.5z" stroke-miterlimit="10" stroke="#FFFFFF"/>
<path name="长宁区" fill="#D3D3D3" id="path7" d="M403.22,329.75l-4.37,5.1l-0.17,0.12  c-1.31,0.34-3.46-0.75-4.63-1.33c-1.61-0.79-3.3-0.39-4.84,0.3c-1.48,0.66-2.72,1.51-4.08,2.4c-1.1,0.73-2.53,1.97-3.84,2.24  c-1.54,0.31-3.16,0.02-4.64,0.46c-1.33,0.4-2.74,1.62-4.1,1.7c-0.46,0.02-0.86-0.02-1.23-0.12v0.03c-1.63-1.27-3.55-3-3.53-4.15  c0.03-2,3.71-3.5,3.46-5s0-4.25,0-7c0-2.23-1.6-6.63-3.26-8.77c0.52-0.57,1.05-1.09,1.65-1.43c0,0,3.04-0.82,4.09-0.26  c3.48,3.54,4.1,6.79,10.77,7.1c7.2,0.34,8.02-2.2,9.3-3.51c0.47,3.67-1.5,4.85,0.48,5.11c1.61,0.22,4.56,3.81,7.22,4.27  C401.25,328.75,403.22,329.75,403.22,329.75z" stroke-miterlimit="10" stroke="#FFFFFF"/>
<path fill="#D3D3D3" id="path8" d="M371.06,344.12c-0.97,0.79-1.79,1.37-3.02,1.82  c-1.14,0.42-2.44,0.87-3.13,1.71c-0.68,0.04-1.38,0.04-2.05,0c-0.84-1.72-1.84-3.21-2.77-4.83c-0.94-1.62-1.36-3.4-2.33-5  c-0.5-0.81-1.24-1.38-1.76-2.16c-0.5-0.75-0.61-1.45-1.02-2.25c-1.07-2.09-3.07-2.04-4.28-0.26c-1.47,2.14-3.01,1.39-5.3,0.81  c-2.04-0.51-3.35-1.12-4.39-3.04c-1.77-3.27-2.49-7.34-3.46-10.84c-1.89-0.65-2.03-3.69-2.86-5.12c-0.88-1.52-2.75-2.52-4.2-3.54  c0.67-0.55,3.2-2.47,2.4-3.43c0.62-0.9,1.2-2.35,2.17-2.89c1.02-0.58,2.99-0.07,4.09,0.14c1.37,0.27,2.72,0.79,3.92,1.5  c1.11,0.66,2.18,1.75,3.51,1.96c0.25,0.41,0.61,0.71,1.05,0.91c0.46,1.18,1.73,2.55,2.54,3.64c1.19,1.62,1.75,3.07,3.6,3.96  c1.75,0.84,4.29,1.07,6.18,1.54c2,0.5,4.14-0.06,5.89-1.08c0.82-0.47,1.49-1.23,2.15-1.94c1.66,2.14,3.26,6.54,3.26,8.77  c0,2.75-0.25,5.5,0,7s-3.43,3-3.46,5c-0.02,1.15,1.9,2.88,3.53,4.15l0.02,0.22C372.52,342.35,371.72,342.85,371.06,344.12z" stroke-miterlimit="10" stroke="#FFFFFF"/>
<path name="徐汇区" fill="#D3D3D3" id="path9" d="M426.75,332.16l-0.12,0.04c-1.7,1.33-3.33,2.65-5.59,3.05  c-0.19,0.03-0.37,0.04-0.53,0.02c0,0-2.76,0.98-2.85,0.73c-0.08-0.25-7.16-7.25-8.66-7.72c-1.49-0.47,0.25-1.78,0-3.96  c1,0.2,2.75,0.66,3.5-1.58c0.14-0.41,0.27-0.95,0.36-1.57c3.89,0.83,3.22,0.83,4.8,1.83C419.25,324,417.25,331.32,426.75,332.16z" stroke-miterlimit="10" stroke="#FFFFFF"/>
<path name="徐汇区" fill="#D3D3D3" id="path10" d="M420.92,366.08c-0.04,0.48-0.49,1.4-0.69,1.94  c-0.27,0.71-0.52,1.32-0.79,2.06c-0.27,0.75-0.57,1.45-0.49,2.26c0.09,0.82,0.31,1.5,0.13,2.34c-0.17,0.8-0.04,1.6-0.02,2.46  c-0.23,0.44-0.62,0.83-1.07,0.95c-0.81-0.32-1.59-0.43-2.3-1.01c-0.34-0.28-1.58-1.45-1.6-1.91c-0.03-0.48,0.4-0.57,0.59-0.94  c0.18-0.33,0.25-0.93,0.37-1.3c0.32-1.02,0.15-1.31-0.02-2.34c-1.2-0.05-2.23,0.24-3.32,0.47c-1.25,0.26-1.98,0.39-2.45-0.98  c-0.73-2.1-0.03-4.08,0.28-6.17c-1.67,0.32-3.51,0.69-5.19,1.05c-1.09,0.23-1.78,0.29-2.37-0.57c-0.51-0.73-0.62-1.49-0.99-2.33  c-1.17-2.7-2.49-5.26-3.31-8.07c-0.4-1.4-0.58-3.68-2.06-4.22c-0.78-0.28-1.71-0.15-2.53-0.22c-1.16-0.1-1.14-0.43-1.2-1.55  c-0.08-1.48,0.24-3.12,0.6-4.52c0.38-1.43,2.02-2.12,3.22-2.72c1.1-0.56,3.09-0.92,3.93-1.71c1.53-1.44-0.53-2.85-0.79-4.2l4.37-5.1  c0,0-1.97-1-1.72-2.74c0.59,0.1,1.17,0.05,1.72-0.23c3-1.53,4.78-2.67,5.78-2.46c0.25,2.18-1.49,3.49,0,3.96  c1.5,0.47,8.58,7.47,8.66,7.72c0.09,0.25,2.85-0.73,2.85-0.73l-0.06,0.17c0,1.66,0.18,3.1,0.02,4.71c-0.16,1.56-0.27,3.31-0.12,4.81  c0.13,1.31,0.6,3.42,0.08,4.7c-0.42,1.01-1.9,2.4-2.66,3.05c-0.81,0.68-1.82,1.58-1.94,2.75c-0.11,1.18,0.26,2.61,0.42,3.81  c1.11,0.59,1.94,1.97,2.73,2.98C419.91,363.44,421.05,364.33,420.92,366.08z" stroke-miterlimit="10" stroke="#FFFFFF"/>
<path name="黄浦区" fill="#D3D3D3" id="path11" d="M432.52,322.77c-0.08,1.84-0.38,4.56-1.55,5.99  c-0.86,1.06-2.85,3.14-4.22,3.4c-9.5-0.84-7.5-8.16-9.09-9.16c-1.58-1-0.91-1-4.8-1.83c0.45-2.8,0.3-7.16-2.36-7.39  c2-1.22,5-0.28,7.16-0.03c2.17,0.25,0.09-1,4.72-3.07c1.34,1.02,2.98,0.64,5.16,0.79c0.1,1.44,1.29,2.37,1.96,3.63  c0.61,1.16,1.37,2.11,2.01,3.18C432.24,319.47,432.58,321.32,432.52,322.77z" stroke-miterlimit="10" stroke="#FFFFFF"/>
<path fill="#D3D3D3" id="path12" d="M412.86,321.17c-0.09,0.62-0.22,1.16-0.36,1.57  c-0.75,2.24-2.5,1.78-3.5,1.58c-1-0.21-2.78,0.93-5.78,2.46c-0.55,0.28-1.13,0.33-1.72,0.23c-2.66-0.46-5.61-4.05-7.22-4.27  c-1.98-0.26-0.01-1.44-0.48-5.11c1.27-1.31,2.95-0.13,6.2-1.88c5.5,1.25,8.5-0.75,10.5-1.97  C413.16,314.01,413.31,318.37,412.86,321.17z" stroke-miterlimit="10" stroke="#FFFFFF"/>
<path name="金山区" fill="#D3D3D3" id="path13" d="M363.75,467.184c-1.073,0.066-2.029,0.086-3.14,0.102  c-1.044,0.015-1.898,0.74-2.876,0.657c-1.749-0.146-2.364-4.269-4.35-2.788c-1.427,1.065-0.466,3.1,0.215,4.314  c0.89,1.585,0.748,2.657,0.495,4.488c-0.287,2.066-1.847,2.29-3.691,2.591c-1.887,0.307-3.503,0.475-4.554-1.178  c-1.189-1.868-3.209-5.134-5.456-5.788c-1.957-0.569-4.387,0.074-5.845-1.781c-0.985-1.252-0.009-4.081-1.788-4.855  c-0.569-1.577-2.289-0.994-3.503-0.992c-0.885,0.001-0.956,0.014-1.729-0.437c-0.173-0.101-1.308-1.363-1.575-1.014  c-0.355,0.468-0.905,1.027-1.331,1.417c-2.917,2.677-7.356,3.541-11.12,4.686c-2.049,0.623-3.863,1.098-5.899,1.858  c-1.016,0.379-2.147,0.714-3.262,0.425c-0.544-0.141-4.668-3.068-5.085-2.234c-0.744,1.491-0.292,3.544-1.363,4.93  c-0.904-0.509-1.852-0.636-2.721-1.256c-0.722-0.513-1.208-1.213-1.923-1.639c-1.085-0.649-3.005-1.251-3.603,0.284  c-0.766,1.964,1.196,2.652,1.974,3.803c0.939,1.394,0.142,3.395-0.126,4.827c-0.689,0.131-1.695-0.027-2.337-0.235  c-1.892-0.61-3.345-1.824-5.496-0.919c-0.677,0.285-4.164,3.648-4.554,1.57c-0.124-0.662,1.04-1.807,1.308-2.334  c0.368-0.726,0.818-1.461,1.116-2.28c0.721-1.979,0.663-4.018,2.025-5.734c-1.995-0.43-3.556-0.563-5.522-0.26  c-1.376,0.213-1.258-0.116-2.092-1.013c-2.096-2.256-4.746,2.099-5.342,3.893c-0.765,2.298,0.934,3.173,2.964,3.694  c-0.264,0.581-0.451,1.102-0.284,1.741c-1.982,0.252-3.523,0.35-5.585,0.225c-1.881-0.115-3.703-0.007-5.562-0.177  c-1.151-0.107-2.611,0.066-3.703,0.46c-0.693,0.249-1.19,0.874-1.858,1.083c-1.863,0.58-3.773-1.436-4.959-2.564  c-0.872-0.827-1.644-1.167-2.129-2.299c-0.349-0.813-0.311-1.636-1.023-2.281c-0.746-0.676-2.137-0.705-2.618-1.685  c-0.4-0.817,0.207-2.546,0.25-3.428c0.105-2.098,0.4-4.148,0.53-6.282c0.111-1.829,1.161-4.031,0.553-5.918  c-0.412-1.278-1.046-0.966-2.13-1.542c-0.84-0.445-1.522-1.286-2.218-1.937c-0.624-0.583-1.652-1.66-2.484-1.729  c-0.952-0.077-1.708,0.591-2.692,0.666c0.019,1.687-0.083,3.121,1.886,4.076c-0.346,1.249-0.324,2.543-0.375,3.899  c-0.055,1.408-0.435,2.318-0.759,3.56c-0.44,1.685-0.112,6.378,2.44,6.014c0.629,2.754-1.676,2.276-3.412,2.954  c-1.246,0.486-3.738,3.217-3.019,4.656c0.075,0.151,1.841,1.345,2.129,1.566c0.787,0.608,1.763,0.46,2.496,0.975  c1.128,0.793,2.113,3.853,2.368,5.249c2.138,0.864,3.489,1.528,3.387,3.952c-0.082,1.93-0.155,4.205-0.557,6.118  c-0.434,2.069-2.216,2.903-3.733,4.116c-1.216,0.973-2.417,1.829-3.266,3.088c-0.699,1.036-1.208,2.274-2.241,3.056  c0.059,0.896-0.359,1.522-0.798,2.242c-0.233,0.381-0.606,0.343-0.758,0.751c-0.141,0.38,0.142,1.235,0.08,1.7  c-0.237,1.771-0.31,3.799,1.855,4.328c1.42,0.346,3.911-0.374,3.151-2.212c0.073-0.018,0.146-0.034,0.221-0.047  c0.601-1.739,2.983-2.701,4.733-2.864c2.358-0.221,4.222,0.792,6.052,1.936c1.882,1.179,3.085,1.41,5.325,0.944  c0.955-0.2,1.984-0.348,2.465-1.332c0.454-0.926,0.342-1.87,0.847-2.82c2.202-4.15,8.053-2.708,11.65-4.313  c0.9-0.4,3.089-1.59,4.125-1.189c0.277,0.107,0.79,1.251,1.107,1.521c0.663,0.567,1.011,0.682,1.926,0.68  c1.717-0.003,2.475-1.362,3.95-1.616c3.017-0.52,2.545,3.566,2.99,5.279c0.284,1.097,0.933,1.755,2.093,2.204  c0.993,0.385,1.696,0.165,2.516,1.04c0.564,0.602,1.293,1.837,1.286,2.777c-0.007,1.145-0.76,1.776-1.478,2.489  c-0.857,0.853-0.986,1.329-1.408,2.353c-0.81,1.966-0.83,3.569-0.944,5.758c-0.168,3.277,0.124,6.542,0.24,9.814  c0.063,1.787-0.339,3.407,1.787,3.128c2.072-0.271,4.014-0.626,6.121-0.509c1.253,0.069,2.065-0.357,3.239,0.097  c1.077,0.417,2.13,1.312,3,1.894c1.03,0.688,1.521,1.276,2.916,1.279c1.139,0.003,2.289-0.271,3.403-0.389  c1.033-0.109,2.269-0.125,3.274-0.392c1.038-0.278,1.369-0.952,2.216-1.581c2.385-1.772,5.442-1.658,8.204-2.346  c1.355-0.338,1.939-0.777,3.177,0.04c1.085,0.714,1.869,1.869,2.246,3.095c0.301,0.98,0.178,2.046,0.542,3.012  c0.361,0.958,1.214,1.469,1.679,2.354c1.095,2.087,1.132,3.391,3.102,4.877c1.555,1.175,2.908,2.529,4.73,3.275  c1.053,0.433,2.209,0.47,3.155,1.142c1.111,0.793,1.416,1.865,1.926,3.019c0.829,1.866,2.068,3.352,3.678,4.596  c0.42,2.443-0.118,5.219-0.238,7.696c-0.065,1.333-0.187,2.756-0.131,4.057c0.068,1.577,0.372,3.08,1.402,4.32  c1.34,1.615,3.582,1.447,5.534,1.045c1.089-0.222,1.841-0.849,2.879-1.278c2.016-0.835,4.16-0.608,6.281-0.938  c2.133-0.332,4.087-0.898,6.311-0.924c2.076-0.023,5.582,1.172,7.498,0.477c1.236-0.451,2.646-3.15,3.49-4.242  c1.337-1.733,3.133-3.085,4.33-4.865c0.602-0.89,0.669-1.875,1.5-2.657c0.722-0.677,1.794-1.068,2.649-1.541  c1.667-0.922,3.178-1.896,4.48-3.238c1.087-1.12,0.608-2.038,1.332-3.277c0.631-1.076,1.825-1.85,2.826-2.546  c0.744-0.52,1.732-0.892,2.358-1.434c0.94-0.809,0.829-1.364,1.011-2.457c0.652-3.908,2.178-6.944,6.45-7.591  c1.548-0.234,2.841-0.367,4.296-0.938c0.993-0.39,1.064-5.071,1.867-6.018c1.081-1.275,3.802-2.486,5.324-3.153  c1.699-0.742,3.325-1.671,4.889-2.735c-1.499-2.029-1.884-4.93-3.55-6.925c-1.487-1.776-4.41-2.899-6.522-3.681  c-0.063-0.735-0.838-1.489-1.593-1.641c-1.109-0.224-0.888,0.57-1.969,0.753c-1.128,0.191-1.846-1.388-2.691-1.824  c-1.18-0.614-2.138,0.04-3.454-0.143c-1.045-0.145-1.579-0.782-2.321-1.474c-1.533-1.433-2.624-1.839-3.285-3.727  c0.633-0.337,1.299-0.497,1.897-0.948c-1.017-0.844-2.168-0.934-3.429-0.368c-1.125,0.506-1.17,1.607-2.018,2.232  c-0.743,0.547-2.52,0.519-3.377,0.063c-0.915-0.486-0.838-1.597-1.708-1.95c-0.075-0.785-0.177-1.494-0.127-2.32  c0.595,0.615,1.506,0.456,1.932-0.279c0.453-0.776-0.105-1.507-0.257-2.222c-0.354-1.666-0.214-3.481,0.053-5.08  c0.204-0.372,0.009-0.415,0.067-0.94c0.125-1.112,0.457-1.849,0.279-3.008c-0.15-0.961-0.441-2.02-0.538-3.011  c-0.199-2.077-0.118-4.339-1.174-6.154c-0.947-1.624-2.433-2.624-4.185-3.399c-0.856-0.379-1.778-0.674-2.624-1.176  c-0.934-0.556-0.878-1.019-1.401-1.866c-0.579-0.938-1.076-1.232-1.344-2.324c-0.123-0.505-0.045-1.259-0.391-1.708  c-0.251-0.326-0.92-0.476-1.053-0.641c-0.597-0.749-0.382-1.832-0.677-2.756c-0.022-0.069-0.047-0.133-0.071-0.198  c-1.741-0.055-4.319-0.265-5.92-0.486C367.595,467.909,365.708,467.063,363.75,467.184z" stroke-miterlimit="10" stroke="#FFFFFF"/>
<path name="闵行区" fill="#D3D3D3" id="path14" d="M437.427,421.19c0.961-0.508,3.737-2.021,4.823-1.443  c0.546,0.291,0.466,1.025,0.849,1.426c0.402,0.425,1.507,0.872,2.055,1.126c0.825,0.382,1.459,0.395,2.325,0.62  c1.219,0.316,2.263,1.346,3.327,2.067c1.455,0.986,2.618,0.507,4.26,0.845c0.849,0.174,1.876,1.797,2.757,1.582  c0.829-0.204,0.916-2.357,1.693-3.045c0.774-0.689,2.586-0.782,3.587-1.753c-0.486-0.358-0.796-1.024-0.814-2.18  c-0.009-0.524,0.819-1.854,0.247-2.46c-0.333-0.353-2.08-0.354-2.602-0.517c-0.657-0.206-1.723-0.396-2.254-0.78  c-3.123-2.25,2.11-6.028-1.13-8.05c0.12-0.166,0.37-0.662,0.426-0.728c0.931-0.696,1.911-1.831,0.771-2.684  c-1.096-0.817-2.89-0.15-4.092-0.094c-0.57,0.027-1.558,0.178-2.097,0.004c-0.885-0.287-0.602-0.44-1.008-1.181  c-0.286-0.52-0.679-0.964-0.694-1.571c-0.045-1.775,1.371-3.264,2.358-4.55c0.935-1.218,0.742-2.609,1.539-3.959  c0.763-1.292,6.06-4.068,4.982-5.993c-0.842-0.083-2.057-0.147-2.792-0.576c-0.151-0.089-2.012-1.924-2.003-1.955  c0.452-1.797,1.038-2.458,2.367-3.737c1.025-0.987,2.77-2.981,1.294-4.247c-0.142-3.188-3.679-2.534-5.912-2.726  c-1.281-0.109-2.299-0.268-3.303-1.013c-1.043-0.771-3.301-1.906-3.492-3.663c-1.095,0.834-3.217,0.01-4.451-0.435  c-1.055-0.378-1.35-1.034-2.256-1.771c-1.333,0.415-1.199,2.052-2.493,1.804c-1.259-0.244-1.926-1.496-3.241-1.725  c-0.598-0.105-1.305,0.174-1.837-0.129c-0.387-0.223-0.557-1.33-0.8-1.453c-1.055-0.533-1.754,1.116-2.098,1.821  c-0.071,0.014-0.144,0.029-0.217,0.044c-0.127,0.707-0.458,1.602-1.176,1.832c-0.043,0.11,0.03,0.257-0.047,0.349  c-0.714,0.183-1.626,1.461-2.099,2.022c-1.338-0.433-2.98-0.42-3.25-0.406c-0.096,0.459-0.192,0.921-0.285,1.388  c-0.221,1.115-0.787,3.946-0.103,4.872l0.216,0.267c1.622,3.663,2.832,6.146,3.448,10.201c0.322,2.121,0.817,3.724,1.15,5.745  c0.342,2.097,0.896,4.316,1.309,6.323c0.34,1.655,0.432,3.652,1.081,5.223c0.688,1.665,1.558,2.511,1.827,4.303  c0.46,3.067,1.96,5.61,2.391,8.552l-0.023,0.129c0.182,1.483,0.308,3.698,1.067,4.908  C434.677,423.287,435.863,422.018,437.427,421.19z" stroke-miterlimit="10" stroke="#FFFFFF"/>
<path name="奉贤区" fill="#D3D3D3" id="path15" d="M552.926,461.074c-0.088-2.229-1.492-3.944-2.532-5.824  c-0.208-0.377-0.346-1.451-0.703-1.711c-0.438-0.323-1.388-0.092-1.939-0.125c-1.721-0.103-1.766-1.17-0.772-2.355  c-1.225-2.333-1.287-4.156-4.07-5.108c-1.253-0.428-2.469-0.118-3.568-1.009c-0.911-0.738-1.58-1.723-2.375-2.518  c-1.476-1.474-3.236-2.531-4.782-3.831c-1.274-1.07-2.289-2.526-3.529-3.668c-1.305-1.205-2.594-2.662-3.969-3.727  c-0.778-0.602-1.818-0.649-2.721-1.079c-2.672-1.273-5.42-2.334-8.377-2.742c-4.318-0.596-8.71-1.059-13.21-1.053  c-2.164,0.002-4.109-0.371-6.282-0.263c-1.072,0.053-2.2,0.051-3.271,0c-0.9-0.043-2.411,0.154-3.273-0.124  c-0.821-0.266-1.664-1.226-2.354-1.704c-0.913-0.632-1.397-1.815-2.252-2.362c-1.687-1.081-5.095-0.404-7.042-0.521  c-2.347-0.141-4.515-0.02-6.768,0.422c-1.893,0.371-4.671,1.845-6.031,0.843c-1.002,0.971-2.813,1.064-3.587,1.753  c-0.776,0.688-0.864,2.841-1.693,3.045c-0.881,0.215-1.908-1.408-2.757-1.582c-1.642-0.339-2.805,0.14-4.26-0.845  c-1.064-0.721-2.108-1.751-3.327-2.067c-0.866-0.225-1.5-0.238-2.325-0.62c-0.548-0.253-1.653-0.701-2.055-1.126  c-0.383-0.401-0.303-1.135-0.849-1.426c-1.086-0.578-3.862,0.935-4.823,1.443c-1.563,0.828-2.749,2.097-4.414,2.627  c-0.759-1.209-0.886-3.425-1.067-4.908l-0.022,0.124c-0.414-1.346-0.612-2.152-1.835-2.634l-0.153-0.102  c-0.017-0.029-0.029-0.062-0.045-0.092c-0.418,0-0.927,0.031-1.228,0.043c-1.197,0.047-1.79,0.427-2.871,0.789  c-1.887,0.63-3.651,1.552-5.637,2.184c-1.943,0.619-4.154,0.493-6.179,0.66c-1.354,0.111-2.07,0.087-3.086,0.982  c-0.815,0.717-1.507,1.241-2.542,1.767c-1.734,0.881-3.194,2.16-4.78,3.325c-1.799,1.322-4.023,1.701-6.085,2.429  c-2.17,0.766-4.925,0.789-7.162,1.214c-2.291,0.434-4.627,0.776-6.94,1.309c-1.537,0.352-3.431,0.828-4.577,1.988  c-1.365,1.38-0.17,2.863,0.127,4.551c0.257,1.45,0.11,2.886,0.393,4.318c0.301,1.525,0.349,2.879,0.524,4.449  c0.137,1.232,1.079,2.11,1.78,3.148c-1.737,0.136-0.542,3.523-0.37,4.705c0.441,3.026-1.296,2.112-3.22,3.163  c-0.485,1.101-1.501,1.212-1.204,2.6c0.178,0.828,0.718,1.702,0.916,2.616c0.14,0.651,0.78,2.171,0.66,2.744  c-0.248,1.175-1.706,1.016-2.463,1.468c-1.257,0.748-0.735,1.302-0.449,2.198c0.296,0.924,0.08,2.007,0.677,2.756  c0.133,0.165,0.802,0.314,1.053,0.641c0.346,0.449,0.267,1.203,0.391,1.708c0.267,1.092,0.765,1.386,1.344,2.324  c0.523,0.846,0.467,1.309,1.401,1.866c0.846,0.502,1.767,0.798,2.624,1.176c1.752,0.775,3.238,1.775,4.185,3.399  c1.056,1.815,0.974,4.077,1.174,6.154c0.096,0.991,0.388,2.05,0.538,3.011c0.179,1.16-0.153,1.896-0.279,3.008  c-0.058,0.525,0.136,0.568-0.067,0.94c-0.267,1.598-0.408,3.413-0.053,5.08c0.152,0.714,0.71,1.446,0.257,2.222  c-0.426,0.735-1.337,0.894-1.932,0.279c-0.05,0.826,0.052,1.535,0.127,2.32c0.87,0.353,0.793,1.463,1.708,1.95  c0.857,0.456,2.633,0.484,3.377-0.063c0.848-0.626,0.893-1.726,2.018-2.232c1.261-0.566,2.412-0.475,3.429,0.368  c-0.598,0.452-1.264,0.612-1.897,0.948c0.661,1.888,1.752,2.295,3.285,3.727c0.742,0.692,1.276,1.329,2.321,1.474  c1.317,0.183,2.274-0.471,3.454,0.143c0.845,0.437,1.564,2.015,2.691,1.824c1.081-0.183,0.86-0.976,1.969-0.753  c0.755,0.152,1.53,0.906,1.593,1.641c2.112,0.782,5.035,1.905,6.522,3.681c1.666,1.995,2.051,4.896,3.55,6.925  c0.072-0.049,0.146-0.094,0.217-0.143c0.196-0.136,0.371-0.289,0.556-0.435c-0.003-0.019-0.001-0.037-0.004-0.057  c0.003,0.019,0.002,0.038,0.004,0.057c1.283-1.01,2.339-2.215,3.684-3.165c1.648-1.161,3.451-2.169,5.182-3.209  c2.691-1.614,5.871-3.625,8.923-4.548c1.098-0.333,2.059,0.168,3.138,0.134c0.956-0.031,1.926-0.486,2.766-0.913  c1.885-0.96,3.486-2.426,5.484-3.178c1.279-0.482,3.093-0.324,4.447-0.459c0.765-0.077,1.582-0.23,2.357-0.163  c0.926,0.081,1.27,0.254,2.166,0.063c1.077-0.231,2.172-0.8,3.191-1.209c4.404-1.765,8.854-3.118,13.331-4.644  c2.349-0.799,4.674-1.07,7.099-1.565c4.496-0.92,9.05-1.78,13.602-2.46c2.426-0.362,4.941-0.536,7.333-0.906  c2.168-0.337,4.165-1.07,6.413-1.185c5.345-0.273,10.664-0.766,15.968-1.305c2.792-0.284,5.74-0.266,8.635-0.266  c3.11,0,6.52,1.509,9.581,0.538c1.337-0.424,2.582-1.031,3.809-1.675c0.073-1.187,0.036-2.435,0.089-3.574  c0.189-4.115-0.393-7.334,1.668-11.153c1.128-2.091,1.472-3.872,1.472-6.252c0-2.348-0.064-4.147,0.265-6.413  C552.634,465.219,553.009,463.16,552.926,461.074z" stroke-miterlimit="10" stroke="#FFFFFF"/>
<path name="南汇区" fill="#D3D3D3" id="path16" d="M626.833,467.012c-0.277-3.064-0.8-6.912-2.88-9.315  c-1.33-1.536-2.435-3.548-3.275-5.334c-0.969-2.056-2.313-3.25-3.544-5.103c-1.41-2.124-2.833-5.263-3.236-7.736  c-0.453-2.782-1.902-4.95-3.228-7.405c-1.139-2.109-2.873-3.881-4.38-5.723c-1.561-1.91-2.897-3.75-4.131-5.929  c-0.67-1.186-1.33-2.434-1.926-3.696c-1.986-4.206-4.202-8.271-6.127-12.559c-2.128-4.737-4.072-9.567-6.606-14.109  c-1.883-3.376-3.361-6.962-5.284-10.318c-0.909-1.584-1.93-2.557-3.066-3.838c-0.327-0.37-0.545-0.793-0.717-1.239  c-1.23,0.91-3.084,2.229-4.115,2.393c-1.111-1.562-2.865-3.905-4.941-3.68c-1.348,0.146-2.487,1.159-3.797,1.34  c-2.211,0.307-4.004-0.342-5.212-2.231c-0.612-0.956-0.95-2.059-1.45-3.072c-0.555-1.127-1.466-1.862-2.065-2.849  c-0.55-0.903-0.709-1.979-1.324-2.89c-0.907-1.346-1.982-3.761-3.247-4.75c-1.509-1.18-3.755-0.494-5.179,0.376  c-0.92,0.563-1.601,1.087-2.755,1.152c-1.092,0.064-2.211-0.48-3.271-0.266c-1.188,0.24-1.39,1.427-2.487,1.704  c-0.569,0.144-0.877-0.226-1.433,0.035c-0.744,0.349-0.716,0.927-1.152,1.536c-0.737,1.03-1.406,0.977-2.646,1.182  c-1.008,0.166-1.839,0.234-2.884,0.127c-0.907-0.092-1.809-0.101-2.727-0.151c-0.099-1.945-0.683-2.86-1.219-4.536  c-1.588,0.106-2.744,0.609-4.169,1.285c-1.541,0.728-2.723,0.35-4.324,0.007c-1.395-0.297-2.742-0.453-4.18-0.393  c-1.103,0.047-0.991,0.196-1.541-0.659c-0.324-0.502-0.512-1.323-0.4-1.942c0.484-0.713,1.319-1.493,1.926-2.144  c0-0.107-0.101-0.094-0.097-0.201c0.542-0.963,0.909-1.946,0.108-2.918c-0.555-0.675-1.743-1.278-2.592-1.279  c-0.584,0.903-1.319,0.965-1.986,1.646c-0.879,0.896-0.745,1.973-0.802,3.153c-1.436,0.207-3.058,2.75-3.679,3.943  c-0.905,1.745-2.039,3.18-4.017,3.697c-2.087,0.544-4.771,0.342-6.782-0.191c-2.88-0.762-1.65-2.63-1.629-4.943  c0.009-0.966-0.524-1.603-0.757-2.515c-0.279-1.096,0.217-1.969,0.238-3.009c0.071-3.776-7.481-5.255-9.997-3.77  c-1.401,1.328-2.276,2.19-4.504,2.489c-2.115,0.285-4.225-0.041-6.413,0.132c-1.083,0.085-2.052,0.511-3.039,0.418  c-1.261-0.118-2.051-0.953-3.276-1.175c-2.19-0.396-3.462,1.405-5.433,1.836c-3.179,0.694-6.609,0.035-9.961,0.255  c0.337,0.325,0.628,0.797,0.664,1.261c1.541,0.904,2.048,4.341,1.42,5.914c-0.931,2.322-3.232,1.208-4.947,2.252  c-2.112,1.283-0.512,3.666-0.808,5.474c-0.095,0.581-0.332,0.961-0.653,1.205c0.19,1.757,2.448,2.892,3.492,3.663  c1.004,0.744,2.022,0.903,3.303,1.013c2.233,0.192,5.77-0.462,5.912,2.726c1.476,1.266-0.269,3.26-1.294,4.247  c-1.329,1.278-1.915,1.939-2.367,3.737c-0.009,0.032,1.852,1.867,2.003,1.955c0.735,0.429,1.951,0.493,2.792,0.576  c1.077,1.925-4.22,4.701-4.982,5.993c-0.797,1.35-0.604,2.742-1.539,3.959c-0.987,1.287-2.403,2.775-2.358,4.55  c0.015,0.607,0.408,1.051,0.694,1.571c0.406,0.742,0.123,0.894,1.008,1.181c0.539,0.174,1.526,0.023,2.097-0.004  c1.203-0.055,2.996-0.723,4.092,0.094c1.141,0.853,0.161,1.988-0.771,2.684c-0.056,0.065-0.307,0.561-0.426,0.728  c3.239,2.022-1.994,5.8,1.13,8.05c0.531,0.383,1.597,0.574,2.254,0.78c0.522,0.163,2.268,0.164,2.602,0.517  c0.572,0.606-0.256,1.937-0.247,2.46c0.069,4.391,4.275,1.84,6.845,1.337c2.254-0.441,4.421-0.563,6.768-0.422  c1.947,0.117,5.355-0.56,7.042,0.521c0.855,0.547,1.339,1.73,2.252,2.362c0.69,0.478,1.534,1.438,2.354,1.704  c0.862,0.279,2.374,0.081,3.273,0.124c1.071,0.051,2.199,0.053,3.271,0c2.173-0.108,4.118,0.265,6.282,0.263  c4.5-0.006,8.891,0.457,13.21,1.053c2.957,0.408,5.704,1.469,8.377,2.742c0.904,0.43,1.943,0.477,2.721,1.079  c1.375,1.064,2.664,2.521,3.969,3.727c1.24,1.142,2.255,2.598,3.529,3.668c1.546,1.3,3.306,2.357,4.782,3.831  c0.795,0.795,1.464,1.78,2.375,2.518c1.1,0.891,2.315,0.581,3.568,1.009c2.783,0.952,2.845,2.775,4.07,5.108  c-0.993,1.185-0.948,2.252,0.772,2.355c0.552,0.034,1.502-0.197,1.939,0.125c0.357,0.26,0.496,1.334,0.703,1.711  c1.04,1.88,2.444,3.595,2.532,5.824c0.082,2.086-0.292,4.144-0.591,6.211c-0.329,2.266-0.265,4.065-0.265,6.413  c0,2.38-0.344,4.161-1.472,6.252c-2.061,3.819-1.479,7.039-1.668,11.153c-0.053,1.139-0.015,2.387-0.089,3.574  c1.596-0.838,3.159-1.739,4.843-2.396c2.387-0.93,5.699-0.81,8.201-0.526c1.395,0.159,2.723,0.022,3.959-0.681  c1.586-0.903,2.422-1.231,4.279-1.679c2.203-0.53,3.724,1.05,5.895,1.185c2.465,0.151,4.792-0.396,7.23-0.393  c4.958,0.007,10.142-0.742,15.018-0.262c2.024,0.199,4.195,1.487,6.213,1.166c1.973-0.315,3.883-1.892,5.594-2.834  c1.902-1.047,4.019-1.73,5.79-2.961c1.745-1.21,3.365-2.66,5.173-3.779c1.964-1.215,4.788-1.779,5.255-4.405  c0.374-2.096,0.355-4.679,0.372-6.817C626.674,469.222,626.93,468.082,626.833,467.012z" stroke-miterlimit="10" stroke="#FFFFFF"/>
<path name="浦东新区" fill="#D3D3D3" id="path17" d="M424.183,372.313c0.622-0.66,1.213-1.726,2.099-2.022  c0.077-0.092,0.004-0.238,0.047-0.349c0.718-0.23,1.049-1.125,1.176-1.832c0.073-0.015,0.146-0.03,0.217-0.044  c0.344-0.705,1.044-2.354,2.098-1.821c0.243,0.123,0.413,1.231,0.8,1.453c0.531,0.303,1.238,0.024,1.837,0.129  c1.315,0.229,1.982,1.481,3.241,1.725c1.294,0.248,1.16-1.389,2.493-1.804c0.905,0.737,1.201,1.393,2.256,1.771  c1.595,0.574,4.683,1.797,5.104-0.771c0.296-1.809-1.304-4.191,0.808-5.474c1.715-1.044,4.015,0.07,4.947-2.252  c0.628-1.573,0.122-5.009-1.42-5.914c-0.036-0.464-0.327-0.935-0.664-1.261c3.352-0.221,6.782,0.439,9.961-0.255  c1.971-0.431,3.243-2.232,5.433-1.836c1.225,0.222,2.016,1.057,3.276,1.175c0.988,0.093,1.957-0.333,3.039-0.418  c2.188-0.173,4.298,0.153,6.413-0.132c2.228-0.299,3.103-1.161,4.504-2.489c2.516-1.485,10.068-0.006,9.997,3.77  c-0.021,1.04-0.516,1.913-0.238,3.009c0.234,0.913,0.767,1.549,0.757,2.515c-0.021,2.314-1.251,4.181,1.629,4.943  c2.011,0.533,4.694,0.735,6.782,0.191c1.979-0.517,3.112-1.953,4.017-3.697c0.621-1.192,2.242-3.736,3.679-3.943  c0.058-1.18-0.077-2.257,0.802-3.153c0.668-0.681,1.403-0.742,1.986-1.646c0.849,0.001,2.037,0.604,2.592,1.279  c0.801,0.972,0.434,1.954-0.108,2.918c-0.004,0.107,0.097,0.094,0.097,0.201c-0.608,0.651-1.442,1.432-1.926,2.144  c-0.112,0.619,0.077,1.44,0.4,1.942c0.55,0.856,0.438,0.706,1.541,0.659c1.438-0.06,2.785,0.095,4.18,0.393  c1.601,0.343,2.783,0.722,4.324-0.007c1.425-0.676,2.581-1.179,4.169-1.285c0.537,1.677,1.12,2.591,1.219,4.536  c0.918,0.051,1.82,0.06,2.727,0.151c1.045,0.107,1.876,0.039,2.884-0.127c1.24-0.205,1.91-0.152,2.646-1.182  c0.436-0.61,0.408-1.188,1.152-1.536c0.555-0.261,0.864,0.109,1.433-0.035c1.098-0.277,1.3-1.463,2.487-1.704  c1.06-0.214,2.179,0.329,3.271,0.266c1.154-0.065,1.835-0.589,2.755-1.152c1.423-0.87,3.67-1.556,5.179-0.376  c1.265,0.988,2.34,3.404,3.247,4.75c0.615,0.912,0.774,1.987,1.324,2.89c0.598,0.987,1.509,1.723,2.065,2.849  c0.5,1.013,0.838,2.116,1.45,3.072c1.208,1.889,3.002,2.538,5.212,2.231c1.309-0.181,2.448-1.194,3.797-1.34  c2.076-0.225,3.83,2.118,4.941,3.68c1.031-0.164,2.885-1.483,4.115-2.393c-0.367-0.952-0.5-2.018-0.882-2.956  c-0.746-1.836-1.915-3.23-3.271-4.705c-1.535-1.671-2.82-3.792-4.144-5.604c-1.156-1.582-2.443-2.744-3.769-4.251  c-1.894-2.149-4.167-3.854-6.086-6.11c-1.096-1.289-1.986-2.622-3.105-3.933c-0.844-0.987-2.353-2.362-2.774-3.642  c-1.38-0.902-2.231-3.791-2.972-5.256c-0.881-1.749-2.252-3.34-3.642-4.683c-2.379-2.299-3.92-4.723-5.304-7.719  c-1.105-2.388-1.304-5.179-2.674-7.406c-1.41-2.293-3.176-4.417-5.276-6.108c-1.264-1.019-2.031-1.665-3.016-3.135  c-0.797-1.189-2.14-1.856-3.114-2.876c-0.918-0.962-1.122-2.037-1.61-3.273c-1.242-3.152-3.148-6.009-5.123-8.744  c-1.096-1.517-2.113-3.097-3.49-4.373c-1.618-1.498-3.69-1.541-5.072-2.982c-3.099-3.226-5.382-7.229-8.539-10.504  c-2.804-2.91-5.091-6.282-7.569-9.529c-1.689-2.213-2.742-4.898-4.444-7.096c-1.103-1.42-2.994-2.079-4.305-3.279  c-1.061-0.967-1.816-2.371-3.193-2.964c-1.156-0.497-2.431-0.221-3.66-0.658c-2.205-0.784-5.514-3.026-6.826-5.08  c-2.504-1.792-5.816-2.783-8.816-3.981c-2.991-1.195-5.869-2.363-8.934-3.319c-2.706-0.844-4.5-3.286-7.354-3.978l-0.648-0.179  c-1.962-1.118-2.986-2.423-5.503-2.801c-1.184-0.179-2.381-0.235-3.531,0.072c-1.545,0.413-3.286,0.645-4.339,1.917  c-1.363,1.642-2.098,4.062-2.603,6.092c-0.34,1.363-0.941,2.322-1.532,3.438c-1.446,2.741,1.799,5.791,3.103,7.79  c1.754,2.696,5.196,4.232,8.081,5.431c1.55,0.645,3.22,0.754,4.717,1.302c4.924,1.803,9.806,3.813,10.361,9.531  c0.183,1.875,0.239,4.077,0.537,6.007c0.615,3.999,1.564,7.879,1.564,12.046c0,3.327,0.479,8.231-2.358,10.622  c-1.373,1.158-3.632,2.73-5.34,3.272c-0.755,1.055-3.985,2.076-5.395,2.726c-1.681,0.773-3.312,1.314-5.1,1.83  c-1.694,0.487-3.391,0.973-5.091,1.442c-1.704,0.47-4.249,0.64-5.764,1.513c-1.451,0.836-2.343,4.803-0.026,5.315  c0.116,1.088,1.255,2.692,1.694,3.671c0.656,1.461,1.085,2.763,1.332,4.426c0.722,4.864-2.373,10.845-6.929,12.689  c-0.95,0.383-2.351,0.722-3.14,1.337c-1.027,0.8-0.778,2.098-1.941,2.741c-0.065,1.117-0.288,2.187-0.316,3.25  c-0.026,0.995,0.249,1.607,0.46,2.611c0.481,2.27-0.236,4-0.66,6.056c-0.455,2.198-1.173,3.15-2.551,4.777  c-1.7,2.005-0.606,3.252,0.432,5.274c0.716,1.399,1.549,2.388,2.448,3.694c1.075,1.56,0.202,2.798,0.026,4.424  c-0.107,1.001-0.309,2.006-0.521,3.025C422.022,371.853,423.164,372.004,424.183,372.313z" stroke-miterlimit="10" stroke="#FFFFFF"/>
<path name="闵行区" fill="#D3D3D3" id="path18" d="M427.507,411.643c-0.628-3.583-1.219-9.722-2.08-13.165  c-0.971-3.884-2.057-5.368-2.66-9.449c-0.585-3.982-2.155-7.466-3.954-10.942l0.26-0.643c0.001-0.105-0.007-0.206-0.009-0.309  c-0.237,0.443-0.625,0.834-1.07,0.953c-0.814-0.316-1.595-0.426-2.304-1.009c-0.339-0.28-1.577-1.454-1.601-1.911  c-0.028-0.477,0.397-0.569,0.595-0.935c0.178-0.334,0.247-0.93,0.365-1.303c0.325-1.016,0.148-1.305-0.017-2.342  c-1.203-0.052-2.235,0.242-3.325,0.47c-1.247,0.264-1.975,0.389-2.448-0.975c-0.728-2.1-0.03-4.086,0.281-6.171  c-1.666,0.32-3.514,0.692-5.186,1.045c-1.096,0.232-1.784,0.288-2.375-0.568c-0.503-0.727-0.619-1.49-0.987-2.334  c-1.175-2.697-2.49-5.256-3.308-8.069c-0.405-1.396-0.586-3.681-2.067-4.216c-0.778-0.281-1.703-0.151-2.527-0.223  c-1.162-0.103-1.144-0.434-1.203-1.552c-0.077-1.474,0.247-3.121,0.609-4.515c0.373-1.431,2.014-2.121,3.22-2.727  c1.096-0.552,3.087-0.916,3.926-1.709c1.528-1.44-0.535-2.845-0.786-4.199l-0.174,0.122c-1.311,0.34-3.464-0.752-4.631-1.324  c-1.614-0.79-3.301-0.397-4.84,0.292c-1.478,0.662-2.719,1.513-4.079,2.407c-1.099,0.723-2.531,1.969-3.845,2.234  c-1.537,0.309-3.154,0.023-4.634,0.467c-1.332,0.398-2.746,1.613-4.101,1.693c-0.457,0.027-0.864-0.019-1.226-0.12l0.016,0.251  c1.181,1.481,0.375,1.987-0.284,3.25c-0.97,0.796-1.791,1.37-3.018,1.823c-1.139,0.419-2.436,0.866-3.133,1.71  c-0.399,0.023-0.808,0.027-1.217,0.023c0.878,1.535,1.045,3.662,2.122,5.009c0.789,0.986,1.405,0.702,1.734,1.926  c0.299,1.114,0.039,1.801,0.807,2.727c2.234,0.862,3.192,4.446,4,6.47c0.213,0.534,0.597,1.015,0.857,1.501  c0.284,0.533,0.353,1.248,0.641,1.734c0.588,0.993,1.951,2.634,0.392,3.557c-0.349,1.349-1.194,2.563,0.368,3.409  c1.476,0.799,3.258,0.146,4.642,0.997c1.397,0.858,2.066,2.878,2.562,4.335c0.703,2.067,2.145,3.86-0.771,4.734  c-0.304,1.375-1.313,2.508-1.691,3.937c-0.52,1.968-0.597,3.295-2.504,4.261c-2.243,1.135-6.591,3.19-8.45,0.616l-0.329-0.196  c0.78,1.554,0.623,3.894,0.787,5.628c0.189,1.975-0.105,3.904-0.388,5.765c-0.604,3.97,0.207,8.095,0.405,12.014  c0.008,0.119,2.194-0.251,2.392-0.258c0.961-0.036,1.146-0.282,1.593,0.709c0.595,1.319-0.587,3.071-1.352,4.055  c-1.67,2.154-5.319,4.248-5.01,7.427c0.181,1.88,0.497,2.608,0.497,4.614l0.159,0.225c1.522,0.915,4.034,0.772,5.759,1.142  c0.976,0.209,1.85,0.233,2.879,0.298c0.828,0.051,1.58,0.385,2.395,0.392c-0.074-0.624,0.045-1.222,0.619-1.802  c1.146-1.16,3.04-1.636,4.577-1.988c2.312-0.533,4.648-0.875,6.94-1.309c2.237-0.425,4.992-0.448,7.162-1.214  c2.062-0.728,4.286-1.107,6.085-2.429c1.586-1.165,3.047-2.444,4.78-3.325c1.034-0.526,1.726-1.05,2.542-1.767  c1.016-0.895,1.732-0.871,3.086-0.982c2.025-0.167,4.236-0.041,6.179-0.66c1.986-0.632,3.75-1.554,5.637-2.184  c1.081-0.362,1.674-0.742,2.871-0.789c0.301-0.012,0.809-0.043,1.228-0.043C429.276,414.989,429.745,412.456,427.507,411.643z" stroke-miterlimit="10" stroke="#FFFFFF"/>
<path name="松江区" fill="#D3D3D3" id="path19" d="M372.911,434.009c-1.724-0.369-4.236-0.227-5.759-1.142  l-0.159-0.225c0-2.006-0.316-2.734-0.497-4.614c-0.309-3.178,3.34-5.273,5.01-7.427c0.765-0.984,1.947-2.736,1.352-4.055  c-0.448-0.991-0.632-0.745-1.593-0.709c-0.198,0.007-2.385,0.377-2.392,0.258c-0.198-3.918-1.009-8.044-0.405-12.014  c0.283-1.861,0.577-3.79,0.388-5.765c-0.165-1.734-0.008-4.073-0.787-5.628l0.329,0.196c1.859,2.574,6.206,0.52,8.45-0.616  c1.908-0.966,1.984-2.293,2.504-4.261c0.378-1.429,1.387-2.562,1.691-3.937c2.916-0.873,1.474-2.667,0.771-4.734  c-0.497-1.457-1.165-3.477-2.562-4.335c-1.384-0.851-3.166-0.198-4.642-0.997c-1.562-0.846-0.716-2.06-0.368-3.409  c1.559-0.923,0.196-2.564-0.392-3.557c-0.288-0.485-0.357-1.201-0.641-1.734c-0.26-0.486-0.643-0.967-0.857-1.501  c-0.808-2.025-1.766-5.608-4-6.47c-0.768-0.926-0.508-1.613-0.807-2.727c-0.329-1.224-0.944-0.941-1.734-1.926  c-1.077-1.346-1.245-3.473-2.122-5.009c-0.28-0.003-0.56-0.008-0.832-0.022c-0.161-0.331-0.333-0.647-0.504-0.963  c-0.84,0.236-1.937,0.812-2.735,0.942c-1.15,0.187-1.219-0.606-2.177-0.933c-1.522-0.522-2.493,1.616-3.72,2.101  c-0.21,0.444-1.092,1.366-1.564,1.682c-0.804,0.539-1.411,0.274-2.257,0.148c-1.554-0.234-3.705-0.194-4.857,0.993  c-0.61-0.436-0.971-0.867-1.74-1.058c-0.693,0.846-0.287,2.36-0.179,3.308c0.505,0.29,0.651,1.292,0.685,1.867  c0.634,0.046,2.509,0.287,2.734,0.8c0.369,0.842-0.662,1.915-1.119,2.482c-0.923,1.145-2.151,1.585-3.694,1.15  c-0.854-0.241-1.505-0.807-2.451-0.884c-0.872-0.07-2.164-0.198-2.727,0.414c-0.676,0.737-0.364,1.687-0.527,2.516  c-0.97-0.324-1.685-0.866-2.832-0.791c-1.206,0.078-2.543,0.222-3.717-0.065c0.128,0.745,0.612,1.187,0.674,1.95  c0.037,0.459-0.044,1.788-0.464,2.067c-0.574,0.381-1.261-0.585-1.967-0.082c-0.598,0.425-0.382,1.554-0.334,2.121  c-1.886,1.202-4.03,2.467-6.352,2.358c0.665-1.395,0.686-2.884,0.774-4.5c0.044-0.788,0.079-1.606,0.199-2.354  c0.104-0.646,0.562-1.482,0.467-2.161c-0.327-2.325-7.029,0.839-8.812-0.417c-0.678-0.479-1.218-1.181-1.962-1.544  c-0.912-0.446-1.531-0.094-2.355,0.194c-0.995,0.35-1.624,0.539-2.655,0.126c-0.989-0.396-1.869-1.099-3.024-0.897  c0.206,2.433-0.962,5.61-0.309,8.029c0.258,0.956,0.615,0.905,1.35,1.504c0.398,0.325,0.984,0.905,0.787,1.525  c-0.144,0.455-1.188,1.141-1.644,1.3c-0.912,0.317-1.173-0.218-1.855-0.584c0.045,0.807-0.231,1.56-0.308,2.346  c-0.061,0.609,0.174,1.609-0.072,2.088c-0.412,0.802-1.278,0.571-1.989,0.66c-0.838,0.105-1.436,0.664-2.248,0.81  c0.882,0.867,1.335,1.025,0.857,2.314c-0.93,0.469-1.723,1.257-2.854,1.023c-0.469-0.097-2.484-1.47-2.731-0.324  c-0.12,0.557,0.769,0.561,1.017,0.864c0.339,0.415,0.113,1.108,0.261,1.599c0.173,0.577,0.521,0.512,0.376,1.25  c-0.093,0.465-0.52,0.979-0.792,1.383c-0.849-0.583-1.105-1.521-1.938-2.123c-0.92-0.666-1.723-0.692-2.822-1.083  c-0.969-0.344-1.745-0.741-2.77-0.91c-1.088-0.18-2.079-0.225-3.026-0.699c-0.151-2.201-2.398-2.633-4.046-3.333  c-1.936-0.821-3.044-0.358-4.047,1.583c-0.687,1.331-1.267,2.234-2.547,3.139c-1.704,1.203-1.468,2.039-1.053,3.824  c0.322,1.378,0.308,3.231,0.388,4.619c0.06,1.052,0.08,1.374,1.107,1.009c0.792-0.281,1.333-0.728,2.252-0.541  c1.416,0.286,2.443,1.855,3.51,2.693c1.318,1.036,2.144,1.986,3.167,3.294c0.517,0.66,0.757,1.014,0.963,1.889  c0.394,1.674,2.373,2.615,3.517,3.808c-0.428-0.045-0.905-0.008-1.363-0.079c-0.33-0.051-0.926-0.38-1.199-0.37  c-0.881,0.034-1.216,1.193-2.119,1.436c-0.564-0.757-1.903-0.855-2.571-0.304c-0.492,0.405-0.479,0.788-1.18,0.787  c-0.505-0.001-1.1-0.56-1.547-0.788c-0.553-0.282-1.207-0.575-1.857-0.641c-0.933-0.094-0.974,0.413-1.723,0.724  c-1.05,0.436-2.1,0.043-3.061-0.383c-1.315-0.584-1.087-1.056-1.597-2.325c-0.398-0.986-1.399-0.819-2.27-0.769  c-0.197,0.606-0.592,0.946-0.705,1.554c-0.144,0.778,0.142,1.569,0.024,2.356c-0.094,0.64-0.317,4.265,0.844,3.712  c0.053-0.598,0.581-1.039,1.197-0.869c0.545,0.151,0.668,0.8,0.879,1.278c0.491,1.114,0.953,1.826,1.696,2.722  c0.769,0.928,3.782,4.758,1.363,5.441c-0.114,0.119-0.027,0.107-0.196,0.196c-0.066,0.981-0.182,1.125-0.72,1.831  c-1.241,0.066-3.604-0.967-4.327,0.313c-0.627,1.116,0.162,1.074,0.908,1.35c0.689,0.257,1.31,0.653,1.965,0.979  c1.115,0.555,2.814,1.936,3.529,2.871c0.417,0.547,0.601,1.269,0.954,1.893c0.312,0.548,0.78,1.308,0.894,1.957  c0.296,1.693-0.833,2.829-1.48,4.171c-0.489,1.016-0.28,2.231-0.6,3.254c-0.392,1.247-0.679,2.149-0.059,3.448  c0.44,0.925,1.654,2.141,1.353,3.316c-0.304,1.181-1.705,1.801-1.963,3.064c-0.198,0.967,0.023,3.315,0.903,3.855  c-1.573,0.63-3.165,0.57-4.91,0.655c-1.161,0.056-1.398,0.234-1.975,1.085c-0.474,0.698-0.779,1.3-1.554,1.693  c-1.827,0.926-2.582,0.619-3.926-0.691c-1.206-1.175-1.801-2.242-2.547-3.749c-0.636-1.289-1.142-2.757-2.336-3.738  c-0.565-0.465-1.279-0.861-2.086-0.777c-1.012,0.103-0.946,0.488-0.981,1.472c-0.062,1.723,0.353,3.009-0.51,4.513  c-0.753,1.311-2.048,2.287-3.217,3.145c-0.51,0.374-1.107,0.797-1.721,1.067c0.339,0.154,0.597,0.396,0.8,1.027  c0.608,1.887-0.442,4.089-0.553,5.918c-0.13,2.134-0.425,4.184-0.53,6.282c-0.043,0.882-0.65,2.611-0.25,3.428  c0.481,0.98,1.872,1.009,2.618,1.685c0.711,0.645,0.674,1.468,1.023,2.281c0.485,1.132,1.258,1.473,2.129,2.299  c1.186,1.128,3.096,3.144,4.959,2.564c0.668-0.209,1.165-0.834,1.858-1.083c1.092-0.394,2.552-0.567,3.703-0.46  c1.859,0.17,3.681,0.062,5.562,0.177c2.061,0.124,3.603,0.027,5.585-0.225c-0.167-0.64,0.02-1.16,0.284-1.741  c-2.031-0.521-3.73-1.396-2.964-3.694c0.596-1.794,3.245-6.149,5.342-3.893c0.834,0.897,0.716,1.226,2.092,1.013  c1.966-0.303,3.527-0.17,5.522,0.26c-1.362,1.716-1.304,3.755-2.025,5.734c-0.298,0.819-0.748,1.554-1.116,2.28  c-0.268,0.527-1.432,1.672-1.308,2.334c0.39,2.078,3.877-1.285,4.554-1.57c2.151-0.905,3.604,0.31,5.496,0.919  c0.641,0.208,1.648,0.366,2.337,0.235c0.268-1.432,1.065-3.433,0.126-4.827c-0.778-1.151-2.74-1.839-1.974-3.803  c0.598-1.535,2.518-0.933,3.603-0.284c0.714,0.426,1.201,1.126,1.923,1.639c0.87,0.62,1.817,0.747,2.721,1.256  c1.072-1.386,0.619-3.439,1.363-4.93c0.417-0.834,4.541,2.093,5.085,2.234c1.115,0.289,2.246-0.046,3.262-0.425  c2.036-0.76,3.85-1.235,5.899-1.858c3.765-1.145,8.203-2.009,11.12-4.686c0.426-0.39,0.975-0.949,1.331-1.417  c0.267-0.35,1.402,0.913,1.575,1.014c0.773,0.451,0.844,0.438,1.729,0.437c1.214-0.002,2.934-0.584,3.503,0.992  c1.779,0.774,0.803,3.603,1.788,4.855c1.459,1.855,3.888,1.212,5.845,1.781c2.247,0.654,4.267,3.919,5.456,5.788  c1.051,1.653,2.667,1.485,4.554,1.178c1.844-0.301,3.404-0.526,3.691-2.591c0.253-1.831,0.396-2.903-0.495-4.488  c-0.681-1.214-1.642-3.249-0.215-4.314c1.986-1.481,2.602,2.642,4.35,2.788c0.978,0.082,1.833-0.642,2.876-0.657  c1.111-0.016,2.068-0.036,3.14-0.102c1.958-0.122,3.845,0.725,5.759,0.988c1.601,0.221,4.178,0.43,5.92,0.486  c-0.287-0.781-0.641-1.309,0.519-2c0.757-0.452,2.215-0.294,2.463-1.468c0.12-0.572-0.52-2.093-0.66-2.744  c-0.198-0.915-0.739-1.789-0.916-2.616c-0.297-1.388,0.718-1.499,1.204-2.6c1.924-1.051,3.661-0.137,3.22-3.163  c-0.172-1.182-1.367-4.569,0.37-4.705c-0.701-1.038-1.644-1.916-1.78-3.148c-0.175-1.57-0.223-2.924-0.524-4.449  c-0.282-1.433-0.136-2.868-0.393-4.318c-0.172-0.979-0.644-1.888-0.746-2.749c-0.815-0.007-1.567-0.34-2.395-0.392  C374.76,434.242,373.887,434.218,372.911,434.009z" stroke-miterlimit="10" stroke="#FFFFFF"/>
<path name="崇明区" fill="#D3D3D3" id="path20" d="M538.334,242.447c0.503,0.815,1.081,1.964,1.565,2.885  c0.896,1.71,2.272,3.341,3.118,5.097c0.823,1.709,1.326,4.03,1.979,5.766c0.656,1.745,0.946,4.396,0.763,6.281  c-0.105,1.074,0.037,2.367-0.228,3.407c-0.309,1.2-1.575,1.951-1.728,3.115c-0.204,0.122-0.279,0.18-0.479,0.306  c-0.198,0.559-0.505,1.249-1.047,1.571c-0.286,1.152-1.837,2.236-3.004,2.362c-1.408,0.152-2.82-0.868-4.079-1.468  c-1.285-0.612-2.643-1.173-3.961-1.804c-0.561-0.266-1.352-0.496-1.773-0.973c-0.453-0.512-0.41-1.225-1.055-1.564  c-0.217-0.849-1.092-1.656-1.564-2.46c-0.535-0.913-0.858-1.909-1.21-2.883c-0.363-0.996-0.383-1.996-1.006-2.908  c-0.617-0.906-1.247-1.619-1.736-2.591c-0.991-1.974-1.564-3.953-2.759-5.755c-1.184-1.786-2.134-3.029-3.89-4.352  c-2.1-1.582-4.384-2.372-6.694-3.519c-2.343-1.162-4.326-3.152-6.553-4.562c-1.794-1.133-3.939-1.996-5.792-3.013  c-1.934-1.062-3.883-1.819-5.996-2.347c-1.911-0.481-4.621-0.66-6.269-1.833c-0.993-0.71-1.657-1.751-2.534-2.583  c-1.109-1.05-2.416-1.869-3.651-2.757c-1.521-1.092-3.041-2.235-4.58-3.531c-0.84-0.706-1.612-1.09-2.487-1.571  c-0.907-0.497-1.021-0.954-1.676-1.856c-1.105-1.522-3.697-2.221-5.519-2.861c-1.004-0.354-1.795-0.743-2.712-1.24  c-0.683-0.371-2.42-0.789-2.86-1.433c-1.059-1.551,2.514-3.48,3.503-4.062c2.001-1.173,3.692-1.665,5.994-0.854  c2.171,0.766,4.49,0.943,6.675,1.702c4.292,1.493,6.656,5.597,11.418,6.175c2.113,0.255,3.916,0.625,5.884,1.422  c1.154,0.469,2.366,0.8,3.509,1.285c1.109,0.47,1.846,1.29,2.871,1.858c0.748,0.413,1.848,0.55,2.656,0.843  c1.724,0.624,3.353,1.782,5.239,2.26c1.601,0.406,3.26,0.572,4.908,0.644c1.65,0.072,2.405,0.725,3.89,1.415  c0.896,0.415,2.287,0.515,3.077,1.242c0.825,0.763,1.216,1.807,2.248,2.592c2.6,1.974,6.121,2.606,8.637,4.683  c1.446,1.191,2.401,2.996,4.047,4.248C535.013,239.996,537.308,240.783,538.334,242.447z M547.125,246.38  c0.974,1.684,2.437,3.104,3.217,4.842c0.795,1.772,0.711,3.731,0.681,5.759c-0.019,1.144,0.019,2.078,0.288,3.14  c0.329,1.302,0.026,1.584-0.157,2.88c-0.518,3.647,0.746,8.611,3.247,11.388c1.242,1.38,2.321,2.674,4.21,3.135  c1.148,0.279,2.139,0.389,3.275,0.791c1.988,0.705,4.176,1.882,6.282,2.226c2.052,0.335,4.219,0.647,5.79-0.791  c0.593-0.544,1.582-1.184,2.039-1.824c0.52-0.728,0.55-1.728,1.197-2.493c0.249-0.294,0.6-0.799,0.926-1.044  c0.391-0.295,0.733-0.284,1.302-0.549c0.844-0.391,1.73-1.147,2.48-1.708c1.339-1.001,4.408-1.997,5.093-3.398  c0.348-0.717,0.067-2.436,0.15-3.247c0.101-1.019,0.367-1.809,0.621-2.781c0.576-2.192-0.034-3.849-1.014-5.755  c-0.965-1.875-1.928-3.879-3.011-5.604c-1.218-1.942-2.774-1.474-4.717-2.083c-0.847-0.264-1.84-1.008-2.323-1.84  c-0.481-0.827-0.393-1.972-1.062-2.617c-1.242-1.195-4.578-1.347-6.263-1.858c-2.003-0.606-3.841-0.633-5.751-1.579  c-1.833-0.905-3.826-1.163-5.628-2.091c-2.822-1.449-8.182-1.515-11.231-0.735C543.139,239.468,545.986,244.413,547.125,246.38z   M472.631,176.62c2.429-0.082,4.818,1.283,7.071,1.964c4.348,1.315,8.891,1.999,12.95,4.198c1.96,1.061,3.697,2.227,5.631,3.399  c2.02,1.225,4.429,1.824,6.675,2.774c1.938,0.819,4.012,1.779,5.895,2.719c1.279,0.639,1.968,1.765,3.11,2.51  c1.687,1.101,4.03,1.803,5.919,2.5c1.216,0.448,2.405,0.929,3.598,1.439c1.644,0.701,2.888,2.947,4.706,3.232  c0.838,0.129,1.32-0.531,2.143-0.007c1.302,0.826,1.029,2.582,2.489,3.454c1.808,1.081,3.944,2.005,6.031,2.315  c2.226,0.331,4.331,1.014,6.546,1.449c1.18,0.232,2.018-0.301,3.114-0.567c0.527,1.096-0.539,2.138-0.094,3.062  c1.09,2.27,2.992,2.009,4.967,2.203c1.734,0.17,2.19-0.782,3.789-1.171c0.875-0.213,1.874-0.187,2.742-0.393  c1.318-0.314,2.891-0.408,4.244-0.337c0.916,0.047,1.951,0.716,2.805,0.678c1.663-0.074,3.787-3.473,3.95-4.922  c0.11-0.98-0.09-1.926,0.159-2.883c0.215-0.818,0.664-1.643,0.911-2.46c1.036-0.284,1.036-1.407,1.773-2.018  c0.716-0.591,1.771-1.118,2.654-1.381c2.656-0.79,3.883,0.237,6.172,1.245c1.287,0.567,4.309,1.635,4.692-0.483  c0.241-1.326-0.428-1.249,0.815-2.224c0.774-0.61,1.67-0.956,2.553-1.476c3.615-2.136,3.193-6.661,4.354-10.176  c0.567-1.72,1.528-3.619,1.436-5.362c-0.11-2.121-0.269-4.382-0.131-6.546c0.114-1.8,0.834-3.963,0.036-5.367  c-1.111-1.951-2.645-3.446-3.733-5.359c-0.769-1.35-1.214-1.657-2.566-2.254c-0.789-0.835-1.171-2.459-2.106-3.416  c-0.976-1.003-2.327-1.172-3.51-1.956c-0.898-0.595-1.651-1.584-2.549-2.112c-1.104-0.647-2.57-0.664-3.759-1.126  c-0.961-0.374-1.777-0.844-2.62-1.277c-1.848-0.95-4.036-1.224-5.998-1.766c-4.036-1.119-8.442-1.982-12.484-3.084  c-1.476-0.403-2.905-0.998-4.418-1.075c-1.861-0.094-3.563,0.16-5.371-0.106c-2.317-0.34-4.792-0.512-7.047-1.091  c-2.308-0.594-4.188-2.258-6.559-2.729c-2.495-0.496-4.425-1.306-6.795-2.388c-3.832-1.751-7.863-4.378-11.949-5.304  c-2.209-0.501-4.638,0.073-6.907-0.16c-1.558-0.16-2.602-0.275-3.832-1.185c-1.319-0.971-2.418-2.282-3.89-3.033  c-1.642-0.836-3.275-0.919-5.029-1.274c-1.633-0.329-3.058-1.494-4.552-2.325c-8.203-4.562-16.108-9.359-24.057-14.533  c-3.619-2.355-7.429-4.72-10.988-7.06c-1.794-1.18-3.552-2.056-5.693-2.817c-2.57-0.913-3.881-2.102-5.979-3.625  c-3.673-2.666-6.091-6.953-10.159-8.942c-2.035-0.993-4.077-2.157-6.043-3.112c-1.803-0.876-3.789-1.434-5.489-2.48  c-1.996-1.228-4.309-1.86-5.942-3.586c-1.607-1.699-2.596-3.858-3.832-5.816c0.099,0.021,0.34,0.071,0.436,0.088  c-1.137-0.431-2.203-0.953-3.393-1.261c-1.111-0.286-2.441-0.222-3.473-0.709c-1.659-0.784-2.854-1.987-4.749-2.45  c-1.82-0.446-3.161-0.869-4.541-2.242c-2.428-2.416-4.893-6.056-6.056-9.276c-0.733-2.026-0.868-4.459-2.246-6.204  c-1.742-2.211-4.395-2.508-6.6-3.953c-2.557-1.679-5.23-3.174-7.9-4.664c-2.17-1.21-4.346-2.41-6.477-3.69  c-1.622-0.977-3.172-2.465-4.87-3.23c-1.994-0.896-4.06-1.335-6.007-2.437c-3.161-1.792-5.889-3.622-8.818-5.805  c-1.652-1.231-4.118-2.497-6.288-2.09c-1.846,0.346-3.171,2.081-5.102,2.356c-3.626,0.517-7.425,1.187-10.732,2.879  c-1.59,0.815-2.789,2.133-4.088,3.374c-1.461,1.397-3.247,1.998-5.1,2.882c-1.793,0.855-3.489,1.961-5.235,3.003  c-3.331,1.988-7.143,3.418-10.179,5.924c-1.412,1.167-2.008,3.105-3.436,4.427c-1.376,1.273-2.997,2.253-4.283,3.687  c-0.867,0.968-0.766,1.393-1.046,2.752c-0.228,1.102-0.804,1.88-0.664,3.144c0.183,1.65,1.524,3.741,2.254,5.075  c0.881,1.615,3.085,2.572,4.511,3.548c1.725,1.18,2.79,3.023,3.98,4.689c0.765,1.072,1.179,2.371,1.926,3.468  c2.171,3.181,4.408,7.163,8.377,8.367c2.242,0.683,4.587,0.823,6.917,0.828c0.914,0.001,2.474-0.361,3.324-0.049  c1.451,0.532,2.702,1.741,3.568,2.927c1.906,2.608,4.57,2.835,6.798,4.904c2.487,2.311,4.578,4.997,6.793,7.56  c0.424,0.489,1.004,1.199,1.53,1.491c0.498,1.65,2.158,2.873,3.131,4.325c0.555,0.829,1.126,1.948,1.868,2.622  c0.604,0.548,1.408,0.826,2.027,1.426c1.312,1.269,2.126,2.947,3.295,4.333c2.322,2.753,5.124,4.315,7.769,6.606  c2.067,1.791,4.395,3.944,7.052,4.743c1.123,0.338,2.356,0.494,3.408,1.053c1.608,0.855,2.712,2.699,4.025,4.053  c0.711,0.733,1.28,1.452,2.255,1.73c1.022,0.292,2.154,0.151,3.17,0.463c2.343,0.72,4.965,1.206,7.198,2.388  c2.046,1.083,4.251,2.263,5.997,3.763c1.635,1.404,2.877,2.604,5.133,3.539c1.929,0.799,3.924,1.046,5.854,1.952  c2.04,0.959,4.146,1.665,6.157,2.621c3.322,1.578,6.462,3.93,9.708,5.755c1.979,1.113,4.032,2.327,5.895,3.541  c0.866,0.564,1.65,1.232,2.577,1.766c1.012,0.581,2.091,0.632,3.146,1.033c2.025,0.772,3.98,2.225,5.787,3.352  c0.828,0.517,1.549,1.187,2.357,1.704c0.924,0.592,2.078,0.694,3.08,1.167c3.653,1.726,7.522,3.328,10.885,5.696  c2.123,1.495,4.492,3.162,6.806,4.318c3.37,1.686,7.801,1.247,11.44,0.472C471.969,176.669,472.3,176.631,472.631,176.62z   M420.155,74.811c1.158,1.962,3.282,2.044,5.368,2.353c2.504,0.372,3.722,2.329,6.052,3.144c1.04,0.362,2.218,0.372,3.237,0.789  c0.907,0.372,1.502,1.014,2.257,1.665c1.895,1.636,4.432,2.512,6.639,3.659c2.523,1.312,5.138,2.656,7.984,3.077  c2.659,0.393,5.465,0.214,8.121,0.622c2.22,0.342,4.287,1.389,6.436,1.843c2.383,0.502,4.893,0.685,7.242,1.331  c1.203,0.331,2.22,0.624,3.471,0.749c0.933,0.092,2.196,0.029,3.035,0.363c2.083,0.831,3.312,2.971,5.489,3.965  c2.117,0.967,4.279,1.191,6.645,1.174c0.471-0.003,0.855-0.045,1.289-0.15c0.043-0.544,0.183-0.997,0.662-1.325  c-1.39-1.246-4.06-1.123-5.85-1.695c-1.902-0.607-3.611-1.665-5.031-3.08c-1.335-1.329-2.934-2.998-4.971-2.809  c-2.173,0.201-4.302,0.052-6.542,0.029c-3.989-0.042-7.877-1.827-11.625-2.745c-4.586-1.122-9.144-2.183-13.608-3.305  c-4.298-1.078-7.524-3.446-11.28-5.562c-1.661-0.934-3.185-2.251-5.177-2.682c-2.018-0.435-4.141-1.039-6.252-1.309  c-1.242-0.158-2.622-0.109-3.853-0.232" stroke-miterlimit="10" stroke="#FFFFFF"/>
</svg>