<?xml version="1.0" encoding="UTF-8" standalone="no"?><!-- Generator: Adobe Illustrator 18.0.0, SVG Export Plug-In . SVG Version: 6.00 Build 0)  --><svg xmlns="http://www.w3.org/2000/svg" xmlns:xlink="http://www.w3.org/1999/xlink" contentScriptType="text/ecmascript" zoomAndPan="magnify" contentStyleType="text/css" id="图层_1" mapName="中国简称地图" mapType="自定义地图" enable-background="new 0 0 1000 1000" version="1.1" xml:space="preserve" preserveAspectRatio="xMidYMid meet" viewBox="0 0 1000 1000" layersTo="福建省,福建省,西藏自治区,西藏自治区,贵州省,贵州省,上海市,上海市,湖北省,湖北省,湖南省,湖南省,广东省,广东省,澳门特别行政区,澳门特别行政区,香港特别行政区,香港特别行政区,四川省,四川省,安徽省,安徽省,新疆维吾尔自治区,新疆维吾尔族自治区,江苏省,江苏省,吉林省,吉林省,宁夏回族自治区,宁夏回族自治区,河北省,河北省,河南省,河南省,广西壮族自治区,广西壮族自治区,海南省,海南省,重庆市,重庆市,江西省,江西省,云南省,云南省,北京市,北京市,甘肃省,甘肃省,山东省,山东省,陕西省,陕西省,浙江省,浙江省,内蒙古自治区,内蒙古自治区,青海省,青海省,辽宁省,辽宁省,天津市,天津市,台湾省,台湾省,黑龙江省,黑龙江省,山西省,山西省," x="0px" y="0px">
<path fill="#E3E3E4" stroke-linejoin="round" d="M403.5,365.1c0,0,0.7-0.5-1.2-3.3  c-1.8-2.8-3.2-3.3-5.5-5.5s-2.5-4.3-3-7.2c-0.5-2.8-1.7-7.8-2.5-9.4c-0.8-1.3-3.2,0-3.8-1.7c-0.5-1.5,0.7-2.7,1.5-3  c0.7-0.2,2-1.2,0.8-1.8c-1.2-0.7-4.8-0.3-6-0.5c-1.2-0.3-7.2-4.8-8.5-6c-1.3-1.3-7.7-6.5-11-8.4c-3.5-1.8-8.5-2.7-16.2-4  c-1.3-0.2-3.8-0.5-5.8-1.5c-1.8-1-4.2-1.2-7.2-2c-2.8-0.7-5.8-1.3-7.2-1.8c-0.5-0.2-1.3-0.8-2.2-1c-1-0.2-3,0.2-3.7-0.3  s-1.5-1.5-1.7-2.2s-0.5-0.8-0.5-1.7c0-0.8-0.5-2.3-0.5-3.2c0-0.8,0.2-2,0.3-2.5c0.2-0.5,1-2.2,1.3-2.3c0.3-0.2,4.3-3.2,5-4.7  c0.5-1.3,0.3-3.3,0.5-4.8c0-1.5,0.2-3.5,0.3-4.2c0.2-0.7,1.3-1.7,1.7-2.2c0.5-0.7,1.3-1.2,1.3-2.2c0-1.2-0.8-1.8-1-2.8  c-0.3-1-1-2.2-1.3-2.8c-0.3-0.7-1.7-1.5-2.3-2.3c-0.7-0.8-1-1.8-1.3-2.7c-0.2-1-0.8-3.8-0.8-4.7c0-1-0.2-3-0.3-3.7  c-0.2-0.7-0.7-1.5-1.8-3c-1.2-1.5-3.3-3.2-3.8-4.3c-0.5-1.2-0.7-1.5-1.5-1.3c-0.8,0.2-2.2,0.8-2.5,0.3s-0.7-1-0.7-1.7  c-0.2-0.7-0.3-1.5-0.7-1.8c-0.3-0.3-2.7,0.2-3.5,0.2s-3.8-0.2-4.5-0.7s-2.2-1.3-2.8-2.3c-0.7-1-2-2.8-2.5-3.7  c-0.3-0.8-0.5-2.8-0.7-3.5s-0.7-1.2-1.3-1.5c-0.6-0.3-3.2,0.5-3.7,0.2c-0.5-0.3-1.7-0.8-2-1.3s-1-1-1-1.3c0-0.3,0.7-0.8,0.7-1.5  s-0.3-2-0.7-2.3c-0.5-0.3-1-0.7-1-1.7c0.2-1,0.8-1.8,1.2-2.5c0.2-0.7,0.8-2.7,0.8-3c0-0.3-3.5-0.7-4.3-1c-0.8-0.3-5.7-0.5-6.8-0.7  c-1.2-0.2-4.5,0.2-5.3,1c-0.8,0.7-1.3,2.3-1.3,3.3c0,1-0.2,3.5-0.5,4.2s-2.7,2-3.3,2.2c-0.7,0.3-3.5,0.8-4.5,0.7  c-1-0.2-2.3,0.3-3.3-0.2c-1-0.3-2-0.8-2.8-0.7c-0.8,0-2,1.3-2.8,1.8c-0.7,0.5-2,1.5-2.3,2.2c-0.5,0.5-1.5,1.3-2,2.3  c-0.5,1.2-1,5.3-1,5.3s0.3,5.7,0.5,6.3c0.2,0.7,0.5,2.5,0.2,3.3c-0.2,0.8-1.3,2.7-1.8,3c-0.3,0.2-2.2,1.3-3,1.8  c-0.8,0.5-2.3,0.8-3.5,0.8s-2.7,1.3-3.2,1.3s-2.7-0.2-3.2-0.5c-0.5-0.2-1.7-1.2-1.7-1.2s-1.3-0.8-1.5-1.2c-0.2-0.3-2.5-1-3.2-1.2  c-0.7-0.2-3.5-0.7-4.3-0.8c-0.8,0-2.3,0-3-0.2c-0.7-0.2-3.3-1.3-4-1.8c-0.5-0.5-4.5-2.7-5-3.5c-0.5-0.7-2.3-1.7-2.7-1.8  s-1.8,0.7-2,1.2c-0.2,0.7-2.2,3.5-2.7,4.3c-0.5,0.8-2.7,4.5-3,5.3c-0.3,0.8-1.2,4-2.5,4.8c-1.3,1-2.8,3.3-3.2,3.8  c-0.4,0.5-3.8,4.2-4.3,4.8s-2.3,3.3-2.2,4.2c0.2,0.8,1.5,4.2,1.8,4.7c0.3,0.5,1.5,3,1,3.5c-0.7,0.7-1.7,1.3-2.3,1.3s-3.5-1-3.8-1.3  c-0.3-0.3-2.7-2.5-2.8-2.7c-0.2-0.2-1.7-1-2.7-1.3c-1-0.3-3-0.2-4,0c-1,0.3-4.5,0.5-5.2,0.7c-0.7,0.2-7-0.2-8,0  c-1,0.2-2.3,0-4.2-0.3c-1.8-0.2-3.8-0.7-4.7-0.7c-0.8,0.2-2.3,0.2-3.5,0.5c-1.3,0.3-3,1.3-3.3,1.8c-0.3,0.7,0.5,2,3,2  c2.5,0.2,3.8,1.7,3.8,2.2c0.2,0.7,0.3,2.3,0,3.3c-0.2,0.8,0,2.7-0.5,3.8c-0.5,1.2-1,4-1.3,4.7c-0.3,0.7-0.2,3,0,3.8  c0.3,0.8,0.7,5,0.8,6c0.2,1,0.3,5,0.2,5.8c-0.3,0.8-0.2,3.5-0.3,4.2c-0.2,0.7,0.3,2.7-0.3,3c-0.7,0.5-1.5,0-2.8-0.2  c-1.3,0-2.8-0.3-3.2,0.5c-0.3,0.8,1.2,2.7,1,3.2c-0.2,0.3-0.7,0.7-1.5,0.7s-4.5,0.7-4.8,1s-1.2,3.7-1.3,4.8c-0.2,1.2,0,4.5-0.5,5.2  c-0.5,0.7-5.7,2.2-6.2,2.3c-0.5,0.2-4.3,1.7-5.2,2c-0.7,0.3-6.3,1-7.5,1.5c-1.2,0.5-6.7,2-7.5,2.3c-1,0.3-5.5,1.2-6.5,1.2  s-6.2-0.3-6.3-0.3s-1.2,1-1.7,1.7c-0.5,0.7-2.2,1.3-3.3,1.3c-1.2,0-3.7,1.2-4.8,1.5c-1.2,0.3-4.3-0.2-4.8-0.5  c-0.5-0.3-0.7-1-2.7-1.3c-2-0.3-2.5-0.7-3.3-1c-1-0.3-2.5-0.3-3,0c-0.3,0.3-2,1-2.7,1.5c-0.7,0.7-2.2,2-2.7,2.5  c-0.5,0.7-2.2,1.8-2.7,2.7c-0.3,1-1.3,2.3-2,2.8c-0.7,0.7-1.2,0.8-2,0.5c-0.7-0.3-3.5-2-5.5-1.5c-2,0.5-3.7,0.7-4.2,0.7  s-2.3-0.3-2.3-1.2c0-1-0.5-1.3,0.2-2.2c0.7-0.8,1.8-2,2.2-2.5c0.3-0.5-0.7-1-0.7-1.8c0-0.8-0.7-0.7-1.3-0.7c-0.7,0-2,1.2-2.8,1.5  c-0.7,0.3-3.3,0.5-3.8,0.5s-3.2-0.5-3.7-0.7s-1.8-1.2-2-0.8c-0.2,0.5-0.5,2-1.2,2.3c-0.7,0.3-2.5,0.2-3.7,0.5c-1.2,0.2-2.3,0.8-3,1  s-3.2,0.2-3.7,0c-0.3,0-3.2-0.7-3.7-0.5c-0.5,0.2-2.7,2-3.2,2.5c-0.3,0.5-1.8,1.5-2.3,2c-0.5,0.5-1.2,1-0.7,2c0.5,0.8,0.7,2.8,0,3.5  c-0.8,0.7-3.5,1.5-4.7,1.7c-1.2,0.2-3.2-0.3-3.7,0c-0.5,0.3-0.5,2.3,0.2,3.5s2,3.3,2.5,4.3s0.2,1.7-0.2,2.2c-0.3,0.3-1.7,1-2.7,1.2  s-2.8,0.7-3,1.7c0,0.8,0.8,3,1.5,3.5c0.7,0.5,1.5,1.5,2.2,2.2c0.5,0.7,1.3,0.7,2.5,0.3c1.2-0.3,2.3-1,3.3-1s2.7,0.5,4.7,2  c2,1.5,3.3,2.5,4,3.2c0.7,0.7,1.3,1.2,1,2c-0.3,0.7-1.5,2.2-1.8,2.5s-0.7,1.7-0.7,2.8c0.2,1.2,0.3,2.3,0,3.5c-0.3,1-0.8,2.8-1.3,3.8  s-1.7,4.3-1.3,5c0.3,0.7,1.2,2.2,1.7,3c0.5,0.8,0.7,1.8,0.2,2.5s-2.5,1.5-3.7,1.3c-1-0.2-3.2-1.2-4.3-1.5c-1.3-0.3-3.8-0.7-4-0.2  c-0.2,0.5,0.5,3.2,1.2,3.7s3,1.3,3.7,1.5c0.7,0.2,1.3,0.5,2.3,0.8c1.2,0.5,4.3,0.7,4.5,1.3c0.3,0.5,1.5,2.7,1.5,3s0.2,0.7,0.3,1.7  c0.2,1,0.7,4,1.3,4.3c0.7,0.2,1.5-2.3,2.5-2.2c1,0.2,2,0.8,2.3,1.5s2,3.2,2,3.8c0.2,0.7,0.2,2.2-0.2,2.8c-0.3,0.7-1.8,4-2.7,4.3  c-0.8,0.3-1.7,0.8-1.7,1.7c0,1,0.7,1.5,1.7,1.8c0.8,0.3,1.7,1.3,1.3,2c-0.3,0.7-1.2,2.5-0.3,2.7c0.8,0.3,1.3,0,2.5,0s2.5-0.2,3,0.2  c0.5,0.3,1.5,1,1.5,1.8c0.2,0.8,1.2,3,1.7,3.5c0.5,0.7,3.5,3.8,5.5,4.2c2,0.5,4.8,2.7,5.5,3c0.7,0.3,4.5,0.8,5.3,0.8  s5.2,0.2,5.5,0.7c0.3,0.5,0.3,1.5,0,1.8c-0.3,0.3-2.5,0.5-2.7,1.3c-0.2,0.7,0.5,4.8,0.8,5.8s0.7,2.5,0.5,3.3c-0.2,1-0.8,4-0.5,4.8  c0.3,1,5.8,4.8,6.5,5.5c0.7,0.8,3.3,2,3.3,3c0,0.3,0.7,1,0.7,1.3c0,0.3,0.2,0.7,1.2,0.5c0.8-0.2,3.5-0.3,5.2,0c0.3,0,2.3,0,2.8,0  c0.5,0.2,3.3,1,4,1.2c0.8,0.2,0.7,1.3,3.3-1.2c0.3-0.3,2-4.2,2.2-5c0.2-0.7,1-1.5,1.3-1.8c0.5-0.3,5.2-2.8,5.5-3.5  c0.3-0.5,3.7-3.2,4.3-3.5c0.7-0.3,3.5-0.5,4-0.2s2.7,2.2,3.2,2.2s3,0.5,3.8,0.3s6,0.7,6.8,1s1.8,1.5,2.5,2c0.5,0.5,1.5,2.2,3.5,1.8  c2.2-0.3,2.8-0.5,3.7-0.8c0.8-0.3,5-1.5,5.5-2c0.5-0.3,2.7-1,3-1.5c0.3-0.5,0.8-1.5,2-1.7c1-0.2,3.8,0.7,4.2,0.8  c0.5,0.2,4.3,1,4.5,1.5c0.2,0.5,1,1.2,1,1.7c0,0.5-0.2,2.5,0.2,3c0.5,0.5,5,2.8,5.5,3.2c1.8,1,6.7,1.5,7.5,1.2  c0.8-0.3,1.5-0.3,2.2-0.2c0.7,0,4.3,1,4.8,1s1.8,0.2,2.5-0.2c0.7-0.3,2.8-1.3,3.7-1.5s2.8,0,3.3,0s5-0.3,5.5-0.7  c0.5-0.2,2.3-0.2,3.2-0.3c0.8-0.2,3-0.8,3.8-0.5c0.8,0.3,3.5,1.2,3.8,1.3c0.3,0.2,3.5,0.5,4,0.5c0.3,0,2.8-0.8,3.5-1  s2.2-0.7,2.5-1.2c0.3-0.5,1.7-2,2-2.5c0.3-0.5,2.2-2,2.7-2.2s4.5-1,5.2-0.8c0.7,0,6.2-0.2,7,0s4-0.2,5-0.5c1-0.3,3.3-1,3.8-0.7  s3.7,1.5,4.5,1.5c0.8,0.2,3.8,0.5,4.8,0.5s6,0.2,6.8,0.2c1,0,3.2,0.5,3.8,0.8c0.7,0.3,3.8,2.3,4.2,2.7c0.3,0.2,5.7,2.8,7.2,3  c1.3,0.2,4.3,2,4.8,2.3s5.5,2,6.5,1.3c1-0.7,3.5-0.8,4-0.8s2.5,1,3.3,1.5c0.8,0.5,2.8,1.5,3.7,1.7c0.8,0.2,4.3,1.3,4.8,1.5  s3.2,0.7,4.3,0s1.3-1.7,1.5-2.2c0-0.5,0-4-0.2-4.5c-0.2-0.7-1-1.7-2-2.5c-1-0.8-2.7-2.2-3-3.5s0.3-2,0.7-2.5  c0.3-0.5,3.8-1.3,4.7-1.7c0.8-0.3,4.5-0.8,5.2-2.3c0.7-1.5,0.3-3,0-4.2s-1.5-4-2-4.5c-0.5-0.7-2-1.7-3.7-3.2c-1.7-1.5-3.3-2.2-4.3-3  c-0.8-1-1.2-3.8-0.8-4.5c0.3-0.8,1-3,1-3.3s0.3-2.8,0-3.5c-0.2-0.7-0.2-1.5-1.3-0.8c-1.5,0-2.8,0.8-3.3,0.7  c-0.5-0.2-0.7-1.2-0.7-2.3s-0.2-2,0.5-2.2c0.5-0.2,0-0.5,1.7-0.5c1.5,0,3,0.3,3.7,0c0.5-0.2,1.2-0.8,1.3-1.3c0.2-0.3,1-1,1.7-1.2  s2.3-0.2,2.8-0.2s3.2,0.5,4.5,0.3s3.3-0.2,4.7-0.5c1.5-0.3,6.2-1.3,7.5-1.5s7.3-0.7,8-0.8c0.7-0.2,3.2-1,3.8-1  c0.7-0.2,1.8-0.7,1.3-1.7c-0.2-0.7,0.7-2.7,0.8-3c0.2-0.3,4.8-5.5,5.3-6.5c0.3-1,1.5-4.3,1.7-5.3s2-4.8,2.3-5.5  c0.5-0.7,1.5-2.5,1.7-3.2c0.2-0.7,1-2.8,1.2-3.3c0-0.5,1.7-2.2,2-2.3c0.5,0,3.5-0.2,4.5,0c0.8,0.2,3.3,0.5,4.2,0.3  c1.2,0,3.2,0.2,4.8-1.3c1.3-1.5,1.3-4,1.7-4.5c0.3-0.5,2.3-2.8,2.8-3.3c0.5-0.5,5.2-4.3,5.7-4.7c0.5-0.3,3.7-2.3,4.3-2.5  c0.7-0.2,3.2,0.8,3.8,0.3c1.8-0.5,1.2-1,2-1.3c0.8-0.3,3-2.5,3.5-2.5s1.5,0.2,2,0.8c0.5,0.7,1.5,2.3,1.7,2.3s1.3-1.8,2-2.7  c0.5-0.8,1.2-1.3,2.2-1.7c1-0.3,4-0.5,4.8-0.8s4.8-0.8,5.2-1.5c0.4-0.7,0.8-1.8,0.8-2.5c0.2-0.7,0.3-1.2,0.8-1.5  c0.5-0.5,0.8,0.2,0.7-1.2c-0.2-1.2-0.3-1.5-0.7-2.2c-0.3-0.7-1.5-1.8-1.7-2.7c0-0.8-0.2-2.2,0.2-2.7c0.3-0.5,1.7-1,2.3-1.2  c0.7-0.2,2.2-0.8,2.3-1c0.2-0.2,1.2-1.8,1.2-1.8L403.5,365.1z" id="path0" stroke="#FFFFFF" name="新疆" stroke-miterlimit="10"/>
<path fill="#E3E3E4" stroke-linejoin="round" id="path1" d="M481.8,561.5c0,0-0.3-1.7-0.8-2.5  c-0.5-0.8-2-2-3-1.5c-0.5-0.3-0.5-0.2-1,1c-0.5,1-1.5,1.3-2.2,1.2c-0.7-0.2-1.7,0-1.8-1c-0.2-1,0-2-0.5-3.3  c-0.5-1.5-2.2-2.7-3.2-3.5s-3.2-2.7-3.5-3.8c-0.3-1.2-0.7-2.3-0.5-3.2c0.2-0.7,0.7-0.5,1.5-0.7s2.7-0.7,4.8,0c2,0.5,3.7,2,5.2,2.3  c0.7,0.2,2.8,1,4.7,1.3c2.3,0.7,5.8,0.3,7.8-0.7c2-1,3.7-2.3,4.4-3.3c0.8-0.5-0.2-1.8-0.5-2.2c-0.5-0.3-0.8-1-2.3-1.3  c-2.9-0.6-4.4-2.1-4.2-3.6s0.4-2.7,1.3-3.5c0.8-0.7,2.2-1.9,2.9-2.1c0.7-0.3,3.6-2.3,3.9-3.1c0.3-0.8,0.2-1.8,0-2.5  s-1.2-1.8-1.1-2.3c0.2-0.5,0.5-1.1,1.5-1.7c1-0.5,4.5-1.3,5.7-2c1.2-0.5,2.2-0.8,2.3-2c0.2-1.2,0-2.7,0.5-3.8  c0.3-1.3,1.3-1.8,1.8-2.3s1.7-3.2,1.7-4.2s-1-2.2-1.5-2.5c-0.5-0.5-2-1.8-2-3c-0.2-1.2-0.5-2-0.7-2.5c-0.3-0.5,0-1.7,0.2-2.5  c0.3-1.3,0-1.5-0.3-2.2c-0.3-0.7-1.2-2.8-1.8-4.2s-4.5-7.8-5-8.3c-0.5-0.5-2.7-2.3-3-3c-0.3-0.8-0.7-2.2-1.2-3.2  c-0.5-1-1.5-1-1.8-0.8s-2,2-2.5,2.3c-0.5,0.3-2-0.7-3-1.5c-1-1-5.2-4-6.2-4.7c-1-0.7-3-2.3-4.2-2.8c-1.2-0.5-2.8-1-4-1.8  c-1.2-1-3.5-2.8-4.7-3.8c-1.2-0.8-3.7-3.7-4.7-3.8c-1-0.3-2.3-1.3-3-1s-0.5,1.2-0.3,2.2s-0.7,1.3-1.3,1c-0.5-0.3-2.3-1.5-3.7-2.5  c-1.3-1-2.8-1.8-3.7-3.3c-1-1.5-4.2-4-4.7-5.2s-3-3-4.3-4c-1.5-1-2.3-1-3.3-1s-2,1.3-2.7,1.5c-0.7,0.2-1.8-0.3-2.2-0.7  c-0.2-0.5-1.3-1.2-2-0.7c-0.7,0.5-2.2,2.2-2.7,2.5c-0.5,0.3-1.2,1.5-2.3,1.5c-1.2-0.2-3-0.5-4.2-1.8c-1.3-1.3-1.8-1.8-3.5-3  c-1.5-1.2-4.7-3-5-3.3c-0.5-0.2-3.3-1-4.2-0.8c-0.8,0.2-1.3,0.7-1.5,1.5s-0.2,4.2-0.2,4.8s0.7,3.3,0.3,4.5c-0.3,1.2-0.3,2.5-0.8,2.7  c-0.5,0.2-2.2-1-3-1s-1-0.5-1.5,0.8c-1.8,2.5-1.2,5-1.7,5.7s-1.5,0.7-2,0.3c-0.5-0.2-1.3-1.5-2.5-0.5c-0.3,0.3-2.3,1.5-3,1.2  c-0.7-0.2-3.3-1.5-3.8-2c-0.7-0.5-2.5-2-2.8-2.2c-0.2-0.2-2.3-1-3.7,0.3c-0.8,0.2-3.8,0.7-4.5,0.5c-0.7-0.2-2.5-1.5-3-1.8  c-0.7-0.3-2.2-1.5-3-1.7c-1.2-0.2-1.8,0-3,0.3c-1.2,0.3-1.5,0.3-2.8,0c-1.2-0.5-2-1.2-2.3-2c-0.3-0.8-0.7-1.2-0.8-2.3  c0-1.2-0.3-2.3-0.8-3c-0.5-0.8-2.8-1.2-3.7-1.2c-0.8,0-2.5-0.2-4-0.5c-1.5-0.3-1.8,0-2.3-0.7c-0.7-0.5-0.7-1-0.5-1  c0.2-0.2,0.5,0,0.7-0.5c0.2-0.5,0.2-1-0.3-1.3s-0.3-0.2-1.5-0.7c-1.2-0.3-2.2,0-3.5-0.3c-1.3-0.3-3-0.2-3.3-1c-0.5-1-0.8-1.3-1-2  s-0.8-2.5-1.8-2.8c-1-0.2-3-0.3-3.5-0.3c-0.5,0-4.2,0-5.5,0.2s-2.3,0.3-2.5,0.5c-0.3,0.3-1.2,0.8-1.8,1.2c-0.8,0.3-3.8,0.8-4.3,1  s-2.9-0.1-3.4,0c-0.5,0.1-8.2,1-9,1.5c-0.8,0.3-4.5,0.7-5.7,0.8c-1.3,0.2-3.8,0-4.2,0c-0.3,0-4,0-4.3,0.2c-0.3,0.2-1,1.3-1.3,1.7  c-0.5,0.3-3.3,0.8-3.8,0.7c-0.7,0-2.5,0.3-2.8,0.3c-0.3,0-0.8,1.3-0.7,2.5c0.2,1.2,0.8,2.7,1.7,2.3s1-0.7,2.3-0.8  c1.3-0.3,1.5,0.8,1.5,1.3s0.2,2.8-0.3,4c-0.5,1-1.3,2.5-1.3,3.3s0.8,4,2.3,5s4.3,3.2,5,3.8c0.7,0.5,2.2,2.5,2.3,3.2  c0.2,0.5,1.3,3.2,1.8,4.2c0.5,0.8,0.5,2.5-0.3,3.2c-0.8,0.7-2,1.3-2.8,1.8c-1,0.3-2.8,1-3.5,0.8c-0.7-0.3-1.7-0.2-2.3,0.7  s-1.7,1.8-1.5,3s1.7,2.5,2.2,3s2.8,2,2.8,2.8s0.3,2.2,0.2,3.7c-0.3,1.5-0.5,2.8-0.8,3.2c-0.5,0.3-2.3,0.3-3.3,0.5s-2.7-0.8-3.3-1.2  c-0.7-0.3-3.7-1.2-4.5-1.5c-0.3-0.2-2.8-1.3-3.5-1.7c-0.7-0.3-2-1-3.3-0.7c-1.3,0.3-2.3,0.7-3,0.7c-0.7,0-2.2,0-3,0.3  c-0.8,0.2-2.5,1.2-3.5,1.2c-1,0-3,0.7-2.3,1.7c0.5,1,2.7,1.7,3.3,2c0.7,0.2,3.7,1,3.3,1.7c-0.3,0.7-1,1.5-1.5,2.2  c-0.3,0.8-0.7,3.3-1,4c-0.3,0.8-1.7,1.3-2.2,1.8c-0.5,0.5-2.8,1.5-3.3,2.2s0.3,2.3,0.5,3c0.2,0.5,0.8,2.8,0.7,3.5  c-0.2,0.5,1,1.7,1.8,2c0.8,0.3,2.3,0.7,2.2,0.8c-0.2,0.3-0.7,1.2-0.8,1.8c-0.2,0.7-1.3,2.5-1,3c0.3,0.5,0,1.2,0,2s-0.2,2.7,0.5,3.2  c0.7,0.5,1.3,1.2,1,1.7c-0.2,0.5-0.8,1-1.2,1.5c-0.3,0.5-3.2,1.5-3.5,1.7s-1.7,1.3-1.7,1.8c0,0.3,2.3,2.8,2.8,3  c0.7,0.2,1.7,1,1.8,1.7c0.2,0.7-0.3,2.7,0,3.2c0.3,0.3,2.2,4.2,2.7,4.7c0.5,0.5,2.8,3.7,3.3,4.2c0.5,0.5,4.8,3.3,5.5,3.3  c0.5,0,2.5,0.5,2.8,0.5c0.5-0.3,1.7-1.3,2-1.3s3.8,0,4.3,0c0.5,0,1.5,0.2,2.2-0.2c0.7-0.3,2.3,0.2,2.5,0.5c0.2,0.2,0.2,1.5,0.5,2  s1.5,1.8,2,2.5c0.5,0.7,4.3,3.8,4.8,4.2c0.5,0.3,2.2,1.3,2.7,1.3c0.5,0.2,1.2,0.7,1.7,0.8c0.7,0.2,1.8,0.7,2.3,1.2s4,1,4.5,1  c0.5-0.2,1.3-0.3,2.3,0s2.5,0.3,3,0.7c0.5,0.2,2.3,1,2.8,1c0.3,0,2.2,0.7,2.8,1.2s1.8,1.3,2.5,1.3c0.5,0,2.7,1.3,3.2,1.3  s3.5,1,3.7,0.8c0.2,0,1.3,0.5,2,1.2c0.7,0.5,2.8,2,3.3,2.2c0.5,0.3,3.5-0.2,3.5-0.3c0-0.2,4.2-1.3,4.8-1.5c0.7-0.2,2.5-1.7,3.3-2  c0.8-0.3,2.8,0.8,2.8,0.8c0,0.2,1.7,2.5,1.8,3.2c0.2,0.7,2.2,3.8,2.3,4c0.2,0.2,1.2,1.3,4,1.3c0.5,0,3.2,0.5,3.2,0.7s0.2,2.2,0,3.3  c-0.2,1,0.3,1.3,0.3,2.3s0.3,1.7,0.3,1.8c0.2,0.2,2.5,1.7,3,1.8c0.5,0.1,5,1.5,5.5,1.8c0.5,0.2,4,1.7,4.3,1.7c0.3,0.2,1.7-0.5,1.8-1  c0.1-0.5,0.2-1.8,0.5-2.7c0.3-0.8,0-0.7,0.3-0.5s2,0.8,2.5,1.3c0.5,0.7,3.3,2.3,4,2.7c0.7,0.3,2.5,1,3,1c0.3,0,0.7-1.5,0.7-1.8  s-0.5-1.8-0.5-3c0-1,0.5-1.3,0.7-1.7c0.2-0.3,0.7-0.7,0.8-0.7c0.1,0,4.5-0.3,5-0.5c0.5-0.3,0.8-1,1.5-1.5c0.5-0.5,1.7-0.3,2.5-1.2  c0.7-0.7,2.3-3.7,2.3-4.3c0.2-0.8,0.7-0.7,1.2-0.7c0.3-0.2,0.7-1,2-0.8s5.7,1.5,6.5,2.2c0.8,0.5,4.8,2.5,5,2.5c0.3,0-2-2.5-2.7-2.8  c-0.2-0.2-6.7-3.2-7.2-3.3c-0.5-0.2-3.3-2.5-3.5-3.3s-0.3-1.5-0.8-2.5s-1-2.5-1-2.5s0.7-0.3,1.3-0.7c0.5-0.3,2.7-2.2,3.2-3.3  c0.5-1.3,2-1.8,2.8-2.7c0.8-0.8,1.3-1.7,1.3-1.7s-1.8-1-2.2-1.3c-0.3-0.3-3-2.7-3-3.2s-0.5-2.8-0.5-3.2c0-0.3-1.3-0.7-1.3-1.3  c0-0.7,1.3-1.5,1.8-1.5c0.5,0,2.7-0.7,3.2-0.8c0.5-0.1,1.8-1.7,2-2.7s0.3-1.5,1-1.5c0.7-0.2,2,0,2.5-0.5c0.5-0.3,2.7,0.2,3,0.3  c0.2,0.2,1.2,1.3,1.5,1.8c0.3,0.7,2.8,0.7,3.2,0.7c0.3,0,1.5,0.2,1.8,0.8c0.3,0.7,0.8,2,1,3.2c0.3,1,1,3.7,1,3.8  c0.2,0.2,1.8,3.7,2.3,4c0.3,0.3,0.7,1.3,0.7,2.2s0.2,2.3,0.3,3c0.2,0.5,1.2,1.7,1.7,2c0.5,0.3,4.8,3.3,5.3,3.7  c0.5,0.4,2.2,3,2.5,3.3c0.3,0.3,1.3,0.8,2.3,1.5c0.8,0.7,3.2,1.5,3.7,2c0.5,0.3,2.2,1.8,2.3,1.3c0-0.5,0.8-3,1.2-3.7  s0.7-1.2,1.3-1.3c0.8-0.2,2.7,0.5,2.8,1.2c0.3,0.7,0,2.8,0.2,3.3s1.3,0.7,1.8,0.3c0.3-0.3,1.2-0.7,1.8-0.7s2.8,0,3.2,0.3  c0.3,0.3,1,1,0.8,2.2s-0.8,3-0.5,3.3c0.3,0.3,2,0.2,2.5-0.2c0.5-0.3,1.2-2,1.5-2.8c0.3-0.8,1.2-1.2,1.8-1.2s3.2,0,4.2,0  s3,0.3,3.5-0.2c0.3-0.5,0.7-2.3,0.3-3c-0.2-0.7-0.7-4.2-0.7-4.7s0.2-3,0.3-3.7c0.2-0.7,1-0.8,1.3-0.5c0.2,0.3,2.8,1.5,3.7,1.7  c0.8,0.2,1.8,0.3,2.5,0.5c0.7,0.3,2.2,0.8,2,0.5c0-0.5-0.5-1.8-0.5-2.7c0-0.7,1-2.7,1.3-3.3C482.1,561.2,481.8,561.5,481.8,561.5z" stroke="#FFFFFF" name="青海" stroke-miterlimit="10"/>
<path fill="#E3E3E4" stroke-linejoin="round" d="M273.1,489c-0.3,0.3-4.1,1.8-5.9,2.1  s-0.8,2-0.3,2.3s2,0.8,2.8,1s2.3,0.5,2.8,1.3s-0.7,1.2-1.5,2.7s-0.7,2.3-1,3.8c-0.2,1.5-2.8,2.3-4,2.8c-1.2,0.7-1.7,0.7-1.5,2.7  s0.8,1,0.8,2.5s1.5,3.7,2.5,4.2s1.7,0.5,1.8,1.2c0.2,0.7,0,1-0.7,2.3s-1,4.8-1,5.8s1.7,3.2,1.8,3.8c0.3,0.7-2.3,2.5-3.5,2.8  c-1.2,0.5-2,0.7-3,1.8c-0.8,1.2,3.3,3.5,4.2,4.2c0.8,0.8,0.7,2.2,0.7,3.5s1.7,2.7,2.5,4.3c0.8,1.7,3.2,4.2,3.7,4.7s4.2,3,6.2,3.7  c2.2,0.7,2.2-0.5,3.3-0.8c1.2-0.5,4.5-0.2,7.5-0.2c3-0.2,1.8,0.8,2.5,2c0.5,1.2,3.3,3.7,4.5,4.8s3.8,2.8,4.7,3.2  c0.8,0.3,4,1.8,5.2,2.5c1,0.7,4,0.5,5.7,0.5c1.7-0.2,2.5,1,3.2,1.3c0.8,0.2,2.2,0.2,4.2,0.8c2,0.7,2.7,1.7,3.7,2s2,0.8,2.7,1  c0.7,0.3,2.7,1,3.7,1s2.5,0.5,3.5,1.7s2,1.5,3.8,1.8c1.7,0.3,5.8-1.3,6.8-1.8s4.8-1.5,5.5-1.7s1.2,1.3,1.8,2.2  c0.7,1,3.2,4.5,3.8,5.8s1.7,0.8,3.8,1c2,0.2,2.2,0.3,3,1c0.7,0.7,0.5,5,0.3,6.2c0,1,1.3,1.8,3.3,3c2,1,5,1.5,6.2,2.3  c1,0.8,4.5,0.8,5.2,0.5s0-2.5,0.5-3.3s1.8-0.2,2.5,0.5c0.7,0.5,5.3,4,7.2,4.8c1.7,0.8,1-2.2,0.8-4.8c-0.2-2.7,1-2.3,1.8-2.8  c1-0.5,4.5-0.3,5-0.7c0.5-0.3,3.7-2.3,4.5-3.7c1-1.5,0.8-3,1.7-3.5c0.8-0.5,6.3-0.5,7.6,0.3s3,1.9,4.5,2.4c1.3,0.3,2.5,1.6,3.3,2.9  s1.3,2.8,1.5,4.5c0.2,1.8,2,4.2,2.5,4.7s4.8,4.2,5.3,6.5c-0.3,1.7-2.5,2.2-3.2,2.2c-0.7-0.2-2.3-0.5-2.3,1c-0.2,1.5,2,4.5,2.5,6.2  s2.5,3,2.3,3.2s0,3.7,0,5.3s0.3,5.2,1.2,7.3c0.5,3.2,0.2,5-0.7,6.3s-0.5,2.3-0.5,4.5c0,2,1,4.8,1,6.3c0,1.7-1.8,1.7-2.3,2.7  c-0.3,0.7-0.7,2.8-0.8,4.2c-0.2,1.5-0.3,2.7-0.5,3.2c-0.3,1.2-1.2,2-2.2-0.2c-0.2-0.7-1.7-2-2.3-2c-0.7-0.2-1.5,0.3-1.5,1.7  s-0.2,3.5,0,5.5c0.3,1.8,1.7,4.2,1.5,5.2c0,1,0.2,2-0.5,2.5s-2.8,0.7-3.7,0.8s-3.2-2-4.5-3.2s-2.2-0.7-3.7,0.5s-2.2,1-2.2,1  s0,0.8,0-0.2s-0.3-1.8-0.8-2.7c-0.3-0.8-1.3-0.3-2.2,0c-0.7,0.3-1.2-0.8-1.3-1.5c-0.2-0.7-1.5-2.2-2-2.2c-0.5-0.2-2,0-2.3,1  c-0.3,1.2-2,2.7-2.5,2.8c-0.3,0.2-1.8,1-2.5,1.8s1.2,2.3,1.3,2.7c0.2,0.5-0.3,2.3-1.2,2.7c-0.8,0.3-1.8,0.3-2.8,1.2  c-1,0.8-2.3,0.8-3.3,0.5s-5-2.8-5.8-3.7c-0.8-0.8-7.3-3.5-9.3-5s-7.8-1.8-9.7-2s-6,2-6.8,3s-4.8,3-5.8,3.7s-5.3,2.5-6.7,3.3  c-1.3,1-6,1.5-7.2,1.5c-1,0-4,0.5-5.2,1s-3.7,2-4.7,3s-2.3,4.3-2.3,5.2c-0.2,0.8-0.8,1-1.7,1.2c-0.7,0.2-3.3,0.2-4.5,0.8  c-1.2,0.7-6.2,0.2-7.3,0c-1.2-0.2-7-0.3-8.3-0.3s-9.7-0.7-10.7-0.8c-1-0.2-4.5-1.8-4.7-2.3s-0.3-3.5-0.2-4.5c0-1,2.3-2.2,2.8-2.5  s0-1.5-0.3-4c-0.3-2.3-3.8-2-5.7-1.8s-3.2-0.7-3.2-1.2c-0.2-0.5-0.2-4.7,0-5.8c0.2-1.2-2.2-2.7-3.2-3s-3.3,0-4.7,0.5  c-1.3,0.5-3-0.7-3.5-1s-4.8-2.7-5.8-3s-5.2-1.7-6-2s-2.3-2.8-3-3.2s-2.5,0.7-3.7,0.8c-1.2,0.2-7.2-0.8-7.8-1s-6.5,5.3-7.5,6.3  c-1,1.2-2,1.2-3,2s-0.3,3.7-0.3,4.8c0,1.2-2.2,3-2.5,3.3c-0.5,0.2-3.8,0.2-4.2-1c-0.5-1.3-1.2-3.7-1.3-5.3s2-4.2,3-6.5  s-0.5-3.7-1.2-4.2s-4,0-6.7,0.3c-2.7,0.5-2.5,0.7-3.5,1c-1,0.2-3.3-0.5-5.3-0.3s-3.3,0.3-5.5,0s-5.7-0.2-6.8,0c-1.2,0.2-8.7-5-10-6  c-1.2-1-0.5-1.8-1.3-2c-1.3-0.2-4.5,0.8-5.3,1.7c-0.8,0.7-1.5,1.2-2.3,1.2c-1,0-2.3-4.2-3-5s-1.2,0-1.5,1.8c-0.5,1.8-1.7,2-2,1.7  c-0.3-0.5-2.3-5.2-2.5-6.2c-0.3-1-0.3-2.3-1-2.7c-0.7-0.5-0.8,0-1.7,0.2c-0.8,0-3.5-0.7-4.5-0.7s-3.8-0.5-4.7-0.8  c-0.7-0.5-0.2-2.3,0-3.3c0.3-1,0.8-2,0.7-2.5c-0.2-0.7-2-1.7-2.7-1.8s-3.5,0.5-3.8,0.7s-2.3-1.8-3-2.2s-3.8-3.8-4.5-4.3  c-0.7-0.3-1.7-2-1.8-2.7c-0.3-0.5-0.3-2.8-0.2-3.7c0.2-0.8-0.2-2.5-0.5-3s-3-1.5-4.8-1.2c-2,0.3-4.8,0.5-5.8,0.8c-1,0.2-1.7-2-2-2.7  c-0.3-0.8-1-4.3-1.2-4.8s-3-2.3-3.8-3s-4.7-1.8-5-2c-0.3-0.3-2.5-3.3-3.2-4.5s-2.2-2.7-2.7-3c-0.3-0.3-3.5-2.8-3.5-3.5  s-1.5-4.5-2.2-5.7s-4.3-2.2-5-2.5s-5.7-0.8-5.8-0.7c-0.3,0.2-2.5,2-3.5,4.3s-2.5,1.3-3.2,0.8s-3.7-5.3-4-6s-5-3.8-6-4.8  c-1.2-1-7.3-5.3-7.7-5.8c-0.5-0.5-3.3-5-3.3-5.5s-2.8-2.7-3.5-3.5c-0.8-0.8-3.3-0.8-4.2-0.3c-0.8,0.5-2.3,1-3,0.7s-1.8-1.7-2.3-2.5  s-1-3.5-1.5-4.5s-2-3.5-2.3-4.8s0.5-1.3,0.8-2c0.5-0.7,0.8-2.3,0.7-2.8c-0.2-0.5-1-1.7-0.8-2s2.2-2,2.5-2.5c0.5-0.5,0.2-2-0.5-2.2  c-0.5-0.2-1.5-3-2.2-4.2s0.2-2.7,0.5-4.3c0.3-1.7,1.3-2.2,1.7-2.8c0.3-0.7,3.2-1.7,3.8-1.7c0.7,0,2.3-0.2,2.5,0s-0.7,0.8-1.3,1.5  c-0.7,0.8-0.2,1,0.3,2.2s0.8,2,1.5,3c0.7,1.2,2.2,1.2,3.3,1c1.2,0,2.7-2,3.2-2.5s1-2.5,1.3-3.8s0.2-3.8,0.5-5.3s0-3.2,0-3.8  s-1.7-3.3-2.3-4.2c-0.5-0.8-2.8-5.2-2.5-5.8c0.3-0.7,1-2.3,1.3-2.7c0.3-0.3,1.7-0.8,1.8-1.3c0.2-0.7-1.7-3.5-2.3-4.7  c-0.7-1.2,0-2.2,1-2.5c1-0.3,5.2-1,5.8-1.3c0.7-0.2,1.8-1.5,1.8-1.5s2.8-0.3,4.2-0.3c1.3,0,3.2,0.3,5,0.5c1.7,0.2,3.7,1,4.3,1.3  c0.7,0.2,2.3-0.8,2.7-1.2c0.3-0.3,1.2-2.2,1.5-3s1-2.5,1.5-3.3s2.8-1.8,3.2-2.2c0.5-0.3,3.2-2.3,3.8-3c0.7-0.7,2.3-2.2,3.5-2.7  c1.2-0.7,4.2-0.5,4.7,0s2.3,2,3.7,2.5c1.8-0.2,4-0.3,4.7-0.5c0.7,0,5,1.3,5.7,1.8c0.7,0.3,2,2.2,2.7,2.7s1.5,1,2.5,1s2.7-0.7,3-0.8  c0.3-0.2,3.2-1.5,4.5-1.7s1.5-0.2,2.2-0.3c0.7-0.2,1.8-1,2.5-1.7c0.7-0.8,1.3-1.5,1.7-1.5c0.3-0.2,3.5,0.5,4.2,0.8s3.5,0.7,4,1  s1.3,1,1.5,1.8c0.2,1,0.2,1.2,0.3,2.5c0.2,1.3,1.7,1.3,2.5,2s3.2,1.7,4,2.2c0.8,0.3,4,1,5.2,0.8s2.8-0.7,3.3-0.5  c1.3,0.5,3.7,0.8,5,1.2c1.2,0.2,4.7-1.3,5.7-1.8c1.2-0.5,3.3-0.2,4.5-0.3c1.2-0.2,4.5-0.2,5.5-0.3c1-0.2,4.8-1,5.3-1.2s2.7,1,2.7,1  s2.5,0.8,2.8,1.2c1-0.2,3.5-0.2,4.5-0.5c1.2-0.3,3.7-1,4.2-1.7s3-3.7,3.5-4.2s2.8-1.3,4.2-1.5c1.3-0.2,4.8-0.2,5.8-0.2  c1.2,0,5.8,0,7.2-0.3c1.3-0.3,4.2-1.3,4.8-1.3s2,1,2.7,1.3s6.3,1.3,7.5,1.3s6.2,0.2,7.3,0.2s3.3,0.7,4.5,1.7c1.3,1,3.8,2.2,5,2.8  c1.2,0.7,4,1.5,5,1.8s7.3,3.3,7.3,3.3L273.1,489z" id="path2" stroke="#FFFFFF" name="西藏" stroke-miterlimit="10"/>
<path fill="#E3E3E4" stroke-linejoin="round" d="M533.4,741.5c-0.5,0.3,0,1.9,0.4,3.1  c0.3,1.3,1.7,3.5,2.2,4.3c0.5,0.7,1.3,1.2,1.8,0.8c0.5-0.3,0.5-1.5,1-1.8c0.5-1,2.3-0.5,2.8-0.3s4.8,1.5,5.8,2  c0.8,0.5,1.5,1.2,1.7,1.7c0.2,0.5,0,2.8,0.3,4c0.5,1.2,0.3,0.3,2.3,0.5s1.7,0,3,0.2s1.8,0.2,3.2,0.2c1.4,0,1.7-0.3,2.5-0.2  c0.7,0,2.7,0.2,3.7,0.2s3.3,0.2,3.7,0.3c0.3,0.2,1.5,0.8,1.5,2.7c0.3,0.8,0.2,2,0.3,2.7c0,0.7-0.3,3.3-0.7,4.2c0,0.5-0.7,1-0.8,1.3  c-0.2,0.3-2.2-0.2-2.5-0.2s-2.2,0-2.5,0.2c-0.3,0.3-1.5,1-2,1.3c-0.3,0.3-3,0.7-3.5,0.8s-2.5,1.5-2.7,1.5c-0.2,0-1.3,0.7-1.3,0.7  s-1.7-1.2-2.2-1.3s-2-0.3-2.7,0s-3.7,1.7-4.8,2c-1.2,0.3-2.7,1.3-3.2,1.8s-0.3,2.2-0.3,2.3c0,0.2,1.2,1.2,0.8,1.7  c-0.4,0.5-3.8,1.3-4.7,1.5c-0.8,0.2-4.7,1.8-5.2,2.7c-0.5,0.7-2-0.5-2.2-0.7s-1.7-1.5-2-1.7s-2.5,0.7-3,1.8  c-0.5,1.3-0.3,4.2-0.8,4.5c-0.3,0.3-2-1-2.8-1.2s-2.2-1.5-2.7-1.7c-0.5-0.3-1.7-1-2-1.7s-2.2,0.2-2.3,0.5c-0.2,0.3-1.5,0.2-2,0  c-0.7-0.2-0.8-1-1.2-1.7c-0.3-0.5-1.2-0.2-2,0.2c-0.8,0.3-1.5,0.2-2,1c-0.3,0.8-1.2,2.3-1.5,2.8c-0.3,0.5-2,0.5-2.7,0.7  c-0.7,0.2-2.8-1-3.2-1.5c-0.3-0.7-3.5-2.2-3.8-2.5s-3.7-1.3-4.3-1.3s-1.8,2-2.3,2.3s-2.7,2.8-3.2,3.5s-1.5,0.7-2,0.8  c-0.5,0.2-2.7-0.2-4.2,0.2s-3.2-0.7-4.2-1.3c-1-0.7-1.8-0.5-2.3-0.5s-1.3,1.2-1.7,2c-0.3,0.8-0.5,3-0.3,4.5c0.3,1.5,2,3.3,2.3,4.3  c0.3,1,1.5,2.5,1.8,3.8s-0.3,2.7-0.7,3.8c-0.3,1.2-0.2,2.5-0.2,3.5c-0.2,0.8,0.7,3.2,0.8,3.7c0.2,0.5-1.5,0.7-2,0.7s-3-1.5-5-1.5  c-2,0-2.7-0.3-3.5-0.3c-1,0-2.7-2.2-3-2.8c-0.2-0.7-0.2-2.8,0-3.2c0.2-0.3,0.5-2.5,0.5-2.8s-1-0.7-1.5-1.3c-0.5-0.5-1.2-0.2-2,0.3  s-2.7,0.5-3.5,0.8c-0.8,0.5-2,0.7-2.7,1.3c-0.7,0.5-1.3,0.8-2,1.3s-1.7,0.5-2.2,0.2c-0.5-0.2-3.2-1-4.2-1c-0.8,0-1.7-0.2-2.5-0.7  c-0.8-0.5-1-1.5-1.7-2c-0.7-0.5-2.2-0.8-2.7-1.5c-0.3-0.5-0.7-2-0.7-2s0-1.3,0.2-2c0-0.7,0-1.5,0-1.8s-0.5-1-1.3-1.3  c-0.8-0.2-0.8,0.3-1.3,0.5c-0.5,0.3-2,0-2.5-0.2s-3.5-0.7-4.8-1c-1.3-0.3-2.8-0.5-4-0.7c-1.2-0.2-1.3-1.5-1.2-2.2  c0.2-0.5,1-2.5,1.2-2.8s1.7-2.8,2.2-3.8c0.5-0.8,1.3-4.2,1.5-4.7c0.2-0.3,2-1.5,3-2.2c1.2-0.7,1-1.5,0.7-2.2  c-0.3-0.7-2.5-1.2-3.7-1.5c-1.2-0.3-4.2-0.5-5.5-0.3c-1.3,0-3-0.5-3.5-0.8c-0.5-0.2-0.3-1.5-0.2-1.7c0-0.2,0.8-2.5,0.8-3.2  s-1.2-1.7-1.7-2s-0.2-2,0.2-3c0.3-1-1-1.8-1.3-2.3c-0.3-0.5-1.8-2.3-1.7-3c0.2-0.5,0.7-1.5,2.2-2s2-1.2,2.2-1.5c0.2-0.3-1-0.7-2-0.8  c-0.8-0.2-2.5-0.2-3.5-0.2c-1.2,0-2.3-0.7-3.2-0.8c-0.8-0.2-2.8,0-3.7,0.5c-0.8,0.5-4,1.3-5.2,1.5c-1.2,0.3-3.3,0.2-3.7,0.3  c-0.5,0.2-2.5,1-2.8,1.3c-0.3,0.3-3.2-0.2-3.7-0.3s-0.7-1-0.8-1.3c-0.2-0.3,0.3-2,0.8-2.2c0.3-0.2,1.7-0.8,2.7-1s1.5-1,1.8-1.7  c0.2-0.7-1.3-2.5-1.8-2.8c-0.3-0.3-1.7-2.2-1.7-2.3s0.5-1.7,0.7-1.8c0.2-0.3,0.5-1.7,0.8-2.5c0.3-0.8,0.5-1.2,1.5-1.5  c1-0.2,2.7-0.2,3-0.8c0.3-0.7-1.3-2-1.5-2.8c-0.2-0.8-0.3-3.3,0-4c0.3-0.7,0.8-2,1.5-1.8c0.7,0.2,2.7,0.7,3.7,0.2s2.8-2.8,3.3-3.7  c0.5-0.8,0.2-1.8,1.5-2.3c1.2-0.5,1.8,0.8,3.2,0.3c1.3-0.5,2.5-1.2,2.7-1.5s0.7-2,1.2-2.3c0.5-0.5,1-0.7,2.2-0.7  c1.2,0,2.8,0.3,3.2-0.2c0.3-0.5-0.8-1.7-1.2-1.8c-0.3-0.2-1.3-0.7-1.7-1.5c-0.3-0.8,0.2-2,0.3-2.3c0.2-0.3,2-0.7,2.3-1.5  s-0.2-3.2,0-3.8c0-0.7,0.7-2.7,1-3.5s0.3-2.5,0.5-3.3c0.2-0.8-0.3-5.2-0.3-5.8c0-0.7-0.3-3.2-0.2-3.8c0.2-0.8-0.3-4-0.3-4.2  s-0.3-2.2-0.5-2.8c-0.2-0.5-1.3-1.5-1.7-1.7c-0.3-0.2-1.5-0.2-2-0.2c-0.5,0.2-1,1-1.3,1.5c-0.3,0.5-1.5-0.3-1.8-0.7  c-0.5-0.3-1-2.2-1.2-2.7s-1.2-3.9-1-4.7c0.3-0.8,0.2-1.7-0.2-2.2c-0.2-0.5-1.3-0.7-1.2-1.2c0-0.5,0.8-1,0-1.8c-0.8-0.8-2-1.7-1.8-2  c0.2-0.3,1.3-0.8,1.8-1.3s1.5-1.3,2-1.3s1.5,0.5,1.8,0.8c0.5,0.3,2,1,2.2,1.5c0.3,0.5,1,1.2,1.5,1.3c0.5,0.2,2.3-0.3,2.7-0.5  c0.4-0.2,2-0.5,2.2-0.7c0.3-0.2,0.2-1.8,0-2.7c-0.2-0.8-0.7-2.7-1-3.2s-0.8-2.8-0.8-3.3c0-0.3,0.3-2.8,0.5-3.5  c0.3-0.7,0.7-1.7,1.3-1.7c0.5,0,2-0.7,2.8,2.3c0.3,0.5,0.8,1.3,1,1c1.3-0.8,1-2,1.2-2.3c0.2-0.5,0.2-3,0.3-3.8  c0.2-0.8,0.2-1.7,0.3-2c0.2-0.3,2.1-1.4,2.4-1.8c0.3-0.3,1.5-0.5,1.7-0.3c0.2,0.2,0.2,3,0.2,3.5s-0.3,2.7-0.3,3.5s-0.5,2-0.7,2.7  c0,0.7,0.3,0.7,0.3,1.3c0,0.5,0.2,2.5,0.5,4c0.3,1.3,0.7,1.8,0.8,2.2c0.2,0.3,0.5,2.7,0.8,3.2c0.3,0.5,0.8,1,1.2,1.5s1.7,1,1.7,0.8  c0.2-0.7,0-2.3,0-2.8s-0.2-1.7,0-2.5c0.2-0.8,1.5-0.7,2-1.2s1.3-0.8,1.7-1.3c0.3-0.5,1.3-1.8,1.5-2.2c0.2-0.4,1.5,0.8,2.2,1.7  c0.7,0.9,0.8,1.8,1.8,3s1.2-0.2,2.3,1c2.3,1.3,2,3.8,2.2,4.2c0.2,0.5,0.3,2.7,0,3c-0.2,1.3-0.2,2.8-0.2,3.7s0.3,2,0.5,2.7  c0.2,0.8,1,1.8,1.5,2.2c0.5,0.3,2.7,0.7,3,0.7c0.5-0.2,2.7-1.2,3.2-1.5c0.7-0.5,2.2-0.7,2.7-0.5s2.5,2.8,3,3.7  c0.5,0.7,1,2.3,1.3,3.7c0.3,1.3,1.2,2.3,1.5,3.2c0.5,0.8,0.3,1.3,0.7,1.8c0.3,0.3,1.2,2,1.2,2.7c0.8,0.5,1.7,2.7,2,3.2  c0.3,0.5,0.8,0.8,1.8,1.7c1,0.8,1,1.5,1.2,2c0.2,0.5,0.7,0.5,1.3,1.2c0.7,0.5,0.8,1,0.8,2.2s0,1,0.3,2c0.3,1.2,1,1.8,1.3,2.3  c0.3,0.5,0.8,1.3,0.5,2.5c-0.3,1.2,0.3,0.8,0.5,1.3c0.2,0.5-0.2,0.3,0.8,0.7c0.8,0.3,1,0.8,1.3,1.5c0.2,0.8,1,1,1.8,1.2  c0.8,0.2,2.5-0.3,3.3-0.5c0.8-0.2,3-0.5,3.7-0.8c0.7-0.2,2.2-0.2,2.8-0.3c0.5-0.3,2.7-1.3,3.3-1.5c0.8-0.2,1.3,0.2,2,0.8  c0.7,0.5,2.2,1.3,2.5,1.3c0.3,0,1.3-1.2,1.7-1.7c0.7-0.8,1.3-2.8,1.7-3.5c0.5-1,1.2-3,1-3.7c0-0.7-0.5-2.5-1.2-3  c-0.7-0.5-1.5-3.7-1.5-4.5s-0.2-3.5,0-4.2c0.2-0.7,0.8-3.2,1-3.5c0.2-0.3,0.7-1.3,1.5-2c0.8-0.7,2.7-0.5,3.2-1  c0.3-0.5,1.2-2,1.5-2.5s2.3-2.5,3.2-3.2c0.8-0.7,0.8-2,1-2.2c0.2-0.2,1-0.5,1.2-1s0.7-2.7,1-3.2c0.2-0.5,0.7-1.7,1.2-1.8  c0.5-0.2,2-0.2,2.7,0.3c0.7,0.3,0.7,0.2,1.2,0.2s2.8-0.7,3.2-1.2s1.3-2,1-2.3s-1-3.2-1.2-3.8c-0.3-0.7,0.8,0.5,1.3,0.5  c0.7,0,3.3-0.5,3.8-0.3c0.5,0,4.2-0.5,4.7-0.5s0.5,1.7,0.5,2.2c0.2,0.5,0.7,2.2,0.8,2.7c0.3,1,0.8,2.3,0.7,3.2c-0.2,1-1.8,2-2.5,2.7  s0.5,1,0.5,1.3c1.8,0.8,1.8,1.7,3.7,2c1.7,0.3,4,0,4.7-0.8c0.8-0.8,3.5-2.2,5-3c1.3-0.8,1.5-1,2.2-0.8c0.5,0.2,1.8,2.7,2,4s1,4,1,4  c0,0.3,0,0.5,0.2,0.7s-0.7,2-0.7,2.5s-0.5,2.3-0.5,2.8c-0.2,0.5-1,1-1.5,1.2s-1.8-0.8-2.7-0.8c-0.8,0-3,1-3.7,1.3  c-0.7,0.3-2.3,0.3-3,0.7c-0.7,0.5-2.8,0.8-4.5-1.8c-0.5-0.5-2.5-1.2-2.8-0.2c-0.7-0.2-1.7,1.3-2,1.7c-0.5,0.3-2,0.5-2.5,0.3  s-2-2-2.3-2.5c-0.3-0.3-2.3,1.5-3,2.2c-0.8,1-1.8,1.7-2.3,2.5s-1.3,2-1.8,2.5s0.2,0.7,0.8,1c0.7,0.3,1.3,0.7,1.5,1.2  c0,0.5-1,1.7-1.5,2.3c-0.5,0.5,0,0.7,0,1.2s0.3,0.5,0.8,1c0.7,0.5,0.5,1,0.7,1.3c0.2,0.3,0.8,2,1,2.3c0.2,0.3,0.8,0.5,2,0.7  c1.2,0.2,1.5-0.7,2.3-1.2c0.7-0.5,1.5-0.8,2.8-1c1.2-0.2,2.5-0.8,2.7-1c0.2,0,1.2-1.7,1.5-1.8c0.3-0.1,0.8,0.8,1,1.5  c0.2,0.7,0.2,1,0.8,1.8c0.7,0.2,1.2,1,1.5,1.2c0.3,0.2,1,2.3,1,3.2s-0.7,2.8-0.8,3.2c-0.2,0.3-0.3,0.5-1.2,1.3  c-0.8,0.8-0.5,0.7-0.7,1c0,0.5-0.3,2.3-0.5,3s-1.2,1.8-1.5,2.3s-1.3,2.2-1.3,2.8c0,0.5,0.7,1,1.3,1.3c0.7,0.3,1.5,1.2,1.7,1.8  c0.2,0.7,0.7,1.3,1.2,1.3c0.5,0.2,2.3,1.2,2.5,1.3c0.2,0.3,1.3,1.7,1.8,2.7c1.7,0,1.5,1.5,1.8,1.8c-0.2,1-1.2,1-1.8,1.3  c-0.7,0.3-0.7,0.8-0.7,1.8c-0.2,1,1,1.3,0.5,2.5c0,0-1.5,1.5-1.7,1.8s-1.3,1.2-1.3,1.2L533.4,741.5z" id="path3" stroke="#FFFFFF" name="云南" stroke-miterlimit="10"/>
<path fill="#E3E3E4" stroke-linejoin="round" d="M426.2,612.5c-0.5-0.2-1.7-1.2-1.8-1.3  c-0.2-0.2-1-1-1.3-2s-0.5-2.2-0.8-3.5s-0.5-3-0.2-3.2s2-0.3,2.5-0.2s2.2-0.8,2.2-1.5s-0.8-2.5-1.2-2.7c-0.3-0.2-2.5-3.2-2.8-3.8  c-0.3-0.5-1.5,0-2-1.5s-0.7-2-0.8-3s-2-3.8-2.2-4.7c-0.2-0.8-0.7-2.2-1.2-2.8c-0.5-0.7-2-1.8-2.8-2.3s-1.5-1-2.5-1.5  c-1.2-0.5-3.2-1.3-3.7-1.7c-0.5-0.3-3.2-1.8-3.3-2.3c-0.3-0.5-1-1-1-2.5c-0.3-0.7-1.3-2.2-1.3-2.3c0-0.5-0.7-1-0.2-1.3  s2.2-0.8,3-1.8c0.8-0.8,1.2-2.8,1.7-3s1.5-1,1.8-1.2s1.5-2.1,1.5-2.3c0-0.2-0.7-0.8-1.7-1s-2.2-2.4-2.7-3.1s-1-1.8-1-2.7  c0-0.7,0-1.1-0.4-1.5c-0.5-0.5-1.2-0.8-1-1.3c0.2-0.7,1-1.2,1.5-1.3c0.7-0.2,1.5-0.2,2.3-0.3c1-0.2,2-0.8,2.2-1.2  c0.2-0.5,0.8-0.7,0.8-1.5s-0.7-0.5,0.3-1.3s1.7-0.8,2.3-0.8c0.7-0.2,3-1,4,0.2c0.8,1.2,2,2,2.5,2.2c0.3,0.2,1.7,0.3,2.3,0.3  s1.3,0.3,1.5,0.7c0.2,0.2,1.2,1.2,1.2,2s-0.2,1.5,0.2,2.2c0.2,0.7,2,4.3,2.2,4.8c0.3,0.5,1.5,2,1.5,2.8c0.2,0.7,0.3,2.8,0.2,3.2  c0,0.3,1.2,2.2,2,2.7c0.7,0.5,2.5,1.5,3.7,2s3.1,2.9,4.2,4.4c1.2,1.5,2.8,2.8,3.2,3c0.3,0.2,2.3,0.8,3,1.3c0.8,0.5,2,1.9,2.1,1.6  c0.2-0.3,0.6-1.1,0.6-2.1s0.3-1.7,1-2.2s1.2-0.8,1.7-0.5s1.8,0.3,2,1c0.2,0.5-0.1,1.9,0.1,2.5c-0.1,1.4,1.1,1.3,1.6,1.1  c0.5,0,0.4,0,1.1-0.3c0.8-0.3,2.2-0.5,3-0.2c0.7,0.3,2.2,1.2,2.2,1.7s-1.2,3.6-0.7,3.9s2.2,0.2,2.6-0.2c0.3-0.3,0.8-1.2,1.2-1.8  c0.3-0.8,0.7-2,1-2.2s2.2-0.3,2.5-0.3s2.8-0.2,3.2,0c0.3,0,2.6,0.1,2.8-0.2c0.3-0.3,0.8-0.8,0.7-1.5c-0.2-0.7-0.7-3.2-0.8-3.7  c0-0.5-0.5-4.3-0.5-5s0.5-1.7,1-1.8c0.5,0,2.3,0.5,2.7,0.7c0.3,0.2,2.7,0.7,3,1c0.5,0.2,2.5,1.2,2.7,1.2c0.3,0,0.5-0.2,0.3-0.8  c0-0.5-0.3-1.2-0.3-2c0-1-0.5-0.5,0.2-1.7s0.8-1.3,1.2-1.7c0.2-0.5,1.3-1.8,1.5-2c0.2,0,2.3-0.3,2.7-0.2c0.2,0.2,0.5,1.5,0.3,2.5  c-0.2,0.8-1,2.2-1.2,2.8s-0.7,1.8-0.3,2.2c0.3,0.3,0.8,0.5,1.5,0s0.8-0.2,1.7-0.7c0.8-0.5,0.8-1,1.3-1.2s0.8,0.8,1.3,1  c0.5,0,1.2-0.2,1.5-0.5s0.5-0.2,0.8-0.7s0.8-0.7,1-1.5c0.2-0.7,1.3-4.3,1.3-4.8s-1.2-1.8-1.5-2.7c-0.3-0.7-0.5-1.8-0.5-2.5  s1.2-0.5,1.3-1.2c0.2-0.7,0.2-0.8,0.5-1.7c0.3-0.7,0.3-1.2,0.5-1.5s0.3-0.5,0.8-0.7s1.8-0.2,2.2-1c0.3-0.8,0.8-1,1.2-1.5  c0.2-0.7-0.2-0.5,0.3-0.8s-0.3-0.2,1.5-0.3c2-0.2,2.2-0.2,3.7,0.2c1.3,0.3,2.2-0.7,2.8,0.8c0.7,1.3,0.2,2.2,0.3,2.7  c0,0.3,0.3,2.2,0.3,2.3c0,0.2,0.5,3.8,1,4.2c0.5,0.3,2.5,0.5,2.8,0.5c0.5-0.2,1.5-0.7,1.7-0.5c0.3,0,1.5,0.5,1.7,1  c0.2,0.3,1.7,1.8,2,1.8s2.7-0.3,3-0.5s1.8-1.5,3.3,0c0.3,0.7,1.7,2.5,1.8,2.8s0.8,1.5,1.5,1.8c0.7,0.5,2.5,1.5,2.8,1.8  s1.3,1.2,0.5,3.2c0,1,0.2,2.2,0.2,2.8s-0.7,1.7-0.7,2.3c-0.2,0.8,0,1.7,0.5,2.2s2.2,1.7,2.8,2.3c0.7,0.7,5.2,2,5.8,2.2  c0.7,0.2,2.7,0.5,4,0.3c1.3,0,3-0.5,3.8-0.8s2.5-1,3.5-1.2c1-0.3,3,0,4-0.2s4.2-0.7,4.8-1c0.7-0.3,0.7-0.8,1.7-0.3s2,1.5,2.5,1.8  c0.5,0.5,1.3,0.8,2.5,1c1.2,0,4.7-0.8,4.8-1s3.7-0.8,4.3-0.7c0.7,0.3,2,0.2,3.2,0.7s2.7,0.7,2.5,1.2s-0.3,0.8-0.2,1.7  c0.3,0.7,1.3,1.3,2,1.2c0.7-0.2,2,0,2.8-0.3c0.7-0.3,1.2-0.5,1.7-0.2c0.5,0.2,2.2,2.2,2.3,2.5c0.3,0.3,2,2,2.7,2.5  c0.5,0.3,4,1.7,4.7,1.5s2.3-0.7,3.2-1c0.7-0.3,2.7-1,3.2-0.7c0.5,0.5,2.3,0,2.5,1c0.3,1,0.2,2.5-0.2,3.2c-0.5,0.7-1.3,0.5-2,0.8  c-0.5,0.5-0.8,1.3-0.2,1.8c0.7,0.5,3.7,2.2,4.2,3s0.8,2,0.7,2.2c-0.2,0.2-1.2,0.5-1.8,1c-0.7,0.5-2.2,1.8-2.5,2.5s-2.7,3.2-2.7,3.7  c-0.2,0.5-1,1.5-1,2s-0.5,2.8-0.8,3.5c-0.2,0.7-0.8,3.2-1.7,3.8c-0.8,0.7-1.8,1-2.3,1s-3.3-0.5-4.3-0.2s-0.8,0-1.5,0.7  c-0.3,0.5-1,1.3-1,2s0.7,1.5,0.3,2.2c-0.3,0.7-2.2,2.5-2.3,3.2c-0.2,0.5-1.2,3.7-1.7,4.3c-0.5,0.7-2,2.7-2.7,3s-3,1.5-3.7,1.7  c-0.8,0-2.3,1-3.2-0.2c-1.2-0.5-2.3-2.5-2.5-3.3c-0.2-0.7-0.5-0.8-1-1.7c-0.3-0.8-1.5-0.5-2.5-0.3s-1.7,1-2.5,1c-0.3,0-1-0.3-2-0.7  c-1-0.5-3.2-1.5-4.3-1.8c-1.2-0.5-2.5-1.2-3-0.8s-2.5,2.3-2.8,3c-0.3,0.5-1.3,0.8-1.8,1.5s-1.8,0.3-0.3,1.3s3,1.8,3,2s0.5,2,0.2,2.7  s-1.2,1.2-1.7,1.8c-0.7,0.5-1.5,2.2-1.8,2.5s-1.5,0.5-2.5,1s-1.5,1-1.8,1.3s0.5,1.5,1,1.7c0.5,0.3,1.3,2.7,1.5,3s0.2,1.7,0.8,1.7  c0.7,0.2,1,0.2,1.5-0.3s1-1.3,1.7-0.5s1.3,0.8,1.5,2s1.7,3.5,2,4s1,1.5,1.3,1.7s1.2-0.2,1.7-0.3c0.5,0,2,0.8,2.5,1s1-0.5,1.5,0.3  c0.5,0.7,1.5,1.7,1.7,2.2s1,2.8,1.3,3.3s1,1.8,0.5,1.8c-0.3,0.2-2.8,0.5-3.8-0.2c-1-0.5-2.7-1.8-3.7-2s-2.7,0.3-3.2,0.7  c-0.5,0.3-2.2,0.7-2.7,0.7s-1.8,0.8-1.8,1.5s0.2,1.3,0.7,2s3,2.5,3.3,2.7c0.5,0.2,1,1.2,1.7,1.3c0.7,0.2,0.7,0,1.7,0.2  s2.5,1.2,3.2,2.3c0.7,1.2,1,2,1.5,2.7s1.7,1.8,1.3,2.5c-0.3,0.5-3.5,1.7-4.5,1.8s-5,0.7-5.8,1.2c-0.7,0.5-2.2,1.2-3.2,1  s-1.5-0.5-2.5-0.7s-1.5,0-2-0.2s-1.3-1-1.5-2.2s-0.7-3.8-1.2-5s-1-1.8-2-1.3s-4.5,3.2-5.7,3.7s-3.2,1.7-4.8,1.2  c-1.7-0.5-2.5-0.7-3.2-1.3c-0.7-0.7-1.8-1.5-1.5-2.2c0.2-0.7,1.8-1.7,2.3-2.3c0.5-0.7,0.3-1,0.2-1.7c-0.2-0.7-1.5-4.3-1.7-5.2  c0-0.8,0.2-1.3-0.5-1.5c-0.5-0.2-2.8,0-4.2,0.3c-1.3,0.3-2.7,0.2-3.3,0c-0.3,0.3-0.8,0.3-2-0.3c0.5,0.8,0.2,1.8,0.8,2.8  c0.7,1,1,2.3,0.3,2.8c-0.5,0.5-3.2,2-3.7,2s-1.5,0.2-2.8-0.3c-1.5-0.2-1.2-0.7-2-0.3c-0.8,1-0.7,1.5-1,2.5s-1,3-1.7,3.5s-0.3,1-1,2  s-1.7,1.7-2.5,2.3c-0.8,0.8-1.3,2-2,2.7s-0.2,0.8-1.5,1.3s-2,0.5-2,0.5s-0.8,1-1.3,1.5c-0.3,0.5-1.2,5.7-1.3,6.5  c-0.2,0.8,0.2,3.8,0.7,4.8s2,3.5,2,4.2c0.2,0.7-0.8,3.8-1.3,5.2c-0.5,1.3-1.2,2.2-1.8,2.8c-0.5,0.8-0.2,1.7-1.5,1.5s-0.7-0.2-2-1  s-1.3-1.3-2-1.2c-0.7,0.2-0.5-0.2-1.8,0.3c-1.3,0.7-1.7,1.3-3,1.3c-0.5,0-2.7,0.3-4,0.7s-3,1-4.8,0.8c-2-0.3-1.7-0.7-2.5-1.8  s-1.2-0.8-1.5-1.5s-0.7-2-0.7-2.7s-0.7-1.8-1.3-2.7c-0.7-0.8-0.8-2-0.8-3.2s-0.3-1.8-0.7-2c-0.3-0.2-1-0.5-1.7-1.5s-0.5-1.2-1.5-2  c-1.2-1-2.3-2.5-2.8-3.7s-1.7-3.5-2-4s-0.8-1.7-1.3-2.8c-0.5-1.3-2-3.8-2.5-5.3s-2.3-3.3-2.8-3.7c-0.7-0.2-2.3,0.5-2.8,1  c-0.5,0.7-2.8,1.3-3.7,1.2c-0.8-0.2-3-0.7-3.2-1.8s-1-2.3-1-4.8s0.3-5.7,0.2-6.8c-0.2-1.2-0.3-2-1.5-2.7c-1.3-0.7-1.3-0.5-2.5-1.7  c-1.3-1-1.5-1.5-2-2.3s-2-2.5-2-2.5s-0.3,1.2-0.7,1.7c-0.3,0.5-1.8,1.8-2.5,2.3s-1.8,0-1.7,1.5c0,0.7-0.2,3.8-0.2,4.2  c0,0.5-0.2,1.3-0.5,1.2c0,0-0.8-0.5-1.3-0.8s-1.3-1.5-1.7-2.3c-0.3-0.8-1.2-4.2-1.3-4.8c-0.2-0.7-0.5-2-0.5-2.5s-0.2-3.7,0-4.7  s0.5-3,0.3-3.8c0-0.7,0.2-3.7,0-4.3c-0.2-0.8-1-3.7-1-4.3c0-0.7-0.3-2.5-0.3-3.5s0.7-1.5,0.8-2.3c0.2-0.8,0.5-2.5,0.5-3.3  s0-1.3-0.3-2.3s-1-2.5-1.2-3.2C426.7,619.3,426.2,612.5,426.2,612.5z" id="path4" stroke="#FFFFFF" name="四川" stroke-miterlimit="10"/>
<path fill="#E3E3E4" stroke-linejoin="round" d="M773.7,142.7c0,0,0.8,0.5,1.3,0.7  s1.7,0.8,2,1.3s1.7,2.3,1.7,2.8s0,1.8-0.3,2.3c-0.5,0.5-1,1-1.5,1.3s-1.5,0.7-1.8,1.3c-0.3,0.5-0.2,1.2-0.5,1.8s-1.3,2.3-1.3,2.7  c-0.2,0.5,0,1,0.3,1c0.3,0.2,2.3,0.5,3,0.7c0.7,0.3,2.2,1,2.7,1.7c0.7,0.5,1.5,1.3,2.5,1.5c0.8,0.2,1.8,0.3,2.2-0.2s1-3.3,1.3-3.8  c0.2-0.5,0.7-1,1.2-1.2s3,0.8,3.5,1c0.3,0.2,3.2,1.5,4,2s2.7,1.5,2.7,1.8c-0.2,0.3-1,2-1,2.8c0,1,0.3,2.3,0.7,2.8  c0.3,0.5,0.8,3.3,1.5,4.2c0.7,0.7,4,7,4.8,7.2s3.3,0.7,8.2-1c5-1.7,5.2-1,6-1.2s2.7-0.7,3.8-1c1.2-0.3,4-1.5,5-1.8  c1.2-0.3,2.3-0.5,2.8-1s1.8-2.3,2.3-3s2.5-2.7,3.2-2.5c0.5,0.3,4,1.2,4.8,2.2c1.2,0.8,2.8,2.2,3.2,2.5c0.5,0.3,2.7,1.7,3.3,2.7  c1.5,1.3,1,3.2,0.7,3.8c-0.3,0.5-1.5,3.5-1.8,4.2s0,3.2-0.2,3.8s-0.8,1.5-1.2,1.8s-0.5,0.8-0.7,1.5s0.3,3-0.2,3.7s-1.5,2-1.7,2.5  s-0.3,2.5,0.2,3.5s1.3,4,0.8,4.8s-1.5,1.8-1,2.3s1.7,3.3,2,4.3s0.5,2.8,0.2,3.2s-2.2,1-2.8,1.3s-2.3,2.5-2.5,3.2  c-0.2,0.5-0.8,4.7-1,6.2c-0.2,1.7-0.2,5.7,0.2,7c0.3,1.3,1.3,3.7,1,4.7s-0.3,3-0.8,2.8c-0.5,0-0.8-0.2-1.3-0.8  c-0.7-0.7-0.8-0.3-1-1.7c-0.3-1.7-0.5-2.8-0.8-3.5s-1.2-1.5-1.7-1.3s-1.8,1.5-2.2,1.8c-0.3,0.3-1.3,1.8-2,2.3s-2,3-2.7,3.5  s-1.8,2.3-2.5,3c-0.5,0.5-2.2,2.7-2.7,3s-2.3,3-2.5,3.2c-0.2,0.3-1.7,1.8-2.5,2.7c-0.8,0.8-2.7,2.3-2.8,2.7c-0.2,0.3-1.2,1-1.5,1.7  c-0.3,0.7-0.7,2-0.3,2.8c0.3,0.8,2,3,2.7,3.5s3.2,1.8,3.7,2.2c0.5,0.3,1.2,1.5,1.3,2.2c0.2,0.7,1,1.8,1.5,2.2c0.5,0.2,1.7,0.8,2,0.7  c0.3-0.2,0.7-0.3,1.3-0.8c0.7-0.5,1.7-1.5,1.7-1.7s-0.5-1.3-0.3-2s1-1,1.3-1s1.2,1,1.5,1.5c0.5,0.5,0.5,0.7,1.2,0.7s1.8,0,1.8,0.3  s-0.7,3.8-1,4.2c-0.3,0.3-2.3,1-3.7,1s-3.7,0.3-4,0.7c-0.3,0.3-0.5,1.3-0.5,1.8s1.3,2.7,1.8,3.2s1.8,1.3,2.3,1.5s1.3,0.5,1.2,0.8  c-0.2,0.3-0.2,0.8-0.8,1.5c-0.7,0.7-2.2,1.5-2.7,1.7s-1.8,0.5-2,0.8c-0.2,0.2-0.3,1-0.2,1.5c0.2,0.5,0.8,2,0.7,2.7  c-0.2,0.7-0.3,2.7-0.8,2.8c-0.5,0.2-1,0-1.7-0.5c-0.5-0.5-2-1.8-2.7-1.8s-1.3,0.2-1.7,0.5c-0.2,0.3-0.5,1.2-1,1.3  c-0.5,0.2-1.7-0.5-2.7-0.8c-1-0.5-2.5-1-3.2-1.7s-1.5-1.5-1.7-1.7s-0.7,1.8-0.5,2.3s-0.3,3.2-1,3.3c-0.7,0.2-1.5,1.2-1.2,1.5  s2.3,1.3,3,1.2c0.7-0.2,1.3-0.3,1.8-0.2c0.5,0.2,2.2,2.7,2.7,3s3.2,3,3.2,3.7s-1,5.5-1.3,5.8c-0.3,0.5-0.2,2.3,0.3,2.8s1,1.8,1,2.3  c0.2,0.5,0,2.3,0.3,3s2,2.8,2.8,2.8c0.8,0.2,1.3-0.2,1.5,0.5s0.2,2.8,0.5,3.2c0.3,0.3,1.3,0.5,2,0s4.7-2,5.2-2.7s2.2-2.3,2.7-3  s0.8-1.5,1.3-1.5c0.5,0.2,3.3,4.5,3.7,4.8c0.5,0.7,2.3,2.3,2.3,2.8s1,3,1.5,3.3c0.5,0.5,2.2,2,2.3,2.5c0.2,0.5,0.5,2.5,0,2.8  s-1.8,2.2-2,2.5s-0.3,2.3,0.7,2.3c1-0.2,2.8,0.2,3.7-0.2s1.8-0.7,1.8-0.5s-0.2,5.3-0.3,6c-0.2,0.7-2.2,2.2-3,2.5s-1.3,2.2-2,2.8  c-0.5,0.7-1.5,2.5-2.2,3.2s-2.8,1.3-3.5,1.5s-3-0.3-3.8-0.5s-2.8-0.5-2.8-0.2s0.2,1.5,0.2,2.2s-0.7,1.3-1,1.3  c-0.5,0-2.7-0.5-3.5-0.5s-1.7,1.3-1.8,1.5c-0.2,0.3-1.2,3.7-2,4.2s-2.8,0.8-3.8,1c-1.7-0.2-3.8,1.5-4.3,1.8s-2.2,2-3,2.3  c-0.8,0.5-4.2,2-4.8,2.2c-0.5,0.2-1.3,0.5-1.8,1s-3.3,3.2-3.8,3.8c-0.5,0.7-2.8,3.5-3.2,4c-0.3,0.5-1.8,3.7-2.2,4.2  c-0.3,0.3-0.8-0.8-1.2-1.7c-0.3-0.7-2.5-5.8-3-6.3c-0.3-0.5-3.5-3.2-4.8-3.8c-1.2-0.7-3.2-1.2-3.8-0.7c-0.7,0.5-1.2,1.8-1,2.7  c0.2,0.7,0.8,4.2,1.5,5.2s0.5,4.3,1,5.3c0.5,1.2,0.5,3.7,0.3,4.3c-0.2,0.7-0.7,3.8-0.8,3.8s-3.5,0.8-4.2,0.8s-3.2,0.3-4.2,0.5  c-1,0-3.2,0.3-4.5,0.2c-1.3-0.2-1.5,0.5-1.7-0.3c-0.3-0.8-1-3-1.3-3.3c-0.2-0.2-2.3-2.2-2.5-2.3c-0.2-0.2-1.7-1.5-1.5-1.8  s1.5-0.3,2.3-0.8s1.7-1.5,1.5-1.7s-3.8-3-4.5-3.5s-2.7-2.7-2.8-3.5c-0.3-0.8-3.8-6.2-4.3-6.5s-2.3-0.7-3.3,0.2  c-1.2,0.8-2.8,2.8-3.3,3.2c-0.5,0.3-3.7,0.2-4.5,0.3c-0.8,0.2-2,1.2-2.2,2.2c-0.3,0.8,0.2,2.2,0,2.7s-0.7,1.2-0.3,1.8  c0.3,0.7,1,3.3,0.5,4s-3,0.8-3.8,1s-5-0.2-5.2,0c-0.2,0.3-1.8,1.2-2.5,2.3c-0.7,1.2-2.2,1-2.5,0.7s-1.3-0.7-2.2-0.7  c-0.8,0.2-3.2,0.7-4,1.3c-0.8,0.7-3.2,2.3-4.2,3c-1,0.5-4.5,2.3-5,2.5s-2.8,0.2-2.7-1.7c0.2-1.8-0.2-5-0.3-5.7s-1.3-3.2-1.7-3.3  c-0.3-0.2-3.2,1-3.7,1.5s-2.5,2.2-2.7,2.5s-1.3,1.3-1.8,2s-0.2,6.3-0.7,7s-2.3,0.8-3,1.2c-0.7,0.3-0.7,1-0.2,1.7s0,2.8-0.5,3.8  s-0.5,2.7-0.3,3c0.2,0.5,1.7,3,2.7,3.7c0.8,0.7,1.5,2,1.2,2.8c0.2,1.7-0.3,4-1.2,4.5c-0.8,0.7-3,2-3.2,2.2c-0.3,0.2-2.5,2.2-3.5,2.5  s-3.2,0.3-4.2,0.3s-3.7-0.3-4.8,0.5c-0.8,1.2-2.3,2.7-3,3.5c-0.7,0.7-1.8,1.2-2.5,1.2s-4.8-1.5-5.5-1.2s-1.7,2.2-2.2,3  s-1.5,3.5-1.8,4c-0.3,0.7-1.7,3.7-2.2,4c-0.5,0.5-2.7,0.8-3.5,0.5s-3.7-1.3-4-1.5c-0.5,0-1.7,0.8-2.5,1.8s-1.7,3-2,3.3s-1.3-0.5-2-1  s-1.8-1-2.5-0.5c-0.7,0.7-2.5,2.3-3,3.2c-0.5,0.8-1.2,3.2-2,3.2s-2-0.8-3-1.3s-1.5-0.2-2.7-0.5c-1.2-0.5-2.8-1.2-3.2-1.5  c-0.3-0.2-1.3-1-1.3-1s0.7,1.3,1,2.2c0.3,0.8,1.2,2.5,0.8,2.8c-0.3,0.3-2.5,1-3.5,1.5c-1,0.3-2.2,1.2-2.5,1.7s-0.2,2.2-0.7,3  c-0.5,0.7-2.3,2.5-3.2,3s-2.7,1-3,1.3s-1.3,1.8-1.5,2.2c-0.3,0.5-2.2,3-2.5,3.5s-1.8,2.5-2.3,3.2s-1,2.3-0.3,2.8s1.7,3.3,1.8,3.8  c0.2,0.7-0.8,2.3-1.3,2.2s-1.8-1.5-2.3-1.3s0,0.5-0.3,1.5c-0.3,0.8-0.5,2.3-0.8,3.3c-0.3,0.8-0.2,1.5-0.8,1.5  c-0.5,0.5-1.3,0.7-3.7,1c-1.2,0.3-5.3,0.7-6.5,0.8c-1.2,0.2-1.7-0.2-2.2-0.7c-0.2-0.2-0.7-1-1.2-1.8s0.5-1.8-8.5-3.5l-6.2-4.3  c0,0-0.7-0.8-2-1c0,0-11.8,1.2-9-5.5c0,0,2-5.2,2.7-5.3c0,0,3.8-2.8,4-3.5c0,0,2.8-2.7-0.2-3.5c0,0-3-0.8-2.8-2.7l-0.8-3.8  c0,0,0.5-0.8-3.7,1.7l-7.7,6.2c0,0-1.3,0.8-1.5,2.2l-1.3,10.7l-0.8,9c0,0-1.3,6.5-8.1,4.5c0,0-0.6-1.1-5.6,2.4  c0.8-0.1-8.3,1.9-8.9,1.5l-4.5,1.8c0,0-4.7-2.5-5.5-4.2c0,0-1.3-2.5-6.3-3.7c0,0-5.5-3.3-2.7-6c0,0,2.7-1.7,1.5-3.8c0,0-2.5-3,1-4.7  c0,0,4.2-2.2,4.5-2l3.5-4.8c0,0,5.7-3,2.7-6.5c0,0-3.2-3.7-0.8-5c0,0,4-2.5-1.2-1.2c0,0-12,2.3-13,4.2c0,0-3.7,4.7-8.2,1.8  c0,0-3.7-1.8-5.3-1.5c0,0-8.8,2.5-9.2,2.2c0,0-1.7-0.2-0.2,1.5c0,0,3.8,6.2-1.2,7c0,0-8.2,1.5-10.8-4.5c0,0-0.2-2.7-3.5-1.8  c0,0-5-0.8-1.7-6c0,0,3-5.2-0.7-3.3c0,0-4.3,3.7-10.2-4.8c0,0-5-4.7-8.5-4.8c0,0-6.3-0.3-2-2.8l7.2-6c0,0,5-6.5,5-10.7  c0,0,0.2-4.7-7.3-3.8c0,0-4,0.3-5.8,2.3c0,0-1,1.2-4.5,0.3c0,0-4.2,1.3-5.5,3.5c0,0-1.3-1.5-1.8-0.3c-0.5,1.3-2,4.5-2,1.8  c0,0,0.2-4.5-2.5-0.5c0,0-4.8,3.8-3-1.5c0,0,2-2.5,0.2-5.2c0,0-1.8-3.3-2.3-3.7c0,0-12-7.8-9-9.8c0,0,5.8-1.7,3.7-6  c0,0-1.8-5-2.8-5.7c0,0-3.3-6.3-4.7-15.2l23.5,5.3c0,0,16.2,2.3,29,0.2c0,0,21.7,1.8,22.7,3.2c0,0,3.8,11,15.3,9.2  c0,0,10.8,5.3,12.8,6.7c0,0,12.5,0.2,13.3-0.2c0,0,2.2-1,1.7,4.5h7.5l5.2-3.3l14.8-6.2c0,0,20-7.3,20.7-8c0,0,7.2,0.7,8.3,0.3  c0,0,9.3-1.7,11.2-1c0,0,12,0.5,14-1.2c0,0,8.7-4,10-3.8c0,0,8.2-4.7,8.8-6.8c0,0,1.8-5.7,14-11.8c0,0,9.2-4.2,4.2-7.8  c0,0-11.7-8-6.3-15.5c0,0,4-12.3,10.3-9.3L676,326c0,0,1.8,0.3,3.7-0.7c0,0,2.5-0.8,3.5-0.8c0,0,5.2-1.8,9-8c0,0-0.3-7.5,14.2-5  c0,0,8.2-2.5,13-9.8c0,0,0.8-13.5,12-12.8c0,0,4.2-0.5,4.7-4.5c0,0,0.2-2.2,4-1.2c0,0,5.7-1.2,6.5-3c0,0,2.2-1.5,5.5-1  c0,0,5.8-2,8-1.2c0,0,17.5,5,11-6.8c0,0-2.5-5.3-11.7-11.3c0,0-4.2-2.5-5.5-2.2c0,0-5.2-4-5.2-4.3c0,0-6.5-2.8-10.7,1.7  c0,0-6.7,8.7-8.8,5.7c0,0-5.3-4.2-7.2-2.5c0,0-3.5,2.5-7,1.7c0,0-2.2-0.5-3.3,1.8c0,0-5.3,2.7-6.3-0.7c0,0-5.3-5.3-2.3-6.2  c0,0,3.8-1.8,2-5.7c0,0-0.8-2.7,1.8-4c0,0,2-3.7,1.8-5.5c0,0,1.3-7.3,2.8-8.7c0,0,3.5-12.7,5.7-12c0,0,6.8,2.8,8.3,1  c0,0,1.7-2,8,2.3c0,0,2.3-3.2,4.8-4.2c0,0,8-7.2,11-6.3c0,0,1.8-0.3,3.2-2.3c0,0,3-4.3,0.7-4.3c0,0-5.7-0.7-1.8-4.7  c0,0,3.3-3.5,2.3-5.8c0,0-0.8-2.7,1.2-3.7c0,0,2.8-1.3,0.5-3.8c0,0-1.2-1.8,1-1.2c0,0,1.8-0.3,1.2-3.5c0,0-0.3-2.7,2.8-6.2  c0,0,9.2-9.8,6.8-11c0,0-3.8-1.2-2.7-4.2c0,0,0.2-6.5-7.3-3.2c0,0-2.3,2-2.2-1c0,0,0-2.2,2.3-3.3c0,0,3.2-2.3,6.8-9  c0,0,1.5-1.2,3.3-1c0,0,5.3-0.8,5.8-2L773.7,142.7z" id="path5" stroke="#FFFFFF" name="内蒙古" stroke-miterlimit="10"/>
<path fill="#E3E3E4" stroke-linejoin="round" d="M416.7,366.2c0,0-5-1-6.5-0.5  c0,0-4.3,0.5-6.5-0.5l-1.2,1.8c0,0-5,1-5.2,3.2c0,0-0.2,2.7,2.5,5.7c0,0,0.7,1.3-0.8,2.2c0,0-1,0.8-0.7,2c0,0,0.2,1.7-3.5,2.5  c0,0-6.5,1.3-6.8,1c0,0-2,0-3.3,3.7c0,0-0.7,2.7-2.7-0.8c0,0-1.3-3.5-5.5,1.2c0,0-1.5,2.3-4.3,1.2c0,0-2-1-9.3,4.8  c0,0-4.8,4.2-5.5,6.3c0,0,0.2,6-7.5,5c0,0-8.5-1.5-9,1.2c0,0-1,5.2-3.7,8c0,0-1.7,3-1.5,4.7c0,0-1.2,5.3-3.3,7.5c0,0-4.5,4.8-5,6.2  c0,0,0.5,2.5,0.5,2.3c0,0,1-0.7,1.7-0.5c0,0,10.7-1.3,11.3,1.5c0,0,0.3,4.8,6,4.2c0,0,5.7,0.3,3.7,2.5c0,0-2.3,0.2,2.8,2.2  c0,0,5.3,0.5,6.2,0.8c0,0,2.2,0,2,3.2c0,0,0.3,6,5.8,5.2c0,0,2.5-1.5,5.8,0.8c0,0,4.2,4,8.8,1.2c0,0,2.3-1.5,5.8,2.5  c0,0,4.2,3.3,5.7,1.3c0,0,1.7-2,3.7-0.3c0,0,2,1.7,2.5-1.5c0,0,0.2-7,3.5-4.7c0,0,3.5,2.2,3.2-3.2c0,0-1.7-10.7,1-9.5c0,0,3-1,6.8,2  s0.2,0,0.2,0s6.8,5.2,7.2,5.7c0,0,3.5,2.2,6.3-1.5c0,0,2.2-3,3.7-0.7c0,0,0.7,1.2,3.5-0.7c0,0,2-1.7,5,1.2c0,0,7.2,6,9.8,10.2  c0,0,7.8,6.2,7.7,3.8c0,0-1.7-4.5,2.7-1.8c0,0,10.2,7.8,10.7,8.2l3,1.3c0,0,8.8,5.8,9,6.5c0,0,4.7,5.3,5.7,1.5c0,0,2.8-3.3,3.3,0  c0,0,0.2,3.8,3.2,5.3c0,0,1.3,0.2,7.3,12.7c0,0,1,1.3,0,3.5c0,0,0.2,1.7,0.7,2.3c0,0,0.2,3.7,2.5,5c0,0,3.8,2.5-2,8  c0,0-1.3,2.3-1,3.7c0,0,0.8,2.5-3,3.7c0,0-7,1-6,3.2c0,0,4,4.2-2.5,7.2c0,0-7.3,3-3.5,8.3l4.2,1.7c0,0,2.7,2,1.2,3c0,0-4,6-12.5,3.8  c0,0-6.3-2.2-7.2-3c0,0-10.3-3.8-8,3.3c0,0,1.3,3,2.8,3.5c0,0,4,2.5,4.2,4.3c0,0-0.5,5.7,4.2,3.7c0,0,0.3-2.2,1.3-2c0,0,2.5,0.5,3,2  c0,0,0.8,3,0.8,3.2s0.2,0.3,0.2,0.3s0.8-2,1.8-2.3c0,0,2.7,0,2.3,2c0,0-5.2,9.3,1.5,5.2c0,0,2-2.2,2.5-1c0,0,0.8,2,3-1  c0,0,2.3-4.7,2.3-6c0,0-1.2-2.7-1.5-3c0,0-1.2-2.3,0.5-2.8c0,0,1.5-1.3,1.5-2.8c0,0-0.2-1.3,1-1.2c0,0,2-0.2,2.8-2.5  c0,0,0.7-1.7,2.7-1.3c0,0,6.5,0,6,3l0.5,4.8c0,0,0,2.7,1.8,2.7c0,0,3.5,0.5,4.5-0.7l1.7,2.3c0,0,0.5,1.7,4.3,0.2  c0,0,2.3-2.2,3.7-0.1c1.5,2.2,1.7,3.6,4.3,5c0,0,3,1.1,2.2,4.1c0,0,0.2,2.2-0.4,3.4l-0.4,3.4c0,0,4.4,3.8,5.1,3.8  c0,0,7.2,3.2,10.5,1.3c0,0,4.6-1.9,5.6-1.8c0,0-0.8-1.8,0.5-2.3c0,0,8.2-1.7,6.3-6c0,0-0.3-1.8-1.8-2.5c0,0-2.8-1.3,0-4  c0,0,3.3-3.5,6.3-2.3l4.3,0.8c0,0,2.5,1.3,1.7-2.8c0,0-2.8-5.5-0.8-7.3c0,0,1-1.2,0.7-2.8c0,0,0.3-1.8,2.3-2.2c0,0,3.2-0.7-0.5-2.8  l-5-2.8c0,0-1.2-0.5,0.2-1.2l3-3c0,0,1-0.7,0.3-3c0,0-2-4.3,5.5-3.8c0,0,6.3,3.7,6.7,3.8c0,0,2.8,1,4.8,0.2l4.8-1.3  c0,0,1-1.7,0.5-2.3l-3.3-4.5c0,0,3.5,0.7,4.5,1.2c0,0,3-0.7,3.5-0.7s4.8,0,5.3,0.2c0,0,5.8-2,5.3-4.7c0,0-3.2-4.7-2.3-6.5  c0,0,5-5.8,1.5-12.5c0,0-2.5-0.7-3-0.3c0,0-2.3-0.5-2.3-2c0,0-1.2-2.3-3.5-1.3c0,0-1,0.5-3-1c0,0-5.8-5.2-6.8-4.3  c0,0-3.5-0.1-4.5-3.1c0,0,0.8-4.3-3.6-4.1c0,0-1.2,1-3.5,0.3c0,0-1.5,0.2-1.6,0.2s-2.1-0.2-2.1,0.5c0,0,0.1,1.1-1.4,1.1  c0,0-2.8-0.3-0.4,2.3c0,0,2.9,2.5,0.4,3c0,0-1.7-0.1-1.6,2.9c0,0-0.5,2.4-2.2,3c0,0-2,0.7,0.3,2.5l1.5,2.8c0,0,0.7,1.2,2.5,1.3  c0,0,3.7,0,4.2,2.3c0,0,1.7,4.3-3,7.8l-4,1.2c0,0-1,0.2-0.7,3c0,0,0.3,6.3-2.2,6.8c0,0-1.7,1.2-1.8-0.3c0,0-0.2-3-2.5-3.5  c0,0-3.3-0.5-6.2-4.3c0,0-0.7-2.3-4-1.5c0,0-5.5,1.2-1.8-6l2.7-7.2c0,0-3.9-2.5-5.8-3.6c0,0-1.6-2.1,0.1-3.4c0,0,3.5-0.5-2-5.3  c0,0-5.2-6-7-5.2c0,0-1.5-0.5-1.5-2.3c0,0-0.5-2.3-3-2.5l-3.1-1c0,0-5.1-2.8-5.8-4.6c0,0-4.1-3.4-6-3.3c0,0-6-3.5-2.3-6.3  c0,0,2.3-1.4,1.1-3.5c0,0-2.3-2.7,0.7-4.6c0,0,4.7-2,4.8-2.1c0,0,1.8-2.9,2.9-4c0,0,6-4.1,3.6-6.8c0,0-3.2-3.6-1.5-5.1  c0,0,4.4-2.5,0-1.7c-4.3,1-11.9,2.6-12.8,3.6c0,0-2.4,2.4-3.8,3c0,0-1.7,1.1-4.6,0l-4.2-1.7c0,0-0.6-0.6-3.8,0.4l-6.7,1.6  c0,0-2.7-0.8-0.5,1.7c0,0,4.8,7.9-5.2,6.9c0,0-4.7,0.2-7-4.6c0,0,0.1-2.5-3.5-1.8c0,0-4.6-0.7-2.1-5.3c0,0,3.8-6-0.3-4  c0,0-1.7,2.1-6.2-0.5c0,0-6.6-7.2-8.7-7.7c0,0-2.2-1.3-5.4-1.5c0,0-3.8-0.5-0.4-2.6c0,0,6.6-5.7,7.2-6c0,0,4.2-5.5,4.9-9.6  c0,0,1.6-6.4-8.4-4.7c0,0-3.6,0.7-4.8,2.3c0,0-1.2,0.9-4.3,0.2c0,0-4.2,1.4-5.5,3.5c0,0-0.9-0.7-1.4-0.7c0,0-0.8,1.4-1.7,2.9  c0,0-0.8,1.8-0.9-2.2c0,0-0.2-1.8-2.4,1c0,0-4.3,3.4-3.3-0.6c0,0,1.9-2.9,1.1-4.6l-2.9-5.1L422,397c0,0-3.9-2.8-0.1-4.5  c0,0,3.5-1.4,2.3-5.4l-1.8-4.2c0,0-3.2-5.6-3.2-6.8l-1.8-6.1L416.7,366.2z" id="path6" stroke="#FFFFFF" name="甘肃" stroke-miterlimit="10"/>
<path fill="#E3E3E4" stroke-linejoin="round" d="M581.5,487c0,0,3.5-0.7,1.8-2.8  c0,0-3-1.8-1.3-3.3c0,0,1-1.8,1-3.7c0,0,0-2.2,2-2.8c0,0,4.5-2.5,4.8-2.8c0,0-3.2,0.5-10.3-6.3c0,0-4-0.3-6.3-0.3c0,0-7,0.5-3.2-7  c0,0,1.3-4.2,4.5-5.3c0,0,4.5-4,1.5-5.3c0,0-3.5-0.7-3.3-2.3l-0.8-3.8c0,0-0.2-0.7-1,0c0,0-4.7,2.3-6.7,4.7l-3.7,2.8  c0,0-1.5,1-1.7,2.5c0,0-1.3,8.5-1.3,9.5c0,0-0.7,9.5-0.7,9.8c-0.2,0.5-1,7-8.5,5c0,0-3.3,0.5-5.3,2.5c0,0-6.2,1.8-8.9,1.5l-4.5,1.8  l3.1,1c0,0,2.1,0.1,2.9,2.1c0,0,0.7,3,1.7,2.7c0,0,3.4,1,3.9,2.2l5.5,5.8c0.7,1.5,0.6,2.3-0.6,2.6c0,0-1.6,1.1-0.1,3.3l5.8,3.7  l-2,5.4c0,0-5,8.6,1.1,7.8c0,0,3-1,4,1.5c0,0,2.6,3.3,6.6,4.4c2.3,1.1,2.1,4.3,2.6,4.1c0,0,1.6,0.1,2.7-1.6c0,0,0.8-0.6,0.8-6.5  c0,0-1.3-2.7,4.8-3.4c0,0,2.9-1.1,3.3-5.6c0,0,0.8-4.8-5.4-4.7c0,0-1.1,0.4-3.1-3.9c0,0-0.7-0.4-1.1-1.4c0,0-1-0.5,1.8-1.7  c0,0,1.6-1.9,1.3-3.1c0,0,0-2.1,1.5-2.2c0,0,1.7-0.2,0.5-1.8c0,0-3-3.5-1.2-3.5c0,0,2,0.3,2-1.3l3.5-0.5c0,0,2.5,0.5,3.8-0.3  C579.7,486.5,581.5,486.3,581.5,487z" id="path7" stroke="#FFFFFF" name="宁夏" stroke-miterlimit="10"/>
<path fill="#E3E3E4" stroke-linejoin="round" d="M620.2,846.2c0,0-0.3-2,3.5-3.2  c0,0,5.5-4.7,7.5-5.3c0,0,2-1.8,0-1.3c0,0-4.2,1.8-0.7-1.8c0,0,1.8-2,5.7,0.5c0,0,1.2,0.8,1.5-2.2c0,0,1-1.5,3.7,0  c0,0,2-1.5,2.7,0.3c0,0,2.3-2.3,3.7-0.5c0,0,2.3-4.8,5.5-3c0,0,1,1.3,3-0.5c0,0,3,0.2,4.2,3.3c0,0-0.8-3.3,0.5-4.8  c0,0,2.5-0.2,3.3,2.7c0,0,3.3-1.3,4,2.5c0,0,0.3,3.5,1.3,3.8c0,0-1.5,1-2.2,2.5c0,0-2-3.7-3-1.2c0,0-0.3,5-2.2,4.3c0,0,0,4.8-2,5.2  c0,0,1,4.2-2,5v1.2h2.2c0,0-2.5,4.2-3.2,3.8c0,0-2.5-1.3-2.5,0.7c0,0-4,1.3-4.2,4.7c0,0-1,1-1.3-0.8l-1.7,1l-3.5,0.5l-0.7,3.8  c0,0-5.3-1.3-7-1.3c0,0-6.3,0.2-6.3-1.5c0,0-2.3-1-2.8-0.2c0,0-2.7-0.2-3-2.3c0,0-5.5,0.8-3.8-3.3c0,0,0.8-2.3-1-3.8  c0,0-2.7-3.3,0-5.7c0,0,0.8-0.8-0.7-2C618.5,847.7,617.5,846.7,620.2,846.2z" id="path8" stroke="#FFFFFF" name="海南" stroke-miterlimit="10"/>
<path fill="#E3E3E4" stroke-linejoin="round" d="M852.8,742.5v2.3c0,0,1,1,0.5,1.7  c0,0-1.2,3.2-0.8,3.3c0,0-0.5,2.8,2,2.7c0,0,2.8,5.7,3.3,6.3c0,0,0.3,4,3.7,3.2c0,0,8.5,2.7,7.7,10.5c0,0,2-1.2,2.8,0  c0,0,1.3,1,1.5-1c0,0-4-13,5.8-22c0,0,0.5-5,2-6c0,0,0.7-8.3,0-12.5c0,0-0.2-7.5,3.5-12c0,0-4.7-6.5,0.5-10.5c0,0-0.2-3.8-5-2  c0,0-3.5-0.2-3.8-2.7c0,0-4.2-0.7-3.5,3c0,0-5.8-0.3-7.7,6.5c0,0-3.3,5-4.7,8l-0.5,1.8l-2.2,2.7l-0.2,3c0,0-1.5,1.5-2,3.7  c0,0-1.3,3-1.8,3l0.3,1.2C854.5,737,851.5,739,852.8,742.5z" id="path9" stroke="#FFFFFF" name="台湾" stroke-miterlimit="10"/>
<path fill="#E3E3E4" stroke-linejoin="round" d="M774.3,143.5c0,0,1.5-2,7.2-2.2  c0,0,1.3-3.5,14.9-5.1c0,0,4.7,0.3,5.5-1.3c0,0,0.8-0.5,4,0.8l13.4,4.7c0,0,1.8,0.5,3.3-0.8c0,0,2.7-2.2,5-0.7c0,0,4,0.7,4.7,0.5  c0,0,1.7-0.2,1.3,2.3c0,0-0.3,2.8,1.3,1.5c0,0,3.7-1.5,5,1.5c0,0-2.8,2.3-0.3,2.7c0,0,2.3-0.2,4.7,2.7c0,0,1.7,1.7,1.7,2.8  c0,0,0,1.5,2.2,1.5c0,0,2,0,1.5,1.8c0,0,0.2,1.5,2.5,3.8l2.5,3.2c0,0,1.2,2.7,2.3,3.5c0,0,1,0.8,0.3,1.7c0,0.2-1,1.5,1,1.5  c0,0,1.7-0.2,1.2,1.2c0,0,0.2,1.8,2.3,3.2c0,0,5.8,3.9,7.3,10.1c0,0,2.8,3.9,4.3,5.1c0,0,0.7,2.2,0.3,3.8c0,0-0.2,3.2,3.2,4.6  c0,0,6,3.2,8.8,2.3c0,0,1.8-0.2,6.2-2.7c0,0,2.3-1.2,2.3,0.7c0,0,0,1.8,1.8,1.3c0,0,1.7-0.3,2,0.8c0,0,0.5,1,2.3,0c0,0,2.7-3,5-1.5  l10.7,6.4c0,0,2,1.2,5-0.2c0,0,4.7-0.8,4,1.3c0,0-2.7,3.2,0.7,5.1c0,0,5,2.5,3.5,6.6c0,0-1.3,2.5,2.7,5.9c0,0,4.7,4.4,7.2,2.3  c0,0,2-1.7,4.7-1c0,0,5,0.5,6.8-1l6.2-3.7c0,0,1.7-0.8,1.8-2c0,0,0.5-2.7,1.8-3.2l4.5-4.7c0,0,2-1.5,3.3-1.5c0,0,6.8-2.8,10.7-5.9  c0,0,3.3-3,5-3.2c0,0,2.3-0.7,3.2-1.5l3.3-3c0,0,0.2,2.5-1.2,4.4c0,0-3.2,6.9-1.3,8.1c0,0,4.5,3.5,2.5,7.4c0,0-0.5,2.2-4.7,5.4  c0,0-2.2,1.8-0.5,3c0,0,1.2,1.7-0.2,5.2c0,0-0.7,2.5,0.2,4.2c0,0,0.3,2.3-0.2,3.9c0,0,0.5,3.3,1.3,4.4c0,0,0.5,0.7-0.7,3.5  c0,0-1.2,2.7-0.3,3.8c0,0,1.3,1.8-0.3,3.2c0,0-1.5,2-1,4.1c0,0,0.5,2.2-1.7,4.2c0,0-2.3,2-1.3,4.1c0,0,3,3.8,0.5,6.2  c0,0-6.7,1-8.5,0.3c0,0-7.7-0.8-10.2-2.2c0,0-1.7-0.3-1.7,1.5c0,0,0.7,6.6-3.8,8.9c0,0-2.2,1.8-3.7,0.8c0,0-3-0.3-1.7,2.7  c0,0,4.8,6.1,5.5,7.4c0,0,4.3,8.7,4.3,10.4c0,0,1,4.7,2,5.4c0,0,2.2,3,1.3,4.6c0,0-1.5-1.2-4-0.5c0,0-3.7,0.5-4.2,0c0,0-2-2-3-1.8  c0,0-4.5,0.5-5.5-1.5c0,0-0.5-2.7-0.5-3c0,0-1-3.3-1.7-3.7c0,0-1-0.5-3,4.2c0,0-0.5,1.7-2.7,0c0,0-1.7-1.8-3.5,0.8  c0,0-0.8,1.5-3.5,2.2c0,0-3.3,0.8-3.2,3.2c0,0,0.8,3.5-2.2,4.1c0,0-2.2,1-4.8-2.2l-5.2-6.2c0,0-4.5-2-3-5.4c0,0,1.2-4.2-2.3-2.2  l-3.7,3.9c0,0-0.8,0.7,0.3,2.7c0,0,1.8,2.2,0,3.3c0,0-2,1.8-4-0.7l-2.2-2.3c0,0-3.5-5.4-4-5.6c0,0-2.8-1.3-4.3-0.8  c0,0-4.5,2.2-4.2-0.3c0,0,0.5-4.7-0.7-5.4c0,0-0.5-2-1.3-2.2c0,0-1.3-1.3-2-1.7l-5.5-1.2c0,0,0.2-0.7-5,2.7c0,0-3.7,1.2-7.2-1  c0,0-2.2-2.3-2.8-3.8c0,0-0.2-1.5-2.3-0.3c0,0-1.7,0.5-2.3,2c0,0-1.3,2.3-5,0.8c0,0-2.3-2.8-4-0.3c0,0-0.2,2.7-6,2.5  c0,0,0,0.5-4.7-2.8c0,0-3.5-0.7-2.7-2.5c0,0,1.3-1.2-0.7-3c0,0-1.8-1.5-0.8-3.3c0,0,1.2-1.8-1-2.8c0,0-1.3-1.3-2-1  c0,0-3.7,2.8-5.3,2.7c0,0-1.3,0.2-1.7,0.3c0,0-3-1.7-4.2-1.5c0,0-4.5-3-2.7-5.1c0,0,0.3-1.5,4.7-1c0,0,3.8,0.3,3.5-3.2  c0,0,1.3-3-0.3-2.7c0,0-2,0.7-2.2-0.2c0,0-1.8-3.2-2.8-1.3c0,0-0.2,0.7,0.2,2.2l-0.8,1c0,0-1.8,2.3-3.3,1.5c0,0-2-0.8-2.8-3.2  c0,0-1.7-2.3-4.2-3.5c0,0-4.3-2.5-3.2-6.2c0,0-0.2-0.7,5.5-5.4c0,0,2.2-2.7,2.5-3.2c0.3-0.3,5.8-6.2,5.8-6.2l4.8-6.6  c0,0,2.7-2.3,3-2.5c0.3,0,1.3,0,1.7,0.8l1.3,4.6c0,0,2,1.7,2,2c0.2,0.3,1.2-2.5,1-3.9c0,0-1.8-5.6-1.2-8.1c0,0,0.2-8.6,1.5-9.4  c0,0,2-3,4.2-3.2c0,0,1.8,0,0.7-4.1l-1.8-3.5c0,0-0.5-1,0.3-1.5c0,0,1-0.7,0.3-2.7c0,0-1.8-6.2-0.5-7.2c0,0,2-2,1.7-3.8  c0,0-0.5-2.8,0.3-3.5c0,0,1.7-1.2,1.2-3.8c0,0,0.3-4.4,1.5-5.1c0,0,2.3-3-0.8-5.1l-4.3-3.3c0,0-3-2.5-6.3-3.5c0,0-0.7-0.3-4,3.5  c0,0-1.5,2.7-4.8,3c0,0-6.7,2.5-7.2,2.7c0,0-7.3,1.2-7.7,1.3c0,0-6.5,2.8-8.2,0.8c0,0-5.5-7.4-5.5-9.1c0,0-2-4.2-0.8-5.7  c0,0,1.7-2-0.5-2.8l-7.7-3.7c0,0-2.5-1-2.8,1c0,0,0,5.7-3.8,3.7c0,0-4.5-3.5-6.7-3.8c0,0-2.3,0.3-1-1.3c0,0,1.3-1.2,1.3-2.2  c0,0,0.5-2.5,1.3-2.8c0,0,4.2-2.2,2.5-5.1c0,0-1.2-2-2.7-2.7l-2-0.8v-0.1H774.3z" id="path10" stroke="#FFFFFF" name="黑龙江" stroke-miterlimit="10"/>
<path fill="#E3E3E4" stroke-linejoin="round" d="M822.3,276.8c0,0,1-0.3,3.5,1.5  c0,0,0.8,0.2,1.3-0.2c0,0,0.5-0.5,1.5-0.3c0,0,2.5-0.7,2.7-1.2c0,0,1.2-1,1.5-1.2c0.3-0.2,0.8-0.8,1.8,0.2l1.5,1c0,0,1,0.5,0.5,2  c0,0-0.7,2,0.5,3.5c0,0,1.8,1.5,1,3c0,0-0.7,1.7,1.5,2.3c0,0,4,2,4.5,2.7c0,0,0.7,1,3.2,0.5c0,0,2.5-0.3,3.2-0.8  c0,0,1.3-2.7,2.7-2.7c0,0,1.5,0,2.2,1.2c0,0,2.8,1.7,4.2,0.2c0,0,1.8-2.8,3.5-3c0,0,1.7-1,2.3,0.7c0,0,1.7,4,5.2,4.5  c0,0,3.7,1.5,6.9-1.3c0,0,2-2,4-1.2l4.5,1.2c0,0,2.2,1.7,2.3,2.2c0,0,1.3,2.3,1.5,3.2l-0.2,3.7c0,0-0.2,1.5,2,0.8c0,0,4.2-2,6.4,0.2  c0,0,3.8,5.3,4.2,5.7l3.3,3.2c0,0,1.2,1,2.3,0c0,0,2.2-0.8,1.2-2.7c0,0-1.8-2.3-1-3.5l4.2-4.5c0,0,2-1.2,2.2,0.8  c0,0-0.7,3.2-0.5,3.7c0,0-0.3,1.5,3.2,3.2l4.7,6c0,0,3,4.5,6.6,2.2c0,0,1.5-0.8,1-4.7c0,0,0.3-1,2.2-1.8c0,0,4-1.3,4.5-2.8  c0,0,1-2.2,3.2-0.8c0,0,1.7,2.2,2.8,0c0,0,1.7-3.8,2.5-3.8c0,0,0.7-0.7,1.2,0.8c0,0,1.7,4.8,1.7,5.8c0,0,1.5,1.3,3,1.2  c0,0,3.2,0,3.8,0.7c0,0,1,0.5,1.2,1c0,0,1,0.7,1.7,0.3c0,0,4.7-0.2,5.3-0.2c0,0,0.8-0.2,1,0.5c0,0,0,5.2,0.3,5.5  c0,0,0.3,2.8-1.7,4.3c0,0-1.5,2.5-5.2,2.7c0,0-1.8,0.3-0.8,2.3l2.7,4.8c0,0,0,0.3-2-0.2c0,0-4.7-0.5-5.3-3c0,0-1.5-6.2-4.7-5.8  c0,0-4-0.5-3.8,1.2c0,0-0.2,5.8,0.2,7.3c0,0,0.7,2.8,0.2,3.7c0,0-1.7,2.2-4.7,1.5c0,0-1.5,0.5-2,4c0,0-1.2,4.2-4.8,6.3  c0,0-5.5,2-6.6,1.5c0,0-4.8-1.2-5-0.7c0,0,0.7,2.5,0.7,4.7c0,0,1.3,2.8,2.5,3.8c0,0,2.7,2.7,2.5,3.3c0,0-0.7,2.7-2.2,3.5  c0,0-4.2-0.7-5,0.7c0,0-0.7,0.3-1.5-0.2h-1.7l-3.8-0.5c0,0-3.7,0.8-4.5-0.2c0,0-4-4.7-4.7-3.7c0,0-3.7,1.8-3.7,4.2  c0,0,0.7,1.7-1,3.5c0,0-4,6.5-5.8,11.5c0,0-0.2,0.7-1.2,1l-2,1c0,0-2.8-1.3-2.2-2.5c0,0,2.2-2.8-0.2-4c0,0-3.5-1.5-5-4.2  c0,0-2.5-3.3-3.3-4c0,0-1.7-1.7-1.7-3.5c0,0-1.2-3.2,0-2.2c0,0,2.8,2,0.7-2.3c0,0-1.5-2.2-3-2.8c0,0-2-3.2-2.8-4.3l-3.3-3.7  c0,0-2.8-2.7-3.3-5.5c0,0-1.2-4.5-3.2-2.3l-0.7,3.7c0,0-0.2,1.8-2,2c0,0-2.3,0.7-2.5-2.2c0,0,0.5-3-3.5-4.3c0,0-5.8-3-6.6-3.3  c0,0-1.3-0.5-2.7,0.7c0,0-6.8,2.3-6.6-0.5c0,0,0-2.2,2-3.3c0,0,2-1.3-1.2-4.7c0,0-2.7-1.8-2.8-4.3c0,0-1-1.8-1.8-2.2  c0,0-1.2-0.7-3.7-5c0,0-0.3-1-1.5,1c0,0-3.2,4.2-5.2,4.5c0,0-4,2.5-4.5,1.8c0,0-0.7,0.3-0.7-3.2c0,0,0.3-0.5-2-1.2  c0,0-3.2-1-2.7-4.2c0,0-0.2-2.2-1.3-3.8c0,0-1.2-1.3,0-3.7c0,0,2-5,0.2-6.5l-3.2-3c0,0-1.2-2.5-2.2-2.3c0,0-1.3,0.5-2.3,0.2  c0,0-3.3-0.5-1.8-1.8c0,0,1.8-1.2,2-2.7l0.2-3.7l2.5,2.5c0,0,4.3,1.7,4.7,2c0,0,0.7,0.8,1.3-1c0,0,0.5-2.3,3.2-0.5  c0,0,2.8,3.8,3.8,0.5c0,0,0.7-2-0.3-3.5c0,0-1.2-2.2,0.7-2.8c0,0,3.2-0.5,3.5-1.7c0,0,2-1.5,1.2-2  C824.4,278.3,822.1,277.2,822.3,276.8z" id="path11" stroke="#FFFFFF" name="吉林" stroke-miterlimit="10"/>
<path fill="#E3E3E4" stroke-linejoin="round" d="M889.3,378.2c0,0-4.3,3.5-4.5,4.2  c0,0-2,2.2-4.2,2.2c0,0-3.7,0.2-4.2,5.2c0,0,0,1-2.7,3.3c0,0-3,2.3-3.8,4.3c0,0-2.8,2.7-1.5,6.7l0.3,0.5c0,0-0.8,0-1.7,1  c0,0-2.8,0.2-4.5-0.7c0,0-4.2,0-4.7,0.8c0,0-2.2,2.3-4,1.7c0,0-1.7-0.7-1.5,1c0,0,0.3,2-2.3,1.8c0,0-1.3-0.5-1.5,0.7l-3,1.8  c0,0-6.5,3.7-6.8,4.5c0,0-2,1.3-2.3,2.8c0,0-0.5,2.2-2.2,2.2c0,0-1.2-0.2,0,1.8c0,0,0.8,2.2-1.3,2.5c0,0-1.2-0.3-1.3,1  c0,0,0,2.2-1.8,0.7c0,0-1-1.3-1.2,0.7l-2.5,3.7c0,0-3,1.3-3.3,1.5c0,0-2,1.3-3.2-0.2c0,0-1-2.8-0.5-3.3c0,0,2.3-1.7,2.5-2  c0,0,2.5-0.8,3.2-0.7c0,0,2.3-1.3,2.2-1.8c0,0-2.2-2.3-0.2-3.7c0,0,2.2-1.5,2.7-1.5c0,0,1.7-2.2-0.3-1.5l-3.7,1.3c0,0-2,0.7-2-2.7  c0,0,0.2-2.5-0.7-3.3c0,0-1.8-2.5,0.2-4.2c0,0,2.5-1.5,3.2-1.5c0,0,0.7-0.8,0.8-2.3c0,0,0.3-1.5,1-1.5c0,0,0.8-2.7,1.3-2.7  c0,0,1.8,1.5,1.8-1c0,0-0.5-3.2,1.2-4.5c0,0,1.3-1-0.3-1.8c0,0-3-0.7-3-2.2c0,0,0-0.7-1.3-0.8c0,0-2-0.7-2.3-2.7c0,0-1.8-2.3-3-1.3  l-1.8,1.3l-4,0.8c0,0-2.8-0.8-3.5,0l-1.5,2.3c0,0-2.2,0.2-2.8,1.5l-1.5,3.5c0,0-1.8,1.7-2.2,2.7l-1.5,1.5c0,0-0.3,0.7,1,1.2  c0,0,0.5,0.5-0.5,1.2c0,0-0.7,0.7-0.8,2.2c0,0-0.7,2-4.2,2c0,0-1.5,0.3-2.3,1.8c0,0-2.2,0.8-2.7,1.8c0,0-0.7-3.2-3.5-4.2  c0,0-3.8-1.3-3.5-5.5c0,0-3,1-4.7,0.7c0,0-2.8-3.8-4.5-3.5c0,0-5,0.5-3.7-3.5c0,0,3.7-1.7,3.3-4.3l1.3-4.7l1.2-0.5l0.8-5.7l-1.5-6.8  c0,0-3.5-7.8-0.3-8.7c0,0,5,0.2,9.3,6l2.8,6.2l3.5-5.3c0,0,4.5-5.7,6.2-6.5c0,0,6.7-2.2,9.3-5.3c0,0,1.2-1.7,6.5-2c0,0,2.5,0,3-3  c0,0,0.8-4.3,3.2-3.3c0,0,4,1.2,4-1c0,0-1.5-3.3,2.2-2c0,0,5.3,1.7,8-0.8c0,0,2.2-2.5,2.3-3.7c0,0,2.3-3.3,3.8-3.7  c0,0,1-0.5,1.5-2.5v-4.7c0,0,1.2-1.5,2.7-0.7l8.8,4.7c0,0,1.2,0.7,1.2,3.3c0,0,0,2,2,1.8c0,0,1.7,0.2,2.2-2c0,0,0-5,2-4.3  c0,0,0.5-0.7,3.7,7c0,0,4.8,4.8,5,5.3l2.7,4.2c0,0,3.8,2.2,3.8,5c0,0,0.2,1.3-1.3,0.3c0,0-0.8-0.7-0.5,0.8l0.7,3.5l2.5,3l3.7,4.5  l3,1.8c0,0,2.5,0.7,0.8,3.3C887.5,374.8,886,376.7,889.3,378.2z" id="path12" stroke="#FFFFFF" name="辽宁" stroke-miterlimit="10"/>
<path fill="#E3E3E4" stroke-linejoin="round" d="M737.5,399c0,0-1.3-2.1-2.7-0.5  c0,0-3,2.1-1.8,4.4c0,0,2.2,2.1-0.5,2.4c0,0-2.3-0.2-3.3,1.5c0,0-1.5,1.7-3.9,1.7c0,0-2.8,0.8-0.7,2.9c0,0,1.3,1.9,2.2,2.1  c0,0,1.2,0.5-0.2,2.6c0,0-3.6,1.7-3.6,2.6c-0.2,1.5,0.2,5.1-1,5.8c0,0-3,2.2-1,3.6c0,0,3.9,3.1,5.2,2.6c0,0,2.8-1.7,4.6-1.9  c0,0,4.6,0.3,5.6-0.2c0,0,4.7-1.7,5.9-1c0,0-0.2-1,0.7-1.5c0,0,1.8-0.8,3-0.2c0,0,4.2,0.2,3.2-4.9c0,0-2.5-2.7-2.2-5.1  c0,0-0.7-6.1,0.8-7.8c0,0,1.3-0.8,2-0.5c0,0,2.2-1.2,2.2-1.7c0,0,0.3-1.7-1.3-1.5c0,0-8.2,0.7-10.2-1.3L737.5,399z" id="path13" stroke="#FFFFFF" name="北京" stroke-miterlimit="10"/>
<path fill="#E3E3E4" stroke-linejoin="round" d="M759.2,446.3c0,0-1.8-4.7,0.7-8.5  c0,0-0.5-2.7,1.7-4.7c0,0,2.5-3.2,4.2-1.7c0,0-0.2-2.2-2.5-2.4c0,0-1.5-0.5-1.5-2.7c0,0-1.5-1.7-2.8-1.3c0,0-1.8,1.7-2.5-0.8  c0,0-0.2-2.9-1-4.1c0,0-1.3-0.8,0.8-1.9c0,0,3.3-1.9,1.8-3.1c0,0-4.2-2.7-5.7-2.6c0,0-4.6-1.9-4.1-3.4c0,0,1-1.2,1.7-1.5  c0,0-1.2-0.7-2.5,0.7c0,0-1.2,6.6-0.3,9.9c0,0,2.2,3.4,1.8,4.6c0,0-0.2,3.4-3.6,3.1c0,0-3.3-0.5-3.3,1.7c0,0,0.7,3.1,2.5,3.2  c0,0,4.9-0.2,3.6,3.9c0,0-0.3,1.9-0.8,2.9c0,0-2.7,4.2-2.3,5.5c0,0,1,1.6,6.4,3.4c0,0,3.2,1,5.4,0.7  C757.2,447,758.7,446.8,759.2,446.3z" id="path14" stroke="#FFFFFF" name="天津" stroke-miterlimit="10"/>
<path fill="#E3E3E4" stroke-linejoin="round" d="M765.2,388.5c0,0-1.1,0.6-0.9-1  c0,0-1-2.5-2.7-3.1c0,0-2.3-2.2-1.8-2.5c0,0,4-1,3.5-2.3c0,0-2.3-2.5-4.5-3.4c0,0-2.8-3-3.8-5.4c0,0-3-5.1-4-5.1  c0,0-2.5-0.5-5.2,2.7c0,0-0.7,2-4.2,1c0,0-1.3-0.8-3.5,2c0,0,0.2,3-0.3,3.4c0,0-1.2,0.7,0.2,2.8c0,0,2.2,3.7-4.2,3.4  c0,0-5.8-0.5-6.7,1.7c0,0-1,3.2-3.8,0.8c0,0-1-1.2-4.3,0.8c0,0-8.8,5.7-9.3,5.6c0,0-4,1.5-3-2.3c0,0,0.2-1.3-0.2-3.6  c0,0-0.7-5.2-2.8-4.7c0,0-4.2,1.3-5.2,3.4c0,0-0.3,1.3-1.8,1.8c0,0-1.2,0.2-1.3,5.6c0,0,0.7,2.5-1.5,2.8c0,0-2.2-0.7-1.8,2.3  c0,0,1,2.3-0.3,4.4c0,0-1.7,2.7,2.5,5.9c0,0,1.8,1.2,1.2,2.8c0,0,2.5,1.5,2.7,3.7c0,0,1.5,3.1,2.2,3.2l4.2,1l-6,3.1l-3.7,2.8  c0,0-1.8,2.3,0.7,3c0,0,3.8,0.5,4.5,0.5c0,0,2.7-0.7,3,1.8c0,0-0.7,2.2,1.8,4.4c0,0,1,0.7-0.3,5.1c0,0-0.3,4.2-1.8,4.7  c0,0-1.3,1-5.8,0c0,0-1.2-0.7-2.8,2.2c0,0-2,1.8-0.3,3.1c0,0,1.7,1.5-0.8,3.9c0,0-3,2.3-2.3,6.6c0,0-0.2,3.1,3.2,3.1  c0,0,4,1.8,5.2,4.7c0,0,0.7,4.1,2.8,4.4c0,0,2.7,2.3,0.3,4.4c0,0-4.8,7.4-4.8,8.9c0,0-0.5,3.4-1,4.1c0,0-3.5,4.2-1.7,6.6  c0,0,1.8,2.5,3.5,2.2c0,0,3.3,0.5,4.3,1.5c0,0,4.7,2.3,6.5,1.8c0,0,6.5,0.7,7.5,0.7c0,0,4.2,0,5-0.8c0,0,0.5-1.7,3-0.8l5.3,0.5  c0,0-0.3-3.7-2-3.9c0,0-2.8,0.3-2-2.7c0,0-1.3-4.1,1.2-5.4c0,0,3.3-0.7,4.5-3c0,0,1.5-3.4,1.5-4.9c0,0,0.5-1.8,2.5-3.7  c0,0,2.2-3.1,2.7-4.4c0,0,1.7-1.7,4.2-1.3c0,0,5.2-6.7,8-6.7c0,0,5.3-0.7,7-1.7c0,0,3-2,3.3-3.4c0,0,2.7-1.2,3.5-1.2  c0,0,0.7-1,1.5-1.3c0,0,1.3,0,0-1.8c0,0-2.5-2-3-2.7c0,0-1.5-2-2.2-2.3l-1.2-2.2c0,0-2.8,2.5-5.5,1c0,0-6-1-8.2-3.2  c0,0-0.3-1.8,0.3-3c0.7-1.2,0-0.3,0-0.3s3.2-4.7,2.5-7.2c0,0,0.2-1.3-2-2c0,0-3.2,0.5-3.7-2c0,0-1.5-3.1-3-2.2c0,0-4,2.3-4.7,1.7  c0,0-6.3-0.2-7,0.7c0,0-2.7,2.5-5,0.2c0,0-5-2.3-2-4.2c0,0,2.2-1.2,1.8-3.9c0,0-0.8-3.2,2-4.2c0,0,3.7-2.2,1.8-3.7  c0,0-5.3-3.9-1.7-4.7c0,0,3.5-0.5,4.2-2.3c0,0,2.3-2,3.3-1.3c0,0,2.7-0.3,0.5-2.5c0,0-0.8-3,1.8-4.1c0,0,1.5-2.2,3.2,1.5  c0,0,2.2,3.9,4,3.9c0,0,4,1.2,5.8,0.8c1.8-0.3,0.2,0,0.2,0s4.8-0.7,3.7,1.3c0,0-3.5,2.7-3.3,3.4c0,0,1,1.8,3,2.7l4.2,1.8  c0,0,3.2,1.5,3.2,2.3c0,0-0.2,0.7-1.8,1.5c0,0-2.3,0.8-1.5,2.7c0.8,1.8,0.2,0.2,0.2,0.2l1.5,4.4c0,0,0.8,1.8,2.3,0.5  c0,0,2.8-0.5,2.8,2.8s0,0.2,0,0.2s0,1.5,1.5,1.3c0,0,2.3,0.5,2.5,2.5c0,0,2.2,1.5,2.2,2c0,0,0.8,1.8,3.3,0.2c0,0,3.8-2.8,5-2.7  c0,0,4.3,0.3,5.5-1.8c0,0,2.5-3,2.5-4.4c0,0,0.3-3.7,0.5-4.7c0,0,1.2-2.5,3.3-3.4c0,0,3-1.8,3.7-2.5c0,0,2.2-2.3,2-2.5l-1.7-3.7  c0,0-1.7,0.3-4.3-2.5c0,0,0-3.9-2.3-3.9c0,0-4,2.3-4.8-0.5c0,0-0.7-2.3-4.3-2.3c0,0-4.3-0.5-2.5-3c0,0,2.1-0.4,2.6-2.1l1.8-7.8  c0,0-7.4,1.6-8.7,1.3L765.2,388.5z" id="path15" stroke="#FFFFFF" name="河北" stroke-miterlimit="10"/>
<path fill="#E3E3E4" stroke-linejoin="round" d="M850.2,597.5H850  c-0.3-0.2-7.5-4.7-8.2-7.8c-0.2-0.7,0-1.2,0.3-1.7l0.2-0.2c0,0,2.7-1,2.7-2.7V585c0.2-0.3,2-3.5,3-4.3c0-0.8-0.2-4.5-2.5-5.7  c-0.2,0-0.2-0.2-0.2-0.3s0.2-0.3,0.3-0.3s2.3-0.5,3.2-0.5c0.2,0,0.3,0,0.5,0.2s2.3,1.8,3.7,2.7c0.5,0,2.3-0.2,3.8-0.2s1.8,0.2,2,0.3  c0.5,0.3,1.7,1.7,1.5,2.7c-0.2,0.3-0.5,0.7-1.2,0.7l0,0l0,0c-1-0.2-5.5-1-6-1c-0.5-0.2-3-0.8-4-1.7c0,0.2,0.2,0.5,0.3,0.8  c0.2,0.2,1.8,2.7,5.5,3.5c0,0,0,0,0.2,0s0,0,0,0s0-0.2-0.2-0.7c0-0.2,0-0.3,0-0.3s0.2-0.2,0.3-0.2l0,0c0.2,0,2.3,0.3,3,1.2v0.2  c0.2,0.7,0.5,2.2,1.3,2.7c0,0,0,0,0.2,0c0.7,0.8,2.8,3.3,3.2,3.8c0.2,0.2,1,2,0.3,3c-0.2,0.3-0.5,0.7-1.3,0.8  c-1.8,0.2-4.7,0.3-5.2,0.7l-6.3,4.7C850.3,597.5,850.3,597.5,850.2,597.5z" id="path16" stroke="#FFFFFF" name="上海" stroke-miterlimit="10"/>
<path fill="#E3E3E4" stroke-linejoin="round" d="M742.5,468.2c0,0,4-4.8,6.8-6.2  c0,0,7-0.5,9.2-2.5c0,0,2.2-1.8,2.3-2.5c0,0,1.2-1,2.3-1c0,0,1.3-0.3,1.8-1c0,0,1.5-0.5,1.7-1c0,0,2,1,2.2,1.5c0,0,0.2,2,2.2,1.5  c0,0,0.3,0.2,0.7-2.2c0,0,1.5-0.5,1.8-0.3c0.3,0,1.3-0.7,1.8-0.8c0,0,0.5-0.8,1,0.5c0,0,0.5,1.7,2.2,0.5c0,0,3-3.8,4-1.2  c0,0,0.3,1.7,1.7,0c0,0,1,0,1.7,1.5c0,0,0.5,1.7,0.5,3c0,0,1.3,1.8,1.2,2.3c0,0-1.3,1.5-1.2,2.5l0.5,2.8l-1.7,1.5c0,0-0.3,0.8,0.3,1  l2.8,2.2c0,0,0.5,1.2,1.7,1c0,0,1.2,0.5,1.5,0.8l1.3-0.5c0.2,0,2.7,0.3,3.2-0.2c0,0,2,0.3,2.7,0.8c0,0,0.3,0.5,1.3-1l2.7-2.5  c0,0,0.5-1,0.2-2.2c0,0-0.8-2.3,1.3-2.3c0,0,3.3-0.3,4.3-2.8c0,0,0.8-2.8,0.7-3.5c0,0,0.8-1,2.2-1.2c0,0,3.7-1.5,4.5-2.5  c0,0,1.5-1.8,4.2-0.5l5.5,3c0,0,1,0.3,2.2-0.2c0,0,1.5-0.3,1.8,1.2c0,0,1.2,3,5.7,1c0,0,0.8-1.5,1.8-0.8c0,0,0.7,0.7,1.5-0.7  c0,0,0.5-1.5,2.3-0.7c0,0,1.5,1.5,2.7,0.7c0,0,3.2-0.7,3.5-0.2c0,0,2.5-0.3,3.2-0.7c0,0,2.2-0.3,0.8,1c0,0-1.5,1.3,0.3,3.5  c0,0,1,1.3-1.2,1.5c0,0-2.8,0-1.2,1.8c0,0,3,0.5,1.5,1.8c0,0-1.7,1-2,2.8c0,0-0.2,0.8-2.8,0.7c0,0,0.2-1.3-0.5-1.7  c0,0-1.5-2.8-2.3-1c0,0-0.5,3.3-2,0.7l-0.3-0.7l-1.5,3c0,0-2.7,1.7-3.2,2.2c0,0-1.2,2.8-2,1c0,0-0.8-2.5-1.7-0.2c0,0,0.7,2-1,2.3  c0,0-3-0.3-3.7,0.8c0,0-0.3,2.3-2.2,1.7c0,0-4-1.3-4.5,0.2c0,0-0.7,1.8,1,1.3c0,0,3.8-1,3.2,1.8c0,0-1.3,2.8-3.5,0.7  c0,0-1,2.2-0.7,3.3c0,0,0.5,1.5,1,1.5c0,0,0.3,0.5-0.5,1.2c0,0-2.8,2.5-4.3,1c0,0-2.3-2.2-2.5-2.5c0-0.2-0.8-0.3-1,0.3  c0,0-0.2,1-1.2,1.2c0,0-0.8,0.5-0.2,1.5c0,0,1.2,0.2,0.7,2.5c0,0,0.3,1.7-1.5,2.2c0,0-1.2,1.5-0.5,3.2c0,0-2.3,2.2-2.2,3  c0,0-0.2,0.5-1.8,0.7c0,0-2.7-0.5-3.2,1.8c0,0-0.8,4.5-1.5,5.3c0,0-0.8,3.2-1.3,3.7c0,0-1.7,1.2-2.5,1.3c0,0-3.3,1.8-4.2,1.7  c0,0-1-0.5-1.7,3.8c0,0,0,3.5-2.8,4.2c0,0-2.5,1-2.8,3c0,0-1,4.8-4,4c0,0-1.2,0.2-1.7-2.3c0,0-1-2.8-3.7-2.7c0,0-1.5-1.2-2.7,3.2  c0,0-2.2,2.8-5,2.3c0,0-4.5-3.5-6.3-0.8c0,0-1,1.3-2.3-1.2c0,0-3.8-6.7-7.5-6.2c0,0-4.2-0.3-5,7c0,0-2.3,1-2.8,2c0,0-3.7-0.2-5,0.7  c0,0-3,1.2-5.3-1c0,0-4.5-2.3-5-3.3c0,0-5-4.3-6.7-4.7c0,0-2,0-3,0.5c0,0-3,1.7-1.2-1.5c0,0,3-7,5.8-7.7c0,0,2.3-0.7,2.3-2.7  c0,0-0.2-1.7,1.7-2.3l3.2-2.8l4.8-3.3c0,0,2-1.7,2.2-2c0,0,0.5-1.3-0.7-0.8c0,0-2,0.7-3.3,1.7l-4.3,2.3l-3.2,2c0,0-2.3-1.7-1.5-2.5  c0,0,2.3-2.7,2.3-4.2h0.7c0,0-0.7-3.2-1.3-3.5c0,0-4-0.7-2.8-3.2c0,0-0.3-4.3,0.2-4.7c0,0,1.8-1.8,3.5-1.8c0,0,1.3-0.8,1.7-2  c0,0,1.8-4.5,1.8-5.5c0,0,0.7-2.7,2-3.2c0,0,1.2-1.8,1.5-2s1.3-3.3,2.5-3.7C739.2,469.3,741.7,468.5,742.5,468.2z" id="path17" stroke="#FFFFFF" name="山东" stroke-miterlimit="10"/>
<path fill="#E3E3E4" stroke-linejoin="round" d="M650.8,432.8c0,0,1.3,3,0.2,4.3  c0,0-3.2-0.7-3.2,0.7c0,0,0.8,7.2-0.3,7.7c0,0-2.3,0.2-2.3,3.5c0,0-0.7,3.5-0.5,4c0,0-0.2,2.5-0.5,3c0,0-3.3,3-4.5,4.7  c0,0-3.7,5.3,1.3,9.2c0,0,2.7,1.8,1.2,2.3c0,0-1.5,1.5,0.2,2.8c0,0,0.7,1.3,0,3l-0.8,4.5l-3.2,4.2c0,0-0.8,0.8,0,4.2  c0,0,1.5,7.3,1.3,8.2c0,0-1.7,3.7-0.5,5.3c0,0,3,7,3,9.5c0,0-0.5,3.3-3.5,10.7c0,0-2.8,7.3-1.7,9.3c0,0,1.8,3.7,4.5,3  c0,0,5.5-0.5,6.3-1.8c0,0,4.2-4.3,6.2-4.3c0,0,5.5,0.3,6.5-0.8c0,0,5-4.5,8-3.8l-0.2-3.8c0,0-0.2-1.3,1.7-1c0,0,4.3,1.2,6.3,0.2  c0,0,6.8-1.3,8.8-1.3c0,0,2.8,0,7.8-5c0,0,3.2-2,3.2-7c0,0-0.3-10.8,1.5-12c0,0-3.7-0.2-3.8-4.7c0,0,0.8-3,2.2-4.2  c0,0,1.7-7.7,3.2-9c0,0,4-5.7,3.5-6.7c0,0-1.5-2-2-2.3c0,0-1.7-2-1.8-3.7c0,0-0.3-2.5-4.5-5c0,0-4.5,0-4-4.5c0,0,0.3-3.8,1.8-5  c0,0,2.7-2.8,1.8-4c0,0-2.2-1.2-0.8-2.8l2.5-3c0,0,0.8,0,1.7,0.2c0,0,5,1.5,6.2-1.2c0,0,1.3-6.8,1.8-7.5c0,0,0-0.7-0.7-1.5  c0,0-2.2-1.7-1.8-4.3c0,0,0.2-2.3-2.5-2.2c0,0-6.5,0.5-6.3-1.5c0,0-0.3-1.7,1.3-2.5c0,0,2.5-1.8,2.5-2c0,0,5.3-2.8,6.2-3.2  c0,0-2.2-1.2-3.8-1.2c0,0-2.2-3-2-4.3c0,0,0-2.5-2.8-3c0,0-0.2,3.8-1.2,4.5c0,0-4,2.2-4.7,3c0,0-1.5,2.5-6.2,2c0,0-4-0.5-5.2,0.8  c0,0-4,4.5-5.2,4.2l-4-1.3c0,0-2-0.3-2.5,1.2c0,0-1.3,1.3-1.7,3.3c0,0-2,5.5-3.8,7.2c0,0-1,1-4.5-0.5c0,0-2.2-1.2-3.5-0.7l-2,1.8  L650.8,432.8L650.8,432.8z" id="path18" stroke="#FFFFFF" name="山西" stroke-miterlimit="10"/>
<path fill="#E3E3E4" stroke-linejoin="round" d="M650.8,432.7l-1.7,3.3l-2.8-1.8  c0,0-1.5,0.2-2.3,1c0,0-2.5,2.7-3,4c0,0-0.3,2.3-2.7,1.2c0,0-2-1.3-3.5-1.2c0,0-2.5-0.5-2.8-1.2l-2-1.2l1.7,4.2c0,0,0.8,0.7-1.7,1.3  c0,0-3.7,0.8-4.2,2.2l-1.3,3.2c0,0-1.3,2-2.8,3c0,0-2.5,0.7-3,1.7l-4.3,6c0,0-3.2,3.8-2.7,5.3c0,0,3.3,3.7,1.5,5.8  c0,0-0.5,0-1.3-0.8c0,0-1.7-1.5-2,1.2c0,0,0,4.5-1.5,4.8l-9.8,1.8c0,0-1.2,0.5-2.2-1c0,0-1.8-3.2-2.7-3.5l-3.2-0.7  c0,0-1.7,1-1.7,1.2l-4.2,2.3c0,0-0.8,0.8-1.2,2.7l-1,3.3c0,0-1.3,1,0.2,2.3c0,0,2.8,2.5,0.5,3.5l-1.2,0.6l0.9,1.3  c0,0-0.5,4.7,4.8,5.2c0,0,1.7,0.3,2.9,1.3c0,0,4.6,4.1,5.9,4.1c0,0,1.2,0,2.3-0.3c0,0,1.1,0,2.1,1.5c0,0,0.6,2,2.3,2  c0,0,2.7,0,3,0.3c0,0,2.4,3.6,0.5,9c0,0-1.9,3.2-2.1,4c0,0,0,2.8,1.4,4.3c0,0,2.3,3.2-0.1,4.2c0,0-2.5,2.4-4.1,2.3  c0,0-2.9-0.7-4.9-0.2c0,0-4,1.1-5.3,0.3c0,0-3.8-1.7-2.8-0.3c0,0,3.1,5.5,2.5,6.5c0,0-0.9,0.9-4.2,1c0,0-3.7,1.1-5.5-0.1  c0,0-2.3-0.8-6.7-4c0,0-5.4-0.2-5.4,2.6c0,0,0.4,3.7,0.2,4l-4.2,4.3c0,0-0.5,0.5,2.5,1.7c0,0,7,3,4.5,3.9c0,0-3.2,0.9-3.2,2.1  c0,0,0.2,2.6-0.6,3.2c0,0-1.3,1.3-1,3c0,0,1.9,5,1.9,5.7c0,0,0,2.5-2.3,1.5c0,0-5.3-1.8-7.1-0.6c0,0-4.5,2.2-4.7,4.7  c0,0,0.2,1,1.8,2c0,0,2.8,3.8,0.9,5.3c0,0-3.1,2.2-5.1,2.4c0,0-1.5,0-1.3,1.7l0.1,1c0,0,4.9-0.4,5-0.4c0.2,0,2.8-1,3.3-1.5  c0,0,0.8-0.8,2,0.7c0,0,2.2,2.3,4.7,1.9c0,0,4.3-0.7,6-1c0,0,5-1.2,8.3,1c0,0-0.7,4.2,3.3,3.2c0,0,2.8-1.5,3.3-0.7  c0,0,3.5,5.3,6.2,5.8c0,0,1.7,2,6.7-0.3c0,0,2.3-0.8,4-0.3c0,0,1,0.2,1.2,0.5c0,0,2.8,0.3,3.3,1c0,0,7.7,5.2,8.5,4.7  c0,0,3.2,1.5,3.2,2c0,0,3,2.8,4.5,2.8c0,0,2.7,0,3.3-0.8c0,0,0.5-4.3,0.5-5.3c0,0-0.8-4-2.2-6c0,0-1.2-4.3,1.5-5.5  c0,0,4.7-0.7,6-0.5c0,0,4.2-0.8,4.3-1.5l-1.2-4L634,573c0,0-4,0.5-3.8-3.3c0,0-1.5-1.7-4.2-2c0,0-3.5-0.5-1-1.5c0,0,4.2-1.8,6.8-0.7  c0,0,4.3,2.2,7.8,1c0,0,5.8-1.5,7-0.5c0,0,2,1.5,3.8-0.3c0,0,1.2-1.3,3.2-0.3c0,0,0.2-5-0.2-5.5c0,0-0.7-4.7-7.7-8.3  c0,0-0.7,0.2-0.5-4.8c0,0-0.3-1-2.8-2c0,0-0.5-0.5-0.2-1.3c0,0,2-2.8-4.7-7.2c0,0-2.7-1.7-0.3-7.7l2.7-7.5l1.8-6.2l-1.5-6.2  c0,0-2.2-5.2-2-5.8c0,0,1.5-3.2,0.8-5.7c0,0-1.7-8.3-1.3-9.2c0,0,3.3-4,3.7-6.5l0.8-5c0,0-1.7-2.2-0.8-3c0,0,1.8-1.7,0.5-2  c0,0-5.7-3.2-3.3-9c0,0,2.7-4.3,4.2-4.8c0,0,1.5-0.2,1.7-3.7c0,0,0.5-2.7,0.5-4c0,0-0.3-3.2,2.2-3.8c0,0,1.3-0.7,0.8-4.7  c0,0-1-3.8,1-4c0,0,2.3,0.8,2.5-0.5C651.7,436.3,651.5,433.5,650.8,432.7z" id="path19" stroke="#FFFFFF" name="陕西" stroke-miterlimit="10"/>
<path fill="#E3E3E4" stroke-linejoin="round" d="M697.8,495.8c0,0-0.8,0.8-0.8,2.7  c0,0-1,5.8-0.3,8.2c0,0,0.2,4.5-1.5,6.2c0,0-4,4.5-6.3,5.8c0,0-2.7,1.5-5.8,1.5c0,0-6.3,0.8-7.8,1.5c0,0-2.7,0-3.8-0.3  c0,0-2.7-0.8-2.5,0.5v3.8c0,0-4.2,0.3-6.7,3c0,0-1.5,2.2-5.2,1.8c0,0-4-0.5-5,1.2l-3.8,3.2c0,0-0.5,1.3-6.3,1.8l-2,0.3  c0,0,4.2,2.3,2.5,6.3c0,0-0.2,0.7,1,1.3c0,0,2.3,0.7,2.2,2c0,0,0.2,4,0.3,4.2c0,0,3.2,2.2,3.5,2.5c0,0,4,3.2,4.2,5.7  c0,0,0.5,5,0.2,5.8c0,0,4,2.7,4.3,3.7c0,0,0.7,2.3,1.2,2.7c0,0,1.2,1,2.7,1.5c0,0,4,1.2,5,2c0,0,5,4.7,7.3,4.7c0,0,5,2,9.3,0.8  c0,0,5.8-0.7,7.8-1.3c0,0,5-0.3,5.8,0c0,0,5-0.2,7.2-2c0,0,1.7-1.5,1,1.8c0,0-0.8,3.5,1.7,7c0,0,2,3.8,4.5,5.2c0,0,1.2,1,2-0.5  c0,0,0.8-1.8,3-0.8c0,0,4.2,1.2,5.5,1c0,0,1.3,0,0.7,0.7c0,0-1.5,1.7,1.2,2.7c0,0,1.8,2,4.8,0.7c0,0,2.2,0.2,3.3-1.2  c0,0,1.5-1.5,2.2-0.5c0,0,1.3,1.7,1.3,2.3c0,0,0.5,1,1.8,1.2c0,0,1.2-2.7,1.8-3.8c0,0,2.7-4.5,5.2-4.7c0,0,3.8,0.2,3.2-3.8  c0,0-0.7-3.8,0.5-5.3c0,0,0.2-3.7-1-5.5c0,0-1.2-1.8-0.7-2.8c0,0-0.8-1.5-2.8-0.2c0,0-5.5,3.7-7.2,2c0,0-4.3-0.3-4.3-2  c0,0,0.3-2.5-1.3-3.3c0,0-4.5-1.3-4.5-2.7c0,0-0.8-2.5,0.8-2.2c0,0,3,0.7,4.7-0.7c0,0,2.3-2.2,2-5c0,0-0.3-2,1.5-3.2  c0,0,3.3-2.2,2.2-5.2c0,0-2.2-5.2-0.7-5.8c0,0,2.7-3.2,5.7-0.5c0,0,4.2,5.8,6.3,5.2c0,0,3.2-0.8,3.7-1.8c0,0,1-1,2.3-1.3  c0,0,2.8-0.8,1.5-3.5c0,0-2.8-3-2.3-4.5c0,0,0-2.5-2.5-1.7c0,0-4.3,1-4-1c0,0,0-4-3-2.7c0,0-5.7,1.5-6.5,0.3l-4.3-2.3  c0,0-7.5-5.7-7.7-5.8c-0.2,0-1.8-1.3-4.8,0c0,0-2.2,1.2-1-1.3c0,0,3-6.7,5.5-7.5c0,0,2.5-0.7,2.8-2.5c0,0,0-2.5,2-2.8  c0,0,2.8-2.7,3.5-3c0,0,5.2-3.2,5.7-4.2s0.2-0.2,0.2-0.2s1.8-2.2,0.2-1.7c0,0-3.3,0.5-7.2,3.8l-3.8,2.3c0,0-2.2-1.3-1.3-2.3  s0-0.2,0-0.2s2-2.8,2-4.2c0,0-6.2-0.8-6.3-0.7c0,0-2,1.5-2.8,1.7c0,0-5.2,0.7-6.8,0c0,0-4.5-0.2-6-0.5c0,0-6.2-1.8-6-2.5  C701.3,496.8,698.3,495.8,697.8,495.8z" id="path20" stroke="#FFFFFF" name="河南" stroke-miterlimit="10"/>
<path fill="#E3E3E4" d="M748.7,528.7" id="path21" stroke-miterlimit="10" stroke-linejoin="round" stroke="#FFFFFF"/>
<path fill="#E3E3E4" stroke-linejoin="round" d="M799.3,512.3c0,0-4,2-5,2  c0,0-1.8,0.3-1.8,2.3c0,0,0,4-1.8,5c0,0-2.3,1-2.7,1.3c0,0-1.5,1-1.8,4.2c0,0-0.7,2.2-2.5,2.2c0,0-2.2,0.5-2.5-2.7  c0,0-0.7-2.2-3.8-2.5c0,0-2.2-0.5-2.3,2.3c0,0-2.2,4.7-6,2.8c0,0-2.8-2-4.8-0.8c0,0-2,2.7-3.5-1c0,0-3.8-6-6.5-5.7  c0,0-2.7-1.3-5.2,3.8c0,0-0.8,3-0.8,3.5c0,0,3-1.7,4.2-0.2c0,0,0.8,2.2,3.3,1.3c0,0,6,3,6.3,4.3c0,0,1,4.3,4.7,3.7  c0,0,6.3-0.5,7.3,0.5c0,0,1.2,1.5,0.8,2.8c0,0-0.2,1.5,2.3,2.3c0,0,1.3,1,3.3-0.2c0,0,4.5-3.7,3.5,0.8c0,0-1.5,3.2-1.8,3.8  c0,0-1.2,1.8,0,3.5c0,0,4.2,3.8,4.5,3.8c0,0,1.7,3.7,2.2,4.8c0,0,0,3.7,1.8,3.2c0,0,5,0.8,6.7-2c0,0,1.3-5,3-3.8c0,0,3.7,0,4.8,4  c0,0,2.3,4.8,0.2,5c0,0-2,0-6.3-1.3c0,0-3.5-1-3.7,1c0,0,2.5,2.3,2.3,3.8c0,0,0.2,1.5-2.8,3.7c0,0-1.7,0.8-0.8,4.5  c0,0,0.2,2.2,2.8,3.7c0,0,6,2.8,6.3,4.5c0,0-0.8,1.3-2.7,4.8c0,0-1.5,2.5,3.5,1.2c0,0,6.3-2.3,8-1.7c0,0,3.2,1.2,5.7,2.3  c0,0,2.8-2.2,4-2.2c0,0,5.8,0.3,8.3,1.5c0,0,2.7,1.5,3.2,2.7c0,0,2.5,2.8,4.8,0c0,0,1.8-4.8,4.7-4c0,0-1.8-2.5,0.2-3.3  c0,0,2-0.7,2.3-2.8c0,0,2.3-3.7,3.2-4.3c0,0-0.7-5.5-2.8-6.2c0,0-2.2,2-3.3,1c0,0-1.7-0.5-2.7-0.5c0,0-1.5-0.5-1.8-1.2  c0,0-3.7-2.8-6-1.8c0,0-2.7,1.3-3.2,1.8c0,0-0.5,0.5-1.3,0.3h-1.5l4.8-3.3c0,0,2.7-2.8,6.5,0.5c0,0,4.3,3.3,5.5,2c0,0,4-2.5,7.2-0.8  c0,0,8,2.5,8.3,2c0,0,1.8,0,0.8-2.7c0,0-2.7-4.7-9-5.7c0,0-2.2-0.7-3.3-3c0,0-4-3.2-7.2-4c0,0-4.2-1.2-2.5-2.5c0,0-0.3-2.5,0-3.7  c0,0,0.3-1.3-4-5.7c0,0-0.5-1.5-1.2-2c0,0-3.5-2.2-3.2-3.8c0,0,0.3-1.8-1-2.5c0,0,0-2.3-1.2-3c0,0-1.5-1.2-1.8-3.5l-3.7-5  c0,0-5-4.5-6.5-4.5c0,0-4.2-1-4.7-0.2c0,0-2.8,1.5-2.7,0.2c0,0,0.7-2.5-3.8-2c0,0-4,0.8-4-2.3C799.5,519.2,798.2,513.2,799.3,512.3z  " id="path22" stroke="#FFFFFF" name="江苏" stroke-miterlimit="10"/>
<path fill="#E3E3E4" stroke-linejoin="round" d="M745.8,530.7c0,0,3.8-3.3,6.2-2.3  c0,0,1.8,2.7,4,1.8c0,0,5.5,2.8,6.3,3.7c0,0,0.3,3.8,2.7,4.2c0,0,8.3,0.2,9,0.5c0,0,1.5,1.7,1.2,3.5c0,0,1.3,3,5,2.2  c0,0,4.5-3.2,4.5-0.8v0.2c0,0-1.2,4-1.7,4.3c0,0-2.3,3.2,0.3,4.5c0,0,3.8,3.8,4,3.8s2.3,5.2,2.3,6.5c0,0,0.3,1.5,2.5,0.8  c0,0,4.5,0.3,5.5-1.7c0,0,1.5-3.7,1.8-3.8c0.3-0.2,2-0.2,3,0.7c0,0,2.2,0,3.3,3c0,0,2.2,4.5,0.5,5.3c0,0-2.7,0.3-7.3-1.5  c0,0-4,0-2.7,1.5c0,0,4.7,3.5,0.7,6.3c0,0-2.7,1.3-2.3,3.3c0.3,2,0,0.2,0,0.2s0,4.2,2.2,5c0,0,7.3,3.7,7.3,5.2c0,0-2.7,4.5-3.2,5.3  s1.7,0.7,3.7,0.5c0,0,6.5-2.5,9.2-1.5c0,0,4.5,1.8,5.8,1.7c0.7,0.3,0.5,1.8,0.3,3c0,0,0.7,4-2.5,6.3c0,0-4.2,2.3-1.2,4.3  c0,0,3,2.8,0.5,2.8c0,0-3.2,0.8-4.2-0.8c0,0-1-2.7-2-0.3c0,0-1.7,1-1.8,8.5c0,0-0.2,2.3-1.3,3.7c0,0-1.7,2.7-2,4.2  c0,0,0.3,1.3-1.8,2c0,0-4.5,2.8-5.8,5.7c0,0-1.7-2.5-5.5-2.2c0,0-2.2-0.5-2.3-0.8c0,0-0.3-1.5-2-0.8l-1,0.3c0,0-3-0.2-3.5-0.8  c-0.3-1.3,0-1.8-2-2.7l-2.8-2.2c0,0-1.8-0.8-2.3-0.2c-0.5,0.7-1,2.7-1,2.7s-1.5,4.7-2.3,4.8c0,0-6.8,0-4.8-3.3c0,0,2.8-5.5,1.3-6.3  c0,0-1.5-1.3-6.5,3l-3.7,2.7l-3,0.8c0,0-1.5-6.2-1.3-7.7c0,0-0.7-0.8-1.3-1.3c0,0-3.5-2-2.7-4.2c0,0-0.2-0.7-1.2-1.7  c0,0-3.5-1.3-1.7-3.8c0,0,4.2-5.2,3-5.7l-4.8-3c0,0-3-0.2-3.7,0c0,0-3-1.2-4.2-2.3l-1-1c0,0,2-4.3,3.2-5.2c0,0,2.5-3.8,6-3.8  c0,0,1.8,0,1-5.5c0,0,0-1.7,0.5-2.5c0,0,1-2.7-0.5-5.7c0,0-1-1.7-1-2.7c0,0,0.7-1.2-1.5-1.2l-4.7,2.2c0,0-1.2,1.5-5.8-0.3  c0,0-2.8,0-2.3-2.7c0,0,0.5-2-2.5-2.5c0,0-3.8-0.7-3.3-3.2c0,0-0.7-2,1.5-1.2c0,0,4.3,0.8,5.8-3.8c0,0-0.5-4,1.2-5  c0,0,3.7-2.3,2.8-4.8c0,0-2.3-5-0.8-6.2c0,0,2.8-3,4.5-1.3c0,0,4.2,3.7,4.3,4.2c0,0,1.7,2.8,5,0.8c0,0,2.8-2.2,4.3-2.8  c0,0,2.3,0,1-3c0,0-2.7-2.3-2.3-4c0,0,0.5-3.2-2.7-2c0,0-4.5,1.7-4.2-2.3L745.8,530.7z" id="path23" stroke="#FFFFFF" name="安徽" stroke-miterlimit="10"/>
<path fill="#E3E3E4" stroke-linejoin="round" d="M819,592.6c0,0,3.4-2.6,6.5-1.6  c0,0,4.9,0.2,7.3,2.4c0,0,2.2,3.1,3.6,3.1c0,0,1.8,0.5,2.9-2.1c0,0,2.4-4.4,4.2-3.3c0,0,2.4,3.1,7.3,5.9c0,0-4.4,2.8-4.9,4.3  c0,0-0.8,2.4-2.7,1.9c0,0-1.8-1.2-2.1,0.7c0,0-0.5,2.4,0,3.6c0,0,1,3.6,1.7,2.4c0,0,2.1-1.2,2.6-1c0,0,4.4-2.4,6.2-3.8  c0,0,1.5-1.6,4.4,1.2c0,0,3.9,3.6,6.1,3.1c0,0,3.4,1.9,3.7,1.9l3.9-0.7c0,0,1.3,0.3-0.2,1.3c0,0-5.2,2.6-3.2,3.9  c0,0,4.6,0.8,1.8,2.9c0,0,1.2,2.1,0.2,2.6c0,0-0.8-0.8,1.5,3.1c0,0-0.5,1.6,0,2.3c0,0,2.2,2.8-1,2.1l-0.5-1.8c0,0-1-0.3-1.5-1.2  c0,0-0.8-2.1-1.5-0.2c0,0-0.3,2.8-1.7,1c0,0-1.7-2.6-2-1c0,0-0.2,1.9-1,2.6c0,0-1,0.8,1.8,1.3c0,0,3.1,0.3,2.7,2.8  c0,0-3.9,0.3-1.5,1.3c0,0,1.8,0.7,1,2.4c0,0-2.1,2.1-1.8,3.4c0,0,1.5,2.3,1.7,2.4c0,0-0.3,1.8,1.5,2.3c0,0,1.8,2.6,0.2,2.4  c0,0-3.1-1.8-3.4-0.5c0,0-0.7,3.3-0.8,3.4c-0.1,0.1-1.5,0.7-1.8-1c0,0-1.5-3.6-2.6-3.3c0,0-2.2,2.1-1.7,3.4c0,0,2,0.7-0.8,3.1  c0,0,0.2,2.8-2.1,3.1l-4.4-1c0,0,4.4,2.4,4.2,3.4c0,0,0.3,0.8-0.7,1.6c0,0-4.2,2.8-2,5c0,0,3.1,2.3,0.8,5.4c0,0-3.4-1.8-2.1-0.3  c0,0,2,1.8,0.2,2.8l-1.5,0.5c0,0-0.7-2.6-1.5-3.1c0,0-2.9-0.5-4.9,0.7c0,0-5.6,2.8-6.1,2.6c0,0-1.8,0.2-2.7-2.3c0,0-0.8-3.4-0.7-4.1  c0,0-1-1.6-1.7-0.7c0,0-3.4,5.2-5.9,5.7c0,0-1.7,1.2-6.2,0.2c0,0-2-0.2-1.5-3.4c0,0-0.2-2.1-1.8-3.4c0,0-2.7-3.6-2.7-6.2  c0,0-0.3-3.8-2.1-3.6c0,0-5.1,1.8-5.6,1.8c0,0,1.3-3.3,1.2-4.9c0,0-2.4-5.5-2.4-5.7c-0.2-0.2-0.5-1.8-3.6-2.6c0,0-2.1-1.8-2.6-2.1  c-0.5-0.5-2.9-3.4-1.5-4.9c0,0,5.6,0.8,2-2.6c0,0,2.9-4.3,5.1-5.4c0,0,2.6-0.7,2.6-3.4l3.2-6.9c0,0,0.2-7.6,1.3-8.3  c0,0,1.7-3.9,2.4-0.8c0,0,0.7,1.9,3.2,1c0,0,3.2-0.2,1.3-2.1c0,0-3.4-2.1-0.7-4.3c0,0,3.4-2.4,3.7-6.2c0,0,0.2-4.3-0.3-4.3  L819,592.6z" id="path24" stroke="#FFFFFF" name="浙江" stroke-miterlimit="10"/>
<path fill="#E3E3E4" stroke-linejoin="round" d="M628.3,596c0,0,1.3-5.2,0.3-7.7  c0,0-3.3-5.3-1.8-7.2c0,0,0.3-2.7,3.2-2.8c0,0,8.5,0.2,9-1.7l-1.5-3.7c0,0-5.3,0.2-6.3-1.5c0,0-0.8-1.5-0.8-2.2c0,0-0.7-1.5-2.5-1.8  c0,0-4.7-0.8-3.3-1.8c0,0,4-1.5,5.5-1.5c0,0,7.2,1.8,7.5,1.8c0,0,5.7-0.8,5.8-0.8c0,0,3.3-0.5,4.3,0.3c0,0,1.8,0.7,3.8-1  c0,0,1-0.8,2.7,0.3c0,0,3.8,2.3,4,3.3c0,0,1,4.2,4,4.5c0,0,4.5,1.2,5.5,2.2c0,0,3.7,3.5,5.5,3.8c0,0,4,1.7,7.2,1.7  c0,0,6.7,0,7.5-0.5c0,0,4.8-1.5,7.3-1c0,0,6.3-0.2,7.8-0.8c0,0,3.7-2.8,2.8-0.3c0,0-0.7,3-0.2,4.8c0,0,1.5,3.3,1.8,4.2  c0,0,1.8,3,3,3.7c0,0,2.2,2,3,0.5c0,0,0.8-2.3,2.8-1.3c0,0,2.2,0.7,3,0.5c0,0,3.3,0.5,3.7,0.7c0,0-0.7,1.7,0,2.3  c0,0,2.5,2.3,4.7,1.8c0,0,3.8-0.3,5-1.8c0,0,1.5-1.5,2.5,1c0,0,1,2.5,2.5,2.5c0,0,2.8,3.3,5.2,3.2c0,0,2.7-0.2,3.7,0.5  c0,0,4.3,2.2,5.2,2.8c0,0,0,0.7-2,3.3c0,0-2.7,2.8-1.7,4.3c0,0,3.2,2.7,2.8,3.3c0,0-0.5,1.8,1,2.8c0,0,2.8,1.7,3,2.7  c0,0,1,7.7,1.5,7.7c0,0-2.3,0.3-5,0c0,0-5.5-0.2-5.7,0.2c0,0-0.3,2.7-2.2,3.3c0,0-5.2,1.2-6.3,2.5c0,0-3.5,4.2-4.7,4.2  c0,0-3,0.8-3.5,1.2c0,0-2.3,2-4,1.3c0,0-3-1.2-6.8,3.8l-2.3,1.8c0,0-7.2-0.5-6.8-3.8c0,0,2.3-5.8,0-7.7c0,0-4-2.3-5.7-0.2  c0,0-3,4.5-5.3,3.8c0,0-2.5,0.3-1.3-2c0,0,1.5-5.5-1.5-3.2c0,0-7,4.5-8.7,4c0,0-4.7,0.7-7.3-1.3c0,0-4.2-2.8-9.7-4.2  c0,0-5.8-0.3-8-1c0,0-6.3-2-8.7-1.8c0,0-5.8,1-5,3.2c0,0,1.5,2.5,3,2.8c0,0,1,1-1,2.2c0,0-4,2.7-5.2,1.5c0,0-1.3-1.7-2.8-2  c0,0-3.7-1.5-7,0.3c0,0-3.7,3.8-4.7,4.3c0,0-5.5,3.5-6,4.3l-2,1.8c0,0-0.3-3.3-2.3-2.5c0,0-3.2,2-3-1.2c0,0,0.3-3.8-4-7.2  c0,0-1.7-0.5-3,0.8c0,0-3,0.2-1.8-2.7c0,0,3.2-4.5,2.7-5.5l-1.5-3.2c0,0-2-2.5-1-3.3l5-2c0,0,2.8,1,3.2,0.8c0,0,1.7-1.7,1.8-1.8  c0,0,1-1.2,2.8,0.2c0,0,1.2,0.3,2.5-0.2c0,0,1.2-0.3,2.2,1c0,0,1.5,1.8,3.5-0.5c0,0,3.7-5.3,5-5.7c0,0,5.5-1.2,6.2-2  c0,0,0.3-5.2,0.8-5.7c0,0,0.8-3-3.5-5.3c0,0-0.7-1-5-1.3c0,0-1-0.5-0.5-1.8c0,0,1-3-1.7-2.3L628.3,596z" id="path25" stroke="#FFFFFF" name="湖北" stroke-miterlimit="10"/>
<path fill="#E3E3E4" stroke-linejoin="round" d="M606.7,587.2c0,0,3.5,0.7,6,2.7  c0,0,4.2,3,5,2.8c0,0,1.5-0.3,4.7,2.8c0,0,3.3,2.6,7.2,0.1c0,0,2.7-1.7,3.2,0.5c0,0-0.7,3,0.5,3.2c0,0,4.6-0.8,7.5,4.2  c0,0-0.5,4-0.8,4.5c0,0,1.5,3.9-0.3,4.3c0,0-6.7,0.5-8,3.2c0,0-3.3,7.2-5.7,4.5c0,0-0.5-1.5-3-0.7c0,0-1.2,0.7-2.3-0.7  c0,0-1.8-0.5-2.7,1c0,0-1.5,2-3.7,0.3c0,0-1.7-0.2-2.3,0.7c0,0-2.3,1-2.7,1c-0.2,0-1.7,0.3-0.5,1.8c0,0,2,4,2.2,4.3s0.1,1.1-1.9,3.6  c0,0-3.2,4.2-1,4.7c0,0,1,0.3,2.3-0.7c0,0,2.8-0.9,3.6,0.3c0,0,2,2.6,2.7,5.3c0,0-0.2,4.5,1.7,3.5c0,0,2.3-1.8,3,0.2l4.6,6.2  c0,0,1.2,2.3,0.2,4.2c0,0-1.3,3.5,0.5,7l-1.3,3c0,0,0.3,3.2-1.3,3.8c0,0-1.7,1.3-3.7,0.2c0,0-1.5-0.2-2-0.7c0,0-1.3-2-1.2-2.7  c0,0-0.3-0.5-1.3,0.3c0,0-1.8,1-1.7-1c0,0,0.7-5-1.3-4.2c0,0-4.8,1.8-4-2.2c0,0,0.7-4,0.2-5c0,0-1-3-1.5-3.3c0,0-5.3,2.2-7.3,2.7  c0,0-4.2,1-4-1.2c0,0,1-2.3-1.7-1.8c0,0-4.8-0.3-5.5,0.5c0,0-0.8,0.3-0.3,3c0,0,1.5,1.2,0.5,3c0,0-1.7,2.3-4.2,0c0,0-2-2.2-3.7-0.2  c0,0-2.8,1.7-2.7,2.8c0,0,1.7,2.5,0.3,2.7c0,0-2.8,1.2-3.3,2c0,0-2.3,1-2-1.2c0,0,0-3-0.7-3.8c0,0-2.5-2.2-2.5-0.7  c0,0,2,3.3,0.5,4.3l-1.7,0.7c0,0,0.2,0-0.3-1.2c0,0-2.8-5.8-3.5-6.5c0,0-2.2,0.2-3-0.8c0,0-3,1-3.2-0.2l-4.2-7.2  c0,0-0.2-0.7-1.3,0.3c-1.2,1-2,0.8-2.5-0.5s-2.7-5-3.2-5.2c0,0,0.5-1,1.8-1.3c0,0,2-1.3,2.8-1.3c0,0,2-2.5,2.8-3  c0,0,1.3-1.8,0.5-3.5l-3.2-2c0,0-1.2-0.7,0.3-1.5c0,0,1.7-0.7,2-1.8c0,0,2-3.7,5.5-2.3c0,0,5.2,3.7,6.8,3c0,0,4.5-2.2,5.3,0.2  c0,0,2.8,5.8,5.3,4.5c0,0,3.2-0.8,5.7-3c0,0,2.2-3.2,2.5-4.3c0,0,0.3-2.5,1.8-3.5c0,0,1.8-2,1.2-3c0,0-0.8-1.5,0.3-2.8  c0,0,1.3-1,3-0.8c0,0,4.5,1.3,5.5-0.8l2-4.7c0,0,0.7-3.5,1.3-4.5c0,0,2.8-4.2,3.3-4.5c0,0,2.3-2,3.3-2.5c0,0,1.2,0,0.2-1.7  c0,0-4.3-2.8-4.7-3.8c0,0-0.5-1.3,1-1.8c0,0,2,0,1.7-3.3L606.7,587.2z" id="path26" stroke="#FFFFFF" name="重庆" stroke-miterlimit="10"/>
<path fill="#E3E3E4" stroke-linejoin="round" d="M548.9,682.9l0.3-2.5c0,0,2.3,0.7,3,0.8  c0,0,1.5,0.5,3.8,0.3c0,0,3.8-1.7,5.6-1.7c0,0,4.3-0.5,5.8-1.7c0,0,1-0.7,0-1.8c0,0-3-4.8-3.3-5.1c-0.3-0.3-2.5-1-3.2-0.7  c0,0-1-1-1.5-1.3c0,0-5.6-3.8-4.9-4.6c0,0,0.3-2.3,3-2.5c0,0,2.5-0.7,2.8-1.5c0,0,0.8-0.5,2.2,0.3c0,0,1.8,1,2.5,1.7  c0,0,2.3,1.8,4.6,0.5c0,0,1.5-0.2,2-0.3c0.5-0.2,1-1.5,0-3.2c0,0-1.3-2.2,0.2-1.8c0,0,2.5,1.3,2.3,2.3c0,0-0.3,4.3,0.5,4.3  c0,0,1.5,0.2,3.5-1.5c0,0,2-0.7,1.5-1.7c0,0-1.8-1.5-0.3-2.5c0,0,2.3-1.8,2.7-2c0,0,1.3-1.7,3.5,0.5c0,0,2.7,2.5,3.8-0.2  c0,0,1.2-1.8-0.7-3.2c0,0-0.2-2.2,0.2-2.3c0,0,1.3-1.2,3.2-1c0,0,3,0.2,3.7-0.3c0,0,1.2,0.2,0.7,1.3c0,0-0.2,1.8,1.2,2  c0,0,3,0.3,6.6-1.7c0,0,2.7-1.7,3-1c0,0,1.2,3,1.5,3.6c0,0,0.3,2-0.2,3.6c0,0-0.5,3.3,0.3,3.3c0,0,1,0.3,2,0.3c0,0,2.3-0.8,2.8,0.2  c0,0,0.3,4.9,0.8,4.9c0,0,1.2-0.5,2-0.5c0,0,1.3,2.8,1.5,3.2c0,0,2.7,0.7,3.3,0.8c0,0,2,0.2,3.2-1.5l0.2-2.8l1.2-3l2.8,5.3  c0,0,0.2,1.5-0.8,4.1c0,0-0.5,3,1.2,5.6c0,0,3.3,4.1,0,5.4c0,0-3.3,3.2-3.3,3.9c0,0-1.3,2.8-2.8,3.6c0,0-3.5,2.7-3.3,3.2  c0,0,0.7,0.8,3.2-0.3c0,0,5.8-2,7.3-1.5c0,0,2.3-0.3,3.2,2c0,0,1.7,2.8,0.2,4.4c0,0-3,2-2.5,4.9c0,0,0.7,2.3-0.5,3  c0,0-2.2,1.5,0.3,2.2c0,0,2,0,2.7,3.8c0,0,1.3,2.2-0.3,2.8c0,0-1.5,2-2,2.8c-0.5,0.8-2,1.3-3.7,0.8c0,0-4.2-0.8-3.8,1  c0,0-0.7,1.3,2.2,1.8c0,0,2,0.3,0.3,2.2c0,0-0.5,1.7-2.3,1.5c0,0-3,0.3-3.2-0.8c0,0-1.2-2.3-1.8-2.3c0,0-1.5,1.5-1.5,2.8  c0,0-0.2,0.8-0.5,2c0,0,0.2,1.8-1.2,1c0,0-3.3-2-5.1-1.8c0,0-1-0.5-2.5,2.3c0,0-1.8,3.9-5.4,4.3c0,0-3.8-0.3-5.9-2  c0,0-3.5,0-4.2-1.2c0,0-3.5-3.9-4.9-4.6c0,0-2.3-1.2-4.8,0.5c0,0-2,0.8-1.3,5.9c0,0-0.3-0.8-6.1,2.3l-6.8,2.7c0,0-1.8,0.7-2.7,3.8  c0,0-0.5,3.8-3,2.7c0,0-8.6-2-9.1-2.7c0,0-5.8-2.5-8.3-2.3l-7.2,4c0,0-6-0.2-4.4-1c0,0,2.8-2.3,2.3-3.3c0,0-1.5-2.2,0-3.2  c0,0,3.5-0.9,1.3-2.9c0,0-1.1-0.5-2.7-2.7c0,0-2.7-1.7-3.3-1.7c0,0-1-2.3-2-2.8c0,0-2.6-0.9-1.1-3c0,0,3.1-4.3,2.8-6.3  c0,0,0.1-1.2,1.3-1.8c0,0,2.3-2.6,0.8-6.5c0,0-1.1-1.9-1.9-1.9c0,0-0.9-4.4-2-2.9c0,0-0.5,1.7-2.8,1.8c0,0-2.5,0.5-3.8,1.7  c0,0-3.8,2.2-4.5,0.4c0,0-0.5-0.5-1.3-2.6c0,0-2-2-1.3-2.7c0,0,2.5-2.8,0.3-3.6c0,0-1.9-1.3,0-3.4c0,0,3.8-5.3,5.6-5.1  c0,0,1.8,3.9,4.2,2.3c0,0,2.7-2.7,3.5-2.7c0,0,1.3,0.2,4.2,3c0,0,4-0.2,5.9-1.2c0,0,2.7-1.7,4.9-0.7c0,0,2.2,1.7,2.7-0.8  L548.9,682.9z" id="path27" stroke="#FFFFFF" name="贵州" stroke-miterlimit="10"/>
<path fill="#E3E3E4" stroke-linejoin="round" d="M621.7,646.6l3.5-2.9l5-3.4l4-4.1  c0,0,3-2,7.2-0.3c0,0,1.8,0.3,2.2,1.3c0,0,1,1.5,2.8,0.8c0,0,4.7-2.3,4-3.6c0,0-5.8-3.6-1.8-5.1c0,0,4-1.8,6-1.2l7.7,2.2  c0,0,8,0.5,9.3,1.3c0,0,2,0.5,9.3,4.8c0,0,4.8,1.2,8.7-0.8c0,0,5-3.4,6-3.4c0,0,1.3-0.3,1,1.5l-0.5,3.6c0,0-0.2,0.8,2,0.5  c0,0,2.3-0.2,4.8-4.3c0,0,1.5-1.7,4-0.5c0,0,2.7,0.5,2.7,3.3c0,0,0.3,2.9-0.3,3.9c0,0-1.3,2.7,0.2,4.1c0,0,2.8,1.5,5,1.2  c0,0,1.7-0.7,1.7,1c0,0,1,2.5,2.5,3.3c0,0,2.3,1.2,1.7,3.6c0,0-0.7,2.3,1.3,4.1c0,0,3,2.2,1,3.8c0,0-4.5,4.1-5.3,5.8  c0,0-5.3,5.9-5.3,9.5c0,0-0.8,5.4,1.7,5.3c0,0,4.3-3.1,3.5-0.3c0,0-2.3,4.4,0,6.6c0,0,1.3,1.3,0.8,4.3c0,0-0.8,2,3.7,3.9  c0,0,3.5,0.5,2.3,2c0,0-2.7,4.6-2.5,5.4c0,0,0.5,1.8,2.8,1.7c0,0,2.5-1.2,1.3,0.8c0,0-4.2,6.3-4,7.8c0,0,0.3,5.3,1.7,5.6l-2,1.5  c0,0-4.5,2-7.3,0.5c0,0-5.3-2.3-7-1c0,0-2.3,3.1-3.7,3.4c0,0-3.5,0.5-1,1.7c0,0,3.5,0.5,2.7,4.4c0,0-0.2,5.6-4.5,1.8  c0,0-5.5-4.9-11-3.8c0,0-3.2,1.5-1,7.1c0,0-1.7,1.5-4.2,1.7c0,0,0.8-0.7-0.3-0.7c0,0-3.8-0.3-4.8,0.8c0,0-4,2.3-4.5-0.5  c0,0-0.5-4.8-2.3-6.1c0,0-3-0.8-4.2,0.3c0,0-2.3,3.1-3.3,3.1c0,0-3.5,0.8-1.2-2.5c0,0,2-2.5,2.5-2.9c0,0,2.5-2.2,3-3.9l2.5-9.7  l-1.5,0.2c0,0-3,1.2-2.5-3.4c0,0,2.2-3.8,0.3-4.8c0,0-3.3-3.1-5.7-1c0,0-3.3,2.3-6.7,1.2c0,0-1.5-0.7-2.2,1.3c0,0-1.8,4.6-5.7,4.3  c0,0-6-3.9-7-1.8c0,0-1.4,5.8-2.7,4.3c0,0-1.6-1.7-3.6-1.5l-0.2-0.8l-1.3-4.6c0,0-4.5-1-2.3-2.5l1-2c0,0-0.5-3.3-0.2-3.9  c0,0,1.8-2.1,2.8-2.6c0,0,0.9-2.4-0.6-4.8c0,0-0.3-2.2-5.1-1.2c0,0-5.9,1.2-6.7,1.9c0,0-3.1,0.2-0.9-1.3c0,0,5-4.5,5.7-6.6  c0,0,2.3-3.8,4-4.3c0,0,1.5-1.2-0.2-3.8c0,0-2.7-4.6-1.5-7.3c0,0,1.5-2.7,0.2-4.9c0,0-4-5.9-3.2-8.1c0,0,1.7-5.8,0.3-7.4  L621.7,646.6z" id="path28" stroke="#FFFFFF" name="湖南" stroke-miterlimit="10"/>
<path fill="#E3E3E4" stroke-linejoin="round" d="M717.3,645.5c0,0,2-1.7,2.2-1.8  c0.2-0.1,3.2-4.4,5.9-3.9c0,0,2.7,0.8,3.7-1c0,0,2-0.7,2.9-0.7c0,0,3.1-1.2,6.2-5.3c0,0,0.8-1.2,3.2-1.2c0,0,4.4-0.2,4.6-4.1  c0,0-0.5-0.8,6.6-0.3c0,0,5.4,0.8,9-2.5c0,0,5.6-4.8,7.2-4.4c0,0,2-0.2,1.5,2c0,0-1.7,5.1-2,5.6c0,0-0.7,1.7,2.7,2  c0,0,2,0.7,2.9-0.7c0,0,1.7-3,1.5-3.5c0,0,0.3-3.5,1.8-3.3l4.6,2.7c0,0,1.7,1.7,2.2,2.8l3.2,0.8c0,0,2.3-1,2.5,0.2  c0,0,1.3,1.5,4.2,1.3c0,0,2.5,0.7,3.9,2.7c0,0,2.3,1.8-0.7,2c0,0-3.1-0.3-2.7,1.3c0,0,0.7,2.5,2.8,3.9c0,0,1.8,1.7,2.5,1.8  c0.7,0.2,2.7,1,2.8,2.5c0,0,2.7,4.6,2.3,5.8c0,0-0.2,3.5-1.3,5.4c0,0-2.2,4.1-6.9,5.3c0,0-1.3,0.5-2.2,1.8c0,0-3.1,3.3-3.7,1.8  c0,0-0.3-3.3-3.6-1.8c0,0-3.4,1.8-5.4,4.9c0,0-3.2,2.2-2.5,3.9c0,0,3.6,3.3,2.7,6.1c0,0-0.7,3.5-6.7,6.6c0,0-3.9,1.5-3.2,6.1  c0,0,1.5,4.4,1.7,5.3c0,0-0.8,2.5-2.2,2.7c0,0-2.2,2-0.3,3.9c0,0,0.3,2.8-2.2,4.1c0,0-3.4,1-2.5,2.8c0,0,0,1.3-1,2.7  c0,0-1.8,1.7-1,5.9c0,0,0,2-1.3,3.2c0,0-1,2.2,0,4.8c0,0,1,1.3-0.5,2.3c0,0-2,1-1.8,3.5c0,0-1,4.4-2.2,3c0,0-3.4-4.1-6.6-2.3  c0,0-7.6,2.2-8.5,3.2c0,0-4.6,3.8-7.9,3.3c0,0-6.2-0.8-5.1-4.6c0,0,1.5-0.2,3.1-4.9c0,0,2-2.2,2.7-2.7c0,0,3.7-3.2,1.2-5.9  c0,0-2.2-1.5-3.1,0.2c0,0-1.8,1.3-4.9,1.3c0,0-2-0.2-2.7,1.2c0,0-2,2-2-1c0,0,0-2.3-1.8-3c0,0-2.2-4.1-1-6.3l4.2-7.8  c0,0-6.1,0.5-4.2-3l2.7-5.1l-1.7-0.7c0,0-5.4-1.5-4.6-4.4c0,0,1-3.3-1.3-4.8c0,0-1.2-2.5-0.2-4.1c0,0,2.2-4.6-1.3-2.8  c0,0-3.2,3.9-3.4-2.7c0,0,0.7-6.1,6.6-12l4.9-5.4c0,0-0.2-1.3-1.7-2.7c0,0-2-1.3-1-4.4c0,0,0.2-2.5-2.2-3.2c0,0-2.9-2.3-2.5-3.8  L717.3,645.5z" id="path29" stroke="#FFFFFF" name="江西" stroke-miterlimit="10"/>
<path fill="#E3E3E4" stroke-linejoin="round" d="M804.2,655.5c0,0,1.7,0.3,3.3-0.3  c0,0,2.7-1.5,3.7,0.5c0,0,1.3,3.4,1.3,5.1c0,0,0.8,2.2,3.8,5.3c0,0-0.2,3.4,0.2,3.4c0.3,0.2,5.8,2.2,8.8,0c0,0,3.3-2.6,3.8-3.7  c0,0,1.5-2.2,2.7-0.5c0,0,0.3,5.8,2.3,5.8c0,0,1,0.7,6.5-1.9c0,0,5.2-2.2,6.2-0.5l1.2,2.4c0,0-2.3-0.7-4.5-0.8c0,0-1.8,0.3,0.2,1  c0,0,4,0,3.5,1.7c0,0-0.3,1.5-2.8,1.9c0,0-1,0.5,0.2,1.5c0,0,1.7,1.3-1,1.3c0,0-4.5,1-1.7,1.9c0,0,3.7,1.2,1.5,2.9  c0,0-3.3,2.9-3.8,2.4c0,0-1.5,0.5,0-1.7c0,0,1.8-3.2-0.5-2.1c0,0-1.5,2.7-1.8,0.2c0,0-0.3-2.1-1.3-0.2c0,0-0.5,1.2-1.2,0.3  c0,0-0.7-0.8-1.2,0.2c0,0,0,1-1,0.3c0,0-1-0.7-0.7,0.7c0,0,0.2,2.4,2,2.2c0,0,2.8-1.2,3.5,1.8c0,0-0.2,1.9-2.7,1.2c0,0-3.3-0.2-1,1  c0,0,2.2,1.3,2.7,0.8c0,0,2.3-1.9,3.2,0.2c0,0,0.5,1.8-1.7,1.7c0,0-2.7,0.2-2.8,1c0,0-1.7,5.1-5.7,3.9l-1.8-0.3l0.3,0.7  c0,0,2.5,1.8,4.2,1.5c0,0,1.3-2.6,3.5-2.2c0,0,2.2,0,1.8,1.5c0,0-1.2,0.3-1.2,1.3c0,0,0,1.7-0.3,2.2c0,0-0.8,1.7-1.8,2.2  c0,0-1.3,1.3,0.2,1.9c0,0,2.2,0.8,2.5,1.7c0,0,1.5,1.5,0.5,2.9c0,0-1-1.7-2.3-1c0,0-1.8-0.7-2.5-1.7c0,0-1-2.2-1.5-1.5l-3.3,3.6  c0,0-0.7,0.2,1.5,1.9c0,0,0,0.8,1.8,0.5l1.5,0.7c0,0-1.5,2.9-4.2,1c0,0-0.5,0-0.3,0.7c0,0,0.3,2.2-1.5,1.2l-1.3-2.4  c0,0-0.8-0.8-1.5,0.2c0,0-1,0.7,0.5,1.7c0,0,1.8,1.7,0.2,1.7c0,0-3.3-0.2-1.7,1.3c0,0,1,0.7,2.3,0c0,0,1.8-0.7,2,0.2  c0,0,0.5,0.8-0.5,1.3c0,0-1.7,0.7-1.3,1.8c0,0,0.7,0.5-1.7,0.5c0,0-5-0.3-3.3,0.8c0,0,3,2.1,1.7,2.4c0,0-0.7,0.3-0.7,1.3  c0,0,0.2,1.8-1.3,2.4c0,0-1.7,0.8-1.7-0.5c0,0-0.5-0.8-1.3-0.8c0,0-2.8-1.5-2.7-3.1c0,0,0.2,3.4-0.8,3.7c0,0-4.2-0.2-3.5,0.8  c0,0,0.7,1.5,3.3,0.5c0,0,2.3-1,3,0.3c0,0,1,2.6-0.5,1.7c0,0-0.7-0.8-1.8,0.8c0,0-1.2,0.7-3.8-1.2c0,0-2.5-2.9-3-2.1  c0,0-0.7,0.7,0.5,1.7c0,0,0.8,0.7-3,0.7l-2.7-0.5l0.7,1.5c0,0,1.2,0.8,2.3,1c0,0,1.3,0.2,1.8-1l3.3,1.3c0,0,1,1.9-0.5,1.9  c0,0-1.2-0.3-1.3,0.2c0,0-0.5,1.2-1.3,0.2c0,0-0.8-1-0.8,1.3c0,0-0.7,4.4-2.8,5.3c0,0-1.3-3.9-1.7-3.4v2.7l-0.2,3.6  c0,0-1,0.5-1.2-0.8c0,0,0-1.8-3.3-2.1c0,0-1.2-0.2,0,1c0,0,2.5,1.5,0.3,1.7c0,0-2.7,0-3.5,2.6c0,0,1,2.1-2.3,2.1h-0.8l-1.7-2.4l-2-8  c0,0-0.3-5.1-5.3-7.8c0,0-2.8-1.5-4.8-1.5c0,0-2.2-1.3-2.5-2.4c0,0-0.5-0.7-2.7-0.2l-3,0.2l-5.7-0.8c0,0,0.5-0.5,0-2.2  c0,0-1.5-2.9,0-4.4c0,0,2-1.7,1-3.6c0,0-0.8-3.1,1.2-5.3c0,0,1.2-1.3,0.8-2.6c0,0-0.2-1.2,2.2-1.9c0,0,2.8-1.5,2.3-4.6  c0,0-1.3-1.7,0.5-3.2c0,0,3-1.7,2.2-4.1c0,0-3-4.9-1-7.3c0,0-0.7-0.8,8-5.5c0,0,3-3.6,1.5-5.8c0,0-3.7-3.2-2.7-4.7l4.5-4.6  c0,0,2.2-2.6,5.8-2.9c0,0,1.8,2.6,2.8,1.9c0,0,2.7-2.7,4.2-3.1c0,0,5-1.7,6-4.2L804.2,655.5z" id="path30" stroke="#FFFFFF" name="福建" stroke-miterlimit="10"/>
<path fill="#E3E3E4" stroke-linejoin="round" d="M569,757.6c0,0,0.8,2.2-0.3,8.8  c0,0-0.5,2.2-2.2,1c0,0-3.4-1.2-4.1,0.1l-2.4,1.7l-4,1l-1.5,0.8l1.8,2.2l4.8,3.5c0,0,9.7,0.3,11,0.7c0,0,5.4,0.5,7.5,2  c0,0,2.7,0.8,1.7,2.7c0,0-4.7,5.2-3.2,7.3c0,0,2.4,2.5,1.9,4c0,0-1.2,3.2,2.7,3.7c0,0,2.7-0.2,6.8,4.3c0,0,2.4,2.5,8.6,2.2l3.4,1  c0,0,0.2-4.5,1.5-2.3c0,0,1.3,2,2.7,1.7c0,0,1,1,1.9,0.5c0,0,1.5,0,1.9-0.7c0,0,2.1-3.2,1.8-0.8c0,0,0,3.2,1,1c0,0-0.2-4,1.3-2.5  c0,0,1.7,0.7,1.2,2.7c0,0,0.7,0.3,1.9-0.5c0,0,2.2-1.3,0.7-2c0,0-1.7-0.7-1-1.7c0,0,0.2-0.7-0.5-1c0,0-1.5-2.3,0.2-1.7  c0,0,2.1,1.3,2.6,3c0,0,2.2,2.8,3.4,3c0,0,1.8,0.5,1.3-1.5c0,0-1.8-5.5,1.2-1.7c0,0,1.5,1.8,1.5,2.7c0,0,0.2,0.8,1.7,0.5  c0,0,1.9,0.8,3.2,2c0,0,1.8,1.7,3.7,0.5c0,0,3.1-0.7,3.1-2.8c0,0-0.3-4.2,1-1.5c0,0,0.5,1.5,1.9,1.2c0,0,0.5,1.3,6.5-3.8  c0,0,0.8-2.2,3.9-1.8c0,0,3.9-0.8,4.2-2.7l-0.2-2.7c0,0-0.7-1.8,0.8-1.2c0,0,2.4,1.2,5.5-1.2c0,0,1.5-0.2,1.2-2.5c0,0-1-2.8,1.3-4  c0,0,8.3-4.2,9.7-6.3c0,0,1.7-1.5,1.5-5.8c0,0,0-4-0.3-5.3c0,0-0.7-2.3,2.1-4.8c0,0,2.6-3,4.1-3.3c0,0,1.8-0.8,2.1-2.8  c0,0,1-5,0.7-5.7c0,0,0.8-1.2,1.9-1.5c0,0,2.4-1,0.2-5c0,0-2.2-4-1.5-5.2c0,0-2.2-0.8-4.4,0.2c0,0-4.1,2.7-4.7,1.2  c0,0-0.8-0.5-0.7-1.5c0,0-0.8-5.5-3.2-5.7c0,0-2.9-0.7-3.6,1c0,0-3.2,4.8-4.7,1.7c0,0-0.2-1.3,3.4-4.8c0,0,2.4-1.7,2.7-4.3l2.4-10.1  c0,0-3.6,1.8-3.9-1.7c0,0,0-2.8,1.2-4.3c0,0,0.2-1.2-1.3-1.8c0,0-3.4-2.2-4.1-1.7c0,0-3.4,2.5-4.9,2c0,0-1.5,0.3-2.9-0.2  c0,0-1.5-0.2-2.1,1.8c0,0-1,2.4-4,3c0,0-0.7,1.8-5.3-1.2c0,0-2.4-1-3.4,0.8l-1.3,2.7c0,0-0.6,3.1-2.2,0.4c0,0,0-1-3.6-0.7  c0,0-1.9,1.5-2.1,2.3c0,0-0.5,2.7-3.2,2l-3.2,0.2c0,0-2.9,1-1,2.5c0.7,0.5,2.9,0.7,2.6,1.8c0,0-1.2,3-3.4,2.5c0,0-2.6,0-2.9-1.8  c0,0-1.7-2.7-2.6,0c0,0-1,2-0.8,3.2c0,0,0,2.5-1.7,1c0,0-4.9-3.2-6.1-0.7c0,0-3.5,6-8.2,5.7c0,0-1.9,0-3.9-1.3c0,0-2.4-1.3-3.1-1  c0,0-0.5,1.2-4.1-3.3c0,0-2.9-2.7-4.9-2.7c0,0-4.7,0.3-3.7,7.2c0,0-0.2-1-3.4,1.2l-9,3.7c0,0-1.9,0.3-2.6,3.3c0,0-0.5,4.3-3.7,2.5  l-4.4-0.8c0,0-7.8-2.7-7.8-3.1c0,0-3.5-2.7-8.9,1.5c0,0-1,2.4-6.3,1.3l-1.2-0.3c0,0-0.7-0.4-1,0.9c0,0,0.2,5,3.2,7.7  c0,0,1,1.2,1.9-1.7c0,0,0.2-1.2,4.9,0.2c0,0,6,1.7,6,3.3c0,0-0.8,4.8,2.2,4.7c0,0,2.7-0.3,3.4,0c0,0,3.1,0.5,3.9,0  c0,0,5.1,0.2,6.5,0.3c0,0,1.9-0.2,3,0.3L569,757.6z" id="path31" stroke="#FFFFFF" name="广西" stroke-miterlimit="10"/>
<path fill="#E3E3E4" stroke-linejoin="round" d="M790.8,750.8c0,0-2.5-3-3-6.7  c0,0-1.2-4-0.7-4.7c0,0-2.2-7.3-6.9-8c0,0-4.7-0.8-5.4-3.2c0,0,0.2-0.5-2.7-0.3l-3,0.2l-5.7-1c0,0-1.5,0.8-2,2c0,0-0.8,2.7-0.8,3.3  c0,0-0.5,3-2.3,1.5c0,0-3.7-4-5.6-2.5c0,0-7.4,2-9.1,3.7c0,0-4.9,3.8-7.6,3.5c0,0-5.9-1-5.6-4.3c0,0,1-0.3,1.5-1.3  c0,0,2-4.3,3.8-5.7c0,0,4-3.3,3-5.5c0,0-2-3.7-4.3-1c0,0-2.3,1.3-4.9,1.2c0,0-1.7,0-3,1.5c0,0-1.3,1.3-1.7-1.7c0,0-0.2-2.2-1.5-2.5  l-1.3,1.3c0,0-4.6,1.5-5.4,1.3c0,0-4.9-1-6.9-2c0,0-2.7-0.3-3.7,2c0,0-1,1.7-2.7,2c0,0-3.2,0.5-0.7,1.5c0,0,3.2,0.3,2.7,3.3  c0,0,0.2,5.5-3.3,3.7c0,0-5.4-4.5-8.1-4.7c0,0-4.6-1.2-5.2,1c0,0-1,2.5,0,5.8c0,0-2.3,1.8-3.8,1.5c0,0-0.8,0.7,0.7,3.5  c0,0,2.5,4.3,1.7,5.5c0,0-0.7,1.2-2.3,1.7c0,0-1,0.5-0.7,2.8c0,0-0.2,4.7-1.5,5.7c0,0-5.4,3.8-5.7,4.7c0,0-2.8,2-1.8,4.7  c0,0,1.2,7.7-0.2,9.3c0,0-0.2,1.3-4.3,4.5c0,0-6.2,3.2-7.1,4c0,0-2,1.7-0.5,3.7c0,0,0.3,1.5-0.5,2c0,0-3.8,2.8-6.6,1.5  c0,0-1.2-0.7-0.5,1.2c0,0,1.2,3.8-1,4.3c0,0-4,1.5-4.7,1.2c0,0-1.2-0.2-2.7,1.8c0,0-4.9,4-6.2,3.7c0,0-0.2,2.5,0.2,2.5  c0,0,0.8-0.5,1.3-1.2c0,0,0.3-1.3,1,0c0,0,0.2,1.2,1.7,0.7c0,0,1.5,0.8,0.5,2.3c0,0-3.7,1-3.2,4.5c0,0-0.2,2.2-1.3,3.5  c0,0-1,2.5,0.5,2.7c0,0,1.5,0,1.5,0.8c0,0-0.2,1.5,1.3,1.3c0,0,1.7,0.3,0.2,1c0,0-2.7,1.3,1.2,3.2l3,1.5c0,0,1.7,0.8-0.8,1  c0,0-3.5-0.5-1.3,1.2c0,0,1.7,1.3,3.2,0.7c0,0,5.2,0.2,5.7,0.2c0,0,3.7-1.2,4.9-3.3c0,0,1.8-3.3-0.5-3c0,0-2.3,0.3-3.3-1  c0,0-2.8-2.2-1.2-2.5c0,0,2.3,0.5,1-0.8c0,0-1.5-2.3-3-0.7c0,0-2.5,1.3-1.8-1c0,0,0.5-3-0.2-4c0,0-1.3-2.3,0.7-1.2  c0,0,2.8,0.7,2.8,1.7c0,0-0.7,1.8,0.7,1.7c0,0,3.8,1,4.2,0c0,0,0.3-1.5-1.8-1.8c0,0-2.3-2.3,0-2c0,0,2.8,1.5,3.2,0.8  c0,0,1.5-1.2-1.3-1.3c0,0-2.7,0.2-3-1.8c0,0-1.2-5,0.2-2c0,0,0.7,3.8,4,2.5c0,0,2.5-3.2,3.7-3.2c0,0,4.7,0.3,4.9-0.2  c0,0-1.7-3,0.7-2.5c0,0,1.5,0.5,1.7,0.8c0,0,0.2,1.3,1,0c0,0,1.3-2.3,1.8-0.5c0,0,0.7,1,1.3,0.5c0,0,1.8-1.7,2.2-2.3  c0,0,1.7,0.8,2.3,0.5c0,0,1.8-1.2,2.8-1c0,0,2.7,0,1.3-2.2c0,0-2.3-3.5,0.5-2.5c0,0,1.8,1.3,2.7,3.5c0,0,1.3,2,1.8-0.8  c0,0-2.3-3.8,1.5-3.7c0,0,0.8,0.7,1.7-0.3c0,0,1.3-1.2,1.7,0.3c0,0,0.8,3.8,2.5,1.3c0,0,0.7-1.7-0.2-5c0,0,0-1.5,0.7-0.3  c0,0,0.7,1.3,2.3,0.3c0,0-1.2,1.8-1,2.3c0,0,1.3,2,2.8,1.8c0,0,3.2-3,4.2-3.7c0,0,0.8-0.5,1.8,0.2c0,0,3.2,1.7,3.3-0.7  c0,0-1-4,1.8-4.8c0,0,0.3,1.5,0.7,2.3c0,0,0.7,2,1.8,1c0,0,1.5-2.7,2.3-2.7c0,0,3.3-4.7,3.5-6.3c0,0,0.5-4.8-1.7-5.8  c0,0-3.7-1.8-2.7-2.8c0,0,3.7-0.7,1.8-2.3c0,0-1.5-1.2-3.3-1.2c0,0-2.5-0.5-2.2-2.3c0,0,3,1.3,3.8,1.3c0,0,2.2-0.8,3,0.8  c0,0,2.3,4,2.3,4.5c0,0,1.3,1,2.2,1.2l2.2,3.7c0,0,4.3,2,6.9,0.5c0,0,3.8-2.2,6.4-0.8c0,0,1,1.8,2.7,1c0,0,1.7-0.7,0.2-1.3  c0,0-2-1-0.2-1.2c0,0,0.7-1,0-1.8c0,0-2-1.2,0.3-1.7l3.8-0.8l-0.3,2.5l1,1.8c0,0,2.8-0.7,2.8-2.3c0,0-2.3-2.5,0.2-1.8  c0,0,3.3-0.3,4.3-1.2c0,0,1.3-1.2,1.7-1.8c0,0,1.7-1,1.3,0c0,0-2,1.7-0.7,2.2c0,0,3.8,1.7,5.1,1.3c0,0,1.8,0.3,1-1.8  c0,0-0.7-1.3-1-1.3c0,0-1.7-1.2,0.2-1.7c0,0,0.8,0.3,2.8-1.2c0,0,0.8-0.3,1,1.7c0,0,0.8,2,1.7,2c0,0,2.3-1.3,2.8-1.3  c0,0,1.3,0,1.7-1c0,0-0.2-2.8,1.5-1.7c0,0,1.7,1.2,2.7,0c0,0,0.3-1.2,2-0.5c0,0,4,0.5,4.7-3.2c0,0,0.3-1.7-1.5-3.2  c0,0-0.2-0.3,1.3-0.3c0,0,2,0.5,0.7-0.7c0,0-2.7-2.8-0.3-1.8c0,0,1.3,0.3,3.2-1.5c0,0,2.7-4.5,3.5-3.7L790.8,750.8z" id="path32" stroke="#FFFFFF" name="广东" stroke-miterlimit="10"/>
<path name="香港" fill="#E3E3E4" id="path33" d="M728.9,775.7l7.5-0.7c0.7,0,1.5,0.5,1.5,1.5v4.9  c0,0.7-0.5,1.5-1.5,1.5h-8.2c-0.9,0-1.5-0.7-1.3-1.6l0.7-4C727.8,776.3,728.3,775.7,728.9,775.7z" stroke-miterlimit="10" stroke="#FFFFFF"/>
<circle fill="#E3E3E4" r="4.3" cx="719.7" id="circle0" cy="787.2" stroke="#FFFFFF" name="澳门" stroke-miterlimit="10"/>
</svg>