<?xml version="1.0" encoding="UTF-8" standalone="no"?><!-- Generator: Adobe Illustrator 18.0.0, SVG Export Plug-In . SVG Version: 6.00 Build 0)  --><svg xmlns="http://www.w3.org/2000/svg" xmlns:xlink="http://www.w3.org/1999/xlink" contentScriptType="text/ecmascript" zoomAndPan="magnify" contentStyleType="text/css" id="图层_1" mapName="云南省" mapType="省市地图" enable-background="new 0 0 800 600" version="1.1" xml:space="preserve" preserveAspectRatio="xMidYMid meet" viewBox="0 0 800 600" x="0px" y="0px">
<path name="楚雄" fill="#D3D3D3" id="path0" d="M427.2,315.2c-1.9-0.6-4.1-1.3-2.9-3.3c1.2-2,2.4-1.2,3.8-1  c1.4,0.2,4.4,0.1,6-1.5c1.6-1.6,2.6-3,2-4.6c-0.6-1.6-0.7-3.2,0.5-4c1.2-0.8,1.9-2.6,0.7-3.7c-1.2-1-3-4.9-1.6-6.2  c1.4-1.3,5.8-4,5.9-5.3c0.1-1.3-1.2-9.5-3.4-11.4c-2.2-1.9-4-3.3-4-5.6c0-2.3,0-9.1-0.8-11.2c-0.8-2.1-1.5-4.7,0.2-5.8  c1.7-1.1,5.4-2.8,2.2-7.8c-2.6-4.1-5-8.1-5.7-9.4c-1.7,0.8-3.4,1.6-4.3,2.2c-2,1.3-3.7,4.1-4.9,6.6c-1.1,2.4-4.3,0-6.9-1.1  c-2.6-1.1-3.3-2.4-6.3-0.4c-3,2-1.9-0.7-4.7-0.1c-2.9,0.6-1.3,0-3-4.9c-1.7-4.9-7.1-3-9.1-3c-2,0-2.3-0.9-2.3-3.3s-0.7-2.9,2.9-3  c3.6-0.1-0.6-4.9-1.9-7c-1.3-2.1-0.9-2.9-2.9-2.9c-1.5,0-4.1-2.8-6.1-4.1c0.3,1.1,1.1,4,0.8,5.7c-0.4,2.2-3.6,2.2-5.9,3.6  c-2.4,1.4-7.4,1.4-12.2,1.2c-4.8-0.1-13.2,8.3-15.1,11c-0.4,0.6-0.8,1-1.2,1.3c-0.1,2-0.4,7.2,0.5,7.9c1.1,0.8,0.8,1.8-0.4,2.7  c-1.2,0.9,0.3,2.6,1.2,3.6c0.9,1,2.5,1.8,1.6,3.7s-4.7,4.6-3.8,5.6c0.9,1,2.7,2.7,2.4,4.9c-0.3,2.2-2,4.8,0.7,6.2  c2.7,1.3,2.5,1.6,2,3.2c-0.4,1.7-1.5,1.2-1.6,2.8c-0.1,1.6,0.3,5.3-1.1,6.3c-1.5,1-0.9,1.8,0.3,2c1.2,0.2,3.7,2.4,4.3,3.8  c0.6,1.5,1.1,3.1-0.3,3.4c-1.5,0.2-1.8,0.2-2,2.2c-0.2,2-1.7,5.4-4.6,4.3c-2.9-1.1-5.6-2.6-5.6-0.9c0,1.7-0.7,2.1-2,3.2  c-1.3,1.1-1.9,4.9-2,7.1c-0.1,2.1-0.6,3,0,4.3c0.6,1.2,1.5,2.6-0.8,2.7c-2.2,0.1-1.5,1.9-0.2,3c1.2,1.1,1.5,1.1,1.1,3.8  c-0.3,2.6-1,6.7-1,8.1c0.7,0.3,1.4,0.7,1.8,1.2c1.2,1.5,4,2.7,5.7,1.4c1.8-1.3,3.3,0.6,4,2.1c0.7,1.5,5.9,11.6,8.6,15.8  s10.3,11.7,12,11.7c0.2,0,0.4,0.1,0.6,0.2c1.3-0.7,6-3.3,7.9-4.7c2.2-1.6,4-0.3,4,2.4c0,2.7,1.7,8.9,3.4,8.1c1.6-0.9,5.7-4,7-6.7  c1.3-2.7,4.2-5.2,6-1.6c1.8,3.6,3.2,6,8.2,6.1c5,0.1,9.6-1.8,9.7-4.4c0.1-2.5,0.8-8-0.4-8.7c-1.2-0.8-7.1-2.3-5.9-6  c1.2-3.7-1.3-4.3,0.7-5.3c2.1-1,1.9-1.9,0.7-1.8c-1.2,0.1-3.4,1-3.2-0.3c0.3-1.4,3.7-1.4,3.3-3.4c-0.3-2.1-1.7-3.7-0.3-4.4  c1.4-0.7,4.5-2.4,3.6-4.6c-0.9-2.2-1.7-3.8-0.3-3.4c1.5,0.3,5.1-0.5,6.3-2.1c1.2-1.5,1.5-1.7,3.5-1.3c2.1,0.4,3.7,0.8,4.4,0.5  c0.2-0.1,0.4-0.2,0.8-0.3C427.8,319.4,428.8,315.7,427.2,315.2z" stroke-miterlimit="10" stroke="#FFFFFF"/>
<path name="昆明市" fill="#D3D3D3" id="path1" d="M504.5,326.1c0-2.1-2.6-2.9-3.6-3.9c-1-1-2.8,2-5,3.8  c-2.3,1.8-3.4-2-3.8-6.2c-0.4-4.2,1.1-5.3-0.3-7.3c-1.4-2-1.3-3.2,1.1-3.8c2.4-0.6,1.3-1.9,1.4-4.8c0.1-2.9-2.4-1.9-5-0.4  c-2.6,1.5-1.8-10.8-1.5-13.5s-1.4-11-0.1-12c1.3-1,2.3-2.9,2.3-4s4.7-4.8,6.5-5.8c1.9-1-0.1-2.6-0.9-4.3c-0.8-1.6-7.2-2.4-8.4-3.4  c-1.3-1,1.5-13,1-15.8c-0.5-2.8-1.9-9.8-2.8-11.7c-0.9-1.9-2.5-0.4-4.7-1.3c-1.9-0.8-3.2-15.4-3.5-18.2c-0.6,1-1.8,1.9-2.9,2.7  c-2.1,1.4-1.3,4-1.3,6.3c0,2.3-6.7,2-8.4,2.1c-1.7,0.1-6.3,4.1-8.1,6.9c-1.9,2.7-2.4,1.4-5.1,0.3c-2.7-1.1-1.1-2.3-0.1-5.1  c1-2.9-1-3.1-3.1-2.9s-5,2.3-7.3,3c-2.3,0.7-5.1,1.7-6.1,4c-0.5,1.2-2.5,2.4-4.5,3.4c0.8,1.3,3.1,5.3,5.7,9.4c3.2,5-0.5,6.7-2.2,7.8  c-1.7,1.1-1,3.7-0.2,5.8c0.8,2.1,0.8,8.9,0.8,11.2c0,2.3,1.8,3.7,4,5.6c2.2,1.9,3.5,10.1,3.4,11.4c-0.1,1.3-4.5,4-5.9,5.3  c-1.4,1.3,0.4,5.2,1.6,6.2c1.2,1,0.5,2.9-0.7,3.7c-1.2,0.8-1.1,2.4-0.5,4c0.6,1.6-0.4,3-2,4.6c-1.6,1.6-4.6,1.7-6,1.5  c-1.4-0.2-2.6-1-3.8,1c-1.2,2,1,2.7,2.9,3.3c1.6,0.5,0.6,4.1,0.3,5.2c1.1-0.4,2.8-0.4,3.1,5c0.3,7,0.9,16.5-0.3,17.6  c-1.3,1.1-0.8,2.7-0.3,4c0.5,1.4-1.5,2.8,0.9,4c2.5,1.2,2.9,1.9,5,0.7c2.1-1.2,4.9-3.7,6.7-4.2c1.8-0.6,5.2-3,7-0.6  c1.8,2.4,4.9,3.6,6.7,4.3c1.8,0.8,8.3-1.4,6.9-5c-1.4-3.6-1.4-5.7-0.3-7c1.1-1.3,2.6-4.2,2.6-5.8c0-1.6,0.3-2.4,1.6-2.8  c1.2-0.3,1.3-4.3,3.7-6c2.3-1.7,4.7-4.2,4.9-1.1c0.2,3.1-2,7.8-0.2,7.9c1.8,0.1,3.9-0.3,3.1,0.8s-2.1,2.2-1.8,6.3  c0.3,4.1-0.3,6.5,1.1,6.5c1.4,0,2.4,0.4,3,1.9c0.6,1.4,4-0.5,5.2,0.8c0.1-1.7-1.5-5.9-0.6-6.5c1.2-0.9,2.6-0.4,4.3,0.4  c1.7,0.9,4.1,1.5,4.1,3.4c0,1.9,1.7,2.9,3.7,1c2-1.9,5.3-2.7,5.9-6.5c0.4-3.2,0.8-4.3,1.8-5.7C504.2,332.7,504.5,328.2,504.5,326.1z  " stroke-miterlimit="10" stroke="#FFFFFF"/>
<path name="玉溪市" fill="#D3D3D3" id="path2" d="M480.7,347c-0.6-1.4-1.6-1.9-3-1.9c-1.4,0-0.8-2.3-1.1-6.5  c-0.3-4.1,1-5.2,1.8-6.3s-1.3-0.7-3.1-0.8c-1.8-0.1,0.4-4.8,0.2-7.9c-0.2-3.1-2.6-0.6-4.9,1.1c-2.3,1.7-2.4,5.7-3.7,6  c-1.2,0.3-1.6,1.2-1.6,2.8c0,1.6-1.4,4.5-2.6,5.8c-1.1,1.3-1.1,3.5,0.3,7c1.4,3.6-5.1,5.8-6.9,5c-1.8-0.8-4.9-1.9-6.7-4.3  c-1.8-2.4-5.2,0-7,0.6c-1.8,0.6-4.6,3-6.7,4.2c-2.1,1.2-2.5,0.5-5-0.7c-2.5-1.2-0.4-2.6-0.9-4c-0.5-1.4-1-2.9,0.3-4  c1.3-1.1,0.7-10.6,0.3-17.6c-0.3-7-3.2-4.9-3.9-4.6c-0.7,0.3-2.3-0.1-4.4-0.5c-2.1-0.4-2.3-0.3-3.5,1.3c-1.2,1.5-4.9,2.4-6.3,2.1  c-1.5-0.3-0.6,1.2,0.3,3.4c0.9,2.2-2.2,4-3.6,4.6c-1.4,0.7,0,2.3,0.3,4.4c0.3,2.1-3.1,2.1-3.3,3.4c-0.3,1.4,2,0.4,3.2,0.3  c1.2-0.1,1.4,0.8-0.7,1.8c-2.1,1,0.5,1.6-0.7,5.3c-1.2,3.7,4.7,5.2,5.9,6c1.2,0.8,0.5,6.2,0.4,8.7c-0.1,2.5-4.6,4.5-9.7,4.4  c-5-0.1-6.4-2.5-8.2-6.1c-1.8-3.6-4.7-1.1-6,1.6c-1.3,2.7-5.3,5.8-7,6.7c-1.6,0.9-3.4-5.3-3.4-8.1c0-2.7-1.7-4.1-4-2.4  c-1.9,1.4-6.7,4-7.9,4.7c1.5,1.2,3.1,6.6,4.5,8.4c1.5,2.1,1.9,4.9,4.2,7.4s2.9,4.3,4.3,5.9c1.4,1.5,2.5,3.5,0,5.6s-2.6,3.5-4.2,3.9  c-1.6,0.4-1.8,4.7-1.8,6.3s1.5,4.5,4.3,0.9c2.8-3.5,5.3-3.7,5.4-1.6c0.1,2.1-1.3,5.7,1.1,5.6c2.3-0.1,4.3,2.9,5.7,1.2  c1.4-1.8,2.8-1.8,2.8-0.1c0,1.6-2.3,2.9-1.2,4.1c1.2,1.2,2.6,1.6,2.3,3.3c-0.2,1.6-0.6,1.6,1.3,3c1.9,1.4,2.9,2.8,1.2,4  c-1.8,1.2-1.8,3.5,0.5,4.7c1.4,0.7,3.9,1.7,5.4,3c0.3-0.1,3.4-1.1,5.3-0.3c2,0.9,5.8,0.3,7.8,0.9c2,0.5,3,1.3,4.1-1.2  c1.1-2.5,2.4-5.6,4.4-5.7c2-0.1,7.6,2.7,8.1,0.5c0.5-2.1,1.3-4.4-1.1-8.1c-2.4-3.7-2.2-5.2-4.1-6.7c-1.8-1.5-2.9-5.1-3.6-6.6  c-0.7-1.5-5.1-8.2-3.1-9.2c2-1,8,0.7,7.3-2.6s-4.1-4.7-2-6.1c2-1.4,4.2-3.5,5.8-5.1c1.6-1.6,4.4-1.5,6.7,0.2c2.3,1.7,6.4,4.8,8.5,4  c2.1-0.9,4.3-0.1,4.3,2c0,2.1,0.3,4.4,1.6,3.3c1.3-1.1,2.9-4.9,5.1-5.2c2.2-0.3,3.8-1.4,5,0.4c1.2,1.8,1.8,2.6,3.6,0.7  c1.8-1.8,3.7-4,6.3-3.5c2.6,0.4,6.1-1.2,6.5-4.6c0.4-3.4-0.1-6.1-0.1-11.1c0-5-0.3-5.9-2-7.8c-1.7-1.9-1.1-2.5,0.9-4.7  c1.9-2.2,4.2-3.2,6.1-3.1c0.4,0,0.6-0.3,0.6-0.7C484.7,346.4,481.3,348.4,480.7,347z" stroke-miterlimit="10" stroke="#FFFFFF"/>
<path name="曲靖市" fill="#D3D3D3" id="path3" d="M490.8,181.1c-6.5,0-2.7,7.7-3.3,11.8c-0.6,4.1-0.7,5.6-2,5.9  c-1.3,0.3,0.2,7.6-1.2,7.9c-1.4,0.4-3.8-1.3-6-2.5c-1.8-1-1.4,5.3-1.2,7.3c0.5,0.7,0.5,1.4,0.1,2.1c0.2,2.8,1.6,17.4,3.5,18.2  c2.1,0.9,3.8-0.6,4.7,1.3c0.9,1.9,2.3,8.9,2.8,11.7c0.5,2.8-2.3,14.7-1,15.8c1.3,1,7.7,1.8,8.4,3.4c0.8,1.6,2.8,3.3,0.9,4.3  c-1.9,1-6.5,4.7-6.5,5.8s-1,3-2.3,4c-1.3,1,0.4,9.3,0.1,12s-1.1,15,1.5,13.5c2.6-1.5,5.2-2.5,5,0.4c-0.1,2.9,1,4.2-1.4,4.8  c-2.4,0.6-2.5,1.8-1.1,3.8c1.4,2-0.1,3.1,0.3,7.3c0.4,4.2,1.5,7.9,3.8,6.2c2.3-1.8,4-4.8,5-3.8c1,1,3.6,1.8,3.6,3.9  c0,2.1-0.3,6.6,0.5,7.7c0.2-0.3,0.4-0.6,0.7-0.9c1.5-1.9,3.6-5.4,3.3-1.5c-0.3,4,0.1,3.1,2.5,3c2.4-0.1,5.4-0.2,7.2,1.3  c1.7,1.5,3.2,1.5,4.5,1.5s1.3,1.4,0.5,2.8c-0.7,1.4-1.5,1.3,0.4,2.5c1.9,1.2,3.4,1.1,3,3.6c-0.4,2.2,0,3.7-1.4,4.6  c1.7,0.4,5.5,1.3,6.8,0.1c1.6-1.5,3.7-0.6,5.1,1.5c1.4,2.2,1,4.1,5.4,4.1s4.8-0.9,6.2-2.4c1.4-1.5,5.8-4.8,11.7-4.3  c-0.3-2.3-2.8-6.3-3.5-7.5c-0.7-1.3-2.7-7-0.9-8.6c1.9-1.6,2-2.3,1.3-3.1c-0.7-0.9-0.9-5.9,1.1-8.1c2-2.3,6.4-5.6,7.7-9.6  c1.3-4-0.1-3.9-3.1-3.9c-3,0-2.6-2,0.4-2.4c3-0.4,4-3.9,4-6.3c0-2.4,1.6-2.6,3.9-1.6c2.3,1,3.3-1.7,2-4c-1.3-2.3-5.4-1.7-8.1-1.4  c-2.7,0.3-3-0.9-3-3.3c0-2.4-1.7-3.7-3.1-4.1c-1.4-0.4-2.1-1.6-2.1-3.7s0.1-3.3-0.7-4.4c-0.9-1.1-2.3-2.1-4.6,1  c-2.3,3.1-2.4-0.7-3.6-3.3c-1.1-2.6-2.6-2.7-3.7-2.9c-1.1-0.1-1.7-8-1.3-10.1c0.4-2.1,1.4,0,3-0.9c1.6-0.9,2.7-6.3,2.4-8.4  c-0.3-2.1,1-3.6,1-5.6c0-2,1.6-6.1,3.1-7c1.6-0.9,1.6-7.4,1.6-9.7s0.3-4,2-5.1c1.7-1.1,3.4-3.6,5.9-5.4c2.4-1.9,2.1-3.3,0.4-4.1  c-1.7-0.9-3.9-7.4-5.4-9.7c-1.6-2.3-3.1-2-5.7-1.9c-2.6,0.1-2.1-1.9-2.6-4.3c-0.4-2.4-1.9-3-3.1-3c-1.3,0-0.3,0.9-2.7,4.1  c-2.4,3.3-9.7,1.4-12.1,0.9c-2.4-0.6-5.6,4.1-5.6,7c0,2.9-3.4,2.6-8.1,3c-4.7,0.4-8-3.3-9.1-4c-1.1-0.7-0.3-7-0.7-9.6  c-0.4-2.6-2.3-2.7-3.1-5.1c-0.9-2.4,1.7-2.9,2.6-6c0.9-3.1,0.3-5.7-2.1-8.9c-0.4-0.6-0.9-0.9-1.2-1.1  C501.1,180.2,497,181.1,490.8,181.1z" stroke-miterlimit="10" stroke="#FFFFFF"/>
<path name="昭通市" fill="#D3D3D3" id="path4" d="M596.1,120.9c-1.6-1.3-2.4-1.4-2.4-3.7c0-2.3,1.4-2.9,2.4-4.4  c1-1.6-1.3-4-3.1-3.7c-1.9,0.3-3.6-0.3-3.6-2.6c0-2.3-3.4-2.6-6.7-3.4c-3.3-0.9-5.6,4.9-7.7,8.7c-2.1,3.9-11.6,7-15.7,8.1  c-4.1,1.1-5.9,0.4-7-1.1c-1.1-1.6-2.3-1.6-5.6-2.3c-3.3-0.7-4.1-3-5.7-5.3c-1.6-2.3-2.9-3.3-1.6-3.3c1.3,0,3.4-1.6,6-4.1  c2.6-2.6-0.9-4.3-2-4.9c-1.1-0.6-0.9-1.4,1.4-2.6c2.3-1.1-3.7-6.7-5.6-6.7c-1.9,0-4.7-3.7-4.7-5.3c0-1.6,0.9-3-0.7-5.4  c-1.6-2.4,0.9-3.3,2.9-3.3c2,0,5.7-5.1,8.1-7.4c2.4-2.3-2.9-0.7-4.9,0.7c-2,1.4-3.3,1-4.3-0.9c-1-1.9-3.3,1.1-5.1,0.9  c-1.9-0.3-3.1,1.7-6.4,1.6c-3.3-0.1-4.1,1.6-6.4,1.6c-2.3,0-4.6-0.3-5.9-2.3c-1.3-2-2.6,7-4.4,8.1c-1.9,1.1,2.3,6.6,4.3,9.7  c2,3.1-2,7.6-5.3,10.7c-3.3,3.1-4.3,2.1-5.4-0.6c-1.1-2.7-10,8.7-12.7,10.9c-2.7,2.1,0.7,3.6,3.3,6.1c2.6,2.6,1.9,3.3,0.9,5  c-1,1.7,0.4,2.9-0.7,5.7c-1.1,2.9-5.1,9.1-5.1,11.4c0,2.3-5.6,10.1-5.9,13c-0.3,2.9-2.9,3-5.1,5c-2.3,2-3.3,0.6-4.7-1.6  c-1.4-2.1-3.4,7.9-3.3,9.4c0.1,1.6,1.7,8.6,0.4,10c-1.3,1.4-0.6,6.3-0.6,8.7s0.6,6.3,4.1,9.9c3.6,3.6,2.9,10.1,3,12.9  c0.1,2.7,0.6,5.3,2.4,7c0.1,0.1,0.2,0.2,0.3,0.3c-0.2-2-0.6-8.3,1.2-7.3c2.2,1.2,4.6,2.8,6,2.5c1.4-0.4-0.1-7.7,1.2-7.9  c1.3-0.3,1.4-1.8,2-5.9c0.6-4.1-3.1-11.8,3.3-11.8c6.2,0,10.3-0.9,12.8-3.8c-1.7-1-3,1.1-4,1.1c-1.3,0-2.4-2-0.9-2  c1.6,0,0.6-1.7,0-2.9c-0.6-1.1,0.9-2.1,2.9-2.4c2-0.3,4.6-4.4,7.4-7c2.9-2.6,7.1-9,7.3-12.3c0.1-3.3,1.3-1.7,4.3-0.6  c3,1.1,1.4,4.6,3,4.7c1.6,0.1,3.9-0.3,4.6,1.7c0.7,2,4.7,1.9,7.6,0.4c2.9-1.4,2.7-8,6.6-10c3.9-2,7.4,4,11.4,6.4  c4,2.4,8.4,0,10.3-1.3c1.9-1.3,2.9,1.6,5,0.9c2.1-0.7,2.6,1.6,3.6,1.7c1,0.1,6.1-1.4,7-4.3c0.9-2.9,5.3-2.1,7.1-2.1  c1.9,0,5.7,0.7,7.1-0.9c1.4-1.6,0.4-6.4,0.4-8.6c0-2.1,1.7-4.4,3.9-6.3C600.4,131.9,597.6,122.2,596.1,120.9z" stroke-miterlimit="10" stroke="#FFFFFF"/>
<path name="文山" fill="#D3D3D3" id="path5" d="M660.1,383.2c-2.3-1.1-1.3-3.1-3-4c-1.7-0.9-3.6-5.1-5.1-7.7  c-1.6-2.6-3.6-3-6.4-2.6c-2.9,0.4-2,1.1-2,3.3s-2.4,2-4.4,3.4c-2,1.4-2.9,0-3.1-2.1s-4.9,0.1-6.7,1.1c-1.9,1-2.3-1.4-1.4-3.1  c0.9-1.7-3.4-2.6-5-1.7c-1.6,0.9-2.1,2.9-2.6,5.3c-0.4,2.4-7.7,0.4-10-1c-2.3-1.4-2.3-1.3-4.3-0.1c-2,1.1-2.1,0.3-4.6-1.4  c-2.4-1.7-4.7-3-0.1-4.1c4.6-1.1-2.1-7.7-2-9.3c0.1-1.6,1-2.3-0.6-3.4c-1.6-1.1-4.1-0.6-5.3-2.7c-1.1-2.1-0.7-2.7-2.7-3.1  c-2-0.4-6.6,3.9-8.4,2.1c-1.9-1.7-2.6-1.1-4.6-1.6c-2-0.4-3.3,0-4.7-1.1c-1.4-1.1-4.6,0.7-3.9,4.4c0.7,3.7,0.3,4.3-0.6,3.3  s-3.4-1.3-5.3-2c-1.9-0.7-2.3-2.6-2.3-4.9c0-0.1,0-0.2,0-0.4c-5.8-0.4-10.3,2.9-11.7,4.3c-1.4,1.5-1.8,2.4-6.2,2.4s-4.1-2-5.4-4.1  c-1.4-2.2-3.5-3-5.1-1.5c-1.2,1.2-5.1,0.3-6.8-0.1c-0.2,0.2-0.5,0.3-0.9,0.4c-2.5,0.9-4.6,3.6-5.9,5.7c-1.3,2-6.1,9.5-8.7,10.4  c-2.6,0.9-11.3,6.3-9.5,8.8c1.8,2.5,3.2,3.8,4,5.9c0.7,2,4.1,5.3,2.9,8c-1.2,2.7-3.3,6-3,7.8s2.6,7.8,0.4,9.4  c-2.1,1.6-4.6,2.8-3,4.5c1.6,1.7,4.1,2.5,5.7,1.8c1.6-0.6,3.8-1.9,3.8-0.3c0,1.6-1.3,1.4,0.6,2c1.9,0.6,3.7,1.2,3.6,3.4  c-0.1,2.2-1.8,4.2,0.4,5.7c2.2,1.5,1.2,0.1,3.7,2.4c2.6,2.2,3.3,2,3.3,6.1c0,4.1,0.7,6.7,0.9,9.9c0.1,3.2-0.6,11.2-0.9,13.5  c-0.2,2.2-1.1,6.7-1.3,8.3c-0.2,1.6,0.4,6.3,2.4,4.8c1.9-1.5,4.8-3.1,4.9-5.8c0.1-2.7,0.2-5.4,1.2-5.6c1-0.1,2.7-2.6,4-2.6  c1.3,0,1.8,1.7,3.5,1c1.7-0.7,3-1.3,4.8,0.3c1.7,1.5,0.5,2.4-0.2,3.5c1.9-0.2,1.8,2.8,1.7,5c-0.1,2.3-0.1,2.4,4.3,2.9  c4.4,0.4,3.3-1.4,5.9-2.9c2.6-1.4,6.1-4.6,7.9-6.3c1.7-1.7,5-0.4,7.4,0.3c2.4,0.7,4-1.3,5-3.3s2.6-2.7,6.4-3.4  c3.9-0.7-0.7-3.7-1.9-4.9c-1.1-1.1-2.9-5-2.1-6.9c0.7-1.9,5-3,7.3-3c2.3,0,7.4-3.9,8.1-5.3c0.7-1.4,1.9-3.3,3.6-2  c1.7,1.3,2.3,1.1,3.1-0.6c0.9-1.7,0.1-0.3,3-0.3c2.9,0,2.3-2.7,3.3-5.7c1-3,5.7-0.3,7.1-0.1c1.4,0.1,2.3,1.6,4,2.6  c1.7,1,2.1-0.9,2.6,0.3c0.4,1.1,0.9,2.1,2.2,1.9c1.3-0.1,2.4,0.6,2.2-0.5c-0.1-1.1,0.1-2.9,1.7-2.9c1.6,0,2-1.9,3.6-1.3  c1.6,0.6,1.9-2,1-3.7c-0.9-1.7,0.6-2.4,3.4-3.1c2.9-0.7,6.7-5.1,8-6.9c1.3-1.7,5.3,0.7,9,2.6c3.7,1.9,7.1-2,8.9-3.4  c1.7-1.4,1-2.4,0.3-3.7c-0.7-1.3-0.4-3,0.6-4.1c1-1.1,0.6-6.6-0.4-8.9c-1-2.3,2.1-3.6,3-5.3C663.5,385.3,662.4,384.3,660.1,383.2z" stroke-miterlimit="10" stroke="#FFFFFF"/>
<path name="红河" fill="#D3D3D3" id="path6" d="M542.8,456.4c-1.8-1.6-3.1-1.1-4.8-0.3c-1.7,0.7-2.2-1-3.5-1  c-1.3,0-3,2.5-4,2.6c-1,0.1-1.1,2.9-1.2,5.6c-0.1,2.7-3,4.3-4.9,5.8c-1.9,1.5-2.6-3.2-2.4-4.8c0.2-1.6,1.1-6.1,1.3-8.3  c0.2-2.2,1-10.3,0.9-13.5c-0.1-3.2-0.9-5.9-0.9-9.9c0-4.1-0.7-3.8-3.3-6.1c-2.6-2.2-1.5-0.9-3.7-2.4c-2.2-1.5-0.5-3.4-0.4-5.7  c0.1-2.2-1.7-2.8-3.6-3.4c-1.9-0.6-0.6-0.4-0.6-2c0-1.6-2.2-0.3-3.8,0.3c-1.6,0.6-4.1-0.1-5.7-1.8c-1.6-1.7,0.9-2.9,3-4.5  c2.1-1.6-0.1-7.6-0.4-9.4s1.8-5.1,3-7.8c1.2-2.7-2.1-6-2.9-8c-0.7-2-2.1-3.4-4-5.9c-1.8-2.5,6.9-7.9,9.5-8.8  c2.6-0.9,7.4-8.3,8.7-10.4c1.3-2,3.4-4.8,5.9-5.7c2.5-0.9,1.8-2.5,2.2-5c0.4-2.6-1.1-2.5-3-3.6c-1.9-1.2-1.2-1.1-0.4-2.5  c0.7-1.4,0.7-2.8-0.5-2.8s-2.8,0-4.5-1.5c-1.7-1.5-4.8-1.4-7.2-1.3c-2.4,0.1-2.8,1-2.5-3c0.3-4-1.8-0.4-3.3,1.5  c-1.5,1.9-1.9,2.8-2.5,6.6c-0.5,3.8-3.8,4.6-5.9,6.5c-2,1.9-3.7,1-3.7-1c0-1.9-2.4-2.6-4.1-3.4c-1.7-0.9-3.1-1.3-4.3-0.4  c-1.2,0.9,1.9,7.4,0,7.3c-1.9-0.1-4.2,0.9-6.1,3.1c-1.9,2.2-2.6,2.8-0.9,4.7c1.7,1.9,2,2.8,2,7.8c0,5,0.5,7.7,0.1,11.1  c-0.4,3.4-4,5-6.5,4.6c-2.6-0.4-4.5,1.7-6.3,3.5c-1.8,1.8-2.5,1.1-3.6-0.7c-1.2-1.8-2.8-0.7-5-0.4c-2.2,0.3-3.8,4.2-5.1,5.2  c-1.3,1.1-1.6-1.2-1.6-3.3c0-2.1-2.1-2.9-4.3-2c-2.1,0.9-6.2-2.2-8.5-4c-2.4-1.7-5.1-1.8-6.7-0.2c-1.6,1.6-3.7,3.7-5.8,5.1  c-2,1.4,1.3,2.8,2,6.1s-5.2,1.6-7.3,2.6c-2,1,2.4,7.7,3.1,9.2c0.7,1.5,1.8,5.1,3.6,6.6c1.8,1.5,1.7,3,4.1,6.7c2.4,3.7,1.6,6,1.1,8.1  c-0.5,2.1-6.1-0.6-8.1-0.5c-2,0.1-3.3,3.2-4.4,5.7c-1.1,2.5-2,1.7-4.1,1.2c-2-0.5-5.8,0-7.8-0.9c-1.9-0.8-4.9,0.2-5.3,0.3  c0.9,0.8,1.4,1.7,1,2.9c-0.9,3-2.8,1.9-3.5,3.6c-0.7,1.8,0.6,5.6,3.9,5.6c3.3,0,5.9-1.9,7-0.4c1.2,1.5,3.9,4.2,3,7  c-0.8,2.8-2.2,3.9-3.6,4.2c-1.4,0.4-6.1-2.8-7.4-1.2c-1.3,1.6-1.6,5.9-2.9,7.4c-1.3,1.5-2,2.8,0.1,5c2.1,2.2,2.6,3.4,5.3,2.7  s5.5-1.1,6.9,1.4c1.4,2.5,2.1,4,2.7,6c0.6,2,0.7,3.5,3,4.2c2.3,0.7,7.6,1.6,9.8,1.9c2.1,0.2,3.1,1.2,3.7,2.4  c0.8-0.7,1.5-1.1,1.1-2.4c-0.6-1.7,0.7-1.9,0.7-3.9s1.3-2.7,3.3-2.7c2,0,1.6-3.9,2.4-6.1c0.9-2.3,3.4,1.3,5.1,3.1  c1.7,1.9,5.7,1.6,8,2.7c2.3,1.1,5.9,2.3,8.1,3.9c2.3,1.6,5.6,4,6,6.3c0.4,2.3,4.7,5.1,8.3,5.9c3.6,0.7,6.4-5.6,8-8.1  c1.6-2.6,2.4-11,2.4-13.3c0-2.3,1.4-5.1,3.4-4.7c2,0.4,3.6,4.6,4,7.1c0.4,2.6,1.7,4.9,4.3,6.6c2.6,1.7,3.6-4.4,4-6.3  c0.4-1.9,0.9-4.6,3.3-5.7c2.4-1.1,20,16.9,22.4,20.2c2.4,3.3,1-3,1-5.4s0.3-2.7,0.9-4.7c0.6-2,2.4-4.9,2.7-8.6  c0.3-3.7,7.6-4.3,9.7-4.7c0.1,0,0.1,0,0.2,0C543.3,458.8,544.5,457.9,542.8,456.4z" stroke-miterlimit="10" stroke="#FFFFFF"/>
<path name="大理" fill="#D3D3D3" id="path7" d="M335.3,318.1c-1.2-1.1-2-2.9,0.2-3c2.2-0.1,1.3-1.5,0.8-2.7  c-0.6-1.2-0.1-2.1,0-4.3c0.1-2.1,0.7-5.9,2-7.1c1.3-1.1,2-1.6,2-3.2c0-1.7,2.7-0.2,5.6,0.9c2.9,1.1,4.4-2.2,4.6-4.3  c0.2-2,0.6-2,2-2.2c1.5-0.2,0.9-1.9,0.3-3.4c-0.6-1.5-3-3.6-4.3-3.8c-1.2-0.2-1.8-1-0.3-2c1.5-1,1-4.7,1.1-6.3  c0.1-1.6,1.1-1.1,1.6-2.8c0.4-1.7,0.7-1.9-2-3.2c-2.7-1.3-1-3.9-0.7-6.2c0.3-2.2-1.5-3.9-2.4-4.9c-0.9-1,2.9-3.7,3.8-5.6  s-0.7-2.7-1.6-3.7c-0.9-1-2.5-2.7-1.2-3.6c1.2-0.9,1.6-1.9,0.4-2.7c-0.9-0.6-0.7-5.8-0.5-7.9c-1.4,1.3-2.8,1.1-3.8,0.4  c-1.2-0.9-1.5-1.7-2.5-1.1c-1,0.6-2.7,0.6-4.2,0.6c-1.5,0-1.2,0-3.6,1.9c-2.4,1.9-1.9,5.8-1.4,8c0.5,2.2-4.1,1.4-7.5,0.9  c-3.5-0.5-3.1-3.6-3.1-6.2c0-2.6-2.2-3.2-4.1-3.8c-1.9-0.6,0.1-2.7,0.6-3.5c0.5-0.7,0.9-2.6,0.1-4.5c-0.7-1.9-0.9-2.7,0.5-3.7  c1.4-1,1.4-4,1.9-4.8c0.5-0.9,1.5-2.1,0.5-2.6s-0.2-1.9-0.2-3.7c0-1.9-0.7-3.8-2.7-4.5c-2-0.6-2.8-1.7-4.1-3.5  c-1.2-1.7-2.2-1.9-2.8-1.7c-0.6,0.1-1.7,0.9-3.3-2.6c-1.6-3.5-2.5-0.5-4.1,1.5c-1.6,2-2.5,1.4-4.2,0.7c-1.7-0.6-2.4,0.5-4,2.1  c-1.6,1.6-5.1-1.6-7.7-2.1c-2.6-0.5-6.1-1-8.4-1c-2.4,0-4.6-0.5-7.7-3c0,0,0,0-0.1-0.1c-0.5,0.8-2,3.2-3.9,3.7  c-2.2,0.6-5,1.1-4.8,4.1c0.2,3,1.6,4.8,0.4,7.6c-1.1,2.8-2.6,5.2-5.4,6.2c-2.8,1-6.9,0.3-7.1,2.7c-0.1,2.4-0.6,3.2-2.7,4.5  c-2.1,1.2-5,3.1-5.7,5.5c-0.7,2.4-0.7,3.5-3.1,2c-2.5-1.5-4.5-2.9-6.2-0.4c-1.7,2.5-2,2.5-1.6,4.9c0.4,2.5-0.3,6.5-1.3,8.3  c-1,1.8,1.3,3.4-0.4,5.6c-1.8,2.2-2.6,3-1,3.6c1.6,0.6,5.7,3.4,3.4,4.1c-2.4,0.8-8.6-4-9.1-2.7s1.9,3.9,1.6,6.8  c0,0.2-0.1,0.4-0.1,0.6c1-0.2,7.1-1,7.1,0.9c0,2.1-1.5,5.4-0.2,6.8c1.2,1.5,1.5,1.9,2.5,4.1c1,2.2,2.6,2.2,4.4,0.6  c1.8-1.7,5.5-4.3,8.3-3.4c2.8,0.9,4.5,2.2,4.9,3.4c0.4,1.1,2,3.6-0.7,4.6c-2.7,1-4.4,1-2.5,3.6c1.9,2.6,1,4.3,4.5,7.6  c3.5,3.4,5.6,8.7,8.8,9.3c3.2,0.6,7.2,1,8.4,3c1.2,2,2.7-0.3,4.3-0.4c1.6-0.1,5.3,0.3,6-2.9c0.8-3.2,2.5-4.1,4.4-4.1  c1.9,0,2.9,0.1,3.5,2.2c0.6,2.1,1.8,3.9,3.5,3.9s2.9,2.7,1.6,3.6c-0.5,0.4-1.4,1-2.3,1.6c0.1,0.7,0.5,6.2,2.7,5.9  c2.3-0.4,2.3-1.8,3-2.2c0.7-0.5,2.1-0.1,3.3,0.2c1.2,0.4,4.6-0.8,2.8,2.7c-1.8,3.5-3.4,9.5-3.4,11.2s0.1,1.9-1.8,2.7  c-1.9,0.8-1.8,2-1.3,3.3c0.5,1.3,1.2,1.6,3.5-0.7c2.3-2.3,5.7-3.9,9.5-3c3.7,0.8,5.7,3,6.9,2.1c1.2-0.9,2.3-2.3,4-1.2  c1.6,1.2,4.9,4.2,7.4-0.5c2.5-4.7,2.2-5.6,4-4.2c1.2,0.9,2.9,1.4,4.3,2c0-1.3,0.7-5.4,1-8.1C336.8,319.2,336.6,319.2,335.3,318.1z" stroke-miterlimit="10" stroke="#FFFFFF"/>
<path name="临沧市" fill="#D3D3D3" id="path8" d="M267.7,432.1c1.5,1.3,5.2,2.8,6.7,3.4c1.5,0.6,2.1,0.9,4.1-1  c2.1-1.8,3-2.4,4.5-1.7c1.5,0.7,5,0.6,6.1,1.6c1.1,1,2.1,0.6,2.7-0.9c0.6-1.5,0.6-4.6,2.1-8.7c1.5-4,5.1-11.6,6.7-15.3  c1.6-3.7,2-6.5,5-9.7c3-3.2,2.8-8.1,5.2-8.4c2.4-0.4,4.3-1.7,2.9-2.9c-1.3-1.2-3.2-10.3-0.9-10.6c2.3-0.4,6.7,0.1,6.8-5.3  c0.1-5.4,0.1-18.2,1.5-19.8s2.6-3.2,0.6-5.7c-1.9-2.5-6.6-10-6.5-13.1c-1.2,0.3-3.2-1.6-6.5-2.3c-3.7-0.8-7.1,0.7-9.5,3  c-2.3,2.3-3,2-3.5,0.7c-0.5-1.3-0.6-2.5,1.3-3.3c1.9-0.8,1.8-0.9,1.8-2.7s1.6-7.7,3.4-11.2c1.8-3.5-1.6-2.3-2.8-2.7  c-1.2-0.4-2.6-0.7-3.3-0.2c-0.7,0.5-0.7,1.9-3,2.2c-2.2,0.3-2.6-5.2-2.7-5.9c-1.3,0.9-2.9,1.9-4.3,2.3c-2.4,0.8-5.2,2.8-4.9,4.1  c0.2,1.3,0.9,2.7-0.4,3.4c-1.3,0.7-3.1,1.9-2.4,2.8s0.6,1.9-0.4,2.7c-1,0.8-1.3,1.8-0.2,3.1c1.1,1.3,1.6,3.1-0.7,4  c-2.2,0.9-2.7,2.1-4.1,3.7c-1.5,1.6-1.8,3-3.5,3.5s-0.7,3.1,0,4.6c0.7,1.5,0.9,4.9-0.7,4.9c-1.6,0-3.2,0.4-3.9,2.4  c-0.7,1.9-1.8,4.8-4.3,5.4c-2.5,0.6-2.9,2.4-3.6,3.2c-0.7,0.9-4.5,4.8-6.9,2.1c-2.5-2.7-1.1-8.8-2.9-12.4c-1.8-3.6-1.9-1.3-2.8-0.6  c-0.9,0.8-6.8,6-6.3,6.9c0.6,0.9,1.3,1.9-2,3c-3.4,1.1-7.6,5.3-10.1,5.3c-2.1,0-5.1,2.4-6.1,3.4c0.5-0.1,0.4,0.2,0.8,1.8  c0.6,2.3-2.3,4.6-3.7,6c-1.4,1.4-7.7,4-9.3,4.4c-1.6,0.4-0.1,4.4,0.3,6.6c0.4,2.1-0.4,4.1,0.4,5.6c0.9,1.4,2.4,0.9,4.6,0.9  c2.1,0,2.3,4.6,2.9,6.3c0.6,1.7,0.6,2.9,1.7,4c1.1,1.1,1.4,3.3-0.1,4.1c-1.6,0.9-2.3,1.1-2.7,2.9c-0.4,1.7,0.3,2.6,2.1,2.7  c1.9,0.1,1.9,2.6,2.9,4.7c1,2.1,0.7,2.9,0.3,4.4c-0.4,1.6,1,2.4,2.3,4.1c1.3,1.7-2.3,2.4-2.1,5.3s2.1,0.1,3,1.3  c0.9,1.1,2,1.6,3.6,1.9c1.6,0.3,1.7,0.1,2.3,2.4c0.6,2.3,1.9,1.9,4,2.3c2.1,0.4,3.6,0.7,6.9,0.7c3.3,0,5.3-0.3,6.1-1  c0.9-0.7,3.4-0.4,4.7,0.7c1.1,1,3.7,1.2,5.7,1.4c1.2-1.2,4.5-4.4,6.5-6C265.5,435,266.2,430.7,267.7,432.1z" stroke-miterlimit="10" stroke="#FFFFFF"/>
<path name="普洱市" fill="#D3D3D3" id="path9" d="M429.3,478.5c-2.2-0.2-7.5-1.2-9.8-1.9c-2.3-0.7-2.5-2.2-3-4.2  c-0.6-2-1.3-3.5-2.7-6c-1.4-2.5-4.2-2.1-6.9-1.4s-3.2-0.5-5.3-2.7c-2.1-2.2-1.4-3.5-0.1-5c1.3-1.5,1.6-5.7,2.9-7.4  c1.3-1.6,6,1.5,7.4,1.2c1.4-0.4,2.8-1.4,3.6-4.2c0.8-2.8-1.9-5.5-3-7c-1.2-1.5-3.7,0.4-7,0.4c-3.3,0-4.6-3.9-3.9-5.6  c0.7-1.8,2.6-0.6,3.5-3.6c0.9-3-4.2-4.7-6.4-5.9c-2.2-1.2-2.2-3.5-0.5-4.7c1.8-1.2,0.7-2.6-1.2-4c-1.9-1.4-1.5-1.4-1.3-3  c0.2-1.6-1.2-2.1-2.3-3.3c-1.2-1.2,1.2-2.5,1.2-4.1c0-1.6-1.4-1.6-2.8,0.1c-1.4,1.8-3.4-1.3-5.7-1.2c-2.3,0.1-0.9-3.5-1.1-5.6  c-0.1-2.1-2.6-1.9-5.4,1.6c-2.8,3.5-4.3,0.7-4.3-0.9s0.1-6,1.8-6.3c1.6-0.4,1.8-1.8,4.2-3.9s1.4-4.1,0-5.6c-1.4-1.5-2-3.4-4.3-5.9  s-2.7-5.3-4.2-7.4c-1.5-2.1-3.4-8.7-5-8.7c-1.6,0-9.3-7.5-12-11.7s-7.8-14.3-8.6-15.8c-0.7-1.5-2.2-3.4-4-2.1  c-1.8,1.3-4.6,0.1-5.7-1.4c-1.2-1.5-4.3-1.9-6.1-3.3c-1.8-1.4-1.5-0.5-4,4.2c-2.5,4.7-5.7,1.6-7.4,0.5c-1.6-1.2-2.8,0.2-4,1.2  c-0.1,0.1-0.3,0.2-0.4,0.2c-0.1,3.1,4.6,10.7,6.5,13.1c2,2.6,0.7,4.2-0.6,5.7s-1.3,14.4-1.5,19.8c-0.1,5.4-4.5,4.9-6.8,5.3  c-2.3,0.4-0.5,9.4,0.9,10.6c1.3,1.2-0.5,2.6-2.9,2.9c-2.4,0.4-2.2,5.3-5.2,8.4c-3,3.2-3.4,6-5,9.7c-1.6,3.7-5.2,11.2-6.7,15.3  c-1.5,4-1.5,7.2-2.1,8.7c-0.6,1.5-1.6,1.8-2.7,0.9c-1.1-1-4.6-0.9-6.1-1.6c-1.5-0.7-2.4-0.1-4.5,1.7c-2.1,1.8-2.7,1.6-4.1,1  c-1.5-0.6-5.2-2.1-6.7-3.4c-1.5-1.3-2.2,2.9-4.8,5c-2,1.7-5.3,4.8-6.5,6c0.4,0,0.7,0.1,1,0.1c2,0.3,1.3,2.4,0.4,3.9  c-0.9,1.4,0.1,2.1,1,3.9c0.9,1.7,1.7,1.7,0.7,4c-1,2.3-3.9-1.1-5.3-2.1c-1.4-1-1.7,0.9-0.7,2.6c1,1.7,0,2.3-0.9,4  c-0.9,1.7-5.3,5-7.1,7c-1.9,2-0.6,3.3,0.4,6c1,2.7,2.3,3,1.3,7.7c-1,4.7-4.4,8.1-5.7,8.1c-1.3,0-1.1,2-1.1,4.4  c0,2.4-1.9,4.1-2.6,5.6c-0.7,1.4-3.7,4.6-4.6,6.4c-0.9,1.9,6,2.7,8.3,3.4c2.3,0.7,5.3,0.4,6.9,0.3c1.6-0.1,2.9,0.3,4.6-1.4  c1.7-1.7,1.7,1.1,3.1,1.7c1.4,0.6,4.6,0.4,7.7,0.4s2.3,1.7,3.6,3c1.3,1.3,1.6,0,3.3-0.7c1.7-0.7,2.7,0.3,4,1.7c1.3,1.4,2.1,2,4.3,2  c2.1,0,0.3-1.9,0.1-3.4c-0.1-1.6,1.6-0.4,3.3,0.7c0.4,0.2,0.6,0.5,0.8,0.8c1.1-1.3,4-4.6,5.7-5.3c2.2-0.9,1.8-4.1,1.8-5.6  c0-1.5,6-2.6,6.9-3.4c0.9-0.8,2.8-1.6,4.1-0.6c1.3,1.1,6.1,1.9,7,0.4c0.9-1.5,1.4-4.9-0.4-6.9c-1.8-2,0-3.3,1.8-3.2  c1.8,0.1,4,0.2,4.3-0.8c0.4-1.1,0.8-1.6,2.6-1.6c1.8,0,2.1-0.5,3.5-1.8c1.4-1.3,2.3,2.8,3.5,3.6c1.2,0.8,2.6-2,2.7-3.6  c0.1-1.6,4.6-3.5,6.9-4.6c2.3-1.1,6.2-1.9,7.6,0c1.4,1.9,5.7,1.1,6.8,0.5c1.1-0.6,2.9-1.6,4.2-0.6c1.3,1.1,7,0.6,11.7,1.5  c4.7,0.9,8.1-0.2,11.3-1.8c3.2-1.6,4.3,3.1,4.4,5.1c0.1,2,3.1,4.3,3,5.4c-0.1,1.1-0.3,2.3,0.6,2.3c0.9,0,1.8,0.7,3.2,1.5  c1.2,0.7,3.8,0.1,4.5-0.1c0-0.7,0-1.5,0-2.2c0-3,0.1-3.6,1.7-5.7c1.6-2.1,4.9-2.1,6.4-1.4c1.6,0.7,2.7,5.1,4,7.3  c1.3,2.1,5.1-0.7,6.3-2.4c1.1-1.7,12.1,0.1,15,0.6c2.9,0.4,3.7-0.4,3.7-2.4c0-2,2.6-3.7,3.7-5.3c0.3-0.5,0.7-0.8,1-1.1  C432.4,479.7,431.4,478.7,429.3,478.5z" stroke-miterlimit="10" stroke="#FFFFFF"/>
<path name="西双版纳" fill="#D3D3D3" id="path10" d="M386.6,493.7c-1.4-0.9-2.4-1.5-3.2-1.5c-0.9,0-0.7-1.2-0.6-2.3  c0.1-1.1-3-3.4-3-5.4c-0.1-2-1.2-6.8-4.4-5.1c-3.2,1.6-6.6,2.8-11.3,1.8c-4.7-0.9-10.4-0.4-11.7-1.5c-1.3-1.1-3.2,0-4.2,0.6  c-1.1,0.6-5.4,1.4-6.8-0.5c-1.4-1.9-5.3-1.1-7.6,0c-2.3,1.1-6.8,2.9-6.9,4.6c-0.1,1.6-1.5,4.5-2.7,3.6c-1.2-0.8-2.1-4.9-3.5-3.6  c-1.4,1.3-1.8,1.8-3.5,1.8c-1.8,0-2.2,0.6-2.6,1.6c-0.4,1.1-2.6,0.9-4.3,0.8c-1.8-0.1-3.5,1.2-1.8,3.2c1.8,2,1.3,5.4,0.4,6.9  c-0.9,1.5-5.7,0.7-7-0.4c-1.3-1.1-3.2-0.2-4.1,0.6c-0.9,0.8-6.9,1.9-6.9,3.4c0,1.5,0.5,4.7-1.8,5.6c-1.8,0.7-4.6,4-5.7,5.3  c0.6,1.1,0.3,2.5,1.5,4.2c1.6,2.1-0.1,3.7-1.3,5.9c-1.1,2.1-0.9,9,0.9,10.3c1.7,1.3,1.1,3.3,2.6,5.7c1.4,2.4,4.1,0.9,5.6-0.7  c1.4-1.6,2.3-0.9,4.1,0c1.9,0.9-2.4,5-3,6.6c-0.6,1.6,1.1,6.4,1.9,6c0.7-0.4,2.1-0.1,3.6,0.9c1.4,1,1,2.3,2.9,0.9  c1.9-1.4,7.4-4.9,8.1-5.6c0.7-0.7,5.1,3.7,6.6,5.4c1.4,1.7,4.4,0.9,7.7,0.7c3.3-0.1,5.9-3.1,8.1-4.9c2.3-1.7,5.3-6.3,7.1-7.9  c1.9-1.6,5.1-2.6,6.7-2.6s5.4-3,8.6-3.7c3.1-0.7,3.1-0.9,2.3,0.7c-0.9,1.6,1.3,3.6,2.3,6.3c1,2.7-0.6,3.6-0.3,6  c0.3,2.4,2,0.4,3.7,0.4c1.7,0,0,2.9-0.6,4.7c-0.6,1.9-2.1,3.4-3,5.6c-0.9,2.1,3.6,3.9,4.4,5.7c0.9,1.9,0.6,2-0.3,3.4  c-0.9,1.4,0.1,2.7,2.4,4.4c2.3,1.7,3.1,0.4,5.3-0.1s3.9-2,7.3-2.1c3.4-0.1,4.4-0.7,6.3-1.6s1.9,1.6,1.9,3.4s1,1.3,2.6,0.6  c1.6-0.7,3,0.1,4.6,2c1.6,1.9,3,1.3,3.9-0.6c0.9-1.9,1.9-1.1,4.4-2.4c2.6-1.3,0.7-1.6-0.9-3.3c-1.6-1.7-0.6-2-3.6-2.3  c-3-0.3-2.4-3.6-2.4-7.1c0-3.6,0.4-5.9,0.7-8.1c0.3-2.3,3.6-3.3,5.4-4.9c1.9-1.6-3.7-5.9-4.9-8.4c-1.1-2.6,1-4,1-6  c0-2-3.3-5-4.4-7.7c-1.1-2.7-1.9-2.1-3.1-5.1c-1.3-3-1-2.9-2.6-4.7c-1.6-1.9-1-2.9,0.9-4.4c1.9-1.6-1.9-4.3-2.4-6.3  c-0.6-2,0.1-4,2.9-4.4c2-0.3,2.4-2.2,2.4-4.4C390.4,493.8,387.9,494.4,386.6,493.7z" stroke-miterlimit="10" stroke="#FFFFFF"/>
<path name="保山市" fill="#D3D3D3" id="path11" d="M236.1,360.9c3.4-1.1,2.6-2.1,2-3c-0.6-0.9,5.4-6.2,6.3-6.9  c0.9-0.8,1-3,2.8,0.6c1.8,3.6,0.4,9.7,2.9,12.4c2.5,2.7,6.3-1.2,6.9-2.1c0.7-0.9,1.1-2.7,3.6-3.2c2.5-0.6,3.6-3.5,4.3-5.4  c0.7-1.9,2.4-2.4,3.9-2.4c1.6,0,1.3-3.5,0.7-4.9c-0.7-1.5-1.7-4.1,0-4.6s2-1.9,3.5-3.5c1.5-1.6,1.9-2.8,4.1-3.7  c2.2-0.9,1.8-2.7,0.7-4c-1.1-1.3-0.8-2.4,0.2-3.1c1-0.8,1.2-1.8,0.4-2.7s1-2.1,2.4-2.8c1.3-0.7,0.7-2,0.4-3.4  c-0.2-1.3,2.6-3.4,4.9-4.1c2.4-0.8,5.3-3,6.6-3.9c1.3-0.9,0.1-3.6-1.6-3.6s-2.9-1.8-3.5-3.9c-0.6-2.1-1.6-2.2-3.5-2.2  c-1.9,0-3.6,0.9-4.4,4.1c-0.8,3.2-4.5,2.8-6,2.9c-1.6,0.1-3,2.5-4.3,0.4c-1.2-2-5.2-2.5-8.4-3c-3.2-0.6-5.4-5.9-8.8-9.3  c-3.5-3.4-2.6-5-4.5-7.6c-1.9-2.6-0.2-2.6,2.5-3.6c2.7-1,1.1-3.5,0.7-4.6c-0.4-1.1-2.1-2.5-4.9-3.4c-2.8-0.9-6.5,1.7-8.3,3.4  c-1.8,1.7-3.4,1.7-4.4-0.6c-1-2.2-1.2-2.7-2.5-4.1c-1.2-1.5,0.2-4.7,0.2-6.8c0-2-6.2-1.1-7.1-0.9c-0.3,2.8-0.9,5.8-2.5,6.7  c-1.7,1-6.5,1.1-6.5-0.9c0-2-1.2-16-2.9-17.5c-0.4,0.5-0.8,0.9-1.4,1.5c-1.9,1.9-4.3,1.3-6.1-0.6c-1.9-1.9-2.9-1.1-4.1-1.1  c-1.3,0-2.3,1.3-2.6,3.3c-0.3,2-1.3,4.3-2.6,6.6c-1.3,2.3-3.6,6-5.9,8.3c-2.3,2.3-4.3-0.1-6-1.9c-1.7-1.7-2.6-1.1-4.3-2  c-1.7-0.9-2.9,2.7-3.4,4.9c-0.6,2.1,0,4.1,0.7,5.4c0.7,1.3,1.9,2.1,0.3,2.1c-1.4,0-2.6,3.4-4.1,5.6c4.1,0.2,6.3,7.1,6.6,9.1  c0.3,2,2.5,4.8,4.4,7.1c1.9,2.2-1.3,4.9-2.2,7.2c-0.9,2.2,5.5,4.5,10.2,5.9c4.7,1.5,5.6,2,7.6,2.1c2,0.1,0.3,1.7,2.1,3.6  c1.8,1.9-2.8,1.7-5.2,1.2s-2.6,7.7-2.5,9.6c0.1,1.9,2,6.7,3,8.1c1,1.3,5.7-0.4,7.6-1.3c1.9-0.9,3.9,2.6,5.3,4.1  c1.3,1.6,2.6,2.4,1.3,4c-1.2,1.7-0.6,6.2-1,8.6c-0.4,2.2-0.6,12.1-0.7,13.8c0.3-0.1,0.7-0.2,0.9-0.3c1.9-0.4,6.7-0.3,8.6-0.7  c0.6-0.1,1-0.3,1.2-0.3c1-1,4-3.4,6.1-3.4C228.5,366.2,232.7,362,236.1,360.9z" stroke-miterlimit="10" stroke="#FFFFFF"/>
<path name="怒江" fill="#D3D3D3" id="path12" d="M215,273.1c0,2,4.8,1.9,6.5,0.9c1.7-1,2.2-4.5,2.6-7.4  c0.3-2.9-2-5.5-1.6-6.8s6.7,3.5,9.1,2.7c2.4-0.8-1.8-3.6-3.4-4.1c-1.6-0.6-0.8-1.3,1-3.6c1.8-2.2-0.6-3.8,0.4-5.6  c1-1.8,1.8-5.8,1.3-8.3c-0.4-2.5-0.1-2.5,1.6-4.9c1.7-2.5,3.7-1,6.2,0.4c2.5,1.5,2.5,0.3,3.1-2c0.7-2.4,3.6-4.3,5.7-5.5  c2.1-1.2,2.6-2.1,2.7-4.5c0.1-2.4,4.3-1.7,7.1-2.7c2.8-1,4.3-3.4,5.4-6.2c1.1-2.8-0.2-4.6-0.4-7.6c-0.2-3,2.6-3.6,4.8-4.1  c1.9-0.5,3.5-2.9,3.9-3.7c-3-2.5-3.8-8.1-3.9-10.1c-0.1-2-1.1-2.8-0.5-4.2c0.6-1.4-0.2-2.5-0.9-2.4c-0.6,0.1-2,0.2-2.7-1.2  c-0.7-1.5-2.7-2.6-4.2-2.7c-1.5-0.1-2.2,0.2-1.7,2.1c0.5,1.9,0.9,2.1-1.5,1.6c-2.3-0.5-3.5-4.5-4.1-7.5c-0.6-3.1-2.1-0.7-3.2,1.6  c-1.1,2.4-5.7,2.4-8.3,0.9c-2.6-1.5-2.6-0.6-5.9,0.6c-3.3,1.2-2.8-1-3-3.3c-0.1-2.4,0.9-5.3,0.4-7.5c-0.5-2.2,0.7-3.6,1.7-8.9  c1-5.3-2.1-4.2-3.3-5.7s-2.2-4.1-1.7-5.9c0.5-1.9-0.4-8.2-0.6-12.2c-0.2-4.1-0.7-3.8-2.6-6.2c-1.9-2.4,0.6-3.7,0.6-6.3  c0-2.6-0.6-3.6-1.7-4.6c-1.1-1-0.9-2.2-0.7-4.5c0.1-2.2-1.5-6.1-2.8-7.8c-1.4-1.7,0.1-5.3,0.7-6.8c0.6-1.5-1.4-1-2.8-0.9  c-1.4,0.1-2-2.1-2.1-2.5c-1.4,1-3.7,1.1-5.5,0.4c-2.7-1-6.4,1.7-8.4,3.4s-3.3-1.9-3.4-4.6c-0.1-2.7,0.3-4.3-0.7-6.1  c-1-1.9-3.4-2.6-3.6-5.3s-3.3,0-4.7,0.9c-1.4,0.9-0.3,2.7,1.4,4.3c1.7,1.6-1.7,4.9-3.3,5c-1.6,0.1-1.4,1.6-2.4,2.9  c-1,1.3-1.6,1.7-1.4,3.7c0.1,2-1.6,4.4-1.7,6.9c-0.1,2.4,0.9,3,2.1,4.4c1.3,1.4,2,3.7,1.1,5.4c-0.9,1.7,1.3,4,1.7,6.7  c0.4,2.7,1.6,5.1,2.4,7.4c0.9,2.3,2.1,5.9,3.4,8.7c1.3,2.9,2.3,2.6,4.9,1c2.6-1.6,2-3.4,1.9-6.4c-0.1-3,2.3-1.3,3.3-0.3  c1,1,2.1,1.3,3.1,0c1-1.3,2.4,1,2.9,2.7c0.4,1.7,2,2.1,3.1,1.4c1.1-0.7,2.4-0.3,3.7,1.1c1.3,1.4-1.1,4.3-1.4,6.4  c-0.3,2.1,0.6,5.4,1.6,7.4c1,2,0,2.3-0.1,4.6c-0.1,2.3-0.1,7.1-0.6,9.6c-0.4,2.4,1.3,5.7,2.6,7c1.3,1.3,1,1.4-0.3,3.1  c-1.3,1.7-0.1,3.6,0.1,4.3c0.3,0.7,1.1,1.3,0,2.9c-1.1,1.6-1.4,3.3-0.3,5.1c1.1,1.9,0.4,2-0.3,3.9c-0.7,1.9,0.4,3.7,0.9,7  c0.4,3.3,0.6,4-0.3,6.4c-0.9,2.4-1.9,8.6-1.9,10.6c0,2-3.7,6.3-4.3,8c-0.6,1.7,2.4,3.4,3.1,6.1c0.7,2.7-0.7,3.6-2,5.9  c-1.3,2.3-2-0.9-4.1-1.9c-2.1-1-3.9,0.7-3.9,3.3c0,2.6,0.7,5.7,1.7,7.9c1,2.1,3.1,2.9,5.1,5.1c1.4,1.6,1.2,2.6,0.4,3.7  C213.8,257,215,271.1,215,273.1z" stroke-miterlimit="10" stroke="#FFFFFF"/>
<path name="德宏" fill="#D3D3D3" id="path13" d="M210.9,348.5c1.2-1.7,0-2.5-1.3-4c-1.3-1.6-3.4-5-5.3-4.1  c-1.9,0.9-6.6,2.7-7.6,1.3c-1-1.3-2.9-6.2-3-8.1c-0.1-1.9,0.1-10.1,2.5-9.6s6.9,0.7,5.2-1.2c-1.8-1.9-0.1-3.5-2.1-3.6  c-2-0.1-2.9-0.7-7.6-2.1c-4.7-1.5-11.1-3.7-10.2-5.9c0.9-2.2,4.1-4.9,2.2-7.2c-1.9-2.2-4-5-4.4-7.1c-0.3-2-2.5-8.9-6.6-9.1  c-0.2,0.2-0.3,0.4-0.5,0.6c-1.7,2.1-3.7,3.3-5.1,5.1s-1.4,2.1-3.4,3.6c-2,1.4-3.6-3.9-5.1-4.3c-1.6-0.4-5.1,8.6-6.1,10  c-1,1.4-1.6,2.3-1.6,5.1c0,2.9-0.3,3-0.3,5.1s1.7,4.9,2.9,6.4c1.1,1.6-0.6,1.3-2.3,1.1c-1.7-0.1-3.3,1.4-5.1,1.4  c-1.9,0-3,2.1-4.1,3.4c-1.1,1.3-2.3,2.7-1.4,4.1c0.9,1.4,0.6,4.1-0.1,5.7c-0.7,1.6-0.9,3.4-0.9,6.3c0,2.9-1.1,4.7-1.1,6  c0,1.3,4.7-0.4,6.6-0.4c1.9,0,2.3,3.6,4.1,5.6c1.9,2-1.3,1.7-3.1,3.1c-1.9,1.4,1.7,1.4,3.4,1.4c1.7,0,1.6,1.6,1,3.6  c-0.6,2-0.4,2.7,0.3,4.1c0.7,1.4-11.7,13-13,14c-1.3,1,1.1,4.4,3,5.7c1.9,1.3,3.6,0.7,5.6-0.1c2-0.9,7.9-4,8.7-5.6  c0.9-1.6,7.4-2.6,8.7-4c1.3-1.4,4-0.4,7-0.4c3,0,6.9-2.6,8.9-2.4c2,0.1,5,0.1,7.6-0.4c2.6-0.6,7.3-1.1,9.7-2  c2.4-0.9,4.9,1.6,5.9,2.7c0.9,1,4.6-0.9,6.8-1.7c0-1.7,0.3-11.6,0.7-13.8C210.3,354.6,209.7,350.1,210.9,348.5z" stroke-miterlimit="10" stroke="#FFFFFF"/>
<path name="迪庆" fill="#D3D3D3" id="path14" d="M259.3,176.3c-1.1-0.9-2-1.5-0.8-4.5c1.2-3-0.8-3.8-1.9-4.7  c-1.1-0.9-1.5-2.4,0.4-4.1c1.9-1.6,0.9-3.4,1.6-6.5c0.7-3.1-0.3-5.7-1.2-8c-0.9-2.3,3.4-3.7,5.5-4.1s2-3.9,3.5-4.9  c1.5-0.9,2.3,7.2,4.3,9.2c2,2,3,4.5,2,6.4c-0.9,1.9,0.1,2.8,1.3,4c1.2,1.2,2.5,0.7,2.6,3.1c0.1,2.4,1.2,3.2,3.7,3.3  c2.5,0.1,5.5,8.2,7.9,11.1c2.5,3,2.7,3.8,2.7,5.1c0,1.3-2.4,5.6,1.8,4.3c4.2-1.3,4.3-12.8,4.3-15.1s0.2-2.7,2-3.8  c1.8-1.1,3.3-3,3.4-4.3c0.1-1.3,2.3-3.8,3.8-4.9c1.5-1.1,1.2-3.4-0.7-5.2c-1.9-1.8-1.8-5.6-1.8-8.4c0-2.8,1.8-1.3,3.3-3.4  c1.5-2.1,3.1-6.8,2.8-9.4c-0.2-2.2,2-3,2.7-3.1c-0.1-0.1-0.2-0.2-0.2-0.3c-0.7-1.9-0.9-5-0.4-6.4c0.4-1.4-4.1-1.4-5-1.9  c-0.9-0.4-2.9-1-1.9-3.1c1-2.1-2.4-5.3-4.3-7c-1.9-1.7-5.1-7.1-4.9-9.7c0.3-2.6,6.1-2.6,8-4.1c1.9-1.6,1.6-2.6,0.1-4  c-1.4-1.4-0.3-2.3,0.3-3.6c0.6-1.3-2-2.4-4.6-2c-2.6,0.4-1.1-0.3-0.9-2.9c0.3-2.6-0.7-2.4-2.3-3.4c-1.6-1-2.3-2-3.4-5.9  c-1.1-3.9-2-4.1-5.1-3.4c-3.1,0.7-2.1-1.6-2.1-4c0-2.4-0.7-3.1-4.6-4.3c-3.9-1.1-2.3-1.9-2-6.1s-6.1-1-6.6,1.1  c-0.4,2.1-0.9,3.9-2.1,4.6c-1.3,0.7-2.9,0.9-2.4,3.9c0.4,3-6.3,7-9.1,8.4c-2.9,1.4-2.1,3.4-0.6,4.4c1.6,1,0.1,6.4,0.4,9.7  c0.3,3.3-1,4.3-1,8c0,3.7-2.9-0.9-4.9-3.9c-2-3-3-3.9-5.7-6.4c-2.7-2.6-0.9-11.4-0.7-14.9c0.1-3.4-2.3-7.9-3.6-10.4  c-1.3-2.6-1.1-6.1-0.1-12c1-5.9,0.4-19.4,1-22.9c0.6-3.4-4,2-7.3,2.3c-3.3,0.3-2.6,4.1-0.1,7c2.4,2.9-3.4,6.3-4.6,9  c-1.1,2.7,0.9,5,2.3,7.3c1.4,2.3-3.6,3.1-6.6,2.9c-3-0.3-2.1-7-3.1-11.6c-1-4.6-6.6,0.7-6.6,0.7s-1.3,0.1-2.4,1  c-1.1,0.9,0.7,9.7,1.3,12.7c0.6,3-1.1,3.1-2.7,5c-1.6,1.9-0.9,5.1-0.1,6.4c0.7,1.3-0.3,3.3-0.4,4.7c-0.1,1.4,1.1,2.9,3.1,4.3  c2,1.4,2,3.7,3.4,7.1c1.4,3.4-2.6,5.6-2.9,8.4c-0.1,0.9-0.6,1.6-1.2,2.1c0.1,0.4,0.7,2.6,2.1,2.5c1.5-0.1,3.5-0.6,2.8,0.9  c-0.6,1.5-2.1,5.1-0.7,6.8c1.4,1.7,3,5.6,2.8,7.8c-0.1,2.2-0.4,3.5,0.7,4.5c1.1,1,1.7,2,1.7,4.6c0,2.6-2.5,4-0.6,6.3  c1.9,2.4,2.4,2.1,2.6,6.2c0.2,4.1,1.1,10.4,0.6,12.2c-0.5,1.9,0.5,4.5,1.7,5.9s4.3,0.4,3.3,5.7c-1,5.3-2.2,6.7-1.7,8.9  c0.5,2.2-0.5,5.2-0.4,7.5c0.1,2.4-0.4,4.6,3,3.3c3.3-1.2,3.3-2.1,5.9-0.6c2.6,1.5,7.2,1.5,8.3-0.9c1.1-2.4,2.6-4.7,3.2-1.6  c0.6,3.1,1.7,7.1,4.1,7.5c2.4,0.5,2,0.2,1.5-1.6c-0.5-1.9,0.2-2.2,1.7-2.1c0.7,0.1,1.5,0.3,2.2,0.7  C262.1,179.3,260.3,177.2,259.3,176.3z" stroke-miterlimit="10" stroke="#FFFFFF"/>
<path name="丽江市" fill="#D3D3D3" id="path15" d="M380.5,197.2c-1.7,1-3,1.6-4.7,0c-1.7-1.6,0.6-3.3,0.7-5.4  c0.1-2.1-1.6-3.9-3.9-4.7c-2.3-0.9-3.1-0.7-4.3-3.6c-1.1-2.9-2.7-3.4-5.6-5.3c-2.9-1.9,0-6.1,0.3-9.4c0.3-3.3-1.7-2.7-4-2.7  c-2.3,0-2.3-0.3-2.7-2.6c-0.4-2.3-1.3-3-2.1-3s-3.6-1.4-1.1-2c2.4-0.6,0.1-3.1-1.7-5.7c-1.9-2.6-3-4.4-4.6-5.4  c-1.6-1-1.1-2.6-1.1-5.4c0-2.9-0.7-4.4-2.1-5.4c-1.4-1-2-3.3-3.6-5.4c-1.6-2.1-2.4-3-2.3-5.3c0.1-2.3-0.3-2.1-1.9-3.4  c-1.6-1.3-1.1-1.7-1.4-3.9c-0.3-2.1-5.1,2.6-7,4.7c-1.9,2.1-4.6-1.1-5.4-3.4c-0.9-2.3-1.1-0.6-1.6,1.1c-0.4,1.7-2,2.4-3,5.9  c-0.9,3.2-3.7,3.4-4.6,1.9c-0.7,0.2-2.9,0.9-2.7,3.1c0.2,2.6-1.3,7.2-2.8,9.4c-1.5,2.1-3.3,0.6-3.3,3.4c0,2.8-0.1,6.6,1.8,8.4  c1.9,1.8,2.3,4.2,0.7,5.2c-1.5,1.1-3.7,3.6-3.8,4.9c-0.1,1.3-1.7,3.2-3.4,4.3c-1.8,1.1-2,1.5-2,3.8s-0.1,13.8-4.3,15.1  c-4.1,1.3-1.8-3-1.8-4.3c0-1.3-0.2-2.1-2.7-5.1c-2.5-3-5.5-11-7.9-11.1c-2.5-0.1-3.6-0.9-3.7-3.3c-0.1-2.4-1.4-1.9-2.6-3.1  c-1.2-1.2-2.3-2.1-1.3-4c0.9-1.9,0-4.4-2-6.4c-2-2-2.8-10.2-4.3-9.2c-1.5,0.9-1.3,4.5-3.5,4.9s-6.5,1.8-5.5,4.1  c0.9,2.3,1.9,4.9,1.2,8c-0.7,3.1,0.3,4.9-1.6,6.5c-1.9,1.6-1.5,3.1-0.4,4.1c1.1,0.9,3.1,1.8,1.9,4.7c-1.2,3-0.3,3.5,0.8,4.5  c1,0.9,2.8,3,1.8,3.9c0.8,0.5,1.6,1.2,2,2c0.7,1.5,2.1,1.4,2.7,1.2c0.6-0.1,1.5,1,0.9,2.4c-0.6,1.4,0.4,2.2,0.5,4.2  c0.1,2,0.9,7.7,4,10.1c3.1,2.5,5.3,3,7.7,3c2.4,0,5.8,0.5,8.4,1c2.6,0.5,6.1,3.7,7.7,2.1c1.6-1.6,2.2-2.7,4-2.1  c1.7,0.6,2.6,1.2,4.2-0.7c1.6-2,2.5-4.9,4.1-1.5c1.6,3.5,2.7,2.7,3.3,2.6c0.6-0.1,1.6,0,2.8,1.7c1.2,1.7,2.1,2.8,4.1,3.5  c2,0.6,2.7,2.6,2.7,4.5c0,1.9-0.7,3.2,0.2,3.7s0,1.7-0.5,2.6c-0.5,0.9-0.5,3.8-1.9,4.8c-1.4,1-1.2,1.9-0.5,3.7  c0.7,1.9,0.4,3.7-0.1,4.5c-0.5,0.7-2.5,2.8-0.6,3.5c1.9,0.6,4.1,1.2,4.1,3.8c0,2.6-0.4,5.7,3.1,6.2c3.5,0.5,8,1.4,7.5-0.9  c-0.5-2.2-1-6.2,1.4-8c2.3-1.9,2.1-1.9,3.6-1.9c1.5,0,3.2,0,4.2-0.6c1-0.6,1.2,0.2,2.5,1.1c1.2,0.9,3.1,1,4.9-1.7  c1.9-2.7,10.3-11.1,15.1-11c4.8,0.1,9.9,0.1,12.2-1.2c2.4-1.4,5.6-1.4,5.9-3.6c0.3-1.7-0.5-4.6-0.8-5.7c-0.6-0.4-1.2-0.7-1.7-0.7  c-2.1,0-3.3-0.1-3.3-1.9c0-1.7,3-3.4,4.6-4.4c1.6-1,2.3-1.3,1.3-3.7c-1-2.4,0.7-2.1,1.6-4.6C383.8,195.7,382.2,196.2,380.5,197.2z" stroke-miterlimit="10" stroke="#FFFFFF"/>
</svg>