<?xml version="1.0" encoding="UTF-8" standalone="no"?><!-- Generator: Adobe Illustrator 18.0.0, SVG Export Plug-In . SVG Version: 6.00 Build 0)  --><svg xmlns="http://www.w3.org/2000/svg" xmlns:xlink="http://www.w3.org/1999/xlink" contentScriptType="text/ecmascript" zoomAndPan="magnify" contentStyleType="text/css" id="图层_1" mapName="内蒙古自治区" mapType="省市地图" enable-background="new 0 0 800 600" version="1.1" xml:space="preserve" preserveAspectRatio="xMidYMid meet" viewBox="0 0 800 600" x="0px" y="0px">
<g>
	<path name="鄂尔多斯市" fill="#D3D3D3" id="path0" d="M380.6,476.4c-2.8-3.5-5.2-1.9-5.7-1.3c-0.5,0.6-2.1,0.5-1.8-1.1   c0.3-1.6,0-0.9-1.8-0.9s-2.1-1.2-4.6-1.6c-2.5-0.4-7.6-6.5-8.9-8.5c-1.3-2-1.7-1.3-3.2-0.2c-1.5,1.1-1.8,1.8-2.2-0.1   c-0.4-1.9-1.2,0.3-2.9-1c-1.7-1.3-6.2,0.6-6.8-0.2c-0.6-0.8-3-1.7-4.3-1.8c-0.7-0.1-0.9-1.1-0.9-2.4c-1.6-0.1-11.2-0.9-14-2.8   c-3.1-2-8.7-7.7-10.9-9.5c-2.3-1.9-6.5-5.2-10.5-5.2c-4,0-9,1.2-10.6,2c-1.6,0.8-7.2,3.5-8.8,4.8c-1.6,1.2-3.3,3.8-3.4,5.1   c-0.1,1.2-2.2,3.9-3.6,4.3c-1.4,0.4-6.4,2.2-7.1,3.1c-0.7,0.9-4.2,2.5-4.6,9c-0.1,1.1-0.3,2.4-0.1,3.7c0.3-1.9,1.1-4.1,2-4.2   c1.1-0.1,4.9-1.5,5,0.7c0.1,2.2-0.5,7.8,0.7,9.6c1.2,1.8,0.9,4,0.3,6.6c-0.6,2.7-0.9,8.6-2.4,10.1c-1.3,1.3-2.7,2.8-3.6,3.7   c0.4,0.8-0.6,1.7-1.7,2.6c-1.4,1.1-5.4,5.4-7,6.6c-1.7,1.2-2.4,2-2.4,4.6c0,2.7-3.7,5.2-4.9,6.5c-1.2,1.3,8.3,8.4,11.1,9.2   c2.8,0.8,3.4-0.9,5-0.1c1.5,0.8,2.3,5.5,3.9,7.8c1.6,2.3,11.2,8.5,13.6,9.5c2.3,0.9,0.4,3.8,2.5,6s6.2,0.3,7.7-1.1   c1.6-1.4,7.7,2.3,8.4,2c0.6-0.4,0.5-1,1.9-0.3c1.3,0.7,1.7-4.9,2-7.7c0.3-2.8,1.5-1.9,3-1.5c1.6,0.4,2,1.5,3.8-0.5   c1.8-2,0.5-3.8,0-6.6c-0.5-2.7,11-13.4,12.5-15.2c1.6-1.9,3-2.9,4.7-2.2c1.7,0.8,4.3-2.7,5.2-5.4c0.9-2.8,1.8-2,4.1-2   s4-2.4,4.3-3.4c0.3-1.1,3.8-2.1,5.4-1.5c1.6,0.6,0.5-4.1,0.4-5.8c-0.1-1.7,2-1.6,3.3-1.4s0.9,4.4,1.6,5.6c0.7,1.2,3.1-1.1,4.7-1.4   c1.6-0.3,2,1.7,2.3,3.9c0.3,2.3,5-2.5,7.2-5.4c2.2-2.9,5-2.1,6.6-2s0.2,1.5-0.7,3.1c-0.9,1.7,0.1,1.7,0.9,1.1   c0.8-0.6,2.4-0.9,3.3,0c1,0.9,2.3,1,2.3-0.4c0-1.4,0.2-0.6,2.5-1.9c2.4-1.3,0.9-2.3,1.1-4.5c0-0.1,0.1-0.2,0.1-0.3   c-0.7-0.6-1.6-1.5-1.9-2.7c-0.6-2.2,1.2-2.6,2.6-5C386.7,486.4,383.3,479.9,380.6,476.4z" stroke-miterlimit="10" stroke="#FFFFFF"/>
	<path name="乌海市" fill="#D3D3D3" id="path1" d="M272,484.6c0.6-2.7,0.9-4.9-0.3-6.6c-1.2-1.8-0.6-7.4-0.7-9.6   c-0.1-2.2-3.9-0.8-5-0.7c-1.1,0.1-2.1,3.8-2.1,5.7c0,1.9-2.7,3.5-2.7,3.5c-2.1-0.1-2,1.4-1.1,2.6c0.7,0.9-0.1,3.8-0.4,5   c1.9-0.6,4.9,1.9,5.3,3.2c0.4,1.4,0.2,2.4-1.8,4.5c-2,2.1,0.5,4.5,2.2,5.6c0.4,0.2,0.6,0.5,0.7,0.7c0.9-1,2.3-2.4,3.6-3.7   C271,493.2,271.3,487.3,272,484.6z" stroke-miterlimit="10" stroke="#FFFFFF"/>
	<path name="乌兰察布市" fill="#D3D3D3" id="path2" d="M474.2,415.8c-0.8-1.1-3.2,1.5-4.7,3.4c-1.5,1.9-2.7,1-4.1,0.2   c-1.4-0.8-4.7,1.6-6,2.3c-1.4,0.7,0.1,1,0.2,2.8c0.1,1.8-1,1.9-2,0.8c-1-1.1-2.3-2.5-5.1-1.9c-2.9,0.6-5.2-3.9-6.6-5.4   c-1.4-1.5-5.1,2.7-6.1,3.6c-1,0.9-1.3,3.1-4.1,2.2c-2.8-0.9-5.2-4.2-5.3-7.4c-0.1-3.2-5.9-9.6-7-11c-1.1-1.4-3.8-4.4-4.1-7.3   c-0.4-2.9-3.5-4-7.1-5.6c-3.6-1.6-6.5-9.4-7.1-12.2c-0.6-2.9-4-7.7-6-9c-1.2-0.8-1.5-2.4-1.6-3.5c-0.8,0.4-1.8,0.7-3,0.9   c-3.2,0.3-2.6,2.3-5.3,4.1c-2.7,1.8-6,5.1-6.8,6.8c-0.8,1.7-3.6,5.2-5.5,5.2c-1.8,0-2.7,2.9-5.4,3.7c2.2,2.1,8.2,8.1,9,10.8   c0.9,3.4,1.8,9.2,3.2,10.6c1.4,1.4,2.7,3.8,3.1,6.7c0.4,2.9-0.3,8.1,1.1,10.1c1.4,2.1,3.7,7.7,3.7,9.4c0,1.7-0.8,3.3,1.9,2.9   c2.8-0.4,4.8-1.6,5.4,2c0.6,3.7,5.4,10.2,5.7,12c0.3,1.8,2.1,2.8,2,5.7c-0.1,3-2.1,7.7-1.5,10.2c0.5,1.9,1.6,6.4,2.1,8.5   c3.2-1.2,6.2,1.3,8.7,2.6c2.8,1.6,3.8-1.2,5.9-2.8c2.1-1.5,3.6-0.7,7.5-0.9c4-0.2,6.5,2.8,7.9,3.2c1.5,0.4,6-2.5,7.4-3.7   c1.4-1.3,3.7-1.3,5.8-1.1c2.2,0.2,1.8-1.8,1.8-2.9c-0.1-1.1,0.8-3.7,1.4-7.3c0.5-3.7-2.1-5.6-3.4-7.4c-1.3-1.8,1.2-3.3,2.7-4.9   c1.5-1.6,0.4-4.3-0.2-6.2c-0.6-2,0.4-2.3,1.4-3.8c1.1-1.4,3.1-1.2,5.3,0c2.2,1.2,2-5.1,2.2-7.7c0.1-2.7,1.2-3.2,2.9-4.8   c1.7-1.6,2.5-2,3.8-1.9c1.2,0.1,1.1-1.4,1.3-3.5c0.2-2,2.7-1.8,5.1-1.8c1.2,0,2-0.2,2.7-0.3C476.8,421.1,475,416.8,474.2,415.8z" stroke-miterlimit="10" stroke="#FFFFFF"/>
	<path name="锡林郭勒盟" fill="#D3D3D3" id="path3" d="M612.6,274.5c-0.5,0.5-1,1-2.5,1.9c-2.2,1.4-2.9,1.2-4.2,0.3   c-1.3-0.9-2.5-1.1-4.7,0.2c-2.2,1.3-2.2-0.2-3.9-0.2c-1.7,0-3.2-1.2-3.9-2.4c-0.7-1.2-2.9-0.9-4.2-1.6c-1.3-0.7-1.7,0-3.5,1.1   c-1.8,1.1-2.6-0.2-4.6,0c-2,0.2-2.6-0.4-4.1-1.4c-1.5-1-3.5-0.1-5.3,0.9c-1.8,1-6.8,2.8-8,4.2c-1.2,1.4-3.4,2-4.6-0.3   c-1.2-2.3-0.6-1.8-2.7-1.6c-2.1,0.2-3.1,3.8-3.8,6c-0.7,2.2-5.2,2.3-8,0.7c-2.8-1.6-3.1,0.1-6.8,0.2c-3.8,0.1-6.6,4.9-9.2,7.6   c-2.6,2.7-3.3,5.8-3.6,8.1c-0.2,2.3-0.6,6.4-4.8,6.2c-4.1-0.2-1.9,0.6-7,4.2c-5.1,3.6-9.8,3.8-12.9,3.8c-3,0-5.7,1.1-7.9-0.4   c-2.2-1.5-2.9-1.3-6.4-1.7c-3.5-0.4-5.3,3.9-7.1,6.3c-1.8,2.4-9,9-10.7,9.3c-1.7,0.3-5.7,1.1-7.6,2.9c-1.8,1.8-3,1.7-6.7-0.4   c-3.7-2.2-6,0.6-7.8-1.2c-1.7-1.8-1.7-1.2-6.7-2.8c-5-1.6-7-6.1-8.2-7.4c-1.2-1.3-4.4-2.3-7.2-2.9c-2.8-0.6-3.8,0.2-7.3,1.1   c-3.6,0.9-6.4,8.4-8.1,11.3c-1.7,2.8-1.6,5.3-3.7,6.2c-2.1,0.9-1.5,3-1.5,4.4c0,1.4,1,1.8,2.1,2.7c1.1,0.9-0.3,3.9,1.3,6.4   c1.6,2.5,4.3,6.4,6.4,7.7c2.1,1.3,1.2,3.2,1.2,5c0,1.7-0.9,2.8-3.1,2.8c-2.3,0-2.8,0.8-5,2.7c-2.2,1.9-4.3,2.4-5.9,2.3   c-1-0.1-1.9,0.6-3.2,1.2c0.1,1.2,0.4,2.7,1.6,3.5c2,1.3,5.4,6.1,6,9c0.6,2.9,3.5,10.6,7.1,12.2c3.6,1.6,6.8,2.7,7.1,5.6   c0.4,2.9,3,5.9,4.1,7.3c1.1,1.4,6.9,7.8,7,11c0.1,3.2,2.5,6.6,5.3,7.4c2.8,0.9,3.1-1.3,4.1-2.2c1-0.9,4.7-5.1,6.1-3.6   c1.4,1.5,3.8,6,6.6,5.4c2.9-0.6,4.1,0.8,5.1,1.9c1,1.1,2.1,1,2-0.8c-0.1-1.8-1.6-2.1-0.2-2.8c1.4-0.7,4.7-3.1,6-2.3   c1.4,0.8,2.6,1.7,4.1-0.2c1.5-1.9,3.9-4.5,4.7-3.4c0.8,1,2.5,5.2,3,6.5c0.7-0.2,1.3-0.3,2.2-0.3c1.8,0-0.1,1.8-1.6,3.5   c-1.5,1.7,1.2,1.3,2,2c0.8,0.7,0,8.4-0.7,10.5c-0.7,2.2,0.5,2.4,1.8,2.3c1.4-0.1,2.2,0.3,3.4,0.8c1.2,0.5,4.3,0.9,4.3-0.4   c0-1.3,5.6-3.9,6.9-5.1c1.3-1.2,5.5-3,7-3.5c1.5-0.5,2.9,4.1,4.3,4.9c1.4,0.8,7.3-4.2,9-5.8c1.7-1.6,3.3,1.3,4.2,1.3   c0.8,0,1,0.4,2.5,1.5c1.5,1.1,3.4-1,5-2.1c1.6-1,1.3-2.7,0.9-4.4c-0.4-1.7,0.5-1.5,1.6-2.5c1-1,0.5-2.8,1-5.6   c0.2-1.2,0.8-1.8,1.4-2.1c-0.7-0.8-1.5-2-2.1-3.3c-1.2-2.4-1.8-2.9-5.3-3.1c-3.5-0.2-0.8-2.6,2-6.7c2.7-4.1-0.5-5-5.3-8.1   c-4.9-3.1-0.4-9.1,0.5-11.6c0.9-2.5,4.2-2.2,7.1-2.8c3-0.7,2.8-3.5,2.8-5.7s0.5-1.4,3.1-2.2c2.6-0.8,1.6-7.4,1.4-9.2   c-0.2-1.8,1.5-4.2,3.5-5c2-0.8,2.1-1.6,4.6-4.2c2.4-2.7,0.5-1.3,4.1-1.1c3.5,0.2,4.6,5.3,4.6,6.7c0.1,1.4,2.1,2.2,2.3,1.3   c0.2-0.9,1-1.3,1.6-0.9c0.5,0.3,1.6,1.3,2.7,0c1.1-1.3,2.3-0.2,4.2-0.1c1.9,0.2,1.6-0.5,3.2-3.3c1.6-2.8,3.5-3.3,6.7-4.1   c3.2-0.8,2.4-3.1,5.2-3.1c2.7,0,7.4-3.1,11-6.6c3.6-3.5,0.6-6.1-0.7-8c-1.3-1.8,2.3-2.2,5.1-5.6c2.8-3.4,1.2-4.1,0.7-8.7   c-0.5-4.7,4.3-9.3,7.1-10.3c2.8-1,7.1-5.6,7.7-7.2c0.7-1.6,1.3-2.7,0.8-4.5c-0.4-1.9,0.7-11.1,0.7-15.5   C611.7,281.3,612.3,276.7,612.6,274.5z" stroke-miterlimit="10" stroke="#FFFFFF"/>
	<path name="兴安盟" fill="#D3D3D3" id="path4" d="M610.5,311.8c1.8-1.2,3.1-1.4,5.2,0c2.1,1.4,10.6,6,11.6,8.5   c1,2.4,1.8,5.2,4.3,7.2c2.4,2,10.2,8.9,13.6,11.7c3.5,2.9,7.5,8.5,8.1,10.4c0.6,1.9,0.5,8.2,5.2,9.4c3.7,1,8.3,0.9,10,0.9   c-0.4-1-0.4-2.6-0.4-4.1c0-3.3-1.4-4.5-2.6-6.4c-1.3-1.9-2.1-3.4-1.3-5.5c0.9-2.1-0.4-3.3-1.4-4.5c-1-1.3,0.8-6.9,2.8-10.1   c2-3.1-0.5-5.5-0.9-7.4c-0.4-1.9-0.3-3.5-2-4.4c-1.8-0.9-3.3-2.1-2.5-4.5c0.8-2.4-3.9-2.3-5.3-2.3c-1.4,0-2.6-1.9-1.1-2   c1.5-0.1,2.6-0.6,3.3-3.6c0.6-3-1.8-4.3-0.3-5.4c1.5-1.1,7,4.3,9.2,6.2c2.1,1.9,3.4,0.4,3.4-1.5c0-1.9,0.9-2.8,2.8-2.8   c1.9,0,3.3,3.9,5,6.8c1.8,2.9,2.6,0.3,3.1-3c0.5-3.3-1.3-4.1-1.9-5.7c-0.6-1.5,3.1-2,6.2-2.4c3-0.4,3.4-2,4.7-4   c1.3-2,0.4-3.5-1.5-4c-1.9-0.5-2.5-4.5-2.5-6.5c0-2,2.3-2.9,4.5-2.9s5.7-1.6,7.9-2.5c2.3-0.9,2.9-3.4,2-5.3   c-0.9-1.9-0.8-2.3-1.3-1.1c-0.5,1.1-1.8,0.5-1.8-1.3c0-1.8-1.1-2.5-1.1-0.8c0,1.8-1.8,4.9-3.3,3.6c-1.5-1.3-2-0.5-2.8,1   c-0.8,1.5-2.5,2.1-3.8,2.3c-1.3,0.1-1.8-1.9-2-4.4c-0.3-2.5-0.8-2.1-2.5-0.6c-1.8,1.5-1.1-0.1-0.8-3.5c0.4-3.4-3-5-7.5-9.8   c-0.7-0.8-1.1-1.6-1.1-2.5c-1.3,0.4-3.2,1.9-6.3,3.4c-3.6,1.7-5-1.1-7.5-2.1c-2.5-1-2.9,1.5-3.6,2.6c-0.7,1.1-0.5,2.6-2.2,1.4   c-1.7-1.2-2.5-0.6-3.8,0.4c-1.3,1-2.1,1.2-4.4,1.1c-2.4-0.1-3.9-0.6-5.9-0.2c-2.1,0.4-1.7,0.1-5-2.3c-3.4-2.4-1.3-5.8-1.6-9.1   c-0.3-3.3-5.2-5.6-9-6.5c-3.8-0.9-8,3.5-11.9,6.5c-2.6,2.1-6.1,2.5-8,2.5c0.1,0.1,0.2,0.2,0.3,0.4c1.4,1.6,2.9,4.2,5.2,5.4   c2.3,1.2,3.1,5.8,3.3,7c0.2,1.2,3.2,2.9,2.4,4.5c-0.8,1.6,1,2.9-0.3,3.9c-0.4,0.3-0.7,0.6-1,0.8c-0.3,2.2-0.9,6.8-0.9,10   c0,4.4-1.2,13.6-0.7,15.5c0.4,1.9-0.1,3-0.8,4.5c-0.6,1.3-3.8,4.9-6.5,6.5C605.1,311.5,609,312.8,610.5,311.8z" stroke-miterlimit="10" stroke="#FFFFFF"/>
	<path name="呼伦贝尔市" fill="#D3D3D3" id="path5" d="M750,127.3c0-3.5-2.6-3.6-4.1-6.2c-1.5-2.5-5.8-8.5-7.5-11.2   c-1.8-2.6-3-4-6.2-4s-1.9,3-3.4,3.6c-1.5,0.6-1.5,0.6-2,2.4c-0.5,1.8,0.6,1.3-0.9,2.3c-1.5,1-3.1,2.1-4.9,1.6   c-1.8-0.5-2.1-0.4-3.5,1.1c-1.4,1.5-3.4,1.5-4.1,0.5c-0.8-1-2-1.1-4-0.6c-2,0.5-4,0.9-5.8-1c-1.8-1.9-2.1-0.5-3.4,1.1   c-1.3,1.6-2.1,2.1-4.6,2.1c-2.5,0-8.4-0.1-9.7-1c-1.3-0.9-2.9-4.5-2.6-7c0.3-2.5-0.4-4.1-1.4-5.3c-1-1.1-3-1.9-1.6-5.7   c1.4-3.8-0.8-4.4-2.5-6.5c-1.8-2.1,0.6-2.3,2.8-5.7c2.1-3.4-2.3-3.9-4.8-4.8c-2.5-0.9-6.2-4.9-7.9-6.3c-1.8-1.4-1.8,3.5-4.3,6   c-2.5,2.5-5.5,0.8-5.5-1.8c0-2.5-0.6-2.6-1.8-2.8c-1.1-0.1-2,0.3-3.5-1.5c-1.5-1.8-1.9-1.5-4.1-1.9c-2.3-0.4-1-2.8,0.4-3.6   c1.4-0.9,6.9-4.8,7.9-6.4c1-1.6,0.8-4,2.8-5.8c2-1.8,1.4-3.3-0.3-3.6c-1.6-0.4-1.4-0.6-1.4-2.5c0-1.9-2.3-1.8-3.4-3.5   c-1.1-1.8-0.6-2.1-3-1.1c-2.4,1-5.9,1.3-9,0.6c-3.1-0.6-8.3,6.9-10.2,9.4c-1.9,2.5-4.8,5.9-7.4,6.2c-2.6,0.3-1.8,3.4-1.9,7.2   c-0.1,3.8,3.3,1.5,4.8,0.1c1.5-1.4,4.5,0.1,6.7,0.5c2.1,0.4,2.9,4,1.6,6.2c-1.3,2.1-1.1,4.6,0.4,6c1.5,1.4,0.9,2.6,0.1,5.9   c-0.8,3.3-1.5,6.3-3.1,6.3c-1.6,0-2.4,0.1-3.6,1.9c-1.3,1.8-5.9,5.8-7.8,6.3c-1.9,0.5-1.5,2.6-1.5,5.2c0,2.5-1.3,4.4-2.4,4.9   c-1.1,0.5-3.4,7-3.6,9.3c-0.3,2.3-0.9,3.3-2.6,3.5c-1.8,0.3-2.3,3.3-2.6,5.3c-0.4,2-0.4,3.1-1.9,4.1c-1.5,1-2.9,3-3.3,4.5   c-0.4,1.5,0,3.9-1.9,5.4c-1.9,1.5,0.9,1.1,3.3,1.8c2.4,0.6-1,6.5-4.4,10.4c-3.4,3.9-7.4,3-10.8,2.9c-3.4-0.1-6.7,3.7-8.2,5.7   c-1.5,2-7.5,5-10.2,5.8c-2.7,0.8-4.6-1.4-5.6-2.9c-1-1.5-3.1-3.1-4.6-2.2c-1.5,0.9-3.3,1.7-5.6,0.6c-2.3-1.1-4.8-3.2-7.4-6.2   c-2.6-3-2.6-0.9-3.8,1.2c-1.2,2.1-2.1,4.3-3.6,6.7c-1.5,2.4-3.3,6.1-4.2,7.7c-0.9,1.6-2.1,4.3-3.9,7.6c-1.8,3.3-3.7,5.2-4.1,6   c-0.4,0.8-0.6,2.8-0.6,4.3c0,1.5-2.3,4.1-4,5.9c-1.7,1.8-2.5,3.8-2.7,5.4c-0.2,1.6-0.3,6.1-0.3,6.9s-2.6,3.5-5.3,3.8   c-2.7,0.3-1.7,0.8-1.6,3.8c0.1,3,1.4,5.4,2.7,7c1.3,1.6,4.3,6,5.9,6.5c1.6,0.5,4.3-3.2,5.8-4.7c1.5-1.5,3-1.3,4.7-0.5   c1.7,0.8,3.6,0.7,4.5-0.1c0.9-0.8,3.8-1.2,6.4-1.2c2.6,0,8.6,7.6,10.1,9.4c1.5,1.8,2.8,0.1,3.3-1.2c0.5-1.3,3.1-4.5,6.2-7.3   s5.2-2.4,8-2.6c2.8-0.2,9.7,2.5,11.4,2.8s2.2,5,4.4,6.7c2.2,1.7,4.1,2.8,6.2,3.3c2.1,0.5,2.2,2.4,2.3,3.7c0.1,1.3,0.4,2,1.9,2.1   c1.5,0.1,2.7,1,2.7,3c0,1.8,0.5,2.4,1.7,3.7c2,0,5.4-0.4,8-2.5c3.9-3.1,8.1-7.4,11.9-6.5c3.8,0.9,8.7,3.3,9,6.5   c0.3,3.3-1.8,6.7,1.6,9.1c3.4,2.4,3,2.7,5,2.3c2.1-0.4,3.6,0.1,5.9,0.2c2.4,0.1,3.2-0.1,4.4-1.1c1.3-1,2.1-1.6,3.8-0.4   c1.7,1.2,1.5-0.3,2.2-1.4c0.7-1.1,1.1-3.6,3.6-2.6c2.5,1,3.9,3.8,7.5,2.1c3.1-1.5,5-3,6.3-3.4c-0.3-4.6,7.2-10,9.4-11.4   c2.6-1.6,5.7-2.5,7.9-5.8c2.3-3.3,4.8-5.9,7-6c2.3-0.1,3.9-1.5,3.9-3.4c0-1.9,3-3.1,4.3-5.8c1.3-2.6,6.7-6.7,8.3-7.7   c1.6-1,2.3,4.4,2.3,6.7c0,2.3,2.4,3.8,3.8,4.8c1.4,1,1.9-3,1.3-4c-0.6-1-0.8-4.5-0.5-8.2c0.3-3.6,2.8-7.8,3.3-10.6   c0.5-2.8,3-8.3,3.1-10.4c0.1-2.1,2.5-2.8,3.9-1.6c1.4,1.1,1.6,1.4,4.4-2.5c2.8-3.9-0.1-9.4-0.9-11.2c-0.8-1.8-1.8-2.4-0.1-3.8   c1.6-1.4-0.4-1.9,0.3-4.1c0.6-2.3,0.6-3.1-0.3-4c-0.9-0.9,0-2.1,0.9-2.8c0.9-0.6,1.8-1.5,0.6-2.4c-1.1-0.9-0.9-2,1-2   c1.9,0,0.4-1.6,2.1-3.6c1.8-2,2-2.5,2-5c0-2.5,1.1-2.3,3.6-3.8c2.5-1.5,2-4.8,1.9-6.8c-0.1-2,0.6-4.4,2.4-6.2   C749.5,131.4,750,130.8,750,127.3z" stroke-miterlimit="10" stroke="#FFFFFF"/>
	<path name="赤峰市" fill="#D3D3D3" id="path6" d="M627.4,423.2c-1.5-0.9-3.3-2.1-4.3-7.1c-1-5-3.3-9.1-3.3-10.5   c0.1-1.4,0.8-1.6-0.8-4.2c-1.6-2.6,5.1-8.4,6.2-9.7c1.1-1.3,2.5-1.8,3-3.1c0.5-1.3-3.4,0.7-6.7,0.7s-1.8-1.4,0.9-1.2   c2.7,0.2,3.5-1.1,4.1-2.5c0.6-1.4,5-3.2,6.1-3.7c1-0.5,2.9-2.3,1.6-3.1c-1.3-0.8-4.3-6.6-4.6-8.5c-0.3-1.9-2-2.8-1.7-3.7   c0.3-0.9-0.1-2.1-0.1-3.7c0-1.6-0.4-3-3.7-3c-3.3,0-4.7-6.6-5.4-9c-0.6-2.4-1.6-2.2-3-3.4c-1.4-1.2-6.3-10-7.9-11.2   c-1.6-1.2-3.1-1.7-3-3.2c0.1-1.5,0.3-1.4-2.9-5.3c-2.5-3.1-5.1-3-6.2-2.7c0.5,2.1,0.7,3.2-1.3,5.6c-2.8,3.4-6.4,3.8-5.1,5.6   c1.3,1.8,4.3,4.5,0.7,8c-3.6,3.5-8.3,6.6-11,6.6c-2.7,0-1.9,2.3-5.2,3.1c-3.2,0.8-5.1,1.4-6.7,4.1c-1.6,2.8-1.3,3.5-3.2,3.3   c-1.9-0.2-3.1-1.3-4.2,0.1c-1.1,1.3-2.2,0.3-2.7,0c-0.5-0.3-1.4,0.1-1.6,0.9c-0.2,0.9-2.2,0.1-2.3-1.3c-0.1-1.4-1.1-6.5-4.6-6.7   c-3.5-0.2-1.6-1.6-4.1,1.1c-2.4,2.7-2.5,3.5-4.6,4.2c-2,0.8-3.7,3.1-3.5,5c0.2,1.8,1.2,8.4-1.4,9.2c-2.6,0.8-3.1,0.1-3.1,2.2   s0.1,5-2.8,5.7c-3,0.7-6.2,0.3-7.1,2.8c-0.9,2.5-5.3,8.6-0.5,11.6c4.9,3.1,8.1,4,5.3,8.1c-2.7,4.1-5.5,6.6-2,6.7   c3.5,0.2,4.1,0.6,5.3,3.1c0.6,1.3,1.5,2.5,2.1,3.3c0.8-0.3,1.7-0.1,2.4,0c1.3,0.1,8,0.3,9.5-0.3c1.5-0.6,2.1-1.8,2.2-3.5   c0.1-1.7,2.4-0.2,3.2,0.4c0.8,0.5,2.3-0.4,3.1-1.2c0.8-0.8,2.5,1.1,2.7,2.3c0.2,1.2,1.9,2.5,2.9,3.5c0.9,1.1,1.5,3.5,0.7,4.4   c-0.8,0.9,0.6,3.5,1.6,4.4c1,0.9,0.7,3,0.7,4.3c0,1.3,2,0.9,3.2,0.1c1.1-0.9,1,1.1,0.5,3.1c-0.5,2-0.1,2.8,1.1,3.7   c1.1,0.9,0.3,2.4-0.5,3.8c-0.7,1.4-1.9-0.1-3-1.3c-1.1-1.2-1,0.1-1.2,4.5c-0.1,4.4,2.1,3.5,3.1,4.3c1,0.7,0.3,1.5-0.6,1.9   c-0.9,0.4-0.5,1.2,0.6,1.8c1.1,0.6,0.1,1.2,1.5,2.9c1.4,1.7,3.8,0.7,6.3,0.7c2.5,0,9.4,1.8,13.5,2.2c4.1,0.5,5.5-3.8,7.3-6.6   c1.7-2.8-1.7-5.4-2.1-7c-0.5-1.7,0.4-6.4,1.3-8.8c0.9-2.3-1.1-6.1-1.6-8.3c-0.5-2.1,3.8-4.7,5.5-5.5c1.7-0.9,1.5,3,2.8,4.6   c1.4,1.6,1.8,1.5,3.9,1.1c2-0.4,1.9,0.8,1.9,2.3c0,1.6,0.7,3.4,2,4.7c1.4,1.3,1,1.8,0.8,3.8c-0.2,1.9,0.9,6.1,2.1,7.3   c1.3,1.2,3.1-1.8,3.1-3.8s2.3-3.7,4.3-4.7c1.9-1,3.3-1.8,3.4-3.6c0.1-1.8,0.3-2.9,1.8-3.8c1.6-0.9,6-1.6,7.9-2.7   c0.2-0.1,0.4-0.3,0.6-0.4C630,426.9,628.8,424,627.4,423.2z" stroke-miterlimit="10" stroke="#FFFFFF"/>
	<path name="通辽市" fill="#D3D3D3" id="path7" d="M696.2,388.9c-2.9-0.7-2.6-2.4-2.2-5c0.5-2.5,3.3,0.1,3.1-0.6   c-0.3-0.8-0.5-3.5-0.5-5.2c0-1.6-0.5-4.9-1.9-7.7c-1.4-2.8-0.1-2.4,0.1-4.5c0.3-2.1,0.4-3.5-1.1-4c-1.5-0.5-2.5-1.6-4-3.1   c-1.5-1.5-1.6-1.9-0.6-3.6c1-1.8,2.1-3.9,0.1-3.9s-13.2,6.9-17.1,9c-2.1,1.1-3,0.7-3.5-0.4c-1.7,0.1-6.3,0.1-10-0.9   c-4.7-1.2-4.6-7.4-5.2-9.4c-0.6-1.9-4.7-7.5-8.1-10.4c-3.5-2.9-11.2-9.7-13.6-11.7c-2.4-2-3.3-4.8-4.3-7.2c-1-2.4-9.5-7-11.6-8.5   c-2.1-1.4-3.4-1.2-5.2,0c-1.5,1-5.4-0.3-6.8-0.8c-0.4,0.3-0.9,0.5-1.3,0.6c-2.8,1-7.6,5.6-7.1,10.3c0.1,1.3,0.4,2.3,0.6,3.1   c1.2-0.3,3.7-0.4,6.2,2.7c3.1,3.9,3,3.8,2.9,5.3c-0.1,1.5,1.4,2,3,3.2c1.6,1.2,6.5,9.9,7.9,11.2c1.4,1.2,2.4,1.1,3,3.4   c0.6,2.4,2,9,5.4,9c3.3,0,3.7,1.4,3.7,3c0,1.6,0.4,2.8,0.1,3.7c-0.3,0.9,1.4,1.8,1.7,3.7c0.3,1.9,3.3,7.7,4.6,8.5   c1.3,0.8-0.6,2.6-1.6,3.1c-1,0.5-5.5,2.3-6.1,3.7c-0.6,1.4-1.4,2.7-4.1,2.5c-2.7-0.2-4.1,1.2-0.9,1.2s7.2-2,6.7-0.7   c-0.5,1.3-1.9,1.8-3,3.1c-1.1,1.3-7.8,7.1-6.2,9.7c1.6,2.6,0.9,2.8,0.8,4.2c-0.1,1.4,2.3,5.5,3.3,10.5c1,5,2.8,6.3,4.3,7.1   c1.4,0.8,2.6,3.6,3.5,4.7c1.3-0.8,1.6-0.9,4.5-0.8c3.4,0.1,5.6-3,6-3.9c0.4-0.9,2.3-1.8,4.3-1.8c1.9,0,1.8,0.3,3.3,1.1   c1.5,0.8,3.2,0.9,5.9-1.5c2.7-2.3,1.9-4.3,1.8-5.3c-0.1-1,2.1-1.1,3.7-0.7c1.6,0.4,1.5-0.1,3.5-1c2-0.9,4,1.5,6.3,0.5s1-3-0.1-3.6   c-1.1-0.6-1-1-0.4-1.9c0.6-1,6.9,1.8,9,2.7c2.1,0.9,2.5,1.2,4,0.6c1.5-0.7,3.8-2,5.5-2s1.8-2.2,1.8-4.3c0-2.2,1.3-2.2,2.7-3.3   c1.4-1.1,4,0.7,5.9,1.5c1.9,0.8,2.8-9.8,3-11.6C702,390.9,699.1,389.6,696.2,388.9z" stroke-miterlimit="10" stroke="#FFFFFF"/>
	<path name="包头市" fill="#D3D3D3" id="path8" d="M379.6,469.3c-0.2-1.7-3.6-2.9-5.1-5c-1.4-2.1-0.9-2.2-0.9-4.9   c0-2.7-1.6-3.8-1.3-5.5c0.2-1.7,0-3.2-1-3.4c-1-0.2-1,0,0.3-3c1.3-3,0.1-3.4-0.4-6.4c-0.5-3,1.3-4.8,3.1-5.3c1.8-0.5,7.7,3,9.7,3.7   c1.6,0.5,5.7-0.2,7.6-0.6c-0.5-0.5-0.2-1.5-0.2-2.7c0-1.7-2.3-7.4-3.7-9.4c-1.4-2.1-0.7-7.2-1.1-10.1c-0.4-2.9-1.6-5.3-3.1-6.7   c-1.4-1.4-2.3-7.2-3.2-10.6c-0.8-2.8-6.8-8.7-9-10.8c-0.2,0.1-0.3,0.1-0.5,0.2c-3,0.6-5.2,2.5-6.5,2.1c-1.3-0.4-5.1-0.1-6.7,0.2   c-1.6,0.3-7.5,2.9-9.3,3.8c-0.1,0.1-0.2,0.1-0.4,0.1c0.5,2.3,1.7,9.8-1.4,12.2c-3.7,2.9-5.1,5.3-4.8,8.2c0.3,2.9,2,0.2,1.3,5.3   s0.4,5.2,2.2,5.9c1.8,0.7,3.9,0.8,3.5,3.9c-0.4,3.1-1.8,3.5-1.5,5.1c0.3,1.6,0.3,4.2,0,6.1c-0.3,1.9,0.1,2.7,1.7,3.6   c1.6,0.8,4.7,4.8,1.4,6.7c-3.3,1.9-2.3,1.6-6.3,1.4c-4-0.2-5.2-2.1-6,0.2c-0.8,2.3-1,6.2,0.3,6.3c1.3,0.1,3.7,1,4.3,1.8   c0.6,0.8,5.1-1.1,6.8,0.2c1.7,1.3,2.5-0.9,2.9,1c0.4,1.9,0.7,1.2,2.2,0.1c1.5-1.1,1.9-1.8,3.2,0.2c1.3,2,6.5,8.1,8.9,8.5   c2.5,0.4,2.8,1.6,4.6,1.6s2.1-0.7,1.8,0.9c-0.3,1.6,1.3,1.7,1.8,1.1c0.4-0.5,2.2-1.7,4.5,0.1C379.6,473.3,379.8,470.6,379.6,469.3z   " stroke-miterlimit="10" stroke="#FFFFFF"/>
	<path name="呼和浩特市" fill="#D3D3D3" id="path9" d="M405.1,469c-0.6-2.6,1.4-7.2,1.5-10.2c0.1-3-1.7-3.9-2-5.7   c-0.3-1.8-5.1-8.4-5.7-12c-0.6-3.7-2.6-2.4-5.4-2c-0.9,0.1-1.4,0-1.7-0.2c-1.9,0.4-6.1,1.1-7.6,0.6c-2.1-0.7-7.9-4.2-9.7-3.7   c-1.8,0.5-3.6,2.3-3.1,5.3c0.5,3,1.7,3.4,0.4,6.4c-1.3,3-1.3,2.8-0.3,3c1,0.2,1.3,1.7,1,3.4c-0.2,1.7,1.3,2.9,1.3,5.5   c0,2.7-0.6,2.8,0.9,4.9c1.4,2.1,4.9,3.2,5.1,5c0.1,1.4-0.1,4.1-0.3,5.9c0.4,0.3,0.8,0.7,1.2,1.2c2.8,3.5,6.1,10,4.7,12.4   c-1.4,2.4-3.3,2.8-2.6,5c0.3,1.2,1.2,2.1,1.9,2.7c0.6-1.7,4.3-0.7,7.8,0.1c3.7,0.9,3.8-2.5,4.4-4.8c0.6-2.4,5.3-10.8,9-13.5   c0.5-0.4,0.9-0.6,1.4-0.8C406.7,475.5,405.5,471,405.1,469z" stroke-miterlimit="10" stroke="#FFFFFF"/>
	<path name="阿拉善盟" fill="#D3D3D3" id="path10" d="M263.3,446.7c-1.4-6.9-1.7-3.7-3.6-8.5c-1.9-4.7-11.5-5-15.4-6.2   c-3.9-1.1-5.3-9.8-5.3-12.9s-0.6-7.6-1.3-9.5c-0.7-1.9-2.3-2.9-0.6-4.4c1.7-1.5,1.5-6.9,1.4-7.3c-1.3,0.5-2.1,0.9-2.5,1.2   c-2.1,1.8-3.3,2.5-4.5,1c-1.2-1.5-3.5-2.4-7.1-3.5c-3.7-1.1-2.5-2.8-1.8-5.4c0.6-2.6,1-2.9-1.3-2.7c-2.3,0.2-3.5,0.4-9.2,0.3   c-5.7-0.1-11.7-3.8-18.6-8.5c-6.9-4.8-9.1-8.3-11.1-10.7c-2.1-2.4-7-2.2-11.9-3.8c-4.9-1.6-8.2-9-8.9-12.9   c-0.6-3.9-1.6-2.8-5.1-3.6c-3.5-0.8-9.1-5.3-16-8.8c-6.9-3.5-5.9-1.8-10.7-3.8c-4.8-2-5,0.6-7-1c-2-1.6-5.4-1.8-8.8-1.8   c-3.4,0-3,0.6-13.9-2.2c-10.9-2.8-46.4-22.3-46.4-22.3c-0.5,0,0.6,6.6,0.7,8.6c0.1,2,1.1,11.5,1.3,12.8c0.2,1.3,1.1,16.3,1.4,19   c0.3,2.8-4.3,4-6.5,5.2c-2.2,1.2,2.4,10.2,3,11.8c0.6,1.5,1.1,2.4,2.4,2.8c1.3,0.4,2.5,6,3.3,7.5c0.8,1.5,2.2,2.6,3.1,4.1   c0.9,1.5-3.6,6.5-4.6,8.5c-1,2,2.2,2.8,4,3.6c1.8,0.8,3.5,0.3,4.9-0.6c1.4-0.9,2.3-2.9,4.4-4c2.1-1.2,8.2-0.9,10.7-1.3   c2.5-0.4,7.7,2,10.1,1.6c2.5-0.4,4.3,0,10.1,2.2c5.8,2.2,4.9,6.5,5.4,9.1s-3.4,5-5.6,6.4c-2.2,1.3-2.8,3.4-4.7,4.9   c-1.9,1.5-5,3.1-8.7,3.9c-3.7,0.8-6.1,3.9-8.2,5.9c-2.1,2,5.1,2.1,6.6,2.4c1.5,0.3,3.2,2.5,3.9,4.6c0.7,2.1,5.1,5,7.1,6   c2,1.1,0.7,2.9,0.8,4.7c0.1,1.8,0.9,2.7,2.5,2.9c1.6,0.2,0.8,1.2,0.5,2.5c-0.2,1.3,5.5,2.7,7.9,3.4c2.4,0.8-1.3,8.7-1.3,10.4   c0,1.7,1.2,4.3,2.9,5.4c1.7,1.1,3.4-0.4,4.5-0.6c1.1-0.2,0.1,1.3-0.3,3c-0.4,1.7,1,1.1,2.3,2.1c1.3,1,0,2,0,3.1   c0,1.1,3.1,3.2,4.1,3.7c1,0.6,2.9,3.7,3,3.6c1.3-0.4,1.8-0.6,2.9,0.6c1.1,1.2,2.6,1,2.6-1c0-1.9,2.1-2.5,3.9-2.5c1.8,0,2-1,1.7-4.2   c-0.3-3.1-2.8-5.5-2.8-6.8c0-1.3,4.5,0.3,6.2,0.4c1.7,0.1,8.4-0.4,10.5-0.5c2.2-0.1,7.9,4.6,10.3,6.6c2.4,2,9.6-1.5,15.1-3.9   c5.5-2.4,13.7-0.7,16.3-0.3c2.6,0.4,2,2.8,0.8,4.4c-1.2,1.6,0.5,3.2,2.3,5c1.8,1.9,1,3.2,0.5,5.5c-0.5,2.3-5.4,3.6-6.2,3.9   c-0.8,0.3-2.8,1.7-3.1,3.3c-0.2,1.6-2.5,4.8-5.1,5.2c-2.6,0.5-8.5,1.8-10.3,2.5c-1.9,0.7,0.1,4.1,0.2,7.7c0.1,3.6-2,2.9-4.5,3   c-2.5,0.1-2.2,4.4-2.1,7.1c0.1,2.7,3.1,2.4,4.4,3c1.4,0.6,5.4,7.2,6.7,10.6c1.3,3.4,7.2,7.4,9.3,8.2c2.2,0.8,2.6-0.3,3.2-1.2   c0.6-0.9,3.8-1.6,5.3-0.4c1.5,1.1,5,0.7,7.4,0.7s7.4-0.9,9-1.7c1.6-0.9,4.6-0.6,5.8-0.2c1.2,0.4,3.1,1.5,4.5,0   c1.4-1.5,3.5,0.1,4.8-0.5c1.3-0.6,3.4-7.1,5-15.7c1.6-8.6,7.3-17,8.1-17.9c0.8-1,2.1-2.3,2.4-4.8c0.3-2.5,5.6-3.8,7.8-6.5   c2.2-2.6,3.1-2.1,4.8-2c1.7,0.1,4.8-0.9,6.6-1.9c0.1-0.1,0.2-0.1,0.4-0.1c0.4-1.2,1.2-4.1,0.4-5c-0.9-1.2-1-2.7,1.1-2.6   c0,0,2.7-1.6,2.7-3.5c0-0.4,0.1-1,0.2-1.5c-0.3-1.3,0-2.6,0.1-3.7c0.3-6.5,3.9-8.1,4.6-9c0.2-0.3,0.8-0.6,1.5-1   C267.1,457,264.7,453.5,263.3,446.7z" stroke-miterlimit="10" stroke="#FFFFFF"/>
	<path name="巴彦淖尔市" fill="#D3D3D3" id="path11" d="M349.1,445.1c-1.6-0.8-2-1.6-1.7-3.6c0.3-1.9,0.3-4.5,0-6.1   c-0.3-1.6,1.1-2,1.5-5.1c0.4-3.1-1.6-3.2-3.5-3.9c-1.8-0.7-2.9-0.7-2.2-5.9s-1-2.4-1.3-5.3c-0.3-2.9,1.1-5.3,4.8-8.2   c3.1-2.4,1.9-10,1.4-12.2c-1.7,0.7-3.7,0.3-6.8-1.2c-3.2-1.6-5.3-0.8-7.2-0.5c-1.9,0.2-5-0.5-7.1-1.7c-2.2-1.2-5.4-0.4-8.5-1.8   c-3.1-1.4-5.3,1.4-7.6,0.1c-2.3-1.3-5-0.1-8.5-2.3c-3.6-2.2-3.6-1.8-7.9-0.5c-4.3,1.3-7.5,0.3-10.4,0.2c-2.9-0.1-11,2.2-16.4,2.8   c-4.5,0.5-22.3,5.5-29.1,8.2c0,0.4,0.2,5.8-1.4,7.3c-1.7,1.6-0.1,2.6,0.6,4.4c0.7,1.9,1.3,6.3,1.3,9.5s1.4,11.8,5.3,12.9   c3.9,1.1,13.5,1.4,15.4,6.2c1.9,4.7,2.2,1.6,3.6,8.5c1.4,6.8,3.8,10.3,6.9,11.5c1.8-0.9,4.7-1.9,5.6-2.2c1.4-0.4,3.5-3.1,3.6-4.3   c0.1-1.2,1.9-3.9,3.4-5.1c1.6-1.2,7.2-3.9,8.8-4.8c1.6-0.8,6.6-2,10.6-2c4,0,8.2,3.3,10.5,5.2c2.3,1.9,7.8,7.5,10.9,9.5   c2.9,1.9,12.5,2.6,14,2.8c0-1.3,0.2-2.8,0.6-3.9c0.8-2.3,2-0.4,6-0.2c4,0.2,3,0.5,6.3-1.4C353.8,449.9,350.6,445.9,349.1,445.1z" stroke-miterlimit="10" stroke="#FFFFFF"/>
</g>
</svg>