<?xml version="1.0" encoding="UTF-8" standalone="no"?><!-- Generator: Adobe Illustrator 18.0.0, SVG Export Plug-In . SVG Version: 6.00 Build 0)  --><svg xmlns="http://www.w3.org/2000/svg" xmlns:xlink="http://www.w3.org/1999/xlink" contentScriptType="text/ecmascript" zoomAndPan="magnify" contentStyleType="text/css" id="图层_1" mapName="吉林省" mapType="省市地图" enable-background="new 0 0 800 600" version="1.1" xml:space="preserve" preserveAspectRatio="xMidYMid meet" viewBox="0 0 800 600" x="0px" y="0px">
<path name="松原市" fill="#D3D3D3" id="path0" d="M272.4,238.3c-2.2,0.3-7.6,1.6-8.3-0.3c-0.7-2-0.5-4.5-1.6-5.8  c-1.2-1.3-1.3-1.5-0.6-4.7c0.7-3.2-1.3-3.8-2.2-5c-0.9-1.2-2.7-2.9-0.9-4.1c1.7-1.3,4.1-5.2,0.7-7c-3.3-1.8-1.7-2.3-1.1-4.1  c0.6-1.8,1.3-4.5,1.8-6.1c0.4-1.6,3.3-3.2,6.8-4.3c3.4-1.1,2.4-1.1,5.2-0.9c2.8,0.2,3.8-0.2,5.5-2.4c1.8-2.2,5.3-5.7,8.1-5.9  c2.8-0.2,3.3-1.1,4.2-2.6c0.9-1.4,2.8-1.8,3.9-0.7c1.1,1.1,2,2.9,4.1,1.6c2.1-1.3,4.4-3.2,6.4-3.2c2,0,3.1-2.3,3.5-4  c0.4-1.7-0.2-2.9,2-2.9c2.2,0,4-2.2,8-2.3c4-0.1,15.6-0.4,17.9-3c2.3-2.6,2.6-4.1,6.2-1.7c3.6,2.5,4.1,8.4,7.4,8.5  c3.3,0.1,3.9-0.6,5.5,3c1.7,3.6,3,6.3,7,3.9c4-2.5,3.6-4.8,3.7-6.7c0.1-1.9,1.1-4.5,2.3-5.4c1.2-0.8-0.1-3.4,2.5-2.3  c2.6,1.1,4,2.3,5.2,1c1.2-1.4-1.1-2.5-2.2-3.2c-1.1-0.7-0.6-2.9,0.3-3.6c0.8-0.7,1.7-5.1,1-7.4c-0.5-1.6-1.5-5.8-2.1-8.4  c-1.5,0.1-2.8,0-3.3-0.3c-1.4-0.8-3.8-1.9-6.2-2.1c-2.4-0.2-3.4-2.1-5.5-2.9c-2.1-0.7-3.9-3-6.6-4.3c-2.7-1.4-4.2-3.3-5.5-5.3  c-1.3-2-2.2-3.6-3.5-4.5c-1.3-0.9-1.6-1.4-1.2-3.5c0.4-2.1-0.9-5.6-0.8-10c0.1-4.4,0.4-2.9-3-3.4c-3.4-0.5-4.5,0.7-7.2,1.6  c-2.7,0.9-2.7,0.5-5.6-0.6c-2.9-1.1-1.1,1.6-0.1,3.2c1,1.6-5.3,4.2-6.6,5.5c-1.3,1.3-2.2,0-2.8-2c-0.6-2-1.5-0.5-1.5,1.9  c0,2.4-1.6,1.3-3-0.4c-1.4-1.7-3.1,0.1-5,0.1c-1.9,0-1.9-0.6-4.2,1.3c-2.3,1.9-5.5-5-6-7.2c-0.5-2.2-6-4.3-8.2-6.7  c-2.2-2.4-2,0.6-2.1,3.3c-0.1,2.7-0.9,2.7-1.9,4.6c-1,1.9-4.8,1.5-7,0.1c-2.2-1.4-3.7,0.1-5.8,1.4c-2.1,1.3-4.5-1.2-5.4-1.2  c-0.9-0.1-1.8,0.1-2.8,1.8c-1,1.7-3.7,0.9-5.8-0.4c-2.1-1.3-3.4-0.9-5.7-1.4c-0.7-0.2-1.3-0.7-1.7-1.4c-1.6,1-5.8,3.7-8.2,5.5  c-3,2.3-9,7.4-11.8,8.7c-2.8,1.3-0.1,2.8-0.1,5c0,2.1-1.6,3.4-4.4,4.1c-2.8,0.7-10.4,4-14,9.8c-3.6,5.8-8,7.3-11.4,10  c-3.4,2.7-6.8,5.8-9.8,5.4c-3-0.4-2.8,1.1-2.8,3.1c0,2-0.3,4.1-2.4,6.6c-2.1,2.4,1.1,8.6,3.1,9.8c2.1,1.2,3.8,6.1,3.9,8  c0.1,1.9-8.1,2.8-13.5,2.9c-5.4,0.1-7.7,5.6-10,6.2c-1.8,0.5-5.5,4.8-6.8,6.6c1.5,1,0.7,6.3-0.6,9.6c-1.4,3.7,0.3,4,2.3,5.4  c2,1.4,3.7,2.2,4.2,5.3c0.5,3.1,2.2,6.9,3,9.3c0.8,2.5,3.4,2.5,6.1,4c2.6,1.6-0.6,8.1-1.4,9.2c-0.6,0.8-1.2,1.1-1.4,2.3  c1.2,0.5,4.6,1.7,6.3,0.3c2.1-1.8,4.6,0.1,6.8-0.9c2.2-1.1,6,0.2,9.2-1.5c3.3-1.8,4.2,3,6.4,3.7s4.9,5.5,6.5,6.3  c1.6,0.8,7,1.6,9.9-0.2c2.9-1.9,8.9-1.3,10.9-1.6c2-0.4,3.5,4,4.8,3.4c1.3-0.6,3.4,0.4,6.1,0.2c2.7-0.1,3.6-3.6,6.9-4.1  c3.3-0.5,4.9-3.9,6.7-7.4c1.8-3.5,4.9-2.1,7.6-1.5c2.7,0.6,5.8-0.9,8.8-2.8c0.6-0.4,1-0.5,1.3-0.5c0.2-1.2,0.7-3.4,1.2-4  C272.7,240.9,274.6,238,272.4,238.3z" stroke-miterlimit="10" stroke="#FFFFFF"/>
<path name="白城市" fill="#D3D3D3" id="path1" d="M167.3,200.7c2.3-0.6,4.6-6.1,10-6.2c5.4-0.1,13.6-1,13.5-2.9  c-0.1-1.9-1.8-6.8-3.9-8c-2.1-1.2-5.3-7.4-3.1-9.8c2.1-2.4,2.4-4.6,2.4-6.6c0-2-0.1-3.6,2.8-3.1c3,0.4,6.4-2.7,9.8-5.4  c3.4-2.7,7.8-4.1,11.4-10c3.6-5.8,11.1-9.1,14-9.8c2.8-0.7,4.4-2,4.4-4.1c0-2.1-2.7-3.7,0.1-5c2.8-1.3,8.8-6.4,11.8-8.7  c2.4-1.8,6.6-4.5,8.2-5.5c-1-1.5-1.3-4-1.3-5.8c0-2.6-1.6-2.2-4.6-3c-3-0.8-3.4-4.7-3.4-6.2c0-1.5-3,0.2-5.4-0.1  c-2.4-0.3-2.3-3.4-2.5-6c-0.2-2.6-5.2-7.2-6.1-8.5c-0.9-1.2-1.1-2.3,0.4-2.6c1.5-0.4,1.4-1.7,1.2-2.8c-0.2-1.2,0.4-3.3,0.4-5.7  c-0.1-2.5-1.4-2.3-4.5-6.2c-3-3.9-0.3-6.3,2.2-8.6c2.6-2.3,1.2-3.6,0-4.5c-1.2-0.9-2.2-3-2-5.9c0.2-2.9-0.4-4.2-1.9-6.5  c-1.5-2.3,0.1-2.9,0.6-6.3c0.5-3.4-0.9-3-2.8-1.5c-1.9,1.5-2.6-1.9-3.1-3.1c-0.5-1.2-1.2-1.8-2.1-0.3c-0.8,1.5-2.3,2.5-5.1,2.6  c-2.8,0.2-5.8,1.1-10.2,1.5c-4.4,0.5-6.1-0.7-10.8,1c-4.7,1.7-6.6,1.1-10.1-2.2c-3.4-3.3-5.6-0.4-10.1,1.6c-4.5,2-4.4,9.6-6.4,12.3  c-2,2.7-15,2.9-17.9,2.6c-2.9-0.4-1.5,4.6-0.9,9.3c0.5,4.6,0.5,9.2,0.4,16.2c-0.2,7-1.7,7.1-5.7,9.4c-4,2.3-3.7,0.5-4.8-1.4  c-1.2-1.9-1.3-2.2-5.1-2.2c-3.8,0-2.5-1-5-1.9c-2.5-0.9-4.5-4.9-3.8-8.5c0.6-3.5-3.1-4-6.1-3.6c-3,0.3-4.4,4.3-6,7.1  c-1.7,2.8-2.6,2.9-4.2,0.8c-1.6-2.1-1.5-3.5-4.6-4.3c-3.1-0.7-4.8-3.6-6-5.9C90,64,89.6,63.1,87.1,61c-2.5-2.1-7.2-2.6-8.9-4.6  c-1.8-2-4.2-1.6-5.7,0.1c-1.6,1.7,0.2,3.6,1.5,5.6c1.2,2,0.2,4.4-1.2,5.9c-1.5,1.6-2.9,8.4-2.9,8.4s0,1.3-0.8,2.1  c-0.8,0.8-1.9,0.6-4.8,0.6c-3,0-2.2,1.6-2.2,3.7c0,2.2,1.1,2,4,1.7c3-0.3,2.8,1.2,3.1,2.2c0.3,0.9,2.2,3.6,3.1,0.5  c0.9-3.1,4.5-2.5,7.5-1.9c3,0.6,2.6,1.9,3.9,3.7c1.2,1.9,0.3,5.9-1.2,8.9c-1.6,3,0,3.3,1.7,5c1.7,1.7,1.4,2.3,1.4,4.7  c0,2.3,4.7,2.6,8.5,3.6c3.9,0.9,2.6,5.6,0.8,7.6c-1.9,2-1.7,3.3-2.3,5c-0.6,1.7,0.2,4.5,2.6,4.8c2.5,0.3,4.2,0.5,6.2,2.6  c2,2.2-5,6.5-7.6,7.9c-2.6,1.4-2,12.1-2.8,13.5c-0.8,1.4-2.8,4.5-2.8,7.2c0,2.6-1.7,3.4-2.8,5.3c-1.1,1.9,0.2,5.1,0.3,6.7  c0.2,1.6,4.8,5.1,6.2,6.2c1.4,1.1-2.8,1.2-4.7,1.7c-1.9,0.5,0,2.3,2.3,2.8c2.3,0.5-0.8,2.6-2.3,3.9c-1.6,1.2,1.1,7.9,1.2,9.2  c0.2,1.2,4.2,4,6.2,4.5c2,0.5,0,5.8,0,7c0,1.2,5.6,2.5,6.5,4.7c0.9,2.2,0.6,8.7-0.8,11.4c-1.4,2.6-2,4-1.9,6.1c0.2,2,5.4,3,11,3.1  c5.6,0.2,5.9-1.6,8.1-3.4c2.2-1.9,10.4-6.5,12.3-8.3c1.9-1.7,5-2.2,7.5-2c2.5,0.2,4.2-1.7,6.1-2.3c1.9-0.6,6.2-5.1,7.8-6.7  c1.6-1.6,6.4-2.8,8.7-2.8c0.2,0,0.4,0.1,0.6,0.2C161.8,205.5,165.5,201.2,167.3,200.7z" stroke-miterlimit="10" stroke="#FFFFFF"/>
<path name="延吉市" fill="#D3D3D3" id="path2" d="M728.3,303.1c-2.8,3.6-8.7-4.5-9.6-6.4c-0.9-1.9-6.2,3.1-8.3,5  c-2,1.9-3.6,1.7-4.2-0.9c-0.6-2.6-3.1-2.9-5.5-5.5c-2.5-2.6-2.6-2.2-4.7-2.5c-2-0.3-2.3-0.4-4.5-3.5c-2.2-3.1-2-2.2-5.7-2.6  c-3.6-0.4-7.3-5.7-8.3-9.2c-1-3.5-2.5-3.8-4.4-6.3c-1.9-2.5-2.2-4.8-3.5-8c-1.3-3.2,0.3-4.5-1.5-7c-1.7-2.5,0.7-3.5-0.1-7.7  c-0.9-4.2-4.5,4.5-8.4,6.7c-3.9,2.2-5.5,6.4-6.5,8.9c-1,2.5-1,4.4-5.1,2.9c-4.1-1.5-3.8-7.9-4.8-13.2c-1-5.4-7.3-3.5-11.2-0.7  c-3.9,2.8-3.1,7-4.5,10.3c-1.5,3.3-11.6,2.8-16.7,3.3c-5.1,0.6-6.1,1.6-9.2,4.4c-3.1,2.8-3.9,3.1-8.3,3.1c-4.4,0-4.1,3.5-4.1,6.3  c0,2.8,1.2,7.6,1.2,13.7c0,6.1-8.4,6-9.9,7c-1.5,1-1.6,3.5-6.2,0.9c-4.6-2.6-4.9,1-8.4,0.4c-3.5-0.6-6.4-11.5-7-16.6  c-0.6-5.1-3.9-3.1-3.9-5.2s0.3-2.3-0.6-5.4c-0.9-3.1-4.1-6.3-5.5-7.9c-1.5-1.6-2.5-1.2-2.5-4.1c0-2.9-2.2-3.8-3.3-6.3  c-1.2-2.5-0.6-3.6-3.3-8.7c-2.8-5.1-3.6-3.9-6.2-6.7c-2.6-2.8,0.7-11.6,0.7-17.2c0-5.5-4.4-15.6-5.8-17.6c-1.5-2-2.5-1.9-4.4,0  c-1.9,1.9-3.5,4.4-6.8,6.1c-3.3,1.7-2.5,4.7-3.1,8c-0.6,3.3-3.3,2.5-5.5,1.3c-2.2-1.2-1-1.9-2.9-0.6c-1.9,1.3,0,4.2,1,5  c1,0.7,1.6,1.7,1,2.9c-0.6,1.2-1.2,1.7-0.6,3.5c0.6,1.7,0.7,4.8-0.6,6.1c-1.3,1.3-0.9,2.3,0.7,4.1c1.6,1.7-0.3,3.1-4.4,4.5  c-4.1,1.5-6.5,3.5-8.3,4.5c-0.9,0.5-2.1,0.4-3.6,0c-1.9,2.5-7.2,10.1-4.8,12.5c3,2.9,8,4.3,5.1,6.8c-2.9,2.5-2.1,3.9-1,5.3  c1.1,1.4,1.6,2.5,1.1,5.8c-0.5,3.3,0.1,4.1,1.5,5.5c1.4,1.4,2,3.2,2.6,4.9c0.6,1.7-7.7,7.3-8.3,10c-0.6,2.7-2.1,7.8-3.1,10  c-1,2.2-1.4,2.1-1.3,3.9c0.1,1.8-3.3,5.7-4.5,7c-1.2,1.3-1.2,3.6,0.4,5.6c1.6,2,0.7,4.2-0.3,5.4c-1,1.3-2.1,2.9-2.2,4.7  c-0.1,1.8,0.9,2.4-1.9,2.4c-2.8,0-5.4,1.2-5.6,3.3c-0.1,2.1-1.1,4.7-0.7,7.8c0.4,3.1,0.6,3.7,4.3,6.2c3.6,2.5,6,4.6,8.6,7.1  c2.5,2.5,4.1,6.6,4.4,8.8c1,0,2.8,1.4,4,1.8c1.6,0.4,2.9,3.9,4.6,5.3c1.7,1.4,1.4,1.4,0.2,2.9c-1.2,1.5,1.7,2.5,2.8,2.4  c1.1-0.1,1.5,0.6,0,1.7c-1.5,1.1,3.1,1.6,4.6,2.8c1.5,1.2,1.7,1.8,1.7,3.6c0,1.8,1,2,2.7,2.5c1.7,0.5,1.5,2,2.2,4.4  c0.7,2.3-0.4,3.2-0.6,4.7c-0.2,1.5,1.5,3,1.5,4.8c0,1.8-3.6,5.9-5.4,7c-1.8,1.1-3.6,3-5.7,4.2c-2.1,1.3-3.4,1.5-3.8,4.3  c-0.3,2.8,3.3,1.6,4.4,2.4c1,0.8,3.3,4.7,3.8,7.8c0.4,3.1,4.7,8.1,6.8,11.2c1.6,2.4,2.6,4.9,3,5.9c1.6-1.1,7.2,0,10.4-1.1  c3.3-1.1,4.7,0,9.8,0c5.2,0,6.5,0.5,8.6,0.9c2.1,0.4,9.1,0.4,11.2-1.5c2.1-1.8,3.6,0.5,5.7-0.1c2.1-0.6,2.3-1.6,10.3-0.2  c8,1.4,9.1-3,9.1-5.1c0-2.1,1-2.5,3-3.1c2-0.6,3.9-3.3,5.9-3.8c2-0.5,3.4-1.2,5.8-3.5c2.3-2.2,3-5.2,2.7-6.9  c-0.2-1.7-0.2-3.9,1.4-4.6c1.6-0.6,1.4-1.1,0.5-2c-0.9-0.9-0.5-2,0.6-2c1.1,0,1.2-0.5,0.6-3.2c-0.6-2.7,0.5-3.3,2.8-3.3  c2.3,0,1.1-4.6,5.4-6.3c4.3-1.7,10.6,2.6,12.5,4.4c2,1.8,2.6,0.1,2.6-0.5c0-0.6-0.1-2.1,1.6-2.7c1.7-0.6,0.6-1.6,0.5-3.2  c-0.1-1.6,2,0.5,5.3,0.4c3.3-0.1,4.2-5.9,4.3-8.5c0.1-2.6-0.9-8,0-11.1c0.9-3.1,1.2-6.7,1.1-10c-0.1-3.3,0.1-4.8,1.4-6.9  c1.2-2.1,1.1-7.9,1.1-11.3c0-3.5-0.4-5.4,2.2-6c2.6-0.6,2.7-3.1,4.7-4.6c2-1.5,6.2,2.6,8.1,3c2,0.4,4.4-0.4,6.8-0.4  c2.3,0,0.9,2.6,0.9,3.3c0,0.7-2.1,0.6-2.2,2.2c-0.1,1.6,7.5,1,11.1,1.6c3.6,0.6,0.1,7.1-0.2,9.2c-0.4,2.1,0.9,3.7,3.3,6.9  c2.5,3.2,4.7,6.5,6.6,8.3c2,1.7,3.9,0.6,5.4,0.6c1.5,0,0.5,2.5,0,3.7c-0.5,1.2-1.4,2.6,0.5,3.7c1.8,1.1,2.7-1.4,2.7-2.8  c0-1.5,0.5-0.1,2.1,0.7c1.6,0.9,2.6,4.1,2.7,6.8c0.1,2.7,1.7,5.2,2.5,7.6c0.7,2.5,4.3,0,4.7,2.2c0.4,2.2,5.7,6.7,6.1,5.7  c0.5-1-7.6-12.8-9-14.9c-1.4-2.1-0.5-3.5,1-5.5c1.5-2.1,0.1-6.8-0.9-8.9c-1-2.1-2.3-5.4-3.7-6.5c-1.4-1.1-3.3,2.1-5.3,2.3  c-2,0.2-4.1-1.6-4.4-3c-0.4-1.4,1-3.3,3-3.7c2-0.4,3.2-1,3.6-3c0.4-2,3.2-2.1,4.9-3.7c1.7-1.6,3.9-1,6.4-1c2.5,0,2.5-1.6,4.2-1.7  c1.7-0.1,2-3.1,3.4-4.2c1.5-1.1,3.1-0.5,4.4,0.2c1.4,0.7,2.1,1.1,5.5,0.7c3.4-0.4,2.6,1.1,4.7,0.2c2.1-0.9,1.1-2-0.1-2.8  c-1.2-0.9-1.7-1-0.9-2.8c0.9-1.8,3.3,0,5.3-0.4c2-0.4,2.1-2.8,1-5.4c-1.1-2.6-0.6-4.2-0.6-6.5c0-2.3,2.3-3.7,4.7-5.2  c2.3-1.5,1.8-4.9,1.7-7.3c-0.1-2.3,0.5-4.7,0.7-8.4c0.2-3.7,2.7-5.4,3.5-8.8c0.9-3.5,0.6-11.9,0.7-14.4  C738.3,294.5,731,299.4,728.3,303.1z" stroke-miterlimit="10" stroke="#FFFFFF"/>
<path name="白山市" fill="#D3D3D3" id="path3" d="M502.4,437.8c-0.4-3.1-2.7-7-3.8-7.8c-1-0.8-4.7,0.4-4.4-2.4  c0.3-2.8,1.7-3,3.8-4.3c2.1-1.3,3.9-3.1,5.7-4.2c1.8-1.1,5.4-5.2,5.4-7c0-1.8-1.7-3.3-1.5-4.8c0.2-1.5,1.4-2.3,0.6-4.7  c-0.7-2.3-0.5-3.8-2.2-4.4c-1.7-0.5-2.7-0.7-2.7-2.5c0-1.8-0.2-2.4-1.7-3.6c-1.5-1.2-6.1-1.7-4.6-2.8c1.5-1.1,1.1-1.8,0-1.7  c-1.1,0.1-3.9-1-2.8-2.4c1.2-1.5,1.5-1.5-0.2-2.9c-1.7-1.4-3-4.9-4.6-5.3c-1.2-0.3-3-1.8-4-1.8c0,0,0,0.1,0,0.1c0,0,0-0.1,0-0.1  c-0.3,0-0.5,0.2-0.7,0.6c-0.4,1.7-0.6,5.1-2.7,5.6c-2,0.5-3.5,2.5-3.3,3.8c0.2,1.3-0.5,2.1-1.8,3.2c-1.3,1.1-1.9,3.7-3.6,5.2  c-1.7,1.5-4.5,1.1-4.6,2.7c-0.1,1.6-0.3,1.7-1.6,3.4c-1.3,1.7-2.2,3.2-3.3,2.3c-1.1-0.8-2-1.2-2.9-0.7c-0.8,0.4-2.2-1.4-3.6-3.8  c-1.4-2.4-2.2-3.6-3.3-1.5c-1.1,2.1-3.9,3.7-5.1,2.5c-1.2-1.2-2.1-1.8-0.8-3.1c1.3-1.3,3.3-6.1,2-9.2c-1.3-3.2-3.7-2.9-3.8-5.4  c-0.1-2.5-0.7-4.2-2.4-3.4c-1.7,0.8-1.9,1.8-4.8,1.3c-2.9-0.5-3.6,0.3-6.2-0.2c-2.5-0.5-7.4-1.5-7.9-0.1c-0.4,1.4-1.2,2.5-2.8,2.8  c-1.6,0.2-3.6,0.2-3.6,2c0,1.8-1.9,7.8-1.8,9.1c0.1,1.4-1.7-2.1-2.4-0.6s-1.2,4.9-3.4,5.6c-2.2,0.7-5.5,2.9-5.2,4.4  c0.3,1.5,0.4,3.2-0.4,5.1c-0.9,1.9-1.2,6.8-2.1,6.2c-1-0.6-3.3-3-3.9-1.4c-0.6,1.6-1.8,5.5-1,7.1c0.8,1.6-0.4,0.2,0.8,3  c1.3,2.8,1.3,4.4,0.4,6.4c-0.8,2-1.2,5.2,0.6,6.3c1.8,1.1,3.6,1.3,3,3.5c-0.6,2.2-4.1,2.1-5.7,2.1c-1.6,0-1.7,2-3.3,3.4  c-1.6,1.4-3.2,1.7-3,3.3c0.2,1.6,0.2,2.3-1.6,4c-1.8,1.7-4,2.9-5.6,5.1c-1.6,2.2-3.6,6.2-5.7,6.4c-2.1,0.2-6.9,1.7-6.2,3.6  c0.7,1.9,1.5,1.6,3.6,1.6c2.1,0,4.4-0.1,3.4,2c-1,2.1-1.1,2.9,0.5,3.3c1.6,0.4,2.4,3.7,5.1,4.2c2.7,0.5,5.7,1.4,3.8,3.2  c-1.9,1.8-4.8,4.6-4.7,5.9s1,1.1,1.5,3.3c0.5,2.2,1.7,2.7,3.6,2.1c1.9-0.5,4.1-0.8,3.1,2c-1.1,2.9-1.1,5.5-0.2,7.9  c0.8,2.3,0.3,3.7,2,3.7c1.7,0,1.5,0.3,3,2c1.4,1.5,3.8,1.7,5.2,1.7c0.4-1.5,0.8-3,1-4c0.4-2,2.7-1.2,4.6-0.5  c1.8,0.7-0.2-2.1-2.6-4.2c-2.3-2.1,1-5.4,2.2-7.3c1.2-1.8,4.8-1.4,6-1.8c1.2-0.5,0.7-4.2,0.9-5.7c0.1-1.5,3.2,0.7,4.6,1.4  c1.4,0.6,3-1.7,5-1.7c2.1,0,2-3.6,2-5.4s0.5-2.1,2.2-2.2c1.7-0.1,1.8,0.7,3.2,2.2c1.4,1.5,3,1,5.3,2.2c2.3,1.2,2.6,4.9,2.6,7.1  c0,2.2,0.2,2.5,1.2,2.6c1,0.1,1.4-0.4,2,1.4c0.6,1.7,1.5,3,3.9,3.9c2.5,1-0.4,3.1-3,4.6c-2.6,1.5,4.8,2.8,6.8,2.8  c2,0,3.6,1.1,4.7,3.7c1.1,2.6,7.3,2.1,12.1,3.1c4.8,1,5.3,0.1,7-0.7c1.7-0.9,3.4,1.7,5.2,3.3c1.7,1.6,5.7,1.6,9.7,1  c4.1-0.6,4.4-0.2,6.8,0.7c2.3,1,4.1-0.5,5-2.5c1-2,2.7-0.7,6.5-0.7c3.8,0,4.9,2.6,6.4,4.6c1.5,2,5.3,2.2,6.8,1.6  c1.5-0.6,5.7-4.4,5.8-7.4c0.1-3,2.6-6.9,3.8-8.8c1.2-1.8,0.4-5.9-1.1-9.6c-1.5-3.7-5.3-4.8-6.8-5.7c-1.5-0.9-3.9-7.1-5-9.9  c-1.1-2.7-1.6-5.7-1.2-10.1c0.4-4.4-2.7-7.1-3.9-7.9c-1.2-0.7-1.2-2.5,0.1-3.8c0.1-0.1,0.1-0.1,0.2-0.1c-0.4-1.1-1.5-3.6-3-5.9  C507,445.8,502.8,440.9,502.4,437.8z" stroke-miterlimit="10" stroke="#FFFFFF"/>
<path name="通化市" fill="#D3D3D3" id="path4" d="M408.9,386.8c-3-0.9-4.9,2.3-8.4,4.7c-3.5,2.4-1.5-1.2-5.2-1  c-3.7,0.1-3.5-0.9-4.9-3.4c-1.4-2.5,0.3-6.3-0.1-7.7c-0.4-1.4-3.8-1.5-5.8,0c-2,1.5-2.8,3.9-5.2,2.2c-2.5-1.7-6.6-1-10.8-0.9  c-4.2,0.1-6-1.3-8.9-3.1c-2.9-1.8-3.1-4.8-3.5-6.7c-0.4-1.9-1.6-2.6-3.4-3c-1.8-0.5-1.1-1.6-1.1-3.8c0-2.2-2.3-2.9-3.8-4.8  c-1.5-1.9-4.3-0.7-5.7-0.4c-1.4,0.3,1.9,4.5,2.1,6.8c0.2,2.4,0,5.4,0.9,10.4c0.9,4.9,2.8,4.8,4.3,5.9c1.4,1-1.5,1.4-3.6,2.4  c-2.1,1-2.9,1.2-5.8,0c-2.8-1.2-2.4,1.8-0.7,3.3c1.7,1.5,0.1,2.5-0.4,5.2c-0.5,2.7,1.3,3.7,3.2,5.3c1.9,1.6-0.1,5.3-2.2,5.5  c-2.1,0.2-2.6,2.1-3.2,4.6c-0.6,2.5-0.7,4.8-3.3,5.9c-2.6,1.1-3.3,3.9-7.6,4.9c-4.2,0.9-6.1,3.6-8.1,3.6c-1.6,0-4.9,3.8-6,5.1  c1.1,1.1-0.2,6.9-0.3,9.5c-0.1,2.8,0.2,5.2,2,7.1c1.8,1.9,3.8-1.2,4.6-1.9c0.8-0.7,5.4,1.3,7.4,2.4c2,1.1,0.6,3.1-0.4,3.8  c-0.9,0.7-3.4,1.7-6,7c-2.6,5.3-5.6,7-6.1,7.8c-0.6,0.8,0.7,1.7,1.7,2.4c0.9,0.7-2.7,3.1-3.9,5.1c-1.2,2,2.1,7.6,3.3,9.6  c1.2,2-1.1,8.4-1.3,10.6c-0.2,2.2,2.5,0.1,7.3-0.2c4.8-0.4,4.8,7.4,5.2,9.5c0.4,2.1,0.5,4.8,2.2,6.9c1.7,2.1,2.2,4.7,5.5,13.6  c3.3,8.9,11.7,12.2,12.9,13.1c1.2,0.9,1.6,2.8,0.2,3.5c-1.4,0.6,0.9,2.1,1.7,4.1c0.9,2-0.9,3.3-2.8,4.3c-2,1-0.7,2.3-0.9,5.4  c-0.1,3.1-7.4,10.5-9.6,12c-2.2,1.5-1,1.2-1.7,3.6c-0.7,2.3,1.1,0.5,4.1-0.1c3-0.6,4.3,0.6,5.7,1.8c1.4,1.2,2.8-1.2,4.1-1.7  c1.2-0.5,1.5-0.7,1.6,1.6c0.1,2.3,0.9,0.5,4.3-1.6c3.4-2.1,3-0.9,4.8,1.4c1.8,2.2,4.8,1,7.7,0c3-1,0.7-1.4-1-2.5  c-1.7-1.1,1.7-1.6,3.6-2.2c1.8-0.6,0.6-2.2,1.8-4.7c1.2-2.5,3.8-6,4.4-9c0.6-3,6.8-4.9,9.2-6.9c2.5-2,9.2-17,11.1-20.3  c1.8-3.3,4.3-0.6,6.4-0.6c2.1,0,0.5-3.6-0.5-4.7c-1-1.1,0-2.2,0.9-4.1c0.4-0.9,1-2.5,1.4-4.1c-1.4,0-3.8-0.1-5.2-1.7  c-1.5-1.7-1.3-2-3-2c-1.7,0-1.2-1.4-2-3.7c-0.8-2.3-0.8-5,0.2-7.9c1.1-2.9-1.2-2.5-3.1-2c-1.9,0.5-3.1,0.1-3.6-2.1  c-0.5-2.2-1.4-1.9-1.5-3.3s2.8-4.1,4.7-5.9c1.9-1.8-1.2-2.7-3.8-3.2c-2.7-0.5-3.5-3.8-5.1-4.2c-1.6-0.4-1.5-1.2-0.5-3.3  c1-2.1-1.3-2-3.4-2c-2.1,0-2.9,0.3-3.6-1.6c-0.7-1.9,4-3.4,6.2-3.6c2.1-0.2,4.1-4.1,5.7-6.4c1.6-2.2,3.8-3.4,5.6-5.1  c1.8-1.7,1.8-2.4,1.6-4c-0.2-1.6,1.4-1.9,3-3.3c1.6-1.4,1.7-3.4,3.3-3.4c1.6,0,5.1,0.1,5.7-2.1c0.6-2.2-1.2-2.4-3-3.5  c-1.8-1.1-1.5-4.2-0.6-6.3c0.8-2,0.8-3.6-0.4-6.4c-1.3-2.8,0-1.4-0.8-3c-0.8-1.6,0.3-5.5,1-7.1c0.6-1.6,3,0.7,3.9,1.4  c1,0.6,1.3-4.2,2.1-6.2c0.8-1.9,0.7-3.6,0.4-5.1c-0.3-1.5,3-3.6,5.2-4.4c2.2-0.7,2.7-4.1,3.4-5.6c0.1-0.1,0.2-0.2,0.2-0.3  C414.2,390.1,411.7,387.6,408.9,386.8z" stroke-miterlimit="10" stroke="#FFFFFF"/>
<path name="四平市" fill="#D3D3D3" id="path5" d="M287.5,343.2c3-1,3.6-2.5,5.1-3.6c1.6-1.1,4.6-0.1,6.7-0.1  c2.1,0,3.8-2.6,5.4-0.7c1.7,2,3,4.5,6.3,5.4c3.3,0.9,5.3,3.2,6.4,2c1.1-1.2-0.6-1.8-0.1-3.7c0.5-1.9,1-1.8,0.2-2.8  c-0.8-1-1.4-3,0.3-2.9c1.7,0.1,4.2,2.2,6,2.1c1.8-0.1,2.8,1.1,1.9,2.5c-0.9,1.4-0.2,4.8,2.4,6.9c2.6,2.1,6.8,4.5,9.8,5  c3,0.5,4.3,1.9,5.3,0c1-1.9,0.9-1.8,2.2-1.3c1.2,0.6,1.5-1.4,1-2.8c-0.5-1.4-2.3-2.3-4.2-2.5c-1.9-0.2-1.9-1.2-2.3-2.7  c-0.4-1.5-1.4-4.3-2.4-5.2c-1-0.8-2-2.3-0.2-2.8c1.7-0.5,4.4-2.2,3.4-3.1c-1-0.9-2.1-1.3-3.9-1.9c-1.8-0.6-2.4-1.5-3.7-2.7  c-1.3-1.2-4.5-2.4-2.9-4.1c1.6-1.7,3.7-4.4,2.4-5.3c-1.3-0.9-2.9,1-4-0.1c-1.2-1.1-0.6-2.7-1.9-4.2c-1.3-1.5-3.4-4.1-3.4-6.8  s0.4-7.3-1.1-6.9c-1.5,0.4-2.2-0.4-2.5,1.6c-0.3,2-1.3,4.7-2.2,5.4c-0.9,0.6,0.1,2.5,0.4,3.5c0.4,1-1.6,0.9-2.7,3  c-1.1,2.1-2.4,2.4-4.6,2.6c-2.1,0.2-3.1,1.3-3-1.3c0.1-2.6,1.6-6.3,1.6-8c0-1.7,2.2-7,2.6-8.9c0.4-1.9,0.6-5.7-0.4-6.5  c-1-0.8-1.2-1.1-1.1-2.5c0.1-1.3,0.9-2.4-1.7-3.7c-2.6-1.3-9.9-6.6-10.3-8.1c-0.4-1.5,0.8-4.2-0.6-7c-1.3-2.8-0.3-3.8-2.8-3.8  c-2.5,0-6.3,0.8-7.8-0.7c-1.6-1.5-2.1-2.8-3.1-3.5c-1-0.6-1.4-1.6-1.1-3.3c0.3-1.6-4.8-3.8-6.3-4.8c-1.5-0.9-5.2-2-5.3-4.5  c-0.2-2.4,0.8-5.9-2.1-4c-2.9,1.9-6.1,3.4-8.8,2.8c-2.7-0.6-5.8-2-7.6,1.5c-1.8,3.5-3.4,6.9-6.7,7.4c-3.3,0.5-4.2,4-6.9,4.1  c-2.7,0.1-4.8-0.8-6.1-0.2c-1.3,0.6-2.8-3.7-4.8-3.4c-2,0.4-7.9-0.2-10.9,1.6c-2.9,1.9-8.3,1.1-9.9,0.2c-1.6-0.8-4.3-5.6-6.5-6.3  s-3.2-5.5-6.4-3.7c-3.3,1.8-7,0.5-9.2,1.5c-2.2,1.1-4.7-0.8-6.8,0.9c-1.7,1.4-5,0.3-6.3-0.3c-0.1,0.3-0.1,0.8-0.1,1.3  c0,2.3,5.8,9.7,8.1,13.7c2.3,4,2.7,15.1,2.8,17.5c0.2,2.4,2,8.1,2.9,9.4c0.9,1.3-0.3,2.4-1.4,2.9c-1.1,0.5-0.9,0.8-0.8,1.9  c0.1,1.1-2.8,1-4.1-1.4c-1.3-2.4-1.7,1.9-1,2.9c0.6,1.1,0.8,1.3,0.7,3.2c-0.1,1.9-4-0.3-5.9-1.1c-1.9-0.7-1.9,0.6-1.1,1.6  c0.8,1-0.6,2.1-1.2,3.3c-0.6,1.2,0,1.5,1.3,2.4c1.3,0.9,4.7,3.7,6.1,4.3c1.5,0.6,3,1.2,4.7,1.9c1.7,0.7,8.6,5,11.7,5.7  c3.1,0.7,2.6,0.1,2.2-2.2c-0.4-2.3,2.1-4.9,3.3-5.4c1.2-0.5,1.3-2.4,1.3-3.9c0-1.5,5.1,1,6.5,1.7c1.5,0.7,1.5,1.3,1.5,3.7  c0,2.3,1.9,3.3,4.5,6c2.6,2.7,3.5,5.2,6.4,6.7c2.9,1.6,4.1,0.2,5.5,1.3c1.4,1.1,2.9,4,5.7,5.5c2.7,1.5,3.9,0.2,5.9,0.2  c2,0,1.1,5.6,2.5,7.4c1.5,1.8,6.2,6.3,6.9,7.1c0.7,0.7-1.1,5.2-2.8,6c-1.8,0.8-1.2,2.4-0.9,4.6c0.2,2.2,5.9,1.5,6.6,2.9  c0.7,1.5-3.3,5.3-4.2,6.6c-0.9,1.4,2.1,1.7,3.4,1.7c1.3,0,0.9,0.7,1.8,2.3c0.8,1.6,1.5,1.2,2.1,0c0.6-1.2,4.8-4.1,6.4-5.4  c1.6-1.3,5.7-6.8,7.5-10.8c1.8-4,8.2-8.9,10.3-9.9c2.1-0.9,2.7-1.6,4.1,1.5c0,0,0,0.1,0.1,0.1C282.6,348.3,284.9,344,287.5,343.2z" stroke-miterlimit="10" stroke="#FFFFFF"/>
<path name="辽源市" fill="#D3D3D3" id="path6" d="M337.4,353.1c-2.9-0.7-6.7-2.9-9.1-4.8c-2.6-2.1-3.3-5.5-2.4-6.9  c0.9-1.4-0.1-2.6-1.9-2.5c-1.8,0.1-4.4-2-6-2.1c-1.7-0.1-1.1,1.9-0.3,2.9c0.8,1,0.3,0.9-0.2,2.8c-0.5,1.9,1.2,2.5,0.1,3.7  c-1.1,1.2-3.1-1.1-6.4-2c-3.3-0.9-4.7-3.4-6.3-5.4c-1.7-2-3.3,0.7-5.4,0.7c-2.1,0-5.1-1.1-6.7,0.1c-1.6,1.1-2.1,2.6-5.1,3.6  c-2.5,0.8-4.9,5.1-5.7,6.6c1.3,2.9-0.5,3.9-1.4,5.2c-0.9,1.4-1.5,2.7-0.1,4c1.4,1.3,1.3,4.3,1.4,6.5c0.1,2.2-0.5,2.9-0.9,5.4  c-0.4,2.4,0.6,4.7,0.6,8c0,3.3,2.3,0.7,3.5-0.5c1.2-1.3,2.3,0,4.5,2c2.2,2,0.7,5.6,0.3,8.1c-0.4,2.5,0.7,2.4,2,3.7  c1.3,1.3,0.7,1.9-0.1,3.7c-0.8,1.8,0.6,1.5,3.9,1.3c3.3-0.2,3.1,1.5,2.2,4.1c-0.8,2.6-0.7,5.9-0.2,7.6c0.5,1.7,4.9,6.4,6.6,8  c1.7,1.6-0.9,8.7-0.2,10.6c0.7,1.9,5.9-0.4,7.4,0c0.1,0,0.2,0.1,0.3,0.2c1.1-1.3,4.3-5.1,6-5.1c2,0,3.8-2.7,8.1-3.6  c4.2-0.9,5-3.7,7.6-4.9c2.6-1.1,2.7-3.4,3.3-5.9c0.6-2.5,1.1-4.4,3.2-4.6c2.1-0.2,4-3.9,2.2-5.5c-1.9-1.6-3.7-2.6-3.2-5.3  c0.5-2.7,2.1-3.7,0.4-5.2c-1.7-1.5-2.1-4.5,0.7-3.3c2.8,1.2,3.7,1,5.8,0c2.1-1,5-1.3,3.6-2.4c-1.4-1-3.4-0.9-4.3-5.9  c-0.9-4.9-0.7-8-0.9-10.4c-0.2-2.2-3.1-6-2.3-6.7C339.3,357.1,338,354.4,337.4,353.1z" stroke-miterlimit="10" stroke="#FFFFFF"/>
<path name="长春市" fill="#D3D3D3" id="path7" d="M346.4,330.4c3.6,0.1,5.1-1.9,6.5-0.3c1.4,1.6,3-0.1,4-1.2  c1-1.1,8.7-2.6,7.7-3.7c-1-1.1-4.7-7.7-6.4-8.9c-1.6-1.1-5.4-3-5.4-4.6c0-1.6,2-3.9,0-4.9c-2-1-1.5-2.1-0.2-3.4  c1.2-1.2,2.6-8.6,1.1-11.1c-1.5-2.5-4.1-2.6-4.1-5.2c0-2.6,0.6-4.2-0.6-5.5c-1.2-1.2-1.9-3.5-0.7-5.5c1.1-2,2.6-2.9,4.7-2.5  c2.1,0.4,6,3.2,7.6,0.9c1.6-2.4,3.5-5.1,3.4-7.7c-0.1-2.6-2.7-9.9-0.9-10.2c1.9-0.4,4.1-4.8,6.2-6.1c2.1-1.3,2.9-1.5,3.1-2.8  c0.2-1.3,2-2.6,3.1-1.7c1.1,0.9-0.2-1.3,3.2-1.7c3.4-0.5,4.6-2,6.9-0.6c2.3,1.4,5.4,0.9,6.8,0.4c1.5-0.5,2.6-4.9,1.4-6.2  c-1.1-1.3-0.7-2.8-0.7-2.8s1.5-2.4,0.7-4.4c-0.7-2-1.1-4.6-0.7-6.3c0.4-1.7,1.3-3.9-0.6-4.6c-1.8-0.7-2.6-1.8-2.4-4.3  c0.2-2.4,0.7-6.8,2.6-6.8c1.8,0,7-4.8,10-2.4c3,2.4,6.8,1.5,8.7,3.7c1.8,2.2,4.3-0.2,6.1-1.5c1.8-1.3,3,1.1,6.8-0.2  c3.7-1.2,7-2.8,7.5-4.9c-1.2-0.2-0.8-5.1-0.1-9.9c0.8-6-1.2-7.5-3-13.4c-1.8-5.9,0.4-10.4,2.9-11.5c2.4-1.2,1.1-2.3,0.2-3.2  c-0.8-0.8-1.6-2.9-0.6-4.5c1-1.7-0.3-3-3-5.5c-2.6-2.5-2.4-4.2-1.8-6.2c0.6-2-0.3-1.7-2-1.2c-1.7,0.5-0.8,1.4-2.3-1.1  c-1.5-2.4-2.7,0.7-3.6,1.8c-0.8,1.1-3.2-1.3-4.5-2.1c-1.3-0.7-2.3,0.3-3.1-1.6c-0.7-1.9-1.9-1.7-3.5-1.7c-1.6,0-2.5,0.7-3.4-0.9  c-0.8-1.7-0.7-2-2.2-3.4c-1.5-1.4-4.5-1.6-6-0.6c-1.5,1-2.2,1.7-5,2c-2.7,0.3-3.5,3.8-5.8,4.1c-2.3,0.3-3,2.4-5.2,3  c-1.4,0.3-4.9,0.9-7.5,1c0.6,2.6,1.6,6.8,2.1,8.4c0.7,2.3-0.1,6.7-1,7.4c-0.8,0.7-1.4,2.9-0.3,3.6c1.1,0.7,3.4,1.8,2.2,3.2  c-1.2,1.4-2.6,0.1-5.2-1c-2.6-1.1-1.2,1.5-2.5,2.3c-1.2,0.8-2.2,3.4-2.3,5.4c-0.1,1.9,0.3,4.3-3.7,6.7c-4,2.5-5.4-0.3-7-3.9  c-1.7-3.6-2.2-2.9-5.5-3c-3.3-0.1-3.9-6.1-7.4-8.5c-3.6-2.5-3.9-1-6.2,1.7c-2.3,2.6-13.9,2.9-17.9,3c-4,0.1-5.8,2.3-8,2.3  c-2.2,0-1.5,1.2-2,2.9c-0.4,1.7-1.5,4-3.5,4c-2,0-4.3,1.9-6.4,3.2c-2.1,1.3-3-0.4-4.1-1.6c-1.1-1.1-3-0.8-3.9,0.7  c-0.9,1.4-1.4,2.3-4.2,2.6c-2.8,0.2-6.3,3.7-8.1,5.9c-1.8,2.2-2.8,2.7-5.5,2.4c-2.8-0.2-1.8-0.2-5.2,0.9c-3.4,1.1-6.3,2.8-6.8,4.3  c-0.4,1.6-1.2,4.3-1.8,6.1c-0.6,1.8-2.2,2.3,1.1,4.1c3.3,1.8,1,5.7-0.7,7c-1.7,1.3,0,3,0.9,4.1c0.9,1.2,2.9,1.7,2.2,5  c-0.7,3.2-0.6,3.5,0.6,4.7c1.2,1.3,0.9,3.8,1.6,5.8c0.7,2,6.1,0.7,8.3,0.3c2.2-0.3,0.2,2.5-0.6,3.5c-0.6,0.6-1,2.8-1.2,4  c1.2,0,0.7,2.6,0.8,4.6c0.2,2.4,3.8,3.5,5.3,4.5c1.5,0.9,6.6,3.1,6.3,4.8c-0.3,1.6,0.1,2.7,1.1,3.3c1,0.6,1.6,2,3.1,3.5  c1.6,1.5,5.3,0.7,7.8,0.7c2.5,0,1.5,0.9,2.8,3.8c1.3,2.8,0.2,5.5,0.6,7c0.3,1.5,7.7,6.8,10.3,8.1c2.6,1.3,1.8,2.4,1.7,3.7  c-0.1,1.3,0.1,1.6,1.1,2.5c1,0.8,0.8,4.6,0.4,6.5c-0.4,1.9-2.6,7.2-2.6,8.9c0,1.7-1.5,5.4-1.6,8c-0.1,2.6,0.9,1.5,3,1.3  c2.1-0.2,3.5-0.5,4.6-2.6c1.1-2.1,3-2,2.7-3c-0.4-1-1.3-2.9-0.4-3.5c0.9-0.6,2-3.4,2.2-5.4c0.3-2,1-1.3,2.5-1.6  c1.5-0.4,1.1,4.2,1.1,6.9s2.1,5.3,3.4,6.8c1.3,1.5,0.7,3.1,1.9,4.2c1.2,1.1,2.8-0.8,4,0.1c1.3,0.9-0.8,3.6-2.4,5.3  c-1.6,1.7,1.6,3,2.9,4.1c1.3,1.2,1.9,2.1,3.7,2.7c1.8,0.6,3,1,3.9,1.9c0.1,0.1,0.1,0.1,0.1,0.2C341.7,332.1,343.6,330.3,346.4,330.4  z" stroke-miterlimit="10" stroke="#FFFFFF"/>
<path name="吉林市" fill="#D3D3D3" id="path8" d="M495.7,292.9c-0.6-1.7-1.2-3.5-2.6-4.9c-1.4-1.4-2-2.2-1.5-5.5  c0.5-3.3,0-4.4-1.1-5.8c-1.1-1.4-1.9-2.8,1-5.3c2.9-2.5-2.1-3.9-5.1-6.8c-2.5-2.4,2.9-10,4.8-12.5c-1.4-0.3-2.9-0.8-4.7-1.1  c-3.6-0.6-3.3-3.8-3.3-6.7c0-2.9-0.7-4.5-1.6-3.8c-0.9,0.7-2.3,2.2-5.7,0.3c-3.3-1.9-2.2-5.2-1.5-7.4c0.7-2.2-3.3-7.4-6.4-10.3  c-3.1-2.9-3.1-3.9-3.1-6.3c0-2.3-1-3.7-1.9-5.9c-1-2.2,3-5.4,4.1-5.8c1.2-0.4,2.9-1.7-0.1-2.3c-3-0.6-6.8-5-8.1-5.8  c-1.4-0.8-7.1-1.7-9.3-0.3c-2.2,1.4-3.4,0.1-6-1.4c-2.6-1.5-3,0-3.6,1.6c-0.6,1.6-4.1,2.7-6.8,5.6c-0.5,0.6-0.9,0.8-1.2,0.7  c-0.5,2.1-3.8,3.7-7.5,4.9c-3.9,1.3-5-1.1-6.8,0.2c-1.8,1.3-4.2,3.7-6.1,1.5c-1.8-2.2-5.7-1.3-8.7-3.7c-3-2.4-8.1,2.4-10,2.4  c-1.8,0-2.4,4.4-2.6,6.8c-0.2,2.4,0.6,3.5,2.4,4.3c1.8,0.7,0.9,3,0.6,4.6c-0.4,1.7,0,4.3,0.7,6.3c0.7,2-0.7,4.4-0.7,4.4  s-0.4,1.5,0.7,2.8c1.1,1.3,0,5.7-1.4,6.2c-1.5,0.5-4.6,1-6.8-0.4c-2.3-1.4-3.5,0.2-6.9,0.6c-3.4,0.5-2.1,2.6-3.2,1.7  c-1.1-0.9-2.9,0.4-3.1,1.7c-0.2,1.3-1,1.5-3.1,2.8c-2.1,1.3-4.3,5.8-6.2,6.1c-1.9,0.4,0.7,7.6,0.9,10.2c0.1,2.6-1.7,5.4-3.4,7.7  c-1.6,2.4-5.5-0.5-7.6-0.9c-2.1-0.4-3.6,0.5-4.7,2.5c-1.1,2-0.5,4.2,0.7,5.5c1.2,1.2,0.6,2.9,0.6,5.5c0,2.6,2.6,2.7,4.1,5.2  c1.5,2.5,0.1,9.9-1.1,11.1c-1.2,1.2-1.7,2.4,0.2,3.4c2,1,0,3.2,0,4.9c0,1.6,3.7,3.5,5.4,4.6c1.6,1.1,5.4,7.7,6.4,8.9  c1,1.1-6.7,2.6-7.7,3.7c-1,1.1-2.6,2.9-4,1.2c-1.4-1.6-2.9,0.4-6.5,0.3c-2.8-0.1-4.7,1.7-5.4,2.6c0.5,0.9-1.9,2.5-3.6,2.9  c-1.7,0.5-0.7,2,0.2,2.8c1,0.8,2,3.7,2.4,5.2c0.4,1.5,0.4,2.6,2.3,2.7c1.9,0.2,3.7,1.1,4.2,2.5c0.5,1.4,0.2,3.4-1,2.8  c-1.2-0.6-1.2-0.7-2.2,1.3c-1,1.9-2.3,0.5-5.3,0c-0.2,0-0.5-0.1-0.7-0.2c0.5,1.3,1.9,4,4.4,5.8c0.1-0.1,0.1-0.1,0.2-0.1  c1.4-0.3,4.2-1.5,5.7,0.4c1.5,1.9,3.8,2.7,3.8,4.8c0,2.2-0.7,3.3,1.1,3.8c1.8,0.5,3,1.1,3.4,3c0.4,1.9,0.6,4.9,3.5,6.7  c2.9,1.8,4.7,3.2,8.9,3.1c4.2-0.1,8.3-0.9,10.8,0.9c2.5,1.7,3.2-0.7,5.2-2.2c2-1.5,5.5-1.4,5.8,0c0.4,1.4-1.3,5.2,0.1,7.7  c1.4,2.5,1.2,3.5,4.9,3.4c3.7-0.1,1.7,3.4,5.2,1c3.5-2.4,5.4-5.6,8.4-4.7c2.7,0.8,5.3,3.2,6,4.5c0.8-0.6,2.3,2.2,2.2,0.9  c-0.1-1.4,1.8-7.3,1.8-9.1c0-1.8,2-1.8,3.6-2c1.6-0.2,2.3-1.4,2.8-2.8c0.4-1.4,5.3-0.4,7.9,0.1c2.5,0.5,3.3-0.3,6.2,0.2  c2.9,0.5,3.1-0.4,4.8-1.3c1.7-0.8,2.3,0.8,2.4,3.4c0.1,2.5,2.5,2.2,3.8,5.4c1.3,3.2-0.7,8-2,9.2c-1.3,1.3-0.3,1.9,0.8,3.1  c1.2,1.2,4-0.4,5.1-2.5c1.1-2.1,1.9-1,3.3,1.5c1.4,2.4,2.8,4.2,3.6,3.8c0.9-0.4,1.8-0.1,2.9,0.7c1.1,0.9,2-0.6,3.3-2.3  c1.3-1.7,1.5-1.8,1.6-3.4c0.1-1.6,2.9-1.2,4.6-2.7c1.7-1.5,2.3-4.1,3.6-5.2c1.3-1.1,2-1.9,1.8-3.2c-0.2-1.3,1.3-3.3,3.3-3.8  c2-0.5,2.2-3.9,2.7-5.6c0.1-0.4,0.3-0.6,0.7-0.6c-0.3-2.3-1.8-6.4-4.4-8.8c-2.6-2.5-5-4.6-8.6-7.1c-3.6-2.5-3.8-3.1-4.3-6.2  c-0.4-3.1,0.6-5.7,0.7-7.8c0.1-2.1,2.7-3.3,5.6-3.3c2.8,0,1.8-0.6,1.9-2.4c0.1-1.8,1.2-3.4,2.2-4.7c1-1.3,1.9-3.4,0.3-5.4  c-1.6-2-1.6-4.3-0.4-5.6c1.2-1.3,4.6-5.2,4.5-7c-0.1-1.8,0.3-1.7,1.3-3.9c1-2.2,2.5-7.3,3.1-10C488,300.2,496.3,294.6,495.7,292.9z" stroke-miterlimit="10" stroke="#FFFFFF"/>
</svg>