<?xml version="1.0" encoding="UTF-8" standalone="no"?><!-- Generator: Adobe Illustrator 18.0.0, SVG Export Plug-In . SVG Version: 6.00 Build 0)  --><svg xmlns="http://www.w3.org/2000/svg" xmlns:xlink="http://www.w3.org/1999/xlink" contentScriptType="text/ecmascript" zoomAndPan="magnify" contentStyleType="text/css" id="图层_1" mapName="四川省" mapType="省市地图" enable-background="new 0 0 1000 1000" version="1.1" xml:space="preserve" preserveAspectRatio="xMidYMid meet" viewBox="0 0 1000 1000" x="0px" y="0px">
<g>
	<path name="广元市" fill="#D3D3D3" id="path0" d="M749.7,343.9c2.2-0.7,2.6-1,1.6-3.3c-0.9-2.4,1.6-3.5,3.6-7.6   c1.6-4,1.4-5.3,1.4-9.3c0-4,1.9-6.2,8.1-6.7c6.2-0.5,3.6-4.3,1.4-6.7c-2.2-2.4-1.4-3.3-1.4-5.9c0-2.6,0-3.5-2.1-6   c-2.1-2.2-2.2-4.7-2.2-8.3c0-2.4-0.9-6.6-1-8.6c0,0.3-0.3,0.3-0.5,0.5c-5.3,3.6-9.1,0.2-11.7,2.4c-2.6,2.1-4,1.6-5.3-0.5   c-1.6-1.9-6.2-2.6-9.7-2.8c-3.6-0.5-5.2-3.5-8.1-4c-2.9-0.5-3.6-4.7-3.6-8.3s-1.6-3.6-2.9-1.7c-1.4,1.7-1.4,2.1-4,1.7   c-2.6-0.5-4,0-7.8,1.4c-3.6,1-4.1,1.4-4.7,3.1c-0.3,1.6-2.2,3.6-5.2,3.1c-2.6-0.5-6,3.5-8.8,5.5c-2.6,1.7-4.7-2.6-5.9-6   s-3.6-9.1-4.7-12.8s-5.2,2.1-5.9,5.3c-0.7,3.3,3.6,4.7,5.2,6.7c1.4,2.1-7.8,5.9-10,7.8c-2.1,2.1-3.6,2.6-5.5,1.7   c-1.9-0.7-4.7,2.4-6.7,5c-2.1,2.6-4.1,2.8-6.9,0.5c-2.9-2.4-4.7-3.5-7.2-1.9c-2.6,1.6-6.2,1.9-8.1-0.7c-1.9-2.6-6,1.4-8.8-0.9   c-2.8-2.1-2.6-1.7-6-1.7c-1.4-0.3-2.1-0.3-2.6-0.5c-3.6,5.9,0.3,9.3,2.2,9.1c2.4-0.2,2.4,1.4,5,2.4c2.6,1,2.1,3.1,0.9,7.4   c-1.4,4.5,2.8,5.7,5.3,5.7c2.4,0.2,3.5,0,5,2.1c1.6,2.1,3.3,1.6,5.9,1.6c2.6,0-0.2,3.1,1.4,4.1c1.6,0.7,2.4,1,2.4,4.1   c0.2,2.9,2.4,1,2.8-1c0.5-2.2,2.6-1.6,2.9-4.8c0.5-3.5,4.8-1.6,6.6-2.4c1.9-0.7,2.9-0.2,2.9,1.4c0,1.9,0.2,2.1,2.2,2.6   c2.1,0.5-2.6,9.8-1.4,11c1.4,1.6,1.4,2.1,1,3.6c-0.2,1.7,0.5,2.2,2.6,1.6c2.1-0.7,0,3.5-0.7,5.7c-0.5,2.2-2.1,2.1-3.6,1   c-1.6-1-2.1,4.1-2.6,7.4c-0.5,3.3,3.6,8.3,4.1,9.7c0.9,1.4,4.1,3.3,5.5,4.7c1.4,1-4,2.9-4.1,4c-0.2,1,0,3.3,3.6,0.7   c3.6-2.6,2.8,3.6,2.1,5.7c-0.7,2.1,0,3.6,1.4,4c1.4,0.3,4,3.6,5.2,7.1c0.7-0.9,2.2-2.6,2.6-4.7c0.5-2.2,2.6-1.7,5.2-0.9   c2.6,1,5.5,2.9,7.4,0.9c2.1-2.1,4.7-2.1,6.2-4.8c1.6-3.1,2.6-9.3,4-9.3c1.6,0,2.8,8.8,5.2,9.3c2.6,0.5,3.3-1.6,4.8-3.1   c1.6-1.6,2.9,1.9,6.6,0.9c3.3-0.9,8.1-2.1,8.8-6.9c0.7-5-2.2-7.1,0.5-8.3c2.6-1,4.8-2.1,5.2,0.7c0.5,2.9,1.6,3.6,2.8,2.9   c1.6-0.9,4.1-1.6,5.5-4.1c1.4-2.6,3.5-0.7,4.8,1.6c0.5,0.7,1.4,1.6,1.9,2.2c0-1.6,0.7-8.5,0.7-10   C745.4,347,747.3,344.6,749.7,343.9z" stroke-miterlimit="10" stroke="#FFFFFF"/>
	<path name="巴中市" fill="#D3D3D3" id="path1" d="M831.7,338c2.8-0.9,12.9-4.1,9.3-9.7c-3.3-5.7-1.6-6.2-5.7-5.9   s-5.2-0.9-2.9-3.5c2.2-2.1,5.5-10.4,5.5-13.8c0-0.2-0.3-0.5-0.3-0.5c-2.9-4.1-5.2-3.5-6.7-2.8c-1.7,0.5-8.3,1.7-10.4,1.7   s-1.4-6.6-1.4-10.2s-4.1-2.8-7.4-1.7c-3.3,0.9-3.3,6.9-3.3,10.4s-1.9,1-4.7-1.7c-2.9-2.9-2.6-3.6-6.9-4.7c-4.1-0.9-2.9-2.8-3.5-6   c-0.5-3.1,0.3-2.8-1-7.8c-1.4-4.8-1.9-4.7-6.6-4.1c-4.7,0.5-8.6-0.5-14.5-1.4c-6-1-7.8,1.4-12.6,5c0.2,2.1,1,6,1,8.6   c0,3.3,0.3,5.7,2.2,8.3c2.1,2.4,2.1,3.6,2.1,6c0,2.2-0.9,3.3,1.4,5.9c2.2,2.4,4.7,6.6-1.4,7.1c-6.2,0.5-8.1,2.8-8.1,6.7   c0,4,0.3,5.5-1.4,9.7c-1.7,4.1-4.1,5.2-3.6,7.4c0.7,2.2,0.7,2.9-1.6,3.5c-2.2,0.7-4.1,2.8-4.1,4.3c0,1.6-0.5,8.6-0.7,10   c1,1.4,1.4,2.6,0,3.6c-2.1,2.1-2.6,3.5-0.3,5.5c2.2,1.9,4.5,4.7,5.2,6.6c0.5,2.1,2.1,2.2,4.5,2.9c2.6,0.3,3.6,1,5.2,3.5   c1.6,2.4,2.2,2.2,3.3,0c1-2.4,0.7-5,4-3.6c3.3,1.4,8.3-0.7,9.8,2.1c1.4,2.9,5,6.9,4.5,9.8c-0.5,2.8-1.6,4,1.4,4.7   c2.9,0.7,3.6,3.3,4.5,5.5c0.7,1.6,1.7,3.5,2.6,4.1c0-0.7,0.2-1.6,1.6-3.1c2.6-3.1,0-7.9,2.6-6.2c2.6,1.7,6.2,4.8,7.8,0   c1.6-5,1.6-7.6,4.1-7.2c2.6,0.5,7.4-2.2,7.8-4.8c0.3-2.6,0-4.7,2.6-5.5c2.6-0.9,12.6-6,11.7-8.8c-0.9-3.1-4.1-3.3-1.6-4.8   c2.6-1.6,3.5-0.9,3.5-4.8s0-3.6,1.6-5.7c1.6-2.1,2.6-3.3,0-3.3c-2.6,0-6.6-1.9-3.6-3.1c3.1-1,3.1-1,2.4-3.1   C828.9,340.1,828.9,338.5,831.7,338z" stroke-miterlimit="10" stroke="#FFFFFF"/>
	<path name="南充市" fill="#D3D3D3" id="path2" d="M781.6,392.9c-2.9-0.9-1.6-2.1-1.4-4.7c0.3-2.8-3.1-6.7-4.3-9.8   c-1.2-3.1-6.6-0.7-9.8-2.1c-3.1-1.4-2.9,1.6-4,3.6c-1,2.4-1.6,2.4-3.3,0c-1.6-2.2-2.6-3.1-5.2-3.3c-2.6-0.2-4-0.7-4.5-2.9   c-0.5-2.1-2.6-4.7-5.2-6.6c-2.2-1.7-1.7-3.5,0.3-5.5c2.1-2.1-0.3-3.6-2.1-5.9c-1.6-2.1-3.6-4-5-1.6c-1.4,2.6-4,3.5-5.3,4.1   c-1.6,0.7-2.6-0.3-2.9-3.1c-0.5-2.9-2.6-2.1-5.2-0.7c-2.6,1,0.3,3.3-0.5,7.9c-0.7,5-5.2,6.2-8.8,7.1c-3.3,0.7-4.8-2.6-6.6-1   s-2.6,3.5-4.8,2.9c-2.6-0.5-3.6-9.3-5.2-9.3s-2.6,6.6-4,9.5c-1.6,2.9-4.5,2.9-6.2,5c-1.9,2.2-5,0.5-7.6-0.9   c-2.6-1.4-4.7-1.7-5.2,0.9c-0.2,2.1-2.1,3.6-2.6,4.7c0,0.3,0.3,0.7,0.3,1c1.4,3.6,2.6,0.9,4.7,1c2.1,0.2-1.4,2.2-0.7,3.3   c0.5,1,0.7,3.6,1.4,5c0.7,1.4,2.1-0.5,2.9-1.4c1-0.9,0,0.7,1.4,1.6c1,1,2.2-2.1,6.6-2.2c4.1-0.5,2.6,4.3,0.7,4.8   c-1.7,0.5-1.7,2.4-2.8,4.1c-1.4,1.7,0.7,2.2,2.8,4.1c2.4,1.9,1.6,2.9,1.6,4.7s0.5,2.9,2.2,4.1c1.9,1.6,1.9,4.7,1.6,9.3   c-0.3,4.1-6.7,6.2-8.1,6.2c0.3,0.2,0.5,0.5,0.9,0.7c2.1,2.1,2.1,4.5,4.1,4.7c2.1,0.2,3.6,0.5,4.1,2.1c0.5,1.6,0,2.2,2.4,4   c2.1,1.6,2.6,2.8,2.6,5.3c0,2.4-0.5,4,0.5,5.5c1,1.6,1.4,4.1,1,6c0,1.6-0.2,4.1,1.4,3.3c1.6-0.7,6-0.7,3.6,1   c-2.4,1.6-2.6,1.6-1.4,2.8s3.6,1.6,1.6,3.6c-2.1,2.1-2.1,2.2-0.2,2.6c1.7,0.2,0.7,4.1,2.2,2.8c1.4-1,4.8-2.8,5.5-2.1   c1.4-0.9,4.7-2.4,6.2-1.6c2.1,0.9,4,0.3,4.8-1.6c1.4-1.6,7.2-6.2,5.7-7.9c-1.6-1.9-2.1-3.5,0.7-3.6c2.6-0.2,9.1-0.2,6.7-3.3   c-2.2-3.1-1-4.1,0-2.9c1.4,1,0.7,2.9,3.6,1.6c2.6-1,4.1,0.5,4.8-2.4c0.9-2.8,2.9-4,4-2.1c1,1.9,1,3.5,4.5,2.6   c3.3-0.7,5.7-1.6,5.2-3.3c-0.3-1.6-1.9-5.2,1.4-5.7c2.6-0.5,3.6-0.7,5.2-0.7c-0.3-1.4-1.4-6.7,0-6.7c1.6-0.2,3.3-0.7,4.1-3.1   c0.9-2.4,4-4.1,5.2-6.7c1.4-2.6,3.3-4.7,5.9-6.2c2.6-1.7,3.3-4.1,3.3-6.7s0-4.7,1-6.2c0.7-0.9,0.2-1.4,0.2-2.1   c-0.5-0.7-1.7-2.6-2.6-4.1C785.3,396.2,784.6,393.6,781.6,392.9z" stroke-miterlimit="10" stroke="#FFFFFF"/>
	<path name="绵阳市" fill="#D3D3D3" id="path3" d="M695.5,422.1c0.3-4.7,0-8.1-1.6-9.3c-1.9-1.6-2.2-2.1-2.2-4.1   s0.7-3.1-1.6-4.7c-2.2-1.7-4.1-2.2-2.9-4.1c1.4-1.9,1.4-3.6,2.9-4.1c1.6-0.5,3.3-5.5-0.7-4.8c-4.1,0.5-5.2,3.3-6.6,2.2   c-1-1,0-2.2-1.4-1.6c-1,0.7-2.6,2.6-2.8,1.4c-0.5-1.4-0.5-4.1-1.4-4.8c-0.9-0.7,2.6-3.5,0.7-3.5c-1.7,0-3.3,2.4-4.7-1   c-1.4-3.6-4.1-7.8-5.5-8.1c-1.4-0.2-2.2-2.1-1.4-4c0.7-2.1,1.4-7.9-2.1-5.7c-3.6,2.2-3.6,0-3.6-1c0.3-1,5.5-2.9,4.1-4   c-1.4-1-4.8-3.3-5.5-4.7c-0.7-1.4-4.7-6.2-4.1-9.3c0.5-3.3,1-8.5,2.6-7.8c1.6,0.9,2.8,1.4,3.6-1c0.7-2.4,2.6-6.6,0.7-5.5   c-2.1,0.9-2.6,0.3-2.6-1.6c0.3-1.9,0.3-2.4-1-3.6c-1.4-1.6,3.3-10.9,1.4-11.4c-2.1-0.5-2.2-0.9-2.2-2.4c0-1.9-1.4-2.4-2.9-1.6   c-1.9,0.7-6.2-1-6.6,2.2c-0.5,3.5-2.6,2.6-2.9,5c-0.5,2.2-2.2,4.1-2.8,1c-0.2-2.8-1-3.1-2.4-4c-1.6-1,1.4-4.1-1.4-4.1   c-2.8,0-4.3,0.9-5.9-1.6c-1.6-2.1-2.4-2.1-5-2.1c-2.2-0.2-6.7-1-5.3-5.7s1.7-6.7-0.9-7.6c-2.4-1-2.6-2.4-5-2.4   c-2.1,0.3-5.9-3.1-2.2-9.1c-1-0.5-1.4-1.4-2.2-3.3c-1.6-3.1-7.8-2.1-9.7-3.1c-1.7-1-6.7-4.1-9.5-5.9c-1.4-1-2.4-2.6-2.4-4.1   c-1,0.5-3.6,0.7-5.3-2.1c-2.4-4-4-6.7-6.2-7.8c-2.2-0.7-3.6-0.7-4.7,4c-1,4.7-0.9,5,0,7.6c0.7,2.6,0.2,5.7,2.2,4.7   c2.4-0.7,2.4-2.8,3.5,0c1,2.9,2.4,6.6,1.4,7.8c-1,1.2-1.6,1.6-0.2,2.9c1,1.4,4.1,5.3,3.3,11c-0.7,6-2.8,8.6-4.1,4   c-1.6-4.7-4-6.7-3.6-9.3c0.3-2.4-2.1-1.6-3.6-1s-6.2,1-4.1,5.3c2.1,4.5,2.4,9.7,2.4,12.4c-0.3,2.8,0,8.3,2.8,9.5   c2.9,1.4,5.5,4.1,5.5,5.7c-0.3,1.6,1.4,2.9,2.6,1c1-1.7,3.3-4.7,4.8-1.7c1.6,3.1,1,3.6-0.7,5.7c-2.1,2.1-5,6.6-8.8,4.8   c-4.1-1.6-8.6-4.1-8.8-1.6c-0.2,2.6-3.1,6.9-4.1,8.8s-4.1,8.5,0.9,8.8c4.7,0,10.4,1,11,4.1c0.9,3.1,4,4.7,3.6,6.2   c-0.3,1.6,1.6,1.6,2.8,2.2c1.6,0.7,6.7,6.2-0.2,9.7c-3.5,1.6-4.1,2.2-4.1,2.8l0,0l0,0c0.5,0.3,1.4,0.5,1.6,0.9   c1,0.5,2.6,2.6,2.8,4.8c0.5,2.2,0.9,2.9,2.6,4c1.6,1,2.4,1,2.4,4.1s0.9,4.1,2.8,5.2c2.4,1.4,4.7,1.6,6,3.6c1.6,2.1,3.1,1.9,5.7,0.5   c2.6-1.4,5.7-2.1,6.6-4.7c0.9-2.6,3.6-2.9,4-0.5c0.3,2.2,0.3,3.6,2.1,3.3c1.7-0.3,2.9,1.6,2.9,3.6c0.2,1.7,1.6,2.2,2.2,4.1   c1,1.6,5,1.6,7.2,1c2.2-0.5,1.6,2.2,0.3,3.6c-1.2,1.4-5.2,5.2-2.6,5.9c2.6,0.9,2.6,1,3.1,3.6s0.9,7.9,2.1,8.6c1.4,0.7,1,3.1,0,4.1   s0.5,1,2.1,2.8c1.6,1.6,4.1,2.9,5.5,0.3c1-2.6,5.3-2.9,5.2,1.4c-0.3,4.3-1.9,8.1,0.2,7.2c2.4-1,2.4,0.5,2.1,2.1   c-0.3,1.6,0,6.2,4.1,6.7c3.6,0.9,5.3,1,5.9,3.5c1.4-0.9,7.8-5,6.2-9.3c-1.9-4.7-1.6-2.2-1.6-4.3c0-1.7-2.9-3.5-4.1-5.7   c-1-2.4-0.5-2.1,1.4-5.5c1.9-3.1,1.4-4.3,0.7-6.9c-0.7-2.9,0-5.2,2.1-5.2c2.1,0,5.2,0.9,7.2-2.1c2.1-2.8,4-4.1,4-1   s-0.2,4.3,1.4,4.8c1.6,0.5,0.7,2.9,3.3,4.1c2.9,1.6,5.9,3.1,7.8,4.3c1.6,1,4,0.9,5.5,2.1C688.8,428.1,695.3,426.2,695.5,422.1z" stroke-miterlimit="10" stroke="#FFFFFF"/>
	<path name="达州市" fill="#D3D3D3" id="path4" d="M898.8,359.6c0.3-4.8-4.7-4.7-6.7-5.7c-2.2-0.9-4-2.6-7.4-6.7   c-3.5-4.1-3.6-7.2-3.1-11.4c0.5-4.3,2.6-4.1,4.7-4.7c2.1-0.7,1-2.6-1-3.3c-2.2-0.7-1.4-1.9-2.2-4.7c-1-2.9,5.2-2.9,8.3-2.9   c3.1,0,4,0.3,5.2-4.8c1.4-5.5-5.5-2.9-8.6-1.6c-2.8,1.4-3.6-0.2-7.2-1c-3.6-0.9-4,1.4-5.5,3.1c-1.7,1.7-4.1,1.4-7.4,0.5   c-3.5-0.7-4,2.4-5.5,6c-1.4,3.6-6.7,0-9.8-3.5c-2.8-3.1-11-9.5-14.3-13.6c0,3.3-3.6,11.4-5.3,13.6c-2.4,2.4-1.4,3.5,2.8,3.5   c4.1-0.3,2.4,0.3,5.7,6c3.3,5.7-6.6,8.8-9.3,9.5s-2.9,2.1-2.2,4.1c0.7,2.1,0.7,2.1-2.2,3.1c-3.1,1,1,3.1,3.6,2.8c2.6,0,1.4,1,0,3.5   c-1.6,2.2-1.6,1.7-1.6,5.7s-1,3.5-3.3,5c-2.6,1.6,1,1.7,1.6,4.8c0.7,3.1-9.1,8.3-11.7,9.1c-2.6,0.9-2.4,2.4-2.6,5.2   c-0.3,2.9-5.2,5.5-7.8,5c-2.6-0.5-2.6,2.1-4.1,7.2s-5.2,2.1-7.8,0.3c-2.6-1.7,0,3.5-2.6,6.2c-2.6,3.1-1,4-2.1,5.2   c-1,1.4-0.7,3.3-1,5.9c0,2.6-1,5-3.5,6.7c-2.6,1.7-4.7,3.6-5.9,6.2c-1.2,2.6-4.1,4.7-5.2,6.7c-1,2.1-2.6,2.6-4.1,2.8   c-1.6,0.3-0.3,5.7,0,6.9c0.3,0,0.9,0.3,1,0.3c2.1,0.9,2.6-0.9,5.2,2.9c2.6,3.3,4.7,4.7,7.1,4.8c2.6,0.5,5.9,1.4,5.9,2.2   c0,1,0,1.4-1.6,1c-1.6-0.2-2.6-0.2-2.1,1.6c0.5,1.6,2.6,4,5.2,3.6c2.6-0.3,8.1-0.9,7.2,2.6c-0.9,3.5-5.7,7.2-4.5,8.8   c1.4,1.6,0.3,2.2,1.6,2.2c1.6-0.3,2.2-1.6,4-0.9c1.7,0.7,4.1,1.6,6,1.6c1.6-0.3,0.7-1.7,0-2.4c-0.9-0.5-1.4-2.2,0-2.2   c1.4-0.3,2.2-0.3,2.6-1.6c0.2-1.4,1.4-2.8,2.2-0.2c1,2.2,2.1,4.1-0.3,6c-2.2,1.6-2.6,3.1-0.7,3.6c1.6,0.3,1.7,1.7,1.7,3.6   c0,1.6,0,2.1,1.4,1s3.1-1.4,2.2,1.4c-0.7,2.4-0.5,3.6,0.9,3.6c5.7-11.4,11.4-23.1,12.4-24.7c2.2-3.6,0-6.2-1.6-8.3   c-1.6-2.2-1-4.1-0.7-6.7c0-2.6,3.3-4.7,7.2-4.1s6.7-3.5,9.7-4.8c2.9-1.6,4.7,0.5,6.7,4.7c2.1,4.1,6.6,2.6,10-0.9   c4-3.5,6.6-12.4,9.3-17.4c2.8-5,2.2-4,1.4-6.7c-0.9-2.8,0.5-4.8,2.2-6.9c1.9-2.1,1.6-6.2,0.7-9.1c-1-2.9,2.6-7.8,3.6-9.1   c1-1.6-0.9-8.6,6.6-9.8c6.9-1.4,14.5-7.4,17.6-8.8C901.1,368.6,898.5,364.6,898.8,359.6z" stroke-miterlimit="10" stroke="#FFFFFF"/>
	<path name="广安市" fill="#D3D3D3" id="path5" d="M812.3,478.5c0.7-2.6-1-2.4-2.4-1.4c-1.4,1-1.4,0.7-1.4-1   c0-1.6,0-2.8-1.7-3.6c-1.6-0.2-1.4-2.1,0.7-3.6c2.2-1.6,1-3.6,0.3-6c-1-2.2-1.9-1-2.2,0.3c-0.5,1.4-1.4,1.6-2.6,1.6   c-1.4,0.3-0.9,2.1,0,2.4c0.7,0.5,1.7,2.1,0,2.2c-1.6,0.3-4.5-0.9-6-1.6c-1.6-0.9-2.2,0.5-4,0.7c-1.6,0.3-0.2-0.2-1.6-2.2   c-1.4-1.7,3.6-5.7,4.3-8.8c0.9-3.5-4.7-2.9-7.2-2.6c-2.6,0.2-4.7-2.1-5.2-3.6c-0.5-1.6,0.3-1.6,2.1-1.6c1.6,0.2,1.6,0.2,1.6-1   c0-1-3.5-1.7-6-2.4c-2.6-0.5-4.3-1.6-6.9-4.8c-2.6-3.3-2.9-2.1-5.2-2.9c-2.4-0.7-2.9,0.3-6.2,0.9c-3.3,0.5-1.6,4.1-1.4,5.7   c0.3,1.6-2.1,2.9-5.2,3.5c-3.1,0.5-3.3-0.9-4.3-2.6s-3.5-0.9-4,2.1c-0.5,2.9-2.2,1-4.8,2.2c-2.6,1-2.6-0.7-3.6-1.6   c-1.4-1-2.6,0.2,0,2.8c2.6,2.6-4.1,2.9-6.7,3.5c-2.6,0.3-2.1,1.7-0.9,3.6c1.4,1.7-4.7,6.2-5.7,7.9c-1.4,1.6-2.9,2.4-5,1.6   c-1.6-0.9-4.8,1-6.2,1.6c0,0.3,0,0.3,0,0.3c0.3,1.6,0,4.8,1.4,6.2c1,1,3.5,2.9,3.5,5.2c1.6,1,3.1,2.4,4.8,3.1   c2.9,1,6.2,1.6,6.6,3.6c0.3,2.1,1,6.9,3.5,8.8c2.2,1.6,3.6,1.9,5.9,1.4c2.2-0.5,4.7-2.2,6.7-2.2c2.1,0,4.8-1,6.7-1.7   c1.7-0.9,13.1,15,17.1,17.8c4,2.9,15.4-6.2,16.9-8.3c1.6-2.1,2.1-1.6,4,1c2.1,2.6,5.5,2.4,7.8,1c1-0.9,7.1-12.4,12.9-24.2   C811.8,482.1,811.5,481.1,812.3,478.5z" stroke-miterlimit="10" stroke="#FFFFFF"/>
	<path name="遂宁市" fill="#D3D3D3" id="path6" d="M716.9,477.3c-1-1-1-4.7-1.4-6.2c-0.3-1.6-4.1,0.9-5.9,1.6   c-1.6,1-0.5-2.8-2.2-2.8c-1.6-0.2-1.6-0.5,0.2-2.6c1.9-2.1-0.2-2.4-1.6-3.6s-1.4-1,1.4-2.8c2.2-1.6-2.4-1.6-3.6-1   c-1.4,0.5-1.4-1.6-1.4-3.3c0-1.6,0-4.1-1-6c-1-1.6-0.3-3.5-0.5-5.3c0-2.4-0.9-3.6-2.6-5.5c-2.1-1.6-1.9-2.1-2.4-4   c-0.5-1.9-2.1-2.1-4.1-2.1c-2.1-0.2-2.1-2.2-4.1-4.7c-2.1-2.4-4.7-1.6-6.6-2.8c-1.9-1.6-5-3.1-7.8-4.3c-2.9-1.4-1.9-3.6-3.5-4.1   c-1.6-0.7-1.4-2.1-1.4-4.8c0-3.1-1.7-1.6-4,1c-2.1,2.9-5.2,2.1-7.2,2.1c-2.1,0-2.6,2.2-2.1,5.2c0.5,2.9,1,4-0.7,6.9   c-1.9,3.1-2.4,3.1-1.4,5.5c1,2.2,4.1,4,4.1,5.7s-0.2-0.2,1.6,4.3c1.6,4.1-4.8,8.6-6.2,9.3c0,0.5,0,1,0,1.7c-0.5,4-1.4,10.2-6.2,14   c0,0.2,0.2,0.5,0.2,0.7c0.5,2.4,2.1,6.7,2.6,9.8c0.5,3.1,2.6,5.3,5.3,6.9c2.9,1.6,7.6,5,9.3,3.5c2.1-1.6,4-3.1,4.7-1   c0.7,2.1,1.6,2.4,3.1,1.9c1.4-0.3,2.2-0.5,3.6,1.6c1.4,2.1,2.9,1.6,3.6,3.6c0.7,2.1,3.6,0.7,6.6,1.7c1-1,2.1-1.7,2.8-2.1   c2.4-0.5,4-1.4,4.7-3.6c0.5-2.6,2.6-6.6,5.3-9.3c2.9-2.8,8.1-1.6,9.8-0.7c1.6,1,4.8,0.7,8.1,0.7c1.4,0,2.2,0.3,3.3,1   C720.2,480.4,717.9,478.3,716.9,477.3z" stroke-miterlimit="10" stroke="#FFFFFF"/>
	<path name="德阳市" fill="#D3D3D3" id="path7" d="M654.1,454c0.5-4.1-1.9-4.1-6-5s-4.3-5.2-4.1-6.7   c0.2-1.9,0.2-3.1-2.1-2.4c-2.2,1-0.7-2.8-0.2-7.2c0.2-4.3-4.1-4-5.2-1.4c-1,2.6-3.6,1.4-5.5-0.2c-1.6-1.6-2.8-1.7-2.1-2.9   c1-0.9,1.4-3.5,0-4.1c-1.4-0.9-1.6-6-2.1-8.6c-0.5-2.2-0.5-3.1-3.1-3.6c-2.6-0.5,1-4.5,2.6-5.9c1.4-1.4,1.9-4-0.2-3.5   s-6.2,0.5-7.2-1s-2.2-2.2-2.2-4.1c0-1.9-0.9-4-2.9-3.6c-2.1,0.5-1.6-0.7-2.1-3.3c-0.3-2.6-3.1-2.1-4,0.5c-0.9,2.9-4,3.5-6.6,4.7   c-2.6,1.2-4.1,1.4-5.7-0.5c-1.6-2.1-3.6-2.2-5.9-3.3c-2.4-1-2.9-2.1-2.9-5.2s-0.5-3.5-2.2-4.5c-1.6-1-2.1-1.6-2.6-4   c-0.5-2.1-2.1-4.5-2.9-4.7c-0.3-0.3-1-0.5-1.6-0.9c0,0-4.8,4.1-7.2,8.8c-1.4,2.6-3.1,6.6-5.5,9.7c0.9,1,3.1,3.1,4.7,2.6   c2.1-1,1.6-0.3,3.1,1c1.6,1,1.9,3.5,0.3,5.2c-1.6,2.1,1,6.2,3.3,8.8c2.6,2.6,2.9,6.6,2.1,8.5c-1,1.9-1.4,10.4,1,10.4   c2.2,0,3.6,2.4,4.3,5.7c0.5,3.3,3.5,3.1,7.6,3.3c4.1,0.3,6.9-2.1,10-4.3c3.5-2.6,6.7,1,6.7,4.1c0,3.1,4.8,3.1,6.9,4.7   c2.1,1.6,4.8,2.1,6.7,5.2c1.6,3.3,7.2,8.5,8.8,10.5c1.6,2.1,1,2.4,0,5.2c-0.9,1.7,0.9,2.6,2.2,3.6c0-1.6,0.3-5,1-4.7   c1,0.5,1.6-0.3,3.1-0.3c1.4-0.2,2.8,1.6,2.8,3.6c0,2.2,1.6,5.3,3.5,4.1c1.4-1,3.1-1.6,4.1-0.5C652.9,464.4,653.6,457.8,654.1,454z" stroke-miterlimit="10" stroke="#FFFFFF"/>
	<path name="资阳市" fill="#D3D3D3" id="path8" d="M680.3,494.7c-0.7-2.2-2.4-1.6-3.6-3.6c-1.2-2.1-2.2-1.7-3.6-1.6   c-1.4,0.2-2.6,0.3-3.1-1.7c-0.5-2.1-2.6-0.9-4.7,1c-2.1,1.6-6.6-1.6-9.3-3.5c-2.8-1.7-4.8-4-5.3-6.9c-0.5-3.1-2.1-7.6-2.6-9.8   c-0.5-2.2-2.8-1.6-4.7-0.2c-1.6,1-3.3-2.1-3.3-4.1s-1.6-4-2.9-3.6c-1.4,0.2-1.7,1-3.1,0.2c-1-0.2-1,2.8-1,4.7c1,0.5,2.1,1,2.9,1.7   c2.2,2.4-5,2.8-8.6,2.8c-3.6-0.2-5.7-5.3-10.2-8.5c-4.3-3.1-6.7-2.4-10.9-0.3c-4.1,2.1-3.6,0.3-6.6,0.5c-2.8,0.2,1.6,1.4,1.6,3.6   s-0.9,4.1-3.6,6.7c-2.8,2.2-2.2,0-4.8-0.9c-2.6-0.9-5.2,7.4-6.7,10c-1,2.4-0.2,3.6-1,5.5c3.3-1.6,4.8,1.7,5.2,4.7   c0.2,2.8,3.3,4.7,6.2,5.7c2.8,1,4.1,7.2,5.5,9.1c1.4,2.1,4.8,1.4,3.6,4.1c-0.7,1.4-1,2.4-1,3.6c2.1,2.1,7.8,6.7,10.5,4.8   c3.5-2.1,10.7-4,12.8-0.9c2.1,3.1,4.1,8.8,8.5,6c4.1-2.8,6-5.3,6.2-7.4c0.5-1.7,4.5-2.6,5.9-1.6c1.6,1,0,4.1,2.1,4.7   c2.1,0.3,2.4,1,2.8,4c0.5,2.9,3.1,2.9,4.1,1.6c1.4-1.4,4.1-1.4,6.2,0.2c1.9,1.6,4.7,1.6,6.7,0.2c2.1-1,5.5-2.8,5.5,2.4   c0,5,0,7.9,0.2,9.3c1.4-1,3.3-1.6,5.9-1.6c4,0,5.2-3.6,6.6-5.3c1-1.9,1-4.1,4.8-5c4-0.9,3.1-2.8,3.1-3.6c0-0.7-1.4-2.8,1.4-6.2   c2.8-3.5-10.2-13.3-11.9-15.2c-1.4-1.4-0.3-3.5,1-5C684,495.4,681,496.6,680.3,494.7z" stroke-miterlimit="10" stroke="#FFFFFF"/>
	<path name="宜宾市" fill="#D3D3D3" id="path9" d="M671,658.2c-2.4-5.2-6.2-7.1-8.6-8.8c-2.2-2.1,1-5.2-0.7-7.8   c-1.6-2.6-2.9-7.6-1.4-9.8c1.6-2.4,2.6-4,2.1-4.7c-0.5-0.9-4-2.2,0-8.1c3.5-4.7,0-10-1.4-11.4c-2.2,0.3-3.3,0.9-6.2,0.3   c-3.3-0.9-4.7,0.2-5.9-2.9c-1.4-2.9-2.4-3.5-4.3-3.5c-2.1,0-2.1-0.5-2.9-2.8c-0.7-2.4-3.6-4.7-5.9-0.9c-2.4,3.6-4.1,2.8-7.8,4   c-3.6,1-4.5-3.5-4.5-4.3c0-1.4,2.1-6,0.3-6c-1.9,0-0.3-3.6-2.4-4.7c-2.1-1-2.8-4.1-5.2-0.7c-2.2,3.3-6.2,3.3-7.8,1   c-1.6-2.4-2.2-6.2-5.3-6.2c-2.9-0.3-6.7,0.2-8.3-1.4c-1.6-1.6-5.7-3.6-4.1-0.3c1.6,3.3-0.9,4-2.1,3.5c-0.2-0.3-1-0.9-1.4-1.6   c-0.5,1.7-2.6,8.1-2.6,10.9c0,3.1-0.2,8.1-2.2,10.2c-1.9,2.4-3.5,1-4,5.7c-0.5,4.7,0.5,13.3-3.6,11.2c-4.1-2.1-5.3-5.3-5.7-3.1   c-0.3,2.2-2.6-1.6-3.6,1c-1,2.6-3.6,5-3.5,8.6s-0.3,7.6-3.5,8.6c-2.2,0.7-6.7,4.1-8.1,5.3c0.9,1,1.6,2.1,2.6,2.4   c2.9,1.4,6.2-2.1,5.5,1.6c-0.5,3.6-1.6,11.4,2.1,6.9c3.6-4.1,4.8-7.2,7.4-7.8c-0.2-4,0.3-7.9,0.9-10.9c0.9-4.1,5.2-2.1,8.6,1.4   s7.4,1,9.8,0.3c2.2-0.9,5.9-1,7.9,1c2.4,2.4,4.1,0.9,6.2,0.9c1.7,0-5,5.5-8.1,8.8c-2.9,3.1-1.4,5.5,0.3,8.8   c1.6,3.3-0.5,5.3-2.1,7.2c-1.6,1.7,3.1,1.9,4.1,0.5c1-1.4,3.5,1,6,2.4c2.6,1.4,3.6,6.9,2.1,9.3s-1,1.6,0.5,3.1s-2.6,7.8-6,8.5   c-3.6,1-2.2,2.8,0.5,3.3c2.8,0.5,1.6,4.7,4.1,6.7c2.6,2.1,7.6,4.7,10.2,6.6c2.8,1.7,10,0.7,12.6-1c2.9-1.6,6.6,0.2,10-1   c3.5-1.4,7.2-7.8,7.6-11.7c0.2-3.6,4.7-5.2,9.1-5.9c3.1-0.5,5.2,1.6,7.1,4c1.4-0.9,6.2-4.7,9.8-6.7   C673.6,674.7,673.3,663.3,671,658.2z" stroke-miterlimit="10" stroke="#FFFFFF"/>
	<path name="乐山市" fill="#D3D3D3" id="path10" d="M563,625c-0.2-3.5,2.6-5.7,3.5-8.6c1-2.8,3.1,1,3.6-1   c0.2-2.2,1.6,1,5.7,3.1c4.1,2.4,3.1-6.6,3.6-11.2c0.5-4.7,2.1-3.6,4-5.7c1.7-2.2,2.2-6.9,2.2-10c0-2.9,2.1-9.1,2.6-10.9   c-1-1.4-2.1-2.9-2.9-2.1c-1.6,1-3.3,1-3.1-0.9c0.3-1.7,2.9-4.1,1-4.1c-1.9,0-3.5-1.6-2.1-2.2c1.6-0.9,4.1,0.9,4.1-1.4   c-0.2-2.1-0.7-2.9-2.2-2.9c-2.1,0-2.6-0.7-2.1-2.1c0.5-1.4,0.9-1.9-0.5-2.4c-1.4-0.5-1.6-2.1,0.9-2.8c2.4-0.9,7.2-0.9,6.7-2.4   c-0.7-1.6-2.8-2.6-2.6-4.7c0.3-2.1-2.1-3.3-0.2-4.1c1.4-0.9,2.8-1.6,3.6-2.1c-0.2-0.2-0.9-0.7-1-1c-1.6-2.4-6.6-4.1-6.7-6.7   c-0.2-2.8-2.2-4.1-4.8-1.6c-2.9,2.8-9.1,2.1-12.8,1.6c-3.6-0.5-2.1-6.7-1.4-9.3c0.5-2.4-4.8-6.7-7.9-6.7c-3.1,0-6.2,3.5-8.3,6   c-2.4,2.2-5.7,2.9-7.6,2.2c-1.6-0.7-3.6,1-5,3.5c-1.4,2.4-0.2,4.1,2.9,5.5c2.9,1-2.2,3.6-4.7,5.3c-2.4,1.9-3.5,5.5-7.8,12.3   s-10,4.8-13.5,4.1c-3.5-0.9-4.8,3.1-4.8,3.6c0.5,0,1,0.2,1.6,0c4.3-0.3,0.9,7.9-0.2,10c0.2,0-0.3,0.9-0.3,2.1   c0,2.2,2.6,5.3,0.5,7.4c-2.1,2.1-2.2,4.7-0.9,6.9c1.6,2.4,2.1,5.2-1,6.2s-3.6,2.8-2.2,5c1.4,2.1,1.6,4.3,1.6,6.2s1.4,5.5,1,8.6   c-0.3,3.1,0.2,6.2,2.2,8.8c2.1,2.6,9.3,3.6,9.5,0c0.3-3.6,0.3-9.1,2.4-7.4c2.1,1.6,4,2.8,6.2,1.6c2.4-1.4,6.7-1.7,6.7,3.5   c0.2,5.2-2.4,9.8-4.1,11.9c-2.1,2.4-3.1,8.8-1.7,11.2c1.4,2.2,6.2,5.3,10.5,4c4.5-1.6,5.7-4,5.7-6.7c0-2.8,4.1-8.6,5.9-8.8   c1-0.3,1.9,1.6,2.9,3.3c1.6-1,5.7-4.3,8.1-5.3C562.5,632.6,563,628.7,563,625z" stroke-miterlimit="10" stroke="#FFFFFF"/>
	<path name="内江市" fill="#D3D3D3" id="path11" d="M584.4,553.6c-0.2,2.1,2.1,2.8,2.6,4.7c0.5,1.9-4.7,1.6-6.7,2.4   c-2.1,0.7-2.1,2.1-0.9,2.8c1.4,0.9,1,1,0.5,2.4c-0.5,1.4,0.3,2.1,2.1,2.1c2.1,0,2.4,0.7,2.4,2.8c0.2,2.1-2.9,0.9-4.1,1.4   s0.3,2.4,2.1,2.4s-0.9,2.2-1,4.1c-0.2,1.9,1.6,1.6,3.1,0.9c1.6-1,2.8,2.8,4.1,3.6c1.4,0.9,3.6,0.3,2.1-3.3   c-1.6-3.6,2.2-1.6,4.1,0.2c1.6,1.6,5.5,1,8.3,1.4c2.9,0.2,4.1,4.1,5.5,6.2c1.4,2.1,5.5,2.2,7.8-1s2.9-0.2,5.2,0.9s0.9,4.7,2.2,4.7   c1.6,0-0.2,4.7-0.2,6c0,1.4,1,5.5,4.3,4.3c3.6-1,5.5-0.2,7.8-4c2.4-3.6,5-1.6,6,0.9s1,2.9,2.8,2.9c1.9,0,2.9,0.2,4.5,3.5   c1.4,2.8,2.6,2.2,5.9,2.8c3.5,0.5,4.5-0.2,8.1-0.2c3.6,0,3.3-1.6,3.3-5.5s-1.9-3.5-4.5-3.5s-3.6-2.6-1.9-3.6c1.7-1,1.6-2.4,3.6-6.9   c2.1-5-5.7-8.1-8.1-9.3c-2.4-1.2-4.1-8.1-5.2-11.4c-1-3.1,1.9-5.7,0.7-7.6c-1.4-1.7-3.6-0.2-4.7,1.6c-1.4,1.6-2.6,2.9-6,1   c-3.1-2.1-7.2-0.2-8.6-0.5c-1.4-0.3-4.7-1-6.7,1.6c-2.1,2.6,1.6,4.1-0.5,6c-2.4,1.6-3.6-0.5-5.5-3.6s-5.9-0.9-7.9-1.6   c-2.4-1-6-8.8-6.7-12.1c-1-3.5-3.1-2.9-4.7-1.4c-1.6,1.7-2.1,0.2-3.6-1.6c-1.6-1.6-4.1-1-4.8-1c-1,0.9-2.4,0.9-3.6-0.3   c-0.9,0.3-2.4,1.6-3.6,2.1C582.3,550.5,584.7,551.7,584.4,553.6z" stroke-miterlimit="10" stroke="#FFFFFF"/>
	<path name="眉山市" fill="#D3D3D3" id="path12" d="M509.3,562c3.5,0.9,9.1,2.4,13.5-4.1c4.5-6.6,5.7-10.5,7.8-12.1   c2.1-1.6,7.6-4.1,4.7-5.5c-2.8-1-4.1-3.1-2.8-5.3s3.3-4.1,4.8-3.5c1.6,0.7,5.2,0.3,7.6-2.2c2.2-2.4,5.2-6,8.3-6   c3.5,0,8.6,4.3,8.1,6.7c-0.5,2.4-2.4,8.8,1.4,9.3c3.6,0.2,10,1,12.6-1.6c2.9-2.8,4.7-1,4.8,1.6c0.2,2.6,5.2,4.1,6.7,6.7   c1.6,2.6,4.7,2.9,5.5-0.2c1-2.9,5.3-5.5,7.4-8.8c2.1-3.5,2.2-3.5,4.3-2.8c2.1,0.5,4.1-0.5,4.1-4.1c0-3.6,0-8.8-2.1-11.7   c-2.1-2.8-1.6-5.2-0.3-7.9c1.4-2.9-2.2-2.4-3.6-4.1c-1.4-2.1-2.9-7.9-5.5-9.1c-2.8-1-5.9-2.8-6.2-5.7c-0.3-2.9-2.1-6.2-5.2-4.7   c-0.3,0.5-0.9,1-1.4,1.6c-2.9,2.8-7.4-3.6-7.4-6c0-2.1-3.6,2.2-6.2,0.9c-2.4-1.6-9.8,6.6-12.8,10c-2.8,3.6-5.9,5-7.4,7.6   c-1.6,2.6-1.7,2.1-4.1,1.6c-2.4-0.5-4.1,2.1-5.2,3.5c-1,1.4-3.6-0.3-4.1,0.5c-0.5,1-1.7,1.6-4.1,3.1c-7.6,5-7.1,8.8-14.8,12.3   c-3.3,1.6,1.6,6.7,2.4,7.9c0.9,1.2,1,6.7-0.5,10.2c-2.4,5.9-7.6-1-10.2-0.3c-2.6,0.9-2.8,0.3-4.1-0.7c-1.6-1-0.9,7.4-1.9,11.4   c-1,3.6-4.7,6.7-7.4,9.5c-2.4,2.6,3.3,5.7,8.3,6.2C504.5,565.3,506,561.3,509.3,562z" stroke-miterlimit="10" stroke="#FFFFFF"/>
	<path name="雅安市" fill="#D3D3D3" id="path13" d="M534.8,495.4c-3.5,0-4.1-2.1-6.2,0c-1.6,2.1-3.6,3.6-4.1,0.7   c-0.5-2.9-2.2-2.2-5.2,1c-2.9,3.3-4.8,0.2-6-2.6c-1-2.9-0.2-6.2,2.1-6.7c2.2-0.5,2.2-3.6,1.6-6.2c-1-2.9,0-4.7,4.1-7.6   c4.1-2.9,0.2-7.8-2.4-8.8c-2.6-1-1.4-3.6-0.7-8.1c0.5-4.1-6.2-8.5-8.1-9.3c-0.7,0.2-1.6,0.5-2.8,1c-4,2.4-7.8,2.9-7.8-0.2   c0-2.9,1.6-13.8-2.4-13.5c-4,0.3-11.4,0.5-11.9,3.1c-0.3,2.6-0.3,4-3.6,4.1c-3.3,0.3-12.6,5-14,16c0.2,0.9,0.2,1.6-0.3,2.9   c-1.6,4.8-2.1,13.5-2.1,19c0,5.3,1.6,10-0.9,14c-2.4,3.6-10.2,7.6-9.3,18.5c0.9,10.9,0,18.3,2.9,19.5c2.8,1,2.1,3.6,1,7.8   c-1,4.3-5.7,10-2.8,11.9c2.8,1.6,2.8,3.6,0.2,6.6c-2.6,3.1-6.7,7.6-8.6,5.5c-1.6-2.4-2.6-3.5-5.2-2.1s-12.1-3.6-11.9-0.2   c0.2,3.1,2.6,3.1,1.6,6.9c-1,4-3.6,7.2,0.3,8.8c4.1,1.6,8.3,1.6,6.2,6.9c-2.1,5.2-2.2,5,0,6.2c2.4,1.4,6.6,2.6,6,6.7   c-0.2,1-0.2,1.6-0.2,2.4c1.4,1,4.1,3.5,4.8,5.2c1.4,2.4,2.9,5.3,5,6.7c1.6,1.4,4,1.6,4.8,3.6c1,2.1,6,2.1,8.1-1.6   c2.2-3.5,3.5-6.2,3.6-9.7c0.3-3.6,6-15.5,8.1-17.1c2.1-1.6,3.6-0.9,4.8,1s8.1,2.9,8.1,0.5c0-2.4-0.3-5.9,2.1-5.9   c2.2-0.3,4.3,4.1,6.2,2.1c1.6-2.2,2.9-6.2,4.7-7.2c0.9-0.3,1-0.5,1-0.3c1-2.2,4.7-10.4,0.3-10c-5,0.2-12.8-3.5-10.2-6.2   c2.9-2.8,6.2-6,7.6-9.5c1-3.6,0.2-12.1,1.7-11.4c1.6,1,1.6,1.6,4.1,0.7c2.8-0.7,7.8,6.2,10,0.3c1.6-3.5,1-8.8,0.5-10.2   c-0.5-1.4-5.3-6.7-2.2-7.9c7.8-3.6,7.4-7.6,14.7-12.3c2.2-1.6,3.6-2.2,4.1-3.1c0.2-0.2,0.2-0.2,0.2-0.2c0-1,0-4.1,0.2-6.2   C537.6,497.3,538.1,495.4,534.8,495.4z" stroke-miterlimit="10" stroke="#FFFFFF"/>
	<path name="成都市" fill="#D3D3D3" id="path14" d="M636,467.5c-2.4-2.4-6.6-2.4-5.5-5.5s1.6-3.5,0-5.2   c-1.6-1.7-7.2-7.2-8.8-10.5c-1.6-3.5-4.7-3.6-6.7-5.2c-2.1-1.6-6.9-1.6-6.9-4.7c0-3.1-3.6-6.7-6.7-4.1c-3.5,2.6-6.2,4.7-10,4.3   c-4.1-0.3-6.9,0-7.6-3.5c-0.5-3.5-2.1-5.7-4.3-5.7s-2.1-8.6-1-10.4c1-1.9,0.9-6-2.1-8.6c-2.6-2.6-5-6.7-3.5-8.6   c1.6-2.1,1.4-4.1-0.2-5.2c-1.6-1-1-2.1-3.1-1c-1.6,0.7-4-1.6-4.7-2.4c-1.6,2.4-3.6,4.1-5.5,4.7c-4.1,1.4-8.1,3.5-8.8,8.3   c-1,4.7-1.6,14.3-4.5,20.2c-2.8,5.7-2.2,12.9-10.9,19c-8.6,5.9-10.9,1-10.9,1s-6-1-9.3,1.6c-2.2,1.6-3.6,1.4-5.3,1.6   c1.6,1,8.6,5.5,7.9,9.3c-0.7,4.7-2.1,6.9,0.9,7.9c2.6,1,6.6,6.2,2.4,8.8c-4.1,2.8-5,4.7-4.1,7.4c1,2.9,0.9,6-1.6,6.2   c-2.4,0.2-2.8,3.6-2.1,6.7c1,2.9,2.8,6,5.9,2.6c3.1-3.5,4.7-4,5.2-1c0.5,2.8,2.6,1.4,4.1-0.9c1.6-2.2,2.9,0,6.2,0   c3.5,0,2.9,2.2,2.9,4.8c-0.3,2.4-0.3,5.5-0.3,6.2c1-0.2,2.9,0.9,3.6-0.2c1-1.4,2.8-4,5.2-3.5s2.4,1,4.1-1.6c1.6-2.6,4.7-4,7.6-7.4   c2.8-3.6,10.2-11.9,12.8-10.2c2.2,1.6,6.2-2.8,6.2-0.7c0,2.1,4.3,8.8,7.4,5.9c3.1-2.8,1-4.1,2.4-6.9c1.6-2.8,4.1-11.2,6.7-10.2   c2.6,1,2.1,3.5,5,0.9c2.8-2.2,3.6-4.1,3.6-6.7s-4.1-3.6-1.6-3.6c2.9-0.2,2.2,1.6,6.6-0.5c4.3-2.1,6.2-2.9,10.9,0.3   c4.7,3.3,6.6,8.5,10.2,8.5C631.3,470.2,638.6,469.5,636,467.5z" stroke-miterlimit="10" stroke="#FFFFFF"/>
	<path name="阿坝藏族羌族自治州" fill="#D3D3D3" id="path15" d="M481.3,442.3c3.6-0.3,3.5-1.6,3.6-4.1c0.2-2.6,7.9-2.9,11.9-2.9   c4-0.2,2.4,10.4,2.4,13.5c0,2.8,4,2.6,7.8,0.2c4-2.2,5-0.2,8.3-2.8c3.6-2.4,9.3-1.6,9.3-1.6s2.2,5,10.9-1c8.6-6,7.9-13.3,10.9-19   s3.6-15.2,4.5-20.2c1-4.7,4.8-6.7,8.8-7.9c4.1-1.4,8.3-9.8,10.7-14.5c2.2-4.7,7.2-8.8,7.2-8.8l0,0c0-0.3,1-1.4,4.1-2.9   c6.7-3.3,1.6-8.5,0.2-9.3c-1.6-0.9-3.1-1-2.8-2.4c0.2-1.6-2.9-3.3-3.6-6.6c-0.7-3.1-6.6-4-11.2-4.1c-4.7-0.3-1.6-7.1-0.7-8.6   c1-1.7,4-6.2,4.1-8.8c0.3-2.6,4.7,0,8.8,1.6c4.1,1.6,6.7-3.1,8.8-4.8c2.1-2.1,2.4-2.9,0.9-5.7c-1.6-2.8-3.6,0.3-5,1.6   c-1,1.7-2.6,0.5-2.6-1c0.3-1.6-2.8-4.3-5.3-5.7c-2.6-1.4-2.8-6.7-2.8-9.3s-0.3-8.3-2.4-12.4c-2.1-4.1,2.8-5,4.1-5.3   c1.6-0.5,4.1-1.4,3.6,1c-0.2,2.4,2.4,4.7,3.6,9.3c1.6,4.7,3.6,2.1,4.1-4c0.5-6-2.4-9.8-3.5-11.2c-1-1.4-0.7-1.6,0.3-2.8   c1-1.2-0.5-4.7-1.4-7.6c-1-2.8-1-1-3.5,0c-2.4,0.9-1.7-2.2-2.4-4.8c-0.5-2.6-1-2.9,0-7.6c1-4.7,2.4-5,4.7-4   c2.4,0.7,4.1,3.6,6.2,7.6c1.6,3.1,4.1,2.6,5.3,2.1c-0.2-1.6,0.3-3.1,1.6-4c2.6-1.4,4.1-1.4,6-5c1.7-3.6-0.5-5.2-2.4-4.8   c-1.6,0.2-2.4-0.3-0.2-3.6c1.7-3.3-1-9.1-2.1-13.5c-1-4.3,2.6-5.7,4.1-5.7c1.6,0,3.6,0.9,3.1-2.1c-0.3-3.1-4.7-0.5-7.1,0.9   c-2.2,1.4-3.3-0.5-3.6-2.8c-0.3-2.1-1.6-3.6-4.1-7.6c-2.6-3.6-2.2-8.3-2.8-12.1c-0.9-4.1-5.2-5.5-6.7-7.1c-1.6-1.7-14.3-1-17.1-1.4   c-2.9,0-6.7-1-8.3-3.5s-2.2-1-3.3,0.9c-1,1.9-1,2.1-3.6,1.7c-2.8-0.5-0.9-4.7,0.9-7.2c1.7-2.6-0.3-5-2.2-5c-2.1,0-5,3.1-7.6,5.5   c-2.6,2.4-9.3-2.1-12.4-4c-3.1-2.1-5.3-2.2-4.7-6c0.7-3.6-0.5-3.6-2.6-6.2c-2.1-2.6-1-5.2,1-5.2c2.1,0,2.9-0.7,1.6-3.1   c-1.4-2.1,0.2-2.9-0.9-6.6c-1-3.6-3.1-6-6.2-6c-3.1,0-4.1,0-4.1-3.1s-1.6-4.5-2.9-6.7c-1.6-2.1-4.8-0.7-6.9,1.4   c-2.1,2.1-3.5,1.9-6,0.7c-2.6-1-5.2,3.6-7.9,6c-2.9,2.2-4.7,2.8-4.7,6.9c0,4.1-6.2,4-10.2,4c-3.6-0.2-3.6,1.9-4.8,4   c-1.4,2.1-2.9,3.6-5.5,3.1c-2.8-0.5-4.1,1.6-6.7,2.2c-2.8,0.9-0.2,6,1.4,9.3c1.6,3.3,0.2,5.9,1.6,6.7c1.6,0.9,2.9,1.7,2.6,3.6   c-0.2,1.9,0.5,2.1,1.6,2.1c1,0,0.5,0.9,1.7,4.7c1.2,3.8,2.4,4.8,6.6,6.6c4.1,1.6,1.6,10.5,1.6,12.4c0,1.9-5,6-7.2,4.7   c-2.2-1.6-3.6-0.2-7.2,0.7c-3.6,1-2.8,3.1-2.8,9.3c0,6.2-4.1,3.6-6.2,1.7c-2.1-2.1-2.6,1.4-3.1,5.2c-0.5,3.6-2.9,2.1-6,1.4   c-2.8-0.9-6.6,1.4-8.6,5.3c-2.1,4.1-3.6-0.2-3.6-2.4c0-2.1-0.3-4.8-1.7-6.9c-1.6-2.1-0.3-4.1,1.7-6c2.2-2.1,4.1-2.6,5.2-8.5   c1-5.9-1-10.5-1.7-13.5c-1-2.6-3.6-4-5.5-4.3c-2.1-0.5-1.4,5.3-1.4,10.2c0,4.7-1.7,4.7-5.3,5.9c-3.6,1.2-2.9,3.1-3.6,6.2   c-0.9,3.1,1,4.5,3.6,5.9c2.8,1.6,2.2,4.7,0,5.5c-2.4,1-2.4,0.5-4.1,6.9c-2.1,6.7-4.8,0-6.9-2.8c-2.1-3.1-4.7-5-7.6-5   c-2.8,0-3.6,1.9-4.1,3.5c-0.5,1.7-0.9,1.7-2.8-0.5c-2.4-2.4-5.5,0-11.2,1.4c-5.5,1.4-2.9,2.8-4.7,7.8c-1.7,4.7-1.4,6.6-1.4,10.5   c0,4.1,3.6,5.7,7.2,9.1c3.6,3.6-1.4,12.4-3.1,16c-1.9,3.6-4.1,2.1-7.8,0.2c-3.6-2.1-4.7,0.5-6.7,3.5c-2.1,2.8-4.7,2.1-6.9-0.3   c-2.6-2.1-10.2-3.3-12.4-4.1c-2.4-0.7,0.3,3.5-1.6,4.1c-1.6,0.9-2.6,2.1-2.6,5.5s-2.8,7.9-5.9,11.4c-1.6,1.9-3.1,2.4-4.7,2.4   c0.9,3.5,2.4,11,3.6,12.8c1.7,2.1,1,3.5,4.7,3.6c3.6,0.3,5.2-1.6,5,2.6c-0.3,4.1-1.4,4.8,1.6,7.2c2.9,2.1,3.5,2.4,5.2,6.7   c1.9,4.3,0.9,5.2,4,5.2s7.6-5,8.3,1.7c0.7,6.7-1.6,10.7-4.1,11.9c-2.2,1.4-6,4.8-3.6,5.5c2.4,0.5,3.6-0.3,5.2,3.1   c1.6,3.5,6.7,7.1,7.4,10.9c0.9,4,1.4,9.8,4,9.3s8.6-6.2,9.8-1.7c1.4,4.8-0.9,8.8,3.1,9.8c3.6,1.4,4,0.7,6.7,2.1   c2.8,1.6,4.8,0.9,7.8-0.2c2.8-1,2.8-0.9,5.9,0c3.1,0.7,5.7-2.9,7.8,1.6c2.1,4.5,6.2,5,9.3,5.5s5.3,1.6,5.3,4.1   c0.3,2.9-2.1,8.1,3.6,8.3c5.7,0.3,6.2-0.3,6.7,2.9c0.5,3.3,2.4,4.3,5,1.7c2.2-2.2,5.7-5.9,5.7,0.3c0,6,3.1,6-0.2,11.2   c-3.6,4.8-6,6.7-6.2,10.5c-0.2,3.6-0.9,7.9-2.1,10.2c-1.6,2.2-1,4.8,0.9,4.8c2.1,0,1.7,0.9,6,2.9c4.1,2.2,6.7,2.2,10-0.3   c3.6-2.9,5-8.8,8.6-6c2.4,2.1,4.1,1.7,4.7,3.1C469.1,447.3,478.1,442.4,481.3,442.3z" stroke-miterlimit="10" stroke="#FFFFFF"/>
	<path name="凉山彝族自治州" fill="#D3D3D3" id="path16" d="M561.6,649.9c-3.6,4.1-2.2-3.6-2.1-7.2c0.2-3.6-2.9-0.2-5.5-1.6   c-2.8-1.4-4.1-6-5.3-5.5c-1.6,0.3-6,6.2-6,8.8c0,2.8-1.4,5-5.7,6.7c-4.3,1.7-9.3-1.4-10.7-4c-1.4-2.4-0.2-8.8,1.7-11.2   c2.1-2.4,4.5-6.7,4.1-11.9c-0.3-5.2-4.7-4.7-6.7-3.5c-2.2,1.4-4,0.3-6.2-1.6c-2.2-1.9-2.2,4.1-2.2,7.6c-0.3,3.6-7.6,2.6-9.7,0   c-2.1-2.6-2.8-5.5-2.2-8.8c0.2-3.1-1-6.6-1-8.6s-0.2-4.3-1.6-6.2s-0.5-3.6,2.2-5c2.9-1,2.9-3.6,1-6.2c-1.9-2.6-1.6-5,0.9-6.9   c2.1-2.1-0.5-5-0.5-7.6c0-2.6,0.9-2.4-1-1.6c-1.9,0.7-2.9,4.8-4.7,7.2c-1.6,2.4-3.6-2.1-6.2-2.1c-2.2,0.2-2.1,3.6-2.1,5.9   c0,2.2-6.7,1-8.1-0.5c-1.4-1.6-2.2-2.6-4.8-1c-2.4,1.6-8.1,13.8-8.1,17.1c-0.2,3.6-1.4,6.2-3.6,9.5c-2.4,3.5-7.2,3.6-8.1,1.6   c-0.7-2.1-2.8-2.4-4.8-3.6c-1.6-1.4-3.6-4.7-5-6.7c-1-1.7-3.6-4.1-4.8-5.2c-0.5,2.2-1.4,3.6-3.6,5.3c-2.8,2.4-9.5,9.7-7.8,14   c1.6,4.3,0.9,7.9-2.1,10.9c-2.6,2.9-4.7,4.7-4.7,7.4s-2.4,2.9-4,2.9c-1.6,0-6,2.1-6.2,6c-0.2,3.8-1.4,10.4-4.3,12.4   c-3.1,2.1-6.9,0.7-9.8,2.6c-2.8,1.7-6.2,2.6-7.8-1.4c-1.6-4.1-3.1-8.3-4.1-10.7c-1-2.4-1.4-5.2,1-4c2.4,1.4,4.1,2.1,7.2,4.1   c3.1,2.1,6.9,1,6-2.1c-1-3.1-0.9-6.6-3.1-6.7c-2.4-0.2-5,0.2-6-1.4c-1-1.6-2.4-2.6-3.6-2.6c-1.6,0-6.2-0.5-7.8-2.1   c-1.6-1.6-8.8,0.3-8.8-1.6c0-2.1,0-5.7-1.6-8.1c-1.6-2.4-1-3.1-1-6c0-2.8,1.4-7.4-0.5-10.4c-1.7-2.8-1.6-7.4-2.6-10   c-1-2.6-4.7-10-5.7-8.8c-1,1.4-7.9,7.9-9.8,6.9c-1.6-1-1.6-5.7-4.3-5.7s-11.9,2.2-7.9,4.8c3.6,2.2,3.3,8.8-0.3,6.2   c-3.6-2.6-8.8-0.2-10,2.1c-1.6,2.4-10.7,1.4-6.6,6.2c4.1,4.8,1.6,14.7-1,15.2c-2.8,0.3-5.7,2.4-4.7,5c1,2.2,4.7,8.8,0.3,14.5   c-4.3,5.7-4.3,7.9-5.5,12.8c-1,5-4.1,12.8-3.3,19c0.7,6.6,4.8,13.1-0.2,11.9c-5-1-7.1,0-8.6,1.4c-1.6,1.4-3.1,2.1-5.2-0.2   c-2.1-2.1-7.2-5.5-8.8-6c1,1.9,2.1,3.5,2.4,4c1.7,1.9,5,5.5,5.2,8.6c0.2,2.8,4.3,4.3,7.2,5.2c3.1,0.7,1.7,1.6,1.6,4   c-0.2,2.2,0.2,4.3,0.5,6.6c0.5,2.2,4.1,0.7,6-0.3c1.7-1,2.6-5.7,4-7.8c1.4-2.1,4.8-0.7,5.7,2.6c1,3.3,2.4,1.4,4.1,0   c1.6-1.4,1.4-4.8,2.9-6.7c1.6-1.7,3.5-0.2,4.8,1.9c1.6,2.1,4.7,8.8,5.7,11.9c1,2.8,4.3,7.2,6.2,8.8c1.6,1.6,4,4,4,7.2   c0,3.5,1.6,7.2,3.6,9.1c1.6,2.1,4.7,6,4.7,8.6c0,2.6,0.5,2.8,2.2,4.3c1.6,1.6,1.7,4.7,1.7,6.6c0,2.1,3.6,2.4,7.6,2.1   c1.6-0.3,2.1,1.6,2.1,3.6c2.4-1.6,11.2-3.3,14-2.9c2.8,0.9,2.8,0.9,4.3-0.7c1.6-1.4,11.2-9.1,13.3-11.2c2.2-2.1,4.8,8.8,6.7,12.9   c1.7,4.1,6.2,6,10.4,6.2c4.1,0.2,5.2-5.3,6.6-7.9c1.4-2.6,1,2.2,2.1,5.2c1,2.8,6-0.9,9.3,0c3.3,0.7,4.3,0.5,5.3-2.1   c1-2.2,6.6,1.4,9.1,5.2c2.4,3.6,0.9,11.9,0,16.9c-0.9,4.7-4.3,20.2-5.7,23.3c-1.4,3.1-5.7,1-8.1-0.7c-2.4-1.7-2.2,0.7-1.6,6.2   c0.9,5.7-3.5,10-5.5,11.4c-2.2,1.4-2.8,1.9-1,4.5c1.7,2.6-0.5,5.3-0.9,10.9c-0.3,5.5-4.7,9.1-6,11.2c-1,1.6-1,4.7-0.9,5.9   c2.1,0.5,4.7,0,7.2-1.6c2.9-1.4,10.2,2.4,13.8,2.4c3.6,0,8.6-8.6,10.7-11.4c2.1-2.8,5.2-3.3,10-7.1c4.7-4,8.8-1.9,13.8-4.1   c4.7-2.2,3.6-1.6,6.2-1.4c2.6,0.3,1.4,4.5,1.4,10.2s6.2-1,8.1-3.3c1.9-2.2,4.1-3.6,6.9-5.9c2.9-2.4,4.1-2.1,6.7,0   c2.6,2.4,3.6-2.1,3.1-6.7c-0.3-4.7,2.2-6,4.1-7.8c1.9-1.9-2.1-7.8-1.6-14.3c0.2-6.6-2.9-12.4-4.1-14.3c-1.6-2.1-7.8-7.8-5.2-10.9   c2.6-2.8-1-5.3-1-7.9c0.2-2.6,1-9.7,1.7-14.5c1-5.2-0.3-11.7,1-14.3c1.4-2.6,3.6-2.9,5-1.4c1.4,1.7,3.5,0.2,8.6-1.6   c5.2-1.7,6.6-7.2,6.9-9.8c0.3-2.6,7.8-12.3,11.9-15.5c4.1-3.3,10.2-10.4,11.9-12.8c1.6-2.2,1-7.2,3.5-8.8c2.2-1.6-0.3-2.2-2.9-4.1   c-2.6-1.7-2.8-2.8-4.1-5.3c-1.6-2.4-2.4-7.1,1.7-7.8c4.1-0.7,6.6-5.9,9.3-7.8c2.9-2.1,5-0.2,7.1,1.9s5.9-4.7,10-7.1   c4.1-2.6-0.2-10.9-1.6-15.4c-0.5-1.4-0.9-3.3-1-5.3C566.8,642.3,565.4,645.6,561.6,649.9z" stroke-miterlimit="10" stroke="#FFFFFF"/>
	<path name="攀枝花市" fill="#D3D3D3" id="path17" d="M421.6,849.4c1.6-2.1,5.3-5.9,6-11c0.2-5.5,2.2-8.3,0.7-10.9   c-1.6-2.6-1-3.1,1-4.3c2.2-1.4,6.2-5.7,5.3-11.4c-0.7-5.7-0.7-7.8,1.6-6.2c2.4,1.6,6.7,4,7.9,0.9c1.4-3.1,5-18.5,5.7-23.3   c0.9-4.7,2.4-13.3,0-16.9c-2.2-3.6-7.9-7.6-9.1-5c-1,2.4-2.1,2.6-5.3,2.1c-3.5-0.7-7.9,2.9-9.3-0.3c-1-2.8-0.9-7.4-2.1-5.2   c-1.4,2.4-2.4,8.6-6.6,8.1c-4.1-0.3-8.6-2.1-10.4-6.2c-1.7-4.1-4.7-14.8-6.7-12.8c-2.2,2.1-11.4,9.3-13.1,11   c-1.6,1.4-1.6,1.4-4.5,0.7c-2.6-0.5-11.4,1.4-14,2.6c-0.3,2.6-1.4,5.9-1.7,7.8c-1,3.6,4.1,7.2,6,8.5c2.1,1.4,2.2,3.3,2.6,4.8   c0.2,1.6,3.6,3.6,7.9,4.5c4.7,0.7,1.7,3.3-0.2,6.6c-2.1,3.1,1.6,4.3,2.8,5.2c1.4,0.7,4-0.3,4.7-2.4c0.7-2.1,4.7-0.5,4.1,1.4   c-0.2,1.6-2.8,5.2-2.8,7.6c0.2,2.6-4.5,6.9-5,9.1c-0.5,2.1,1,4.3,5.5,5.2c4.1,1,10,9.3,12.6,11.7c2.4,2.2,1,5.9-1,5.9   c-2.4,0-1.7,1-1.6,4c0.2,2.9,5.5,2.6,7.6,2.6c2.2,0,0,3.1,4.1,6c4.1,2.8,3.1,5.2,5.2,5.9c0.3,0,0.3,0,0.3,0   C420.6,854.2,420.6,851.1,421.6,849.4z" stroke-miterlimit="10" stroke="#FFFFFF"/>
	<path name="甘孜藏族自治州" fill="#D3D3D3" id="path18" d="M302.2,688.5c1.7-1.6,3.5-2.6,8.6-1.6c4.8,1,1-5.7,0.2-11.9   s2.1-14.3,3.3-18.8c1-5,1-7.1,5.5-12.8c4.3-5.7,1-11.9-0.3-14.5c-1-2.4,1.6-4.3,4.7-5c2.9-0.2,5-10.5,1-15.2s4.8-4,6.6-6.2   c1.6-2.4,6.6-4.7,10-2.1c3.6,2.6,4.1-4,0.3-6.2c-3.6-2.2,5.2-4.8,7.9-4.8c2.9,0,2.6,4.7,4.3,5.7c1.6,1,8.8-5.7,9.8-6.9   c1-1.2,4.7,6.2,5.7,8.8c1,2.6,1,7.2,2.6,10.2c1.6,2.8,0.9,7.8,0.5,10.4c-0.3,2.8-0.5,3.6,1,6c1.6,2.2,1.6,5.9,1.6,7.9   s7.2,0.2,8.8,1.6c1.6,1.6,6.2,2.1,7.8,2.1c1.6,0,2.9,1,3.6,2.6c0.7,1.6,3.6,1,6,1.4c2.4,0.3,2.1,3.6,3.1,6.7c1,3.1-2.9,4.1-6,2.1   s-4.8-2.9-7.2-4.1c-2.2-1-2.1,1.6-1,4.1c1,2.2,2.2,6.6,4.1,10.7c1.6,4.1,5,3.3,7.8,1.6c2.9-1.9,6.7-0.7,9.8-2.6   c3.1-1.9,4.1-8.3,4.3-12.4c0.2-4.1,4.5-5.9,6.2-5.9c1.6,0,4,0,4-2.9s2.1-4.7,4.7-7.4c2.6-2.8,3.6-6.6,2.1-10.9   c-1.6-4.3,5-11.4,7.8-14c2.9-2.4,3.6-3.6,4.1-8.1c0.5-4.5-3.6-5.3-6-6.7c-2.4-1.4-2.1-1,0-6.2c2.1-5.2-2.4-5.2-6.2-6.9   c-4.1-1.6-1.4-5-0.2-8.8c1.2-3.8-1.4-4-1.6-6.9c-0.3-3.1,9.1,1.6,11.9,0.3s3.6-0.3,5.2,2.1c1.6,2.4,6-2.4,8.6-5.5   c2.6-3.1,2.2-4.8-0.3-6.6c-2.8-1.6,1.6-7.4,2.9-11.9c1-4.3,2.1-6.7-1-7.8c-3.1-1-1.6-8.5-2.8-19.5c-1-10.9,6.9-14.5,9.3-18.3   c2.4-3.6,0.9-8.3,0.9-14c0-5.3,0.9-14,2.1-18.8c1.6-5-0.9-3.5-4.1-6.2c-3.5-2.8-4.8,3.1-8.6,6c-3.6,2.9-6.2,2.6-10,0.3   c-4.1-2.4-4-2.9-6-2.9c-2.1,0-2.2-2.6-0.9-4.8c1.6-2.4,1.9-6.6,2.1-10.2c0.3-3.6,2.6-5.3,6.2-10.5c3.6-5.2,0.2-5,0.2-11.2   s-3.5-2.6-5.7-0.3c-2.2,2.4-4.1,1-4.8-1.7c-0.9-3.1-1-2.6-6.7-2.9c-5.7-0.3-3.6-5.7-3.6-8.3c-0.3-2.6-2.4-3.6-5.5-4.1   s-7.2-1.4-9.3-5.5c-2.1-4.1-4.7-0.7-7.8-1.6s-3.1-1-5.9,0c-2.9,1-5,1.7-7.8,0.2c-2.9-1.4-3.1-0.7-6.7-2.1s-1.7-5.2-3.1-9.8   c-1.4-4.7-6.9,1.4-9.8,1.7c-2.8,0.5-3.1-5.5-4-9.3c-0.7-4-6.2-7.4-7.4-10.9c-1.4-3.3-2.9-2.2-5.2-3.1c-2.4-0.9,1-4.1,3.6-5.5   c2.4-1.4,5-5.2,4.1-11.9c-0.9-6.7-5-1.7-8.3-1.7c-3.3,0-2.1-0.9-4-5.2c-1.7-4.5-2.2-4.7-5.2-6.7c-2.8-2.2-1.7-3.1-1.6-7.2   c0.2-4.1-1.6-2.2-5-2.6c-3.6-0.3-2.8-1.6-4.7-3.6c-1.6-1.6-3.1-9.3-3.6-12.8c-1.6-0.2-2.8-0.7-4.1-2.4c-2.6-2.8,1.4-7.2,3.3-11   c2.4-3.6,1-4.1-0.2-7.6c-1.4-3.6-5-7.9-5-7.9s-2.2-2.4-3.6-0.5c-1.6,1.9-5.7,1.4-8.6,0.5c-2.8-0.7-2.8,4.7-3.1,8.8   c-0.5,4.1-6.9-0.9-8.3-1.4c-1-0.5-2.8-6,0.9-5.7c3.6,0.3-0.9-10.4-3.6-15c-3.1-5-1.9-3.6-4.1-3.6c-2.6,0-3.5,2.1-4.1-1.9   c-0.7-4-2.1-2.6-3.6-6.2c-1.6-4-2.9,1-2.9,4.7c0,3.5-4.1,2.6-6.9,1.4c-3.1-1.4-1.7,3.5-0.5,5.7c1.6,2.1,2.1,4.1,0.9,5.3   c-1.2,1.2-0.5,1.4-0.9,7.1c-0.3,5.7-3.1-1.6-4.1-2.9c-0.9-1.4-10.5-1.7-12.8-4.3c-2.2-2.6-3.6-2.4-7.1-4.7c-3.1-2.2-6.9,0.9-11-0.5   c-4.1-1.4-4.7-8.8-5-11.4c-0.3-2.6-5.2-2.6-7.9-4.7c-2.8-2.1-7.2-0.9-9.3-2.6c-2.1-1.9-7.2-2.9-9.7-6.6c-2.4-3.5-3.6-12.8-4.7-16.9   c-0.9-4.1-1.9-4.1-1.9-7.8c0-4-2.4-5.5-4.5-6.6c-2.1-1-0.7-2.9-2.1-5.2c-1.4-2.2-1.6-3.5-0.7-4.8c0.7-1.6-1.9-6-4.1-8.1   c-2.2-2.1-4.1-3.5-4.8-6.9c-0.9-3.6-1.6-3.1-5.2-4.7c-3.6-1.6-5.5-1.4-8.3,0.5c-2.8,1.6-2.1-0.9-3.3-3.6c-1.6-2.8-7.1-4-14-4.1   c-7.2,0-12.3,5.2-18.6,6.6s-5.9,0.5-4.7-2.6c1.2-3.1,2.1-3.6-0.5-6.6c-2.4-3.1-4-3.1-5.7-1c-1.6,2.1-2.8,2.4-5.3,2.1   c-2.6-0.3-8.3,3.1-11,4c-2.9,1-4.1,3.3-3.1,5.9c1.4,2.6,1,14,1,14s0.5,2.1,0.7,5.2c0.5,3.1,1.4,4,3.1,3.5c1.7-0.3,3.3,2.1,4.1,4.8   c0.7,2.6,2.1,2.6,2.1,5.7s1.9,2.1,3.1,1c1.4-0.7,1.9-0.2,3.1,1.4c1.4,1.6,4,1.9,6.7,1.6c2.8-0.3,0,1.7-2.6,2.6   c-2.6,0.7-2.1,1-2.1,3.1c0,2.4-1.4,2.9-2.6,2.9s-2.1-0.3-2.6,2.1c-0.5,2.4-4.7,6.6-8.3,10.9c-3.6,4.1,1.4,9.5,1.9,11.9   c0.7,2.6-9.1,5-11.7,5.7c-2.6,0.7,0.7,6,1,12.3c0,5.9,3.3,7.2,5.7,10c2.1,2.9,12.4,11.9,16.4,12.4c4,0.9,32.6,17.1,33.8,17.9   c1,0.7,3.3,5.3,2.8,8.5c-0.9,3.5,5.3,11.2,7.2,13.5c2.1,2.2,4.7,8.1,5.7,11c1,3.1,1,2.9-1,5.5c-2.1,2.2-0.5,3.3,0.9,4.8   c1.4,1.6,11,15.9,13.6,20c2.6,4.1,14.5,16.2,17.4,19.7c3.1,3.5-4.5,7.4-5.7,9.3c-1,2.1-6.9-0.7-9.3-2.9s-2.4,0.3-1,3.1   c1,2.6-1.6,2.1-2.1,5.2c-0.5,3.5,5.9,7.6,7.2,9.8s3.1,7.2,4.7,9.8c1.7,2.2,1.6,5.2,1.6,8.6c0,3.3,4.1,5.3,5.7,7.9   c1.6,2.6,1.6,2.8,4.1,4.1c2.4,1.6,0.2,5.5-1.6,7.2c-2.1,2.1,0.7,6.2,0.7,8.6c0,2.4,0.5,11.2,2.1,14.7c1.6,3.6-0.2,15-0.5,18.1   c-0.3,3.1,3.1,9.3,5,15.4c2.1,6.2-2.8,26.1-3.6,30.5c-1,4.1,2.4,5.5,4,7.8c1.6,2.4-0.2,4.7-0.2,9.3s0.7,7.2,0.7,11.4   s1.6,8.3,3.5,12.4c1.9,4.1-0.9,17.6-1,19.2c-0.2,1.7-0.7,4.7,0.7,6.7c1.9,2.4-0.5,1.6-0.7,4.7c-0.5,3.5-0.5,7.2,1,9.3   c1.6,2.1-0.3,2.1-0.5,4.1c-0.5,2.4,1.6,7.6,3.5,9.3c2.1,2.1,2.1,2.9,1.6,5.5c-0.9,2.6-0.9,8.1-0.5,11.7c0.5,3.3,2.1,5.2,4.3,7.4   c2.2,2.4,2.4,2.4,3.1,5c0.9,2.4,3.1,8.3,5.5,7.8c2.2-0.5,2.1-13.1,2.1-17.6s-0.5-8.3-1.4-11.2c-0.7-2.8,6.2-4.8,9.1-6.2   c2.9-1.4,3.1-5.2,3.1-7.6c0-2.2,2.1-2.8,4.1-4.3c2.1-1.4,2.2-2.6,2.2-4.3c0-1.9,4.5-5,6.6-5.5c2.1-0.5,0.9,4.7,2.1,7.6   c1.2,2.9,4.3,5.2,6.9,7.4c2.6,2.4,0.9,4.1,0.9,5.7c0,1.6,1.7,1,3.5,1c1.6,0,5.7-1,5.7,1.4c0,2.4,0.2,2.6,1,5   c0.9,2.2,1.7,4.1,4.1,5.3c2.4,1.2,2.1,2.6,2.8,5.3c0.9,2.9,2.6,2.1,4.7,3.1c2.1,0.7,2.1,2.2,2.6,5.9c0.9,3.5-0.9,7.1-1.6,7.1   c-0.9,0-3.6,1-7.9,1.7c-2.8,0.9-0.5,6.6,2.1,10.7c1.6,0.7,7.1,4,8.8,5.9C299.5,690.6,300.7,689.9,302.2,688.5z" stroke-miterlimit="10" stroke="#FFFFFF"/>
	<path name="自贡市" fill="#D3D3D3" id="path19" d="M663.6,623c2.4,1.6,5.7,0.3,9.1-0.7c3.3-0.9,5-1.6,5.2-4.7   c0.2-2.8-0.2-3.1,2.4-4c2.6-0.9,3.1-2.1,3.1-4.1c0-1.9,1.4-3.6,2.1-2.1c0.7,1.4,0.2,6.6,2.1,4.7c2.1-1.9,1.6-7.6,4-7.8   c2.4-0.3,3.1-0.3,4,3.1c1,3.1,1.6,5.2,4.1,4.1s7.2-2.8,9.5,1.6c2.4,4.3,6,3.6,7.8,1.7c1.9-1.7-0.7-5-2.1-6.6   c-0.7-0.9-2.1-2.6-2.9-3.6c-1.6,1-2.9,1.6-3.6,1.6c-1.4,0-3.1-8.6-3.1-12.4c0-3.6-2.2-4.1-3.6-6.2c-1.4-2.4,0.9-6.9,1-10.4   c0.5-3.5-3.6,0-7.9,1.4c-4.7,1-4.1-1-7.8-0.9c-3.6,0.5-5.5,0.9-7.8,0c-2.4-0.9-4.7-9.1-4.7-12.9c0-3.6-1-4.8-4.8-4.8   c-3.8,0-5.2-2.9-5.2-6c0-3.1,1.4-5.5,4-6.2c2.6-0.7,5.2-5.2,5.9-7.8c0.2-0.7,0.7-1.6,1.6-2.1c0.3-1.4,0.5-4.5,0.5-9.1   c0-5.2-3.5-3.6-5.5-2.4c-2.1,1.4-4.8,1.4-6.7-0.2c-1.7-1.9-4.8-1.9-5.9-0.5s-3.6,1.4-4.5-1.6c-0.7-2.9-0.7-3.6-2.8-4   c-2.1-0.5-0.2-3.5-2.1-4.7c-1.9-1-5.7-0.3-6.2,1.6c-0.5,1.7-2.1,4.3-6.6,7.2c-4,3.1-6.2-2.6-8.6-5.9c-2.1-3.5-9.1-1.4-12.4,0.7   c-2.6,1.9-8.6-3.1-10.4-5.2c-0.3,1.6,0.3,2.9,1.4,4.5c2.1,2.8,2.1,7.9,2.1,11.7c0,3.6-2.1,4.8-4,4.1c-2.1-0.5-2.6-0.5-4.3,2.8   c-1.9,3.5-6.6,6-7.2,8.8c-0.3,0.9-0.5,1-1,1.6c1-0.2,3.5-0.7,5,1c2.1,2.1,2.1,3.5,3.6,1.6c1.6-1.7,3.6-2.1,4.7,1.4   s4.7,11.4,6.7,12.3c2.2,1,6.6-1.6,7.9,1.6c1.7,3.1,3.5,5.2,5.3,3.6c2.4-1.6-2.1-3.5,0.5-6c2.6-2.6,5.7-1.6,6.7-1.4   c1.4,0,5.5-1.6,8.6,0.5c3.1,2.1,4.7,0.9,5.9-0.7c1.4-1.6,3.3-3.1,4.7-1.4s-1.6,4.1-0.7,7.2c0.7,3.1,2.6,10.2,5.2,11.4   c2.1,1.4,9.8,4.3,7.9,9.1c-2.1,4.7-1.7,6-3.3,6.9c-1.9,0.9-0.9,3.5,1.7,3.5c2.6,0,4.7-0.9,4.5,3.5c-0.2,4.1,0.2,5.3-3.5,5.3   c-0.7,0-1.4,0-2.1,0c1.4,1.6,4.7,6.9,1.4,11.7c-2.4,3.1-2.1,5-1.6,6.2C661.3,623.3,662.2,621.6,663.6,623z" stroke-miterlimit="10" stroke="#FFFFFF"/>
	<path name="泸州市" fill="#D3D3D3" id="path20" d="M747.1,636.6c-0.7-2.6,0-6.2-1.6-10c-1.7-3.6-1-3.5-1.7-12.1   c-0.5-8.8-9.1-6.2-13.8-6.6c-4.1,0-5.5-1.9-8.1-6.7c-2.6-4.8-5.9-0.9-7.8,1.6c-0.7,0.7-1.6,1.6-2.2,2.2c0.9,1.4,2.1,2.9,2.9,3.6   c1.6,1.6,4,4.7,2.1,6.6c-1.7,1.9-5.3,2.6-7.8-1.7c-2.2-4.3-6.7-2.6-9.5-1.6c-2.6,1-3.1-1-4.1-4.1c-1-3.1-1.6-3.1-4-3.1   c-2.2,0.2-1.7,6-4,7.8c-2.1,1.7-1.4-3.5-2.1-4.7c-0.9-1.4-2.1,0.3-2.1,2.1s-0.5,3.1-3.1,4.1c-2.6,0.9-2.1,1-2.4,4   c-0.2,2.9-1.9,3.6-5.2,4.7c-3.3,0.9-6.7,2.4-9.1,0.9c-1.6-1-2.4,0.5-3.1,2.2c0.5,1,1.4,1.4,1.6,1.9c0.5,0.7,0,2.6-2.1,4.7   c-1.7,2.4-0.5,7.2,1.4,9.8c1.6,2.6-1.6,6,0.9,7.9c2.2,2.1,6.2,3.6,8.5,8.8c2.1,5.2,2.6,16.6-1.4,18.8c-3.6,2.1-8.5,6-9.8,6.7   c0.7,0.7,1.4,1.9,2.1,2.6c2.6,2.6,3.5,2.9,5.5,4c2.1,1,1,5.5-1.4,7.8c-2.2,2.1-1.9,3.3,0,5.5c2.1,2.2,2.9,1.4,3.1,5.7   c0,4.5,8.3,0.3,12.9,0c4.7-0.5,7.8,3.6,12.4,7.1c4.1,3.3,8.6-2.4,10.7-4c2.2-1.6,8.8-1.9,15.2-1.6c6.6,0,9.1-1,10.7-2.6   c1.7-1.6,12.6,0,14.7-1.9c2.1-1.6,1.4-14.5-1.4-18.6c-2.6-4-2.2-6.7-5.2-9.8c-3.1-3.1-5.2-4-7.2-4c-2.1,0-3.5,0.7-5.7,2.6   c-2.2,2.1-7.8,1-11.7,1s-3.1-4.5-2.9-8.3c0-4-3.3-4.7-4.7-7.2c-1.4-2.6-2.6-1-7.8,1c-5.2,2.2-4.7-2.9-4.7-6.7   c0-3.8-1.4-4.8-1.4-8.5c0-3.6,3.3-8.3,4-9.3c0.5-0.9,2.1-4.8,4.1-3.6c2.4,1.4,4.1,0.5,8.6-2.4c4.5-2.9,6.7-7.2,7.8-9.5   c1-2.4,4-2.1,4-0.3c0,1.6,4.3,5.2,5.9,7.8c1.9,2.4,2.9,3.5,6,3.5c3.1,0,6.6,4.3,8.5,7.6c2.1,3.3,5.7,5.9,6.7,3.6   C749.9,642.1,748,639,747.1,636.6z" stroke-miterlimit="10" stroke="#FFFFFF"/>
</g>
</svg>