<?xml version="1.0" encoding="UTF-8" standalone="no"?><!-- Generator: Adobe Illustrator 18.0.0, SVG Export Plug-In . SVG Version: 6.00 Build 0)  --><svg xmlns="http://www.w3.org/2000/svg" xmlns:xlink="http://www.w3.org/1999/xlink" contentScriptType="text/ecmascript" zoomAndPan="magnify" contentStyleType="text/css" id="图层_1" mapName="天津市" mapType="省市地图" enable-background="new 0 0 800 600" version="1.1" xml:space="preserve" preserveAspectRatio="xMidYMid meet" viewBox="0 0 800 600" x="0px" y="0px">
<g>
	<path name="宁河县" fill="#D3D3D3" id="path0" d="M568.69,335.92c-0.24,2.07-0.23,3.33,0,4.26   c-2.45,0.47-6.8,1.23-8.52,1.1c-2.45-0.17-7.35-2.27-12.43-7.87c-5.08-5.61-8.93-3.68-13.13-3.68c-4.21,0-4.38,0-8.06-3.33   c-3.67-3.32-4.2-0.52-7.88,0.35c-3.67,0.88-5.6,1.4-6.3,4.03s-4.73,5.25-5.43,7.88c-0.7,2.62-3.32,4.2-4.55,1.4   c-1.23-2.8-1.23-2.8-3.68-3.85c-2.45-1.05-10.15,1.92-16.81,5.6c-6.65,3.68,1.4,7.18,3.86,8.58c2.45,1.4,1.75,3.68,3.32,4.73   c1.58,1.05,0.18,3.85-3.32,8.05c-2.85,3.41-2.11,8.22-0.99,11.78c0.16,0.48,0.32,0.95,0.48,1.38c0.11,0.3,0.22,0.58,0.33,0.85   c1.4,3.5,1.55,3.26-2.8,3.26c-4.35,0-5.67-5.1-10.59-10.4s-7.57-0.94-11.54,0.19c-3.97,1.13,3.22,4.92,2.65,6.43   s-1.51,3.78-4.92,0.95c-1.58-1.32-4.03-1.62-7.12-1.7c-3.56-0.08-7.97,0.14-12.93-0.57c-9.27-1.33-10.78-5.11-14.56-11.35   c-3.79-6.24-10.41-2.27-15.89-1.7c-1,0.1-1.83,0.04-2.54-0.16c-3.2-0.88-3.87-4.4-5.41-7.03c-1.89-3.22-2.65-4.16-2.27-9.84   c0.38-5.67-7.75-8.13-12.67-13.43c-0.04-0.05-0.09-0.09-0.13-0.14c-2.82-3.11-2.54-5.17-0.58-7.32c1.31-1.45,3.4-2.94,5.82-4.83   c6.05-4.73,7.37-2.27,11.34,0c3.98,2.27,11.54-1.9,15.52-6.06c3.97-4.16,4.4-4.03,9.86-3.07c5.46,0.97,1.93-5.14-0.32-12.84   c-2.25-7.71-1.28-8.03,6.1-11.24c7.39-3.22,6.62-4.99,7.59-9.99c0.97-5,6.8-1.95,11.94-1.53s9.56-4.95,13.46-10.81   c3.91-5.86,6.01-4.21,11.87-4.81c4.63-0.48,7.28-3.12,8.2-4.21c-0.03,2.33-0.22,4.13,2.57,3.01c2.94-1.18,4.85-0.59,5.66-5.45   s1.84-13.54,3.89-13.03c2.06,0.52,6.27,0.53,8.63-0.36c2.36-0.88,5.22-1.47,7.58,0.2c2.37,1.67,3.94,3.64,7.09,3.45   c3.15-0.2,3.45-0.5,5.12-2.17c1.68-1.67,0.99-2.26,5.42-0.98c4.43,1.28,10.73,2.75,12.31,6.79c1.57,4.04-1.18,5.61-2.46,7.58   c-1.28,1.97-3.45,4.93-3.84,7.49c-0.4,2.56-2.11,9.33-4.12,13.98s-3.91,7.61-5.28,9.19c-1.38,1.59-0.32,6.13-0.64,7.92   c-0.31,1.8-0.63,14.37,0.32,13.1c0.95-1.26,2.43-3.8,6.45-4.01c4.01-0.21,16.69-0.21,18.27,3.7c1.59,3.91,1.06,6.76,4.44,7.82   c3.38,1.05,5.49,0.21,8.24,4.65c2.75,4.43,3.07,6.12,3.07,9.72C568.38,331.17,569.22,331.48,568.69,335.92z" stroke-miterlimit="10" stroke="#FFFFFF"/>
	<path name="蓟县" fill="#D3D3D3" id="path1" d="M511.11,112.9c-1.19,3.08-2.38,7.21-4.06,6.3   c-1.68-0.91-1.4-1.75-2.8-1.05c-1.4,0.7-1.12,2.31-4.56,1.26c-3.43-1.05-8.61-6.09-9.87-7c-1.26-0.91-4.41-4.77-6.52-2.87   c-2.1,1.89-7.63,5.39-10.01,5.74c-2.38,0.35-9.24,1.19-13.73-4.55c-4.48-5.75-5.88-5.82-8.26-5.54c-2.38,0.28-4.34,1.4-5.81,5.19   c-1.47,3.78-3.23,6.86-3.58,9.73c-0.35,2.87-1.96,8.9-3.01,10.51c-1.05,1.61-1.05,4.06-1.61,5.6c-0.56,1.54-1.82,5.46-1.19,6.72   s0.98,1.89,0.63,3.64c-0.35,1.76,0.49,3.58,1.47,4.42c0.98,0.84,1.68,0.63,2.03,3.01c0.35,2.38,1.96,3.57,2.73,6.3   c0.77,2.73,2.04,6.16,2.81,7.43c0.77,1.26,1.61,1.19,0.77,3.01c-0.84,1.82-0.75,2.44,0.08,2.06c0.82-0.37,2.54,0.23,1.12,1.13   c-1.43,0.9-1.95,1.12-2.93,4.35c-0.47,1.58-1.69,3.26-2.34,4.61c-5.15,1.76-9.24-1.1-14.7-4.82c-5.95-4.05-9.46,1.35-13.79,4.32   c-4.32,2.98-7.83,2.17-12.16-1.35c-4.32-3.51-10-9.19-15.13-10c-4.67-0.73-16.08-8.79-18.1-10.24c-0.06-0.11-0.13-0.22-0.21-0.36   c-0.77-1.19-1.19-1.26-0.14-2.45s0.42-3.43-0.56-4.2c-0.99-0.77-2.25-3.36-3.23-1.82c-0.98,1.54-1.89,2.66-4.48,1.96   c-2.59-0.7-4.06-3.57-6.51-3.43c-2.45,0.14-3.57,0.21-3.64-1.26c-0.07-1.47-0.91-0.84-1.47-0.7s-2.6,0.35-1.61-0.7   c0.98-1.06,2.03-1.97,0.21-1.83c-1.83,0.14-2.53,0.35-2.95-0.35s-0.84-0.28-1.33-0.28s-1.33-0.07-0.28-1.19   c1.05-1.12,1.33-3.15,0.28-3.99c-1.05-0.84-1.68-1.19-1.19-2.45c0.49-1.26,1.61-2.31-0.07-3.08c-1.68-0.77-3.15-2.66-3.29-3.36   c-0.14-0.7,0.28-0.84,1.61-1.05c1.33-0.21,2.24-0.98,1.61-1.68c-0.63-0.71-0.98-0.92-0.42-1.83c0.56-0.91,0.7,0.14,1.75-1.12   c1.05-1.26,1.4-0.56,1.96-2.52c0.56-1.96,2.67-5.74,4.21-7.07c1.54-1.33,4.06-3.85,4.41-6.23c0.35-2.39,0.7-10.02,0.63-11.63   c-0.07-1.61-0.77-10.23-0.14-11.98s1.33-2.38,2.87-2.31c1.54,0.07,3.78-0.28,3.5-2.59c-0.28-2.31-2.45-5.11-1.12-6.02   c1.33-0.91,3.64-3.01,4.62-4.69c0.98-1.69,2.17-4,4.49-4.07c2.31-0.07,7.07,2.03,10.15-1.47s5.18-5.81,8.82-6.3   c3.65-0.49,8.2-2.24,8.97-6.09c0.77-3.86,0.56-5.12,2.66-5.33c2.1-0.21,8.34,0.07,9.25-1.54c0.91-1.61-0.7-1.89-2.32-2.17   c-1.61-0.28-3.01-0.98-2.94-2.94c0.07-1.96,0.21-2.1,1.89-3.08c1.69-0.98,3.23-2.94,2.11-3.57s-3.51-2.87-3.23-4.14   c0.28-1.26,9.6-4.83,11.7-4.9c2.1-0.07,11.91,1.75,14.92,3.57s5.67,3.79,9.87,3.44c4.2-0.35,4.35-0.56,7.15,1.68   c2.8,2.24,4.76,3.92,3.92,6.93c-0.84,3.01,0.7,5.67,2.59,8.75c1.89,3.09,6.02,8.62,8.26,8.48s3.72-0.28,4.7,2.03   s3.71,4.97,5.95,5.88c2.24,0.91,5.6,2.31,3.43,4.42c-2.17,2.1-5.04,3.99,2.17,7.07c7.22,3.08,7.01,3.43,8.69,2.24   s3.78-2.87,4.34-1.19s-0.07,2.45,3.22,3.57s5.74,2.73,7.28,4.69c1.54,1.96,2.39,2.66-0.56,4.35c-2.94,1.68-6.3,3.5-5.88,5.95   c0.42,2.45,0.21,3.43,3.5,2.52c3.3-0.91,5.75-1.12,7.5-0.98c1.75,0.14,2.17,0.21,2.87,2.94c0.7,2.73,1.4,3.64,0.63,4.13   c-0.77,0.49-0.91,0.49,0.35,2.38C511.32,109.75,512.3,109.82,511.11,112.9z" stroke-miterlimit="10" stroke="#FFFFFF"/>
	<path name="静海县" fill="#D3D3D3" id="path2" d="M363.82,485.2c0,0.09-0.01,0.18-0.02,0.28   c-0.01,0.09-0.03,0.19-0.06,0.28c-0.02,0.07-0.04,0.14-0.07,0.21c-0.01,0.05-0.03,0.09-0.06,0.14v0.01   c-0.06,0.13-0.13,0.26-0.21,0.39c-0.07,0.09-0.14,0.19-0.21,0.29c-0.2,0.24-0.44,0.49-0.73,0.74c-4.23,3.62-9.25,11.06-9.25,14.48   c0,3.42-3.42,7.64-6.44,9.25c-3.02,1.61-14.88,7.64-14.88,11.26c0,3.62,1.2,5.43,3.21,8.25c2.01,2.81,3.82,6.23-0.4,8.65   c-4.22,2.41-1.88,5.51-0.86,6.33c1.02,0.82,5.41,6.84,3.47,9.7c-1.92,2.82-3.87,4.05-2.72,9.11c-0.94,0.74-1.6,1.38-1.96,1.83   c-1.39,1.74-5.47,6.88-9.64,2.7s-8.34-7.83-9.39-10.62c-1.04-2.79-4.15-6.62-3.48-11.11s0.6-9.71-1.87-10.78s-2.22-1.07-4.13-0.7   c-1.91,0.37-2.96,1.23-2.72-1.6c0.25-2.84-0.61-3.52-2.46-2.59c-1.85,0.92-8.75,2.98-11.87,3.14c-3.11,0.17-10.42,0-14.55-1.42   c-4.12-1.43-8.07-2.53-9.67-5.3c-1.6-2.78-2.35-4.8-3.11-6.56c-0.76-1.77-2.52-2.53-5.05-2.27c-2.52,0.25-8.41-0.09-10.09-1.01   c-1.68-0.93-4.71-0.51-6.05,0.33c-1.35,0.84-4.46,2.36-5.72-1.26c-1.26-3.61-4.71-13.79-5.05-14.46c-0.33-0.68,0.51-4.21,1.77-6.06   s1.09-5.38,1.09-7.32c0-1.93,1.01-5.38-1.18-6.89c-2.18-1.52-4.12-2.27-3.7-5.72c0.42-3.45-0.16-9.34-1.26-11.69   c-1.09-2.36-2.27-6.9-1.18-9.25c1.1-2.36,6.73-10.01,8.67-13.71c1.93-3.7,5.21-10.6,5.13-13.04c-0.09-2.44-0.26-5.47,1.26-5.38   c1.51,0.08,6.14-0.59,7.74-2.44c1.59-1.85,3.95-3.87,6.72-3.87c2.78,0,3.96-1.01,8.16-0.76c4.21,0.26,6.65,0.34,8.75-1.68   c0.61-0.59,1.26-1.02,1.88-1.39c4.4,0.89,17.09,3.38,20.04,2.9c3.59-0.57,35.7,21.08,41.44,27.53   c5.73,6.45,11.04,21.49,14.87,25.31c3.82,3.83,6.03,7.45,9.05,9.66c0.14,0.11,0.3,0.22,0.46,0.32c0.08,0.06,0.16,0.11,0.24,0.16   c0.17,0.12,0.34,0.23,0.52,0.34c0.18,0.11,0.36,0.22,0.54,0.33c0.27,0.17,0.56,0.35,0.84,0.52c0.18,0.12,0.36,0.23,0.53,0.34   c0.02,0.01,0.03,0.02,0.04,0.02c0.22,0.14,0.43,0.28,0.64,0.43c0.21,0.13,0.42,0.28,0.62,0.43c0.03,0.03,0.07,0.05,0.1,0.07   c0.17,0.13,0.33,0.26,0.49,0.39c0.16,0.13,0.31,0.26,0.45,0.39c0.15,0.14,0.28,0.27,0.41,0.41c0.12,0.14,0.24,0.28,0.34,0.42   c0.19,0.26,0.34,0.52,0.43,0.79c0.05,0.12,0.08,0.23,0.1,0.35C363.81,484.93,363.82,485.06,363.82,485.2z" stroke-miterlimit="10" stroke="#FFFFFF"/>
	<path name="汉沽区" fill="#D3D3D3" id="path3" d="M577.04,350.19c-0.42,3.16-0.32,7.81-0.64,9.4   c-0.31,1.58-10.49-1.61-21.62,2.57c-11.13,4.17-17.39,5.26-24.84,9.14c-7.46,3.88-16.87,7.4-22.66,16.35   c-0.48,0.74-0.95,1.44-1.41,2.1c-0.11,0.16-0.22,0.3-0.32,0.45l-4.02-2.75c-1.62,0.26-2.65,3.01-4.13,3.51   c-4.13,1.38-2.99-2.93-4.08-5.63c-1.29-3.2-0.65-0.74-2.99-2.31c-1.88-1.24-1.2-0.79-2-2.93c-0.19-0.52-0.27-1.22-0.39-1.92   l-2.69-1.84c-0.16-0.43-0.32-0.9-0.48-1.38c-1.12-3.56-1.86-8.37,0.99-11.78c3.5-4.2,4.9-7,3.32-8.05   c-1.57-1.05-0.87-3.33-3.32-4.73c-2.46-1.4-10.51-4.9-3.86-8.58c6.66-3.68,14.36-6.65,16.81-5.6c2.45,1.05,2.45,1.05,3.68,3.85   c1.23,2.8,3.85,1.22,4.55-1.4c0.7-2.63,4.73-5.25,5.43-7.88s2.63-3.15,6.3-4.03c3.68-0.87,4.21-3.67,7.88-0.35   c3.68,3.33,3.85,3.33,8.06,3.33c4.2,0,8.05-1.93,13.13,3.68c5.08,5.6,9.98,7.7,12.43,7.87c1.72,0.13,6.07-0.63,8.52-1.1   c0.27,1.07,0.85,1.71,1.69,2.61c1.59,1.69,2.85,3.38,4.23,3.8C575.98,347.02,577.46,347.02,577.04,350.19z" stroke-miterlimit="10" stroke="#FFFFFF"/>
	<path name="塘沽区" fill="#D3D3D3" id="path4" d="M491.32,393.96c0.17-1.93-1.05-6.49-3.51-5.61   c-2.45,0.88-5.96,4.38-3.33,6.84c2.63,2.46,4.73,0.35,5.09,4.21c0.35,3.86-0.36,4.91,2.1,7.19c2.46,2.28,3.16,2.46,2.46,5.44   c-0.71,2.98-0.71,4.38,0.7,5.26c1.4,0.88,0.5,1.5-0.85,2.77c-1.34,1.26-2.44,4.13-3.45,6.32c-1.01,2.2-2.02,3.46,1.18,4.56   c3.2,1.1,7.91,3.54,8.08,6.92c0.17,3.37,2.19,4.8-2.27,3.12c-4.46-1.69-5.31-0.42-7.91-2.45c-2.62-2.02-2.91-1.46-3.47-0.71   s-0.94,1.87-0.19,3.56c0.75,1.68,2.9,2.62,1.03,6.28c-1.87,3.65-4.21,8.43-6.37,9.27c-2.15,0.84-4.31,2.25-4.96,4.03   c-0.66,1.78-2.27,3.4-2.02,4.5c0.26,1.11-1.7,0.26-2.8,2.3c-1.11,2.04-11.9,15.89-10.97,17.17c0.94,1.27,2.13,1.1-0.17,1.44   c-2.29,0.34-6.46,3.91-4.42,5.36c2.04,1.44,2.3,2.63,1.02,2.46c-1.27-0.17-1.44,1.02-1.78,2.04c-0.34,1.02-1.01,5.2-1.98,6.62   c-0.47,0.68-0.93,1.51-1.38,2.44c-4.49,0.77-10.27,0.48-14.32,0.51c-0.84-7.54,0.04-15.19-1.09-22.66   c-0.6-4.02-0.34-8.4,0.01-12.41c0.33-3.77,1.73-3.51,5.06-4.92c2.94-1.24,5.63-2.8,7.69-5.3c1.25-1.51,5.21-6.63,3.25-7.97   c-0.96-0.67-2.04-0.59-3.07-0.39h-0.01c-2.01,0.39-3.83,1.24-4.17-2.08c-0.38-3.71,1.69-5.89,3.87-8.53   c-1.02-1.38-3.28-0.47-4.34-1.79c-0.62-0.77,0.11-2.47-0.77-3.32c-0.59-0.58-1.47-0.6-2.34-0.66c-0.01,0-0.01,0-0.01,0   c-0.91-0.05-1.78-0.15-2.2-1.02c-0.49-1.01,0.79-2.71,0.25-3.95c-0.85-1.97-1.93-1.09-1.47-3.81c0.21-1.21,0.75-2.31,1.25-3.47   c0.78-1.82,1.11-3.98,3.32-4.23c1.76-0.19,3.3,1.53,5.18,0.98c0.03-2.29,0.44-5.14,0.27-6.78c-0.01-0.1-0.69-1.44-0.77-2.03   c-0.14-1,0.67-2.27,0.46-3.22c-0.57-2.59-2.77-1.03-5.19-1.77c0.13-3.3-7.6,0.06-9.26-1.91c0.6-1.93,1.16-4.02,1.5-6.05   c0.32-1.9,0.1-6.94,1.75-8.2c3.06-2.34,5.96,3.03,9.22,1.4c3.14-1.58-0.23-2.27,0.31-4.46c0.53-2.21,4.32-0.72,5.23-2.96   c0.42-1.04-0.11-2.9-0.02-4.03c0.13-1.46,0.63-2.87,0.52-4.35c3.09,0.08,5.54,0.38,7.12,1.7c3.41,2.83,4.35,0.56,4.92-0.95   s-6.62-5.3-2.65-6.43c3.97-1.13,6.62-5.49,11.54-0.19s6.24,10.4,10.59,10.4c4.35,0,4.2,0.24,2.8-3.26   c-0.11-0.27-0.22-0.55-0.33-0.85l2.69,1.84c0.12,0.7,0.2,1.4,0.39,1.92c0.8,2.14,0.12,1.69,2,2.93c2.34,1.57,1.7-0.89,2.99,2.31   c1.09,2.7-0.05,7.01,4.08,5.63c1.48-0.5,2.51-3.25,4.13-3.51l4.02,2.75c-5,7.03-9.06,9.72-11.42,9.72   C491.49,399.92,491.14,395.89,491.32,393.96z" stroke-miterlimit="10" stroke="#FFFFFF"/>
	<path name="西青区" fill="#D3D3D3" id="path5" d="M388.67,487.76c-2.94,2.62,0.86,3.85-0.69,7.23   c-3.89-0.89-7.12-3.16-10.89-4.42c-4.48-1.51-9.04-2.9-13.48-4.45v-0.01c0.03-0.05,0.05-0.09,0.06-0.14   c0.03-0.07,0.05-0.14,0.07-0.21c0.03-0.09,0.05-0.19,0.06-0.28c0.01-0.1,0.02-0.19,0.02-0.28c0-0.14-0.01-0.27-0.04-0.4   c-0.02-0.12-0.05-0.23-0.1-0.35c-0.09-0.27-0.24-0.53-0.43-0.79c-0.1-0.14-0.22-0.28-0.34-0.42c-0.13-0.14-0.26-0.27-0.41-0.41   c-0.14-0.13-0.29-0.26-0.45-0.39c-0.16-0.13-0.32-0.26-0.49-0.39c-0.03-0.02-0.07-0.04-0.1-0.07c-0.2-0.15-0.41-0.3-0.62-0.43   c-0.21-0.15-0.42-0.29-0.64-0.43c-0.01,0-0.02-0.01-0.04-0.02c-0.17-0.11-0.35-0.22-0.53-0.34c-0.28-0.17-0.57-0.35-0.84-0.52   c-0.18-0.11-0.36-0.22-0.54-0.33c-0.18-0.11-0.35-0.22-0.52-0.34c-0.08-0.05-0.16-0.1-0.24-0.16c-0.16-0.1-0.32-0.21-0.46-0.32   c-3.02-2.21-5.23-5.83-9.05-9.66c-3.83-3.82-9.14-18.86-14.87-25.31c-5.74-6.45-37.85-28.1-41.44-27.53   c-2.95,0.48-15.64-2.01-20.04-2.9c1.49-0.9,2.79-1.39,2.91-2.64c0.17-1.77,1.01-6.31,2.69-10.69c1.69-4.37,3.12-8.41,4.46-11.43   c0.16-0.37,0.33-0.76,0.49-1.18c3.6,0.58,5.46-5.97,9.38-5.75c2.17,0.12,4.94,2.99,6.91,4.24c1.46,0.91,6.04,2.17,5.59,3.78   c3.64,1.54,8.36-3.14,11.65-4.2c1.88,4.11,14.49-7.27,17.31-1.63c0.08,0.15,0.15,0.32,0.21,0.5c1.72,5.02-7.91,8.23-5.04,12.08   c1.79,2.39,3.25,2.66,3.75,5.97c0.61,3.95,2.07,9.04,5.55,11.53c2.83,2.03,14.95,6.93,16.75,2.48c1.26,1.1,2.31,2.3,3.38,3.45   c1.65,1.75,3.34,3.37,5.88,4.24c1.91,0.66,5.96,0.88,6.53,3.01c0.23,0.84-0.87,2.13-0.79,3.05c0.12,1.36,0.72,1.7,1.52,2.75   c1.61,2.13,2.77,4.85,5.78,4.81c0.8,2.57,0.78,6.81-1.03,8.96c-1.43-1.06-2.09-2.39-4.04-2.7c-0.93,2.3-0.04,4.94-0.9,7.12   c-0.53,1.32-1.75,1.46-2.58,2.57c-1.26,1.68-0.44,0.96,0.07,2.47c0.8,2.37,1.08,5.26,1.88,7.77c0.95,2.96,2.01,2.95,4.8,3.75   c3.35,0.96,3.37,2.96,5.51,5.46c2.21,2.59,4.41,0.2,6.69,1.71c1.76,1.17,3.16,5.4,4.01,7.33c0.5,1.14,0.77,2.18,0.91,3.26   C390.73,486.34,389.6,486.93,388.67,487.76z" stroke-miterlimit="10" stroke="#FFFFFF"/>
	<path name="大港区" fill="#D3D3D3" id="path6" d="M449.75,508.63c-0.82,2.25-1.19,3.9-0.29,4.88   c0.89,0.97,1.79,1.72,0.45,2.02c-1.35,0.3-3.6,0.98-2.25,2.63c1.35,1.65-0.38,2.25-1.05,2.47c-0.67,0.23-0.22,4.13-0.67,6.46   c-0.45,2.32-0.73,6.38-2.88,7.28c-2.16,0.9-5.64,1.98-2.46,2.82c3.17,0.84,3.11,1.08,2.81,4.69c-0.3,3.6-0.5,13.08-0.27,14.66   c0.22,1.57-2.08,6.07-4.22,6.47c-2.14,0.39-3.1-1.47-3.66-2.54s-1.86-0.78-4.05-0.67c-2.2,0.11-13.16-0.8-17.59,0.33   c-4.43,1.14-6.17,1.57-8.78,4.18c-2.6,2.62-5.47,3.31-7.56,3.75c-2.08,0.43-9.03,2.43-13.9,3.13c-4.86,0.7-9.82,0.96-12.34,1.66   c-2.52,0.69-9.04,2.87-10.95,1.91c-1.91-0.96-2-2.78,0.26-4.88c2.26-2.08,6.17-6.96,3.65-8.7s-3.73-5.14-13.99-3.14   c-7.61,1.49-12.72,4.41-15.42,6.53c-1.15-5.06,0.8-6.29,2.72-9.11c1.94-2.86-2.45-8.88-3.47-9.7c-1.02-0.82-3.36-3.92,0.86-6.33   c4.22-2.42,2.41-5.84,0.4-8.65c-2.01-2.82-3.21-4.63-3.21-8.25c0-3.62,11.86-9.65,14.88-11.26c3.02-1.61,6.44-5.83,6.44-9.25   c0-3.42,5.02-10.86,9.25-14.48c0.29-0.25,0.53-0.5,0.73-0.74c0.07-0.1,0.14-0.2,0.21-0.29c0.08-0.13,0.15-0.26,0.21-0.39   c4.44,1.55,9,2.94,13.48,4.45c3.77,1.26,7,3.53,10.89,4.42c1.55-3.38-2.25-4.61,0.69-7.23c0.93-0.83,2.06-1.42,3.19-2   c0.9-0.46,1.81-0.92,2.63-1.48c2.55-1.76,4.14-4.39,6.3-6.54c1.31-1.3,7.71-6.49,9.24-5.52c1.1,0.69,2.01,5.56,2.97,6.97   c1.94,2.83,2.32,1.43,3.48-0.98c2.24-4.64,6.2-7.15,10.55-9.93c2.1-1.34,5.36-2.39,6.23-4.76c0.65-1.76-0.4-7.58-3.18-6.09   c0.39-1.82,2.44-4.86,4.42-5.42c1.88,2.01-0.02,3.15,3.01,2.23c2.48-0.74,2.35-1.64,4.62,0.25c2.14,1.79,3.09,2.66,5.46-0.2   c0.66-0.79,0.96-1.42,1.08-2.14h0.01c1.03-0.2,2.11-0.28,3.07,0.39c1.96,1.34-2,6.46-3.25,7.97c-2.06,2.5-4.75,4.06-7.69,5.3   c-3.33,1.41-4.73,1.15-5.06,4.92c-0.35,4.01-0.61,8.39-0.01,12.41c1.13,7.47,0.25,15.12,1.09,22.66c4.05-0.03,9.83,0.26,14.32-0.51   C450.66,506.31,450.19,507.45,449.75,508.63z" stroke-miterlimit="10" stroke="#FFFFFF"/>
	<path name="武清区" fill="#D3D3D3" id="path7" d="M384.56,310.71c-1.48-0.27-1.95-2.18-3.77-0.46   c-0.62,0.58-1.15,1.93-0.75,2.81c0.54,1.18,1.89,0.45,2.18,1.95c0.13,0.66-1.08,2.21-1.23,2.96c-0.66,3.41,0.71,4.87,3.29,6.4   c-1.96,2.15-2.24,4.21,0.58,7.32c-0.66-0.16-1.31-0.4-2.12-0.74c-3.99-1.69-7.39-3.15-11.46-4.49c-2.79-0.92-4.26-2.61-6.89-1.41   c-1.6,0.73-2.24,1.62-3.95,1.95c-3.14,0.61-7.19-3.75-8.91-2.71c-1.72,1.04-1.77,8.36-4.85,9.03c-3.6,0.79-5.64-3.46-6.93,2.19   c-1.04,4.54-3.27,6.19-8.06,5.07c-1.94-0.46-8.95-4.09-10.68-1.49c-0.51,0.76,0.75,2.03,0.49,2.96c-0.43,1.59-0.19,0.61-1.5,1.39   c-2.07,1.24-1.72,0.89-2.75,2.81c-1.04,1.95-1.63,2.56-3.73,2.01c-0.73-0.19-1.28-1.04-2.02-1.26c-0.58-0.18-1.42,0.24-1.95,0.08   c-1.52-0.45-3.36-2.42-5.32-0.84c-0.95,0.76-1.63,3.55-0.76,4.73c0.8,1.08,3.7,0.75,3.55,3.04c-0.14,2.07-2.55,1.46-3.47,2.48   c-1.11,1.21-0.52,2.57-2.05,3.78c-0.32,0.26-1.44,0.11-1.94,0.46c-0.65,0.46-0.77,1.2-1.3,1.76c-1.95,2.07-2.12,1.87-4.19,1.22   c-1.02-0.32-0.13-1.37-1.81-0.73c-1.08,0.41-1.04,1.13-1.45,2.06c-1.19,2.68,0.08,10.87-2.35,12.33c-1.07,0.64-2.84-0.7-4.47,0.31   c-0.94,0.58-1.52,1.42-1.86,2.41c-0.22-0.17-0.48-0.31-0.77-0.42c-3.37-1.26-5.98-2.35-9.26-1.85c-3.28,0.51-5.29,0.34-4.96-1.85   c0.34-2.18-1.09-6.05-2.27-8.15c-1.18-2.11-1.76-3.79,0.09-5.05c1.85-1.26,8.66-4.79,8.07-7.48c-0.59-2.7-4.46-7.49-4.88-12.54   c-0.42-5.04-1.93-10.68,1.09-12.11c3.03-1.43,5.13-4.12,4.55-6.3c-0.59-2.19-6.98-12.7-8.5-11.36c-1.51,1.35-3.7,6.73-6.14,6.73   s-4.12-3.2-3.61-5.64c0.5-2.43,0.5-7.23,4.87-13.62c4.38-6.39,4.97-7.65,2.86-8.83c-2.1-1.18-13.45-8.24-13.12-9.76   c0.34-1.51,5.81-21.86,5.97-23.46c0.17-1.6-2.43-2.69-5.04-3.7c-2.61-1.01-2.61-3.96-2.61-5.3c0-1.35-0.92-4.63,1.18-5.3   c2.1-0.67,0.67-4.62,0.67-6.05s2.1-6.23,4.37-7.15c2.28-0.93,4.38-4.21,4.29-5.89c-0.08-1.68-0.25-5.47,1.52-7.15   c1.76-1.68,3.61-6.14,8.74-6.22c5.13-0.09,9-0.59,7.41-2.44c-1.6-1.85-3.03-4.12-2.28-5.05c0.76-0.92,4.13-3.87,7.57-4.29   c3.45-0.42,9.68,0,7.66,2.02c-2.02,2.02-3.7,4.04-2.78,6.06c0.93,2.01,2.86,3.44,2.61,5.04s-0.34,6.56,0.92,6.73   c1.27,0.17,2.78-0.84,4.38,0.08c1.6,0.93,6.14,1.52,8.32,0.93c2.19-0.59,3.28-2.36,6.06-1.18c2.77,1.18,5.72,1.52,7.65,2.61   c1.94,1.09,6.65,3.7,11.69,5.47c4.91,1.71,7.12,1.84,10.01,0.84c-0.2,5.16,0,12.64,3.33,16.49c4.6,5.32,13.36,6.54,18.69,10.82   c1.75,1.41,0.86,1.27,1.56,3.24c0.8,2.21,1.41,1.87,3.2,2.44c2.4,0.75,5.43,2.1,6.9,4.76c-5.08,1.67-1.36,2.16-0.64,5.61   c0.45,2.11-1.67,4.89,0.43,6.45c4.28-4.61,8.31,5.52,9.26,8.98c1.7,6.18,5.22,11.53,6.63,17.76   C388.58,308.38,389.22,311.57,384.56,310.71z" stroke-miterlimit="10" stroke="#FFFFFF"/>
	<path name="北辰区" fill="#D3D3D3" id="path8" d="M405.34,362.13c-0.4,0.34-0.84,0.65-1.33,0.88   c-1.52,0.7-3.66,1.26-5.27,1.81c-6.59,2.27-12.32-4.58-18-6.07c0.24,2.3-0.39,5.09-0.98,7.28c-0.75,2.71-0.95,2.9-3.52,3.67   c-1.51,0.45-2.95,0.92-4.43,1.55c-3.28,1.39-6.38,1.83-8.77,4.75c-0.83,1.02-1.36,1.87-1.89,2.49c-0.95,1.12-1.91,1.5-4.59,0.79   c-1.03-0.27-0.97-0.84-2.13-0.79c-0.37,0.02-0.79,0.5-1.16,0.56c-1.6,0.3-1.79,0.32-3.27-0.09c-1.31-0.35-0.26-1.2-1.96-0.72   c-0.53,0.15-0.66,0.93-1.04,1.22c-0.92,0.7-1.53,1.52-2.75,1.54c-2.19,0.04-3.38-2.49-4.99-3.56c-1.69-1.11-1.42-1.43-3.05,0.08   c-1.54,1.4-2.98,4.51-3.19,6.67c-2.82-5.64-15.43,5.74-17.31,1.63c-3.29,1.06-8.01,5.74-11.65,4.2c0.45-1.61-4.13-2.87-5.59-3.78   c-1.97-1.25-4.74-4.12-6.91-4.24c-3.92-0.22-5.78,6.33-9.38,5.75c1.07-2.7,1.94-6.19-0.05-7.66c0.34-0.99,0.92-1.83,1.86-2.41   c1.63-1.01,3.4,0.33,4.47-0.31c2.43-1.46,1.16-9.65,2.35-12.33c0.41-0.93,0.37-1.65,1.45-2.06c1.68-0.64,0.79,0.41,1.81,0.73   c2.07,0.65,2.24,0.85,4.19-1.22c0.53-0.56,0.65-1.3,1.3-1.76c0.5-0.35,1.62-0.2,1.94-0.46c1.53-1.21,0.94-2.57,2.05-3.78   c0.92-1.02,3.33-0.41,3.47-2.48c0.15-2.29-2.75-1.96-3.55-3.04c-0.87-1.18-0.19-3.97,0.76-4.73c1.96-1.58,3.8,0.39,5.32,0.84   c0.53,0.16,1.37-0.26,1.95-0.08c0.74,0.22,1.29,1.07,2.02,1.26c2.1,0.55,2.69-0.06,3.73-2.01c1.03-1.92,0.68-1.57,2.75-2.81   c1.31-0.78,1.07,0.2,1.5-1.39c0.26-0.93-1-2.2-0.49-2.96c1.73-2.6,8.74,1.03,10.68,1.49c4.79,1.12,7.02-0.53,8.06-5.07   c1.29-5.65,3.33-1.4,6.93-2.19c3.08-0.67,3.13-7.99,4.85-9.03c1.72-1.04,5.77,3.32,8.91,2.71c1.71-0.33,2.35-1.22,3.95-1.95   c2.63-1.2,4.1,0.49,6.89,1.41c4.07,1.34,7.47,2.8,11.46,4.49c0.81,0.34,1.46,0.58,2.12,0.74c0.04,0.05,0.09,0.09,0.13,0.14   c4.92,5.3,13.05,7.76,12.67,13.43c-0.38,5.68,0.38,6.62,2.27,9.84C401.47,357.73,402.14,361.25,405.34,362.13z" stroke-miterlimit="10" stroke="#FFFFFF"/>
	<path name="宝坻区" fill="#D3D3D3" id="path9" d="M485.66,254.6v0.38c-0.92,1.09-3.57,3.73-8.2,4.21   c-5.86,0.6-7.96-1.05-11.87,4.81c-3.9,5.86-8.32,11.23-13.46,10.81s-10.97-3.47-11.94,1.53c-0.97,5-0.2,6.77-7.59,9.99   c-7.38,3.21-8.35,3.53-6.1,11.24c2.25,7.7,5.78,13.81,0.32,12.84c-5.46-0.96-5.89-1.09-9.86,3.07c-3.98,4.16-11.54,8.33-15.52,6.06   c-3.97-2.27-5.29-4.73-11.34,0c-2.42,1.89-4.51,3.38-5.82,4.83c-2.58-1.53-3.95-2.99-3.29-6.4c0.15-0.75,1.36-2.3,1.23-2.96   c-0.29-1.5-1.64-0.77-2.18-1.95c-0.4-0.88,0.13-2.23,0.75-2.81c1.82-1.72,2.29,0.19,3.77,0.46c4.66,0.86,4.02-2.33,3.26-5.7   c-1.41-6.23-4.93-11.58-6.63-17.76c-0.95-3.46-4.98-13.59-9.26-8.98c-2.1-1.56,0.02-4.34-0.43-6.45c-0.72-3.45-4.44-3.94,0.64-5.61   c-1.47-2.66-4.5-4.01-6.9-4.76c-1.79-0.57-2.4-0.23-3.2-2.44c-0.7-1.97,0.19-1.83-1.56-3.24c-5.33-4.28-14.09-5.5-18.69-10.82   c-3.33-3.85-3.53-11.33-3.33-16.49c0.08-0.03,0.17-0.06,0.25-0.09c3.03-1.09,7.07-2.52,7.07-6.98c0-4.45,0.25-9.84,0.42-12.11   c0.17-2.27,0.5-20.1,2.44-21.02c1.93-0.93,5.97-3.45,6.05-4.97c0.09-1.51-0.16-3.75-0.16-3.75s-3.59-5.58-5.45-6.78   c-1.86-1.19-3.59-3.12-4.18-5.18c-0.6-2.06-1.13-2.59,1.06-1.66s5.05,0.84,6.66-0.71c1.61-1.54,3.78-2.73,5.18-2.66   c1.4,0.07,2.66-0.21,3.85-1.26s1.19-1.26,4.2-0.35c2.68,0.81,3.2,0.73,2.74-0.13c2.02,1.45,13.43,9.51,18.1,10.24   c5.13,0.81,10.81,6.49,15.13,10c4.33,3.52,7.84,4.33,12.16,1.35c4.33-2.97,7.84-8.37,13.79-4.32c5.46,3.72,9.55,6.58,14.7,4.82   c-0.69,1.43-0.74,2.49,1.37,2.68c4.12,0.38,5.7,2.63,8.02,2.85c2.33,0.23,3.38,0.23,3.68,2.26c0.3,2.03,2.17,2.4,1.12,3.15   c-1.05,0.75-1.87-1.57-2.85-0.3c-0.97,1.28-0.37,1.35-1.12,2.33s-1.2,1.43,0.3,2.56c1.5,1.12,2.02,1.2,2.47,3.23   c0.45,2.02,0.9,1.87,2.63,1.8c1.72-0.08,3.97-1.13,5.24,0.45c1.28,1.58,1.8,1.73,3.38,1.58c1.57-0.15,2.77-0.08,2.47,1.8   s-0.07,2.55,0.98,2.93c1.05,0.37,1.2,0.82,1.2,2.03c0,1.2,0.82,0.6,0.9,2.1c0.07,1.5,2.54,0.22,2.47,3.38   c-0.07,3.16-0.22,1.95,0.15,3.38s0.53,4.06-1.35,4.28c-1.87,0.23-2.7-0.75-2.25,0.83c0.45,1.58,0.75,2.33-0.97,2.1   c-1.73-0.22-2.18-0.15-2.18,2.03s0.3,3.23-0.97,3.3c-1.28,0.08-1.8,0-1.88,1.28c-0.07,1.28-2.4,0.53-2.85,2.33   c-0.45,1.8,0.68,3.38,1.73,1.88c1.05-1.5,2.47-3.01,2.47-1.65c0,1.35,0.15,2.47,1.58,2.4c1.42-0.08,2.1-0.6,2.25,1.95   c0.15,2.56-0.9,3.98,1.35,3.98c2.24,0,3.37,0.08,4.49-2.55c1.13-2.63,1.35-3.02,3.63-0.96c2.28,2.06,7.86,7.51,4.78,6.85   c-3.09-0.67-4.41-0.52-4.34,0.95c0.07,1.48,1.25,1.26,2.57,1.62C484.26,252.1,485.66,252.1,485.66,254.6z" stroke-miterlimit="10" stroke="#FFFFFF"/>
	<path fill="#D3D3D3" id="path10" d="M453.5,504.75c-0.73,0.22-1.51,0.4-2.35,0.54" stroke-miterlimit="10" stroke="#FFFFFF"/>
	<path fill="#D3D3D3" id="path11" d="M451.26,375.91c0-0.05,0-0.1-0.01-0.16" stroke-miterlimit="10" stroke="#FFFFFF"/>
	<path fill="#D3D3D3" id="path12" d="M363.61,486.12c-0.12-0.04-0.24-0.08-0.36-0.12" stroke-miterlimit="10" stroke="#FFFFFF"/>
	<path name="津南区" fill="#D3D3D3" id="path13" d="M448.67,452.15c-0.12,0.72-0.42,1.35-1.08,2.14   c-2.37,2.86-3.32,1.99-5.46,0.2c-2.27-1.89-2.14-0.99-4.62-0.25c-3.03,0.92-1.13-0.22-3.01-2.23c-1.98,0.56-4.03,3.6-4.42,5.42   c2.78-1.49,3.83,4.33,3.18,6.09c-0.87,2.37-4.13,3.42-6.23,4.76c-4.35,2.78-8.31,5.29-10.55,9.93c-1.16,2.41-1.54,3.81-3.48,0.98   c-0.96-1.41-1.87-6.28-2.97-6.97c-1.53-0.97-7.93,4.22-9.24,5.52c-2.16,2.15-3.75,4.78-6.3,6.54c-0.82,0.56-1.73,1.02-2.63,1.48   c-0.14-1.08-0.41-2.12-0.91-3.26c-0.85-1.93-2.25-6.16-4.01-7.33c-2.28-1.51-4.48,0.88-6.69-1.71c-2.14-2.5-2.16-4.5-5.51-5.46   c-2.79-0.8-3.85-0.79-4.8-3.75c-0.8-2.51-1.08-5.4-1.88-7.77c-0.51-1.51-1.33-0.79-0.07-2.47c0.83-1.11,2.05-1.25,2.58-2.57   c0.86-2.18-0.03-4.82,0.9-7.12c1.95,0.31,2.61,1.64,4.04,2.7c1.81-2.15,1.83-6.39,1.03-8.96c-3.01,0.04-4.17-2.68-5.78-4.81   c-0.8-1.05-1.4-1.39-1.52-2.75c-0.08-0.92,1.02-2.21,0.79-3.05c-0.57-2.13-4.62-2.35-6.53-3.01c-2.54-0.87-4.23-2.49-5.88-4.24   c1.17-0.56,2.25-0.98,3.86-0.77c2.44,0.32,6.01,2.78,8.33,1.81c-0.07-0.46,0.19-1.06,0.15-1.43c1.27,0.29,3.65,1.01,4.76-0.09   c0.17-0.17,0.56-2.54,0.78-3.03c0.38-0.83,1.02-1.69,1.56-2.43c0.07-0.09,0.13-0.18,0.21-0.27c2.13,0.06,4.37,0.91,6.42,1.26   c3.02,0.5,3.57,1.21,5.57,3.44c1.69,1.91,3.44,2.77,6.06,3.12c1.61,0.22,4.81-0.51,6.12,0.27c1.58,0.93,1.52,3.91,2.62,5.19   c1.34,1.55,4.84,3.82,6.68,4.5c2.59,0.97,5.47,0.29,8.02-0.47c2.42-0.71,3.72-2.61,5.96-3.7c0.59,1.59-0.61,4.32,0.32,5.61   c0.9,1.25,3.14,0.71,4.29,0.48c2.2-0.45,3.64-0.96,4.88,1.87c0.53,1.19,0.14,2.7,0.59,3.83c2.25-0.35,4.15-2.09,6.11-3.62   c0,0,0,0,0.01,0c0.87,0.06,1.75,0.08,2.34,0.66c0.88,0.85,0.15,2.55,0.77,3.32c1.06,1.32,3.32,0.41,4.34,1.79   c-2.18,2.64-4.25,4.82-3.87,8.53C444.84,453.39,446.66,452.54,448.67,452.15z" stroke-miterlimit="10" stroke="#FFFFFF"/>
	<path name="东丽区" fill="#D3D3D3" id="path14" d="M450.76,384.29c-0.91,2.24-4.7,0.75-5.23,2.96   c-0.54,2.19,2.83,2.88-0.31,4.46c-3.26,1.63-6.16-3.74-9.22-1.4c-1.65,1.26-1.43,6.3-1.75,8.2c-0.34,2.03-0.9,4.12-1.5,6.05   c1.66,1.97,9.39-1.39,9.26,1.91c2.42,0.74,4.62-0.82,5.19,1.77c0.21,0.95-0.6,2.22-0.46,3.22c0.08,0.59,0.76,1.93,0.77,2.03   c0.17,1.64-0.24,4.49-0.27,6.78c-1.88,0.55-3.42-1.17-5.18-0.98c-2.21,0.25-2.54,2.41-3.32,4.23c-0.5,1.16-1.04,2.26-1.25,3.47   c-0.46,2.72,0.62,1.84,1.47,3.81c0.54,1.24-0.74,2.94-0.25,3.95c0.42,0.87,1.29,0.97,2.2,1.02c-1.96,1.53-3.86,3.27-6.11,3.62   c-0.45-1.13-0.06-2.64-0.59-3.83c-1.24-2.83-2.68-2.32-4.88-1.87c-1.15,0.23-3.39,0.77-4.29-0.48c-0.93-1.29,0.27-4.02-0.32-5.61   c-2.24,1.09-3.54,2.99-5.96,3.7c-2.55,0.76-5.43,1.44-8.02,0.47c-1.84-0.68-5.34-2.95-6.68-4.5c-1.1-1.28-1.04-4.26-2.62-5.19   c-1.31-0.78-4.51-0.05-6.12-0.27c-2.62-0.35-4.37-1.21-6.06-3.12c-2-2.23-2.55-2.94-5.57-3.44c-2.05-0.35-4.29-1.2-6.42-1.26   c2.23-2.93,5.38-4.49,6.66-8.11c-2.35,1.05-7.83,0.94-9.69-0.86c-1.01-0.99-2.08-3.91-2.49-5.28c-1.53-5.1,5.06-3.06,5.33-6.95   c-1.95-0.37-4.3-0.25-6.06-1.2c0.21-1.12,2.17-2.54,1.51-3.67c-0.71-1.2-3.4,0.1-4.53-0.39c0.32-3.09-2.05-3.67-3.54-5.82   c-0.8-1.16-2.24-2.1-3.31-3.22c0.53-0.62,1.06-1.47,1.89-2.49c2.39-2.92,5.49-3.36,8.77-4.75c1.48-0.63,2.92-1.1,4.43-1.55   c2.57-0.77,2.77-0.96,3.52-3.67c0.59-2.19,1.22-4.98,0.98-7.28c5.68,1.49,11.41,8.34,18,6.07c1.61-0.55,3.75-1.11,5.27-1.81   c0.49-0.23,0.93-0.54,1.33-0.88c0.71,0.2,1.54,0.26,2.54,0.16c5.48-0.57,12.1-4.54,15.89,1.7c3.78,6.24,5.29,10.02,14.56,11.35   c4.96,0.71,9.37,0.49,12.93,0.57c0.11,1.48-0.39,2.89-0.52,4.35C450.65,381.39,451.18,383.25,450.76,384.29z" stroke-miterlimit="10" stroke="#FFFFFF"/>
	<path name="河北区" fill="#D3D3D3" id="path15" d="M369.18,387.62c-0.59,0.31-1.18,0.57-1.78,0.61   c-0.77,0.05-1.88,0.02-2.41,0.68c-0.4,0.5-0.08,1.52-0.5,1.91c-0.36,0.34-0.58,0.05-1.01,0.1c-0.94,0.09-1.67,0.75-2.63,0.9   c-0.64,0.1-1.83,0.32-2.32-0.21c-0.25-0.27-0.1-0.79-0.34-1.09c-0.7,0.29-1.21,0.87-1.8,1.33c-0.66,0.52-2.54,1.3-2.66,2.24   c-0.11,0.84,2.71,1.83,1,2.65c-0.06,0.03-0.14,0.06-0.22,0.08c-0.66,0.2-1.77,0.16-2.24-0.17c-0.73-0.51-0.86-1.47-1.13-2.27   c-0.04-0.13-0.09-0.25-0.14-0.37c-0.42-0.94-0.3-2-0.41-3c-0.05-0.49-0.16-0.97-0.42-1.41c-0.63-1.09-1.68-2.46-2.73-3.09   c-0.86-0.5-2.21-0.86-1.76-1.9c0.21-0.48,0.86-0.95,1.14-1.43c0.62-1.06-0.18-1.97-1.17-2.64c0.46-0.3,0.86-0.71,1.35-1.08   c0.38-0.29,0.51-1.07,1.04-1.22c1.7-0.48,0.65,0.37,1.96,0.72c1.48,0.41,1.67,0.39,3.27,0.09c0.37-0.06,0.79-0.54,1.16-0.56   c1.16-0.05,1.1,0.52,2.13,0.79c2.68,0.71,3.64,0.33,4.59-0.79c1.07,1.12,2.51,2.06,3.31,3.22c1.49,2.15,3.86,2.73,3.54,5.82   C368.3,387.66,368.72,387.66,369.18,387.62z" stroke-miterlimit="10" stroke="#FFFFFF"/>
	<path name="红桥区" fill="#D3D3D3" id="path16" d="M350.59,391.01c-1.02-0.01-2.05-0.01-2.99,0.15   c-0.44,0.08-0.62,0.09-0.94,0.42c-0.78,0.82-0.38,1.44-1.77,1.59c-0.88,0.1-1.77-0.1-2.65,0.06c-0.67,0.11-1.31,0.49-1.99,0.57   c-2.03,0.25-1.81-1.41-2.86-2.61c-0.52,0.51-1.65,3.07-2.4,2.97c-0.59-0.07-0.93-1.68-1.09-2.24c-0.32-1.08-0.76-2.3-1.8-2.78   c1.03-1.35,1.7-2.8,1.13-4.45c-0.06-0.18-0.13-0.35-0.21-0.5c0.21-2.16,1.65-5.27,3.19-6.67c1.63-1.51,1.36-1.19,3.05-0.08   c1.61,1.07,2.8,3.6,4.99,3.56c0.57-0.01,1-0.19,1.4-0.46c0.99,0.67,1.79,1.58,1.17,2.64c-0.28,0.48-0.93,0.95-1.14,1.43   c-0.45,1.04,0.9,1.4,1.76,1.9c1.05,0.63,2.1,2,2.73,3.09C350.43,390.04,350.54,390.52,350.59,391.01z" stroke-miterlimit="10" stroke="#FFFFFF"/>
	<path name="南开区" fill="#D3D3D3" id="path17" d="M347.18,406.68c0.05,4.12,1.45,7.92,2.47,11.85   c-4.33-0.31-10.28-2.92-12.16-4.26c-3.48-2.49-4.94-7.58-5.55-11.53c-0.5-3.31-1.96-3.58-3.75-5.97c-1.93-2.59,1.78-4.88,3.91-7.63   c1.04,0.48,1.48,1.7,1.8,2.78c0.16,0.56,0.5,2.17,1.09,2.24c0.75,0.1,1.88-2.46,2.4-2.97c1.05,1.2,0.83,2.86,2.86,2.61   c0.68-0.08,1.32-0.46,1.99-0.57c0.88-0.16,1.77,0.04,2.65-0.06c1.39-0.15,0.99-0.77,1.77-1.59c0.32-0.33,0.5-0.34,0.94-0.42   c0.94-0.16,1.97-0.16,2.99-0.15c0.11,1-0.01,2.06,0.41,3c0.05,0.12,0.1,0.24,0.14,0.37c-1.1-0.06-2.2,0.01-3.29,0.18   c-0.79,0.13-1.29,0.03-1.42,0.78c-0.09,0.52,0.42,1.71,0.49,2.26c0.18,1.42,0.24,2.86,0.25,4.29c0.01,1.51,0,3.01,0,4.51   C347.17,406.49,347.17,406.59,347.18,406.68z" stroke-miterlimit="10" stroke="#FFFFFF"/>
	<path name="河东区" fill="#D3D3D3" id="path18" d="M383.93,405.88c-1.27,3.58-4.36,5.14-6.58,8.01   c-2.24-0.66-4.38-1.51-6.76-1.64c-1.69-0.1-3.28,0.47-4.85-0.35c-1.49-0.77-1.86-2-2.59-3.47c-0.67-1.35-1.45-3.23-2.5-4.34   c-0.49-0.52-1.19-0.75-1.74-1.19c-0.27-0.22-0.53-0.5-0.76-0.79c-0.4-0.5-0.75-1.07-1.08-1.55c-0.74-1.09-2-2.42-2.56-3.74   c0.08-0.02,0.16-0.05,0.22-0.08c1.71-0.82-1.11-1.81-1-2.65c0.12-0.94,2-1.72,2.66-2.24c0.59-0.46,1.1-1.04,1.8-1.33   c0.24,0.3,0.09,0.82,0.34,1.09c0.49,0.53,1.68,0.31,2.32,0.21c0.96-0.15,1.69-0.81,2.63-0.9c0.43-0.05,0.65,0.24,1.01-0.1   c0.42-0.39,0.1-1.41,0.5-1.91c0.53-0.66,1.64-0.63,2.41-0.68c0.6-0.04,1.19-0.3,1.78-0.61c1.25-0.12,2.83-0.58,3.35,0.3   c0.66,1.13-1.3,2.55-1.51,3.67c1.76,0.95,4.11,0.83,6.06,1.2c-0.27,3.89-6.86,1.85-5.33,6.95c0.41,1.37,1.48,4.29,2.49,5.28   C376.1,406.82,381.58,406.93,383.93,405.88z" stroke-miterlimit="10" stroke="#FFFFFF"/>
	<path name="河西区" fill="#D3D3D3" id="path19" d="M377.35,413.89c-0.03,0.03-0.05,0.07-0.08,0.1   c-0.08,0.09-0.14,0.18-0.21,0.27c-0.54,0.74-1.18,1.6-1.56,2.43c-0.22,0.49-0.61,2.86-0.78,3.03c-1.11,1.1-3.49,0.38-4.76,0.09   c0.04,0.37-0.22,0.97-0.15,1.43c-2.32,0.97-5.89-1.49-8.33-1.81c-1.61-0.21-2.69,0.21-3.86,0.77c-1.07-1.15-2.12-2.35-3.38-3.45   c-0.61,1.5-2.39,1.94-4.59,1.78c-1.02-3.93-2.42-7.73-2.47-11.85c0.97,0.34,1.95,0.73,2.9,0.68c0.8-0.04,1.26-0.6,1.84-1.18   c1.71-1.68,3.94-3.2,6.23-4.07c0.23,0.29,0.49,0.57,0.76,0.79c0.55,0.44,1.25,0.67,1.74,1.19c1.05,1.11,1.83,2.99,2.5,4.34   c0.73,1.47,1.1,2.7,2.59,3.47c1.57,0.82,3.16,0.25,4.85,0.35C372.97,412.38,375.11,413.23,377.35,413.89z" stroke-miterlimit="10" stroke="#FFFFFF"/>
	<path fill="#D3D3D3" id="path20" d="M333.02,384.19c-0.01,0.11-0.02,0.21-0.02,0.31" stroke-miterlimit="10" stroke="#FFFFFF"/>
	<path name="和平区" fill="#D3D3D3" id="path21" d="M358.15,402.11c-2.29,0.87-4.52,2.39-6.23,4.07   c-0.58,0.58-1.04,1.14-1.84,1.18c-0.95,0.05-1.93-0.34-2.9-0.68c-0.01-0.09-0.01-0.19-0.01-0.28c0-1.5,0.01-3,0-4.51   c-0.01-1.43-0.07-2.87-0.25-4.29c-0.07-0.55-0.58-1.74-0.49-2.26c0.13-0.75,0.63-0.65,1.42-0.78c1.09-0.17,2.19-0.24,3.29-0.18   c0.27,0.8,0.4,1.76,1.13,2.27c0.47,0.33,1.58,0.37,2.24,0.17c0.56,1.32,1.82,2.65,2.56,3.74   C357.4,401.04,357.75,401.61,358.15,402.11z" stroke-miterlimit="10" stroke="#FFFFFF"/>
	<path fill="#D3D3D3" id="path22" d="M378.67,414.25c-0.45-0.11-0.89-0.23-1.32-0.36" stroke-miterlimit="10" stroke="#FFFFFF"/>
</g>
<path fill="#D3D3D3" id="path23" d="M384.5,324.5c-0.07-0.04-0.15-0.09-0.22-0.13" stroke-miterlimit="10" stroke="#FF00C9"/>
<path fill="none" id="path24" d="M338.5,227.5c-0.01,0.31-0.03,0.63-0.04,0.96" stroke-miterlimit="10" stroke="#FF00C9"/>
</svg>