<?xml version="1.0" encoding="UTF-8" standalone="no"?><!-- Generator: Adobe Illustrator 18.0.0, SVG Export Plug-In . SVG Version: 6.00 Build 0)  --><svg xmlns="http://www.w3.org/2000/svg" xmlns:xlink="http://www.w3.org/1999/xlink" contentScriptType="text/ecmascript" zoomAndPan="magnify" contentStyleType="text/css" id="图层_1" mapName="宁夏回族自治区" mapType="省市地图" enable-background="new 0 0 800 600" version="1.1" xml:space="preserve" preserveAspectRatio="xMidYMid meet" viewBox="0 0 800 600" x="0px" y="0px">
<g>
	<path name="石嘴山市" fill="#D3D3D3" id="path0" d="M506.1,70.5c-1.3-3.4-4.5-5.5-7.6-5.5c-3.2,0-3.8-1.8-5.1-4.7   c-1.3-2.9-5.5-12.7-7-14.6c-1.4-2-1.4-2.9,0-5.3c1.4-2.4,0-7,0-9c0-2-0.9-3-2.8-4.9c-1.8-1.8-3.4-1.7-5.7-0.5   c-2.2,1.2-2.9,1.5-8.3,2.4c-5.4,0.9-8,3.8-12.2,9.1c-4.2,5.3-15.7,2.5-20.4,2.6c-4.7,0.1-2.9,13.6-2.9,13.6s-0.1,1.8-0.2,3.5   c-0.1,1.7-3,1.7-5.2,2.4c-2.2,0.7-6.8-2.3-8-2.5c-1.3-0.2-4.2,2.9-5.9,5.6c-1.7,2.7-2.1,13.4-2.1,15.6c0,2.2,1,3.5-2.4,3   c-3.4-0.5-7.3,7.8-8.6,9.5c-1,1.4-0.4,2.3,0.3,3.6c0.8-0.1,7.1-0.6,8.9,1.4c1.9,2.2,5.2,9,7.4,9.6c2.2,0.6,5.1,0.3,6.9-0.9   c1.8-1.2,2.6-1.7,4-0.5c1.4,1.2,4.9,2.2,6.3,3.7c1.4,1.5,2.8,2.9,3.9,0.6c1.1-2.3,0.3-4.8,2.6-4.8c2.3,0.1,2.3,2.3,2.6,3.9   c0.3,1.6,1,1.9,2.2,1.9s2.1,0.7,2,1.9c-0.1,1.2-1.8,2.2,2.3,3c4.1,0.8,5.8,1.1,6.7,2.2s1.6,1.8,2.6,0.6c1-1.2,5.7-2.3,5.3,1.1   c-0.3,3.4-2,4.5-2.3,5.9c-0.3,1.4-2.2,2.6-2.5,4.4c-0.3,1.8-2.3,2.8-1.5,5.2c0.8,2.4,0.8,2.1,2.6,3.6c1.8,1.6,2.3,4.3,1.4,5.8   c-0.9,1.5-1.7,2.5-2.7,4.6c-1,2.1,0,4.8-1.3,6c-1.3,1.2-2.9,3.1-4.4,3.5c-1.4,0.5-4.2,2.6-4.9,3.5c0.1,0,0.2,0,0.3,0.1   c1.3,0.6,3.1,3,4.6,3.6c1.4-3.4,11-9.8,13.3-11.4c2.9-1.9,5-10.5,7.5-16.3c2.5-5.8-0.2-10.9-0.3-15.5c-0.1-4.6,2.3-7,5.6-9.3   c3.2-2.2,6.9-9.4,11.7-16.7c4.8-7.3,9.4-8.6,11.6-12C506.7,80,507.4,73.9,506.1,70.5z" stroke-miterlimit="10" stroke="#FFFFFF"/>
	<path name="银川市" fill="#D3D3D3" id="path1" d="M455,157.2c1.5-0.5,3.1-2.3,4.4-3.5c1.3-1.2,0.3-4,1.3-6   c1-2.1,1.8-3.1,2.7-4.6c0.9-1.5,0.4-4.2-1.4-5.8c-1.8-1.6-1.8-1.2-2.6-3.6c-0.8-2.4,1.1-3.4,1.5-5.2c0.3-1.8,2.2-3,2.5-4.4   c0.3-1.4,2-2.6,2.3-5.9c0.3-3.4-4.4-2.3-5.3-1.1c-1,1.2-1.6,0.5-2.6-0.6s-2.7-1.4-6.7-2.2c-4.1-0.8-2.4-1.8-2.3-3   c0.1-1.2-0.8-1.9-2-1.9s-1.9-0.3-2.2-1.9c-0.3-1.6-0.3-3.8-2.6-3.9c-2.3-0.1-1.5,2.5-2.6,4.8c-1.1,2.3-2.5,0.9-3.9-0.6   c-1.4-1.5-4.9-2.6-6.3-3.7c-1.4-1.2-2.2-0.6-4,0.5c-1.8,1.2-4.7,1.5-6.9,0.9c-2.2-0.6-5.5-7.4-7.4-9.6c-1.8-2-8.1-1.5-8.9-1.4   c0.2,0.3,0.4,0.7,0.6,1c0.9,1.9-5,7.1-7.2,8c-2.2,1-1.7,3.8-1.6,5.7c0.1,1.9,0.8,4.4-0.6,5.3c-1.4,0.9-0.8,2.3-0.5,4.2   c0.3,2,0,2.4-1.7,3.9c-1.7,1.6-1.1,3.6-0.7,6c0.4,2.4,0.1,2.9-0.4,4.4c-0.5,1.5-0.4,4.1-0.3,6.4c0.1,2.3-2.4,6.9-2.6,8.6   c-0.2,1.8-1.5,2.6-1.7,4.8c-0.2,2.2,1.5,7.2,2.1,9.7c0.6,2.6,1.3,8.6,1.4,11.1c0,0.9-0.4,2.1-1.1,3.4c0.7-0.1,5.7-0.7,8.7,1.5   c3.2,2.4,10.2,5.6,11.9,6.8c1.7,1.3,1.7,0.6,3.5-0.9c1.7-1.5,1.6-2,3.2,0.7c1.6,2.7,3.1,2.8,5.6,3.7c2.4,0.9,6.9,4.4,8.3,1.9   c1.4-2.5,2.4-4.1,3.1-6.9c0.7-2.9,1.9-5,4.6-7.3c2.8-2.3,4.7-6.9,6.8-9.7c1.9-2.6,5-5.9,6.5-6C450.7,159.8,453.5,157.7,455,157.2z" stroke-miterlimit="10" stroke="#FFFFFF"/>
	<path name="吴忠市" fill="#D3D3D3" id="path2" d="M579.6,224.1c-1.2,0.5-3.6,0-5.8-1c-2.2-1-1.9-1.8-3.7-1.8   s-3.7-1.3-6.2-3.1c-2.5-1.8-3.6-1.3-6-2.3c-2.4-1-1.1-5.2-0.6-6.5c0.5-1.3-0.9-2.9-3-4.1c-2-1.2-5.1-4.8-6.3-7.2   c-1.2-2.4-4.6-2.7-8.5-3.2c-3.9-0.6-8-4-10.6-5.7s-4.3-0.8-5.8,0.1c-1.6,0.9-1.8,0.8-3.7,0.6c-1.9-0.2-1.3,0.6-2.5,2.2   c-1.2,1.7-2.5,1.8-4.7,1.7c-2.2-0.1-13.1-3.7-16.7-4c-3.5-0.3-6.9-1.9-10.4-4.5c-3.4-2.7-10.3-5.7-13-7.1   c-2.8-1.4-12.8-10-16.5-12.1c-0.7-0.4-0.8-1-0.5-1.8c-1.6-0.6-3.4-3-4.6-3.6c-1.3-0.6-4.7,3.1-6.8,5.9c-2.1,2.8-4.1,7.4-6.8,9.7   c-2.8,2.3-3.9,4.4-4.6,7.3c-0.7,2.9-1.7,4.4-3.1,6.9c-1.4,2.5-5.9-0.9-8.3-1.9c-2.4-0.9-3.9-1-5.6-3.7c-1.6-2.7-1.5-2.2-3.2-0.7   c-1.7,1.5-1.7,2.2-3.5,0.9c-1.7-1.3-8.7-4.4-11.9-6.8c-3-2.2-8-1.6-8.7-1.5c-1.3,2.4-3.5,5.5-6.3,8.4c-4.3,4.6-0.6,14.8,1.4,16.9   c2,2.1,2.7,5.5,3.8,7.6c1.1,2.1-1.3,5.6-2.5,7.3c-1.3,1.7-1.4,4.7-0.7,6.7c0.7,2-0.5,7.4-1.1,9.7c-0.6,2.3-1.1,3-3.2,3.4   c-2,0.4-8.7,3.8-12.8,3.8c-4.1,0-2.5,3.2-2.8,6.1c-0.3,2.9-2.3,2.4-4.8,3.9c-2.5,1.5-13.9,0.5-21.8-0.9c-7.9-1.4-8.6,0.9-10.8,2.6   c-2.2,1.7-3.9,2.6-8.7,2.6c-4.8,0-7.2,4.6-14.8,11.4c-7.5,6.8-25.1,6-29.9,7.2c-4.8,1.2-8,0.6-12.1-0.1c-4-0.7-6.6-1.9-9.7-2.1   c-3.2-0.3-9.4,2.5-13,2.8c-3.6,0.3-5,4-4.9,5.7c0.2,1.6-13.3,3.9-14.6,5c-1.4,1,1.3,0.6,6.9,0.7c5.6,0.1,4.5,1,8.8,1.8   c4.3,0.8,5-1.5,6-2.7c1-1.2,6.8,0.5,12.8,2.3c6,1.8,7.3,0.8,12.7,0.8s-0.9,3.5-2.5,4.5c-1.6,1.1-1.5,1.7,2.9,2.4   c4.4,0.7-0.8,1.9-2.8,2c-2,0.1-1.4,1-1,2.2c0.4,1.2-1.7,1.4-3.1,0.9c-1.4-0.5-1.8,3.6-1.8,6.1c0,2.5,1.6,2.3,3.8,3.8   c2.2,1.5,3.5,1.3,5.5,0.3c2-1.1,6.3-4.3,7.8-5.3c1.5-1.1,4.6,2.9,5.7,4.2c1.1,1.2,1.5,2.2,1.8,4.3c0.3,2.1,2.3,2.6,3.1,3.4   c0.8,0.8,2,1.1,0.9,2.6c-1.1,1.5,1,1,1.3,2.4c0.3,1.4,0.8,2,2.8,2.9c2,0.8,1.3,3.6,2.3,5.7c1,2.1,4.8,2.9,7.2,3   c2.4,0.2,5.5,1.4,7.4,3.5c2,2.1,4.4,0.6,7.2,2c0.1,0.1,0.2,0.1,0.3,0.2c0.5-0.4,1.6-1,3.5-0.4c2.5,0.8,4.6,0.3,5.7-1   c1-1.4,4.5-5.6,6.4-3.4c1.8,2.2,2.3,5,4.9,5.8c2.5,0.8,5.9,0.2,7,2.1c1.2,1.9,5.7,5,7.9,4.6c2.2-0.3,1.3-1.3,4.7-1.3   c3.5,0,10.8-0.1,12.3-0.9c1.5-0.8,4.6-1.4,5.9,0.1c1.3,1.5,3.7,4.3,5.7,4.6c1.9,0.3,6.3-3,7.3-4.1c0.9-1.1,0.7-3.7,3.9-2.8   c3.2,0.9,3.1,0.2,4.5,1c1.4,0.9,1.8,0.9,1.8,1.8c0,1,0.4,1,1.2,1c0.8-0.1-0.2,2.8,2.2,2.9c2.5,0.1,2.4,0.6,1.8,1.3   c-0.6,0.7-0.8,0.9,0.1,1.7c0.9,0.7,0.2,1.3,1.1,1.8c0.9,0.5,2.4,1.9,2.1,2.9c-0.3,1-2.5,2.5-0.6,2.7c1.8,0.2,3.9,0.8,4.5,1.4   c0.6,0.6-0.2,0.5,0.2,2.7c0.4,2.2,2.9,1.7,3.2,5.5c0.3,3.8,1,4.3,2,5.1c1,0.8,1.2,3.6,2.3,4.5c1.1,0.9,1.3,1,1.8,3   c0.4,2-0.3,3.2,1.2,4.3s2.6,1.8,2.7,3.7c0.1,1.9-0.6,2.4,0.3,3.9c0.9,1.6,3.6,3.6,5.1,3.3c1.5-0.3,3.7-3.9,5.6-3.9s4.3-0.6,5.9-1.2   c1.6-0.6,7.2,0.4,8.8-0.7c1.6-1.1,3.8-1.7,4.9-0.9c0.8,0.6,1.7,1,2.1,1.2c0-0.1,0-0.2-0.1-0.3c-0.6-2.9,1-3.6,3.1-5   c2.1-1.4,1.8-3,1.7-4.4c-0.1-1.4,0.2-3.1,2.4-2.6c2.1,0.5,1.9-1.2,1.5-1.9c-0.4-0.7-1.9-2.5-1.3-2.5c0.6,0,3.8-1,5.2-1.3   c1.4-0.3,5.4,0.6,7.7,1.6c2.3,1,0-4.2-0.1-6.4c-0.1-2.2,0.1-3.4,1.2-4.3c1.1-0.8,0.4-2.7-0.6-4.8c-1-2.1-1.1-1.9-0.3-4.8   c0.8-3-1.8-2.6-2.9-2.1s-0.9,1.7-4.4-3c-3.5-4.6-2.7-5.1-3.1-7.2c-0.4-2.1,0.6-1.5,1.4-0.3c0.8,1.2,1.1,2.9,2.4,3.9   c1.3,1,1.3-0.2,2.2-1.4c0.9-1.2,2.4-0.8,4.5-1.1c2.1-0.3,1.1-2.9,0.3-4.5c-0.8-1.7,0.8-2.5,1.1-6.4c0.3-3.9-2.6-6-4.3-7.7   c-1.7-1.7-1.4-3.5,0.2-4.5c1.6-1,2.7,0.5,4.7,1.6c2,1.1,2.5,0.3,5.3,0.3c2.8,0,2.1,2.7,4.4,2.9c2.3,0.2,2.3-1.5,1.7-2.7   s-0.2-2.3,0.2-3.8c0.4-1.5,4.7-1.3,5.6,0.3c0.9,1.6,2,2.7,4,3.3c1.9,0.6,3,1.8,5,2.9c2,1.1,0.6-2.7,0.5-4.4   c-0.1-1.8,2.2-1.4,3.6,0.1c1.4,1.5,4.5,1.9,7,2.6c2.5,0.7,2.4,0.3,2.5-0.7c0.1-1-0.6-2.2,0.6-2.1c1.2,0.1,6.1,0.2,8.2,0.2   c2.1,0,5.8-1.1,8-1.1c2.1,0,2.9,0.2,4.1,1.2c1.2,1,1.5,2.6,2.5,2.5c1-0.1,2.9,1.9,4.2,3.4c1.3,1.5,2.2,2.5,2.3,0.3   c0.1-2.2-2.5-4.2-3.4-5.2c-0.9-1,0.8-1.4,1.4-0.7c0.6,0.6,2.9,1.6,4.1,1.5c1.2-0.1,2.7-2.7,2.5-4.9c-0.2-2.2-1.8-4.1-3.3-5.1   c-1.6-1-2.8-1.6-4.8-3.7c-2-2.1-0.4-2,1.4-2.5c1.8-0.5,0.3-3.2-0.6-4.4c-0.9-1.2-2.6-3.3-3.1-4.8c-0.6-1.5,0.8-5.1,1.8-6.8   c1-1.7,0.8-6.7,0.6-8.5c-0.3-1.9,0.8-3.9,1.9-4.6c1.1-0.7,2.6-2.2,5.1-4.3c2.5-2,1.6-4.2,1.6-6.2c0-2-4.6-2.7-5.2-4.3   c-0.6-1.6,2.9-2,5.5-3.4c2.6-1.4,3.1-6.4,3.4-8.2c0.4-1.9,7.3-1.3,9.1-1.6c1.8-0.3,1.1-5.8,0.5-8.6c-0.6-2.8,4.1-2.9,6.8-2.9   c2.7,0,5-0.3,7.2-1.4c2.2-1.1,3.6-7.4,3.6-10.5C582,222.6,580.8,223.7,579.6,224.1z" stroke-miterlimit="10" stroke="#FFFFFF"/>
	<path name="固原市" fill="#D3D3D3" id="path3" d="M447,390.9c-1.6,1.1-7.2,0.1-8.8,0.7c-1.6,0.6-4,1.2-5.9,1.2   s-4.1,3.6-5.6,3.9c-1.5,0.3-4.2-1.8-5.1-3.3c-0.9-1.6-0.2-2-0.3-3.9c-0.1-1.9-1.2-2.7-2.7-3.7s-0.8-2.2-1.2-4.3   c-0.4-2-0.7-2.2-1.8-3c-1.1-0.9-1.3-3.7-2.3-4.5c-1-0.8-1.7-1.2-2-5.1c-0.3-3.8-2.8-3.3-3.2-5.5c-0.4-2.2,0.4-2.1-0.2-2.7   c-0.6-0.6-2.7-1.2-4.5-1.4c-1.8-0.2,0.3-1.7,0.6-2.7c0.3-1-1.2-2.4-2.1-2.9c-0.9-0.5-0.2-1.1-1.1-1.8c-0.9-0.7-0.6-0.9-0.1-1.7   c0.6-0.7,0.6-1.2-1.8-1.3c-2.5-0.1-1.4-3-2.2-2.9c-0.8,0.1-1.2,0-1.2-1c0-1-0.4-1-1.8-1.8c-1.4-0.9-1.3-0.1-4.5-1   c-3.2-0.9-2.9,1.7-3.9,2.8c-0.9,1.1-5.3,4.5-7.3,4.1c-1.9-0.3-4.4-3.1-5.7-4.6c-1.3-1.5-4.5-0.9-5.9-0.1c-1.5,0.8-8.8,0.9-12.3,0.9   c-3.5,0-2.5,0.9-4.7,1.3c-2.2,0.3-6.7-2.8-7.9-4.6c-1.2-1.9-4.5-1.3-7-2.1c-2.5-0.8-3-3.6-4.9-5.8c-1.8-2.2-5.3,2-6.4,3.4   c-1,1.4-3.1,1.9-5.7,1c-1.9-0.6-3,0-3.5,0.4c2.5,1.8,1.8,8.9,1.5,11.3c-0.3,2.4,2,2.3,3.8,1.9s6.6,2.4,6.8,3.8   c0.2,1.3,0.2,1.7,1.3,2.5c1.1,0.8,1.2,2.2,2,3.6c0.8,1.3,2.2,2.7,3,3.9c0.7,1.2-2.4,3.7-4.2,5.2c-1.8,1.5-5.3,2.1-7.3,2.2   c-2,0.1-3.2,1.2-3.2,3c0,1.8,0.6,3,1.4,4.7c0.7,1.7,1.1,1.4,1.5,3.2c0.4,1.8,1,3.6,1.1,5.7c0.1,2.1,1.5,2.2,3.1,3.5   c1.6,1.3,0.8,2.2,0,3.5c-0.8,1.3-1.3,1.2-0.7,3.1c0.5,1.9,0.8,1.3,2.8,1.3c1.9,0,4.6-0.3,5.8,1.1c1.3,1.4,3,5.7,2.9,7.8   c-0.1,2.1,1.1,3.6,2.6,5.3c1.6,1.7,1.7,3.6,1.7,6.8s3.6,6.3,5.3,7.9c1.7,1.6,1.8,4.5,1.2,6.7c-0.6,2.2-0.4,3.5,1.6,7.5   c2,4,1.7,7.8,2.2,11.1c0.5,3.3-5.5,4.3-7.5,4c-2-0.3-3,0-3.3,2.2c-0.3,2.2-2.2,3.5-4.5,5c-2.3,1.5-3,4.3-4.2,10.1   c-1.2,5.8,0.9,10.1,1.8,11.4c0.8,1.3,3.4,1,5.5,1.5c2.2,0.4,0.1,2.1-0.8,3.4c-0.9,1.3-2.7,2-2.9,3.2c-0.3,1.1,0,1.8,1.6,1.2   c1.6-0.6,2.4-1.1,3.5-0.9c1.1,0.3,2.4-0.1,2.6,1.4c0.2,1.5,0.3,2,1.4,2.7c1.1,0.8,1.4,1.3,1.8,3c0.4,1.7,1.8,3.9,3.6,5.3   c1.8,1.4,2.3-0.1,5.3-0.1s1.2,2.7,2.3,4.5c1.1,1.8,1.7-0.7,2-2.3c0.3-1.6,1.1-1.6,2.1-1.6c1,0,3.2-2.1,4.1-2.5   c1-0.4,3.4-1.1,5.1-0.4c1.7,0.7,5.3,1.2,7,1.6c1.7,0.4,0.9,0.7,0.7,2.6c-0.2,1.9-1.8,0.9-3,0.4c-1.2-0.4-2.4,0.3-2.7,1.4   s0.7,2.1,1.7,3.2c1,1.1,0.6,1.6,0.6,3c0,1.5,0.1,2.1,2.8,3c2.7,0.9,2.7,2.7,3.8,4.9c1.2,2.2,3.3,3.5,5.3,5.3c2,1.8,0.1,4.9,0.8,7.1   c0.7,2.3,1.9-1.3,3-3.8c1.1-2.5,3.2-2,5.2-2c2,0,7,1.5,10.1,2c3.1,0.5,1.1,1.9,3.3,3.8c2.3,1.9,4.2,0.4,6.2-0.4   c2-0.7-0.2,1.2-1.1,3.1c-0.8,1.9-3,2.5-3.2,0.7c-0.2-1.8-4.6-0.1-4.9-1.1s-7.6,1.9-9.4,1.9c-1.8,0-3.5,3.8-3.3,6.1   c0.1,2.3,9.6-0.7,12-1.7c2.4-1,5.6-1.7,7.1-1.7c1.5,0,1.9,0.5,0.2,2c-1.7,1.5,0,2,1.2,2.5c1.2,0.5,2.3,4.4,3,6.9   c0.7,2.5,3.6-6.4,4.6-7.3c1.1-0.8,3.6-1.7,5.6,0.2c2,1.9,3.3,0,4.8,1.3c1.4,1.3,1.4,6,2.1,9.6c0.7,3.7,3.7,4.3,4.8,6.5   c1.1,2.3,2,3.1,4.4,6c2.4,2.9,3.3-0.4,3.9-2s2.5-2,5.2-3.3c2.7-1.3,4.9-3.3,6.7-6.2c1.8-2.9,1.2-5.7,2.5-9.2   c1.3-3.5,0.8-5.8-1.7-6.4c-2.5-0.6-1.4-1.8-1.4-4.8c0-3-2.7-2.5-3.6-4.4c-0.8-1.9,1.8-6.7,2.6-9.3c0.8-2.6-2.1-8.2-3.5-11.1   s2.6-5.4,4.8-8.1c2.1-2.7,5.4-3.2,6.9-3.2c1.5,0,6.2,1.2,9.5,3.6c3.3,2.4,4,0.7,5.2-0.5c1.2-1.2,2,0.6,2.7,2.5   c0.7,1.9,5,3.1,6.8,2.7c1.8-0.4-1-4.2-0.4-5.2c0.6-1.1,2.6,0.7,4.5,1.2c1.9,0.5,3.8-2.5,3.9-3.7c0.1-1.2,3.1,0.2,4.2-0.5   s0.5-2.5,1.7-3.2c1.2-0.7,1.8,1.1,3.2-0.2c1.4-1.3-0.1-2.5-1.1-3.7c-1-1.2-0.8-2.1,0.5-2.3c1.3-0.1,0.4-1.8-1.1-3.1   c-1.4-1.3-1.8-1.7-2.1-3.6c-0.4-1.9-0.5-2.1-2.4-3.3c-1.9-1.2,1.4-2.7,3-2.9c1.5-0.1,2.4-1,4.9-2.5c2.5-1.5-0.2-1.9-2.3-2.3   c-2-0.4,1.4-2.5,3.6-3.8c2.1-1.3,1.1-3.1,0.1-5c-1-1.9-0.4-2.9,0.4-5.7c0.7-2.9-0.4-5-0.6-6.7s-0.4-2.9-3.5-2.9   c-3.1,0-2.3-2.6-2.3-3.8c0-1.2,0.5-2.6-1-2.7c-1.4-0.1-4.4-4.2-5.2-5.5c-0.8-1.3-2.4-0.2-3.3,0.4c-1,0.6-2-0.4-3.7,0.6   c-1.7,1-2.6-0.7-4.6-2c-2-1.3-3.3-2.3-3.8-3.3c-0.5-1.1-0.8-2.3-1.8-1.9c-1,0.4-2.5,2.3-3.9,0.1c-1.4-2.1-1.4,0.8-2.5,0   c-1.1-0.8-1.5-2.1-2.4-1.2c-0.8,1-1.2,1.2-2.5-0.7c-1.3-1.9-2,0-2.7,1.1c-0.7,1.1-1.4,3.1-2.4,2.1c-1-1-2.4-0.5-3.2-0.5   c-0.8,0-3.8-3.8-3.8-5.5s1.4-1.1,2.5-0.2c1.1,0.8,1.4-0.7,0.8-1.9c-0.6-1.2,0-3.1,0-4.5c0-1.4,0.5-2.3,1.3-3.2   c0.8-1-1.4-1.7-2.5-3.7c-1.1-2,0.7-3,2.1-4.5c1.4-1.5,1-2.6,0.2-5.2c-0.7-2.6-2.7-1.7-4.5-1.8c-1.8-0.1-2.9-0.4-4-2.4   c-1.2-2-2.9-4.2-6.5-6.7c-3.7-2.5-1.5-3.2,1.1-2.3c2.6,1,4.9,1.8,6.9,1.8c2,0,0.3-3.4-0.3-6.2c-0.4-0.2-1.3-0.6-2.1-1.2   C450.7,389.3,448.5,389.9,447,390.9z" stroke-miterlimit="10" stroke="#FFFFFF"/>
</g>
</svg>