<?xml version="1.0" encoding="UTF-8" standalone="no"?><!-- Generator: Adobe Illustrator 18.0.0, SVG Export Plug-In . SVG Version: 6.00 Build 0)  --><svg xmlns="http://www.w3.org/2000/svg" xmlns:xlink="http://www.w3.org/1999/xlink" contentScriptType="text/ecmascript" zoomAndPan="magnify" contentStyleType="text/css" id="图层_1" mapName="安徽省" mapType="省市地图" enable-background="new 0 0 1000 750" version="1.1" xml:space="preserve" preserveAspectRatio="xMidYMid meet" viewBox="0 0 1000 750" x="0px" y="0px">
<path name="宣城市" fill="#D3D3D3" d="M700.2,461.9c-1.5,0-4.2-0.8-6.3-2.2  c-2.1-1.4-4.2-1.4-4.9-1.1s-2.2,0.4-3.6-0.8c-1.3-1.2-2.2-1.1-3.7-0.7c-1.4,0.4-1.5-0.4-2.8-1.6c-1.2-1.1-1.5-2.3-1-3.4  c0.6-1.1,0.7-3.8,0.2-5.3c-0.4-1.6-2.1-1.4-2.6,0.7c-0.4,1.9-1.7,1.4-4.2,2.2c-2.6,0.8-5.2-1.9-8.9-3.4c-3.7-1.3-6.3,4-7,4.9  c-0.5,1-10.1,2.2-13.7,1.1c-3.7-1.1-5.1-0.6-8.2,0.8c-3.1,1.4-4.5-1-7.1-3.4s-4.1-2.6-4.6-3.8c-0.1-0.2-0.1-0.4-0.1-0.8  c-0.8,0-4.3-0.1-6.1,0.6c-0.3,0.1-0.6,0.2-0.8,0.3c0,0.2,0,0.3,0,0.5c0,0.9,0.1,2.5,0.7,3.2c1,0.8,0.4,2.1,1.5,3.8  c1.1,1.6,5.2,4.6,5.2,6.1c0,0.1,0,0.2-0.1,0.3c-0.6,1.3-3.6,2.8-2.9,4.1c0.8,1.3,2.3,2.7,0.3,4.9c-2,2.2-3.4,5.2-4.8,4.4  c-1-0.5-2.1-1.5-3.2-1.5c-0.5,0-1,0.1-1.4,0.6c-1.5,1.5-0.4,4.8-2.6,5.6c-2.2,0.8-4.9,2.3-3.6,3.4c1.3,1.1,2.2,2.2,0.6,3.2  c-1.5,1-1.2,1.3-1.1,2.2c0,0.1,0,0.2,0.1,0.4c0,0.7-0.2,1.4-0.2,2.2c0,0.3,0,0.7,0.1,1c0.1,0.6,0.4,1.5,0.4,2.4  c0.1,0.9-0.1,1.8-0.6,2.3c-1,1-1.4,3.5-2.4,3.5c-0.2,0-0.3-0.1-0.4-0.2c-1.4-1-3-4.2-3.4-5.9l0,0c-0.4-1.6,0.1-2.9-2-2.6  c-2.2,0.4-4.4,2.2-5.6,2.9l0,0c-0.4,0.1-0.8,0.2-1.1,0.2c-0.2,0-0.3,0-0.4,0c-0.6,0-1,0.1-1,0.9l0,0c0,1.5-0.2,2.7-1.5,3.4  c-1.3,0.7-0.3,1.8,0.7,2.5c0.9,0.6,2.5,2.2,0.8,2.2c-0.1,0-0.2,0-0.4,0c-1.4-0.1-2.1-0.5-2.9-0.4c-0.4,0-0.9,0.2-1.5,0.5  c-1.6,1-5.8,3.4-6.6,4.8l0,0c-0.7,1.3-0.3,1.3-2.5,3l0,0c-1.4,1-2.4,1.7-3.4,2c-0.6,0.2-1.3,0.4-2,0.5c-1.1,2.2-2.3,4-3.8,4.4  c-2.1,0.7-3.7,0.5-4.5,2.8c-0.8,2.1-0.6,4.8-0.5,5.6c1.2,0.4,2.9,1.4,3.7,1.4c1.4,0.1,2.6-2.7,5.5-3.3c2.9-0.7,2.6,3.2,1.8,4.1  c-0.8,1-1.3,2.5-0.1,4c1.2,1.5,5.3-0.1,7.8-0.1s3,2.1,4,4.1c1.1,1.9,2.9,2.2,4.6,2.2c1.7,0,1.7,3,2.6,6.4c1,3.5-3.7,4-4.7,4.7  c-1,0.8-1.3,2.9-0.2,3.4c1.1,0.6,1.8,2.1,2.7,5.6c1,3.6,7.5,4.1,13.6,5.9c6.2,1.8,4.7,8.9,4.4,11c-0.2,2.1,1.7,2.5,3.8,2.5  c2.1,0,3.8-0.6,4.1-1.7c0.2-1.1,0.2-1.4,1.5-1.7c1.3-0.3,2.8-1.4,3.4-2.7c0.4-1.2,2.2-1.5,3.7-1.6c1.5-0.2,1.4-0.8,1.8-2.1  c0.4-1.2,3.3-4.1,4.3-4.8c1-0.7,0.8,0.7,2.5,1.5c1.7,0.8,2.5-1.1,3.1-2.5c0.4-1.1,2.2-2.9,2.7-3.5c0-1,2.7-2.6,4.8-4.1  c2.5-1.8,1-1.9-0.4-2.3c-1.4-0.4-2.9-4-2.9-5.7c0.1-1.8,2.2-5.2,4.6-6.8c2.5-1.5,4.4,1.2,7.9,2.7c3.4,1.4,4,1.4,5.2,0.1  s1.5-0.7,3.1,0.8c1.5,1.5,4.3,1.1,7.2,1.8c2.9,0.7,4.3-1.2,4.3-4.4c0-3.2,2.6-2.2,5.5-3.2s2.8,1.6,5.7,0.6c3-1.1,1-2.6-1.8-4.4  c-2.9-1.6-2.6-9.1-2.6-10.9c0-1.8-2.3-1-4.9-0.3c-2.7,0.7-2.9-1.9-2.9-4.2s0.3-2.2,0.1-4c-0.2-1.8,2.8-1.1,4.7-1.5  c1.9-0.4,4.1-4.2,5.8-6s2.8-1.1,3.5,1.9c0.7,3.1,1.9,1.1,4.9-1.6c3-2.9,1-6.4,0.8-8.3c-0.2-1.9,2.3-1.3,3.4-1.4  c1.1-0.1,2.3-0.8,4.2-4.7c1.9-4,0-4.1-0.1-5.9c-0.1-1.8,1.4-10,3-11.6c1.5-1.5,2-1.7,2-4.3s1.1-3.8,1.3-4.9  C702.2,464.2,701.7,461.9,700.2,461.9z" stroke-miterlimit="10" id="path0" stroke="#FFFFFF"/>
<path name="铜陵市" fill="#D3D3D3" d="M561.9,492c3.3,0.2,2.6-1,3.5-2.1  c0.8-1.1,1.3-1.7,5.3-2c4-0.3,3.8-4,3.8-5.4c0-1.5-0.1-3.1-2.3-3.1s-3.1-1.8-6.8-5.5c-3.1-3.1-4.1-8.6-4.2-10.2  c-1.2,3.2-3.8,5-5.8,5.6c-2.2,0.7-3.5-1.1-4.2-2.9c-0.8-1.8-1.3-3.1-6.3-3.4c-4.9-0.3-6.3,11.7-6.8,13.4c-0.5,1.6,0,5.6,0.1,8.2  c0.1,1.9-0.3,4.9-1.4,7.8c0.6,0.4,2.2,1.8,2.7,4.2c0.7,3.1,0.5,7.9,2.7,5.3s5.9-3.5,6.3-5.1c0.4-1.5,3.2-3.4,5.2-3.1  c1.9,0.2,3,0.4,3.6,0.3c0.4-0.2,0.8-0.8,1.2-0.8C558.5,491.6,558.8,491.8,561.9,492z" stroke-miterlimit="10" id="path1" stroke="#FFFFFF"/>
<path name="池州市" fill="#D3D3D3" d="M559.7,519.2c0.8-2.3,2.5-2.2,4.5-2.8  c2-0.7,3.7-4.3,5.5-7.6s1.8-5.6,0.8-6.4s-3.6-1.1-4.5-2.2c-0.9-1.1-1.8-1.9-4.3-2.6c-2.5-0.4-2.5-1.9-2.8-3.7s-1.1-0.3-1.6-0.1  c-0.6,0.3-1.6-0.1-3.6-0.3c-1.9-0.2-4.8,1.7-5.2,3.2s-4,2.5-6.3,5.1s-2.1-2.2-2.7-5.3c-0.6-2.5-2.2-3.8-2.7-4.2  c-0.4,1.1-1,2.1-1.7,2.9c-2.6,3.2-12.4,3.8-14.6,5.6c-2.2,1.8-3.8,5.6-5.5,6.6c-1.8,1.1-6.3-1.2-8.7-1.3c-2.5-0.1-7.4,4.2-9.3,4.4  c-2,0.2-1.9,3.7-1.2,5.9c0.7,2.1,0.7,5.7-2,10.1c-2.5,4.4-6.5,1.1-11.7-0.4s-11.7,5.5-13.5,6.8c-1.9,1.3-0.4,3.4-1,5.5  s0.8,3.6,1.5,5.9c0.8,2.3-1.9,6-3.4,7.9s-3.5,7.9-5,9.7c-1.3,1.6-7.3,7.7-8.1,8.6c1.6,0.8,2.8,1.8,3.2,2.5c0.8,1.4,2.6,1.8,2.6,1.8  s1.9-0.8,1.9,0.8c0,1.6,1.4,1.8,2.3,1.4c0.8-0.4,1.4,1.1,2.9,2.9c1.5,1.6-2.5,7.5-3.4,8.3c-1,0.8-4.9,6.7-6.3,6.4  c-1.3-0.3-3.5,0.1-3.8,1.1c-0.3,1.1-1.6,3.6-4,4.9c-2.2,1.4-1.9,1.9-1.8,4.1s-0.8,4.1-1.5,5.9c-0.7,1.8,1.9,4.3,4.1,5.3  c2.2,1.1,3.1-0.1,4.4-1.1c1.3-1,4.2,3.1,5.5,3.5c1.4,0.4,2.9-0.7,3-2.5c0.2-1.8,2.9-3,4.8-4.1s5.1-3,6.4-4.3  c1.3-1.3,1.1-1.5,2.3-1.4c1.2,0.1,2.5,0.2,4-0.3c1.5-0.5,5.2-2.3,4.9-3.8c-0.3-1.4-0.3-3.1,1.2-4.7c1.5-1.6-0.3-2.6-2.9-3.6  s-1.3-2.5,0.5-4s1.5-4.4,4.1-5.9c1.3-0.8,2.9-1,4.5-1c0-0.8,0.2-3.6,0.2-4.7c0-1.4,4.4-1.4,5.5-2.2c1.1-0.8,1.1-0.8,2.7-0.3  c1.5,0.6,4.1,0.4,4.6-0.2c0.5-0.5,0.8-1,2.5-1s1.7-0.8,2.5-1.8c0.8-1.1,0.8,0.1,2.2,0.4c1.4,0.5,1.8-1.2,2.5-2.1  c0.8-0.8,0.7,0.7,4.2,1c3.5,0.3,2.2-4.2,1.7-5.2c-0.4-1-1.6-2.6,1-2.5c2.6,0.1,0.3-1.1,1.9-1.9c1.6-0.8,2.9-0.2,4.2,1.3  c1.3,1.6,2.5-0.2,3.1-0.5c0.8-0.3,1.6,0.3,2.5,1.1c0.8,0.8,1.5-2.2,1.7-3.4c0.2-1.2,1.1-1.5,2.2-1.4c1.1,0.1,1.4-0.8,2.8-1.2  c1.4-0.4,9.2-2.1,10.9-2.9c1.7-0.8-0.3-2-1.2-3.1c-1-1.2,1-2.9,2.7-3.3c1.8-0.4,1.6-2.2,1.6-3.8c0-1.6,1.1-1.7,3.5-1.3  c2.5,0.3,0.2-1.9-0.8-2.5c-1-0.7-0.1-2.1,1.2-2.6c1.4-0.6-0.4-5.6-0.8-7.6c-0.3-2-0.2-5.1,0.8-6.2c0.4-0.4,1-0.4,1.7-0.2  C559.2,523.9,558.9,521.2,559.7,519.2z" stroke-miterlimit="10" id="path2" stroke="#FFFFFF"/>
<path name="黄山市" fill="#D3D3D3" d="M630,563.7c-1.7-0.8-1.5-2.2-2.5-1.5  c-1.1,0.7-4,3.7-4.3,4.8c-0.4,1.2-0.3,1.9-1.8,2.1s-3.2,0.4-3.7,1.7c-0.4,1.2-2.1,2.3-3.4,2.7c-1.3,0.3-1.3,0.7-1.5,1.7  c-0.2,1.1-1.9,1.7-4.1,1.7c-2.2,0-4-0.5-3.8-2.6c0.2-2.1,1.7-9.2-4.4-10.9c-6.2-1.8-12.8-2.5-13.6-5.9c-1-3.6-1.6-5.1-2.7-5.6  c-1.1-0.6-0.8-2.7,0.2-3.4c1-0.8,5.5-1.2,4.7-4.7c-1-3.5-1-6.5-2.6-6.5s-3.6-0.3-4.6-2.2c-1-1.9-1.6-4-4.1-4c-2.5,0-6.6,1.6-7.8,0.1  c-1.2-1.5-0.8-3,0.1-4c0.8-1.1,1.1-4.8-1.8-4.1c-2.9,0.7-4.1,3.4-5.5,3.3c-1.4-0.1-4.4-2.5-5.3-1.4s-1.1,4.2-0.8,6.2  c0.3,2,2.1,7,0.8,7.6c-1.4,0.6-2.2,1.9-1.2,2.6c1,0.7,3.2,2.8,0.8,2.5s-3.4-0.3-3.4,1.3c0,1.7,0.3,3.5-1.6,3.8  c-1.8,0.4-3.7,2.2-2.7,3.3c1,1.2,2.8,2.2,1.2,3.1c-1.6,0.8-9.4,2.5-10.9,2.9c-1.4,0.4-1.6,1.2-2.8,1.2c-1.1-0.1-2,0.2-2.2,1.4  c-0.2,1.2-0.8,4.1-1.7,3.4c-0.8-0.8-1.7-1.4-2.5-1.1c-0.8,0.3-1.8,2-3.1,0.5c-1.3-1.5-2.6-2.2-4.2-1.3c-1.6,0.8,0.8,1.9-1.9,1.9  c-2.6-0.1-1.4,1.6-1.1,2.5s1.9,5.4-1.7,5.2c-3.6-0.3-3.4-1.8-4.2-1s-1.1,2.5-2.6,2.1c-1.4-0.4-1.4-1.6-2.2-0.4  c-0.8,1.1-0.7,1.8-2.5,1.8s-2.1,0.4-2.5,1c-0.5,0.5-3.1,0.8-4.6,0.2s-1.5-0.4-2.7,0.3c-1.1,0.8-5.5,1-5.5,2.2c0,1.1-0.2,4-0.2,4.7  c1.5,0,3,0.3,4,0.6c2.1,0.4,1.1,2.9,1.1,5.2c0,2.5,0.5,3.2,2.8,3.7c2.4,0.5,2.7-2.6,4.4-2.7c1.6-0.2,1.2,1,2.3,2.5  c1.1,1.5,2.6-1.5,3.8-1.5c1.2,0,0.8,3.1,0.6,5.2c-0.2,2.2,1.4,3,3.1,3.8c1.6,0.8,0.8,5.5,1.4,7.1c0.7,1.6,1.9,1.1,3.8,1.4  c1.9,0.2,1.4,2.7,0.8,3.8c-0.7,1.1,0.1,1.9,1,1.9s1.8,0.2,3.3,1.5c1.4,1.4,2.2,1.2,3.7,0.1s3-1.2,5.2-1.3c2.2-0.1,1.7,1.2,2.5,4.1  c0.7,2.9,4.1,0.8,7.3-0.1s3.8,0,7.8,1.2c4,1.2,6.7-1.1,9.4-1.8c2.7-0.8,8.3,2.2,12.7,4.9c4.4,2.9,0.2,7,1.8,8.6  c1.6,1.6,5.7,3.1,6.6,1.4c0.8-1.6,1.7-1.2,5.6-1.1c4,0.2,2.8-2.6,2.8-4.8c0-2.3,1.1-0.7,3.8-0.7s5.8,0.5,6.2-1s0.4-1.5,3.4-1.8  c2.9-0.3,2.7-2.6,2.7-4.3c0-1.7,5-5.7,6.1-7.7c1.1-1.9,2.4-3.5,4.7-2.3c2.3,1.2,5.2-3.8,8.6-6.8c3.5-3,0.3-5.6,1-8.9  s5.6-5.2,7.2-5.7c1.5-0.6,2.6-4,2.2-5.2c-0.3-1.4,0.8-3.1,2.7-3.1s1.8-2.2,2.2-5.2c0.4-3.2-0.8-5.5-2.1-7.1  c-1.3-1.5,0.1-3.8,1.1-5.6c1.1-1.9-1.2-1.9-2.8-2.5c-0.3-0.1-0.4-0.3-0.4-0.5c-0.5,0.6-2.2,2.5-2.7,3.5  C632.4,562.5,631.6,564.6,630,563.7z" stroke-miterlimit="10" id="path3" stroke="#FFFFFF"/>
<path name="亳州市" fill="#D3D3D3" d="M460.3,242.9c0.3-2.5-1.5-3.4-3-4.3  c-1.5-0.8-3.7-1.4-4.8-2.9s-4.4-1.6-5.7-1.8c-1.4-0.2-5.3-0.2-8.5,0.8c-3.1,1-2.2-2-2.3-4.6c-0.1-2.6-1-4.3-1-6.5  c0-2.2-0.4-3.4-1.5-5.2c-1.1-1.9-1.1-5.9-1.2-8.5c-0.1-2.7-1.1-3-3-4c-1.6-1-2.8-3.1-3.1-3.7c-1.9,1-4.1,1.8-4.9,2.1  c-1.4,0.5-3.4,0.5-4,1.7c-0.8,1.2-2.6,2.2-4.9,2.2c-2.2,0-2.9,0.8-5.3,1.3c-2.5,0.7-9.6-7.2-9.6-10.1s-0.4-4.8-0.4-7  s-2.9-0.8-4.4-1.1c-1.6-0.1-1.4-1.9-0.8-3.8c0.6-1.7,0.3-2.2-0.5-4.8c-0.8-2.5-2.2-1.7-3.4-1.7c-1.4,0-2.9-0.7-4.1-2.1  c-1.3-1.4-1.1-0.5-2.9,0.8s-4.1-4.5-5.5-5.6c-1.4-1-5-0.2-7.7,0.1c-2.7,0.3-4.2,1.4-4.7,2.2c-0.5,0.8-2.6,1.8-4,2.3  c-1.4,0.5-3.2,12.8-3.5,14.2c-0.2,1.5,4.7,0,5.8-0.2c1.2-0.2,0.4,2.9-0.3,6.8c-0.7,4-3.2,2.6-4.6,3.3c-1.4,0.7,1.4,4.4,2.1,5.6  s0.4,3.4,0.2,5.5c-0.2,2,1.3,4.3,2,6.2c0.4,1.2,0.6,1.7-0.1,1.9c0.4,1.7,2.2,8.1,5.2,7.9c3.3-0.2,5.7,1.1,6.6,2.2  c0.8,1.1,4,3.6,5.5,3.7s1.7,1.9,2.6,3.4s1.9-0.4,1.6,3.4c-0.3,4.1,1.3,5,0.7,8.9c-0.7,3.8-2.2,1.7-3.7,0.7s-3.8-2.2-3.8-0.3  c0,1.9,1.6,4.2-0.1,5.6c-1.8,1.4-3.4,2.5-0.8,4.8c2.5,2.5,5.2,6.1,8,6.2c2.7,0.1,8.8,1.4,11.6,2.7c2.8,1.4,6.4,5.6,2.8,7  c-3.6,1.3,3.8,2.5,5.6,3c1.8,0.7,4.6,1.3,5.6,4.7c1.1,3.4,2.2,6.2,7.2,6.2c5,0,8.5-0.8,8.5-3.6c0-2.8-1.9-6.7,1.4-6.4  c3.1,0.2,8.1,1.6,10,3.5s4.1,2.2,5.6,1.9c1.5-0.5,2.9-2.5,4.9-1.8c1.4,0.4,3.8,0.4,5.6,0.8c0.5-1,1.9-4,2.5-5.1  c0.7-1.3,2.1-0.5,3.5-1.7c1.4-1.2-0.1-2.7-2.2-3.3c-2.1-0.6-0.6-6.8,0.1-9.4c0.7-2.5,2.9-2.5,4.9-3.8c2.1-1.4,0-6-1-7.8  c-1-1.9-0.7-3.8-0.5-4.2c0-0.1,0.2-0.1,0.4-0.1C458.1,249.1,460.1,245.5,460.3,242.9z" stroke-miterlimit="10" id="path4" stroke="#FFFFFF"/>
<path name="淮北市" fill="#D3D3D3" d="M468.3,229.5c1.5-3.6,2.5-4.3,0.5-5c-2-0.8-4-2.2-4-4.6  s-0.3-5.2,1.5-5.5s3.8,0.4,3.8-1.8c0-2.1-1.4-3.2,0.1-5c1.4-1.7,0.8-5.5,0.8-6.5c0-1-0.6-6.4,1.1-8.3c1.6-1.9,3.4-8.2,2.2-9.2  c-1.1-1-1.2-1.8-1.2-2.7c0-1.1-0.5-1.6-1.4-2.2c-1-0.6-1.5-1.2-1.1-2.2c0.4-1.1,0.6-1.2-0.8-1.2s-2.1-0.4-2.6-1.4  c-0.6-0.8-1-1.3-2.2-0.4c-1.3,1-4.6,2.7-5.2,4.4c-0.6,1.7,0.8,2.2-3.4,2.3c-4.1,0.1-12.1,0.1-12.8,0.1c0.2,0.5,0.4,1,0.5,1.2  c0.7,1.9,1.4,2.2,2.5,2.5c1.1,0.2-0.2,2.9,0.6,5.9c0.8,2.9-3,2.2-4.9,1.9c-1.9-0.3-3.1,0-4.8,1.7c-1.6,1.7-4.4,2.1-6.3,1.6  c-1.9-0.5-2.2,3.2-2.2,4.8c0,0.8-1.1,1.5-2.5,2.2c0.4,0.6,1.6,2.7,3.2,3.7c1.9,1.1,2.9,1.4,3,4.1c0.1,2.7,0.1,6.8,1.2,8.6  c1.1,1.9,1.5,3.1,1.5,5.2c0,2.2,0.8,4,1,6.4c0.1,2.6-0.7,5.6,2.3,4.6c3.1-1,7.1-1,8.5-0.8c1.4,0.2,4.6,0.3,5.7,1.8s3.3,2.1,4.8,2.8  s3.3,1.8,3,4.4c-0.3,2.5-2.2,6.1-1.4,8.3c1.1,0.1,4.8,1.1,5.9,0.8s2.5-1.1,4.7-0.8c-0.8-0.4-2.6-1.8-1.2-3.1c1.8-1.7,0.2-2.6,1.6-4  c1.5-1.3,3.4-4.8,1.9-6.1C470.4,237,466.8,233.1,468.3,229.5z" stroke-miterlimit="10" id="path5" stroke="#FFFFFF"/>
<path name="宿州市" fill="#D3D3D3" d="M576.1,208.5c1.5-1.6-3-1-5.1-1.7s-2.7-1.9-3.8-1.9  s-5.1,2.1-7.1,1.9c-1.9-0.1-2.9,0.6-4,1.7c-1,1.1-1.5,1.2-2.9,0.3c-1.4-0.9-3.4,0.1-5.1,0.1c-1.8,0-4.6,0.1-6.4,0.4  s-2.2,0.3-3.8-0.4c-1.6-0.8-1.7-1.1-0.8-1.9c1-0.9,0.8-2.5,0.8-4.4s0.4-4.8,1-7.7c0.6-2.9-0.7-2-2.5-1.7c-1.9,0.4-2.2,0.3-2.2-1.8  c-0.1-2-0.6-2-2-2.3s-1.1-1.9-1.2-4.4c-0.1-2.6-0.5-2.2-2-3.5c-1.5-1.3-2.5-0.8-4,1.5c-1.4,2.3-3.3,0.6-4-1.9  c-0.7-2.6-0.4-2.2-2.2-3.4c-1.8-1.2-5.5,1.9-7.8,2.6c-2.2,0.4-4.1-3.7-4.7-5.2c-0.6-1.6-6.8,0.7-11.3,1.1c-4.5,0.4-5.9-1.4-7.9-3.7  c-2.1-2.3-4.5-4.1-8-6.1c-3.6-2-1.2-2.5,1-5.2c2.3-2.7-2.1-2.9-3.8-3.4c-1.7-0.5-2.3-4.5-2.8-8.2c-0.4-3.7-1-3.8-1.5-5.9  c-0.6-1.9-4.6-1.1-7.1,0c-2.5,1.1-6-3-8.5-6.3c-2.5-3.2-3.8-2.5-7-2.5s-6.9-3-9.1-4.4c-2.2-1.3-4.8-2.3-6.3-4.5s-4.1-6.8-7-8.1  c-2.9-1.4-2.6,1.4-5.5,2.6c-2.9,1.1-4.2,1.9-6,3.8c-1.8,1.9-2.2,1.9-4.8,0.8c-2.5-1.1-1.4,3.2-1.4,3.2s-0.4,1.3,0,2.2  c0.5,1-1.1,1.8-2.3,3.2c-1.3,1.4,2.2,7.6,3.8,9.2c1.5,1.7,3.3,4,7.2,5.2c4,1.3,5.3,4.7,5.5,7s1.5,0.2,5.5,0.1c4-0.2,6.8-1.7,8.9-2  c1.9-0.4,2.3,2.6,1.9,3.7c-0.4,1-1,2.5-0.6,4.9c0.4,2.5-0.4,4.1-1.4,5.1c-1,1.1-0.8,5.2,1.1,6.8c1.5,1.4,3.4,4.9,4.4,7.4  c0.7,0,8.7-0.1,12.8-0.1c4.3-0.1,2.8-0.7,3.4-2.3c0.6-1.7,4-3.4,5.2-4.4c1.3-1,1.6-0.5,2.2,0.4c0.6,0.8,1.3,1.4,2.6,1.4  c1.4,0,1.3,0.1,0.8,1.2c-0.4,1.1,0.2,1.6,1.1,2.2c1,0.6,1.4,1.2,1.4,2.2c0,1.1,0.1,1.7,1.2,2.7c1.1,1-0.6,7.3-2.2,9.2  c-1.6,1.9-1.1,7.4-1.1,8.3s0.7,4.8-0.8,6.5c-1.4,1.8-0.1,2.9-0.1,4.9s-2.1,1.5-3.8,1.8c-1.8,0.2-1.5,2.9-1.5,5.5  c0,2.5,2.1,3.8,4,4.6s1,1.5-0.5,5c-1.5,3.6,2,7.5,3.5,8.7c1.5,1.3-0.4,4.8-1.9,6.1c-1.5,1.4,0.1,2.2-1.7,4c-1.4,1.4,0.5,2.7,1.2,3.1  c0.5,0.1,1,0.2,1.6,0.4c3.3,1,7.3,1.5,10.4,1.2c3.1-0.3,0.8-2.3,0-3.1c-0.8-0.8-2-1.4-0.8-2.9s-1.1-0.8-0.4-2.9  c0.7-2.2,2.1-1.3,3.8-1c1.8,0.4,1.9-1.9,2.1-3.4s0.8-1.2,2.2-1.1c1.3,0.2,2.9-0.2,4.4-0.8c1.5-0.7,2.7-2.9,2.9-4.1  c0.2-1.1-0.4-2.2,2.6-2.5s2.6,0,3.8,1.2c1.1,1.2,4.2,2.8,4.9,2.9s1.8-0.3,2.2,1c0.5,1.4,2.2,5.6,3.6,8.1c1.4,2.5,4.2,2.5,8.2,3.4  s5.6,0.2,8.7,0.1c3.1-0.1,2.2,1,2.7,2.3c0.5,1.3,2.2,3.1,3.1,3.1c0.8,0,1.9,0,2.6,1.3c0.8,1.4,1.6,0.2,2.2-0.8  c0.6-1.1,2.2-1.1,4.4-1.3c2.2-0.3,2.8-2.2,3.7-3.5c0.8-1.2,8.1-1,9.4-0.8c-0.4-1.9,2-1.8,3.4-2.3c1.5-0.6,1.7-3.2,1.1-5.9  c-0.7-2.8,0.8-3,1.7-5.6c1-2.7,4.5-1.6,5.8-0.7c1.3,1,0-8.6,0-10c0-1.4-1.1-2.9-0.2-3.2c0.9-0.3,2.2-1.7,3.4-4  c1.3-2.5,0.6-4.2,0.4-6.2C573.1,208.3,574.6,210.1,576.1,208.5z" stroke-miterlimit="10" id="path6" stroke="#FFFFFF"/>
<path name="蚌埠市" fill="#D3D3D3" d="M548.2,249.2c-0.8,1.3-1.4,3.2-3.7,3.4  c-2.2,0.2-3.8,0.3-4.4,1.4c-0.6,1-1.4,2.2-2.2,0.8c-0.8-1.3-1.8-1.3-2.6-1.3c-0.8,0-2.6-1.8-3.1-3.1c-0.5-1.3,0.4-2.5-2.7-2.3  c-3.1,0.1-4.7,0.8-8.7-0.1c-4-1-6.8-1-8.2-3.5c-1.4-2.5-3.1-6.8-3.5-8.1c-0.5-1.3-1.4-1-2.2-1.1c-0.8-0.1-3.8-1.6-5-2.9  c-1.1-1.2-0.8-1.4-3.8-1.2c-3,0.2-2.3,1.2-2.5,2.5c-0.2,1.1-1.4,3.4-2.9,4c-1.5,0.7-3.1,1-4.4,0.8c-1.3-0.2-2.1-0.5-2.2,1  c-0.2,1.5-0.3,3.8-2.1,3.4s-3.1-1.1-3.8,1c-0.7,2.2,1.5,1.4,0.5,2.9s0,2,0.8,2.9c0.8,0.8,3.1,2.9,0,3.2c-3.1,0.3-7.1-0.3-10.4-1.2  c-3.3-0.9-4.9-0.1-6.3,0.4c-1.4,0.4-6.1-1.1-6.3-0.7c-0.2,0.4-0.5,2.5,0.4,4.2c1,1.9,3,6.4,1,7.8c-2.1,1.4-4.2,1.4-4.9,3.8  c-0.7,2.5-2.2,8.8-0.1,9.4c2.1,0.6,3.7,2,2.2,3.3c-1.4,1.2-2.9,0.4-3.6,1.7c-0.6,1.1-2,4.1-2.5,5.1c0.8,0.1,1.6,0.4,2.1,1  c1.6,1.6,3.7,1,4.8,2.5c1.1,1.4,13.7,12.7,15.8,13c2.1,0.3,4.7,3.6,5.9,4.8c1.2,1.2,1.3-3,4.3-2.5c2.3,0.4,5,1.7,5.3,3.3  c0.4-0.1,4.5-2,5.3-3.9c1-2.1,1.4-7.8,3.6-7.4s7.4,2.7,9.7,1.4c2.3-1.4,8-2.6,9-7.1c1-4.5,3.4-8.6,4.6-7.1c1.1,1.4,4,4.6,6.4,4.7  c2.5,0.1,6-0.3,6.4-3.7c0.3-3.4,2.7-4,4.1-5.2c1.4-1.2,1.9-3.4,3.8-2.6c1.9,0.8,7.5-0.3,7.6,0.6c0.1,0.8-0.6,4.4,2.1,3.7  c2.5-0.8,3.8-3.6,5.5-3.3c1.7,0.2,4.2,2.5,4.5,0.8c0.3-1.7,0-2.1-0.7-2.9c-0.7-0.8,1-2.2,1.2-3.8c0.2-1.5,1.8-4.3,1.8-4.4  c-0.2-0.2-0.4-0.5-0.8-1.1c-1-1.5-1.7-1.4-3.4-2c-1.6-0.6-1.6-1.4-1.6-3.2c0-1.7-2.3-2.6-3.1-4.1s-0.6-2.7,1.3-4.3s1.4-2.7,0.7-5.1  c-0.1-0.2-0.1-0.3-0.1-0.4C556.3,248.2,549.1,248,548.2,249.2z" stroke-miterlimit="10" id="path7" stroke="#FFFFFF"/>
<path name="滁州市" fill="#D3D3D3" d="M663.2,315.2c-0.8-1-0.4-3.4-0.4-5.6  s-1.2-7.7-1.9-11.2s-3.2-1.7-4.9-1.4c-1.8,0.3-6.1-4.8-7.6-6c-1.4-1.2-1.6,0.1-1.9-3s-0.1-1.1-2.1-2.3c-2-1.1-5.5,1-6.2,1  s-1.6,0.6-2.6-1.3c-1-1.9-0.8-1.4-2.5-1c-1.7,0.4-4,8.1-4.2,9.8c-0.2,1.7-1.9,1.9-4,1.5c-1.9-0.5-2.5-0.2-1.7,1.7  c0.8,1.9-0.1,3.6,0.4,5.7c0.4,2.2-0.4,3.5-1.5,4.6s-4.3,1.1-5.8-0.8s-1.9-1.5-2.9-0.6c-1,1-3.4,1.4-4.8,1.7c-1.4,0.3-7.4,0-9.5-1.2  c-2.2-1.2-2.9,1-4.1,2.3c-1.2,1.3-3.3-1.1-4.1-3.8c-0.8-2.7-1.2-1.6-3.5-1.5c-2.3,0.1-1.9-2.2-1.9-5.2c0-3.1-0.8-2.9-2.7-3.2  c-1.8-0.3-1.8-1-1.7-4.9c0.1-4,1.4-2.6,4.1-4c2.7-1.4,1.2-2.2-1.5-2.5c-2.8-0.3-2.9-2.2-3.5-5.2c-0.6-3.1-1.2-4.6-1.6-6.4  c-0.5-1.7,0.1-2.5,0.4-3.8c0.4-1.4-1-3.5-1.2-5c-0.3-1.5-1.1-2.9-1.9-3.8c-0.8-0.9-2.1,2.5-2.5,4c-0.3,1.4-3.7,2.3-6.3,3.7  c-1.7,0.8-2.2,1.1-2.6,1c-0.1,0.1-1.6,2.9-1.8,4.4s-1.9,2.9-1.2,3.8c0.7,0.8,1,1.1,0.7,2.9c-0.3,1.7-2.8-0.6-4.5-0.8  c-1.7-0.2-3,2.5-5.6,3.3c-2.5,0.8-1.9-2.8-2.1-3.7c-0.1-0.8-5.7,0.3-7.6-0.6c-1.9-0.8-2.5,1.4-3.8,2.6c-1.4,1.2-3.8,1.8-4.1,5.2  s-3.8,3.8-6.4,3.7c-2.5-0.1-5.3-3.3-6.4-4.7c-1.1-1.4-3.6,2.5-4.6,7s-6.7,5.8-9,7.1c-2.3,1.3-7.5-1-9.7-1.3  c-2.2-0.5-2.7,5.2-3.6,7.4c-0.8,1.9-4.9,3.8-5.3,4c0.1,0.5,0,1.1-0.4,1.5c-1.6,2.2-0.7,4.1,0,5.6c0.7,1.6,2.2,3.7,2.2,5.7  s1.5,3,0.8,5.5c-0.7,2.5-0.5,7.9,3.3,8.3c3.7,0.6,5.7-1.4,7-0.2c1.3,1.2,2.2,0.8,3.4,0.2c1.2-0.7,1.9-0.1,0.3,2.9  c-1.5,2.9-2.2,4.9,0.1,4.8s5.2-0.7,5.4,2.1c0.2,2.7-0.5,6.1-2.9,6.9c-2.5,0.8-1.2,1.8,0.8,3.2c2.1,1.4,7.1,7,10.1,5.2  c3-1.8,4.2-2.9,5-4s2.2-0.6,4.2-1.1c1.9-0.6,1.8-1.4,5.5-0.6c3.8,0.8,4.5,0.5,5.9,2c1.4,1.5,3.3,1.5,3.3,1.5s2.7-1.9,4.1-0.2  c1.3,1.6,1.9,6.3,0.8,9.5c-1.1,3.2,1.4,6.6-1.9,8.8c-2.3,1.7-1.9,3.1-2.2,3.8c0.7,0.7,4.2,4.4,4.2,5.6c0,1.4,1.4,1.6,2.8,1.6  c1.4,0,3.1,0.7,5,2.6s6.2,5.3,7.9,5.1c1.6-0.4,3.7-1.8,4.6-2.9c1-1.1,1.2-2.3,2.7-2.3s2.2,1.1,6.2-1.8c4-2.9,9.4-6.3,10.9-8.5  c1.1-1.6,3.1-3.5,4.1-4.2c1-2.1,7-5.2,8.2-6.3c1.4-1.2,1.5-4.4,1.8-5.6s1.8-2.3,4.6-2.3c2.8,0,3.4-0.4,5.8-1.1s2.6-1,3.8-3.2  c1.2-2.2,0-5.7,0.2-6.9c0.2-1.1,1.9-0.6,2.7-1.4c0.8-0.8,0.6-3.7,0.4-4.3c-0.2-0.7,0.7-1.5-0.8-2.2c-1.5-0.7-0.3-5.3-0.1-7.1  c0.2-1.7,0.1-1.8-1.4-1.3c-1.5,0.5-4.1-0.1-6.1-0.5s-0.8-2.3-0.2-3.8s0-3.1-1.7-4.2c-1.7-1.1-1.9-2.5-0.8-3.2s5.5-0.1,6.8,0.4  c1.2,0.5,3.1-0.8,3.8-1.5c0.7-0.8,1.4-1.5,2.6,0.3c1.1,1.8,1.9-0.3,3.3-0.8c1.3-0.5,2.2,2.9,3.4,1.9c1.1-0.8,4,0.3,5.3,0.3  c1.3,0,2.3,0.1,2.6,1.1c0.3,1.1,0.5,1.7,1.6,1.1c1.1-0.7,2.5,0.4,4,3.1c1.5,2.7,2.3,1.8,5.3,1.5c3.1-0.3,3,2.3,4.3,5.5  c1.3,3.2,1.5-1,3.7-2.2c2.2-1.2,3-3.2,3.2-6c0.2-2.9,1.3-2.6,4.2-4.1C665.8,320.6,664.1,316.2,663.2,315.2z" stroke-miterlimit="10" id="path8" stroke="#FFFFFF"/>
<path name="马鞍山市" fill="#D3D3D3" id="path9" d="M634.5,419.3c-0.3-3-0.1-3.5-0.8-4.4c-0.8-1-1.4-1.3-4.2,1.3  c-2.8,2.7-1.8,0.1-1.8-1.6s0.4-2.2-1.8-2.8c-2.3-0.7-1.4,0.4-3,2.7c-1.5,2.2-5.8,0.4-7-0.6c-1-1-0.4-3,2.4-4.9s-1.4-2.5-3.4-4.4  c-1.9-1.9-2.3-1-5.6-0.1c-3.3,1-4.5-0.8-4.9-3c-0.1-0.6-0.2-1.2-0.2-1.8c0.1-0.1,0.2-0.2,0.2-0.2c-0.2-1.5-0.4-3-1.3-3.7  c-1.2-1-3.6-2.2-5.2-4.4c-1.7-2.2-1.3-1.6-3-1.7c-1.6-0.1-3.7-1.7-3.6-3.3c0.1-1.6,0.1-4.4,2.5-5.6c2.4-1.2,0.5-2.8-0.8-4.6  c-0.2-0.3-0.2-0.7,0-1.1c-1.2,0.7-3.2,2.5-4.3,4.2c-1.5,2.2-7,5.5-10.9,8.5c-4,2.9-4.7,1.8-6.2,1.8c-1.4,0-1.8,1.2-2.7,2.3  c-0.9,1.1-2.9,2.6-4.6,2.9c-1.7,0.4-6-3.2-7.9-5.1c-0.2-0.2-0.5-0.4-0.7-0.6c-2.2,1.4-4.4,2.9-5.6,5.1c-0.7,1.4-1.1,2.9-1.3,4.4  c-0.9,5.2-1.3,10.5,0,15.6c1.5,5.5,5.3,11.4,3.3,16.7c5,2.3,10.6,7.3,15.5,8.9c1,0.3,1.5-3.7,2.1-4.5c0.5-0.6,0.3-1.5,0.1-2.2  c-0.7-2.6-2.5-2.8-3.2-5.3c2-0.1,6.2-0.8,8,0c1.9,0.8,2.4,0.6,4.4,0.9c1.8,0.2,3.5-0.7,5-1.8s2.7-2.4,4.4-3.1  c1.4-0.6,3.3-0.6,4.5,0.3c0,0.1,0,0.2,0,0.3c0.9,0.4,3.7,1.9,4.6,5.9c1,4.6,0.8,9.3,3.8,7.1c2.9-2.2,3.1-2.5,5.2-0.6  c2.2,1.9,2.1,2.3,2.1,4.5c0,2.2,0.7,3.5,2.6,4.4c1.9,1,2.8,0.3,4.9-0.5c1.8-0.6,5.2-0.6,6.1-0.6c0.2-1.4,1.8-3.5,5.9-5  c5.1-1.8,6.7-6.4,7.5-9.4C636.2,427.4,634.8,422.3,634.5,419.3z" stroke-miterlimit="10" stroke="#FFFFFF"/>
<path name="芜湖市" fill="#D3D3D3" id="path10" d="M617.1,452.9c-1.1-1.7-0.7-2.9-1.5-3.8c-0.6-0.6-0.7-2.2-0.7-3.2  c0-0.2,0-0.4,0-0.5c-1.5,0.5-2.4,1-4.1,0.1c-1.9-1-2.6-2.3-2.6-4.4s0.1-2.6-2.1-4.5s-2.3-1.6-5.2,0.6c-2.9,2.2-2.8-2.5-3.8-7.1  c-0.7-3.4-2.9-5-4-5.7c0,0,0,0,0,0c-1.2-1.2-3.2-1.2-4.8-0.5c-1.7,0.7-3,2-4.4,3.1s-3.2,2.1-5,1.8c-2-0.3-2.5-0.1-4.4-0.9  c-1.8-0.8-6-0.1-8,0c0.7,2.6,2.5,2.7,3.2,5.3c0.2,0.7,0.4,1.6-0.1,2.2c-0.6,0.8-1.1,4.8-2.1,4.5c-4.9-1.6-10.5-6.7-15.5-8.9  c0,0,0,0,0,0c-3.7-0.2-7.4-0.4-11.1-0.5c-1.2-0.1-2.4-0.1-3.6,0.2c-2,0.6-3.6,2.2-4.9,3.9c-2.4,2.8-4.7,5.8-6.8,8.8  c-1.6,2.3-3.7,4.9-6.5,4.7c-0.6,0-1.3-0.2-1.8,0.2c-0.3,0.2-0.5,0.7-0.6,1.1c-0.8,3.5,0.2,7.3-0.6,10.9c-0.9,4-4,7.2-5.3,11.1  c-0.7,2.3-0.8,4.8-0.9,7.2c1.6-0.1,3.3-0.3,4-1.1c1.1-1.4,2.2-2.6,4-1.5c1.7,1.1,2.9,4.5,5.2,3.8c2.3-0.8,5.3-1.5,6-0.2  c0.8,1.4,0.8,1.6,1.9,1.1c1.4-0.6,3.2-1.1,4.4-1.4c1-0.1,2.2,0.1,2.6,0.2c0-1.1,0-2.2,0.2-2.9c0.4-1.6,1.9-13.6,6.8-13.3  c4.9,0.3,5.5,1.6,6.3,3.4s2,3.5,4.2,2.9c2-0.6,4.4-2.1,5.7-5c0.4,2.3,1.5,6.6,4,9.1c3.7,3.7,4.5,5.5,6.8,5.5s2.3,1.5,2.3,3.1  c0,1.5,0.2,5.2-3.8,5.5c-4,0.3-4.4,0.8-5.3,2c-0.8,1.1-0.2,2.2-3.5,2.1c-3.2-0.2-3.4-0.4-3.4,1.1c0.2,0.1,0.3,0.3,0.4,0.8  c0.3,1.7,0.3,3.2,2.8,3.7c2.5,0.4,3.4,1.4,4.3,2.5s3.5,1.2,4.5,2.2s1,3.3-0.8,6.4c-0.6,1.1-1.1,2.2-1.7,3.2c0.7-0.1,1.3-0.2,1.9-0.5  c0.9-0.2,1.9-0.8,3.3-1.9c2.2-1.7,1.8-1.7,2.5-3c0.8-1.4,5-3.8,6.6-4.8c0.6-0.4,1.1-0.5,1.5-0.5c0.8,0,1.4,0.3,2.9,0.5  c0.1,0,0.3,0,0.4,0c1.6,0,0-1.6-0.8-2.2c-1-0.7-1.9-1.8-0.7-2.5s1.5-1.9,1.5-3.4c0-0.8,0.4-0.9,1-0.9c0.2,0,0.2,0,0.4,0  c0.4,0,0.8,0,1.1-0.2c1.2-0.6,3.4-2.5,5.6-2.8s1.6,0.8,2,2.6c0.4,1.7,2.1,4.9,3.4,5.9c0.1,0.2,0.3,0.2,0.4,0.2c1,0,1.4-2.5,2.4-3.4  c0.6-0.6,0.7-1.4,0.6-2.3s-0.3-1.8-0.4-2.4c-0.1-0.3-0.1-0.7-0.1-1c0-0.8,0.2-1.7,0.2-2.2c0-0.2,0-0.2-0.1-0.4  c-0.2-0.8-0.4-1.2,1.1-2.2c1.5-1,0.8-2.1-0.6-3.2c-1.4-1.1,1.3-2.6,3.6-3.5c2.2-0.8,1.1-4.1,2.6-5.6c0.5-0.4,1-0.6,1.4-0.6  c1.1,0.1,2.2,1.1,3.2,1.5c1.4,0.8,2.7-2.2,4.8-4.4c2.1-2.2,0.5-3.7-0.3-5c-0.8-1.3,2.2-2.8,2.9-4.1c0-0.1,0.1-0.2,0.1-0.3  C622.2,457.6,618.1,454.5,617.1,452.9z" stroke-miterlimit="10" stroke="#FFFFFF"/>
<path name="安庆市" fill="#D3D3D3" d="M535.3,478.9c-1.1,0.2-3,0.8-4.3,1.4  c-1.3,0.6-1.3,0.3-1.9-1.1c-0.8-1.3-3.8-0.7-6,0.2c-2.3,0.8-3.5-2.6-5.2-3.8s-2.8,0.2-4,1.5s-5.2,1.1-6.5,1.4  c-1.3,0.3-2.5,0-3.7-1.4s-2.1-0.8-4.4,0.1s-2.3-0.1-3.5-1.4c-1.1-1.4-5.5-4.9-6-6.3c-0.4-1.4-1-1.3-2.2-0.8c-1.1,0.6-1.4,1-2.3,0.4  s-0.3-4-0.2-6.4c0.1-2.4-0.8-2.5-1.5-4.9c-0.8-2.5-1.1-3.8-2.9-4.9c-1.4-0.8-2.9-3.2-3.4-4.1c-1.6,0.8-3.3,1.2-3.7,2.3  c-0.4,1.4-3.8,4.5-3.8,6.4c0,1.9,0,2.2-2.9,3.8c-2.9,1.5-5.9,1.8-6.3,2.7c-0.5,1-3,4.5-5,4.9c-1.9,0.4-4.6,0.7-5.1,1.7  c-0.5,1-3.4-0.7-5.7-0.5c-2.3,0.2-1.9-3.2-3.8-1.9c-1.9,1.2-5.9,6.7-6.8,5.2c-1-1.5-0.6-4,1-5.3c1.5-1.3,2.2-8.9,1-8.8  c-1.3,0.1-4,3.4-6.2,3.4s-6.7-4.8-9.5-4c-2.8,0.8-6.5,2.2-7.9,5.3c-1.5,3.1-6.8,8.2-7.8,6.3c-1-1.8-0.6-5-4.5-4.9  c-3.9,0.1-4-0.2-5.5,2.2c-1.2,2-3.1,5-3.7,6.1c1,0.1,1.9,0,2.5,0c1,0,1.6,4,2,5.2c0.3,1.2-2.2,0.7-3.5,1c-1.3,0.3-3.1,1.7-4.8,1.7  c-1.7,0-2.9,0.8-2.9,2.6c0,1.7-1.3,1.8-3.5,1.7c-2.1-0.1-4.4,1.8-5,3.1c-0.6,1.2-0.4,3.5,0.7,5.2c1,1.6-0.5,2.6-0.7,4.4  s-1.1,1.9-3.5,1.3c-2.5-0.6-3.2,1.2-3.6,4.5c-0.4,3.3,1.4,4.4,2.1,6.2c0.7,1.8,2.7,4.2,3.8,4.4c1.1,0.2,1.6,0.4,3,2.3  c1.4,1.8,1,6.8,1.4,8.7s0.4,4,2.1,5.2c1.6,1.2,1.4,2-1.1,2.6c-2.5,0.4-1.3,6.1-0.8,7.6c0.6,1.4,2.9,2.5,4,2.5s5.3,5.3,7.3,7.1  c1.9,1.7,2.6,3.3,2.7,5.2s0,3.2,0.6,4.8c0.6,1.6,0.8,2.8,0.8,4.3s0,2.6,0.7,3.5c0.7,1-0.4,3.4-0.8,6.8c-0.4,3.5,2.6,2.2,3.5,3.8  c0.9,1.6,0.6,10.4,0.3,11.6c-0.3,1,4.8,0.2,7.4,0.4c2.5,0.3,3.5,4.1,4.8,4.7c1.4,0.7,7.2-4.1,10.7-6.7c3.6-2.5,9.3-4,11.2-4.9  s4-3.4,4.1-5.2c0.1-1.8,1.8-6.8,3.4-8.9c1.5-1.9,2.3-2.7,6.3-2.8c2.2-0.1,4.8,0.8,6.7,2c0.8-0.8,6.8-6.8,8.1-8.6  c1.4-1.8,3.4-7.8,5.1-9.7c1.5-1.9,4.2-5.5,3.4-7.9c-0.8-2.3-2.2-3.8-1.5-5.9c0.7-2.1-0.8-4.1,1.1-5.4c1.9-1.3,8.2-8.2,13.5-6.8  s9.1,4.8,11.7,0.4c2.6-4.4,2.6-8.1,2-10.1c-0.7-2.1-0.8-5.6,1.2-5.8c1.9-0.2,6.8-4.5,9.3-4.4s7,2.3,8.7,1.4c1.7-1,3.4-4.8,5.5-6.6  c2.2-1.8,12-2.3,14.6-5.6c2.6-3.2,3.2-7.9,3.1-10.7c-0.1-1.6-0.3-3.7-0.3-5.5C537.6,479.1,536.3,478.9,535.3,478.9z" stroke-miterlimit="10" id="path11" stroke="#FFFFFF"/>
<path name="六安市" fill="#D3D3D3" d="M485.5,423.4c-2.1,0.7-3.2-0.6-4.4-0.8  c-1.1-0.2-1.4,1.6-2.6,1.4c-1.2-0.2-1.5-3-3.5-3.4s-1.5,1.1-1.5,2.2s-5.2,0.8-6.9,0.8c-1.7-0.1-3.3,0.4-3.8,0.8c-0.7,0.4-1,0-4-1.4  s-5-6.6-3.5-8.9c1.4-2.5,1-3.7-1-6.6c-2-2.9-2.6-5.3-4.9-7.9c-2.2-2.6-0.8-4.5,1.2-4.7c2-0.3,2.2-1.8,1.8-4.1  c-0.5-2.2,4.4-5.6,7.2-5.6c2.7,0,4.5-1.8,5.3-2.2c0.8-0.6,4.1-2.2,5.2-3.8c1.1-1.6,3.1,0.1,6-0.4c2.9-0.5-2.3-9.5-3.7-11.5  c-1.3-2,1.9-2.5,3.4-2.5c1.5-0.2,1.3-1.7,1.3-3.1c-0.1-1.4-1.2-2.9-0.4-5.2c0.8-2.3,0.8-3.8,0.4-6c-0.4-2.2,0.8-5.6,0.7-7.1  c-0.2-1.5-7.4-1.4-9.8-1c-2.5,0.3-3-1.9-2.7-4.7c0.3-2.8,0.1-4.9,0.1-7c0-1.6-1.8-4.4-2.3-5.2c-1.9-0.4-3.8-2.1-4.3-3.8  c-0.8-2.5-2.1-4.5-2.6-5.7c-0.4-1.2-1-2.1-2.2-1.5c-1.2,0.6-0.4,1.1-0.4,3.2s-4.4,4.7-4.6,5.3c-0.3,0.7-2.9,2.2-4.8,2.1  c-1.9-0.1-4,1.4-6.2,2.2c-2.2,0.8-3.4,3.7-3.5,4.8c-0.1,1.1-1.3,2.8-2,2.3c-0.7-0.4-0.8,0.3-1.4,1.7c-0.6,1.4-2.2,1.1-3.1,0.4  c-0.8-0.7-3.7-0.3-4.6-0.8c-0.9-0.4-3.8-3.8-4.4-5.2c-0.6-1.4-3.8-1.6-4.9-1.6s-1.4,2.2-2.2,3.1c-0.8,0.8-0.8,1.1-0.1,2  c0.8,1-2.1,1.7-3.7,1.6s-1.9-0.1-2.8,1c-1,1.1-0.2,1.8-2.7-0.7c-2.5-2.3-3.8-7.1-4.2-8.2s-0.8-1.8-2.2-1.7c-1.4,0.1-3.1,0.1-3.8-1.4  c-0.7-1.6-1.7-3.5-2.6-4.4c-1-0.8-2.3-0.3-3.4,1c-1,1-3.8,1.7-4.6,1.9c0.1,0.8-2,4-2.9,4.7c-1.2,1-0.1,1.3,0.8,2.5  c0.8,1.1,0.3,3,0.2,4.4c-0.1,1.4,0.7,4.6,1.7,7.1c1,2.5,0.8,14.2,0.8,15.6c0,1.4,1.5,4.9,2.2,7.5s-0.7,3.5-0.2,5.9  c0.5,2.5,1.2,4.1,0,5.9s-1.8,5.2-1.8,6.8c0,1.6-0.6,5.5-1.5,7.8c-0.9,2.3,0.8,7.1,1.2,8.2c0.5,1.1-0.8,2.2-3.8,1.4  c-3-0.7-2.5,0.1-3.5,0.8c-1.1,0.7-3.7-1.1-6.5-1c-2.9,0.1-4.4,1.5-6,1.5s-6.7,1.9-8.7,4.6c-1.9,2.7-5.1,4.1-7.2,4.9  s-3.4,2.5-3.4,4.2c0,1.7-1.1,3-2.9,4.6c-1.7,1.6-2.9,4.9-2.9,6.8c0,1.9,0.6,4.5-0.4,6.4c-1,1.8-1,4.6-1.5,6.8  c-0.6,2.2,1.9,1.1,3.4,0.8c1.4-0.2,2,1.6,3.5,4.8c1.3,3.2,2.5,3.4,4.2,4.1c1.8,0.8,1.3,3.8,1.3,3.8s1.4,4.3,2.7,6.1  c1.2,1.8,3.2-0.6,4.2-1.9c1-1.3,2.2-3.3,5.2-3.3s6.3,4.6,6.7,6.6c0.4,1.9,1.2,5.2,2.6,5.7c1.4,0.6,4.4-3.2,6-4.5  c1.7-1.3,3.3-0.1,3.5,1.8c0.2,1.9,1,2.7,2.5,3.8c1.4,1.1,2.2,0.8,2.6,2.2c0.4,1.4,0.8,1.7,2.7,1.2c1.8-0.4,1.2,0.4,2.5,1.5  c0.6,0.4,1.4,0.7,2.2,0.8c0.6-1,2.5-4.1,3.7-6.1c1.5-2.3,1.6-2.1,5.5-2.2c4-0.1,3.5,3.1,4.5,4.9c1.1,1.8,6.3-3.3,7.8-6.3  c1.5-3.1,5.1-4.5,7.9-5.3c2.8-0.8,7.2,4,9.4,4s4.9-3.4,6.2-3.4c1.3-0.1,0.6,7.5-1,8.8c-1.5,1.3-1.8,3.8-1,5.3c1,1.5,4.9-4,6.8-5.2  s1.5,2.2,3.8,1.9c2.3-0.2,5.3,1.5,5.7,0.4c0.5-1.1,3.2-1.4,5-1.7s4.5-3.8,5-4.9c0.4-1,3.4-1.2,6.3-2.7s2.9-1.9,2.9-3.8  c0-1.9,3.4-4.9,3.8-6.4c0.5-1.4,3.3-1.8,5-3.2c1.8-1.4,2.1-4.7,2.1-6.2s0.7-2.9,2-5.4c1.3-2.6,4.1-9.4,5.2-10.4c1-1,5.2,0.4,6.4,0.2  c0.8-0.1,2-0.6,3.4-1c-0.6-0.3-1.9-1.1-3-2.1C493.2,421.9,487.5,422.7,485.5,423.4z" stroke-miterlimit="10" id="path12" stroke="#FFFFFF"/>
<path name="合肥市" fill="#D3D3D3" id="path13" d="M548.8,398.7c0.3-1.5,0.6-3,1.3-4.4c1.2-2.2,3.3-3.7,5.6-5.1  c-1.6-1.4-3.1-1.9-4.3-1.9c-1.3,0-2.8-0.3-2.8-1.6c0-1.2-3.5-4.9-4.2-5.6c0.3-0.8,0-2.2,2.2-3.7c3.3-2.2,0.8-5.6,1.9-8.8  c1.1-3.4,0.7-8-0.6-9.6c-1.3-1.6-4,0.2-4,0.2s-1.9,0-3.3-1.5c-1.4-1.5-2.1-1.1-5.9-1.9c-3.8-0.8-3.5,0-5.6,0.6  c-1.9,0.6-3.4,0-4.2,1.1s-2,2.2-5,4s-8.1-3.8-10.1-5.2c-2-1.4-3.4-2.2-0.8-3.2c2.6-0.8,3.2-4.2,2.9-7c-0.2-2.7-3.2-2.2-5.4-2.1  s-1.6-1.9-0.1-4.8s0.8-3.5-0.3-2.8c-1.2,0.7-2.1,1-3.4-0.2c-1.3-1.2-3.4,0.8-7,0.2c-3.7-0.6-4-6-3.3-8.3c0.7-2.5-0.8-3.4-0.8-5.5  c0-1.5-0.8-2.9-1.4-4.2c-0.4,0.5-1.6,1.8-3.8,2.6c-2.7,1.1-7.2-0.2-10.6-0.3s-3.8,0.8-4.7,2.5c-0.8,1.8-2.8,2-5.5,3.3  c-0.8,0.4-1.6,0.5-2.5,0.3c0.6,0.8,2.3,3.7,2.3,5.2c0,2,0.2,4.1-0.1,7c-0.3,2.9,0.2,5,2.7,4.7c2.5-0.2,9.6-0.6,9.8,1  c0.2,1.5-1,5-0.7,7.1c0.5,2.2,0.5,3.7-0.5,6c-0.8,2.3,0.3,3.8,0.4,5.2s0.2,2.9-1.3,3.1c-1.6,0.2-4.8,0.6-3.4,2.5  c1.3,2,6.7,11,3.7,11.5c-2.9,0.5-5-1.2-6,0.4c-1.1,1.7-4.4,3.3-5.2,3.8c-0.8,0.6-2.6,2.2-5.3,2.2s-7.7,3.5-7.2,5.6  c0.5,2.2,0.1,3.8-1.8,4.1c-2,0.3-3.4,2.2-1.2,4.7s2.9,5,4.9,7.9c2,2.9,2.5,4.1,1,6.6c-1.4,2.5,0.5,7.5,3.5,8.9c3,1.4,3.5,1.8,4,1.4  c0.7-0.4,2.2-0.8,3.8-0.8c1.7,0.1,7,0.4,7-0.8c0-1.1-0.6-2.6,1.5-2.2c2,0.4,2.2,3.2,3.5,3.4c1.2,0.2,1.5-1.6,2.6-1.4  c1.1,0.2,2.2,1.4,4.4,0.8c2.1-0.7,7.8-1.4,9.3,0c1,0.9,2.1,1.6,2.8,2c-1.3,0.4-2.5,0.7-3.1,0.8c-1.2,0.2-5.4-1.2-6.4-0.2  c-1,1-3.8,7.9-5.2,10.4c-1.3,2.6-2,4-2,5.5s-0.3,4.8-2.1,6.2c-0.4,0.4-1,0.6-1.4,0.8c0.6,1,2.2,3.2,3.4,4.1c1.8,1.1,2.1,2.5,2.9,4.9  c0.8,2.5,1.6,2.5,1.5,4.9c-0.1,2.5-0.8,5.9,0.2,6.4s1.3,0.1,2.3-0.5c1.1-0.6,1.8-0.7,2.2,0.8c0.4,1.4,4.9,5,6,6.3  c1.1,1.4,1.2,2.2,3.5,1.4c2.3-0.8,3.1-1.4,4.4-0.1c1.2,1.3,2.3,1.5,3.7,1.3c0.5-0.1,1.4-0.1,2.4-0.2c0.1-2.4,0.2-4.9,0.9-7.2  c1.2-3.9,4.4-7.1,5.3-11.1c0.8-3.6-0.2-7.3,0.6-10.9c0.1-0.4,0.2-0.8,0.6-1.1c0.5-0.4,1.2-0.2,1.8-0.2c2.8,0.2,4.9-2.4,6.5-4.7  c2.1-3,4.4-6,6.8-8.8c1.4-1.6,2.9-3.3,4.9-3.9c1.2-0.3,2.4-0.3,3.6-0.2c3.7,0.2,7.4,0.4,11.1,0.5c2.1-5.3-1.8-11.2-3.2-16.8  C547.4,409.3,547.8,403.9,548.8,398.7z" stroke-miterlimit="10" stroke="#FFFFFF"/>
<path name="阜阳市" fill="#D3D3D3" d="M438.8,322.1c-1.8,0-2-1.7-2.9-4.7  c-1-2.9-1.5-3.7-4.6-4.4s-3.5-1.9-3.7-3.7c-0.1-1.7,0.1-5.5,0.5-7.9c0.4-2.3-0.2-3.8-0.7-5.3c-0.5-1.5-1.4-1.4-2.7-1.2  c-1.4,0.2-0.7-1.7-0.1-3.1c0.5-1.2-1-1.4-1.5-1.4c-1.2,1.3-4.1,1.8-7.8,1.8c-5,0-6.1-2.9-7.2-6.2s-4-4-5.6-4.7  c-1.8-0.7-9.1-1.8-5.5-3c3.6-1.3,0-5.6-2.9-6.9c-2.8-1.4-8.9-2.6-11.6-2.7c-2.7-0.1-5.4-3.8-7.9-6.2c-2.6-2.5-0.8-3.4,0.8-4.8  c1.8-1.4,0.1-3.7,0.1-5.6c0-2,2.3-0.8,3.8,0.3s3.1,3.2,3.7-0.7c0.7-3.8-1-4.8-0.7-8.9c0.3-4-0.7-2.1-1.6-3.4  c-0.9-1.4-1.1-3.3-2.6-3.4s-4.7-2.6-5.5-3.7s-3.3-2.5-6.6-2.2c-2.9,0.2-4.7-6.3-5.2-7.9c-0.4,0.1-1,0.1-1.8,0.1  c-2.2,0-2.9,0.2-4.3,1.3c-1.4,1-5.3,1.7-6.5,1.2s-3-0.8-5.1-0.8c-2,0.1-1.8,2.2-1.9,4.1c-0.2,1.9-3,0.1-4.1,0.6c-1,0.5-0.2,4-1.2,5  c-1,0.9-1.2,1.9-1.6,4.7c-0.4,2.9,0.8,5,2.5,6.7s-0.3,4.7-0.8,5.8s-0.8,5-2,5.9c-1.2,1.1-2.1,5.9-2.9,7.6c-0.8,1.8-0.5,2.2-3.7,2.2  c-3.2-0.2-5.5,2.2-6.8,3.5c-1.3,1.3-5.2,1.1-10.1,0.6c-4.9-0.6-6.5-4.1-7.4-6.8c-0.8-2.9-3.1,0.7-4.4,3.3c-1.2,2.6,0.1,6.5,1.5,9  s-1.1,4-2.3,4.9s1,2.3,2,3.2c1,0.8,3.7,0.8,7,0.8s2.2,1.1,2.2,2.5c0.1,1.4,3.7,1.5,6.8,1.5s2.2,1,2.5,2.9c0.3,1.8,1.8,1.6,3.1,1.7  c1.3,0.1,1.2,0.3,0.8,2.5c-0.5,2.2-0.1,2,0.5,3.1c0.6,1-0.5,1.3-1,2.2c-0.6,0.8,0.4,1.9-0.8,4c-1.1,2.1-0.7,5-0.4,6.2  c0.3,1.2-0.6,1.5,0.8,1.4c1.4-0.1,1.9,0.4,2,1.4c0.2,1-0.8,0.8-1.7,1c-1,0-0.4,1.4-0.1,1.9c0.3,0.6,0.2,1.1-0.5,1.6  c-0.8,0.5-0.4,0.8,0.3,0.8s0.2,0.5,1.7,1c1.5,0.6,4.7,1.1,5.6,0.4s1.7,1.2,1.7,2.5c0,1.2,2.2,1,2.9,0.1c0.7-0.8,3.3-0.1,4.4-0.4  c1-0.3,1.8,0.5,1.9,1.5c0.2,1.1,2.9,2,4.1,2.9c1.1,0.8,2.6,0.8,3.2,3.5s3,4.5,4,5.2s1.8,1.1,1.7,2.5c-0.1,1.2,1,0.6,1.7-0.3  c0.7-0.8,4.4,0.3,6.4,0.3c2,0,1.6-1.4,1.6-2.7c0-1.2,0.1-2.3,1.4-4.2c1.3-1.9,1.9-0.5,3.3,0.5c1.3,1,2.2-0.7,3.4-1.2  c1.1-0.6,0.2,2.3,1.4,2.6s3.4-2.5,3.8-3.8c0.4-1.3,3.5-5,5.5-6.2c0.5-0.3,0.7-0.3,0.8,0c0.8-0.2,3.7-0.8,4.6-1.9  c1.1-1.2,2.5-1.8,3.4-1c1,0.8,2.1,2.7,2.6,4.4c0.7,1.6,2.3,1.5,3.8,1.4s1.7,0.6,2.2,1.7c0.5,1.1,1.7,5.9,4.2,8.2  c2.5,2.3,1.8,1.7,2.7,0.7c1-1.1,1.2-1.1,2.8-1c1.6,0.1,4.5-0.7,3.7-1.6c-0.8-1-0.7-1.1,0.1-2c0.8-0.8,1.1-3.1,2.2-3.1  c1.1,0,4.4,0.2,4.9,1.6c0.6,1.4,3.5,4.9,4.4,5.2c1,0.5,3.8,0.1,4.6,0.8c0.8,0.7,2.6,1,3.1-0.4c0.6-1.4,0.7-2.1,1.4-1.7  c0.7,0.5,1.9-1.2,2-2.3s1.3-4,3.5-4.8c1.4-0.6,2.8-1.4,4.1-1.9C442.6,322.3,440.5,322.1,438.8,322.1z" stroke-miterlimit="10" id="path14" stroke="#FFFFFF"/>
<path name="淮南市" fill="#D3D3D3" d="M489.1,315.8c-0.7-1.6-1.6-3.5,0-5.6s-2-4.2-5-4.8  c-3-0.6-3.2,3.7-4.3,2.5c-1.2-1.2-3.8-4.5-5.9-4.8c-2.1-0.3-14.7-11.5-15.8-13c-1.1-1.4-3.2-0.8-4.8-2.5c-1.6-1.6-5.7-1.2-7.7-1.9  c-2-0.7-3.4,1.3-4.9,1.8s-3.8,0-5.6-1.9c-1.9-1.9-6.8-3.3-10-3.5c-3.2-0.2-1.3,3.6-1.3,6.4c0,0.8-0.3,1.4-0.7,1.8  c0.6,0,1.9,0.2,1.5,1.4c-0.6,1.4-1.4,3.3,0.1,3.1c1.4-0.2,2.2-0.3,2.7,1.2c0.5,1.5,1,3,0.7,5.3s-0.6,6.1-0.4,7.9  c0.1,1.7,0.6,2.9,3.7,3.7s3.7,1.5,4.6,4.4c1,2.9,1.1,4.7,2.9,4.7c1.6,0,3.8,0.2,3.4,3.5c0.7-0.3,1.4-0.4,2.1-0.4  c1.9,0.1,4.5-1.4,4.8-2c0.3-0.7,4.6-3.3,4.6-5.3c0-2-0.8-2.6,0.4-3.2s1.7,0.3,2.2,1.5c0.5,1.2,1.8,3.3,2.6,5.7  c0.8,2.5,4,4.9,6.8,3.6c2.7-1.3,4.7-1.5,5.5-3.3s1.4-2.6,4.7-2.5s7.9,1.4,10.6,0.3c2.2-0.8,3.3-2.1,3.8-2.6  C489.6,316.8,489.3,316.2,489.1,315.8z" stroke-miterlimit="10" id="path15" stroke="#FFFFFF"/>
</svg>