<?xml version="1.0" encoding="UTF-8" standalone="no"?><!-- Generator: Adobe Illustrator 18.0.0, SVG Export Plug-In . SVG Version: 6.00 Build 0)  --><svg xmlns="http://www.w3.org/2000/svg" xmlns:xlink="http://www.w3.org/1999/xlink" contentScriptType="text/ecmascript" zoomAndPan="magnify" contentStyleType="text/css" id="图层_1" mapName="山东省" mapType="省市地图" enable-background="new 0 0 800 600" version="1.1" xml:space="preserve" preserveAspectRatio="xMidYMid meet" viewBox="0 0 800 600" x="0px" y="0px">
<path name="德州市" fill="#D3D3D3" stroke-miterlimit="10" d="M205.3,285.4c-0.7-0.9-0.7-3.2,0.2-4.2c1-1,0.9-2.1,0.9-3.3  c0-1.2,0.1-2.1,2.5-3c2.4-0.9,2.2-4.3,4.5-5.5c2.2-1.1,4.8-3,6.1-4.2c1.2-1.2,1.9-4.3,1.2-5.3c-0.6-1,1.7-2.2,3.6-2.9  c1.9-0.6,5.1-3,7.4-3.3c2.4-0.4,0.9-4.2,0.9-6.2c0-2,0.1-2.1,1.5-2.1c1.4,0,4.1-1.2,5.1-4.2c1-3,0.1-8.1-1.9-10.8  c-2-2.7-2.6-5.1-3.2-7.6c-0.6-2.5,3.7-3.2,5.2-4.3c1.5-1.1-0.9-3.1-1.1-6c-0.2-2.9,5.5-3,8.3-3.3c2.9-0.4,0.5-6.6-0.7-8.1  c-1.2-1.5,0.1-1.7,2.2-3.6c2.1-1.9,0.4-6-2.1-8.3c-2.5-2.4-1.5-2.5-1.5-4.5c0-2,0.1-6.7,2.1-8.2c2-1.5,1.6-2.7,1.5-4.3  c-0.1-1.6,4-5.8,5.7-7.4c1.7-1.6,1.6,0.2,1.6,1.6c0,1.4,0.2,3.1,1.5,1.6c1.2-1.5,7.8-3,8.1-4.2c0.2-0.9,4.2-3.5,6.1-4.6  c-0.4-1.2-0.1-2.4,0.3-3.6c0.7-2,4.5-7.5,4.5-10.1c0-2.6,3.7-4.2,3.7-2c0,2.2,1.2,4.3,2.8,2.7c1.6-1.6,2.2-1,4,0  c1.8,1,5.2-1.5,5.4-4.2c0.1-2.7,0.1-6.2,2.2-7.8c2.1-1.6,3-2.9,3.4-4.8c0.4-1.8,0.6-2.1,2.1-2.1c1.5,0,3.8-3.3,2.6-4.3  c-1.2-1-6.6-5.5-6.7-8.2c-0.1-2.7,0.7-5.5,1.7-6.2c0.9-0.6-0.5-4-1.2-5.7c-1.5,2.9-2.8,6.7-2.8,8.3c0,2.6-2.8,4.4-2.8,5.9  c0,1.5-2.8,3.7-4.2,5.7c-1.5,2-4.3,1.2-4.5,0.5c-0.3-0.7-2.4-1.5-4.2-1.4c-1.7,0.1-7.6,0.9-10,0.9c-2.4,0-4.8-0.4-6.6,0.2  c-1.8,0.6-4.6,0.9-5.7,0.4c-1-0.5-4.6,0-6.1,0.8c-1.5,0.8-8.2-0.8-9.9-1c-1.7-0.2-3.1-0.6-5.2,0.2c-2,0.8-5,0.6-6.6,0.8  c-1.7,0.3-4.5,5.5-5,7.7c-0.4,2.2-3.4,4.9-5.7,6.2c-2.3,1.3-2.9,6.3-5,7.7c-2.1,1.4-7.2,5.9-8.5,7.2c-1.4,1.3-3.9,3.3-4.3,5  c-0.4,1.8-2.6,3.1-4,3.1c-1.4,0-2.2,1.2-3,3.2c-0.8,2-3-3.5-3.7-4.4c-0.7-0.9-1.7-2.3-1-4.8c0.7-2.5-1.2-3.3-3.2-3.7  c-2-0.4-1.3,1.3-2.9,1.5c-1.6,0.2-1.2,1.2-2.8,3.4c-1.6,2.2-0.3,2.6-0.3,5.4c0,2.9-1.6,1.8-3.6,0.3c-2-1.5-1.6,2.4-1.6,5.4  c0,3.1,2.6,2,4,3.5c1.4,1.5-2.7,5.6-4.8,5.6c-2.2,0-6.4-0.3-10-0.3c-3.6,0-5.4,0.5-8.8,1.3c-3.4,0.8-4.3,8.5-4.1,11.1  c0.2,2.6-3.1,4.3-5.6,5.4c-2.5,1.1-3.9,7-3.8,10c0.2,3-4.3,8.9-4.3,8.9s-4.3,4.2-4.9,5.2c-0.6,1-0.8,2.4-0.2,4.3  c0.3,0.9-1.6,3.3-3.7,5.6c2.6,0.5,9.6,2,11.7,3.2c2.6,1.5,5.6,1,8.8,3.1c3.1,2.2,7.1,2.4,9.6,0.8c2.5-1.6,5.7-2.2,6.7-4.6  c1-2.5,7.4-13.7,9.4-13.1c2.1,0.6,5.3,6.3,8.4,6.1c3.1-0.2,7.4-0.3,9,1.6c1.6,1.9,3.7,6.8,1.5,6.5c-2.2-0.2-1.4,1.5-1.5,3.1  c-0.1,1.5-3.5,9-3.5,12.7c0,3.7,0.8,13.8,0.7,17.7c-0.1,3.9-1.1,12.2,0.7,13.8c1.8,1.7,2.4,3.8,4.3,4.5c1.9,0.7,3.2,1.9,3.3,4.1  c0.1,1.6,0.9,3.5,1.3,4.5c1.7-0.9,4.8-2.5,6.7-3.1C206.2,288.7,206,286.3,205.3,285.4z" id="path0" stroke="#FFFFFF"/>
<path name="聊城市" fill="#D3D3D3" stroke-miterlimit="10" d="M161.5,320.6c0.5-0.7,0.3-2.9,3.5-2.5c3.2,0.4,2-0.3,4.8-3.1  c2.8-2.8,4.9-5.3,5.5-7.3c0.6-2,3-3.6,4.9-4.3c1.9-0.7,5.7-2.6,7.8-2.6c2.1,0,3.9-2,5.4-2.8c1.5-0.8,3.7-4.9,3.7-4.9s-1.5-3-1.7-5.2  c-0.1-2.2-1.4-3.4-3.3-4.1c-1.9-0.7-2.5-2.8-4.3-4.5c-1.8-1.7-0.8-9.9-0.7-13.8c0.1-3.9-0.7-14.1-0.7-17.7c0-3.7,3.4-11.1,3.5-12.7  c0.1-1.5-0.7-3.3,1.5-3.1c2.2,0.2,0.1-4.6-1.5-6.5c-1.6-1.9-5.8-1.8-9-1.6c-3.1,0.2-6.4-5.4-8.4-6.1c-2.1-0.6-8.4,10.6-9.4,13.1  c-1,2.5-4.2,3-6.7,4.6c-2.5,1.6-6.5,1.4-9.6-0.8c-3.1-2.2-6.2-1.6-8.8-3.1c-2.1-1.2-9.1-2.7-11.7-3.2c-2,2.1-4.1,4.2-4.7,4.7  c-1.3,1.1-1.3,4.1-1.3,5.5c0,1.5-2.3,2.4-3.9,2.3c-1.6-0.1-3.8,1.5-5.1,2.9c-1.3,1.4-4.4,1.1-5.2,0.7c-0.8-0.4-1.4,0-1.4,0.7  s-1.6,0.5-2.9-0.2c-1.3-0.6-1.3,2.3-3.2,3.1c-1.9,0.8-0.7,1.1,0.1,2c0.8,0.9-1.2,1-1.9,1.2c-0.7,0.1-1.2,0.4-1.2,1.6  c0,1.2-1.7,1.8-2.8,2.7c-1.2,0.9-2.9,2-2.9,3.2c0,1.2-1,2.7-2.7,3.3c-1.7,0.7-0.7,2-0.7,3.5c0,1.5-2.5,2.5-2.3,3.8  c0.1,1.3-3.1,4-3.9,5.3c-0.8,1.3,0,3.9,1,5.3c1,1.5-0.4,4.4-0.4,5.7c0,1.3,1,1.5,2.8,3c1.8,1.5,1.6,7,2.1,8.2  c0.5,1.2,3.5,0.1,4.5-0.7c0.9-0.8,0.6,0.7,0.6,2.5c0,1.8,2.6,3.9,4.3,5.5c1.7,1.7,1.5,11.9,0.8,15.9c-0.8,4-2.6,9.4-2.6,12.3  c0,2.8-9.5,5.9-9.7,6.9c-0.2,1-0.3,6.4-0.3,8.1c-0.1,1.7-2.3,4.9-2.8,7.3c-0.5,2.4,0.1,4.9,1.9,6.1c1.8,1.2,6.2-4,7-5  c0.8-1,2.7-2.8,4.8-3.9c2.1-1.1-0.4-2.4-0.6-3.7c-0.3-1.3,1.5-3.1,2.6-3.3c1.1-0.3,2.3,2.1,3.1,3.1c0.8,1,2.9-0.1,4.3-1.4  c1.4-1.3,4.9-0.8,7.7-0.8c2.8,0,3.4-4,4.6-5.1c1.3-1.2,2.6,0.5,4.8,0.5c2.2,0,2.9-2.5,4-4.5c1.1-1.9,8.1-2.9,10.3-2.9  c2.2,0.1,3.4-0.5,6.1-1c2.7-0.5,6.5-3,7.8-3.8c1.3-0.8,4-3.1,5-3.6c0.5-0.2,0.8-0.4,1-0.2C156.3,324.4,161.1,321.2,161.5,320.6z" id="path1" stroke="#FFFFFF"/>
<path name="枣庄市" fill="#D3D3D3" stroke-miterlimit="10" d="M270.4,421.6c-1.8-0.5-2.9,0.4-1.8,1.7c1.1,1.2,0.2,2.2-1.2,1.8  c-1.4-0.5-1.7-0.7-2.6,1c-1,1.7-1.8,2.6-4.1,2.5c-2.3-0.1-4.2,0.6-6.8,2.3c-2.6,1.7-5.6,1.9-8.1,1.9c-2.5,0-3.9,1.3-6.5,3.6  c-2.5,2.3-5.1,1.8-7.4,0.4c-2.3-1.4-3.2-0.6-4.2,0.4c-1,1-2.2,1-4.1,0.1c-1.9-0.8-2.7,3.1-2,5.4c0.7,2.3,6.2,11.5,9.1,12.9  c2.9,1.4,3.7,4.2,3.2,6c-0.5,1.8,0,2.4,1.7,3c1.7,0.6,4.2,2.9,7.6,2.9c3.5,0,2,1.1,3.8,2.2c1.8,1.1,4.2,7.6,5,8.5  c0.8,0.8,2.6,1.3,1.3,4.3c-1.3,3,4.5,4.8,6,6.1c1.4,1.3,2.7,5.4,5.7,5.4c3,0,6.2,6.1,8.6,9.4c2.2,3-1.5,4.9-2.2,5.3  c0.2,0.2,0.5,0.8,2.2,2.3c2.6,2.3,6.5,8.6,12.8,10.8c6.4,2.2,10.5-1.1,12.8-2.7c2.2-1.6,3.4-4.3,5.4-4.9c1.9-0.6,6.7,3,8.4,4.5  c1.8,1.5,1.1-5.1,1.3-8.4c0.2-3.3,0.5-5.6,1.3-7.4c0.2-0.5,0.6-0.8,1-1c0.3-2.8,1.3-9.3,1.3-10.8c0-1.9-3.9-2.8-6.3-3.6  c-2.4-0.8-0.9-3.6-1-6.7c-0.2-3.1-3.6-7.7-4.8-9c-1.2-1.3,1.6-5.7,4.1-8.6c2.5-2.9-1.4-5.6-3.3-6.6c-1.9-1-7.5-3.7-9.2-4.6  c-1.7-0.9-1.5-2.7-1.4-5.4c0.1-2.7-3.4-2.8-5.1-3.6c-1.6-0.8-1.6-2-1.6-3.6s-3.1-3-5.7-3.7c-2.7-0.7-2.4-2.7-2.7-5.2  c-0.1-1.1,0.2-2.1,0.8-3.1c-0.8-0.6-2.4-1.6-4.1-2.8C275.3,422.1,272.2,422.1,270.4,421.6z" id="path2" stroke="#FFFFFF"/>
<path name="威海市" fill="#D3D3D3" stroke-miterlimit="10" d="M770.8,168c-2.5-2.7-2.3,0.6-3.1-0.6c-0.8-1.2-0.8-0.6-3.1,0.2  c-2.3,0.8-4.5,3.1-6.6,3.3c-2.1,0.2-3.3-1.8-3.1,0c0.2,1.8,0.8,3.1-2.1,2.3c-2.9-0.8-2.9-1.4-1-3.3c1.9-1.8,0.6-2.1-3.5-0.8  c-4.1,1.2-10.5,0.8-13.8-0.6c-3.3-1.4-1.4-2.7-3.7-3.9c-2.3-1.2-1.4,0.6-4.1,1.6c-2.7,1-3.5,0.6-5.8-1.6c-2.3-2.3-3.7-3.7-1.4-5.8  c2.3-2.1,1.6-3.5,0.8-5.1c-0.8-1.6-2.5-1.6-4.3,0.6c-1.8,2.3-1.2,0-3.1-1.4c-1.8-1.4-2.5,1-2.7,3.3c-0.2,2.3-2.5,4.9-5.3,6.4  c-2.9,1.4,0,1.8,0.4,3.5c0.4,1.6,1.4,3.1-2.5,2.7c-2.3-0.2-2.1-0.9-1.4-1.7c-2.3,0.4-2.9,3.8-2.6,5.1c0.4,1.4-0.9,2.6-2.3,3.1  c-1.5,0.5-1.2,3.1-1.2,5.2c0,2.1-4,4.2-5.3,4.6c-1.3,0.4-2.8,4.8-5.1,6.6c-2.2,1.9-0.6,3.1,0,3.9c0.6,0.8,1.7,3.1,0.5,3.6  c-1.2,0.5-1.4,3-3,6.2c-1.7,3.1-4.3,1.5-6.8,0.3c-2.5-1.2-3.9-2-5.9-0.6c-2,1.4-1.6,2.2-3.4,1.3c-1.9-1-2.6-0.4-4.8,1.6  c-2.1,2-7.2-1.8-8-2.4c-0.8-0.7-3.1-0.3-3.3,1.6c-0.2,1.9-1.2,1.2-3.2,0.3c-2-0.8-3.9-1.2-5.4-2.8c-1.6-1.7-2.7,0.4-4.3,2.7  c-1.6,2.3-6.1,5.5-7.8,5.6c-1.6,0.1-0.4,4.4-0.4,7.4c0,3.1,1.6,2.4,3.4,2.5c1.8,0.1,3.4,4.4,6.3,6.2c2.9,1.8,4.7,1.9,6.3,1.9  c1.6,0,1.7,0.4,1.8,1.6c0.1,1.3,0.7,1.1,2.1,1.7c1.4,0.6-2.1,2.8-2.6,4.4c-0.6,1.6,1.1,2.8,2.9,3.5c1.8,0.7,3.6,3.4,5.9,3.7  c1.9,0.2,4.4,0.5,5.3,0.6c-0.1-1.9-1.2-3-2.3-4.6c-1.3-1.8-1.7-2.5-0.7-4.4c1-2,2.1,3.3,3.6,3c1.6-0.3,2,1,2,2.7  c0,1.7,2.5,0,2.9-1.8c0.4-1.8,2.5-2.5,5.3-2.9c2.9-0.4-4.6,6.7-7.9,8.5c-3.4,1.8,0.1,1.3,0.9,3.7c0.8,2.3,3.1,0,2.7-0.7  c-0.4-0.7,0.4-2.3,1.8-2.1c1.4,0.3,3.1,0,4,1.3c0.9,1.3-0.5,3.3,2.5,3c3-0.3-1-5.7-1-8c0-2.2,0.1-3.9,2.1-3.9c2,0,0.1,1.4-0.5,2.5  c-0.7,1,3-0.5,7.2-2c4.2-1.4,3.4-2.3,2.8-3.7c-0.6-1.4,0.8-3.1,2.2-3.1s2.3,0,2.4-2.5c0.1-2.5,3.2-1.1,4-2.2c0.8-1.1,1.3-2,1.8-0.5  c0.5,1.5,2.6,0.9,3.4-0.1c0.8-1,1.6-0.8,3.7-0.8s2.1-0.7,1-2.1c-1.1-1.4-1.7-1-2.9,0.4c-1.2,1.4-0.9-0.4-1.9-0.8  c-1-0.4-0.4-1.7,1.7-2.2c2.1-0.5-0.8-2.8,1.2-3.3c2-0.5,0.7,0.9,1.5,1.8c0.8,0.9,3.5,0.8,3.9-0.6c0.4-1.4,1-0.1,3.5,0.4  c2.5,0.5,0.7,7.3,0.7,8.1c0,0.8,0.2,2.1,1.6,0.8c1.4-1.2,1.6-1.7,3.3-1.6c1.6,0.1,1.2-0.6,0.6-1.5c-0.6-0.9-0.2-1.5,1-1.6  c1.2-0.1,1-2.3,0.2-3.1c-0.8-0.8-0.7-2.6,0.4-2.5c1.1,0.1,0.7,3.8,1.7,4.7c1,0.9,1.8-0.1,0.8-1.6c-1-1.5,2.9-5.4,3.3-6.6  c0.4-1.1-0.7-4.5,0.4-4.5s-0.3,2.1,1.2,2.2c1.5,0.1,1.9,0.4,2.6,2.3c0.6,1.8-0.2,2-1.8,1.7c-1.6-0.2-1.7,0.3-2.4,2.1  c-0.6,1.7,1,3.8,1.2,6.5c0.2,2.7,2.7,1.8,3.5,0.8c0.8-1,0.5,0.5,3.4,1.4c2.9,0.9,0.2,1.2-1.2,2c-1.4,0.7-3,1.2-3.4,0  c-0.4-1.2-2.7,1.2-2.3,2.5c0.4,1.2,0.8,1.7-0.5,2.9c-1.3,1.1,1,1.5,4.6,0.7c3.6-0.8,6.9,1.1,10.1,0.9c3.3-0.2,2.5-2.3,1.6-3.3  c-0.8-1,1-1.6,2.8-0.7c1.7,0.9,2.8,0.6,4.7-0.4c1.9-1-1.6-2.3-1.6-4c0-1.7-1.5-2.7-1.5-3.7c0-1,1.6-2.7,1.7-0.3  c0.1,2.4,4.1,1.5,5.9,0.9c1.8-0.6,0.2,2.4,1.7,2.9c1.5,0.5,2.9-1.2,1.3-2.9c-1.5-1.6,0.9-4.5,0.9-6.2c0-1.6-0.3-2.8,1.8-5.8  c2.1-3.1,1.9-2.2,0.5-1.9c-1.3,0.2-2.5,1.6-2.5,2.5c0,1-0.8,2.7-1.5,0.9c-0.7-1.8-2.1-1.5-2.5-0.7c-0.4,0.8-0.9,1.4-1.7-0.4  c-0.8-1.9-3.1,0.9-4.8,3.1c-1.8,2.2-1.4-0.6-0.6-1.9c0.8-1.3-0.8-1.1-2.1-1.4c-1.3-0.3,1.6-1.8,3.6-2.6c2-0.8,3.1-5.5,1.6-5.8  c-1.4-0.3-0.7-1.3-0.7-3.5c0-2.2,3.1-2.5,4.4-2.8c1.3-0.2,5.7-0.6,6.9,0.6c1.2,1.2,2.2-0.4,2.2-4.2c0-3.7,0-2.2,1.7-2.5  c1.7-0.3-1.5-2.2-3.7-4c-2.2-1.8-0.1-3.9-0.6-4.5c-0.6-0.6-1-1.3,0.4-1.6c1.4-0.4-0.2-2-2.5-3.9c-2.3-2,1.3-2,1.7-1.3  c0.4,0.7,0.6,1.5,2,1.5c1.3,0,1.6-1.7,0.6-1.9c-1.1-0.2-2.7-0.6-2.7-1.9c0-1.3,0.5-1.3,2.5-1.6c2-0.4,4.3-2.2,5.3-3  c1-0.8,2.6-0.2,3,1c0.4,1.1,1.3-0.9,1.9-1.3C772.9,170.5,773.3,170.6,770.8,168z" id="path3" stroke="#FFFFFF"/>
<path name="青岛市" fill="#D3D3D3" stroke-miterlimit="10" d="M614.4,275c-0.5-1.1-0.8,1.3-3.2,2c-2.4,0.7-0.4-1.3-1.3-3.2  c-0.9-1.9-2.1,1.8-3.2,1.6c-1.2-0.1-1.3-1.6-0.9-2.8c0.4-1.2-1.3-2.4-2.9-3.4c-1.6-1-4.3,1.9-4.9,5.3c-0.6,3.4-2.2,1-4.6-0.6  c-2.4-1.6,0.3-1.2,0.3-2.8c-0.3-0.3-1-1.1-1.4-1.8c-0.6-0.9-5.7,2.3-7.8,4.3c-2.1,2.1-2.8,0.7-3.3-0.4c-0.5-1.1,2-3.1,3.8-4.2  c1.8-1.2-1.9-6.1-3.3-6.7c-1.3-0.6-2-1.2-2.3-2.3c-0.3-1.1,0.6-1.8-2.1-1.8c-2.7,0-3.4-3.9-3.8-5.8c-0.4-2,0-2.5,2.1-4.2  c2.1-1.7,0.4-5.6-0.4-7.1c-0.8-1.5,1.2-3.6,2.6-5.1c1.4-1.4-0.4-2.9-2-3c-1.7-0.1-0.8-2.9-0.7-4.7c0.1-1.8-0.1-3.2,1.7-3.5  c1.8-0.3,1.4-2.1,1.4-4s0.2-1.9-1.7-1.9c-1.9,0-2.6-0.4-3.7-1.7c-1.1-1.4-3-7.8-3.7-9.2c-0.7-1.3-1.7,1-4.6,1.3  c-2.9,0.3-1.6-0.3-2.7,1c-1.1,1.3-3,2-6.4,2.4c-3.4,0.4-2.8-1.6-2.8-3.1c0.1-1.5-2.1-1.3-3.3,0.2c-1.3,1.5-1.3,0.9-2.7,1  c-1.5,0.1-1.1,3-2.3,3.9c-1.2,0.9-0.4,0.7-0.3,2.5c0.1,1.8-1.1,3.6-4.3,3.5c-3.2-0.1-5.9,0.5-8.9,1.4c-2.9,0.9-7.5,0.2-9.2-0.2  c-1.7-0.5-4.8,0.7-7,2.5c-2.2,1.8-6.9,1.5-9.8,1.2c-2.9-0.2-5.8-1.3-8.1-2.7c-2.3-1.4-3.9-0.7-5.7,0.5c-1.9,1.2-7.4,0.6-7.4,0.6l0,0  c-0.7,1.9-1.6,4-1,6.2c0.9,3,2.3,8.4,0,13.7c-2.3,5.3-6.7,7.6-4,10.7c2.7,3.1,2.9,4.4,5.6,9.6c2.7,5.1,18.4,13.8,20,13.8  c1.6,0,5-0.3,6.4,1.1c1.4,1.4,7.6-0.3,10.8,2.9c3.3,3.1,5.2,4.7,2.3,6.6c-2.9,1.8-7.6,2.5-6.7,4.6c0.9,2.2,0,5.1-2.2,5.1  c-2.2,0-2.1,2.3-1.7,3.6c0.3,1.3,0,4.4-1.3,4.8c-1.3,0.3-4.6,1.7-5.4,4.6c-0.8,2.9-2.3,5.1-1.2,6.8c1.1,1.7,2,4.6-1,4.9  c-3,0.2-5.8,0.7-7-0.3c-1.2-1-1.5-1.9-4-0.2c-2.6,1.7-2.9,0.8-2.8,4.1c0.1,3.4-1.8,5.3,0.4,6.7c2.2,1.5,4.6,3.4,3.7,5.6  c-0.9,2.2-1.9,5.3-0.6,7.5c1.3,2.2,1.6,4.9,2.6,7.4c1,2.5,1.1,7.8-0.8,7.1c-1.9-0.8-4-0.3-4.4,0.7c-0.3,1-1.5,0.1-2.3-0.9  c-0.9-1-0.8,2.4-0.6,3.1c0.2,0.8-3.8,5.5-3.1,6.9c0.7,1.5,3.2,5.3,0,5c-3.2-0.3-6.3-0.6-7.2-1c-0.9-0.4-0.7,2.5-0.6,3.9  c0.1,1.5,0.8,4.3,0.3,6.7c-0.5,2.4,0.8,5.4,3.1,5.4c2.3,0,8.3,1.9,8.4,1.9c0-0.2,0-0.3,0-0.5c0.1-3.1-0.6-1.7-1.3-2.4  c-0.7-0.8,1.1-0.1,1.8-1c0.7-0.9,1.1,0.4,2.9,0.4c1.7,0,3.6-2.8,4.7-4.2c1-1.3,2.7,0.6,3.3,3.7c0.6,3.1,2.3-0.6,3.8-2.6  c1.5-2,1.7-1.6,1.8-3.6c0.1-2,1.8-1.6,2.7-1.2c0.9,0.4-0.8,2.6-0.8,3.6c0,1,1.4,0.4,1.9-0.2c0.5-0.6,0.4-0.1,0.4,2  c0,2.2,1.5,1.1,2.5-0.2c1-1.3,2.6-0.9,3.6-2.2c1-1.3-1-1.1-1.1-2.7c-0.1-1.5-0.2-1.4-1.1-1.7c-1-0.3-1.4-1-0.2-1.2  c1.2-0.2,1.5-0.5,2.9-1.8c1.4-1.3,0.7-3.1-0.6-3.4c-1.3-0.2-1.7-0.6-1.1-1.6c0.6-1,0.1-1.2,2.8-1.8c2.8-0.5,2.1,1.8,3.9,3.3  c1.8,1.5,3.1,1,3.1-0.9c0-1.9,1.2-1.2,1.7-3c0.5-1.8,1.1-3.3,0.2-5.3c-0.9-2-0.3-2.3,0-4c0.3-1.7-2.5-1-2.5-2c0-1,0.7-1.3,1.4-1  c0.7,0.4,1.3,0.5,1.4-0.5c0.1-1-0.5-1,1.5-1c2-0.1,3.3-1.4,3.7-2.4c0.4-1,1.2-1,3.4-1c2.2,0,2.7-3,3.5-4.4c0.8-1.4,2.5-1.1,3.4-1.1  c0.8,0-0.8,2.1-1.6,5c-0.8,3,2.9-1,3.5-3.7c0.6-2.7,4.5-3.1,5.9-3.6c1.4-0.5,1.5-2.7,0.8-3.6c-0.8-0.9-1.9,1-3.9,2.8  c-2.1,1.9-2.2,0.7-1.6-0.3c0.7-1.1,0.3-2.4-0.5-1.7c-0.8,0.7-3.1,0.1-3.9,1.4c-0.9,1.4-1.5-2.3-1.2-4c0.4-1.6,0.4-3,1.6-1.7  c1.3,1.3,2.1-0.1,3.2-1c1.1-0.9,1.3-2.9-2.1-2.1c-3.5,0.8-5-2.1-8.5-4.8c-3.5-2.7-3.6-4.9-2.5-7.2c1.1-2.3,0.9-5.1,0.8-6.9  c-0.1-1.7,1.6-0.8,2,1c0.4,1.7,0.7-0.3,3.1-0.2c2.4,0.1,3.1-0.7,4.5-1.8c1.4-1.2,1.7,0.1,1.6,2.5c-0.1,2.4,0.9,1.3,3.1,0.8  c2.2-0.5,0.4,1.9,2.6,1.5c2.2-0.4,1.5-1.4,0.5-1.9c-1-0.4-0.8-2,0.2-3.8c1-1.8,0.4-2.5-0.3-3.7c-0.8-1.2,1.2-1.3,3.1-3.7  c1.9-2.4,0.4,3.6,1.6,5.2c1.2,1.6-0.3,3.9,2.1,4.6c2.3,0.7-1.3,9.1-2.4,10.5c-1.1,1.4-1.9,2.4-1,3.8c0.9,1.4-0.8,1.5-2.5,4.2  c-1.7,2.7,3.4,1,5.6,0.3c2.3-0.7,7.2-0.7,8.1-1.8c1-1.1,1.6-1.5,4.6-1.9c3-0.4,6.1-2.3,7.4-3.1c1.4-0.8,1-0.9,1.9,0.3  c1,1.1,1.6,0.8,1.7-1.1c0.2-1.9,7.7-0.8,9.4-1.7c1.6-1-0.3-4.6-1.6-7.3c-1.3-2.7-1.3-8.6-1.3-10c0-1.4-2.5,0.5-2.1-1  c0.4-1.5,0.1-1.9-0.6-2.8c-0.7-0.9-1.2-3.7,0.5-3.3c1.7,0.4,2.6,0,5.7,1c3.2,1,0.2-4.8-1.6-5.7c-1.8-0.9-1.7-2.2-0.5-2.9  c1.2-0.7,1.7-1.9,1-3.5c-0.7-1.6-1.2-3,0.4-2.5c1.6,0.5,3,0.1,3-1.5c0-1.6,1.4-2.1,3.6-3.1c2.2-1,2.2,1,4.2,1.7  c2.1,0.6,0.6,3.1,1.9,4.4c1.4,1.3,0.1,5.1,2.1,6.7c2,1.5,2.6,0.2,2.5-1.2c-0.1-1.4,0-2.8,1-3.2c1-0.4,0.4-2-0.7-3  c-1.1-1-0.6-2.5,1.5-2.7c2.1-0.2,2.9,2.2,3.9,0.1c1-2.1-1-2.4-1-4.7c0-2.2,0.6-2.6,2.1-3.4C615.6,276.8,614.9,276.1,614.4,275z" id="path4" stroke="#FFFFFF"/>
<path name="日照市" fill="#D3D3D3" stroke-miterlimit="10" d="M471.2,366.8c-2.7,0.8-3.6,1.4-4.2,2.5c-0.6,1.2-2.4,0.9-2.6-1.4  c-0.2-2.2-1.6-11.8-5.8-11.3c-4.2,0.5-7.5,0.6-8.8,1.3c-1.3,0.7-6.1-2.2-6.7-3.3c-0.6-1.1,4.5-1.6,3.4-6.8c-1.1-5.2-3.2-3.2-4.1-2.6  c-0.9,0.6-5.5,2.3-7.9,1.3c-2.4-1-5.4-1.4-5.5-5.1c-0.1-3.7-1.7-3.1-2.8-2.7c-1.1,0.3-6.4,1.3-6.3,3.7c0.1,2.3-1.2,3.3-2.8,3.7  c-1.6,0.3-3.8-0.4-4.9,1.6c-1.1,2-4.3,3.1-4.3,4.5c0,1.4,0,4.3-2,5.8c-2,1.4-1.1,4.8-1.2,6.7c-0.1,1.9-1.6,8.9,1.5,9.2  c3.2,0.3,6.6-3.2,5.2,5.2c-1.4,8.3-4.2,14.1-4.4,17.8c-0.3,3.7-1.9,9.9-4.3,10.6c-2.4,0.7-5,1.6-5.7,4.7c-0.7,3.2,0.6,5.9,5.3,5.9  c4.7,0,11.3,1.1,12.5-1.7c1.1-2.9,2-2.9,3-1c1,1.9,5.3,5.7,8.3,5.3c3-0.4,0.4-3.2,1.3-4.5c0.9-1.3,3.7-2.7,6.4,0.1  c2.7,2.9,4.3,3.4,6.4,2.3c2.2-1.1,1.6,0,1.3,1.3c-0.3,1.3,0.3,2.4,2,3c1.7,0.6,4.9,12.1,1.9,13.5c-3,1.4-3.4,1.6-1.9,4  c1.6,2.4,4.5,2.6,5.8,2.7c1.1,0.1,2.6,1.3,3,2.5c0.4,0,0.7,0.1,1.1,0.1c1.9,0.4,3.3,1.3,4.4,2.6c1.1,1.3,1.8,1.5,4.2,1  c2.5-0.4,2.6-2.4,2.7-3.5c0.1-1.1,1-3.3,1.3-4.8c0.3-1.5,0.4-3-0.4-2.3c-0.8,0.7-0.8-0.5,0-1.8c0.8-1.2,0.9-3.6,0.8-5.3  c-0.1-1.8-1.5-3,0.1-3.9c1.6-0.9,1.4-1.5,1.5-2.9c0.1-1.4,1.5-1.5,2.5-1.8c1-0.3,2.5,0,2.9-0.9c0.4-0.9,1.5-1.1,3.1-1  c1.6,0.1,2.1-4.7,2.9-6.1c0.8-1.5,1.1,0.3,2.7,0.4c1.5,0.2-0.5-2.8-0.5-4.4c0-1.7,0.1-1.7,0.8-0.3c0.6,1.4,1.2,0.6,1.2-0.7  c0-1.3,3.1-7.2,4-9.2c0.8-2,2-2.1,1.5-3.1c-0.5-1,0.3-2.2,0.5-5c-0.1,0-6.1-1.9-8.4-1.9c-2.3,0-3.7-3-3.1-5.4  c0.6-2.4-0.2-5.2-0.3-6.7c-0.1-1.1-0.2-3.1,0.2-3.8c-0.5-0.5-1.5-1.6-2.4-3.2C474.2,369.6,473.9,366,471.2,366.8z" id="path5" stroke="#FFFFFF"/>
<path name="临沂市" fill="#D3D3D3" stroke-miterlimit="10" d="M431.7,330.9c-3-1.8-8.8-2.5-10-0.8c-1.2,1.7-3.7,3-5.7,1.8  c-2-1.3-2.1-6.2-2.6-8.5c-0.5-2.2-4.2-5.7-5.7-4.6c-1.5,1.1-1.1,5.6-3.3,5.5c-2.2-0.1-8.9-2.3-10.9,0.2c-2.1,2.5-4.2,1.8-4.3,4.7  c-0.1,2.9-2.7,4.8-2.8,5.5c-0.2,0.7,4.8,4.4,1.1,5c-3.6,0.6-4.4,1.1-2.6,3.6c1.8,2.4,2.8,5.3,0.3,5.3c-2.5,0-4.7,2.1-5.9,0.9  c-1.1-1.2-2.5-7.2-4.5-5c-2,2.2-4.4,6.1-6.5,6.2c-2.2,0.1-4.5,0-6.2,1.4c-1.7,1.4-1.6-4.2-5.2-3.9c-3.6,0.3-2.6-3.2-2.6-4.3  c0-1.1-1.3-3.2-3.9-3.2c-2.7,0-5.7-0.1-6.5,2c-0.7,2.1-1.3,4.2-4,5.1c-2.7,0.9-4.3,0.7-4.3,2.1c-0.1,1.4-1.9,7.6-4.6,7.8  c-2.7,0.2-4.3-2.5-5.5-1c-1.2,1.5-2.7,2.5-4.5,3c-1.8,0.5-3.1,0.3-3.1,2.7c0,2.5,2.1,8.7-0.1,10.2c-2.1,1.5-4,1.8-4.4,3.2  c-0.3,1.4-2.2,1.8-4.9,1c-2.7-0.8-10,0.7-11.2,4.8c-1.2,4.1-2.1,12.9-4.5,13.8c-2.5,0.9-6,0.1-6.9-0.1c-0.9-0.2-2.7,1.6-4,4  c-1.3,2.4-3.6,5.7-1.2,6.5c2.4,0.9,3.5,1.2,3.4,4.2c-0.1,3-0.9,3.3-1.8,4.3c-0.9,1-0.4,1.9,0.9,2.9c1.4,1,3.2,4.5,1.5,6.1  c-1.7,1.6-3.9,4-3.6,6.4c0.3,2.5,0,4.6,2.7,5.2c2.7,0.7,5.7,2.1,5.7,3.7s0,2.8,1.6,3.6c1.6,0.8,5.1,0.9,5.1,3.6  c-0.1,2.7-0.3,4.6,1.4,5.4c1.7,0.9,7.3,3.5,9.2,4.6c1.9,1,5.7,3.7,3.3,6.6c-2.5,2.9-5.3,7.3-4.1,8.6c1.2,1.3,4.6,5.9,4.8,9  c0.2,3.1-1.4,5.9,1,6.7c2.4,0.8,6.3,1.7,6.3,3.6c0,1.6-1,8-1.3,10.8c1.2-0.5,3-0.1,5-0.1c2.7,0,4.3-0.7,5.3-1.7c1-0.9,3.7,0,5.8,0.9  c2.1,0.9,3.4,1,6.2,0.7s3.7,1.5,5.5,2.6c1.8,1.2,0.1,5.3-0.7,6.4c-0.8,1.2-0.9,2.2,0.6,2.2s3.1-0.3,5.7,0.5c2.5,0.8-1.5,6-2.3,6.9  c-0.8,0.9,0.6,2.4,2.4,3.9c1.8,1.5,0.9,6.7,2,8.1c1,1.4,4.4-0.7,6.2-2.4c1.8-1.7,3-2,7.4-1.7c4.4,0.3,7.2-1.8,9.6-7.5  c2.4-5.7,0.2-9.5,0-12c-0.2-2.5,1-4.4,2.3-4.4s1.2-2.5,1.4-3.7c0.2-1.2,4.1-4.9,7.4-6c3.3-1.1,9.6,1.4,12.4,2c2.8,0.6,6-2.2,8.6-4.2  c2.6-2-2.4-3.2-3.1-3.9c-0.7-0.7,0.9-4,2.5-5c1.6-0.9,1.4-4.7,1.5-5.7c0.1-1,1.9-4.2,4.4-8.5c2.6-4.3,2.8-7.9,2.7-10.3  c-0.1-2.4,0.8-4.2,2.2-4.3c1.4-0.1,1.7-1.3,2.6-2.1c0.9-0.8,2.3,0.6,3.4,1.1c1.1,0.4,9.3,0.2,11.8-0.1c2.5-0.3,5-1.3,5.9-4.3  c0.9-3,6-2.7,6.9-2.9c0.7-0.2,2.4-0.6,4-0.5c-0.4-1.2-1.9-2.4-3-2.5c-1.2-0.2-4.2-0.3-5.8-2.7c-1.6-2.4-1.1-2.6,1.9-4  c3-1.4-0.1-12.9-1.9-13.5c-1.7-0.6-2.3-1.7-2-3c0.3-1.3,0.9-2.4-1.3-1.3c-2.1,1.1-3.7,0.6-6.4-2.3c-2.7-2.9-5.6-1.4-6.4-0.1  c-0.9,1.3,1.7,4-1.3,4.5c-3,0.4-7.3-3.4-8.3-5.3c-1-1.9-1.9-1.9-3,1c-1.1,2.9-7.7,1.7-12.5,1.7c-4.7,0-6-2.7-5.3-5.9  c0.7-3.2,3.3-4,5.7-4.7c2.4-0.7,4-6.9,4.3-10.6c0.3-3.7,3-9.5,4.4-17.8c1.4-8.3-2-4.9-5.2-5.2c-3.2-0.3-1.6-7.4-1.5-9.2  c0.1-1.9-0.8-5.2,1.2-6.7c2-1.4,2-4.3,2-5.8c0-1.4,3.2-2.5,4.3-4.5c1.1-2,3.3-1.2,4.9-1.6c1.6-0.3,2.9-1.3,2.8-3.7  c-0.1-2.3,5.2-3.3,6.3-3.7c0.7-0.2,1.7-0.6,2.3,0.4C429.3,338.4,434.6,332.6,431.7,330.9z" id="path6" stroke="#FFFFFF"/>
<path name="济宁市" fill="#D3D3D3" stroke-miterlimit="10" d="M285,373.5c-1.3,0.5-2.8,0.1-3.7-1.3c-0.9-1.4-1.7-3.3-3.3-3.3  c-1.5,0-5.1-4.6-6.6-3.1c-1.5,1.5-4.2,5.8-5.6,4.8c-1.4-1-5.5-3.2-9.3-2.3c-3.8,0.8-13.9-5.2-16.9-3.7c-3.1,1.5-3.8,4.7-6.1,4.7  c-2.3,0-2.9,1.6-3.3,3.4c-0.4,1.7-1.3,3-3.7,3.4c-2.3,0.4-4.5,1.1-5.6,2.6c-1.1,1.5-2.1,2-3.7,0.2c-1.5-1.8-4.7-4.4-7.6-4.4  c-3,0-7.2-0.8-5.4-2.6c1.8-1.8,7.7-7.7,5.1-10.8c-2.6-3.1-3.7-2.8-2.5-4.7c1.1-1.9,4.1-6.7,2.9-7.5c-1.2-0.7-2.8-3-5.7-0.6  c-2.9,2.4-5.1,4.6-5.7,6.4c-0.6,1.9-4.5,4.1-6.5,4c-2-0.1-3.8,0-4.7,2.1c-0.8,2.1-2.5,4-3.9,4c-1.4,0-3.9-1.9-6.7-1.9  c-2.8,0-3.6,1-5.5-0.5c-1.9-1.5-3.4-3.1-5-3.7c-1.7-0.7-2.3-8-4.5-7.7c-2.1,0.3-4.6,2.1-6.2,0.7c-1.5-1.3-4.8-8.1-6.6-11.1  c-1,0.7-2.6,0.7-4.4,0c-2.7-1.1-4.2-0.2-6.9,1.7c-2.7,1.9-3.2,4-3.9,5.5c-0.8,1.5,0.6,2.2,1,3.2c0.4,0.9-1.2,1.7-2.7,2.5  c0.4,2.6,1.5,8.3,4,8.2c3.2-0.1,5.9-0.1,7.3,1.8c1.4,1.9,2.1,3.6,4.4,3.4c2.3-0.2,2.9-0.3,3.2,1.7c0.3,2,2.1,2.9,2.4,4.4  c0.3,1.5-0.2,2.3,2,2.5c2.2,0.2,2.5,0.8,2.5,2.7c0,1.9,0.5,6.1-0.5,7.3c-1,1.2-1.9,4.5-1.4,6.8c0.5,2.2,1.2,7.2,3.5,8.6  c2.3,1.4,5,1.4,5.8,7c0.7,5.6,0.5,6.8-0.6,9c-1.1,2.2-1.2,4-0.3,6c0.9,1.9,1,0.7,0.6,5.9c-0.4,5.2,0.3,6.7-0.9,8  c-1.2,1.3-1.3,5.2-3.5,6.5c-2.2,1.3-2.9,2.4-2.4,3.8c0.5,1.4,0.4,2.8-0.9,4.5c-1.4,1.7-3.8,5.4-2.5,7.4c1.3,2,1.8,4.6,4.4,5.1  c2.6,0.4,3.5,1.3,4.7,2.8c1.2,1.5,4.7,0.9,5.8,2.8c1.1,1.8,1.5,2.8,4.1,2.9c2.2,0.1,6.6,1.4,8.3,2.1c0.3-0.6,0.6-1.3,0.7-2.1  c0.7-2.7,5.4-3.8,7.7-4.1c2.2-0.3,4.7-0.5,6.9-1.3c2.2-0.8,6.4-1.8,8.5-2.1c2.1-0.3,4.3,1.1,6.8,1.5c2.5,0.4,4.2-0.1,7.3-0.4  c3.1-0.3,6.3,2.4,7.4,3.7c1.1,1.3,3.1,2.9,5,2.9c1.9,0,2.6,4.4,2.9,7.3c0.3,2.9,2.5,3.3,3.5,3.7c1,0.4,3.2,2.2,4.4,3.5  c1.1,1.3,1.5,3.6,2.4,4.1c0.9,0.5-0.6,3-1.9,4.1c-1.3,1.1-0.9,3.3-0.8,4.8c0.1,1.5,3.1,2.3,4.5,2.3c1.4,0,1.7,0.5,1.8,1.8  c0.2,1.3,1.5,3.5,2.7,5.2c1.2,1.7,0.3,4.4,0.2,7.5c-0.1,3,1.6,7.8,2.5,8.5c0.9,0.7,5.4-1.6,6.7-2c1.3-0.5,0.7-4.1,0.7-5.2  c0-1.1,0.7-1.1,1-2c0.3-0.9,0.6-1.8,1.8-2.6c1.1-0.7,0.1-1.9-0.7-2.5c-0.8-0.6,6.4-2.8,7.2-3c0.3-0.1,0.4-0.1,0.5,0  c0.7-0.4,4.4-2.3,2.2-5.3c-2.4-3.3-5.6-9.4-8.6-9.4c-3,0-4.3-4.1-5.7-5.4c-1.4-1.3-7.3-3.1-6-6.1c1.3-3-0.5-3.5-1.3-4.3  c-0.8-0.8-3.2-7.4-5-8.5c-1.8-1.1-0.4-2.2-3.8-2.2c-3.5,0-6-2.3-7.6-2.9c-1.7-0.6-2.2-1.2-1.7-3c0.5-1.8-0.4-4.5-3.2-6  c-2.9-1.4-8.4-10.6-9.1-12.9c-0.7-2.3,0.1-6.2,2-5.4c1.9,0.8,3.1,0.8,4.1-0.1c1-1,1.9-1.8,4.2-0.4c2.3,1.4,4.9,1.9,7.4-0.4  c2.5-2.3,3.9-3.6,6.5-3.6c2.5,0,5.5-0.2,8.1-1.9c2.6-1.7,4.5-2.4,6.8-2.3c2.3,0.1,3.1-0.8,4.1-2.5c1-1.7,1.2-1.4,2.6-1  c1.4,0.5,2.4-0.5,1.2-1.8c-1.1-1.2,0-2.2,1.8-1.7c1.8,0.5,4.9,0.5,7.4,2.4c1.7,1.2,3.2,2.2,4.1,2.8c0.7-1.3,1.8-2.4,2.8-3.3  c1.7-1.6-0.1-5.1-1.5-6.1c-1.4-1-1.9-1.9-0.9-2.9c0.9-1,1.7-1.3,1.8-4.3c0.1-3-1-3.4-3.4-4.2c-2.4-0.9-0.1-4.1,1.2-6.5  c1.3-2.4,3.2-4.2,4-4c0.9,0.2,4.4,1,6.9,0.1c1.9-0.7,2.8-5.8,3.7-10c-1.5-2-5.4-7.2-7-9.6C287.4,372.9,286.3,373,285,373.5z" id="path7" stroke="#FFFFFF"/>
<path name="菏泽市" fill="#D3D3D3" stroke-miterlimit="10" d="M179.8,480.3c0.4-2.4,1.3-3.9,2.1-5.5c-1.7-0.7-6.1-1.9-8.3-2.1  c-2.6-0.2-3-1.1-4.1-2.9c-1.1-1.8-4.6-1.3-5.8-2.8c-1.2-1.5-2.1-2.3-4.7-2.8c-2.6-0.4-3.1-3.1-4.4-5.1c-1.3-2,1.1-5.7,2.5-7.4  c1.4-1.7,1.5-3.1,0.9-4.5c-0.5-1.4,0.2-2.5,2.4-3.8c2.2-1.3,2.3-5.2,3.5-6.5c1.2-1.3,0.5-2.8,0.9-8c0.4-5.2,0.3-3.9-0.6-5.9  c-0.9-1.9-0.8-3.7,0.3-6c1.1-2.2,1.3-3.4,0.6-9c-0.7-5.6-3.4-5.6-5.8-7c-2.3-1.4-3-6.4-3.5-8.6c-0.5-2.2,0.4-5.6,1.4-6.8  c1-1.2,0.5-5.4,0.5-7.3c0-1.9-0.3-2.5-2.5-2.7c-2.2-0.2-1.7-1-2-2.5c-0.3-1.5-2.1-2.4-2.4-4.4c-0.3-2-0.9-1.9-3.2-1.7  c-2.3,0.2-3-1.5-4.4-3.4c-1.4-1.9-4-1.9-7.3-1.8c-2.5,0.1-3.6-5.6-4-8.2c-0.3,0.2-0.6,0.3-0.9,0.5c-1.7,1-4.1,0.2-5.4-0.4  c-1.2-0.5-1.4-0.8-2.6,0.5c-1.2,1.3-2.2,1.8-3.9,1.9c-1,0.1-1.3,0.5-1.5,1.1c0,0.3,0,0.7,0,1c0,0.1,0,0.3-0.1,0.4c0,0,0,0,0,0  c0,1.3-3.7,7.2-5.1,8.1c-1.4,0.9-9.7,0.1-11.9,0.1s-6.1,4.1-6.8,5.4c-0.7,1.3-2,2.5-4.2,3.6c-2.1,1.1-3.7,4.2-5.2,6.9  c-1.5,2.6-2.8,2.6-4.4,2.6c-1.3-0.1-1.1,1.9-0.6,3c0.1,0.1,0.2,0.3,0.3,0.3c0.2,0.2,0.4,0.5,0.6,0.9c0.6,1.1,1.1,3,1.1,3.7  c0,0.9-8.4,7.2-11,8.7c-1.5,0.9-2.5,0.2-3.5-0.6c-0.2-0.1-0.3-0.3-0.5-0.4c-0.5-0.4-1-0.7-1.6-0.9c-2.1-0.5-3.7,3-4.4,4  c-0.7,1-6,2.3-7.8,2.6c-1.9,0.3-3.1,3.6-3.3,5.2c-0.2,1.7-2.1,5-5.8,10.9c-3.7,5.9-10.1,7.7-10.8,8.7c-0.7,1-1.3,3-1.1,5.1  c0.2,2.1-1,4.4-2.7,6.7c-1.8,2.3-1.7,5.6-0.8,7.2c0.3,0.5,0.6,0.7,0.9,0.7c0.6-0.3,1.2-1,1.7-1.8c0.2-0.2,0.4-0.3,0.6-0.3  c1-0.7,3.2,2.2,4.9,3.7c1,0.9,2,0.9,2.9,0.6c0.7-0.3,1.3-0.7,1.9-1c0.1-0.1,0.3-0.1,0.4-0.1c1.5-0.8,3.8,1.3,5.2,2.1  c0.4,0.2,0.8,0.3,1.2,0.1c0.7-0.4,1.3-1.2,1.6-1.8c0.3-0.5,0.9-0.9,1.7-1.2c0.8-0.3,1.7-0.5,2.9-0.6c2.2-0.2,2.3,1.3,3.4,2.5  c1,1.2,4.7,3.1,6.7,3.9c2.1,0.7,0.7,2.3-0.1,3.4c-0.9,1.1-0.1,1.7,1.8,1.8c2,0.1,1.6,3.3,1.6,5.6c0,2.3,2.3,1.8,5.9,1.3  c3.6-0.5,9.8,7.1,11.7,9.9c1.8,2.8,1.1,12.2,1.6,14.1c0.6,1.9,0.3,3.3,1.6,3.7c1.3,0.4,1.9,1.8,2.7,4.1c0.9,2.3,6.5,2.6,7.3,2.6  c0.8,0,5.4,0.6,6.6,1.2c1.2,0.6,3.1,1.2,4.2,1.2c1.1-0.1,0.5-3.1,2.1-3.9c1.6-0.8,10.3,3.3,11.5,4c1.3,0.7,2.1-0.1,2.9-0.6  c0.8-0.6,3.2-0.6,4.8-0.4c1.7,0.2,3.1-0.8,5.3-0.8c2.2,0.1,3-1.4,4.1-2.3c1.1-0.8,2.4,1.5,3.5,2.2c1,0.7,4.1-0.8,6.1-1.1  c1-0.1,1.7,0.7,2.3,1.7c0.4,0.7,0.8,1.5,1.3,2.2c0.2,0.3,0.5,0.6,0.7,0.8c1.5,1.2,2.4,0.2,3.9-0.6c1.6-0.8,4.1,0,5.7,1.3  c1.6,1.3,2.9-3.1,4.1-4.8c1.2-1.7,4.6-2,7.6-3.7c3-1.6,1.4-9.9,0.9-11.1c-0.5-1.2-0.4-2.9,2-3.2C180.3,486,179.2,483.7,179.8,480.3z  " id="path8" stroke="#FFFFFF"/>
<path name="济南市" fill="#D3D3D3" stroke-miterlimit="10" d="M167.5,328.6c-0.9,1.9-2.3,7.3-0.3,6.9c1.9-0.4,5.7,1.6,6.5,0.2  c0.9-1.5,5.7-6.2,7.8-6.8c2.1-0.5,3.3-0.2,4.6,1.2c1.2,1.5,0.9,1.9,3.1,1.9c2.3,0,2.3,0.3,3.5,1.2c1.2,0.9,3.9-0.8,4.1-2.3  c0.2-1.6,3.2-3.7,2.8-6.1c-0.4-2.4-0.9-3-2.9-3.2c-2-0.2-3.5-3.5-5.1-3.6c-1.6-0.1,1.9-1.9,1.9-3.7c0-1.9-0.9-5.1,2.4-4.4  c3.2,0.7,6,0.5,7.5-1.5c1.5-2,3.9-3.9,5.5-2.7c1.6,1.1,3.5,2.9,5.7,1.2c2.2-1.6,5.2-3.7,8.9-2.6c3.7,1.1,6,2.4,8.9,3.9  c3,1.5,6.3,3.6,8.4,2c2.1-1.6,10-3.6,10.8-5.8c0.8-2.2,1.7-1.7,4.4-2.3c2.7-0.7,4.3-4.2,6.2-5.7c2-1.6,4.3-4.6,5.3-6.9  c1-2.3,5.5-7.4,6.5-4.2c1,3.3,2.2,5.5,3.8,3.8c1.6-1.7,4.2-3.4,5.6-3.4c1.4,0,5.2-0.3,5.2-2c0-1.7,0.1-2,2.3-1  c2.2,0.9,4,0.5,6.8-1.6c2.7-2.1,4.7-6.1,6.4-4c1.4,1.7,4.4,2.2,6.5,1.4c-0.1-0.5-0.1-1.1-0.1-1.7c0.5-2.9,0-5.6-2.2-7.2  c-2.2-1.6-1.9-4.1-1.9-6.3c0-2.2,1.5-8.4,0.6-10.7c-0.9-2.3-2.5-5.5-5.6-6.3c-3-0.8-5.9-3.7-5.7-6c0.2-2.3,2.4-5.6,0.2-6.7  c-2.3-1.1-2.3-1.3-0.9-2.6c1.4-1.3,1.8-5.2-0.8-5.2c-2.5,0-7.7,0.7-9.8,2.7c-2.1,2-7.1,3.1-7.9,0.6c-0.9-2.6-3.1-9.7-4.2-10.4  c-1.1-0.7-1.2-2.9,2.1-3.5c3.3-0.6,9-1,9.4-4.3c0.5-3.2,0.2-5.4-1.4-7.3c-1.6-1.8-3-5.1-2.2-6.9c0.8-1.8,1.7-5,1.7-7.1  c0-2.2-0.7-6.9,0.9-7.7c1.6-0.8,0.9-2.3-0.5-3.1c-1.4-0.8-2.6-1-1.5-3.2c1.1-2.2,1.3-6.8-1.5-6.8c-2.8,0-3.5,0.3-5.6,1.2  c-2.2,0.8-1-2.2-0.5-3.3c0.6-1.2,1-3.2-1.2-5.2c-0.8-0.8-1.3-1.5-1.6-2.3c-1.9,1.2-5.9,3.7-6.1,4.6c-0.2,1.2-6.8,2.7-8.1,4.2  c-1.2,1.5-1.5-0.2-1.5-1.6c0-1.4,0.1-3.2-1.6-1.6c-1.7,1.6-5.8,5.8-5.7,7.4c0.1,1.6,0.5,2.9-1.5,4.3c-2,1.5-2.1,6.2-2.1,8.2  c0,2-1,2.1,1.5,4.5c2.5,2.4,4.2,6.4,2.1,8.3c-2.1,1.9-3.5,2.1-2.2,3.6c1.2,1.5,3.6,7.7,0.7,8.1c-2.9,0.4-8.6,0.5-8.3,3.3  c0.2,2.9,2.6,4.8,1.1,6c-1.5,1.1-5.8,1.9-5.2,4.3c0.6,2.5,1.2,4.8,3.2,7.6c2,2.7,2.9,7.8,1.9,10.8c-1,3-3.7,4.2-5.1,4.2  c-1.4,0-1.5,0.1-1.5,2.1c0,2,1.5,5.8-0.9,6.2c-2.4,0.4-5.6,2.7-7.4,3.3c-1.9,0.6-4.2,1.9-3.6,2.9c0.6,1,0,4.1-1.2,5.3  c-1.2,1.2-3.8,3.1-6.1,4.2c-2.2,1.1-2.1,4.6-4.5,5.5c-2.4,0.9-2.5,1.7-2.5,3c0,1.2,0.1,2.4-0.9,3.3c-1,1-1,3.3-0.2,4.2  c0.7,0.9,0.9,3.2-1.9,4c-1.9,0.5-5,2.1-6.7,3.1c0.2,0.4,0.3,0.7,0.3,0.7s-2.2,4.1-3.7,4.9c-1.5,0.8-3.3,2.8-5.4,2.8  c-2.1,0-5.9,1.9-7.8,2.6c-1.9,0.7-4.3,2.3-4.9,4.3c-0.6,2-2.7,4.5-5.5,7.3c-2.1,2.1-1.9,3-3.1,3.2c0,1.4,0,4.1,0,5.9  C166.7,326.8,168.4,326.7,167.5,328.6z" id="path9" stroke="#FFFFFF"/>
<path name="莱芜市" fill="#D3D3D3" stroke-miterlimit="10" d="M275.8,297.3c1.5,1.4,2.2,2.1,2.2,4.4c0,2.3,0.6,5.7,1.7,7.5  c1.1,1.8,0.7,3.4-0.4,4.9c-1.1,1.5-1.2,3.4,1,3.7c2.2,0.2,4.1-0.6,4.7,1.7c0.6,2.3,3.7,0.9,2.1,2.8c-1.6,2-1.1,4.3-1.2,6.9  c-0.1,2.6,0.4,2.1,2.2,1.5c1.8-0.6,5.2,1.1,6-0.6c0.9-1.7,2,0.7,2.9,2.2c1,1.5,4.5,1.6,7,4.1c2.5,2.5,10.4,1.8,11.8,1.7  c0.9-0.1,2.4-0.2,3.3-0.3c-0.7-0.9-1-2-0.3-3.1c1.4-2.4,3.6-4.1,5.3-4.4c1.7-0.2,3-2.5,3.2-4.5c0.2-2.1-1.1-5.3,0.8-6.6  c2-1.3,6.7-7.4,3.6-10.3c-3.1-2.9-5.5-5.8-5.5-8.1c0-2.3,1.6-6.9-2.3-7.4c-3.9-0.5-8.3-0.6-8.4-2.8c-0.1-2.2,0.9-4-1-6.3  c-1.6-1.8-3.4-3.7-3.9-5.9c-2.1,0.8-5.1,0.3-6.5-1.4c-1.7-2.1-3.6,2-6.4,4c-2.7,2.1-4.6,2.5-6.8,1.6c-2.2-0.9-2.3-0.7-2.3,1  c0,1.7-3.8,2-5.2,2c-1.4,0-4,1.7-5.6,3.4c-1.1,1.2-2,0.5-2.7-1.1C275,290.2,274.6,296.2,275.8,297.3z" id="path10" stroke="#FFFFFF"/>
<path name="泰安市" fill="#D3D3D3" stroke-miterlimit="10" d="M335.6,345.3c-1,0.1-4.9,0.5-6-0.7c-1.1-1.2-2.1-4.3-3.6-3.8  c-1.5,0.5-2.7,1.2-4.2-0.4c-0.8-0.8-1.8-1.7-2.5-2.6c-0.9,0.1-2.4,0.2-3.3,0.3c-1.4,0.1-9.3,0.7-11.8-1.7c-2.5-2.5-6-2.6-7-4.1  c-1-1.5-2.1-3.9-2.9-2.2c-0.9,1.7-4.2,0-6,0.6c-1.8,0.6-2.3,1.1-2.2-1.5c0.1-2.6-0.4-4.9,1.2-6.9c1.6-2-1.5-0.5-2.1-2.8  c-0.6-2.3-2.5-1.5-4.7-1.7c-2.2-0.2-2.1-2.2-1-3.7c1.1-1.5,1.5-3.1,0.4-4.9c-1.1-1.8-1.7-5.2-1.7-7.5c0-2.3-0.7-3.1-2.2-4.4  c-1.2-1.1-0.8-7.1-0.6-9.3c-0.4-0.7-0.7-1.7-1-2.7c-1-3.3-5.5,1.8-6.5,4.2c-1,2.3-3.4,5.3-5.3,6.9c-2,1.6-3.5,5.1-6.2,5.7  c-2.7,0.7-3.6,0.1-4.4,2.3c-0.8,2.2-8.7,4.1-10.8,5.8c-2.1,1.6-5.5-0.5-8.4-2c-3-1.5-5.2-2.7-8.9-3.9c-3.7-1.1-6.7,1-8.9,2.6  c-2.2,1.6-4.1-0.1-5.7-1.2c-1.6-1.1-4,0.7-5.5,2.7c-1.5,2-4.2,2.2-7.5,1.5c-3.2-0.7-2.4,2.5-2.4,4.4c0,1.9-3.5,3.6-1.9,3.7  c1.6,0.1,3.1,3.4,5.1,3.6c2,0.2,2.5,0.9,2.9,3.2c0.4,2.4-2.6,4.5-2.8,6.1c-0.2,1.6-3,3.2-4.1,2.3c-1.2-0.9-1.2-1.2-3.5-1.2  c-2.3,0-1.9-0.5-3.1-1.9c-1.2-1.5-2.5-1.8-4.6-1.2c-2.1,0.5-6.9,5.3-7.8,6.8c-0.9,1.5-4.6-0.5-6.5-0.2c-1.9,0.4-0.5-5.1,0.3-6.9  c0.9-1.9-0.9-1.8-0.9-4.5c0-1.9,0-4.5,0-5.9c-0.4,0.1-0.9,0-1.7-0.1c-3.2-0.4-3,1.8-3.5,2.5c-0.4,0.6-5.2,3.8-6.7,4.9  c0.1,0.1,0.1,0.4-0.1,1c-0.4,1.2-0.8,4.8-2.4,6.2c-1.6,1.4-2.2,4.4-2.6,6.5c-0.1,0.7-0.5,1.2-0.9,1.5c1.8,3,5.1,9.8,6.6,11.1  c1.7,1.5,4.1-0.4,6.2-0.7c2.1-0.3,2.8,7.1,4.5,7.7c1.7,0.7,3.2,2.2,5,3.7c1.9,1.5,2.7,0.5,5.5,0.5c2.8,0,5.3,1.9,6.7,1.9  c1.4,0,3.1-1.9,3.9-4c0.8-2.1,2.6-2.2,4.7-2.1c2,0.1,6-2.1,6.5-4c0.6-1.9,2.8-4,5.7-6.4c2.9-2.4,4.5-0.2,5.7,0.6  c1.2,0.7-1.8,5.5-2.9,7.5c-1.1,1.9-0.1,1.6,2.5,4.7c2.6,3.1-3.3,9-5.1,10.8c-1.8,1.8,2.4,2.6,5.4,2.6c3,0,6.1,2.5,7.6,4.4  c1.5,1.8,2.5,1.3,3.7-0.2c1.1-1.5,3.3-2.2,5.6-2.6c2.3-0.4,3.3-1.6,3.7-3.4c0.4-1.7,0.9-3.4,3.3-3.4c2.3,0,3.1-3.2,6.1-4.7  c3.1-1.5,13.1,4.5,16.9,3.7c3.8-0.8,7.8,1.3,9.3,2.3c1.4,1,4.1-3.3,5.6-4.8c1.5-1.5,5.1,3.1,6.6,3.1c1.5,0,2.3,1.8,3.3,3.3  c0.9,1.4,2.3,1.8,3.7,1.3c1.3-0.5,2.3-0.6,4.4,2.3c1.6,2.4,5.5,7.6,7,9.6c0.3-1.4,0.6-2.8,0.9-3.8c1.2-4.1,8.6-5.6,11.2-4.8  c2.7,0.8,4.5,0.3,4.9-1c0.3-1.4,2.2-1.6,4.4-3.2c2.1-1.5,0.1-7.7,0.1-10.2c0-2.5,1.3-2.2,3.1-2.7c1.8-0.5,3.3-1.5,4.5-3  c1.2-1.5,2.8,1.2,5.5,1c2.7-0.2,4.5-6.4,4.6-7.8c0-0.5,0.3-0.8,0.7-1.1C336.3,347.7,336.3,345.2,335.6,345.3z" id="path11" stroke="#FFFFFF"/>
<path name="淄博市" fill="#D3D3D3" stroke-miterlimit="10" d="M384.8,334.8c-1.3-0.3-2.5-3.9-3.5-6.5c-0.9-2.6-2.8-3.5-5.1-3.8  c-2.3-0.3-6.4-6.4-8.7-7.5c-2.4-1.1-3.2-4.1-2.1-6c1.2-1.9,0.5-4.2-1.3-5.6c-1.8-1.4-1.4-2.9-4.2-5.5c-2.8-2.6-2.6-7.4-2.6-10.6  c0-3.2-2.5-4.8-3.4-11.7c-0.9-6.9,4.1-6,3-11.2c-1-5.2,3.7-8.9,5.5-11.1c1.8-2.2,4.6-2.8,8.3-3.7c3.7-0.9,5.1-2.3,7.6-4.8  c2.5-2.5,3.8-6.4,3.6-9.3c-0.2-2.2,1.8-4.6,2.8-5.7c-1.6,0.1-3.4,0.4-6.4-0.7c-4.5-1.6-8.3-2.1-11-2c-2.7,0.1-2.6-4.9-5.5-4.2  c-2.9,0.7-7.1,3.2-8.4,1.9c-1.3-1.3-4-2.4-3.8-5.7c0.2-3.3,0.7-6.5-1.7-6.6c-2.4-0.1-3.7-1.3-3.7-3.5c0-2.3,0.8-9.9,0-12.7  c-0.8-2.8-6.1-12.4-6.9-11.3c-0.8,1.1-3.7,4.3-5.3,4.6c-1.6,0.3-2.6,2.2-5.4,1.2c-2.8-0.9-4.6-2.3-6.5,0c-1.9,2.3-5.4,4.3-8.3,2  c-2.8-2.3-8-3.2-9.5,0c-1.5,3.2-1.8,10.3-3.9,10.7c-2.2,0.4-0.7,3.4,0.4,5c1.1,1.6,1.9,2.7,4.5,2.6c2.6-0.1,2.8-0.5,4.2,0.9  c1.4,1.5,4.1,1.9,7.7,1.9s7.6-0.5,8.7,2c1.1,2.6,2,7.2,4.2,9.7c2.2,2.6,3.5,7,4.2,8.1c0.7,1.1-0.1,2.2-3.4,2.6  c-3.2,0.4-6,1.6-7.2,4.3c-1.2,2.7-3.9,4.9-2.2,7.2c1.8,2.3,1.9,3.2,0,5.1c-1.9,1.9-3.8,3.8-6,5c-1.6,0.9-4.6,0.8-6.7,0.5  c-0.2,1.1-0.3,2.1-0.3,2.7c0,2.2-0.3,4.7,1.9,6.3c2.2,1.6,2.6,4.3,2.2,7.2c-0.5,2.9,2,5.3,3.9,7.6c2,2.3,0.9,4.1,1,6.3  c0.1,2.2,4.5,2.3,8.4,2.8c3.9,0.5,2.3,5.1,2.3,7.4c0,2.3,2.4,5.2,5.5,8.1c3.1,2.9-1.6,9-3.6,10.3c-2,1.3-0.7,4.5-0.8,6.6  c-0.2,2.1-1.5,4.3-3.2,4.5c-1.7,0.2-3.9,2-5.3,4.4c-1.4,2.4,1.4,4.2,2.9,5.8c1.5,1.6,2.7,0.9,4.2,0.4c1.5-0.5,2.5,2.6,3.6,3.8  c1.1,1.2,5,0.7,6,0.7c0.8-0.1,0.8,2.4,0.7,3.5c0.7-0.4,1.9-0.5,3.6-1.1c2.7-0.9,3.3-2.9,4-5.1c0.7-2.1,3.8-2,6.5-2  c2.7,0,3.9,2.1,3.9,3.2c0,1.1-1,4.6,2.6,4.3c3.6-0.3,3.5,5.3,5.2,3.9c1.7-1.4,4-1.3,6.2-1.4c2.2-0.1,4.5-4,6.5-6.2  c2-2.2,3.3,3.8,4.5,5c1.1,1.2,3.4-0.9,5.9-0.9c2.5,0,1.5-2.9-0.3-5.3c-1.8-2.4-1.1-3,2.6-3.6c3.4-0.6-0.7-3.9-1.1-4.8  C385.9,334.9,385.4,335,384.8,334.8z" id="path12" stroke="#FFFFFF"/>
<path name="潍坊市" fill="#D3D3D3" stroke-miterlimit="10" d="M521.5,282.1c-3.3-3.1-9.4-1.4-10.8-2.9c-1.4-1.4-4.9-1.1-6.4-1.1  c-1.6,0-17.3-8.7-20-13.8c-2.7-5.1-2.9-6.4-5.6-9.6c-2.7-3.1,1.7-5.4,4-10.7c2.3-5.3,0.9-10.7,0-13.7c-0.6-2.1,0.3-4.3,1-6.2  c0.3-0.7,0.5-1.4,0.7-2.1c0.4-2.3-1-3.4-2.2-3.6c-1.2-0.2-1.8-0.3-1.8-2.7c0-2.2,1.4-4.8,1.8-5.3c-1.3,0-2.7-0.4-4.7-0.6  c-3.3-0.4-6.8,1-10.3,2.1c-3.5,1-11.1,0.8-13.2-0.6c-2.1-1.4-4.9-0.8-7.6,0.6c-2.7,1.4-4.5-2.1-5.1-5.5c-0.6-3.5-3.1-0.6-5.8-2.9  c-2.7-2.3-2.9,0-6,0.2c-3.1,0.2,1-4.1,0.8-7.2c-0.2-3.1-3.5-2.7-8.6-2.7c-2.7,0-2.8-1-2.2-2.2c-1.7,0-4.3,0.2-5.7,0.8  c-2.1,0.9-6,1.8-7.1,3.3c-1.1,1.5-0.5,2.7-3.2,3c-2.7,0.2-4.3,2.6-4.3,4.7s-0.2,13.5-2.8,14c-2.5,0.5-9.3-0.1-9.3,2.5  c0,2.5,1.8,4.1,2,6.8c0.2,2.7,0.4,6.3-2.1,5.6c-0.8-0.2-1.6-0.2-2.4-0.2c-1,1.1-3,3.5-2.8,5.7c0.3,2.9-1,6.7-3.6,9.3  c-2.5,2.5-3.9,3.9-7.6,4.8c-3.7,0.9-6.5,1.5-8.3,3.7c-1.8,2.2-6.5,5.9-5.5,11.1c1,5.2-3.9,4.3-3,11.2c0.9,6.9,3.4,8.5,3.4,11.7  c0,3.2-0.2,8,2.6,10.6c2.8,2.6,2.4,4.1,4.2,5.5c1.8,1.4,2.5,3.7,1.3,5.6c-1.2,1.9-0.3,4.9,2.1,6c2.4,1.1,6.4,7.1,8.7,7.5  c2.3,0.3,4.1,1.2,5.1,3.8c0.9,2.6,2.2,6.2,3.5,6.5c0.6,0.1,1.1,0.1,1.5,0c0-0.1,0-0.1,0-0.2c0.2-0.7,2.7-2.6,2.8-5.5  c0.1-2.9,2.2-2.2,4.3-4.7c2.1-2.5,8.7-0.3,10.9-0.2c2.2,0.1,1.8-4.3,3.3-5.5c1.5-1.1,5.2,2.4,5.7,4.6c0.5,2.2,0.6,7.2,2.6,8.5  c2,1.3,4.5-0.1,5.7-1.8c1.2-1.7,7-1,10,0.8c2.9,1.7-2.4,7.5-3.1,8.2c0.3,0.4,0.5,1.2,0.5,2.4c0.1,3.7,3.1,4.1,5.5,5.1  c2.4,1,7-0.7,7.9-1.3c0.9-0.6,3-2.7,4.1,2.6c1.1,5.2-4,5.7-3.4,6.8c0.6,1.1,5.5,4,6.7,3.3c1.3-0.7,4.5-0.8,8.8-1.3  c4.2-0.5,5.6,9.1,5.8,11.3c0.2,2.2,2,2.5,2.6,1.4c0.6-1.1,1.5-1.7,4.2-2.5c2.7-0.8,2.9,2.9,4.2,5c0.9,1.6,1.9,2.7,2.4,3.2  c0.1-0.2,0.3-0.3,0.5-0.2c0.9,0.4,4,0.7,7.2,1c3.2,0.3,0.7-3.6,0-5c-0.7-1.5,3.3-6.2,3.1-6.9c-0.2-0.8-0.3-4.1,0.6-3.1  c0.9,1,2,1.9,2.3,0.9c0.3-1,2.5-1.5,4.4-0.7c1.9,0.8,1.8-4.6,0.8-7.1c-1-2.5-1.2-5.2-2.6-7.4c-1.3-2.2-0.3-5.3,0.6-7.5  c0.9-2.2-1.5-4.1-3.7-5.6c-2.2-1.5-0.3-3.4-0.4-6.7c-0.1-3.4,0.2-2.5,2.8-4.1c2.6-1.7,2.8-0.8,4,0.2c1.2,1,4,0.6,7,0.3  c3-0.2,2.1-3.1,1-4.9c-1.1-1.7,0.4-3.9,1.2-6.8c0.8-2.9,4.1-4.3,5.4-4.6c1.3-0.3,1.6-3.5,1.3-4.8c-0.3-1.3-0.4-3.6,1.7-3.6  c2.2,0,3-2.9,2.2-5.1c-0.9-2.2,3.8-2.8,6.7-4.6C526.8,286.9,524.8,285.2,521.5,282.1z" id="path13" stroke="#FFFFFF"/>
<path name="东营市" fill="#D3D3D3" stroke-miterlimit="10" d="M436.6,127.2c-2-0.5-1.7-1.8-2.7-4.1c-0.9-2.3-1.1-3-1.2-6.1  c-0.1-3.2-2.2-2.6-3.9-3.4c-1.7-0.8-4.9-1.2-5.7-4c-0.8-2.8-1.8-4.4-2.3-8.5c-0.4-4.1-2-3.1-4.3-4.9c-2.3-1.8-3.2-1.4-5.2,0.5  c-2,1.9-1.8-1-0.6-2.4c1.2-1.3-0.9-1.2-3.8-1.8c-2.9-0.6-2.8,0.4-3.1,1.9c-0.3,1.5-1.9,0.5-2.2-1.2c-0.3-1.7-2.2-1.3-3.3-0.1  c-1.1,1.2-2.9,1.2-5.3,1.4c-2.3,0.2,0,2.7,1,4.2c1,1.6,0.7,4.2-0.8,6.5c-1.5,2.2-2.2,1.7-2.3,3.6c-0.2,1.9-0.3,2.8-1.6,0.6  c-1.3-2.2-0.7,2-1.9,2.2c-1.2,0.3-2.2-1-2.2-3.2c0-2.2-0.3-1.7-1.2-2.4c-0.9-0.7-0.7-5.6-1.4-7.2c-0.7-1.6-3.1-0.8-3.9,0.4  c-0.8,1.2-3.4,1.1-5.1-0.3c-1.6-1.4-3.5,0.9-4.7,2.3c-1.2,1.5-2.4,1.3-3.5,0.3c-1.1-1-1,3.4-1.8,4.3c-0.8,0.9-1.1-1.8-0.3-3.3  c0.8-1.5,0.4-2.2,0.4-3.8c0-1.6-0.2-2.5-1.5-2.5c-1.4,0.1-0.7,5.8-1,5.2c-0.3-0.6-1-1.5-1.6-0.7c-0.6,0.8-1.4-0.9-1.5-2.6  c-0.1-1.7-1.2-1.3-1.3,0.3c0,0.8-0.2,1.1-0.4,1.1c-0.5,2,0.7,7.7,1.5,9.7c0.8,2.1,1.3,13.2,1.7,15.1c0.4,1.9,3.6,0.3,5.6-0.3  c2-0.5,3.3,2.4,4.5,5.1c1.2,2.7,1.7,7.2,0.1,7.6c-1.6,0.4-1.5,3.5-2.5,6.4c-1.1,2.9-6.5,4.3-10.3,4.3c-3.7,0-2.8,6.2-4,6.1  c-1.2-0.1-1.6-0.1-2.2,2.3c-0.7,2.3,1,2.9,3.3,3c2.2,0.1,0.1,2-1.3,2.7c-1.4,0.8-2.9,3.3-2.9,4.4c0,1.1-2.1,2.3-2.1,4.7  c0,2.4,3.4,2.7,4.5,4.4c1.1,1.7,1,2.4-0.2,3.7c-1.2,1.2-1.4,2.1-0.6,3.1c0.8,1,6.1-2.2,7.1-2.4c1-0.3,1.4,0.7,1.5,2.4  c0.1,1.8,1.3,0.9,2.8,0.1c1.5-0.8,0.5,0.6,1.4,1c0.9,0.4,2.5-0.1,2.8,2.8c0.3,2.9,1.5,4.7,3.6,5.9c2.1,1.2,0.8,6.4,1.3,10.3  c0.5,3.9-1.1,5.3-2.5,8.3c-1.5,2.9-0.1,4.3,0.9,7.5c1,3-6.4,7.2-7.3,7.7c1.4,1,1.9,4,3.9,3.9c2.7-0.1,6.5,0.4,11,2  c4.5,1.6,6.3,0.1,8.8,0.8c2.5,0.7,2.4-2.9,2.1-5.6c-0.2-2.7-2-4.2-2-6.8c0-2.5,6.8-1.9,9.3-2.5c2.5-0.5,2.8-11.9,2.8-14  s1.6-4.5,4.3-4.7c2.7-0.2,2.1-1.5,3.2-3c1.1-1.5,5-2.4,7.1-3.3c1.4-0.6,4-0.7,5.7-0.8c0.6-1.2,1.9-2.6,2.6-3.9  c1.4-2.7,0-4.1-1.2-2.3c-1.2,1.8-3.5,0.6-2.3-0.2c1.2-0.8,0.2-3.5-0.8-5.1c-1-1.6,1-1.2,3.5,0.4c2.5,1.6,2.9-2.3,1.6-3.7  c-1.2-1.4-0.8-7.8-0.8-10.3c0-2.5-3.3,0.4-4.3-0.8c-1-1.2,4.5-3.3,6.2-4.9c1.6-1.6,1-2.5-1.6-2.5c-2.7,0,1.6-3.3,1.6-4.7  c0-1.4,1.2-3.7,3.3-5.1c2.1-1.4,2.3-1.2,0.6-3.3c-1.6-2.1,5.8,0.4,6-1c0.2-1.4,0.2-4.5,3.1-7c2.9-2.5,4.5-4.1,4.5-5.7  C441.6,129.7,438.7,127.7,436.6,127.2z" id="path14" stroke="#FFFFFF"/>
<path name="滨州市" fill="#D3D3D3" stroke-miterlimit="10" d="M370.8,217.6c-1.1-3.2-2.4-4.5-0.9-7.5c1.5-2.9,3.1-4.4,2.5-8.3  c-0.5-3.9,0.8-9.1-1.3-10.3c-2.1-1.2-3.3-2.9-3.6-5.9c-0.3-2.9-1.9-2.4-2.8-2.8c-0.9-0.4,0.1-1.8-1.4-1c-1.5,0.8-2.7,1.7-2.8-0.1  c-0.1-1.8-0.5-2.7-1.5-2.4c-1,0.3-6.3,3.5-7.1,2.4c-0.8-1-0.7-1.9,0.6-3.1c1.2-1.2,1.3-2,0.2-3.7c-1.1-1.7-4.5-2-4.5-4.4  c0-2.4,2.1-3.6,2.1-4.7c0-1.1,1.5-3.7,2.9-4.4c1.4-0.8,3.6-2.6,1.3-2.7c-2.2-0.1-3.9-0.7-3.3-3c0.7-2.3,1-2.3,2.2-2.3  c1.2,0.1,0.3-6.1,4-6.1c3.7,0,9.2-1.3,10.3-4.3c1.1-2.9,0.9-6,2.5-6.4c1.6-0.4,1.1-4.9-0.1-7.6c-1.2-2.7-2.5-5.6-4.5-5.1  c-2,0.5-5.2,2.1-5.6,0.3c-0.4-1.9-0.9-13-1.7-15.1c-0.7-2-2-7.7-1.5-9.7c-0.2,0-0.5-0.4-0.8-1c-0.6-1.4-1.4,0.4-1.1,1.2  c0.3,0.8,0.1,1.1-0.7,0.8c-0.8-0.3,0.3,2.3,0.3,3.5c0,1.3-0.5,2.1-1.6,1.9c-1.1-0.2-1.4,2.4-0.3,3.5c1.1,1.1,1.2,1.1,0.2,2.6  c-1,1.5-2.1,1.6-2.4,0.2c-0.3-1.5-1.2-0.5-3.2-1.5c-2-1-1.7,0.9-2.9,2.5c-1.2,1.6-0.3,1.9,0.8,3.2c1.1,1.3,0.5,1.4-2.1,0.8  c-2.6-0.5-2.4,3.5-2.2,5.2c0.3,1.6-3.2,3.8-2.7,5.8c0.5,2-1.2,1.6-2.6,0.5c-1.5-1.2-1.1-2.5,1.1-3c2.2-0.5,2.4-3.1,2.4-4.6  s0.1-2.4,0-3.4c-0.1-1-0.8-1.7,1.4-1.9c2.2-0.2,2.4-3.5,2.6-5.2c0.1-1.7-1.1-1-2.7-2c-1.6-1-3.9,1.4-4.6,1.1  c-0.8-0.3,2.4-2.8,3.6-3.7c1.2-0.9,1.8,0.2,2.5-0.3c0.7-0.5,0.8-1.2-0.1-1.5c-0.9-0.2-0.9,0.1-0.9-1.7c0-1.8,0.2-2.4,0.6-3.4  c0.4-1-0.2-1.5-1.5-0.3c-1.2,1.2-2.9-0.6-4.5-1.4c-1.5-0.8-3.4,1-5.2,1c-1.9,0,1-1.5,1.6-2c0.5-0.5,1.6-0.7,1.5-1.6  c-0.1-0.9,1-0.7,2.5-0.4c1.5,0.3,1.8-1.3-0.3-2.3c-2.1-1-2.1,1.4-3.6,2.4c-1.5,0.9-2.4,1.4-4-0.1c-1.6-1.6,2.7-1.7,3.7-2.3  c1-0.6,0.2-0.6-1.3-0.5c-1.5,0-1.1-0.9-1.4-1.7c-0.3-0.7-2.2,1.3-3.7,2.1c-1.5,0.7,1-2.3,1-3.1c0-0.8,0.2-1.2,1.7-2.4  c1.5-1.1-0.2-1.5-0.8-2.4c-0.6-0.9-1.3-1-1.5,0.9c-0.2,1.9-1.1-1.5-1.1-2.5c0-1.1,0-1.1-1.6-0.7c-1.6,0.3-3.3,2.4-3.7,3.7  c-0.3,1.2-1.8,3.2-2.3,5c-0.5,1.8-4,4.2-5.5,6.3c-1.5,2-11.3,2.5-12.9,3.2c-0.6,0.3-1.5,1.6-2.4,3.3c0.8,1.7,2.1,5.1,1.2,5.7  c-1.1,0.7-1.9,3.5-1.7,6.2c0.1,2.7,5.5,7.2,6.7,8.2c1.2,1-1.1,4.3-2.6,4.3c-1.5,0-1.7,0.2-2.1,2.1c-0.4,1.8-1.3,3.2-3.4,4.8  c-2.1,1.6-2.1,5.1-2.2,7.8c-0.1,2.7-3.5,5.1-5.4,4.2c-1.8-1-2.4-1.6-4,0c-1.6,1.6-2.8-0.5-2.8-2.7c0-2.2-3.7-0.6-3.7,2  c0,2.6-3.8,8.1-4.5,10.1c-0.7,2-0.9,3.9,1.3,5.9c2.2,2,1.7,4,1.2,5.2c-0.6,1.2-1.7,4.1,0.5,3.3c2.2-0.8,2.9-1.2,5.6-1.2  c2.8,0,2.6,4.6,1.5,6.8c-1.1,2.2,0.1,2.4,1.5,3.2c1.4,0.8,2.1,2.3,0.5,3.1c-1.6,0.8-0.9,5.5-0.9,7.7c0,2.2-0.9,5.3-1.7,7.1  c-0.8,1.8,0.6,5.1,2.2,6.9c1.6,1.8,1.8,4,1.4,7.3c-0.5,3.2-6.1,3.7-9.4,4.3c-3.3,0.6-3.2,2.8-2.1,3.5c1.1,0.7,3.3,7.9,4.2,10.4  c0.9,2.6,5.9,1.4,7.9-0.6c2.1-2,7.3-2.7,9.8-2.7c2.5,0,2.2,3.9,0.8,5.2c-1.4,1.3-1.4,1.5,0.9,2.6c2.3,1.1,0,4.4-0.2,6.7  c-0.2,2.3,2.6,5.2,5.7,6c3,0.8,4.7,4,5.6,6.3c0.6,1.6,0.1,5.3-0.3,8c2.1,0.4,5.1,0.5,6.7-0.5c2.2-1.2,4.1-3.1,6-5  c1.9-1.9,1.8-2.8,0-5.1c-1.8-2.3,0.9-4.5,2.2-7.2c1.2-2.7,3.9-3.9,7.2-4.3c3.2-0.4,4.1-1.5,3.4-2.6c-0.7-1.1-2-5.5-4.2-8.1  c-2.2-2.6-3.1-7.2-4.2-9.7c-1.1-2.6-5-2-8.7-2s-6.4-0.4-7.7-1.9c-1.4-1.5-1.6-1.1-4.2-0.9c-2.6,0.1-3.4-0.9-4.5-2.6  c-1.1-1.6-2.6-4.6-0.4-5c2.2-0.4,2.4-7.4,3.9-10.7c1.5-3.2,6.6-2.3,9.5,0c2.8,2.3,6.4,0.3,8.3-2c1.9-2.3,3.7-0.9,6.5,0  c2.8,0.9,3.8-0.9,5.4-1.2c1.6-0.3,4.5-3.5,5.3-4.6c0.8-1.1,6.2,8.5,6.9,11.3c0.8,2.8,0,10.4,0,12.7c0,2.3,1.4,3.4,3.7,3.5  c2.4,0.1,1.9,3.3,1.7,6.6c-0.2,3.3,2.5,4.3,3.8,5.7c1.3,1.3,5.5-1.2,8.4-1.9c0.7-0.2,1.2,0,1.6,0.3  C364.4,224.8,371.8,220.6,370.8,217.6z" id="path15" stroke="#FFFFFF"/>
<path name="烟台市" fill="#D3D3D3" stroke-miterlimit="10" d="M575.5,110.1c0,0-1-1.5-0.4-1.7c0.6-0.2,2.6-1.1,2.7,0.6  c0.1,1.7,0.2,2.8-0.9,2.3C575.8,110.7,575.5,110.1,575.5,110.1L575.5,110.1z M589.2,117.9c-0.2,0-2.8-1.4-2.7-2.3  c0.1-0.9-0.2-3.9,0.6-4.6c0.8-0.6,1.3-0.4,1.7,0.4c0.4,0.8,1.4,3.2,1.6,4.6c0.2,1.3,0.3,2.6-0.4,2.5  C589.3,118.3,589.4,117.9,589.2,117.9L589.2,117.9z M585.8,109.1c-0.5,0-2-1-2-1.8c0-0.8,0.3-1.2,1.2-0.8c0.9,0.4,2.4,0.8,2,1.8  C586.7,109.2,586.3,109.1,585.8,109.1L585.8,109.1z M589,86.6c-0.1-0.1-2-0.7-2-1.7c0-1,0.5-3,1.1-2.1c0.6,0.9,0.4,1.7,1.3,2  c0.9,0.3,1.6,1,1,1.4C589.8,86.6,589,86.6,589,86.6L589,86.6z M592.2,70.6c0.1-0.7,1.1-2.5,2-2.8c0.8-0.2,2.4-0.4,2.4,0.1  c0.1,0.5,0.1,1-0.7,1.5C595.1,69.9,592.2,71.4,592.2,70.6L592.2,70.6z M698.3,165.3c-3.3,1.6-6.6,1.4-9.7,1.2  c-3.1-0.2-3.7-0.4-2.7,2.7c1,3.1-1.8,1.4-3.3-0.8c-1.4-2.3-1.9-2.1-3.9-2.7c-2.1-0.6-2.9,0.2-2.7,2.5c0.2,2.3-0.4,0.6-4.7,0.2  c-4.3-0.4,3.1-1.8,2.7-3.9c-0.4-2.1-2.3,0.6-6.6,3.9c-4.3,3.3-1.2-0.4-6.2-1.8c-4.9-1.4-6-3.5-7.4-6.8c-1.4-3.3-2.9-2.5-5.3-4.7  c-2.5-2.3,0.2-3.7,2.7-3.1c2.5,0.6,3.3-2.3,1.6-2.3c-1.6,0-3.3,1-5.8-1.2c-2.5-2.3-2.5-0.4-1.2,1.2c1.2,1.6-0.4,1.8-2.1,3.9  c-1.6,2.1-3.1,4.1-3.1,2.7c0-1.4-1-2.3-7-2.3c-6,0-3.1-1.8-6-3.5c-2.9-1.6-1.9-1.4-1-3.5c0.8-2.1,1.4-2.5-0.2-3.7  c-1.6-1.2-0.2,0,0.4-3.3c0.6-3.3-1.8-1.2-1.8-1.2s-2.7-0.8-5.3,0.6c-2.7,1.4-4.1-1-5.3-2.7c-1.2-1.6,0-3.5-3.7-3.9  c-3.7-0.4-2.1-0.8-2.7-3.5c-0.6-2.7-1.4-2.5-3.7-3.5c-2.3-1-2.5-2.1-4.5-0.4c-2.1,1.6-3.1,1.4-7.4,0.4c-4.3-1-11.1,2.7-14.2,4.7  c-3.1,2.1-3.9,3.1-6.8,2.9c-2.9-0.2-3.1,2.7-6.6,1.8c-3.5-0.8-4.7,1-6.4,4.3c-1.6,3.3-14.2,3.7-17.1,2.9c-2.9-0.8,2.3,2.5,4.5,2.5  c2.3,0,3.1,0,4.3,1.6c1.2,1.6-0.2,9-3.5,9.2c-3.3,0.2-1.6,3.1-3.9,3.1c-2.3,0-2.1,1.4-2.3,3.9c-0.2,2.5-10.1,5.8-11.5,7  c-1.4,1.2-2.9,2.3-4.9,2.1c-2.1-0.2-4.1,2.9-6.2,2.9c-2.1,0-3.9,0.8-1.6,1.6c2.3,0.8-4.1,2.1-6.6,2.5c-2.5,0.4-4.5,2.1-3.9,3.3  c0.6,1.2,2.9,1.6,4.5,2.1c1.6,0.4,2.7,2.9,0.4,8.6c-2.3,5.8-5.5,6-6.4,7.4c-0.8,1.4-2.5,4.7-5.8,7.4c-3.3,2.7-4.1,2.3-5.3,1.6  c-1.2-0.6-6.2-0.8-8.4,0.4c-0.9,0.5-1.8,0.7-2.7,0.6c-0.3,0.6-1.8,3.2-1.8,5.3c0,2.5,0.6,2.5,1.8,2.7c1.2,0.2,2.6,1.4,2.2,3.6  c-0.1,0.6-0.4,1.3-0.7,2.1l0,0c0,0,5.5,0.6,7.4-0.6c1.9-1.2,3.5-1.9,5.7-0.5c2.3,1.4,5.2,2.4,8.1,2.7c2.9,0.2,7.6,0.6,9.8-1.2  c2.2-1.8,5.3-3,7-2.5c1.7,0.5,6.3,1.1,9.2,0.2c2.9-0.9,5.6-1.5,8.9-1.4c3.2,0.1,4.4-1.6,4.3-3.5c-0.1-1.8-0.9-1.6,0.3-2.5  c1.2-0.9,0.9-3.8,2.3-3.9c1.5-0.1,1.5,0.5,2.7-1c1.3-1.5,3.4-1.6,3.3-0.2c-0.1,1.5-0.6,3.5,2.8,3.1c3.4-0.4,5.3-1.1,6.4-2.4  c1.1-1.3-0.3-0.7,2.7-1c2.9-0.3,3.9-2.7,4.6-1.3c0.7,1.3,2.5,7.8,3.7,9.2c1.1,1.4,1.8,1.7,3.7,1.7c1.9,0,1.7,0.1,1.7,1.9  s0.4,3.6-1.4,4c-1.8,0.3-1.7,1.7-1.7,3.5c-0.1,1.8-1,4.6,0.7,4.7c1.7,0.1,3.4,1.5,2,3c-1.4,1.4-3.4,3.6-2.6,5.1  c0.8,1.5,2.5,5.4,0.4,7.1c-2.1,1.7-2.5,2.2-2.1,4.2c0.4,2,1,5.8,3.8,5.8c2.7,0,1.8,0.6,2.1,1.8c0.3,1.1,1,1.8,2.3,2.3  c1.3,0.6,5.1,5.5,3.3,6.7c-1.8,1.2-4.3,3.1-3.8,4.2c0.5,1.1,1.2,2.5,3.3,0.4c2.1-2.1,7.2-5.3,7.8-4.3c0.4,0.7,1.1,1.5,1.4,1.8  c0,0,0,0,0,0c0-1.6,3.1-2.4,3.5-4.1c0.4-1.8,2.4-2.7,4.4-3c2.1-0.3,0.3-0.9,0.4-2.1c0.1-1.2,3.4,0.1,4.7,1.5  c1.3,1.3,2.8,0.4,5.4,1.5c2.7,1,0.3,1.9-1.6,3.7c-1.9,1.8,3.2,2.1,5.9,2.4c2.7,0.3,2.9,0.7,3.4-2.1c0.4-2.8-0.3-2.7-2.1-3.4  c-1.8-0.7,1.9-1.9,3.5-0.9c1.6,1,1.2,1.6,1.5,2.8c0.3,1.2,4.6-4,6.8-5c2.2-1,2.2-1.9,0.9-1.9c-1.3,0-2.8-1.5-1-1.8  c1.8-0.3,3.2-1.8,3.8-2.8c0.6-1,1.6,0.6,0.1,2.5c-1.5,1.9,1.3,1.9,3.2,0.6c1.9-1.3,3.2,1.3,4.6-1.5c1.3-2.8,7.2-1.8,8.5-3.5  c1.3-1.8,0,1.9,2.2,2.4c2.2,0.4-0.3-3.4,0.1-5c0.4-1.7,3.9-1,5.7-1c1.8,0,2.6-0.8,2.7-3.3c0-0.3,0-0.5,0-0.8  c-0.8-0.1-3.3-0.3-5.3-0.6c-2.3-0.3-4.1-2.9-5.9-3.7c-1.8-0.7-3.5-1.9-2.9-3.5c0.6-1.6,4-3.8,2.6-4.4c-1.4-0.6-2-0.4-2.1-1.7  c-0.1-1.2-0.1-1.6-1.8-1.6c-1.6,0-3.5-0.1-6.3-1.9c-2.9-1.8-4.5-6.1-6.3-6.2c-1.8-0.1-3.4,0.6-3.4-2.5c0-3.1-1.2-7.4,0.4-7.4  c1.6-0.1,6.2-3.3,7.8-5.6c1.6-2.3,2.7-4.4,4.3-2.7c1.6,1.7,3.5,2,5.4,2.8c2,0.8,3,1.6,3.2-0.3c0.2-1.9,2.5-2.2,3.3-1.6  c0.8,0.7,5.9,4.4,8,2.4c2.1-2,2.9-2.5,4.8-1.6c1.9,1,1.5,0.1,3.4-1.3c2-1.4,3.3-0.6,5.9,0.6c2.5,1.2,5.2,2.8,6.8-0.3  c1.7-3.1,1.9-5.7,3-6.2c1.2-0.5,0.1-2.8-0.5-3.6c-0.6-0.8-2.2-2.1,0-3.9c2.2-1.9,3.8-6.3,5.1-6.6c1.3-0.4,5.3-2.5,5.3-4.6  c0-2.1-0.3-4.7,1.2-5.2c1.5-0.5,2.7-1.8,2.3-3.1c-0.4-1.3,0.3-4.8,2.6-5.1c0.4-0.6,1.1-1.2,1.2-1.8  C703.2,163.7,701.6,163.7,698.3,165.3z" id="path16" stroke="#FFFFFF"/>
</svg>