<?xml version="1.0" encoding="UTF-8" standalone="no"?><!-- Generator: Adobe Illustrator 18.0.0, SVG Export Plug-In . SVG Version: 6.00 Build 0)  --><svg xmlns="http://www.w3.org/2000/svg" xmlns:xlink="http://www.w3.org/1999/xlink" contentScriptType="text/ecmascript" zoomAndPan="magnify" contentStyleType="text/css" id="图层_1" mapName="广东省" mapType="省市地图" enable-background="new 0 0 1000 1000" version="1.1" xml:space="preserve" preserveAspectRatio="xMidYMid meet" viewBox="0 0 1000 1000" x="0px" y="0px">
<path name="清远市" fill="#D3D3D3" id="path0" d="M473.8,411.8c0-2.4,0.5-7,5-7.3c4.5-0.4,10.9-4.4,11.5-7.1  c0.5-2.8,6.8-6.4,8.9-4.9c2.1,1.5,10.1,4.4,15.7,3.3c5.8-1,8.9-4.1,6.6-8.1c-2.3-4-2.1-10.4,1.5-10.9c3.6-0.5,10.8-1.4,12.8-4.4  c1.9-2.9,5.9-6.6,6.3-7c-0.5-0.1-1-0.3-1.3-0.6c-1.9-1.9-7.5-7.6-3.9-10.5c3.5-2.9,11.1-8.1,11.1-11.6s1.1-10.1,3.9-11  c2.8-0.9,4.6-6.4-1.5-8.6c-6.1-2.3-5.6-7.8-5.4-10.4c0.1-2.5-5.3-10-8.1-10.5c-2.9-0.5-7.4-2.6-11.8-5.8c-4.3-3.3-5.9-3.5-9.4-4.3  c-3.5-0.8-6.1-0.5-9.4,1.1c-3.3,1.6-10,6.3-12.4,3s-4.9-4.6-7.8-3.5c-3,1.1-6.7-1.1-11.5-1.9c-4.9-0.8-13.8-0.3-15,2.4  c-1.4,2.8-3.5,6.3-6.5,3c-3-3.3-7.2-7.5-9.6-9.8c-2.4-2.1-4.6-3-3.5-6.8c1.1-3.8,3.8-7.5,3-11.3s-0.3-5.9,3.5-8.9s2.6-6.8,5.9-9.1  c3.1-2.3,2.8-10-3-10.6c-4.1,1.6-13.4,4.9-15.6,4.1c-2.4-0.7-8.1-9.3-8.3-13.1c-0.3-3.9-3.1-15.6-6.4-15.6s-7.8-0.7-11-0.4  c-3.3,0.4-7.4-1-9.6-2.8c-2.4-1.8-7.1-8.8-13.4-7c-6.1,1.8-7.5,2.4-11.4,0c-3.9-2.4-9.6-3.6-10,1.4s-1.5,12.1-4.6,16.3  c-3.1,4-2.1,9.1-0.4,11c1.8,1.9,6.1,7.7,4,11c-2.1,3.3-3.3,5.3-7,6c-3.6,0.8-7.1,6.6-10,8.1c-2.9,1.5-13.1,11.4-11.7,15.6  c1.4,4.3,6.6,7.4,7.5,10.4c1,3.1-2.5,7.4,0.4,9.9s3.6,2.7,6,7.5c2.4,4.9,1.5,9.2-2.1,12c-1.6,1.3-5.4,3.5-8.9,6.1  c2,2.5,7.9,9.5,9,8.4c1.5-1.3,1.3-3,1.6-6.3c0.4-3.4,2.1-5.9,5.6-1.3c3.6,4.6,8.1,8.6,11.8,7.1c3.6-1.5,10.5-7.8,9.6-12  c-0.9-4.3-4.4-12.6-1-12.6c3.4,0,3.6,2.3,7.8,4c4.3,1.6,6.8,2.1,9.3,6.1s5.6,8.8,4.4,14.5c-1.3,5.6-3.8,11.1,0.3,11.1  c4,0,4.9,0.3,5,4.9c0.3,4.6-1.5,12.8,2.3,13s5,0,7.5,2.5s5.6,3,8.4,3.1c2.8,0.3,3.4,1.3,4,5.5c0.6,4.2,0.9,10.1,2.5,17  c1.6,6.9,1.5,7.5,4,9.3c2.5,1.6,1.3,4.4,2.5,6.5c1.3,2,1.9,8,3.6,8.9c0.4-2.4,1.3-0.9,4.9,0.4c3.9,1.4,2.4,4.1,1.9,6.9  s0.6,3.3,2.8,3.3c1.4,0,3,4,4.8,7.4c0.8-0.6,13.6-10.5,16.9-10.8C469.8,417,473.8,414.1,473.8,411.8z" stroke-miterlimit="10" stroke="#FFFFFF"/>
<path name="肇庆市" fill="#D3D3D3" id="path1" d="M431.4,401c-1.3-2.1,0-4.9-2.5-6.5s-2.2-2.3-4-9.3  c-1.6-6.9-1.9-12.7-2.5-17c-0.6-4.3-1.3-5.3-4-5.5c-2.8-0.2-5.9-0.6-8.4-3.1s-3.8-2.3-7.5-2.5c-3.8-0.2-2.1-8.4-2.3-13  c-0.3-4.6-1-4.9-5-4.9c-4,0-1.5-5.5-0.3-11.1s-1.9-10.5-4.4-14.5c-2.5-4-5-4.4-9.3-6.1c-4.3-1.6-4.4-4-7.8-4c-3.4,0,0.3,8.4,1,12.6  c0.9,4.2-6.1,10.5-9.6,12c-3.6,1.5-8.1-2.5-11.8-7.1s-5.3-2.1-5.6,1.3c-0.4,3.4-0.3,5-1.6,6.3c-1.3,1-7-5.9-9-8.4  c-4.3,3.1-8.3,6.8-8.5,9.5c-0.4,5-0.6,11,3.5,16c4,5,6.6,10.4,1.8,12.8c-4.9,2.4-7.9,3.9-9.1,6.4c-1.1,2.5-0.4,8.9-4.5,9.5  c-4,0.6-15.6-0.4-18,2.1s-2.1,4.2-1,7.5c1.1,3.3,1,12.1-3.3,13.4c-4.3,1.1-9.6,2.5-12.1,6.4s-1.9,9.6-6.4,13  c-4.5,3.3-9.5,13-9.9,15.6c-0.1,1.1-0.1,5-0.1,9.2c2.3,1.3,9.4,5.1,11,4.5c1.9-0.8,1.7-2.4,2-4.8c0.3-2.4,1.4-2.8,3.3-2.8  s4.4,3.3,4.8,4.5s0.3,3.6-0.3,5.8c-0.4,2-0.9,3.6,3.4,5.3c4.3,1.6,6.5,2.2,8,4.9c1.5,2.6,4.3,3.6,8.8,4.2s10.4,0.9,15.5,0.9  s7.1,0.1,10.1,2.6s10.4,5.8,13.3,5c2.9-0.8,8.4-1.4,11-1.1c2.6,0.3,4.3,1,8.1-2c3.9-3,7.5-5.9,8.4-4.5c0.9,1.5,1.3,3.8,0.4,5.6  c-0.9,1.9-1.1,4-1,6.3s0,4.1-1.6,6.3c-1.6,2.1-2.6,3.1,0.1,5.8c2.8,2.6,4.1,5.1,2.4,6.9c-1.8,1.8-3,4.3,0,5.1c3,0.9,4.1,0.8,4.1,3.1  c0,2.2-1.6,2.1,3,3.9c3.4,1.3,4.6,3.1,5.1,4c1-1.5,3.8-1.3,5.9-1.3c2.9,0,3.8-2.8,6.9-4.1c3.1-1.4,5.9-4.6,9.2-7.8  c3.4-3.1,5-2.4,9.6-3.1c4.6-0.6,8-7.2,11-9.6c2.9-2.4,2.3-6.1,2.3-8.8s-1.5-12.9-1.8-15.8c-0.1-2.9,2-9.9,2.4-12.9  c0.4-2.9,0.4-10.6-1.5-14.4s-0.5-7.8,1-10.1c1.5-2.4,1-9.8,1.4-13c0-0.3,0-0.4,0.1-0.5C433.3,409.1,432.6,403.1,431.4,401z" stroke-miterlimit="10" stroke="#FFFFFF"/>
<path name="云浮市" fill="#D3D3D3" id="path2" d="M383.6,507.1c-4.6-1.7-3-1.6-3-3.9c0-2.2-1.1-2.1-4.1-3.1  c-3-0.9-1.7-3.5,0-5.1c1.8-1.8,0.4-4.3-2.4-6.9c-2.8-2.6-1.8-3.6-0.1-5.8c1.6-2.1,1.6-4,1.6-6.3c-0.1-2.3,0.1-4.4,1-6.3  s0.5-4.3-0.4-5.6c-0.9-1.5-4.5,1.5-8.4,4.5c-3.9,3-5.4,2.3-8.1,2c-2.6-0.3-8.1,0.4-11,1.1s-10.3-2.5-13.3-5s-5-2.6-10.1-2.6  c-5.1,0-11.1-0.4-15.5-0.9s-7.3-1.6-8.8-4.2c-1.5-2.6-3.8-3.3-8-4.9c-4.3-1.6-3.8-3.3-3.4-5.3c0.4-2,0.5-4.4,0.3-5.8  c-0.4-1.3-2.9-4.5-4.8-4.5s-3,0.4-3.3,2.8c-0.3,2.4-0.1,4-2,4.8c-1.5,0.6-8.8-3.3-11-4.5c0.1,5.6,0.3,12,0.3,14.3  c0,4-0.6,6.6,2.4,11c2.9,4.5,5.8,8.8,2.8,10.9c-3.1,2.1-7,6.1-6.4,9.6c0.6,3.5,2.9,4-0.8,7.9c-3.6,3.9-10.3,14.1-17.6,16.6  s-13.1-0.3-14.6,3.3c-0.5,1-0.5,2-0.5,3c1.5,1.1,6,4.6,7,6.6c1.3,2.4,2.4,5.3,4.8,6.1c2.4,0.9,5.8,1.5,8.4,1.5s9.9,2.8,8.4,4.9  c-1.4,2.1-5.5,5.3-4.4,6.7c1.1,1.5,7.1,0.9,9.3-0.8c2.1-1.6,3.6,0.6,4.1,3.4c0.5,2.8,0.3,6.9,2.6,6.4c2.4-0.5,4.2-3.6,8-5.3  c3.8-1.6,4.9-3,6.4-4.6c1.5-1.6,3.5-2,5-1.4c1.4,0.5,11.5,3.9,13.9,4.6c1.1-1.9,1.9-3.9,2-5.1c0.1-3,5.4-7,5.9-9.1  c0.5-2.1,4.9-8.5,6.8-9.4c1.7-1,1.6,2.3,1,5.8c-0.6,3.5,0.1,6.1,3.1,7c3,1,7.5-3.4,8.5-5c1-1.6,2.8-2.1,4.6-1.1  c1.9,1,2.1,4.8,0.5,6.5c-1.6,1.8-3,5.1-1.1,6.3s8,8.3,10.4,10.8c2.4,2.4,6.3,4.3,6.5,3.5c0.4-0.8,2.9-2.4,5.3-1.9  c0.9,0.1,1,0.8,0.9,1.4c0.4-0.1,3.6-0.9,5.5-0.9c2,0,4.5-1.5,4.5-4.4c0-2.8,3.9-4.4,4.8-8.6c0.9-4.3,3.5-4.4,5.5-4.3  c2,0.1,0.3-0.5,3.5-3.1c3.3-2.5,2.1-5.4,4.3-6.6s3.5,2.4,5.1,4.4c1.6,2,2.6,1.8,6,1.5c3.4-0.3,0.8-6.8-0.5-9c-1.1-2,0.1-3.9,0.4-4.1  c-1.3-0.3-4.5,0.4-7,1.6c-2.9,1.5-5.6-5.9-6-9.4c-0.1-0.9,0.1-1.5,0.4-2C388.3,510.3,387,508.4,383.6,507.1z" stroke-miterlimit="10" stroke="#FFFFFF"/>
<path name="佛山市" fill="#D3D3D3" id="path3" d="M464.3,517.9c3,1.5,4.5,2.8,5,0.4s4.1-4.4,6.9-1.8  c2.8,2.6,8.3,0.8,10.4,0.4c2.1-0.4,8.1-3.4,8.1-7.2c0-3.9-2.1-4.7-4-4.7s-8.4-0.5-7.3-3.5c1.3-3,4-7,0.8-9.3c-3.4-2.2-4.6-4-4.6-7  s-1.8-10.4-3.6-13.8c-1.9-3.4-1.5-12-3.8-14.5c-2.2-2.6-0.6-7.8-3.4-10.1c-2.8-2.4-7.1-4.5-7.5-1.5c-0.4,2.9-1,4-2.8,3.6  c-1.8-0.4-1.5-1-2-3.8c-0.5-2.8-1.5-10.6-4.5-13.4c-2.9-2.8-5.3-11.1-7.4-11.1c-2,0-3.3-0.5-2.8-3.3c0.5-2.8,2-5.5-1.9-6.9  c-3.9-1.4-4.6-3.1-5,0.1c-0.4,3.3,0.1,10.6-1.4,13c-1.5,2.4-2.9,6.4-1,10.1s1.9,11.5,1.5,14.4c-0.4,2.9-2.6,9.9-2.4,12.9  c0.1,2.9,1.8,13.3,1.8,15.8c0,2.6,0.6,6.4-2.2,8.8c-2.9,2.4-6.4,8.9-11,9.6c-4.6,0.6-6.1,0-9.6,3.1c-3.4,3.1-6.1,6.4-9.3,7.8  c-3.1,1.4-3.9,4.1-6.9,4.1c-2.9,0-6.6-0.4-6.4,3.3c0.4,3.6,3.1,11,6,9.4c2.4-1.3,5.6-1.9,7-1.6V521c2.3,0.1,2.6-0.6,2.4,2  c-0.1,2.8,2.9,6,4.3,4.3s-1.5-4.7,0-6.1c1.5-1.4,4.8,0.4,5.1-0.9s0.6-6.1,3.6-6.9c2.9-0.6,5.3-0.4,6.9,2.3c1.5,2.6,3.4,10.3,6.5,4.3  s4.8-13.4,6.5-15.4c1.8-2,2.9-5.3,5.6-3.8c2.8,1.5,7.1,4.5,11,5.6c3.8,1.3,6.6,3.8,7,6c0.4,2.3,3.1,5.5,3.1,5.5v0.1  C463.5,517.8,464,517.8,464.3,517.9z" stroke-miterlimit="10" stroke="#FFFFFF"/>
<path name="茂名市" fill="#D3D3D3" id="path4" d="M289.1,543.3c-1.5,1.5-2.6,3-6.4,4.6s-5.5,4.8-8,5.3  c-2.4,0.5-2.3-3.6-2.6-6.4c-0.5-2.8-2-5-4.1-3.4s-8.3,2.3-9.3,0.8c-1.1-1.5,3-4.6,4.4-6.8s-5.9-4.9-8.4-4.9s-6-0.6-8.4-1.5  c-2.4-0.9-3.5-3.8-4.8-6.1c-1-2-5.4-5.4-7-6.6c0,2.1,0.4,4-2.5,5.8c-4.3,2.5-11,3.6-13.1,5.6c-2.1,1.9-5.3,1.8-8.9,1.9  c-3.6,0.3-4.9,3.1-7.4,1.4s-2.8-3.6-4.3-0.8s-2.5,16.4-5.3,15.9c-2.7-0.6-5.8-1.4-4.6,3.1c1.1,4.5,3.9,9.6,6.1,11.3  c2.4,1.5,4.6,4.9,4.6,7.1c0,2.4,0.6,3.3-2.4,3.3c-2.9,0-7.7-0.6-8.5,1.9c-0.8,2.5-2.4,11-6,10.9c-3.6-0.3-7.4-2.9-10.6-1.5  s-3.5,4.5-6.4,3.9c-2.9-0.6-6.1-7-9.9-5.3c-3.8,1.8-4.9,1.8-6.1,0.8c-1.4-1-4.6,1.5-2.5,3.6c2.1,2.1,3.6,4.5,2.4,7.8  c-1.4,3.3-2.5,7.8-1.1,10.3c1.1,2.1,5.4,11.3,3.9,14.5c1,1,3.1,3.4,1.5,4.9c-2,1.9-7,0.3-6.4,3.9s3.1,3.1,1.3,6  c-1.9,3-3.8,5.9-1.8,8.1c2,2.1,7.9,3.9,6.3,6.5c-1.8,2.6-2.6,5.4-0.9,8.6s1.5,7,4.8,7.3s4.4-0.1,4.8,2.8c0.5,3-2.4,6.4,3,5  c5.3-1.4,6.3-1.9,9.5,0.5s7.1,3,8.4,1.4c1.3-1.5,9.1-5.8,9.1-9.9s2.5-8.5,5-7s4,10.4,6.7,11.8c2.8,1.4,6.4,0.6,6.6,3.6  c0.2,3,0,5.1,2.7,5.1c2.8,0,6.3,0,6.9,5.1c0.9,0,1.6,0,2.4,0c2.6,0.1,8.3-5.6,8.9-7.3s-1.6-2.1-3-0.6c-1.4,1.5-6.4,6.3-6.4,3.8  s0.4-4.6,0.4-6.9c0-2.1,1.1-1.8,2.3-1.8c1.1,0.1,3.4-3.8,4.8-2.1c1.4,1.6,3.8,2.8,3.9,4.3c0.1,1.5,0.1,2.1,1.6,2s2.1,1.4,0.5,2.1  c-1.5,0.8,1.1,1.5,4.4,1.5c3.3,0,11.4-3.5,8.4-4.2c-3-0.8-8.9-5.1-6.6-4.6s6,2.1,8,0.6c2.1-1.5,2.6-1.8,2.5,0.4  c-0.1,2.1-0.6,3.3,2.6,3.5s5.2,0,2.6,3.4c-2.6,3.4-5.3,7.4,0,5.3s8.4-8.6,11-8.6s0.8-5-0.6-3.6c-1.4,1.4-5.3,3.6-5.5,2.1  c-0.3-1.5-1.6-4,1.4-4.9c3.1-0.9,4.4-2.4,6.4,0c2,2.4,7,2.3,5.8,0.6s-4.8-3.4-3.8-4.8c0.1-0.3,0.3-0.4,0.4-0.5  c-0.4-2.9,1-11.5,1.6-14.9c0.6-3.5-0.4-3-3-4c-2.7-1-1.6-3.3-0.1-4.1c1.4-1,2.4-2.4,4-5.6c1.6-3.3-4.1-4.5-6.5-5.1  s-7.8-8.9-8.5-12.1c-0.6-3.3-1-6.8-1.9-10.5c-1-3.9,4.5-9.9,6.4-13.4s1.3-5.4,1.4-8.1c0.1-2.8,4.1-6.1,8.1-6.4  c4-0.4,9.8-8.9,11.3-11.1c1.6-2.3,4.2-3.4,8-4.5c3.6-1.1,3.9-2.9,5-5.3c1.1-2.4,3.9-3.3,5.9-4.8c1.3-0.9,3.1-3.5,4.6-6.1  c-2.4-0.8-12.5-4-13.9-4.6C292.6,541.3,290.6,541.6,289.1,543.3z" stroke-miterlimit="10" stroke="#FFFFFF"/>
<path name="阳江市" fill="#D3D3D3" id="path5" d="M379.8,629.3c2.2-1.6,1.9-4,1.9-6.8s1.6-6.5-1.6-7.9  c-3.1-1.3-8.6-2.3-9.3-3.6s-0.4-4-2.9-5c-2.5-1,1.3-2.9-1.1-4.1s-5.8-1.1-8.3-2.9s-5-4-5.8-5.3c-0.8-1.3-1.9,0.1-3.5,0.1  s-3-0.4-2.9-3c0.1-2.8,1.1-5.8,0.8-8.9c-0.4-3.3,1.8-5.4-0.4-6.9c-2.1-1.4-2.8-1.6-1.1-3.4c1.6-1.7,2.8-4.1,3.4-6.5  c0.6-2.4,2.5-4.3,4.6-3.5c2.1,0.8,6.5,0.1,6.9-1.6c0.4-1.8,3-5.1,0.6-5.6c-2.4-0.5-4.9,1.1-5.3,1.9c-0.4,0.8-4.1-1.1-6.5-3.5  c-2.4-2.4-8.5-9.6-10.4-10.8s-0.5-4.5,1.1-6.3c1.6-1.8,1.4-5.6-0.5-6.5c-1.9-1-3.6-0.5-4.6,1.1c-1,1.6-5.4,5.9-8.5,5  c-3-1-3.9-3.5-3.1-7c0.6-3.5,0.8-6.8-1-5.8c-1.8,1-6.3,7.4-6.8,9.4s-5.8,6.1-5.9,9.1s-4.5,9.8-6.5,11.4c-2.1,1.6-4.8,2.4-5.9,4.8  s-1.3,4.1-5,5.3c-3.6,1.1-6.4,2.3-8,4.5s-7.4,10.9-11.3,11.1c-4,0.4-8,3.6-8.1,6.4c-0.1,2.8,0.5,4.6-1.4,8.1s-7.4,9.6-6.4,13.4  c1,3.9,1.3,7.4,1.9,10.5c0.6,3.3,6,11.5,8.5,12.1c2.4,0.6,8.1,1.9,6.5,5.1s-2.5,4.6-4,5.6c-1.4,1-2.5,3.3,0.1,4.1c2.8,1,3.6,0.5,3,4  c-0.6,3.4-2,12-1.6,14.9c0.9-0.9,2.1-0.6,3.4-1.6c1.4-1.3,1.3-0.8,1.4,1c0.3,1.7,0.3,5.1,1.5,5.1s1.8,0.4,1,1.9  c-0.8,1.5-1.3,4.7,1.6,3.1c2.9-1.6,5.3-3.1,7.1-1.6c1.9,1.4,10.1-0.1,7.4-2.1s-5.5-1.9-4.3-3s1.8-3,3.5-0.5s5.1,7.3,5.9,5.6  s2-9.9,5.6-10.8s10.1,0.4,10-3.1c-0.1-3.4,0.9-10.8-1.4-11c-2.3-0.4-9.9-3.5-10-6.4c-0.3-2.9,0.6-0.8,3.6-0.3c3,0.5,3.8,0.6,5-0.5  c1.3-1.3,2.6-1.3,3.6-0.1c1,1.1,1.4,3.3,4,1.9s5.3-2.4,4.1,0.5c-1.3,3-3.3,7.5-3.4,8.9c-0.1,1.4,3.3,0.6,5.3,0.5  c2.1-0.1,6.4,2.4,2.9,3.9c-3.5,1.4-7.6,0.1-7.4,3.1s0.9,3.4-1.1,5.9c-2,2.5-1.4,6.3,3,3.4c4.3-3,9.1-7.2,10.8-6.6  c1.5,0.6,8.8-0.8,9-3.8c0.3-3-0.9-4.9-3.1-3.3c-2.3,1.6-4,1.8-6-0.8c-2-2.5-2.4-4.4-1.4-6.5c1-2.3-0.5-2.8,4.5-4s7-3.6,2.8-3.6  c-4.3,0-7.6-3.3-7.6-5.3c0-2.1,1.6-4.1,1.9-2c0.3,2.1,0.9,3.6,3.3,4.5c2.4,0.9,3.9-0.1,2.2-1.3c-1.6-1.1-4.4-2.4-2.4-3.3  c2-0.8,2.3,0.4,3.6-0.5c1.4-0.9,4.1-2.4,3.5-0.6c-0.5,1.6-2.3,7.4,0.6,7.2c2.9-0.1,8.3-3.3,11.5-2.8s5.9,0.9,6.1-1.8  c0.4-2.6,1.3-2.9,2.3-2.5c1,0.4,1.4,1.6,0.5,4c-0.9,2.4-3.3,6-1,8.5c2.2,2.5,4.3,6.3,8,6.4h0.1c0.5-1.6,2.4-7.1,4.1-10  C379.8,635,377.5,630.8,379.8,629.3z" stroke-miterlimit="10" stroke="#FFFFFF"/>
<path name="东莞市" fill="#D3D3D3" id="path6" d="M594.4,489.4c-0.6-4.1-3.1-4.4-5.6-7c-2.4-2.6-3.1-3.1-5.1-4.1  c-2-1-6.8-4.6-8.5-8.1c-1.8-3.6-2.8-2.6-5.1-0.8c-2.4,1.8-5.1-0.8-10-2c-4.8-1.3-7.5-0.6-13.4-1.6c-0.9-0.1-1.4-0.4-1.6-0.5  c-2.6-0.9-6.9-1.1-10.1-1.1c-3.4,0-5,1.6-6.9,3c-1.9,1.3-4.8,2.4-7.9,2.6c-2.5,0.1-7,3.3-8.9,4.6c0.1,0.3,0.3,0.4,0.4,0.6  c0.8,3,0.8,8.9,2.8,7.9c2-1,4.5-3.9,4.5-1.6c0,2.4-1,9.3,0.8,7c1.8-2.1,5.5-3.4,3.9,0.4c-1.6,3.8-4.5,6.5-3.9,10s-0.4,5.6,3.4,7.2  c3.8,1.6,4.5,3.9,5.3,5.9c0.8,2,0.6,2.1,3.4,1.6c2.5-0.5,5.5-3,7.6,0c1.6-0.8,8.3-4.2,9.5-6.5c1.4-2.5,5.3-6.3,8.8-4.6  c3.5,1.6,8.9,1.3,12.1,5.1c3.1,3.9,4.1,5.4,6.9,6.3c2.8,0.8,3.6,1.4,5.3,3.4c1.6,1.9,5.9,4.1,7.8,2.3s1.9-4,1.6-7.8  c-0.3-3,2.1-5.1,3.1-5.9c-0.3-0.4,0-1.4,0.9-3C596.6,498.9,595,493.5,594.4,489.4z" stroke-miterlimit="10" stroke="#FFFFFF"/>
<path name="深圳市" fill="#D3D3D3" id="path7" d="M637.8,540.3c-4.9-2.5-8.3-3.9-10.8-3.9s-4.8-2.1-0.1-2.6  s10.8-6.3,8.4-7.4s-11,1.4-9.3-1.6c0.5-1,1-1.9,1.4-2.6c-1,0-3.4-0.1-6.5-2.6c-4-3.1-3.1-4.8-4.4-8c-1.3-3.1-0.4-4.4-4-3  c-3.6,1.4-4.8,0.8-6.6-1.4c-1.8-2.2-6.1-2-9.1-1.6c-1.5,0.3-2.4,0.3-2.6-0.1c-1,0.8-3.4,2.9-3.1,5.9c0.4,3.9,0.4,5.9-1.6,7.8  c-1.9,1.9-6.3-0.4-7.8-2.3c-1.6-1.9-2.5-2.5-5.3-3.4c-2.8-0.8-3.6-2.4-6.9-6.3c-3.1-3.9-8.6-3.5-12.1-5.1s-7.4,2.1-8.8,4.6  c-1.3,2.3-7.9,5.6-9.5,6.5c0.3,0.4,0.5,0.9,0.8,1.4c2.1,5.1-0.6,9,3.1,12.9c3.8,3.9,2.8,8.3,7,9.6c4.3,1.4,6.1,2.8,4.8,6.1  c-1.4,3.4-2.4,5.6,0.3,5.6s2.5-6.1,7.6-6.3s9.4,1,13.3,0.4s4.8-5.9,6.4-7.5c1.5-1.8,3.1-1.9,3.1-0.6s1.8,4,7.4,1.1  c5.8-3,5.4-1.8,8.4-1.8c2.9,0,9.4-5,12.3-3.5c2.8,1.4,6.1,4.1,8.5,6.6s2.5,1.5,2.5,6.1s0.5,8,3.1,5.1c2.6-3,4.6-2.1,6.6-2.1  C636.3,546.4,642.6,542.8,637.8,540.3z" stroke-miterlimit="10" stroke="#FFFFFF"/>
<path name="韶关市" fill="#D3D3D3" id="path8" d="M646.1,201.6c1.8-4.3,6.4-16,1-16s-9.6,0.4-10.9-1.8  c-1.1-2.1-1.8-3.5-4-3.5c-2.4,0-1.1-7.1-5.3-5c-4,2.1-9.5,2.5-12,5.4s-3.9,6.6-6.7,5.8c-2.9-0.8-8.5-4.9-9.3-3.5s1.9,6.6-1.4,6.6  c-3.3,0-14.3-1.4-18.1,0c-3.9,1.4-10.6,5.8-10.6,2.5s3.3-8.1,0.6-10.3c-2.8-2.1-4.6-5.3-4.6-7.8s-4.3-5.6-7.1-4  c-2.9,1.5-4.6,5-6.8,7.9c-2.1,2.9-5.6,8.8-9.5,8.1s-5.3-3.5-10.3-1s-10.4,4.5-12.8,2.9c-2.4-1.5-4.6-4.5-10.3-4.5s-9.9,0-12.4-3.9  s-9.3-13.5-12.1-13.1c-2.9,0.4-6.1,0.4-8.8,2.4c-2.5,1.9-7.4-0.4-7.4,3.9s-0.3,5.8-3.5,6.6c-3.3,0.8-4.9,6.8-8.5,7  c-3.6,0.3-7.1,0.4-8.8,2.5c-1.5,2.1-2.5,5.4-5.4,4s-6.1-3.5-6.1-1s-1.8,7,2.1,9.3c3.9,2.4,6,1.8,9.5,1.5c3.5-0.3,7.1,2.1,6,4  c-1.1,1.9-7.4,5-4.5,8.8c2.9,3.6,1.4,9.3,2.5,12.7c1.1,3.5,2.5,9.6-1.5,11.3c-0.1,0-0.1,0.1-0.3,0.1c5.8,0.8,6.1,8.4,3,10.6  c-3.3,2.4-2.1,6.3-5.9,9.1c-3.8,3-4.2,5.1-3.5,8.9s-1.9,7.5-3,11.3c-1.1,3.8,1.1,4.6,3.5,6.8c2.4,2.1,6.7,6.5,9.6,9.8  c3,3.3,5.1-0.3,6.5-3s10.3-3.3,15-2.4c4.9,0.8,8.6,3,11.5,1.9c3-1.1,5.4,0.3,7.8,3.5c2.4,3.3,9.1-1.4,12.4-3  c3.3-1.6,5.9-1.9,9.4-1.1c3.5,0.8,5.1,1.1,9.4,4.3c4.3,3.3,8.9,5.3,11.8,5.8s8.3,8,8.1,10.5s-0.6,8.1,5.4,10.4  c6.1,2.3,4.3,7.8,1.5,8.6c-2.8,0.9-3.9,7.5-3.9,11s-7.6,8.8-11.1,11.6s2,8.6,3.9,10.5s8.5-0.1,11.6-3.8c3.3-3.5,6.4-2.4,11.6-2.8  c4.4-0.3,10.1-0.3,11.9-0.1c1.3-1.3,8.8,0.5,12.1-1.5c3.6-2.1,4.3,1.6,7.3,1s7.8-0.9,11.9,1.1c2,1,2.6,2.1,2.8,3.5  c1.8-2.3,5-7.1,5.6-9c0.8-2.1,2.9-4.4,2.9-7.4s3.8-2.9,6.5-4.3c2.8-1.4,5.6-7,7.8-10.3c2.1-3.1,2.3-4.8-0.4-6.5  c-2.6-1.8-7.3,0-9.6,1.6c-2.5,1.6-3,4-3.4,8.3s-1.9,2.6-4.8,1.4c-2.9-1.3-4.9,0.5-7.8,0.5s-7.9-5.6-8.3-8.5s-2.6-6.9-2.3-11  c0.4-4,0.1-4.4,0.1-10s1.8-8.3,3.8-11.9c1.9-3.5,0.8-5.3,0-8.5c-0.6-2.8,4.9-5.4,6.5-6.1c-0.8-0.5-1.6-0.9-2.5-1  c-3.3-0.4-3.9,0-4.5-2.9s-4.5-3.6-7.1-5.3c-2.8-1.5-7.4-3.9-3.1-4.5s14.1-4.9,15.3-9.3c1.1-4.5,1.1-10.2,4-10.9  c2.9-0.6,3.9-2.1,3.3-5s-0.3-10.4,3.9-13.1c4-2.8,7.1-2.8,10-6.8s4.3-7,6.6-5c2.4,1.9,5.6-1.8,8.1-3.5c2.5-1.8,3.1-2.5,5.7-2.4  c2.8,0.3,3.3-1.5,1.8-3.1C646.5,206.6,644.4,205.9,646.1,201.6z" stroke-miterlimit="10" stroke="#FFFFFF"/>
<path name="河源市" fill="#D3D3D3" id="path9" d="M745.1,309c-0.9-3.6,1.4-8.1,3-11.8c1.8-3.6,0.1-4.5-2.3-5.9  s-7.4-6.6-8.5-8.6c-0.9-1.6,4.5-11.5,6.6-15.1c-0.5-0.6-1-1.3-1.1-1.8c-1-2.5-9.9-13.4-13.1-12.7c-3.3,0.6-5.3,1-5.6,3.5  c-0.4,2.5-1.8,3.6-4.3,1.8s-2.9-2.1-6.1-0.7c-3.3,1.4-10,4.5-12.8,6.6c-2.8,2.1-3.1,0-4.3,1.9s-5.4,1-7-0.8c-1.5-1.8-2.8-0.8-5.7,0  c-3.1,0.8-4,2.5-6.6,2.1c-2.5-0.4-7,1.4-7,3.9s0,9.5-3.1,9.1c-3.1-0.4-10.4-6.1-14.3-3.6c-3.9,2.5-2.4,6.6-4.5,7.4  c-2.1,0.8-4.5,0.8-5.6-1.5c-1.1-2.4-1.9-2.9-4.6-1.1c-2.8,1.8-5.3,2.9-9.3,2.8c-4-0.3-7.1,1-9.9,3.6c-2.8,2.8-6.8,0.6-7.9-1.4  c-0.9-1.4-2.6-4.3-4.9-5.8c-1.6,0.8-7.1,3.5-6.5,6.1c0.8,3.1,1.9,5,0,8.5c-2,3.5-3.8,6.1-3.8,11.9c0,5.8,0.1,6-0.1,10  c-0.4,4,1.9,8.1,2.3,11c0.4,2.9,5.5,8.5,8.3,8.5c2.9,0,4.9-1.8,7.8-0.5s4.4,2.9,4.8-1.4c0.4-4.3,0.9-6.8,3.4-8.3  c2.5-1.6,7-3.4,9.6-1.6s2.5,3.4,0.4,6.5s-4.9,8.9-7.8,10.3c-2.9,1.4-6.5,1.3-6.5,4.3s-2.1,5.3-2.9,7.4c-0.6,1.9-3.9,6.7-5.6,9  c0,1.4-0.8,3-1.8,4.8c-2,3.3-1.3,9.5-1.3,12.6s1.8,6.4,6.3,9.3s6.9,1.4,12.1,0.8s7.4,16.6,9.5,19.8c2.3,3.1,5.8,0,10,2.1  s-3.1,12.5-1.5,13.9c1.6,1.4,4.5,3.9,4.9,6.8c0.4,2.9,5.3,5.5,8.4,5.9c3,0.4,1.4,5.8,4.8,8c3.2,2.3,3.2,3.5,3.2,7.1s2.9,5.5,5.8,5.5  c2.9,0,2.2-9.1,4.7-11.9c2.5-2.6,1.4-4.5,1.4-9.1c0-4.8,3-2,5.5,0s5.9,0.3,8.4-2s8-4.5,19.7-5.8c11.9-1.3,6.9,4.2,8.6,6.9  c1.6,2.6,6.8,5.5,9,6.7c1.9,1,1.6,5.4,1.5,6.9c3.2-0.9,2.9-2.3,6.4-5.6c3.4-3.1,5-13.8,5.4-17c-2.1-1.9-4.4-7.6-6.1-10.4  c-2.4-3.9,0-8.6,0.6-18.4c0.6-9.6-3.4-12-5-15.8s-4.6-1.1-7.1-1.9c-2.5-0.8-0.4-3.1,2.5-4.6s-2.6-2,0.4-4.6c3-2.6,3.1-9.3,6-14.5  c2.8-5.4-1.6-11.6-2.6-14.5c-1-3,1.8-6.9,4-8.4c2.1-1.5,4.6,1.1,7.8,1.4c3.1,0.3,1-4,0.6-5.8c-0.4-1.8,1.5-0.2,4.4-1.1  c2.9-1-0.3-2.9-1.1-4.5c-0.9-1.6,2-2.3,4.3-3.6C751.5,319.6,746,312.6,745.1,309z" stroke-miterlimit="10" stroke="#FFFFFF"/>
<path name="惠州市" fill="#D3D3D3" id="path10" d="M727.4,443.5c-2.2-1.3-7.4-4.1-9-6.8s3.3-8.1-8.6-6.9  s-17.4,3.5-19.8,5.8c-2.5,2.3-5.9,4.1-8.4,2c-2.5-2-5.5-4.8-5.5,0s1,6.5-1.4,9.1c-2.5,2.6-1.9,11.9-4.8,11.9s-5.8-1.9-5.8-5.5  c0-3.6,0-4.9-3.2-7.1c-3.2-2.3-1.6-7.5-4.8-8c-3-0.4-8-3-8.4-5.9s-3.2-5.3-4.9-6.8c-1.6-1.4,5.9-11.7,1.5-13.9  c-4.3-2.1-7.8,1.1-10-2.1c-2.3-3.1-4.3-20.4-9.5-19.8c-5.3,0.6-7.6,2.1-12.1-0.8s-6.3-6-6.3-9.3c0-3.2-0.8-9.4,1.3-12.6  s3.3-6.1-0.9-8.1c-4.1-2.1-8.9-1.9-11.9-1.1c-3,0.6-3.6-3.1-7.3-1s-12.1,0-12.2,1.9c-0.1,1.9-1.6,7.5-0.3,12.6  c1.4,5,0.6,7.5-1.6,7.3c-2.4-0.2-14.8,7.1-19.1,9.5c-4.4,2.4-6,5.8-8.5,5.8s-2.6,6.4,0,6.8c2.6,0.4,4.6-1,4.6,3.1s-1,8.5,3.1,11.4  c4.1,2.8,13.9,4.8,11.5,6.8s-4.4,2.6-2.3,5.1c2.3,2.6,4.8,9.4,0.4,10.5c-4.4,1.3-9.8-0.4-8.8,5.6c1,6,3.1,14.9-0.6,17.1  c-3.8,2.2-13.4,4.7-7.5,5.8c5.8,1,8.5,0.4,13.4,1.6c4.8,1.3,7.5,3.8,10,2c2.4-1.8,3.4-2.8,5.1,0.8c1.8,3.6,6.6,7.1,8.5,8.1  c2,1,2.8,1.6,5.1,4.1c2.4,2.6,5,2.8,5.6,7c0.6,4.1,2.3,9.5,0.6,12.9c-1.6,3.4-1.3,3.6,1.8,3.1c3-0.4,7.4-0.6,9.1,1.6  c1.7,2.3,3,2.8,6.6,1.4c3.6-1.4,2.8-0.3,4,3c1.3,3.1,0.4,4.8,4.4,8c3.1,2.5,5.6,2.6,6.5,2.6c0.9-1.6,1.9-2.6,3.8-2.6  c2.8,0,2.3-0.9,0.8-1.4s-3.5-3.8-0.8-3.9c2.7-0.1,14.5-5.3,18.4-6.1c3.9-0.9,6.5,0.4,7.1-2.3c0.5-2.6,1.1-4.2,3-2.1  c2,2.3,5.9,4.3,1.1,5.9c-4.7,1.8-9.6,4.9-7.8,7.1s0.3,3.6,0.3,6.4c0,2.9,0.3,9.2,2.5,10c2.3,0.8,11.6-3.3,13-0.8  c1.4,2.5,2.9,8.1,5.3,5.3c2.5-2.9-1.4-6.3,1-9.8c2.3-3.6,6-7.8,2.3-9.6s-10-3.6-9.4-5.6c0.6-2.1,1.5-2.5,2.6-1.4  c1.1,1.1,4,2.5,5.6,1c1.8-1.5,1.4-0.6,2.6,2.1c1.4,2.6,2.5,6.6,6.3,4.1c1.9-1.3,2.1-2.2,2.3-3.1c-1-3.6-4.1-6.4-7.4-9.6  c-3.5-3.5-3.4-7.9-4.5-11.3c-1.1-3.4,3.9-6.4,7-6.8c3.1-0.4,1.9-3.6,5.9-4.5c4-0.9,5-2.9,7-5c2-2.1,3.5-1.9,5.7-0.1  c2.1,1.6,3,0.5,4.1-1.6c1.1-2.1,4-4.5,9.5-6.9c5.5-2.4,4-7.5,4-10.4s4.5-7.5,9.3-8.4c0.5-0.1,0.9-0.1,1.3-0.3  C729,448.9,729.3,444.5,727.4,443.5z" stroke-miterlimit="10" stroke="#FFFFFF"/>
<path name="汕尾市" fill="#D3D3D3" id="path11" d="M823.6,483.9c-2.1,2-5.4,3.6-7.5,3.5c-2.1-0.1-6-2.5-10-3.9  c-4-1.4-9.5-0.1-10-4.8c-0.5-4.5,0.6-8.8-2.6-11.4c-3.4-2.6-2-7.9-5.5-6.8c-3.5,1.1-5.5,1.4-9-0.6s-11.5-5.9-10.3-7.3  c1.4-1.4,1.9-2.9,3.5-2.9s0.5-4.3,2.1-4.4s5.8,0.5,4.6-2.6c-1-3.1-0.6-4.9,0-7.3s0.1-3.5-2.9-3.9s-3.5-1.6-7.4-0.9  c-3.9,0.9-7.4,3.1-7.4,0.4c0-2.8-0.6-8.4-3.1-9.9c-1.9-1.1-3.9-3-4.6-3.8c-0.4,0.1-0.6,0.1-1,0.1c-2.8,0-7.1,6.8-9.5,10  c-0.6,0.9-1.5,0.8-2.3,0c-0.4,3.3-2,13.9-5.4,17c-4,3.8-3,5-7.8,5.9c-4.6,0.9-9.3,5.5-9.3,8.4c0,2.9,1.5,8-4,10.4  c-5.5,2.4-8.4,4.8-9.5,6.9c-1.1,2.1-2,3.4-4.1,1.6c-2.1-1.6-3.6-2-5.7,0.1c-2,2.1-3,4.3-7,5c-4,0.9-2.6,4.3-5.9,4.5  c-3.1,0.4-8.2,3.4-7,6.8c1.1,3.4,1,7.8,4.5,11.3c3.2,3.3,6.5,6,7.4,9.6c0.1-1,0-1.8,1.1-2.5c2.3-1.4,1.8-1.5,0-3.3  c-1.8-1.7,0.8-1.7-0.6-3.9s-2.3-4,0.3-2c2.5,2,2.5,3.1,5.3,2.5c2.9-0.6,6.8-1.4,8.8,0.1c2,1.5,3.8,3.3,3.5-0.1  c-0.1-3.5,0.5-5.1,2.9-5.3c2.4-0.1,3.1,2,5-0.3c2-2.3,0.3-2.8,2.4-4c2.1-1.3,11.3-3.5,3.5,2.9c-7.8,6.4-9.9,8-8.9,8.6  s8-3.5,10.4-2.2c2.4,1.3,7.4,2.1,9.3,2.1s7.4,0.9,3.9,3.1c-3.5,2.3-6.6-0.9-8.4,0.5c-1.8,1.4-1.4,3.4,1.1,5.8s8.8,2.3,11.6,1.1  c3-1,6-1.1,8.8,1.9c2.6,3.1,5.5,5.9,5,2.2c-0.5-3.6-2.4-4.1,0.1-7.1c2.5-3,3.4-6.3,0.6-4.6s-3.5-0.6-3.5,1.4c0,1.9,0,5-2.1,2.1  c-2.1-3-4.4-3.1-1.4-5.9c3.1-2.8,4.1-5.8,5-8.1c0.9-2.4,2.5-4.1,0.9-2.8c-1.6,1.4-7.3,2.8-7.3,1c0-1.8,2.4-8.5,2.5-5.6  c0.1,3,0.7,4.9,4.8,2.6c4-2.2,7.2-2.8,10.4-6.3c3.1-3.4,6-4.4,8.9-4.4c2.8,0,4.6,0.8,1.5,1.9c-3.1,1.1-11.8,5.5-10.5,6.3  c1.4,0.8,9.4,5,11.6,5.1c2.2,0.1,6.3-0.3,6.8,4c0.6,4.3,0.3,5.6-0.3,3.9c-0.6-1.8-3-4.3-2.6-1.4c0.3,3,0.6,5.5,3.4,4.3  c2.8-1.1,1.9-4.9,5.5-5.5c3.5-0.6,11.5-2.5,14.6-4.9s4-2.5,5.6-2.4c1.6,0.1,1.8-1,0.3-1.7c-1.5-0.8-2.3-1.5-0.5-1.8  c1.8-0.3,6.6-0.3,3.6-2.2c-3-1.9-7.1-4.1-5.9-5c1.1-0.9,2.3-1.4,4.1,0.5c1.9,1.8,5,2.1,6.8,2.5c1.8,0.5,0,1.4-1.5,3.5  c-1.5,2.2-3.1,4.1-1.1,5.3c1.9,1.1,5-0.3,6.9-2.8s5-7.4,6.9-9c0.4-0.3,0.9-0.6,1.5-1C826.8,483.9,825.3,482.4,823.6,483.9z" stroke-miterlimit="10" stroke="#FFFFFF"/>
<path name="揭阳市" fill="#D3D3D3" id="path12" d="M871.5,417.6c-1.9-1.8-3.2-4.1-4-8.4c-0.8-4.1-4-11.5-6-15.4  c-2-3.9-7.1-7.3-12-8.5c-3.3-0.9-6-3.3-7.6-4.8c-1.1-0.1-2.5-0.8-4.3-2.1c-3.4-2.5-7.1,1.4-9.5,4.9c-2.4,3.5-7.8,6.9-11.9,10.4  c-4.1,3.5-6.5,1.6-11.4,2.5c-5,0.9-5-1.3-7-2.5c-2-1.1-5.1-1-6.4,0.9s-4.9-0.4-6.8-1.9c-1.9-1.4-3.1-0.8-4.8,1.3  c-1.6,2-3.1,4.4-2.2,7.1c0.9,2.8-1,1.6-3.5,4.5c-2.5,3-7.3,3.3-8.6,2.9c-1.4-0.4-5.4,0.4-7.4,4c-1.8,3-2.5,4.6-4.4,5  c0.8,0.8,2.8,2.6,4.6,3.8c2.5,1.5,3.1,7,3.1,9.9c0,2.9,3.5,0.5,7.4-0.4c3.9-0.9,4.4,0.5,7.4,0.9c3,0.4,3.5,1.5,2.9,3.9  c-0.6,2.4-1,4,0,7.3c1,3.1-3,2.5-4.6,2.6c-1.6,0.1-0.5,4.4-2.1,4.4c-1.6,0-2.1,1.5-3.5,2.9c-1.4,1.4,6.8,5.3,10.3,7.2  c3.5,2,5.5,1.9,9,0.6c3.5-1.1,2.1,4,5.5,6.8c3.4,2.6,2.1,6.9,2.6,11.4c0.5,4.5,6,3.4,10,4.8c4,1.4,7.9,3.8,10,3.9  c2.1,0.1,5.4-1.5,7.5-3.5c1.6-1.5,3.1,0,3.8,0.9c2.6-1.5,6.6-3.5,5.8-4.7c-1-1.6-0.8-3.9,1.4-2.4c2.1,1.5,5.8,6.5,8.9,6.1  s5.6-3.4,8.6-2.8c3,0.6,5.1,0.5,6.4-2.4c1.3-2.8-1.9-5.1-0.5-5.5c1.4-0.4,3.1,2.4,5.6,0.3c2.5-2,3-2.8,1.8-5.6  c-0.8-1.8-1.1-3.8-1.3-5.8c-1.1-0.1-4.3-0.1-7.5,0.6c-3.5,0.8-4.9,4-9.5,4c-4.6,0-9.6-5.9-14.3-7.9c-4.6-1.9-2.6-5.4-0.6-7.6  c1.9-2.1,5.5-9.9,9-14.4c3.5-4.5,2-9,1.5-12c-0.5-3,1-4.4,3.9-7.1c2.9-2.8,4.4-2,5.3,0.1c0.9,2.1,4.6,4,8,3.6  c3.4-0.4,4.5,1.3,7.1,3.8s3.8-0.6,5.4-2.5c1.1-1.3,1.9-2.3,2.3-2.8C873.4,419.5,872.5,418.5,871.5,417.6z" stroke-miterlimit="10" stroke="#FFFFFF"/>
<path name="汕头市" fill="#D3D3D3" id="path13" d="M903.1,395.1c-2-1.6-4.5-4.4-7.4-3c-2.6,1.1-7.1,5.3-10.3,6.4  c-3.1,1.1-4.3,10.1-5,14.1c-0.6,4-2,7-3.8,8c-0.9,0.5-1.6,0.2-2.5-0.4c-0.4,0.5-1.1,1.5-2.2,2.8c-1.6,1.8-2.9,4.9-5.4,2.5  c-2.5-2.4-3.8-4.1-7.1-3.8c-3.4,0.4-7.1-1.4-8-3.6c-0.9-2.1-2.5-2.9-5.3-0.1c-2.9,2.8-4.4,4.1-3.9,7.1c0.5,3,1.9,7.5-1.5,12  c-3.5,4.5-7.1,12.3-9,14.4c-1.9,2.1-4,5.6,0.6,7.6c4.6,1.9,9.6,7.9,14.3,7.9c4.6,0,6-3.3,9.5-4c3.2-0.8,6.4-0.8,7.5-0.6  c-0.1-1.3-0.1-2.4-0.1-3.5c0-2.8,1.5-5.6,3.9-7c2.4-1.4,3.1-4.9,1.4-5.3c-1.8-0.5-1.8-0.9-3.2,0.4c-1.5,1.3-4.3,0.9-5.3-0.6  c-1.1-1.5-0.1-2.5,1.4-2.4c1.5,0.1,10.5-0.6,10.5,1.8s-1.3,9.9,2.8,5.6c4-4.3,8.2-8.1,10.9-7.4c2.6,0.8,5.5,3.3,6.3,2.1  s0.7-2.5-1-3.6c-1.8-1.1-5.6-2.6-4.6-5.3c0.9-2.6,1.8-3.6,0.4-4.3c-1.4-0.6-6.3-3.3-5.1-4.2c1.1-0.9,1.3-2,2.8-1.3  c1.5,0.8,4.6,3.4,8-1.5c3.3-5,9.3-14.9,9-18.4c-0.1-3.6-1.3-8.8,0.8-10.9C903,395.9,903.1,395.5,903.1,395.1z" stroke-miterlimit="10" stroke="#FFFFFF"/>
<path name="江门市" fill="#D3D3D3" id="path14" d="M470.5,542.1c0.1,4.9,5.5,12.4,6.1,13.3c-0.5,0-0.9,0.1-1,0.6  c-0.5,2.1-1.5,3.9-4.6,3.6c-3.1-0.1-5.4,0.4-4.1,3.1c1,2.4,3.8,4.9,4.6,5.8c0,0.3,0,0.4-0.1,0.6c-0.4,3.3-3.8,7.6-5.8,10.3  c-2,2.5-3.5,0.8-4.5-2.3c-0.9-3.1,0.3-16.8-0.4-20.9s-2.6-3.4-4-3.5c-1.4-0.1,2,11,2,14.9c-0.1,3.9,0,8.5,1.5,12.5  c1.4,4-7,14.3-9,16c-2.1,1.8-0.1,5.1,1.1,7s0.5,4.1-0.9,4.5c-1.4,0.5,1.9,4.3,3.1,5.5s0.9,3.4-1.4,4c-2.2,0.6-1.4,0.3-2.2,2.3  c-0.8,2-1,3.1-3.8,5.3c-2.8,2.3-2.9,3.4-7.1,1.1c-4.3-2.4-4.7-9.8-4.7-11.8s-1.9,2-3.9,2.1c-2,0.1-4.2,5-5.3,6.6s-3.8,5-5.9,5.5  c-2.1,0.5-3.3,1-3.3,4.6c0,3.6-0.4,2.6-3.3,5.6c-3,3-4.8,2.1-8,0.9s-4.1-6.1-10.6-6.6c-6.5-0.5-3-7.1-2.8-10.3s5.1-4,8-5.5  c3-1.5,1.4-2.4,0.5-4.2c-1-1.8-1.9-0.3-1.9,1.4c0,1.6-0.6,1.4-3.1,2.1c-2.4,0.8-4.9,2.3-7-0.1c-2.1-2.4-0.1-9.5,0.4-11.5  c0.5-2,0.3-3.4-1.4-3c-1.5,0.5-3.5,6.3-3.1,8.8c0.5,2.5,1.5,8.5,2.6,9.9c1.1,1.4,2.3,15.9,1.9,21.3c-0.4,5.3-4,2.4-6.9,3.5  c-2.9,1.1-5.5,3.4-9.1,3.3c0.5-1.6,2.4-7.1,4.1-10c2.1-3.5-0.1-7.6,2.1-9.2c2.2-1.6,1.9-4,1.9-6.8c0-2.8,1.6-6.5-1.6-7.9  c-3.1-1.3-8.6-2.3-9.2-3.6s-0.4-4-2.9-5s1.3-2.9-1.1-4.1s-5.8-1.1-8.3-2.9c-2.5-1.7-5-4-5.8-5.3s-1.9,0.1-3.5,0.1  c-1.6,0-3-0.4-2.9-3c0.1-2.8,1.1-5.8,0.8-8.9c-0.4-3.3,1.8-5.4-0.4-6.9c-2.1-1.4-2.8-1.6-1.1-3.4c1.6-1.8,2.8-4.1,3.4-6.5  c0.6-2.4,2.5-4.3,4.6-3.5c2.1,0.8,6.5,0.1,6.9-1.6c0.3-1.1,1.4-2.9,1.6-4.1c0.4-0.1,3.6-0.9,5.5-0.9c2,0,4.5-1.5,4.5-4.4  c0-2.8,3.9-4.4,4.8-8.6c0.9-4.2,3.5-4.4,5.5-4.2c2,0.1,0.3-0.5,3.5-3.1c3.3-2.5,2.1-5.4,4.3-6.6c2.1-1.3,3.5,2.4,5.1,4.4  c1.6,2,2.6,1.8,6,1.5c3.4-0.3,0.8-6.8-0.5-9c-1.3-2.1,0.5-4.3,0.5-4.3c2.3,0.1,2.6-0.6,2.4,2c-0.1,2.8,2.9,6,4.3,4.3s-1.5-4.8,0-6.1  s4.8,0.4,5.1-0.9s0.6-6.1,3.6-6.9c2.9-0.6,5.3-0.4,6.9,2.3c1.5,2.6,3.4,10.3,6.5,4.2c3.1-6,4.8-13.4,6.5-15.4c1.8-2,2.9-5.3,5.6-3.8  c2.8,1.5,7.1,4.5,11,5.6c3.8,1.3,6.6,3.8,7,6c0.4,2.2,3.1,5.5,3.1,5.5v0.1c-1.3,1.1,0.4,7.9,1.9,9.3  C466.9,528.6,470.3,537,470.5,542.1z M435.5,638.1c-1.8,0-4.1,0.4-4.5,2.1s0.3,4.3-1.8,4.6s-4.6-0.3-5,2.3c-0.4,2.5-0.6,5.3,1.6,4.8  c2.3-0.6,2.5-1.6,3.5-0.1c1,1.4,1.4,3.8-0.1,3.5c-1.5-0.3-2.8-0.3-3,1.6c-0.3,1.9-1.1,4.8,0.3,3.8c1.4-1,2-0.1,2,2.8  c0,2.9-1.4,5,1.1,3.5c2.5-1.5,3-3.1,2.8-5c-0.4-1.7,0.8-6.3,0.6-9.9c-0.1-3.6-0.8-5.4-0.1-5.9c0.6-0.5,1.5-3.3,2.8-5  C436.6,639.5,437.3,638.1,435.5,638.1z M416,647.6c-3.3,0.4-8,0.4-7,1.9c1,1.5,0.4,1.8-1.1,2.3c-1.5,0.5-0.4,0.9-1.9,2.8  c-1.5,1.9-2.1,3.8-3.8,4.4c-1.8,0.6-3.4,3.8-1.5,3.9c2,0.1,3.1-2.1,4.4-2.5s2.4-1.4,4.4-0.5c2.1,0.9,5.6-0.6,6.4-1.3  c0.8-0.6,1-1.5,0.8-3.3c-0.3-1.9,0.5-3,1.5-4.5C419.1,649.3,419.3,647.3,416,647.6z" stroke-miterlimit="10" stroke="#FFFFFF"/>
<path name="湛江市" fill="#D3D3D3" id="path15" d="M219.6,682.9c-2.3,0.1-4.8,0.5-6.5,1.8c-2.4,1.6-7.4,2.5-11.5,0.6  s-3.4-0.3-7.5,0.5c-4.1,0.8-10,14.7-12,16.1c-2.1,1.4-1-2.4-1-5.3c0-2.8-1.1-1-2.4-3.3c-1.1-2.3-1.1-0.8-1.6,1.8  c-0.5,2.6,0.9,4.4,2.5,7.8s-3.3,9.1-4.5,11.4s1,3.6-2.3,7.8c-3.4,4.1-6.5-1-6.6-4.5c-0.1-3.6-3.1,0.4-6.8-2.4  c-3.6-2.8,2.4-2.4,11.5-2.6c9-0.3,4.2-5.9,3.4-7.8c-1-1.9-2.4,0.5-3.5,2.1c-1.1,1.6-3.5,2.5-6.7,0.8c-3.3-1.6-4.5-1-6.8-1.6  s-1.6-4.3-1.6-6.8s3.5,0.3,4.7,1.1c1.3,0.9,2.5-1.5,2.3-3.4c-0.2-1.9-3.6,0.5-3.5-1c0.1-1.4,2.3-0.5,2.9-1.6  c0.6-1.3-0.5-0.5-1.9-0.5c-1.4-0.1,0.8-1.8-0.1-2.8s-1.4,1.1-3.5,4c-2.3,2.9-1.8,0.8-1.8-2.6s0.8-4.1,2.4-7.6s-1.1-1.4-2.1,0  s-1.9,3.1-3.1,1.8s-0.9-5.3,0.1-8c1-2.6,1-1.9,0.1-3.4c-0.8-1.5-5.5,4.4-5.9,5c-0.4,0.8,2.5,4.6,4.1,6.4c1.6,1.6,1.4,3,1.5,5.5  c0.3,2.5-2.5,3.4-3.6,2.1c-1-1.3-1.6-0.6-1.6,1.8c0,2.5,3.5,5.8,5.5,7.9s1.9,3.3,1.8,5.6c-0.3,2.5-5,4.5-5.5,7.2  c-0.5,2.8-2.9,2.8-4.4,2.1c-1.4-0.6-2.9,1.6-2.9,3c0,1.4,5.9,2,6.5,1.8c0.6-0.3,3.1-1.3,3.3,0.5s4.4,3.8,6.6,4.4  c2.3,0.6,5.3-0.3,9.3-1.3c4.1-1,1.6,4.6,0.2,8c-1.4,3.5-0.6,3.8-1.1,7.5c-0.5,3.9-4.6-0.4-5.1-4c-0.5-3.6-7.5-3.6-11.5-3.8  c-4-0.1-11.1,5.5-14.5,5.9c-3.3,0.4,0.9-2.5,1.4-6.4c0.5-3.9,7.9-6.1,9-7.6c1.1-1.5-0.8-1.8-2.9-0.6s-3,1.6-3.3-2  c-0.3-3.8-2.9-2.9-5.5-3.1c-2.6-0.3-1.6,0.9-1.6,2.8s0.5,3.8-1.3,4.9s-1.5-3.5-1.5-6.3c0-2.8-0.6-2-1.9-2.4s0,6.8-0.6,7.6  s-1.5,2.3-1.1,5.5c0.4,3.1-4,0.9-5.1-0.5s-3.3-4.3-3.6-2.5c-0.4,1.6,3.6,5.6,5,7.5c1.3,1.9,0.8,3.5,0.5,5.6s0.4,3.5,1.8,5  s1.4,1.6,0,4.8c-1.4,3,2.3,1.5,4.6-0.1c2.3-1.6,2.9,1.7,4.1,2.6c1.1,0.9,5.8,0.1,6.8-0.9c1-1,7.4,3.5,9.5,4.6  c2.1,1.1,0,8.9-1.5,12.6c-1.5,3.8-3.5-8.1-3.5-10.4c0-2.1-1.8-2.4-1.8-1.3c0,1.1-0.5,4.3-1.6,5.9c-1.1,1.6,1.1,3,1.5,5  c0.4,1.9-2.4,6-3.5,7.8s1.4,0.6,2.8-0.6s0.8,1.3,0.8,3.8c0,2.4,1.5-0.6,3.1-0.4c1.6,0.3,1.5,0,3.3-1.5s2.4,4.8,2.8,7.4  c0.4,2.6,2.9,2.1,7,1.8c4.1-0.4,6.1,10.3,5.8,15.8c-0.4,5.6-13.4,18.8-15.6,18.8c-2.3,0-8.6,4.1-10.9,6.3c-2.4,2-2.4,1.6-5.4-0.9  s-6.4,0.6-8,2.6c-1.6,1.9-3.4,1.8-6.4-0.5c-3-2.4-8.2-4.4-10.9-5.7c-2.7-1.4-4.1,2.6-5.6,1.4s-4.4,2.5-6.5,4.4  c-2.1,1.9-2.1-0.5-2-3.1c0.1-2.6,0.9-3.4,0.5-6.8c-0.3-3.3-2-3.3-4.5-4.3c-2.5-1-1.3-3-1.3-5.7c0-2.8,4.3-3.3,6.3-2.6s3.4,1.4,3.4,2  s1.5,6.8,3.9,7.4c2.4,0.6,3.6-1.6,4.3-3.1c0.5-1.5-1.9,0.1-4,0.3c-2,0.1-1.8-3,0.4-3c2.1,0,2.4-5.4,2.9-7.4c0.5-2,0.5-2.6-1.1-1.5  c-1.6,1.1-2.1,2.3-3.1,1.4c-1-0.9-1.9-2-3.4-0.3c-1.5,1.8-2-4.7-2.1-6.8c-0.1-1.9-0.1-1.8-1.5-1.6c-1.4,0.1,0.1,4.5,0.9,6.3  c0.6,1.8,1,2.9-0.3,3c-1.3,0.1-1.8-1.5-3.9-4.8c-2-3.2-3.8-1.6-6-1.9c-2.4-0.3-2.6-3.6-2.6-5.6s1.5-1,2.9-1c1.5,0.1,1-1.9,1-4.4  s-2-0.6-2.3,0.8c-0.2,1.4-0.5,1.6-1.3,1.4c-0.8-0.4-0.4-2-0.4-4.3c0-2.3-5.3-3.9-7.5-4.9c-2.1-1-2-4-0.7-6.3c1.3-2.2,4.6-1,7-0.9  c2.4,0.1,5-0.4,5.6-2.3s-8.8,0-10.9-0.1c-2-0.1-0.7-4.4-0.5-8.5c0.3-4.3-2.5-5.9-3.8-7.9c-1.3-2-1.8,1.6-1.9,3.6  c-0.1,1.9-5.1-8.8-6-12.3c-0.9-3.5,0.5-4.9,3-6.6c2.5-1.8,1.5-5.3,1.5-9.9c0-4.6-1-4.6-1.9-9.1c-0.9-4.5,2.8-8,4.4-9.6  c1.6-1.6,1.4-0.1,3.5,1.3c2.1,1.4-0.3-3.3,1.3-4.9c1.4-1.6,1.5-10.3,1.5-15s9.1-2,10.6-2s15.9-0.3,12.4-0.4c-3.5-0.3-3.1-1.1-5-3.6  s0.8-4,1.5-6.1s0-2.4,0-4.6c0-2.4-1.8-1.9-5.4-1.9c-3.6,0-2.5-0.4-3.6-2.8s-2.4,3.6-4.6,3.6c-2.4,0-1.1-4.6-1-7.5  c0.2-2.9-2.8-1.8-3.1-0.3c-0.4,1.5-0.6,2.5-1.5-0.4c-1-2.9-0.4-10-0.4-12.4s-0.3-5.4,1.8-6.4c1.9-1,5,2.5,8.8,4  c3.6,1.5,2.8,0,6.6-3.1c3.9-3.1,6.1-16.3,7.4-21.3c1.1-5,7.4-4.6,10.6-4.3s4.6,1.1,8.1-1.8s12.5-0.6,15.6-1c3.1-0.4,3.3-2.1,5.8-3.9  s5.4,4.3,10.3,3.6c0.7-0.1,1.3-0.5,1.5-1.1c1,1,3.1,3.4,1.5,4.9c-2,1.9-7,0.3-6.4,3.9s3.1,3.1,1.3,6c-1.9,3-3.8,5.9-1.8,8.1  c2,2.1,7.9,3.9,6.3,6.5c-1.8,2.6-2.6,5.4-0.9,8.6s1.5,7,4.8,7.3c3.2,0.3,4.4-0.1,4.7,2.8c0.5,3-2.4,6.4,3,5c5.3-1.4,6.3-1.9,9.5,0.5  c3.3,2.4,7.1,3,8.4,1.4c1.3-1.5,9.1-5.8,9.1-9.9c0-4.1,2.5-8.5,5-7c2.5,1.5,4,10.4,6.8,11.8s6.4,0.6,6.6,3.6s0,5.1,2.8,5.1  C215.5,677.8,219,677.8,219.6,682.9z M175.9,742.9c-0.3-1.9-1.6-1.6-2.8,0.3s-5.1,4-4.4,5.8s1.6,4.5,3.6,4.3c1.9-0.3,3-2.6,3-2.6  s3.3-3.6,3-5.4C178,743.3,176.1,744.8,175.9,742.9z" stroke-miterlimit="10" stroke="#FFFFFF"/>
<path name="梅州市" fill="#D3D3D3" id="path16" d="M737.4,282.9c1.1,2,6,7.3,8.5,8.6c2.4,1.4,4,2.1,2.3,5.9  c-1.8,3.6-3.9,8.1-3,11.8c0.9,3.6,6.4,10.6,4,12c-2.3,1.4-5.1,2-4.3,3.6c0.9,1.6,4,3.5,1.1,4.5s-4.8-0.6-4.4,1.1  c0.4,1.7,2.6,5.9-0.6,5.8c-3.1-0.3-5.6-2.9-7.8-1.4c-2.1,1.5-4.9,5.4-4,8.4c1,3,5.4,9.3,2.6,14.5c-2.8,5.4-2.9,11.9-6,14.5  c-3,2.6,2.5,3.1-0.4,4.6c-2.9,1.5-5.1,3.9-2.5,4.6c2.5,0.8,5.6-2,7.1,1.9c1.6,3.8,5.5,6.1,5,15.8c-0.6,9.6-3,14.5-0.6,18.4  c2.4,3.9,6,13.6,8.4,10.4c2.4-3.3,6.9-10,9.5-10c2.6,0,3.4-1.6,5.4-5.1s6-4.4,7.4-4c1.4,0.4,6.1,0.1,8.6-2.9s4.4-1.9,3.5-4.5  c-0.9-2.7,0.7-5.1,2.3-7.1c1.6-2,2.9-2.8,4.7-1.3c1.9,1.4,5.4,3.8,6.8,1.9c1.3-1.9,4.4-2,6.4-0.9c2,1.1,2.1,3.4,7,2.5  c5-0.9,7.4,1,11.4-2.5c4.1-3.5,9.5-6.9,11.9-10.4c2.4-3.5,6.1-7.4,9.5-4.9c3.4,2.5,5,2.5,7.3,1.4c2.2-1.3,6.8-0.6,9.5-1.4  c2.8-0.8,5-3.1,4.1-5.5c-0.8-2.4-4.1-4.4-3.4-5.6c0.8-1.3,3.5-4.5,7-4.9s9.5-5.1,11-8.3s3.1-11.4,5.9-12.3s5.6-3,6.1-5.9  c0.5-3,0.4-8.4,4.5-8.4s7.5-1.5,9.1-4.3c1.6-2.6,6.9-6.4,9.6-7c-3.4-3.4-7.3-8.1-7.6-10.4c-0.6-3.1,0.3-9.3-3.1-10  c-3.2-0.8-3.9-3.5-3.6-7.5c0.3-4-5.6-5.4-7.1-5.4s-2.9-5.6-1.8-10.3c1.1-4.6,4.3-6.6,3.5-9.1c-0.7-2.5-5.3-6.6-5.3-3.1  s-2.8,3.6-6,3.6s-14.1-0.8-15.5,1.9c-1.4,2.8-4,6-6.6,3.3c-2.5-2.8-1.8-7.8-4.3-10.6s-3.6-5-7.8-6c-4-1-8.9-5-6.6-6.6  c2.4-1.5,8.1-6.1,4.5-7.5c-3.6-1.4-4,0.6-7,3.6c-2.9,3.1-4.5,5.3-8.9,4.5s-2.5-6.1-7.5-6.1s-8.5,0-11,0.6s-7-1.9-8.9-3.5  c-1.9-1.5-7.5-5.6-12.1-5.6c-4.6,0-6.6,0-5,1.9c1.5,1.9,3.9,3.9,1.1,4.5c-2.8,0.6-3.9-0.8-5.3-2.8c-1.4-1.9-2.9-2.1-4.6,1.8  c-1.8,3.9-6.4,16-4.3,18.1c2.1,2.1,2.1,3.6,2.1,7c0,3.2,1.4,6.4,3.6,7.7c2.4,1.4,4.3,5.8,1,6.8c-3.2,1-9.3,3.9-12.4,2.9  c-3.1-1-4.3-6-8.8-6.8c-3.5-0.6-7.5-3.4-9.5-5.8C742,271.4,736.5,281.3,737.4,282.9z" stroke-miterlimit="10" stroke="#FFFFFF"/>
<path name="潮州市" fill="#D3D3D3" id="path17" d="M936.8,393.4c-2,0.1-5.3,3.9-8.1,6.9c-2.8,3-4.4,2-4.5,0  s-1.3-3.4-3.1-5.5c-1.9-2-7.5-0.5-9.5,0.6c-2,1.1-3.9-2.4-4-4c-0.1-1.8-1.3-1.8-3.9,0.6c-2,1.8-0.4,2.1-0.3,3.1  c-2-1.6-4.5-4.4-7.4-3c-2.6,1.1-7.1,5.3-10.3,6.4c-3.1,1.1-4.3,10.1-5,14.1c-0.6,4-2,7-3.8,8c-1.8,1-3.5-1.3-5.4-3s-3.2-4.1-4-8.4  c-0.8-4.1-4-11.5-6-15.4s-7.1-7.3-12-8.5c-3.3-0.9-6-3.3-7.6-4.8c1,0.1,2-0.1,3-0.8c2.3-1.3,6.8-0.6,9.5-1.4c2.8-0.8,5-3.1,4.1-5.5  c-0.8-2.4-4.1-4.4-3.4-5.6c0.7-1.3,3.5-4.5,7-4.9c3.5-0.4,9.5-5.1,11-8.3c1.5-3.1,3.1-11.4,5.9-12.3s5.6-3,6.1-5.9  c0.5-3,0.4-8.4,4.5-8.4s7.5-1.5,9.1-4.2c1.6-2.6,6.9-6.4,9.6-7c1.3,1.3,2.4,2.3,3.4,2.9c3.5,2.4-5.4,10.2-7.1,13.5  c-1.8,3.3,1,6,3.5,9.5s4.5,9.6,6.4,13.4c1.9,3.6,2.4,9.3,2.4,12.4s3.5,11.3,5.3,14.6c1.8,3.5,8.6,8.9,11.5,9  C936.4,392,938.8,393.3,936.8,393.4z M928.5,410.8c-0.1-1-0.8-0.1-1.5,0.8s-2.9,0.9-2.9,0.9s-3-0.9-3.3-0.1  c-0.4,0.8-2.6,2.8-3.8,2.6c-1.1-0.1-3.2-1.5-4.4-0.9c-1.1,0.6-4.9,3.3-2.8,5c2.1,1.9,7.5,2.6,9.9,2.6c2.4,0,11.4,1,11.3-2.4  c-0.1-3.4,1.1-3.8,0.3-5C930.3,412.9,928.6,411.8,928.5,410.8z M910.8,400.8c0.6-2.3,0.3-4.4-0.4-3.1s-2.1,2.6-2.9,2.9  s-1.1,0.8-1.1,0.8s-3.6,1.3-0.9,1.9C908.1,403.6,910.1,403,910.8,400.8z M918.8,399.8c0.1-0.8-0.1-2.1-1.6-1.5  c-1.5,0.8-2.8,0.4-1.3,1.4S918.8,400.5,918.8,399.8z M911.3,408.1c3.1-0.1,5-4.4,5.4-5.5s-0.8-1.5-1.9-1.4c-1.1,0.1-4.4,3.4-5,3.5  c-0.8,0.1-2.4,1.3-2.3,2.1C907.4,407.9,908.1,408.3,911.3,408.1z" stroke-miterlimit="10" stroke="#FFFFFF"/>
<path name="珠海市" fill="#D3D3D3" id="path18" d="M510.3,555.9c2-0.5,3.4-1.5,3.8-1.9c-0.5,1.8-0.4,3.1,0.8,3.6  c1.8,0.8,4.9,2.4,6.9,4.1s-3.1,2.5-1.6,4.5c1.6,2,0.6,3.6-1.9,4.5c-2.4,0.8,0,1.6,0.4,4.6c0.4,3-2.4,3.4-4.5,5.9  c-2,2.4-2.4-3.4-2.6-0.4c-0.3,3-0.6,5.6-3,5.3c-2.4-0.4-3.9,2-6.9,0c-3-2-8.8-3.9-7.5-2.1c1.3,1.9-1.9,3.6-3.9,6.1  c-2,2.6,3.4,7.4,6,8.3c2.6,0.9,3.9,1.8,2.4,2.3c-1.4,0.6,0.1,4.9-0.6,7c-0.8,2.1-9.3,0.9-10.9-0.6c-1.6-1.4-1.1-1.9-3.1-1.8  s-0.3-2-0.3-4.9s-0.8-6.3-2.1-7.9c-1.4-1.6,1,6.8-0.9,8.1s-1,2.1-1,4.8s0.4,4.3-3.8,3.8c-4.1-0.6-1,1.4-0.6,3.3s2.1,4.6,2.8,2.9  s1.9-0.3,3.8-0.9s2.8,2.4,3.3,6.4c0.6,4-3,4.1-5.4,2.1c-2.4-2-3.9-4.1-5-7.4c-1.1-3.3-1.6-5.4-3.3-7.5c-1.8-2.1-3.5-5-5.1-7.9  c-1.6-2.9,0.5-14,0.5-16.5s2.9-4.6,4.3-6.6s1.1-7.6,1-11c-0.1-3.1-0.6-0.5-1,2.5c-0.9-0.8-3.5-3.4-4.6-5.8c-1.3-2.8,1-3.3,4.1-3.1  c3.1,0.1,4.1-1.5,4.6-3.6c0.5-2.1,5.4,1.4,6,3.1c0.8,1.8,5.9,9,8,12.9c2.1,3.9,3.6,6.1,7.2,5.8c3.6-0.4,11.1-1.9,9.8-5.3  c-1.4-3.3-3.3-8.5-1.4-10.9C507.1,559.1,507.6,556.6,510.3,555.9z M534.8,611.9c-0.3,0.8-1.8,1.9-0.6,3.4c1,1.5,1.8,0.5,1.9-0.6  s0.8-2.8,0.3-3C535.6,611.4,535,611.1,534.8,611.9z M513.4,592.5c0-1.8-0.9-2.9-2.2-3.1c-1.4-0.3-3.5,0.4-3.8,1.4s-0.9,1.8-0.9,2.4  s-0.3,4.3,1.5,5.5c1.8,1.3,3,0.5,5.4,0.1c2.4-0.4,3-0.4,1.9-2S513.4,594.3,513.4,592.5z M571.1,619.3c-1,0.4-6.1,2.1-2.5,2.9  c3.6,0.6,4,0.6,4.8-1.8C574.1,618.1,572.1,618.9,571.1,619.3z M468.9,625.1c-1.1,1.4-2.4,3.1-1.6,4.5c0.8,1.4,2.2-0.9,3-1.3  c0.8-0.3,4.8-1.6,3.6-3.1C472.6,623.6,470,623.8,468.9,625.1z M583.4,608.3c-0.6,1.4-3,1-0.3,2.3s3.3,1.3,3.4-0.8  C586.6,607.9,584,606.9,583.4,608.3z M592.5,609.4c-1.5-1.1-2.1-0.9-3.8-0.8c-1.5,0.3,2.6,2,2.8,1.6  C591.6,610,594,610.5,592.5,609.4z M602.3,600.5c-2.3,1.4-1.5,2.1-3.3,1.6c-1.8-0.6-1.9,0.1-3.6,1.3s-2.8,2.6-0.4,2.1  s4.3-0.8,5.4-2.3c1-1.5,4.5-0.1,5-2.4C605.8,598.5,604.5,599.1,602.3,600.5z M879,747.8c-0.3-0.1-0.3-0.8-0.1-1.1  c0.1-0.4,0.1-0.6,0.9-0.5c0.6,0.3,0.3,0.5,0.1,0.6C879.8,747,879.4,747.9,879,747.8L879,747.8z M801.3,695.8l3.9,6  c0.5-0.8,0-0.5-0.5-2.8s-2.1-0.5-1.9-1.6C803,696.1,801.3,695.8,801.3,695.8L801.3,695.8z M798.4,698.8l3.5,3.3  c-2,1.1-0.9-0.4-2.4-1S798.4,698.8,798.4,698.8L798.4,698.8z M790.6,723.1l4.8-0.3c-0.6,2.1-0.9,0.3-2.4,1  C791.5,724.6,790.6,723.1,790.6,723.1L790.6,723.1z M790.3,719.8l7.1,1.1c-0.1-0.9-0.4-0.4-2.5-1.5c-2-1.1-1.9,1.1-2.5,0.3  C791.9,718.6,790.3,719.8,790.3,719.8L790.3,719.8z M878.5,743.1l4.4,2c0.3-2.3-0.8-0.6-1.9-1.8  C879.9,742.1,878.5,743.1,878.5,743.1L878.5,743.1z M904,755.5l-5.1,5c0.7,0.4,0.5-0.1,2.6-1.1c2.1-1,0.1-2.1,1.4-2.1  C903.9,757.4,904,755.5,904,755.5L904,755.5z M876.6,747.4l2.9,3.8c-2.1,0.8-0.8-0.5-2.1-1.4C875.9,749,876.6,747.4,876.6,747.4  L876.6,747.4z M885.4,738.4l4.8,0.6c-0.4-2.3-0.9-0.4-2.3-1.3C886.5,737,885.4,738.4,885.4,738.4L885.4,738.4z M891.5,765.1  l-7.1-0.8c0.3,0.9,0.5,0.4,2.5,1.3c2.1,1,1.8-1.3,2.5-0.4C890,766.4,891.5,765.1,891.5,765.1L891.5,765.1z M896.4,737.3l3.1,3.6  c1.3-1.9-0.4-0.9-0.9-2.4C898,737,896.4,737.3,896.4,737.3L896.4,737.3z M901.9,741.5l1.9,4.4c1.8-1.5-0.1-0.9-0.1-2.6  C903.6,741.6,901.9,741.5,901.9,741.5L901.9,741.5z M903.4,748.4l1.3,4.6c1.9-1.3,0-0.9,0.3-2.5C905,748.8,903.4,748.4,903.4,748.4  L903.4,748.4z M897.3,761.6l-4.5,1.4c1.3,1.9,0.9,0,2.6,0.1C896.9,763.4,897.3,761.6,897.3,761.6L897.3,761.6z M890.3,762l-4.5-1.4  c1.3-1.9,0.9,0,2.6-0.1C889.9,760.3,890.3,762,890.3,762L890.3,762z M899,754.6l-2.6,4c-1.4-1.7,0.3-0.9,0.6-2.5  C897.3,754.5,899,754.6,899,754.6L899,754.6z M901.9,749.3l-2,4.4c-1.6-1.5,0.1-0.9,0.1-2.5C900.3,749.4,901.9,749.3,901.9,749.3  L901.9,749.3z M899.4,743.4l2.4,4.1c-2.2,0.5-0.6-0.6-2-1.6C898.5,744.9,899.4,743.4,899.4,743.4L899.4,743.4z M892.3,738.4l2.5,0.4  C894.1,737.1,892.3,738.4,892.3,738.4L892.3,738.4z M892.3,759.9l2.8-0.5C892.6,757.8,892.3,759.9,892.3,759.9L892.3,759.9z   M879,747.8c-0.3-0.1-0.3-0.8-0.1-1.1c0.1-0.4,0.1-0.6,0.9-0.5c0.6,0.3,0.3,0.5,0.1,0.6C879.8,747,879.4,747.9,879,747.8L879,747.8z   M805.1,701.8c0.5-0.8,0-0.5-0.5-2.8s-2.1-0.5-1.9-1.6s-1.5-1.5-1.5-1.5 M801.9,701.9c-2,1.1-0.9-0.4-2.4-1  c-1.5-0.5-1.1-2.3-1.1-2.3 M795.4,723c-0.6,2.1-0.9,0.3-2.4,1c-1.5,0.8-2.4-0.8-2.4-0.8 M797.4,720.9c-0.1-0.9-0.4-0.4-2.5-1.5  c-2-1.1-1.9,1.1-2.5,0.3c-0.6-1-2.1,0.1-2.1,0.1 M882.9,745.1c0.3-2.3-0.8-0.6-1.9-1.8c-1.1-1.3-2.5-0.1-2.5-0.1 M898.8,760.5  c0.8,0.4,0.5-0.1,2.6-1.1s0.1-2.1,1.4-2.1c1.1,0.1,1.3-1.8,1.3-1.8 M879.5,751.1c-2.1,0.8-0.8-0.5-2.1-1.4c-1.4-0.8-0.7-2.4-0.7-2.4   M890.1,739c-0.4-2.3-0.9-0.4-2.3-1.3c-1.4-0.9-2.5,0.6-2.5,0.6 M884.3,764.5c0.3,0.9,0.5,0.4,2.5,1.3c2.1,1,1.8-1.3,2.5-0.4  c0.8,0.9,2.1-0.3,2.1-0.3 M899.4,740.9c1.3-1.9-0.4-0.9-0.9-2.4c-0.5-1.5-2.3-1.3-2.3-1.3 M903.8,745.9c1.8-1.5-0.1-0.9-0.1-2.6  c0-1.6-1.8-1.8-1.8-1.8 M904.6,753c1.9-1.3,0-0.9,0.3-2.5c0.3-1.6-1.5-2-1.5-2 M892.8,763c1.3,1.9,0.9,0,2.6,0.1  c1.6,0.1,2-1.5,2-1.5 M885.6,760.6c1.3-1.9,0.9,0,2.6-0.1c1.6-0.1,2,1.5,2,1.5 M896.4,758.6c-1.4-1.8,0.3-0.9,0.6-2.5  c0.3-1.6,2-1.5,2-1.5 M900,753.6c-1.6-1.5,0.1-0.9,0.1-2.5s1.8-1.8,1.8-1.8 M901.8,747.4c-2.2,0.5-0.6-0.6-2-1.6  c-1.3-1-0.4-2.5-0.4-2.5 M894.8,738.8c-0.6-1.6-2.5-0.4-2.5-0.4 M895,759.4c-2.4-1.6-2.8,0.5-2.8,0.5" stroke-miterlimit="10" stroke="#FFFFFF"/>
<path name="广州市" fill="#D3D3D3" id="path19" d="M575.4,371c-1.4-5,0.1-10.8,0.3-12.6c0-0.1,0.1-0.3,0.1-0.4  c-1.8,0-7.4-0.1-11.9,0.1c-5.3,0.4-8.5-0.9-11.6,2.8c-2.8,3-7.8,4.9-10.4,4.3c-0.4,0.4-4.3,4.1-6.3,7c-2,3-9.1,3.9-12.8,4.4  c-3.6,0.5-3.9,7-1.5,10.9c2.3,4-0.9,7.1-6.6,8.1s-13.8-1.8-15.8-3.3c-2.1-1.5-8.4,2.1-8.9,4.9s-7,6.7-11.5,7.1c-4.5,0.4-5,4.9-5,7.3  c0,2.4-4,5.3-7.5,5.4c-3.4,0.1-16.3,10.1-16.9,10.8c0.8,1.5,1.6,2.9,2.5,3.8c2.9,2.8,3.9,10.6,4.5,13.4c0.5,2.8,0.4,3.4,2,3.8  c1.8,0.4,2.4-0.6,2.8-3.6c0.4-2.9,4.8-0.9,7.5,1.5c2.8,2.4,1.3,7.5,3.4,10.1c2.2,2.6,1.9,11.1,3.8,14.5c1.9,3.4,3.6,10.8,3.6,13.8  s1.3,4.8,4.6,7s0.5,6.4-0.8,9.3c-1.3,3,5.3,3.5,7.2,3.5c1.9,0,4,0.9,4,4.8c0,1.3-0.6,2.4-1.6,3.5c1.6,0.6,4.5,1.7,5.7,3.1  c1.3,1.6,5,4.6,7.2,6.2l0.8,0.6c0.2,0.2,0.4,0.3,0.6,0.3c0.7,0.3,1.6,1,2.2,1.5c0.6-0.7,2-1.9,4.2-0.2c2.9,2.4,5.9,4.5,7.3,1.8  s-4.3-7.3-5.3-8.6c-1-1.4-15.5-11.1-12.1-11.1s4.3-0.3,6.5,2.1c2.1,2.4,10.6,7.9,11,4.9c0.4-3-2-7.9-5.6-8.4  c-3.8-0.6-5.5-3.1-5.9-5.6s-1.8-7.6-1.8-9.4s1.6-14.1-2.4-16.1c-3.9-2-5.5-4.1-8.8-4.3c-3.4-0.3-7-3.5-3.9-3.5s3.1,0.4,7.6,2.1  c4.1,1.6,9.8,3.3,11.3,5.9c1.9-1.4,6.4-4.5,8.9-4.6c3.1-0.1,6.1-1.3,7.9-2.6c1.9-1.3,3.5-3,6.9-3c3.1,0,7.5,0.4,10.1,1.1  c-1.5-1.3,5.9-3.4,9.1-5.3c3.8-2.1,1.6-11.1,0.6-17.1s4.4-4.4,8.8-5.6s1.8-8-0.4-10.5c-2.3-2.6-0.3-3.1,2.3-5.1  c2.4-2-7.4-4-11.5-6.8s-3.1-7.1-3.1-11.4c0-4.1-2-2.8-4.6-3.1s-2.6-6.8,0-6.8s4.1-3.4,8.5-5.8s16.8-9.8,19.1-9.5  C576.1,378.5,576.9,376,575.4,371z" stroke-miterlimit="10" stroke="#FFFFFF"/>
<path name="中山市" fill="#D3D3D3" id="path20" d="M516,538.6c-2.4-1-2.5-4.8-3.1-7.6c-0.6-3-3.9-6.1-3.9-6.1  s0.1-0.2,0.3-0.4c0,0,0,0,0.1-0.1c-0.7-0.5-1.6-1.1-2.2-1.5c-0.1-0.1-0.3-0.2-0.6-0.3c-0.2-0.2-0.5-0.3-0.8-0.6  c-2.2-1.6-5.9-4.6-7.2-6.2c-1.2-1.4-4.1-2.6-5.7-3.1c-0.1,0.1-0.2,0.2-0.2,0.2c-1.9,2-4.9,3.3-6.3,3.6c-2.1,0.4-7.5,2.2-10.4-0.4  c-2.8-2.6-6.4-0.8-6.9,1.8c-0.5,2.4-2.1,1.3-5-0.4c-0.3-0.1-0.8-0.1-1-0.1v0.1c-1.3,1.1,0.4,7.9,1.9,9.3c1.8,1.5,5.3,9.9,5.4,15.1  c0.1,4.9,5.5,12.4,6.1,13.3c1.6,0.1,4.5,2.4,5.1,3.8c0.8,1.8,5.9,9,8,12.9s3.6,6.1,7.3,5.8c3.6-0.4,11.1-1.9,9.7-5.3  c-1.4-3.3-3.3-8.5-1.4-10.9c1.9-2.4,2.4-5,5-5.8c2-0.5,3.4-1.5,3.8-1.9c0.3-0.9,0.6-1.9,1.1-3C516.6,547.4,518.4,539.6,516,538.6z" stroke-miterlimit="10" stroke="#FFFFFF"/>
</svg>