<?xml version="1.0" encoding="UTF-8" standalone="no"?><!-- Generator: Adobe Illustrator 18.0.0, SVG Export Plug-In . SVG Version: 6.00 Build 0)  --><svg xmlns="http://www.w3.org/2000/svg" xmlns:xlink="http://www.w3.org/1999/xlink" contentScriptType="text/ecmascript" zoomAndPan="magnify" contentStyleType="text/css" id="图层_1" mapName="广西壮族自治区" mapType="省市地图" enable-background="new 0 0 1000 750" version="1.1" xml:space="preserve" preserveAspectRatio="xMidYMid meet" viewBox="0 0 1000 750" x="0px" y="0px">
<path name="百色市" fill="#D3D3D3" d="M460.6,404.8c-0.2,0.1-0.4,0.2-0.6,0.4  c-1.4,0.6-6.2,4.4-8.6,4.1c-2.4-0.2-4.2-1-5.1-3.6c-0.9-2.6-3.5-9.6-4.5-13.4c-0.8-2.9-0.5-6.5,0.5-7.4c0-1.4,1-3.9,2.6-4.2  c1.8-0.4,3.5-3.1,7.1-6c3.5-2.9,0.4-6-0.5-7.6c-0.8-1.6-1.5-1.5-3.5-1.1c-2.1,0.4-2.4-0.8-3.8-2.2c-1.2-1.5-1.6-2.1,0-3.2  c1.6-1.1-0.6-1.2-3.4-1.5c-2.8-0.1-2.2,0.8-5.1,2.8c-2.9,1.9-6.8,1.2-8.4-0.6s-2.8-3.9-4.6-4s-2.9-1.1-2.8-2.9  c0.1-1.8-1.5-2.1-3-1.9c-1.6,0.1-1,2.6-4.6,5c-3.8,2.4-8.5-5-9-6.9c-0.5-1.9-0.6-3.1-5-2.1s-6.2-6.5-6.4-9.5c-0.1-3.1-4.1-1.5-4.5,0  c-0.4,1.5-1.9,2.8-5.1,1.5c-3.2-1.2-9.1-3.8-10.8-7.4c-1.6-3.6-4.9,0.1-7.1,1.2c-2.2,1.1-5.8-3.3-7.2-5.8s-2.6-3.1-5-3.1  s-6.4-5.6-8.9-8c-2.4-2.4,0.1-6.5,2.8-7.9c2.6-1.5,2.4-5,0.1-9.1c-2.2-4.2-1.2-5.5,0.5-8.8c1.8-3.2-1.5-5-5-5.8  c-3.5-0.8-4.1-6.9-4.1-9s-2.6-2.4-4.1-2.4c-1.6,0-1.6-2.6-0.6-4.2c1-1.6,0.5-2.8,0.5-4.9s-3-3.2-4.5-2.4c-1.5,0.8-1.9,1-3.5-0.5  c-1.6-1.5,5.3-5.8,8.2-6c3-0.2,4.9-0.5,5.3-2.4c0.4-1.9-9.4-8.5-12.2-9.6c-3-1.1-6.4-4.8-4-7.4c2.4-2.6,10.4,1.5,12.6,1.9  c2.2,0.4,1.6-2.4,0.9-3.5c-0.8-1.1-0.1-3,1.9-3.9c2-0.9,1.8-2.2,1.2-4.8s-3.8-1.9-4.2-3.9c-0.5-2-2.9-5.6-4.8-8.2  c-1.9-2.6-1.4-3.6-0.2-6.2c1.1-2.6,0.9-3.1-0.6-4.5c-1.5-1.4-1.2-1-1.2-2.7c0-1.8-2.8,0.4-4.9,1.9c-2.1,1.5-3.9,0.9-6.2-0.1  s-4.2-1.9-6.6-1.4c-2.1,0.5-6.8-0.5-7.5-0.8c-2.6,2.1-11.6,4.9-14.8,7.8c-3.4,3.1-11.6,3.8-14.2,2.6c-2.6-1.1-2.9-1.4-4.1,0  c-1.2,1.4-2.2,2.8-4.8,1.8c-2.4-1-2.4,2.4-0.2,4.8c2.1,2.2,2.4,7,2.5,9.1s0.8,8.8-1.8,10.1c-2.5,1.4-4,1.9-5.9,4.8s-4,3.8-6.5,4.1  c-2.5,0.4-3.9,1.5-3.9,3.6c0,2.1-0.1,2.5-4,3.8c-3.9,1.2-8.1-9-8.5-10.5c-0.4-1.5-4.2,0.6-7.3,0.2c-3-0.4-2.9,0.1-4.8,2.2  c-1.9,2.1-8-2.1-12-5.9c-4-3.8-6-2.8-8.3-2.8c-2.2,0-2.1,0.5-4.8-2.5c-2.6-3-5.1-1.1-8.5-0.5c-3.4,0.6-7.9-8.5-8.6-11.5  c-0.8-2.9-1.2-4.9-5-6.6c-3.8-1.7-6.4,0.4-10.5,1.2c-4,1-5.8,0.4-6.4-1.7c-0.6-2.1-0.6-1-5.1-5.4c-4.5-4.4-9.2,2.6-11.6,3.6  c-2.4,1-3.9,4.5-5.9,6c-2,1.5-2.1,1.5-2.9,8.6c-0.8,7.1-13,7.8-16.4,8.2c-3.4,0.5-3.9,2.2-3.9,4.4s-2.4,4.5-5.6,5  c-3.2,0.5-5.9,2-8.6,5c-2.7,3.1-4.2,3.1-6.1,0c-2-3.1-3.8-1-5.9-1.2c-2.1-0.4-5.5-1.2-6-3.9c-0.5-2.6-1.1-2.6-4-5.4  c-2.9-2.8-4.5-0.1-4.5,1.6c0,1.8-3.9,6.5-3.9,6.5s-1.1,1.7,0,2.4c1,0.5,1,2.1,1,4.8c0,2.6,1.8,6,3.6,7.4c1.9,1.4,1.9,5.8,1.9,9.1  c0,3.4,3.4,4.5,4.5,6.5c1.2,1.9,1,5.6,2.5,5.6c1.4,0,1.6,0.8,3.1,2.5c1.6,1.8,2.3,3.6,5.8,3.6c3.5,0,2.3-1.6,1.6-3.5  s-0.5-4.4-1.4-7.8s1.8-3.5,4.5-4.8c2.7-1.2,6.1,2.8,10,1.2c3.9-1.5,8.2,2.1,11.5,4.4c3.4,2.2,12.6-2.6,14.6-3.5  c2.1-0.9,4.9,1.6,5.4,5.4c0.5,3.9,5.6,4.4,9.1,6.2c3.5,1.9,1.2,3.6,0,5.8s1.8,9.1,5.8,12.6c4,3.5-1.4,5.1-5.1,7  c-3.6,1.9,5.6,10,7.8,10.5c2.1,0.5,7-3.4,9.8-3.5c2.7-0.1,4.4,0.5,5.4,5.1c1,4.5,8.9,5.1,12.4,4.5c3.5-0.5,4.4-3.4,4-7.1  c-0.4-3.9,3.4-4.4,7.5-6c4.2-1.6,4.5,0.5,5.2,3c0.8,2.5,0.4,3.6,0.9,6.3c0.5,2.6,4.4,2.2,4.9,0.1c0.5-2.1,9.1-1.9,10.9-1.9  s0,2.6,1.7,4.9c1.8,2.2,4.4,0.4,5.1-0.8c0.8-1,1.2-1.4,2.1-0.1c0.9,1.2,2.2,0.8,3.9-1.2c1.6-1.9,0-4.9,0.5-7.1  c0.5-2.3,8.9-1.4,12.6-1.6c3.6-0.1,4.2,3.6,4.9,6.6c0.8,3,1.9,4,4.9,4.8c3,0.8,1.8,3.1,1.8,6c0,2.8,3.5,5.3,4.4,7.9  c0.9,2.6,2.5,4.5,4.8,4.9c2.2,0.4,1.9,1.6,0.5,2.2c-1.4,0.8-1,2.6-0.1,4.5c0.9,1.9-2.5,2.2-4.9,2.2c-2.5,0-3.5,2.6-1.2,4.4  c2.2,1.7,2.1,5.1,2.1,9.1c0,4-1,10.1-3,11.9c-1.9,1.8-1.2,3.1,0,4.4s1.2,5.4-1.6,6.1c-2.8,0.8-3.4,1.7-9.1,6.9  c-5.8,5.1-5.8-0.9-7.1-2.6c-1.4-1.7-5.4-1.4-7.5-1.4c-2.1,0-4.2-1.9-5.4-3.4c-1.2-1.4-6.2,2.2-6.9,4.9c-0.5,2.6-1.9,2.6-3.9,2.8  c-1.9,0.1-5.1,2.5-6.5,4.8c-1.4,2.2-3.4,3-5.6,3s-1.2,2.2,0.8,4c1.9,1.8-0.1,4-2.5,4.4c-2.3,0.4-3.4,0.1-4,1.6  c-0.8,1.4-2.6,2.2-4.5,1.8s-3.4,0-2.2,2.2c1,2.2-1.7,4-4,4.9c-2.2,0.9-0.9,0.8-1.2,4.4c-0.4,3.6,1.2,5.8,3.4,8.6  c2.1,2.8,1,9.1,1.6,12.2c0.5,3.1,2.5,1.9,4.4,0.8c1.9-1.2,4.2-1,6.5-1.2c2.2-0.1,7.1,2.1,8.4,4.7c1.2,2.6,5.2,5.3,7.4,6.1  c2.1,0.9,4,2.8,6.1,4.2c2.1,1.4,3.1,5.1,6,4.2c2.9-0.9,3.5-0.5,7.4-1s1.2-1.9,3.5-5.1c2.2-3.1,8.2-0.9,14.5-1c6.2-0.1,6,0.8,10,3.1  c4,2.5,5.1,4.4,5.2,7.8c0.1,3.4,1.6,4.2,3.5,3.9s0.9,0.4,3.5,1.2c2.6,0.9,4,0.8,7-0.9c3-1.6,4.4-1.6,9.1-2.5c4.8-0.9,4.2-3,7.1-5.8  c3-2.8,5.2,0.4,8,0.8c2.8,0.4,4,2.5,6,5.2c1.9,2.8,5.1,1.8,6.5-0.1c0.8-1,1.1-1,1.8-0.4c1-1.4,9.2-12.5,10.8-14.7  c1.5-2.4,4.1-5.6,0.4-7c-3.8-1.4-2.9-4.2-2.6-6.5c0.3-2.2,0.8-5.6,0.3-6.8s2.6-1.2,4.2-2c1.5-0.8,11.6-3.2,12.9-7.5  c1.2-4.4,2.8-8.6,7.9-6.9c5.1,1.8,9.4,4.5,13.5,2.9c4.2-1.5,8.1-4.1,9.2-5.6c1-1.5,2.4-0.9,3.4,0c0.9,0.9,5.5,2,8-0.3  c2.5-2.2,3.8-4.7,6.9-3.8c3.3,1,4.4,4.5,4.4,6c0,1.5-0.6,7.1,4.2,8.3c4.9,1.1,5.6,1.2,6.8,2.9c1.1,1.6,2.1,1.9,4,1.9  c1.8,0,8.9,2.4,8.9-1.6s0.5-11.1,5.1-10c4.6,1.1,8.1,3.1,10.4,2.4c2.1-0.6,4.6-3.6,5.6-6.1c1-2.5,1.4-3.8,3.8-3.3  c1,0.3,1.9,0.4,2.6,0.6c0.1-2.4,6.2-8.9,7.2-10.6C460.5,407.6,460.6,406,460.6,404.8z" stroke-miterlimit="10" id="path0" stroke="#FFFFFF"/>
<path name="河池市" fill="#D3D3D3" d="M529.4,333.5c-0.8-2.2,1.2-3.6,3.1-2.9  c1.8,0.8,4.6,4.9,6.2,2.2c1.6-2.6,1.4-7,1.2-8.9s1.1-5.8,3.6-5.5c2.5,0.2,4.2-1.8,4.5-3s0.8-4.4,2-5.9s3.6-6.4,3-7.8s-2.2-2.6-0.4-3  s5.8-1.2,5.4-3.5s-0.6-5.8,1-4.4c1.6,1.5,3.9,2.2,5.9,1.5c1.9-0.9,2.5-0.2,2.8,1.2s1.2,6.4,2.5,7.6c1.1,1.1,4.1,0.6,4.9,0.4  c0-0.5,0.1-1.2,0.6-2.4c1-2.5,0.1-8.4,2.8-8.6s3-3.8,4.4-5.6c1.2-1.9,3.6-1.5,2-4c-1.6-2.6-0.9-3.8-2.9-3.8c-2,0-4.4-1.9-6.9-1.9  c-2.6,0-6.5-3.5-6.6-5.8c-0.1-2.4-0.1-4.4,1.6-4.2s0.6-2.1,2.2-4.2c1.8-2,8.8-3.9,7.2-6.6c-1.6-2.8-5-5.6-2.2-7  c2.8-1.2,3-3.9,3.9-6.1c0.9-2.2,1.2-4,3-5.2c1.8-1.1,1.5-1.4,2.9-1.5c1.4-0.1,2.2,0.8,3.6,2.5c1.4,1.7,3.4,1.1,3.8-0.2  c0.5-1.4,1.5-3,2.5-1.6c0.1,0.1,0.1,0.1,0.2,0.2v-0.5c1-2.1-1.5-4.6-2.5-5.4c-1-0.8,2.1-5.4,0.3-5.5c-1.9-0.1-1.4-3-1.8-4.9  c-0.4-1.9-2.2-0.1-3.9,0.9c-1.6,1-5.1,0.6-7.9,0.6c-2.8,0,0.9-8.1,4.8-10.8s3.4-6.2,4-11.9c0.5-5.8-3.2-3.9-6.5-6.5  c-3.1-2.6-4,0.1-5.4,1.9c-1.5,1.8-4,0.5-5.4-1.4c-1.5-1.9-3.8,0.4-5.6-1.4c-1.9-1.8-1.9,1.8-2.8,4.2s-5.9,1.5-9.1,0.6  c-3.2-0.8-2.9-4.8-2.9-7.6c0-2.9-1.4-3.1-3.1-4.6c-1.9-1.5-3-5.2-3.1-8.3c-0.1-2.9-2.1-4.2-2.9-5c-0.5-0.5-0.4-2-0.4-3.3  c-0.5,0-1,0-1.5-0.1c-2.9-0.8-2.6-2.8-4-6.5c-1.4-3.8-3.6-4.1-6.4-6.9c-2.8-2.8-6.4-2.1-8.1-1.1s-3-0.4-4-3.2s-3.5-5-7.1-6.6  c-3.8-1.6-4.2-0.8-4.2,2.4c0,3-3.1,4.5-5.9,4c-2.8-0.5-2.4-0.5-2.1,3.1c0.2,3.8-2.4,1.9-3.9,0.8c-1.5-1.2-1.9-1.2-3.8-0.5  c-1.7,0.8,0.5,1.5,2.6,3.5c2.1,1.9-0.3,3.2-3.1,3c-2.9-0.2-1.6,2.1-1,4c0.8,1.9-1,12.4-3.1,17.4c-2.2,5-5.8,4.1-9.7,3.5  c-4-0.8-8,3.2-12,3.6c-4,0.2-6.2,3.1-7.1,5c-1,1.7-4.2,2.1-5.9,1c-1.6-1.1-2.4-0.4-4.1,1.5s-1.2-3.9-1.1-6.2c0.1-2.4-1-2.9-1.5-6.7  c-0.5-3.9-3.9-1.5-4.2,0c-0.4,1.5-3,3-3,1c0-2.1,0.3-3-1.7-3.8c-2.1-0.8-2.5-0.4-2.2-5.1c0.2-4.6,0-4.2-2.6-3.9  c-2.6,0.4-1.8,2.6-1.9,4.5s-2.8,0.4-5,2.9c-2.2,2.5-5.1,3.2-8.5,3.9c-3.5,0.5-3.2-2.5-3.5-5.6c-0.1-3.1-0.3-2.9-2.4-3  c-2.1-0.1-3.8-5.2-3.6-9.2c0.1-4.1-0.4-5.4-2.4-5.1c-2,0.1-2.5-1.2-6.8-1.4s-5.4-1.2-3.4-6.4c2-5.1-3.8-10.4-5-11.1  s-5.9-0.1-4.2-2.9c1.6-2.6,2-3-1.1-3.6c-3-0.5-2.9-0.8-4.5,2.5s-7.1,3-10,2.9c-2.9-0.1-2.5,0.8-2,3.4c0.5,2.6-0.8,2.9-3.6,4.2  c-2.9,1.4-4.6,5.4-7.4,8.9c-2.6,3.6-2.1,5,0.1,6.6c2.4,1.6,3.6,4.1,3.4,8.3c-0.2,4.1-3.2,9.1-5.5,8.8c-2.2-0.4-4-1.4-5.3,2.9  c-1.4,4.2-4.6,4.9-7.2,4.9s-2.6-0.8-3.6,1c-1,1.9-3.8,1.9-5.3,0.5c-1.5-1.4-2.1-1.4-3.1,0.9c-1,2.2-5.2-0.1-7.4-0.8  c-2.1-0.6-7.2,4.4-9.5,7.5c-2.2,3.1-2.6,3.1-4.8,3.1s-4.2,0.1-5.5,2.4c-0.1,0.2-0.4,0.4-0.6,0.6c0.6,0.1,5.2,1.1,7.5,0.8  c2.4-0.5,4.2,0.4,6.6,1.4c2.4,1,4.1,1.6,6.2,0.1c2.1-1.5,4.9-3.6,4.9-1.9c0,1.7-0.2,1.4,1.2,2.7c1.5,1.4,1.8,1.9,0.6,4.5  c-1.1,2.6-1.6,3.6,0.3,6.2s4.2,6.2,4.7,8.3c0.5,2,3.8,1.4,4.2,3.9s0.8,3.9-1.2,4.8s-2.6,2.8-1.9,3.9c0.8,1.1,1.4,3.9-0.9,3.5  s-10.3-4.5-12.6-1.9c-2.4,2.6,1,6.2,4,7.4c3,1.1,12.6,7.8,12.2,9.6s-2.2,2.1-5.3,2.4c-3,0.2-9.7,4.5-8.2,6s2.1,1.2,3.5,0.5  c1.5-0.8,4.5,0.4,4.5,2.4c0,2.1,0.5,3.3-0.5,4.9c-1,1.6-1,4.2,0.6,4.2c1.6,0,4.1,0.4,4.1,2.4c0,2,0.6,8.2,4.1,9  c3.5,0.8,6.8,2.6,5,5.8c-1.8,3.2-2.8,4.5-0.5,8.8c2.2,4.2,2.4,7.8-0.1,9.1c-2.6,1.5-5.1,5.5-2.8,7.9c2.4,2.4,6.4,8,8.9,8  c2.4,0,3.5,0.5,5,3.1c1.5,2.6,5,6.9,7.2,5.8c2.2-1.1,5.5-5,7.1-1.2c1.6,3.8,7.5,6.1,10.8,7.4s4.9,0,5.1-1.5c0.4-1.5,4.4-3.1,4.5,0  c0.1,3,2.1,10.5,6.4,9.5c4.4-1,4.5,0.1,5,2.1c0.5,1.9,5.3,9.4,9,6.9c3.8-2.4,3-4.9,4.6-5c1.6-0.1,3.2,0.1,3,1.9  c-0.1,1.7,0.8,2.8,2.8,2.9c1.9,0.1,3,2.1,4.6,4s5.5,2.6,8.4,0.6c2.9-1.9,2.4-2.9,5.1-2.8c2.8,0.1,5,0.4,3.4,1.5  c-1.6,1.1-1.2,1.7,0,3.2s1.6,2.6,3.8,2.2c2.1-0.4,2.8-0.5,3.5,1.1c0.8,1.6,4,4.6,0.5,7.6c-3.5,2.9-5.3,5.6-7.1,6  c-1.6,0.2-2.6,2.9-2.6,4.2c0.4-0.3,0.8-0.3,1.1,0.4c1.8,2.4,3.1,4.5,5.4,3.1c2.2-1.4,3.5-2.2,5.1-1.6c1.6,0.5,4.5,0.2,5.9-0.8  c1.5-1,2.9-1.8,4.9-1.8s5.8-1.6,6.8-0.1c1,1.5,1.9,0.8,3.4-0.5c1.5-1.4,1.8-1.8,1.8-4.2s-0.8-3.4,0.9-5.1s2.1-3.2,2.1-4.4  s-0.3-2-1.1-2.6c-0.9-0.5-1.4-5.1,0.4-5.6c1.6-0.5,9-2.1,11.1-5.8c2.1-3.6,3-2.6,3-1.1c0,1.5-1.1,2.6,1,3.5c2.1,0.9,1.9,0.4,2.2-2  c0.4-2.4,2.6-0.9,3.5,0.8c0.9,1.6,1.2,2.2,4.9,2.2s6.2-0.8,7.2-3c1-2.2,0.8-2.9,2.2-5.8c1.5-2.9,3.1-7,3.1-9.4c0-2.4-0.8-4.4,1-5.8  c1.8-1.5,2.8-3.6,3.6-2.8c0.8,0.8,4.6,2.1,5,3.9C527.5,336.2,530,335.4,529.4,333.5z" stroke-miterlimit="10" id="path1" stroke="#FFFFFF"/>
<path name="来宾市" fill="#D3D3D3" id="path2" d="M743.9,311.2c-2.4,0.6-3.8,5.1-6.9,7c-3,1.9-4.8,3.4-2.9,4.8  c1.5,1.1,2.8,3.1,3.2,3.9c-2.6,0.9-7.3,4.4-8.6,6.2c-1.8,2.6-1,6.9,0.5,9.6s-0.6,4.1-0.9,6.5c-0.3,2.5-1.4,1.5-2.2-1  c-1-2.5-3.6,2-6.5-1.8c-2.9-3.8-2.9,0.1-3.8,2.9c-1,2.8-2.6,4.5-4.3,3.6c-1.6-0.9-2.7-1.2-4.5,0.1c-1.9,1.4-3.9,3.8-6.6,5.2  c-2.6,1.5-5,3.9-6.2,6.6c-1.2,2.6-2.9,6.1-5.2,7.6s-3,7.2-3,11.2s-3.2,12.2-5,14.4c-1.8,2.1-2.4,2.9-3.2,1.2  c-0.9-1.6-5.6-1.1-7.6,0.5c-1.9,1.6-6.1,2-7.8,4.4c-1.6,2.5-3,3.4-4.6,2.8c-1.6-0.6-6.9,3.1-6.9,3.1s-3.2,3.1-4.1,5.4  c-1,2.2-4.5,4.2-7,2.5c-2.4-1.8-4-7-5.9-5.8c-1.9,1.2-6.9,2.8-9.5,0.2c-2.6-2.5-5.8-5.9-9.2-1.6c-3.5,4.2-5,6.1-7.9,6.2  c-2.6,0-3.1,3.5-2.8,5c-0.5,0.8-2,2.6-3.2,2.6c-1.8,0-3.1-2-4.5-3.4c-1.4-1.4-3-2.1-5.1-2.2c-2.1-0.1-3.4-0.9-5.1-2.8  c-1.8-1.9-2.4-1.9-5-0.9c-2.6,1-2.8-3-3.8-6.6c-1-3.6-4.9-4.4-7.5-6.6c-2.6-2.2-2.9-7.4-3.4-10.2c-0.5-2.9-2.8-7.6-3.6-9.8  c-1-2.1-1.9-4.7-0.5-7.2c1.4-2.5,1-3.6,1-5.3c0-1.8-4.5-9.8-6.5-10.9c-2-1.1-4.9,0.9-6.8,2.8c-1.9,1.9-7.2,4.8-11,7.8  c-3.9,3-4.5,3.6-6.6,2.1c-2.1-1.5-3-2.9-3.5-6.4c-0.5-3.5-2.2-6.6-3.5-8.8c-1.2-2.1-0.6-3,0.9-5.6c1.5-2.6,0.4-6.2-1.2-8.4  c-1.8-2.1,0.1-3.6,0.9-5.8V336c0.8-0.2,3.2-1.1,2.6-3c-0.6-2.2,1.4-3.6,3.1-2.9c1.8,0.6,4.6,4.9,6.2,2.2c1.5-2.5,1.4-7,1.2-8.9  c-0.1-1.9,1.1-5.8,3.6-5.5c2.5,0.1,4.2-1.8,4.5-3c0.1-1.2,0.8-4.4,2-5.9c1.2-1.4,3.6-6.4,3-7.8c-0.6-1.4-2.2-2.6-0.4-3  c1.9-0.4,5.8-1.2,5.4-3.5c-0.4-2.4-0.6-5.9,1-4.4c1.6,1.5,4,2.4,5.9,1.5c1.9-0.9,2.5-0.2,2.8,1.2c0.2,1.6,1.2,6.4,2.5,7.6  c1,1,4.1,0.5,4.9,0.4c0,0.5,0.2,1,0.5,1.8c0.5,1.6,0.4,2.4,0.2,4.2c-0.1,1.7,0.3,4.2,1.7,5.4c0.1,0.1,0.3,0.2,0.4,0.3  c0.1,0.1,0.3,0.2,0.4,0.3c1.1,1.4-0.1,4.6,2.8,7.5c0,0,0,0,0,0c0.1,0.1,0.2,0.2,0.3,0.3c3.6,3.1,9.9,6.6,12,6.8  c0.4,0,0.7,0.2,0.9,0.5c0.8,1.1-0.1,3.9,0,5.4c0.1,0.5,0.3,0.9,0.6,1.2c0,0,0,0,0,0c0.9,0.7,2.5,0.5,3.7-1c1.6-2.2,2.1-1,3.8-0.6  c1.6,0.4,2.9-2.4,4.6-5.1c1.8-2.8,3.9-1.2,5.6-1.2c0.3,0,0.6,0.2,0.8,0.4l0,0c0.9,1.2,0.8,4.8,1,8.4c0,1.7,0.9,2.9,2,4  c0.1,0.1,0.2,0.2,0.3,0.3c1,0.9,2.2,1.8,3,2.6c0,0,0,0,0,0c0.6,0.6,1,1.3,1.1,2c0.1,1.1,0.5,1.8,1.1,2.3c0,0,0,0.1,0.1,0.1  c1.1,0.8,2.7,1,4.4,1.2c2.8,0.4,4.6-2.5,4.9-5.4c0.2-2.9,3.5-3.1,5-4.9c1.4-1.8,0.1-6.2,0.4-9.4c0.2-3.2,6.4-3.6,9.2-4.2  c2.9-0.5,10.2-6.9,11.5-7.8c1.4-0.9,4-1.6,3.4-2.9c-0.5-1.2,0.9-4.2,3.6-7.4c0.8-0.9,0.7-1.7,0.2-2.3l0,0c-0.1-0.1-0.2-0.2-0.4-0.3  c5.9-4.1,11.9-8.1,17.8-12.2c5.5-3.8,11.3-7.6,18-8.1c-1.5,2.2-2.1,4.9-1.7,7.5c3.8-0.9,8.9,0.1,11-3.3c0.7-1.2,0.9-2.6,1.3-3.9  c0.8-2.5,2.4-4.4,4.5-5.9c0.5,0.9-1,3.4-1,5.5c0,2.5,3.9,6.8,6,7c2.1,0.2,3.6,1.5,4.9,4.2c1,2.1,6.9,0.8,9.5,0c0,1.5,0.6,3.6,2,4.1  c2,0.8,1.7,2.8,1.4,5.4c-0.4,2.6,5.4,4.1,8,4.1C748,308.2,746.6,310.8,743.9,311.2z" stroke-miterlimit="10" stroke="#FFFFFF"/>
<path name="桂林市" fill="#D3D3D3" d="M843.4,90.4c-5.1,0-4.5,0.9-5.9,2.3  c-1.4,1.4-1.4,3.1-4,1.6c-2.6-1.5-3.5-1.5-3.5-4.1s-1-2.9-3.2-5.4c-2.4-2.5,1.6-13.2,4.3-16c2.6-2.8,1.9-12.4,2.1-15.8  c0.1-3.2-0.1-3.1,2.8-6.2c2.9-3-2.4-3.6-5.4-3c-3,0.5-4.3-0.9-6.4-3c-2.1-2.2-6.4-3-8-1.6c-1.6,1.4-2.9,1.1-9.8-1s-7.2-5-8.8-6.5  c-1.5-1.5-2.1,1.1-2.1,2.8s-0.6,3.2-1.8,4c-1.1,0.8,0.6,4.9,0.6,7s-1.4,1.4-3-0.2c-1.6-1.6-2.2-0.5-4.4,0.5  c-2.2,1.1-7.4,0.9-9.4,1.1c-1.9,0.3-7.9,0.3-5-3c2.9-3.2-3.1-3.5-6-2.6c-2.9,0.9-6.6-0.7-9.1-0.7s-1.9,1.2-1.9,3.9  c0,2.6-3.1,3-4.6,3.8c-1.5,0.8-2.4,6.6-2.6,7.5c-0.3,0.9-2.1,5.1-5,3.5c-2.9-1.6-6.2,4.5-8,6.6s-5.1,6.4-6.5,10.4  c-1.4,4-6,8.9-8.8,9.9c-2.8,1.1-1.5-4,0.1-6.2s-1-3.1-2.5-3.9s-4.2-3-6.4-3s-1.6,3.2-3.1,6.1c-1.5,2.9-2.1,1.1-4.1-0.1  c-2.1-1.2-3.5,0-5.5-0.5c-2.1-0.5,0.3-5.4,1-8c0.6-2.6,1.1-4-0.1-5c-1.2-1-1-3.1-1-4.1c0-1-1.8-1.8-4.4-0.1c-2.6,1.6-3.6,1-6.9-1.1  c-3.2-2.1-6.4,1.9-8.5,4.4c-2.2,2.5-1,5.4-1.2,10.8c-0.2,5.4-6.4,4.5-9.7,4.2c-3.5-0.2-2.5,5.2,0.1,8.4s2.2,6.6,1.6,9.5  c-0.4,2-2.5,2.4-4.4,2.1c-1.1,1.2-3.8,4.2-5.5,5.6c-2.2,1.9,1,7.9,5.5,11.4c4.5,3.4-1.5,17-3.1,20.3c-1.8,3.2-0.9,4.5,1.5,7.6  c2.4,3.2-1,11-1.5,14.5c-0.4,3.4-0.3,11.2-0.4,16.6c-0.2,5.2-4.9,11.2-7.4,13.4c-2.5,2.1-3.9,6.4-2.1,10.6c1.8,4.2-2.5,10-3.4,11  c-0.9,1.1-1.8,5.4,0.4,8.5c2.1,3.2,0,5.5,0,8.9s0.6,4,4,3.1c3.4-0.9,9.5,1.2,13.1,1.9s4.5-1.7,6-3s4.9,1.7,6.4,5.5s4.6,1.1,4.9,3.9  c0.2,2.8,1.9,4,4.6,7.4c2.8,3.4,8,2.5,10.9,1.1c2.8-1.5,3.9,1.1,4.3,4.5c0.4,3.4,3.1,3.4,6.4,5.4c3.1,1.9,1.8,8.3-0.4,10.6  c-2.1,2.4-3.1,4.6-2.4,7.9c0.9,3.1,6,1.8,7.6,1.8c1.8,0-0.4,3.1-0.4,5.8c0,2.5,3.9,6.8,6,7c2.1,0.2,3.6,1.5,4.9,4.2  c1,2.1,6.9,0.8,9.5,0c0-0.8,0.2-1.2,0.6-1.4c1.2-0.1,5.1-0.4,6.5-2.2c1.4-1.9,2-3.6,4.8-3.1c2.8,0.5,4.1,1,6-1.4s2.6-2,4-0.9  c1.4,1.2,1,1.5,2.8-0.6c1.8-2.2,1.9-2.8,3.2-1.4c1.4,1.4,1.8,1.8,3.6,1.2c1.6-0.4,3.2,0,3.4,2.2c1.9,1.5,5.8,3.1,7.9,2.4  c2.4-0.9,2.5,0.4,6,0.4c3.5,0,2.5-2.5,3.1-6.1c0.7-3.6,4.5-3.1,6.1-1.6s0.2,9.6-0.9,11.6c-1.1,2-1.9,2.4,1,4.2  c2.9,2,6.5-4.2,6.5-7.8s2.5-2.6,4.2-0.8c1.8,2,1,2,6,1.1c5-0.9,0.8-5.1-1.2-7.2c-1.9-2.1,1.4-7.8,2.9-13c1.5-5.2-4.4-10.6-4.4-16.9  c0-6.2,7.6-12,14.4-16.4c6.8-4.2,4.2-9,4.2-12.7s-0.1-7.4-3-8.6c-2.1-0.9-4.4-3.1-5.4-4.4c-1.8,1.2-4.4,1.8-7.2,1.8  c-4.5,0-3.9-4.6-3-6.8c0.9-2.1,2.4-3.6,1.1-4c-1.2-0.4-4.1,2.2-4.1,2.2s-3.1-2.5-2.1-6.4c1.1-3.9,1.4-4.1,2.5-9.2  c1.1-5.1,8.5-9.6,12.2-11.1s2.4-6.4,2.4-7.9s-0.7-3.6,2.4-5c3-1.4,2.1-3,3-5.9c1-2.9,5.4-3.5,10-6.2c4.6-2.8,4.1-6.5,4.4-8.2  c0.2-1.8,1.9-2.2,3.2-8.9s-0.4-11.7-1.9-13.4c-1.5-1.6-2.4-2.8-1-5.4c1.4-2.6,1-3.2,0.3-5.4c-0.6-2.1-0.1-2.2,2.4-2.2  s6.4-0.5,10.6-2.1c4.2-1.5-0.2-7.7-1.2-10.2s7-0.9,8.2-3.6C859.8,91.1,848.4,90.4,843.4,90.4z" stroke-miterlimit="10" id="path3" stroke="#FFFFFF"/>
<path name="贺州市" fill="#D3D3D3" d="M923.6,269.2c-2.4-2.5-0.4-10.4-0.4-12.9  c0-2.5-4.5-3.3-6.2-4.4c-1.6-1.1-3.2-3.1-1.8-5.6c1.5-2.5,1.2-4.6,1.5-7.9c0.3-3.1,1.1-3.6,6-5.6c5-2.1-2.8-2.5-4.4-3.1  c-1.6-0.8-5-0.4-7.9-0.2c-2.9,0.1-9.6-0.1-10.7-1c-1.1-0.9-2.2-1.5-3.5-0.2s-3.1,0.8-4.6,0.5c-1.5-0.1-3.9,0.4-6.5,1.5  c-2.6,1.1-2.6,4.1-2.1,7.6c0.5,3.5-2.2,3-4.2,2.4s-3.2-0.4-3.9,2.3c-0.5,2.6-2.2,3.2-5.5,4c-3.2,0.8-5-1.2-7.2-3.5  c-2.4-2.2-4.6,0.4-5.1-1c-0.4-1.4,1.8-4.9,4.5-9.2c2.8-4.4-0.2-8.1-1.9-9.8s-1.1-6.4-1.4-9c-0.2-2.6-2.9-5.5,0.5-10.1  c3.5-4.5-0.5-5.8-3.5-7c-2.9-1.2-2.4-3.5-0.1-6.5c2.2-3-2.4-2.8-3.2-3.9c-1-1.1-2.4-2.1-3-0.5c-0.8,1.5-2.4,3.6-6.5,3.6  s-5-2.4-6-4.2c-1.1-1.9-2.6-0.1-3.2,3s-11.5,8.5-13.8,8.9c-2.2,0.2-2.4,2.2-1.6,4.2c0.6,2.1,1,3.6,0.4,7.1c-0.2,1.4-0.9,2.4-2,3.1  c1,1.1,3.2,3.4,5.4,4.4c2.9,1.2,3,4.9,3,8.6s2.5,8.5-4.2,12.8c-6.8,4.2-14.4,10.1-14.4,16.4c0,6.2,6,11.6,4.4,16.9  c-1.5,5.2-4.9,10.9-2.9,13c1.9,2.1,6.2,6.4,1.2,7.2s-4.1,0.9-6-1.1c-1.8-1.9-4.2-2.7-4.2,0.8s-3.6,9.6-6.5,7.8  c-2.9-1.9-2.1-2.4-1-4.2c1.1-1.9,2.4-10.1,0.9-11.6s-5.4-2-6.1,1.6c-0.7,3.6,0.3,6.1-3.1,6.1c-3.5,0-3.6-1.2-6-0.4  c-2.1,0.8-6.1-0.9-7.9-2.4c0,0.4,0,0.9-0.1,1.4c-0.5,3.4,1.2,12.4,6.1,15.5s5.9,5.1,5.6,10c-0.1,4.8-2.2,7.5-0.1,10.2  c2,2.8,1.8,3.8,2.2,6.8c0.5,2.9-0.4,5.6,2,7.8c2.4,2,6.8,5.5,5.5,8.9c-1.2,3.4-1.4,5.5,2,5.5c3.4,0,5,1.5,6.1,6.4  c1.2,4.7,1.4,9.2,3.8,12.5c2.4,3.2,2.6,4.1,3.1,0c0.5-4.1,1.8-8.9,4.6-10.9c2.9-1.9,4.1-4.6,6-6.5s2.6-3.5,3.6-5.5  c1-2,5-5.9,7.4-8.4c2.4-2.6,5-4.1,7.4-0.5c2.4,3.6,4.1,5.4,8,6.5c4,1.2,9.1,1.9,11.6-4c2.6-5.9,2.8-8.6,1.4-12.2  c-1.4-3.6-1-6.7,0.5-7.9c1.5-1.2,3.8-1,5.5-1.8c1.8-0.6,2.9-5.1,3.6-8.6c0.6-3.4-0.1-4.5,3.2-3.1c3.4,1.4,7,1.5,7.9,4.2  s0.9,5.6-0.9,7.2c-1.8,1.5-2,5.4,0,7.8c2,2.4,8.2,8.8,8.4,12.4s-0.6,5.9,0,7.2c0.4,0.9,0.9,2,1,2.6c0.6-0.1,1.2-0.4,1.9-1.4  c1.9-2.8,4.5-0.4,10.8,1.6c6.2,2.1,8.2-4.5,8.4-7.2c0.1-2.8,1.8-4,3.5-5.4c1.6-1.4,1.2-1.6,1.2-3.2s2.5-1.6,6.6-3.5  c4.1-1.8,0.4-6.9-1.4-10.2c-1.8-3.3-3.8-5.6-3.2-9.1c0.4-3.5-1.6-3.6-2.1-7c-0.4-3.5,0.1-4.4,2.2-5.9s3.6-3.9,5.1-5.6  c1.5-1.7,6.5-1.7,8-3.1c1.5-1.4,4.9-4.6,4.9-9.9C930.4,275.4,926,271.8,923.6,269.2z" stroke-miterlimit="10" id="path4" stroke="#FFFFFF"/>
<path name="梧州市" fill="#D3D3D3" d="M883.8,340.9c-0.1-3.6-6.4-10-8.4-12.4  c-2-2.4-1.8-6.1,0-7.8c1.8-1.5,1.8-4.5,0.9-7.2s-4.5-2.9-7.9-4.2s-2.6-0.4-3.2,3.1c-0.6,3.4-1.9,7.9-3.6,8.6c-1.8,0.6-4,0.5-5.5,1.7  s-1.9,4.2-0.5,7.9c1.4,3.6,1.2,6.4-1.4,12.2c-2.6,5.9-7.8,5.1-11.6,4c-4-1.2-5.6-2.9-8-6.5c-2.4-3.6-5-2-7.4,0.5  c-2.4,2.6-6.4,6.4-7.4,8.4c-1,2-1.8,3.6-3.6,5.5s-3.1,4.6-6,6.5s-4.1,6.8-4.6,10.9s-0.6,3.3-3.1,0c-2.4-3.2-2.6-7.8-3.8-12.5  c-1.2-4.7-2.8-6.4-6.1-6.4c-3.4,0-3.2-2-2-5.5c1.2-3.4-3.1-6.9-5.5-8.9c-2.4-2-1.5-4.7-2-7.8c-0.5-2.9-0.1-4-2.2-6.8  c-2-2.8,0-5.5,0.1-10.2c0.1-4.8-0.6-6.9-5.6-10s-6.8-12-6.1-15.5c0.5-3.5-1.4-4.1-3.2-3.6c-1.9,0.5-2.2,0.1-3.6-1.2  c-1.4-1.4-1.5-0.9-3.2,1.4c-1.8,2.2-1.4,1.9-2.8,0.6s-2-1.5-4,0.9c-1.9,2.4-3.2,1.9-6,1.4c-2.8-0.5-3.4,1.2-4.8,3.1  c-1.4,1.9-5.4,2-6.5,2.2c-1.2,0.1-0.6,4.8,1.4,5.5c2,0.6,1.8,2.8,1.4,5.4c-0.4,2.6,5.5,4.1,8,4.1c2.6,0,1.2,2.6-1.2,3.2  c-2.4,0.6-3.8,5.1-6.9,7c-3.1,1.9-4.8,3.4-2.9,4.8c1.5,1.1,2.8,3.1,3.2,3.9c1-0.2,1.6-0.2,1.9,0.4c0.7,2.2-0.1,6.2-1,8.9  c-0.9,2.5-2.9,9.6-1.8,11c1,1.4,2.1,4,3.8,3.8c1.6-0.2,5.5-1.2,6.9,1.2c1.4,2.4,3.6,6.8,5.5,5.4c2-1.4,5.9-3.5,6.5-1.5  c0.6,2,0.9,4-0.6,7.1c-1.5,3-1.8,6.5-1.6,8.2c0.1,1.8-1.2,3.2,0.5,5c1.6,1.6,4.2,2.2,5,6.2s0.1,3.8,2,5.3c1.8,1.5,2,2.2,2,5.2  c0,3-0.6,5.5-2,7.6c-1.4,2.1-3.2,4-3.9,6.8c-0.6,2.8-1,7.5,3.9,9.4c5,1.8,7.2-0.5,7.4,4.2c0.1,4.7,0.5,7.5-3.9,8.1s-8.1,1.5-9,6.1  s0.5,8.1,3.8,8.4c3.2,0.2,11.5-2.8,11.8-0.5c0.1,2.2,0.7,6.8,4,6.8c3.2,0,5.1-1,4.6,4c-0.5,5.1,0.9,6.8-1.2,9.8  c-2.1,3-0.1,9.5,2.4,10.4s1.5,1.7,3.1,1.4c1.6-0.4,3.5,0.1,2.5,2.1c-0.9,2-3.2,5-1.6,9.1c1.6,4.2,1.8,6.2,4,6.2s3.5,0.2,4.6,2.8  c1.2,2.4,0.6,7,3.2,8.6c2.1,1.1,2.9,1.8,3,2c1.6,0,6.4-2.4,6.8-3.1c0.4-0.9,0.6-2.4,2.9-1.4c2.2,1,5.4-1.2,9.4-3.2  c4-2.1,2.2-5,1-5.6c-1.2-0.8-2.2-1.5-1.6-3c0.5-1.5,9.9-0.4,14.7-1.6c4.9-1.2,15-15.1,18.6-20c3.6-4.9,1.4-5.4,1.1-7.1  c-0.3-1.8,3.9-7.9,6.2-10.2c2.4-2.4-3.6-5.4-5.1-8c-1.5-2.6-1.1-5.6,0-6.9s2.2-3.1,0.9-4.9c-1.4-1.6-1.2-6.6-2.5-9s-2.1-4.4-1.1-5.3  s1.5-3.6,0.9-5.4c-0.8-1.8-0.1-3.5,0.5-5.4c0.8-1.9,1.2-6.1,1.4-8.2c0.1-2.2,5.8-5.3,9.2-8.5c3.5-3.2,3.1-9.5,3.5-12.6  c0.2-3.1,5.1-2.2,9-3.1c3.9-1,6.2-5.9,7.8-9.2c1.5-3.2,0-2.6-4-1.1c-4,1.5-3.2-1.9-0.5-4.9c2.8-2.9,1-4.1,0.6-6.6  c-0.1-1.6,0.9-1,2.1-1.2c-0.2-0.8-0.6-1.9-1-2.6C883,346.8,883.9,344.5,883.8,340.9z" stroke-miterlimit="10" id="path5" stroke="#FFFFFF"/>
<path name="贵港市" fill="#D3D3D3" d="M667.6,493.9c2.8-1.5,4.2-4.7,2.4-6.2  c-2-1.5-3.2-4-3-5.4c0.2-1.4,1-2.5,2.9-2.5s9,0.8,8.6-4.2c-0.5-4.9-0.1-7.2-2.5-11.4c-2.5-4.2-2.5-6.9,0.2-6.4  c2.6,0.5,3.8,1.2,5.2,0.1c1.5-1.1,4.3-1.1,7-0.3c2.6,0.9,7.9,2.9,9.5,4c1.6,1,4.8,0.1,6.1-0.6c1.4-0.8,2.5,0.5,5.5,2.2  c2.9,1.8,5.6,2.6,7.4,1.2c1.9-1.4,2.6-1.6,4.6-1.4c2,0.2,2,0.9,3.9,2.5s6,2.4,6.5-1.1c0.5-3.5,0.9-5.9,3-8.9  c2.1-2.9,1.6-5.1,5.1-5.8c3.5-0.6,6.4,0.1,8.8-1.4c2.4-1.5,3.9-3,6.4-3.4c2.4-0.4,4-1.4,6.2-1.5c-2.2-1-3.1-4.1-2.4-8  c0.9-4.6,4.6-5.5,9-6.1s4-3.5,3.9-8.1c-0.1-4.6-2.4-2.4-7.4-4.2c-5-1.7-4.5-6.6-3.9-9.4c0.6-2.8,2.5-4.6,3.9-6.7  c1.4-2.1,2-4.6,2-7.6c0-3-0.1-3.8-2-5.2c-1.8-1.5-1.2-1.2-2-5.3c-0.8-4-3.2-4.6-5-6.2c-1.6-1.6-0.3-3.1-0.5-5  c-0.1-1.8,0.1-5.2,1.6-8.2c1.5-3,1.2-5.1,0.6-7.1c-0.6-2-4.5,0.1-6.5,1.5c-2,1.4-4.2-3-5.5-5.4c-1.4-2.4-5.2-1.5-6.9-1.2  c-1.6,0.3-2.8-2.4-3.8-3.8c-1-1.4,0.9-8.4,1.8-11c0.9-2.5,1.8-6.6,1-8.9c-0.7-2.2-8.8,3.2-10.5,5.9c-1.8,2.5-1,6.9,0.5,9.6  c1.5,2.8-0.6,4-0.9,6.5c-0.2,2.4-1.4,1.5-2.2-1s-3.6,2-6.5-1.8s-2.9,0.1-3.8,2.9c-0.9,2.8-2.5,4.5-4.2,3.6c-1.6-0.9-2.8-1.2-4.5,0.1  c-1.8,1.4-3.9,3.8-6.6,5.3s-5.1,3.9-6.2,6.6c-1.2,2.8-2.9,6.1-5.2,7.6c-2.4,1.5-3,7.2-3,11.2c0,4-3.1,12.4-5,14.4  c-1.8,2.1-2.4,2.9-3.2,1.2c-0.9-1.6-5.8-1.2-7.6,0.5c-2,1.6-6.1,2-7.8,4.4c-1.6,2.4-3,3.3-4.6,2.8c-1.6-0.6-6.9,3.1-6.9,3.1  s-3.2,3.1-4.1,5.4c-0.9,2.2-4.5,4.2-7,2.5c-2.5-1.7-4.1-7-5.9-5.8c-1.9,1.2-6.9,2.8-9.5,0.3s-5.8-5.9-9.2-1.6  c-3.5,4.2-5,6.1-7.9,6.2c-2.9,0.1-3.2,4.6-2.5,5.6c0.9,0.9,5.9,4.6,5.8,7.8c-0.2,3.1-1.5,10.2-0.1,12.5c1.4,2.2,12.6,7.2,10.6,10.4  c-2.1,3.1-5.1,9.6,2.8,13.3c7.9,3.6,8.6,2.5,9.2,6.5c0.8,4.1,0.8,5.2,4.1,5.8c3.5,0.5,4.4,3.4,3.6,5.3c-0.9,1.9-1.1,4.2,0.8,4.4  c1.9,0.1,6.8,0.4,8.6,5.8c1.4,3.9,2.1,6.1,2.4,7.1c1,0.1,2,0.4,3,0.6c0.7,0.2,1.5,0.4,2.1,0.6C659.2,501.1,665.1,495.1,667.6,493.9z  " stroke-miterlimit="10" id="path6" stroke="#FFFFFF"/>
<path name="玉林市" fill="#D3D3D3" d="M800.4,504.8c-2.8-1.5-2.1-6.1-3.2-8.6  c-1.2-2.4-2.4-2.8-4.6-2.8s-2.4-2.1-4-6.2c-1.6-4.2,0.7-7.2,1.6-9.1c0.9-2-0.9-2.5-2.5-2.1c-1.6,0.4-0.6-0.5-3.1-1.4  s-4.5-7.4-2.4-10.4c2.1-3,0.7-4.6,1.2-9.8c0.5-5.1-1.4-4-4.6-4c-3.2,0-3.9-4.5-4-6.8c-0.1-2.2-8.4,0.8-11.8,0.5  c-0.5,0-1-0.3-1.4-0.4c-2.2,0.1-3.9,1.1-6.2,1.5c-2.5,0.4-4.1,1.9-6.4,3.4c-2.4,1.5-5.2,0.9-8.8,1.4c-3.5,0.6-3,2.8-5.1,5.8  c-2.1,2.9-2.5,5.4-3,8.9c-0.5,3.5-4.6,2.9-6.5,1.1c-1.9-1.8-1.9-2.4-3.9-2.5c-2-0.3-2.8,0-4.6,1.4s-4.5,0.5-7.4-1.2  c-2.9-1.8-4.1-2.9-5.5-2.2c-1.4,0.8-4.5,1.6-6.1,0.6c-1.6-1-6.9-3-9.5-4c-2.6-0.9-5.5-0.9-7,0.2c-1.5,1.1-2.5,0.4-5.2-0.1  c-2.6-0.5-2.6,2.2-0.2,6.4c2.5,4.2,2.1,6.5,2.5,11.4c0.5,4.9-6.8,4.2-8.6,4.2s-2.6,1.1-2.9,2.5s1,3.9,3,5.4s0.5,4.7-2.4,6.2  c-2.4,1.4-8.4,7.2-9.9,8.9c2.2,0.5,3.4,0.8,2.6,2.2c-1,1.9-2.9,3.9-0.1,3.9c2.8,0,4-0.5,4.1,1.8c0.1,2.4,0.9,7,4.6,4.1  c3.9-2.9,4.5-3.5,8.1-2.4c3.6,1.2,5.4,3.9,3.6,6.4c-1.6,2.6-4.5,6-3.6,9c0.9,3,2.5,7.8,2.5,11.6s-3.2,9.5-5.5,6.1  c-2.1-3.4-7.4-8-9.5-6.5c-2.1,1.5-4.6,2.5-4.9,4.5c-0.3,2-3,2.4-4.8,1.8c-1.8-0.5-5,2.8-5,5.6c0,2.9-0.9,7.6-1.5,11.8s-0.6,7,1.4,8  c2,1,2.5,1.9,1.9,4.1c-0.5,2.1,1.4,9.1,1.5,10.6s0.9,4.4,1.1,6.1c0.2,1.5,0.5,3.1,0.5,3.6c0.9,0,1.9-0.1,2.8-0.1  c6.5,0,9,2.4,6.9,5.2c-2.1,2.9-2.1,9.2-2.1,12.1c0,3,0.6,7.5,3.4,10.1c2.1,1.9,4.8,3.5,6.1,4.2c0.4-0.8,0.8-1.1,1.1-1.2  c1.6-0.1,4.6,5.2,6.5,4.2c1.8-1,5.6-1.1,7.9-1.5c2.2-0.4,2.2-1.6,2.2-4.4c0-2.8,0.4-2.2,1.9-4.6c1.5-2.5,1-5,0.8-9s2.9-7,5.9-9.2  c3-2.2,5.6-0.2,8.1,0.9c2.5,1.1,6-2.2,8-4c1.9-1.8,7.6,0.3,11.2,1.4c3.8,1.1,6.2-1.1,7.8-1.9c1.5-0.9,3.5-1.6,5.4-0.2  c1.9,1.4,2.6,1.8,5.7,1.5s0.8-5.6,0.8-7.2c0-1.6,0.1-1.9-1.6-2.8c-1.8-0.9-2.9-1.2-2.2-4.1c0.6-2.9-0.2-3.5-0.9-6.1  c-0.5-2.6,0.4-4.2,1.6-6.9s-0.1-2.8-1.8-4.2c-1.6-1.5-2.9-2.9-2.2-5s2.5-2.1,4.1,0c1.6,2.1,3.9-1.8,5.4-3.1s7.8,3.8,10.6,5.6  s4.4-1,5-3.2c0.5-2.4,2.5,0.4,4.1,0.4c1.6,0,2.1-0.5,2.1,2.2c0,2.8,4.5,0.4,7-1.9c2.5-2.4,1.4-3.8,0.1-4.6c-1.2-1-2.1-3,0.9-3.8  c3-0.8,3.9-3,4.5-5.1s2.4-0.5,6.8-0.9c4.4-0.3,0.4-2.8-0.7-3.5c-1.1-0.8-1.6-1-2.1-3.9c-0.4-2.9-1-2.8-2.6-3.2  c-1.6-0.5-1.8-4.2-1.5-7.1c0.2-2.9-1.2-2.5-3.1-4.4s2.9-1,5.7-1s0.6-3.6,1.8-5.3c1.1-1.6,2.2-2.1,0.5-4.2c-1.6-2.2-0.2-1.7,0.6-4.9  c1-3,2.1-1.5,4-0.1s2.6,1.4,2.9,0c0.3-1.4,1.6-1.2,5.3-1.2c3.6,0,2.5-2.2,4.1-2.2l0,0C803.2,506.5,802.5,505.9,800.4,504.8z" stroke-miterlimit="10" id="path7" stroke="#FFFFFF"/>
<path name="防城港市" fill="#D3D3D3" d="M507.6,556.5c-1,0-3.2-1.8-4.4-4.6c-1.1-3-3.4-2-5.8-1  s-3,1.4-5.9,0.4c-2.9-1-2.6-4-2.8-5.9c-0.1-1.8-1.6-2.9-2.9-2.9c-1,0-2.4-0.5-3.1-0.8c-1.6,0.6-3.6,1.6-5.5,4.8  c-2.8,4.7-7.8,6.2-8,9.4c-0.2,3.1-2.2,6.6-5.6,6.6s-7-2-12.8-0.8c-5.8,1.2-12.4,4.1-15.4,3.4c-2.9-0.8-5.6-0.6-3.2,3.8  s2.5,4.5,1.6,5.8c-0.9,1.2,0.3,1.2,1.4,1.4c1.1,0.1,2.1,2.1-0.5,4.5c-2.6,2.2-9.9,13-10.9,15.4c-1,2.2-0.8,6.2,0.1,8.9  c0.9,2.6,1.6,8.6-2.9,14c-4.6,5.4-6.8,7.2-7.2,9.5c-0.4,1.5-0.9,3.1-1.1,4c1.2,1.4,2.5,3.1,3.2,4.2c1.6,2.2,3.1,0.5,5.8-0.4  c2.6-0.9,2.6,0.9,3.9,2.5c1.2,1.6,1.6,0.5,3.6,0.5c2.1,0,14.1-3.5,17.9-6.1c3.6-2.6,6.2-0.9,9.4-1c3.1-0.1,4.9-0.4,9.2,6  c4.4,6.2,8.3,6.9,10.3,7.1c2.1,0.4,5.6,0.4,8-0.4c2.5-0.7,2.5-0.7,4.9,1.9c2.5,2.6,4.4,1.6,7.1,0.5c2.8-1,0.1-2.8-0.9-5.3  c-1-2.5,4.9-6.6,6.2-8c1.4-1.4,0.9,4.9,3,6.1c2.1,1.2-1.6,7-2.8,9.1c-1.2,2.1,1.4,2.5,2.2,1c0.9-1.4,2.8-3.9,4.5-3.6  c1.7,0.1,2.5-1.9,4.2-4s2.1-3.6,0.1-3.6c-1.9,0-1.9-0.4,0.1-1.4c2.1-1,0.4-2.6,0.1-5.1c-0.1-2.5-1.2-2.6,0.4-4.2s4-1.2,6.1,0.1  s4,1.6,4.9,0.4s2.1-1.9,3.6-1.8c1.6,0.1-1,0.9-0.9,3.4c0.1,2.5,2.6-1,4,0.1c1.4,1.2-2.1,3-4.7,4.9c-2.6,1.9-0.8,1.6,1.6,1.9  c2.2,0.4,1.2,1.6-1,3.9c-2.2,2.2-1.8,0.7-1.9-1.2c-0.1-1.9-2.5,2.1-2.5,3.1s2.5,0.9,5.1,1c2.6,0.1,2.6,0.1,2.5-1.9  c-0.1-2.1,2.2-3.1,2.2-4c0-0.9,2.1-1.6,2.2,1.4c0.1,3,0.1,1.6,2.1-0.8c1.9-2.2,2.8-2.5,1.4-4c-1.4-1.6,0.9-1.2,2.5-1.4  c1.6-0.1-0.4-1.9,0.5-2.8c0.9-0.9,1-2.2,1-3.9c0-1.6-4.5,1.9-5.8,2.5c-1.2,0.5-1.4-4-1.6-6.2c-0.1-2.2,0.5-2.6,2.1-1.7  c1.1,0.6,1,0,1.6-0.6c-1.1-0.9-5.9-4.6-6.7-5.9c-1-1.5-1-6.5-1.4-9.6c-0.4-3,1.8-11.2-0.2-10.2s-1.8,3.2-4.1,1.5  c-2.4-1.6-6.7-0.4-9.9,0.6s-8.9,2.1-11-1.5c-2.1-3.5-4.8-4.1-4.1-6.5c0.5-2.4,0.4-5-1.2-7.2c-1.6-2.1-2.5-2.5-1.8-4.6  c0.6-2.1,1.8-3,0.5-4.9s-0.5-6.5,3.6-8c3.5-1.2,6.9-1.9,8.5-3.4C510.6,558.8,508.6,556.5,507.6,556.5z" stroke-miterlimit="10" id="path8" stroke="#FFFFFF"/>
<path name="钦州市" fill="#D3D3D3" d="M653.1,585.4c-0.1-1.5-2-8.5-1.5-10.6s0.1-3-1.9-4.1  c-2-1.1-2-4-1.4-8c0.6-4.1,1.5-8.9,1.5-11.8s3.2-6.1,5-5.6c1.8,0.5,4.5,0.2,4.8-1.8s2.8-3,4.9-4.5c2.1-1.5,7.4,3.1,9.5,6.5  c2.1,3.4,5.5-2.4,5.5-6.1c0-3.9-1.6-8.6-2.5-11.6c-0.9-3,2-6.4,3.6-9c1.6-2.6,0-5.3-3.6-6.4c-3.6-1.2-4.4-0.5-8.1,2.4  c-3.9,2.9-4.5-1.8-4.6-4.1c-0.1-2.4-1.4-1.7-4.1-1.7c-2.8,0-0.9-1.9,0.1-3.9c1-1.9-1.1-1.7-4.8-2.9c-3.6-1.1-7.8-1.2-9,0.2  c-1.2,1.5-3.9,2.5-5.5,1.4c-1.6-1.1-4.8-0.5-6.4,1.6c-1.6,2.1-3.9,2.4-6.1,0.6c-2.4-1.6-2-1.5-6.5,0.2c-4.5,1.8-6,11-6.1,13  c-0.1,1.9-3.1,0.6-5.1,0.6c-2,0-2.9,1.4-5.1-0.5c-2.4-1.9-3.5,0.4-6.6,0.6c-3.1,0.3-5.9-2.4-9.2-0.6c-3.4,1.6-5.5,0.9-6,0  c-0.5-0.9-1.2-3.1-2.5-1.4s-2.9,2.5-5.8,2.6s-3.1,0.5-4.5-2.6s-10.4,5.8-12,8.5s-6.5,4.5-9.1,4.5c-2.6,0-4.8,3.9-6.5,3.9  s-3.2,4.9-4.5,8.5c-1.2,3.5-2.6,9.4-6.5,13.1c-4,3.6-7.5-0.5-9.9-1.2c-2.4-0.6-9.1,2.1-10.2,4.4c-1.1,2.1-5.1,2.9-9.4,4.4  s-4.9,6.1-3.6,8s0.1,2.8-0.5,4.9s0.1,2.5,1.7,4.6c1.6,2.1,1.8,4.9,1.2,7.2c-0.5,2.4,2,2.9,4.1,6.5c2.1,3.5,7.9,2.5,11,1.5  s7.5-2.2,9.9-0.6c2.4,1.6,2.1-0.6,4.1-1.5c2-1-0.1,7.2,0.3,10.2c0.4,3,0.4,8.1,1.4,9.6c0.9,1.4,5.8,5.1,6.8,5.9  c0.2-0.3,0.8-0.6,1.5-0.8c2.5-0.5-0.8-2.5-3-2.8c-2.2-0.4-2.2-1-2.5-3.5c-0.1-2.5-0.1-2.1-2.2-1.9c-2.1,0.1-1.2-0.8-1-2.5  c0.1-1.8,0.8-2.6,2.5-3.6c1.7-1,3.1-3.4,4-4.5c0.9-1.2,1.4-3.4,2.6-0.8c1.2,2.6,1.6,0.5,3.4,0c1.8-0.5,2.1,1.2,0.1,4.9  c-1.9,3.6,2.2-0.9,2.2-0.9s1.8-1.8,2.1,0.1s-0.9,5.1-3.9,8.4c-3,3.4-2.2,4.8-0.4,5.1c1.9,0.4,3,0.9,3,4s1.2,1.8,2.1-0.9  c0.9-2.6,0.4-4.5-0.5-6.1c-0.9-1.6,2.1-2.1,2.6-3.4s1.2-1.6,1.4,0.4c0.1,1.9,1,0,2.6-0.4c1.6-0.4-0.8,3.4-0.8,3.4s-0.5,1.2-2.6,3  c-2.1,1.7,3.6,0.9,6.6,2.5c3,1.6,0.4,6.6,0.5,12.2s4.5,3.6,6,1.4c1.4-2.2,3.1-2.8,5.4-2.8s2.8-0.5,1.4-2.1s-1.6-2.2-1.6-4.2  c0-1.9-1.4-1.4-3.4-1.9c-1.9-0.5,0.9-1.9,1-3.9c0.1-1.9,1-1.6,1.2,1.2c0.1,2.8,2.8,0.9,3.4-1.9c0.5-2.8,0-4.8-1.9-5.2  s-1.6-0.4-2.5-1.8s1.2-2.1,3.4-1.2c2.1,0.9,1.6,2.1,2.5,3.6c0.9,1.6,1.4,0.8,3-1.2c0.6-0.8,0.9-0.8,1-0.4c0.6-1.1,3-5.2,3-6.9  c0-1.9,1.1-3.1,2.5-4c1.2-1,8.5-3.3,11.2-2.8c2.8,0.6,5.4-1.4,7.8,1c2.4,2.5,5.1,3,7.6-0.2c2.6-3.1,5.2-5,7.5-4.4s7.4-0.8,9.6,0.1  s6.1-2.5,8.9,0c2.8,2.5,6.2,3.2,8,2.2c1.5-0.9,5-1.8,10-2c-0.1-0.5-0.2-2.1-0.5-3.6C654,589.8,653.2,586.9,653.1,585.4z" stroke-miterlimit="10" id="path9" stroke="#FFFFFF"/>
<path name="南宁市" fill="#D3D3D3" id="path10" d="M650,493.9c-1.9-5.4-6.8-5.6-8.6-5.8s-1.5-2.5-0.7-4.4  c0.9-1.9-0.1-4.8-3.6-5.2s-3.5-1.6-4.1-5.8c-0.8-4.1-1.4-2.9-9.2-6.5c-7.9-3.6-4.9-10.1-2.8-13.2s-9.1-8.1-10.6-10.4  c-1.4-2.2-0.1-9.2,0.1-12.5c0.2-3.1-4.9-6.9-5.8-7.8c-0.1-0.1-0.2-0.2-0.2-0.5c-0.3,1.3-1.8,3.1-3,3.1c-1.6,0-3.1-2-4.5-3.4  s-3-2.1-5.1-2.2c-2.1-0.1-3.4-0.9-5.1-2.8s-2.4-1.9-5-0.9c-2.6,1-2.8-3-3.8-6.6s-4.9-4.4-7.5-6.6c-2.5-2.2-2.8-7.5-3.4-10.2  c-0.6-2.8-2.8-7.6-3.6-9.8c-0.9-2.1-1.8-4.8-0.5-7.2c1.4-2.5,1-3.6,1-5.2s-4.5-9.8-6.5-10.9s-4.9,0.9-6.8,2.8s-7.2,4.8-11,7.8  s-4.5,3.6-6.6,2.1s-3-2.9-3.5-6.4c-0.5-3.5-2.2-6.6-3.5-8.8c-1.2-2.1-0.6-3,0.9-5.6c1.5-2.6,0.5-6.2-1.2-8.4  c-1.6-2.1,0.1-3.6,0.9-5.8s-4.1-3.8-4.9-4.6c-0.8-0.8-1.8,1.4-3.6,2.8c-1.8,1.5-1,3.5-1,5.8s-1.6,6.5-3.1,9.4  c-1.5,2.9-1.2,3.6-2.2,5.8c-1,2.2-3.6,3-7.2,3s-4-0.5-4.9-2.2c-0.9-1.6-3.1-3.1-3.5-0.8c-0.4,2.4-0.1,2.9-2.2,2c-2.1-0.9-1-2-1-3.5  c0-1.5-0.9-2.5-3,1.1c-2.1,3.6-9.5,5.3-11.1,5.8c-1.6,0.5-1.2,5-0.4,5.6c0.9,0.5,1.1,1.5,1.1,2.6s-0.5,2.6-2.1,4.4s-0.9,2.6-0.9,5.1  s-0.4,2.9-1.8,4.2c-1.5,1.4-2.4,2-3.4,0.5c-1-1.5-4.8,0.1-6.8,0.1s-3.5,0.8-4.9,1.8c-1.5,1-4.2,1.4-5.9,0.8  c-1.6-0.5-2.9,0.4-5.1,1.6c-2.2,1.4-3.6-0.8-5.4-3.1c-1.8-2.4-2.6,3.1-1.6,6.9s3.6,10.9,4.5,13.4s2.8,3.4,5.1,3.6s7.2-3.5,8.6-4.1  s0.4,3-0.1,4c-1,1.8-7.1,8.2-7.2,10.6c0.7,0.2,1.3,0.5,1.6,1.1c-0.7-1-2.4-1.1-4.2-1.5c-2.2-0.5-2.6,0.6-3.8,3.2  c-1,2.5-3.5,5.5-5.6,6.1c-2.1,0.6-5.8-1.2-10.4-2.4c-4.6-1.1-5.1,5.9-5.1,10c0,4.1-7.1,1.6-8.9,1.6s-2.8-0.2-4-1.9  c-1.1-1.6-1.9-1.8-6.8-2.9c-3-0.7-3.9-3.1-4.2-5.2c-2.2,1.8-3.6,5-4.2,7.9c-0.6,2.7-0.9,5.6-0.3,8.3c0.7,2.7,2.5,5.3,5.1,6.2  c1.7,0.6,3.6,0.5,5.4,0.7c1.8,0.2,3.8,1,4.5,2.7c0.5,1.1,0.3,2.3,0.1,3.5l-2.2,16.1c-0.2,1.8,1.7,3,3.2,2.1  c4.9-2.9,10.1-5.2,15.6-4.5c0.6,0.1,1.2,0.2,1.7-0.1c0.5-0.3,0.7-0.9,0.8-1.5c0.3-1.2,1.2-3.5,1.8-5.5c0.6-1.8,2.7-2.5,4.2-1.5  c3.3,2.2,7.9,5.6,11.4,8c-0.1,0.2-0.2,0.4-0.3,0.6c-0.8,3.1,0.1,5.8,5.1,7.1s7.8,3.8,10.5,3.8c2.6,0,4.2,0.6,5.5,2.5s3.4,4.6,5,4.9  s2.8,3.8,1.5,6.4s-1.9,5.2,0.5,8.1c2.4,2.9,4.8,3.5,5.8,0.4s1.8-4.6,3.6-3.9c1.8,0.8,1,7.6-0.8,8.6s-8.2,1.5-9.4,2.9  c-1,1.4-2.1,2.9-0.1,4.4c2,1.4,2.6,1.9,1.1,3.4c-1.5,1.4-4.1,3.9-2.4,5.5s3.5,1.8,6.1,1.8s3.9,2.4,5.4,3.2c1.5,0.8,1,1,0.6,2.6  c-0.4,1.6-0.9,3.6,0.8,4.8c1.6,1.1,0,2.5-1.9,3.6c-0.6,0.4-1.4,0.6-2.2,0.9c0.6,0.2,2.1,0.8,3.1,0.8c1.2,0,2.8,1.1,2.9,2.9  s-0.1,4.9,2.8,5.9c2.9,1,3.4,0.6,5.9-0.4c2.4-1,4.6-2,5.8,1s3.4,4.6,4.4,4.6c0.9,0,3,2.2,3.8,4.1c0.4-0.2,0.8-0.6,0.9-1  c1.1-2.1,7.9-5,10.3-4.4c2.4,0.6,5.9,4.9,9.9,1.2c4-3.6,5.4-9.5,6.5-13.1c1.2-3.5,2.8-8.5,4.5-8.5s4-3.9,6.5-3.9  c2.6,0,7.5-1.8,9.1-4.5c1.5-2.5,9-9.9,11.4-9c0-0.1,0-0.2,0-0.3c0.2,0.1,0.4,0.2,0.5,0.4c1.4,3.1,1.6,2.8,4.5,2.6s4.5-0.9,5.8-2.6  c1.2-1.8,1.9,0.5,2.5,1.4c0.5,0.9,2.6,1.6,6,0c3.4-1.6,6.1,1,9.2,0.6c3.1-0.3,4.4-2.6,6.6-0.6c2.4,1.9,3.1,0.5,5.1,0.5  c2,0,5,1.2,5.1-0.6s1.6-11.2,6.1-13c4.5-1.8,4.2-1.9,6.5-0.3c2.4,1.6,4.5,1.5,6.1-0.6c1.6-2.1,4.7-2.8,6.4-1.6  c1.6,1.1,4.2,0.1,5.5-1.4c0.9-1.1,3.4-1.4,6-0.9C652,500,651.3,497.8,650,493.9z" stroke-miterlimit="10" stroke="#FFFFFF"/>
<path name="崇左市" fill="#D3D3D3" id="path11" d="M485.2,540.9c-1.9,1-5,0.9-7.8,5.6s-7.8,6.2-8,9.4  c-0.2,3-2.2,6.6-5.6,6.6c-3.3,0-7-2-12.8-0.8c-5.7,1.4-12.5,4.1-15.4,3.4c-3-0.8-5.6-0.6-3.2,3.8c2.4,4.4,2.5,4.5,1.6,5.8  c-0.9,1.2,0.3,1.2,1.4,1.4c1.1,0.1,2.1,2.2-0.5,4.5c-2.8,2.4-9.9,13.1-10.9,15.4s-0.8,6.2,0.1,8.9c1,2.6,1.8,8.6-2.9,14  c-4.5,5.2-6.8,7.2-7.5,9.6c-0.2,1.4-0.9,3.1-1.1,4c-1.4-1.5-2.8-2.5-3.8-1.9c-1.9,1.2-3.2,6.8-5.4,7.8c-2.1,1-5.1,1-5.1-2.1  c0-3.2-0.6-5.5-2.5-10.4c-1.9-5-4.4-5.9-6.1-4.2c-1.8,1.6-7.1,5.2-8.8,3.9c-1.6-1.4-6.9-8.9-9.6-9.8c-2.9-0.9-5.8-5.2-10.9-5.1  c-5.1,0.2-4.8-4.4-1.8-4.5c3-0.2,6.8-6.9,5.1-9.1c-1.6-2.2-2.5-2.2-6.9-1.8c-4.4,0.5-4.4-0.2-8.4-1.6c-4-1.4-5.8-4.9-8.9-4.9  c-3.1,0-5.6,0-6.6-0.8c-1.1-0.6-0.8-2.9-2.5-0.1c-1.8,2.9-5.1,6.9-6.9,4.2c-1.8-2.6-2.6-6.1-2.2-9.6c0.4-3.5,0.9-7.9,0.9-13.6  s0.6-10.6-1-13.2c-1.6-2.6-2.2-10.5-6.5-9.8c-4.1,0.8-8.5-0.1-7.5-2.2c1-2.1,3.9-2.6,1.8-4.2c-2.1-1.5-4-3.9-4-6.6s2.6-4.4,3.1-8.8  c0.6-4.4,3.8-6.4,2.5-8c-1.2-1.6,1.4-0.6,3,0.5c1.6,1.1,8.4,4.1,10,1.9c1.6-2.4,0-2.9-0.5-5.1s0.5-3.5,2.1-6.1  c1.5-2.6,2.2-8.2,3.6-9.1c1.4-0.9,3.4-2.6,5.6-4.5c2.2-1.9,2.6-4.5,1-5.2c-1.6-0.8-3.9-0.9-5.1-2.6s-4.5-3.4-6.6-6.1  c-1-1.2-1.5-2.2-2-2.8c1-1.4,9.4-12.5,10.8-14.8c1.5-2.4,4.1-5.6,0.4-7c-3.6-1.4-2.9-4.2-2.6-6.5s0.8-5.6,0.2-6.8  c-0.5-1.1,2.8-1.2,4.2-2s11.6-3.1,12.9-7.5c1.2-4.4,2.8-8.6,7.9-6.9c5.1,1.8,9.2,4.4,13.5,2.9s8.2-4.1,9.2-5.6  c1.1-1.5,2.5-0.9,3.4,0c0.9,0.9,5.5,2,8-0.2c2.5-2.4,3.6-4.8,6.9-3.8s4.4,4.5,4.4,6c0,0.6-0.1,1.8,0.1,3.1c-2.2,1.8-3.6,5-4.2,7.9  c-0.6,2.7-0.9,5.6-0.3,8.3c0.7,2.7,2.5,5.3,5.1,6.2c1.7,0.6,3.6,0.5,5.4,0.7c1.8,0.2,3.8,1,4.5,2.7c0.5,1.1,0.3,2.3,0.1,3.5  l-2.2,16.1c-0.2,1.8,1.7,3,3.2,2.1c4.9-2.9,10.1-5.2,15.6-4.5c0.6,0.1,1.2,0.2,1.7-0.1c0.5-0.3,0.7-0.9,0.8-1.5  c0.3-1.2,1.2-3.5,1.8-5.5c0.6-1.8,2.7-2.5,4.2-1.5c3.4,2.3,8,5.7,11.5,8.1c-0.1,0.2-0.2,0.4-0.3,0.6c-0.8,3,0.1,5.6,5.1,7.1  s7.9,3.8,10.5,3.8c2.8,0,4.2,0.5,5.5,2.5s3.4,4.6,5,4.9c1.6,0.2,2.8,3.8,1.5,6.4c-1.2,2.6-1.9,5.2,0.5,8.1c2.4,2.9,4.8,3.5,5.8,0.4  c1.1-3.1,1.9-4.6,3.6-3.9s1,7.6-0.8,8.6c-1.9,1-8.4,1.5-9.4,2.9c-1,1.5-2.1,3-0.1,4.4c2,1.5,2.6,2,1.1,3.4c-1.5,1.4-4,3.9-2.4,5.5  c1.6,1.6,3.5,1.8,6.1,1.8c2.7,0,3.9,2.5,5.4,3.2s1,1,0.6,2.6c-0.4,1.6-0.9,3.6,0.8,4.8C488.9,538.5,487.1,539.9,485.2,540.9z" stroke-miterlimit="10" stroke="#FFFFFF"/>
<path name="柳州市" fill="#D3D3D3" id="path12" d="M714.1,277.6c-1.8,0-6.8,1.5-7.6-1.8c-0.9-3.2,0.2-5.5,2.4-7.9  c2.1-2.4,3.6-8.8,0.4-10.6c-3.1-1.9-6-1.9-6.4-5.4c-0.4-3.4-1.5-6-4.2-4.5s-8,2.4-10.9-1.1c-2.8-3.4-4.5-4.6-4.6-7.4  c-0.2-2.8-3.4,0-4.9-3.9c-1.5-3.9-4.9-6.8-6.4-5.5s-2.4,3.6-6,3c-3.6-0.6-9.8-2.8-13.1-1.9c-3.4,0.9-4,0.2-4-3.1  c0-3.4,2.1-5.8,0-8.9c-2.1-3.1-1.2-7.5-0.4-8.5c0.9-1,5.1-6.8,3.4-11s-0.4-8.5,2.1-10.6c2.5-2.1,7.2-8.1,7.4-13.4  c0.2-5.4,0-13.1,0.4-16.6c0.4-3.4,3.9-11.2,1.5-14.5c-2.4-3.2-3.1-4.5-1.5-7.6c1.8-3.2,7.6-16.8,3.1-20.2c-4.5-3.4-7.8-9.4-5.5-11.4  c1.8-1.5,4.4-4.4,5.5-5.6c-0.9-0.1-1.6-0.2-2.1-0.5c-1.9-0.8-3.2-0.4-6,0.1s-3.9,1-4.6-1.6c-0.9-2.6,2.4-6.4,6.4-10  c4-3.8-4.5-4.2-8.4-6.6c-3.9-2.4-5.9,1-6.4,1.8c-0.4,0.9-8.2,3.5-10,2.4c-1.8-1.1-3.5-1.8-3.5,0s-1.4,1.5-3.6,3.1  c-2.2,1.6-1.6,4-0.1,5.6c1.5,1.6-6,9.4-7.8,11c-1.6,1.6-3.1,4.4-3.9,7c-0.8,2.6,0.9,4.5,1.5,6.9c0.6,2.4-9.2,1.2-12.9,1.2  c-3.8,0-2.1-4.9-4.5-6.2c-2.5-1.4-1.1,2.6-2.8,4.5c-1.6,1.9-4.5-2.1-4.5-4.1c0-2.1-0.6-3.5-1.6-1.8c-1,1.6-3.2,2.9-5.6,3.2  c-2.4,0.4-4.9,1.6-5.6,2.9s-4.2,4.1-6.2,5.4c-1.9,1.2,0,2.6,2.9,3.1c2.9,0.5,3.5-1.5,3.9-2.8c0.4-1.2,3.1-1.4,4.2-2.4  c1.1-1,2.6-1.1,4,0.1c1.4,1.2-3.2,7.5-3.8,10.1c-0.4,2.6,0.2,9.4,3,11.2c2.8,1.9-1.8,3.8-3.5,5c-1.6,1.2-3.9-0.9-5.1-3.1  c-1.2-2.4-2.5-2.2-4.9-2.1c-2.4,0.1-2.4,0-4.2-1.5c-1.9-1.5-3.1,1.1-5.9,2.6s-3.5-6.6-3.5-8.6c0-2.1,0.9-3-3.9-3.6  c-4.6-0.5-5.4,1.9-7.2,3.8c-1.9,1.8,0.4,5.8,2.4,7.9c1.9,2.1-1.2,2.4-3.1,1.8c-1.9-0.5-2.4,0-2.4,1.8s-1.1,2.9-3.1,4.1  c-2.1,1.2,1.8,6.1,3.8,10.6c1.6,3.8-0.8,5.1-3.2,5.1c-0.1,1.2-0.1,2.8,0.4,3.2c0.8,0.8,2.8,2.1,2.9,5c0.1,2.9,1.4,6.8,3.1,8.2  c1.9,1.5,3.1,1.8,3.1,4.6c0,2.9-0.4,6.9,2.9,7.6c3.2,0.8,8.2,1.9,9.1-0.6c0.9-2.5,0.8-6,2.8-4.2s4.2-0.5,5.6,1.4  c1.5,1.9,4,3,5.4,1.4c1.5-1.8,2.2-4.5,5.4-1.9c3.1,2.6,7,0.8,6.5,6.5s-0.1,9.2-4,11.9c-3.9,2.6-7.5,10.8-4.8,10.8s6.4,0.4,7.9-0.6  c1.6-1,3.4-2.8,3.9-0.9c0.4,1.9-0.1,4.8,1.8,4.9c1.9,0.1-1.4,4.8-0.2,5.5c1,0.8,3.6,3.2,2.5,5.4c0,0-2,0.8-2.5,2.1  c-0.4,1.4-2.4,2-3.8,0.2c-1.4-1.7-2.2-2.6-3.6-2.5c-1.4,0.2-1.1,0.4-2.9,1.2c-1.8,1.2-2.1,3.1-3,5.2c-0.9,2.2-1.1,4.9-3.9,6.1  c-2.8,1.4,0.6,4.2,2.2,7c1.5,2.8-5.5,4.6-7.2,6.6c-1.6,2.1-0.5,4.4-2.2,4.2c-1.8-0.1-1.8,1.9-1.6,4.2c0.1,2.2,4,5.8,6.6,5.8  c2.5,0,4.9,1.9,6.9,1.9s1.2,1.1,2.9,3.8c1.6,2.5-0.8,2.1-2,4c-1.4,1.9-1.8,5.4-4.4,5.6c-2.6,0.2-1.8,6.1-2.8,8.6s-0.8,2.6-0.1,4.2  c0.5,1.6,0.4,2.4,0.2,4.2c-0.1,1.6,0.2,3.9,1.5,5.2c0.2,0.2,0.4,0.4,0.7,0.6c0,0,0.1,0,0.1,0.1c1.5,1.1,0,4.5,2.8,7.5c0,0,0,0,0,0  c0.2,0.2,0.4,0.4,0.6,0.5c3.6,3.1,9.9,6.6,12,6.8c0.2,0,0.5,0.1,0.6,0.2c1.2,0.8,0.1,4,0.2,5.7c0,0.4,0.2,0.7,0.4,0.9c0,0,0,0,0,0  c0.8,1,2.7,0.9,4-0.8c1.6-2.2,2.1-1,3.8-0.6c1.6,0.4,2.9-2.4,4.6-5.1s3.9-1.2,5.6-1.2c0.2,0,0.4,0.1,0.5,0.2l0,0  c1.2,0.9,1.1,4.7,1.2,8.7c0,1.5,0.8,2.7,1.7,3.7c0.1,0.1,0.2,0.2,0.3,0.3c1,1,2.1,1.8,3,2.6c0,0,0,0,0,0c0.7,0.7,1.3,1.4,1.4,2.2  c0.1,0.9,0.4,1.6,0.9,2c0,0,0,0.1,0.1,0.1c1.1,1,2.8,1.2,4.7,1.5c2.8,0.4,4.6-2.5,4.9-5.4c0.2-2.9,3.5-3.1,5-4.9  c1.4-1.8,0.1-6.2,0.4-9.4c0.2-3.3,6.4-3.6,9.2-4.2c2.9-0.5,10.2-6.9,11.5-7.8c1.4-0.9,4-1.6,3.4-2.9c-0.5-1.2,0.9-4.2,3.6-7.4  c0.9-1,0.7-1.9,0-2.5l0,0c-0.1-0.1,11.5-8.5,17.5-12.5c5.5-3.8,11.3-7.6,18-8.1c-1.5,2.2-2.1,4.9-1.7,7.5c3.8-0.9,8.9,0.1,11-3.3  c0.7-1.2,0.9-2.6,1.3-3.9c0.8-2.5,2.4-4.4,4.5-5.9C714.6,277.7,714.4,277.6,714.1,277.6z" stroke-miterlimit="10" stroke="#FFFFFF"/>
<path name="北海市" fill="#D3D3D3" d="M665.8,622.6c2.1,1.9,4.7,3.5,6.1,4.2  c-1.1,2.2-2,6.9-1.4,8.5c0.9,2.1,3,6.6,3.1,9.2c0.1,2.6,2.2,3.5,0.1,4.3c-2.1,0.7-0.9,3.5-3.4,3c-2.5-0.5-11-5.6-9.1-7  c1.9-1.4,2.2-3.5,1.9-5.2s0.1-7-1-5.8c-1.2,1.2-3.4,1.9-3.9,3.9c-0.5,1.9-1.6,2.6-1.6,0c0-2.6-4.3-3.9-1.8-5.6  c2.5-1.8,2.6-6.2,1-4.2c-1.6,2.1-3.9,4.5-4.2,0.8c-0.4-3.9-4.3-4.8-1.6-6.1c2.6-1.4,4.9-3.9,4.8-6.2c-0.1-2.5-1.6-3.1-1.6-1.6  c0,1.6-0.1,2.1-2.1,0.9c-1.9-1.2-6.5,5.4-7.8,6.6s5.2,4.5,1.9,4.4c-3.4-0.1-7.5,0.9-5.1,1.4c2.5,0.5,6.6,0.9,7.1,4.2  c0.5,3.4,0.1,3.6,2.5,4c2.2,0.4,3,1.6,1.2,3s-2.6,0.8-1.8,2.8c0.9,2.1,1.2,4.4-0.9,5.1s-8.9,4.8-8.8,2.8c0.1-1.9-0.1-1.2-1.6,0.5  c-1.4,1.8-5.6,3-7.9,3c-2.2,0-4.5,1.4-5.8-0.7s-1.8-1.9-2.2-0.5c-0.5,1.4-6.6,2.1-7.8,0.5c-1-1.6-1.8-5.4-1.9-3.1  c-0.1,2.2-2.1,6.1-4.8,6.5c-2.6,0.4-3.4,0.5-4,1.9c-0.8,1.4,0-1.8-5.6-2.2s-5.1-4.2-7.5-2.8c-2.5,1.4-1.2-3.1,2.6-4.4s11-3.5,9.6-8  c-1.4-4.5-1.2-4.9-5.1-4.8s-9.6-1.4-7.9-2.6s1.4-2.5-0.8-1.9c-2.1,0.5-11.8,3.6-11.8-1c0-4.8-2.2-3.9-4.4-4.8s2.5-3,1.6-4.2  s-2.2-1.9,0.5-3.1s5.4-4,3.9-4c-1,0-1-1.2-1.1-1.8c0.6-1.1,3-5.2,3-6.9c0-1.9,1.1-3.1,2.5-4c1.2-1,8.5-3.2,11.2-2.8  c2.8,0.6,5.4-1.4,7.8,1c2.4,2.5,5.1,3,7.6-0.2c2.6-3.1,5.3-5,7.5-4.4c2.2,0.6,7.4-0.8,9.6,0.1c2.2,0.9,6.1-2.5,8.9,0  c2.8,2.5,6.2,3.2,8,2.2c1.8-1,6.4-2.1,12.9-2.1c6.5,0,9,2.4,6.9,5.2c-2.1,2.9-2.1,9.2-2.1,12.1C662.2,615.4,662.9,620,665.8,622.6z   M588.9,703.6c0.2,0.6,1.4,0.3,2,0c0.6-0.2,0.9-3.4,0.6-4.6s-3.2-1.9-4.4-1.9c-1.1,0.1-2,3.2-2.1,5.4s1.5,2,2.2,0.9  C588.1,702.4,588.6,703.1,588.9,703.6L588.9,703.6z M608,718.6c0,0,0,0.4,0.8-0.4c0.8-0.8-0.4-1.4-1.2-1.1  C606.6,717.5,608,718.6,608,718.6L608,718.6z M600.2,718.5c-0.6,0.1-1.8-0.9-2.4-1.4s1.2-1.2,2.4-0.5S600.9,718.4,600.2,718.5  L600.2,718.5z" stroke-miterlimit="10" id="path13" stroke="#FFFFFF"/>
</svg>