<?xml version="1.0" encoding="UTF-8" standalone="no"?><!-- Generator: Adobe Illustrator 18.0.0, SVG Export Plug-In . SVG Version: 6.00 Build 0)  --><svg xmlns="http://www.w3.org/2000/svg" xmlns:xlink="http://www.w3.org/1999/xlink" contentScriptType="text/ecmascript" zoomAndPan="magnify" contentStyleType="text/css" id="图层_1" mapName="新疆维吾尔族自治区" mapType="省市地图" enable-background="new 0 0 800 600" version="1.1" xml:space="preserve" preserveAspectRatio="xMidYMid meet" viewBox="0 0 800 600" x="0px" y="0px">
<path fill="#D3D3D3" id="path0" d="M420.5,139.2c-3,1.5-7.8,6.5-9,10.8c-1.2,4.3-5.3,7.5-7.7,9.5  c-2.3,2-3.2,5.3-3.2,8.2s-1.5,4-2.5,5.2s-2.7,3-2.5,5.7c0.2,2.7-0.3,4.3-0.3,7.3c0,3,2.8,1.5,4-0.5c1.2-2,1.3,4.5,1.3,4.5  s0.1,1.4,1.2,2.8c1.1,1.4,2,2.5,3.3,1.1s1.9-0.8,2.5,1.6c0.6,2.3-1.2,2.2,0.3,2.5c1.5,0.3,1.2-6.5,2.2-10.5c1-4,2-7.3,1.8-11.2  c-0.2-3.8,1.5-5,3.3-7.5c1.8-2.5,3.7-7.5,6.5-10.7c2.8-3.2,4-6.3,7.2-9.5c3.2-3.2,4.3-6,2.3-9.3  C429.3,135.8,423.5,137.7,420.5,139.2z" stroke-miterlimit="10" stroke="#FFFFFF"/>
<path fill="#D3D3D3" id="path1" d="M404.9,205.3c-1.6,0.3-3.5-0.6-3.5,0.5c0,1.2,2.1,4.5,1.8,7  c-0.4,2.5,0.4,3.3,1.7,2.2c1.3-1.1,1.9-3,1.9-4.6c0-1.6,1.6-3.9,0.9-4.5C406.9,205.4,406.5,205,404.9,205.3z" stroke-miterlimit="10" stroke="#FFFFFF"/>
<path name="塔城市" fill="#D3D3D3" id="path2" d="M464,136.2c-1.6-2.6-2.3-7-4.3-9.4c-2-2.4,1.3-6.1,2.6-8.6  c1.3-2.5,0.2-5.6-0.7-6.5c-0.8-0.9-2-4.2-2.1-6.3c-0.1-2.1-2.5-1.9-5.5-1.8c-2.9,0.1-6,1.3-11.2,2.6c-5.2,1.3-6.4,0.8-13.3,0.8  c-4.6,0-7.8-1.2-9.3-2c-1.7,1.1-3.8,1.9-6.4,2.1c-7.3,0.6-3,0.8-4.8,3.6c-1.8,2.8-3,2.6-5.2-1.4c-2.2-4-4.8,0.6-6.7,2.6  s-5.4-0.2-8.9-0.6c-3.6-0.4-6.1,0-10.5,0c-4.4,0-10.5-4.4-14.5-7.5c-4-3.2-5.2-2.8-6.3,0.4c-1.2,3.2-3.2,8.7-5,11.9  c-1.8,3.2-2,13.5-6.1,18.6c-4.2,5.2-7.8,27.2-8.3,28.6c-0.5,1.4,1,1.8,2,2.4c1.1,0.6,4.7,2.4,6.2,4.1c1.5,1.7,0.3,3-0.3,5  c-0.1,0.3-0.2,0.5-0.4,0.7c1.7,0.9,7.1,3.6,9.5,5.7c2.9,2.6,3.5,3.1,8.6,3.1c5,0,9.3,2.3,10.6,5.2c1.2,2.9,4.1,7.4,1.8,9.8  c-2.3,2.5-3.4,0.3-3.7,3.4c-0.3,3.1-5.5,9.8-5.5,12.1c0,1.9,0.4,4.7,0.7,6.1c0.6,0.3,1.1,0.6,1.5,0.9c2,1.9,7.5,2.7,9.8,2.7  c2.3,0,8.4,0.8,10,2.8c1.6,2,5.9,1.6,6.7,4.1c0.8,2.5,2.5,3.6,3.4,2.2c0.9-1.4,4.5-1.2,5.8,0.2c1.1,1.2,3.1,3,2.2,4.5  c1.8-0.8,3-0.3,3.4,1c0.6,1.5,1.7,3.5,6.2,3.4c4.5-0.1,6.7-3.6,8-5.9c1.3-2.3,2.7-3.5,3.3-5.3c0.6-1.8,4.9-12.1,7.3-14.1  c2.4-2,2.9-7.6,3.3-11.7c0-0.2,0-0.3,0-0.5l-0.1-0.2c-1.3,1.6-1.5,7.2-2.3,7.8c-0.9,0.7-2.2,2-4.4,0.2c-2.1-1.8-0.4-3.1-0.3-5.3  c0.1-2.1-2.6-3.3-2.3-5.1c0.3-1.8,2.9-0.5,2.9-0.5s1,0.7,1.9,0.8c0.8,0.1,2.3-1.2,3.4-2.3l0-0.1c-0.8-1.2-2.2-2.9-4.4-5.7  c-5.8-7.7-5.6-8.3-9-8.3c-3.5,0-2.9-2.9-3.6-5.8c-0.8-2.9,0.7-9.9,0.7-9.9l46.3-1.2c0,0,0.5-16.6,0.8-21.2  C468.1,143.6,465.6,138.8,464,136.2z M406.8,210.5c0,1.6-0.5,3.5-1.9,4.6c-1.3,1.1-2.1,0.3-1.7-2.2c0.4-2.5-1.8-5.8-1.8-7  c0-1.2,1.9-0.3,3.5-0.5c1.6-0.3,2.1,0.1,2.8,0.7C408.4,206.6,406.8,208.9,406.8,210.5z M429,148.5c-3.2,3.2-4.3,6.3-7.2,9.5  c-2.8,3.2-4.7,8.2-6.5,10.7c-1.8,2.5-3.5,3.7-3.3,7.5c0.2,3.8-0.8,7.2-1.8,11.2c-1,4-0.7,10.8-2.2,10.5c-1.5-0.3,0.3-0.2-0.3-2.5  c-0.6-2.3-1.2-3-2.5-1.6s-2.2,0.3-3.3-1.1c-1.1-1.4-1.2-2.8-1.2-2.8s-0.2-6.5-1.3-4.5c-1.2,2-4,3.5-4,0.5c0-3,0.5-4.7,0.3-7.3  c-0.2-2.7,1.5-4.5,2.5-5.7s2.5-2.3,2.5-5.2s0.8-6.2,3.2-8.2c2.3-2,6.5-5.2,7.7-9.5c1.2-4.3,6-9.3,9-10.8c3-1.5,8.8-3.3,10.8,0  C433.3,142.5,432.1,145.3,429,148.5z" stroke-miterlimit="10" stroke="#FFFFFF"/>
<path name="阿勒泰市" fill="#D3D3D3" id="path3" d="M558.8,122.6c1-1.3,1.5-3.2,0.6-4.8c-0.9-1.5-0.7-1.3-0.7-3.6  c0-2.3-1.8-5.4-2.7-7.3c-0.9-2-1.3-2.7-5.6-5c-4.3-2.3-5.2-9.4-6.2-10.9c-1-1.5-1.4-3.6-2.3-4.8c-0.9-1.1-1.1-3.6-1.4-4.9  c-0.3-1.3-4.7-4.5-5.7-5.1c-1-0.6-2.1-0.1-2.5-2.5c-0.4-2.4-0.5-2.2-1.9-2.2c-1.5,0-2.9,1.5-4.4,1.8s-3.9-0.6-5-3.5  c-1.1-2.9-2.6-2.3-5.8-2.8c-3.2-0.5-3.9,2.1-7,2.1s-3.6-3.6-6.3-4.8c-2.6-1.2-5.3-1-6.6-2.4c-1.3-1.4-1.8-3.8-2.2-5.8  c-0.5-2-3.5-2.8-5.9-3.8c-2.4-1-5.6-2.6-7-3.2c-1.4-0.6-2.1-2.6-1-3.5c1.2-0.9,1.2-1,1.2-2.2s-0.9-2.2-3.6-2.2  c-2.6,0-1.5-2.2-2.3-3.6c-0.8-1.5-1.1-2.2,0-2.2c1.1,0,0.2,0.2,0.7-1.5c0.5-1.7,0.7-6,0.3-7.7c-0.3-1.7-2.2-1.2-4.6-0.7  c-2.4,0.5-1.8,0.9-3.5,3.1c-1.7,2.2-1.7,0.6-5-0.3c-3.3-0.9-6.1,0.1-8.2,0.5c-2.1,0.4-2.2,0.8-2.8,2.6c-0.6,1.7-1.9,2.2-1.6,3.7  c0.3,1.5,1.9,3.1,0.9,4.6c-1,1.6-0.6,0.6-0.4,3.8c0.2,3.2-3,6.7-6.9,8.7c-4,2-7.3,3.2-13.1,2.8c-5.8-0.4-6.1,6.7-8.3,9.1  c-2.2,2.4-1.4,5-1.4,8.3s1.2,7.1,1.4,10.7c0.2,3.6,2.6,8.5,3,13.3c0.3,3.1-1.5,6.5-4.7,8.6c1.6,0.8,4.7,2,9.3,2  c6.9,0,8.1,0.6,13.3-0.8c5.2-1.3,8.3-2.5,11.2-2.6c2.9-0.1,5.4-0.3,5.5,1.8c0.1,2.1,1.2,5.4,2.1,6.3c0.8,0.9,2,4.1,0.7,6.5  c-1.3,2.5-4.6,6.2-2.6,8.6c2,2.4,2.6,6.8,4.3,9.4c1.6,2.6,4.1,7.4,3.8,12c-0.3,4.6-0.8,21.2-0.8,21.2l0.8,11l47.9-1.2l23.8-1  c0,0,1-5.1,2.2-8.4c1.1-3.2,8.2-10.9,11.1-12.3c-0.1-0.2-0.1-0.4-0.2-0.7c-0.5-1.5,0.6-5.7,0.7-8.2c0.1-2.5,5-6.4,6.1-10.1  c1.2-3.6-2.6-8-2.7-10.6C556.5,125.3,557.8,123.8,558.8,122.6z" stroke-miterlimit="10" stroke="#FFFFFF"/>
<path fill="#D3D3D3" id="path4" d="M486.4,227.2c-3.3,0.1-10-7.9-12.4-10.5c-2.4-2.6-2.5-0.9-4.6,1.1  c-2.2,2.1-2,5.7-2.1,8c-0.1,2.3-4.6,6.5-6.6,8.4c-2,1.9-2.3,3.9-2.5,7c-0.2,2.6-2.6,8.2-3.3,10c1.5,0.2,2.6,0.9,4.4,2  c2.5,1.6,4-0.3,5.2-2c1.2-1.7,11,5.8,13.5,7.3c2.5,1.5,0.5,3.7,1.6,4.6c0.9,0.8,5.9,0.4,7.4,0.2c0-0.3,0-0.7,0-1.1  c0.1-3.2-0.9-3.5-3.1-5.8c-2.2-2.2-7.4-5-10.2-6c-2.8-1.1-5.2-2.1-4.2-3.7c0.9-1.6,3.4-4.3,4.8-3.4c1.5,0.9,4.8,1.6,10.1,1.6  c5.3,0,6.5-1.9,9.1-0.2c2.5,1.7,6.7,2.7,7.1,0.3s-0.5-3.5,2.4-4.4c2.9-0.9,9.1-3.3,9.7-5.3c0.6-1.9-0.4-5,0.2-5.3  c-1.7-1.2-11.6-6-13.8-7.1C496.4,221.7,489.7,227.1,486.4,227.2z" stroke-miterlimit="10" stroke="#FFFFFF"/>
<path name="昌吉市" fill="#D3D3D3" id="path5" d="M575,213.2c-2.5-2.7-2.6-8.7-3.5-15.2c-0.9-6.5,2.1-10.3,4.6-13.6  c2.5-3.4,0.5-5.5-0.9-7.8c-1.1-1.8-0.1-5.5,0.4-6.9c-0.8-0.3-1.5-0.5-2.4-0.5c-2.4,0-3.3,0.8-5.5-0.3c-2.2-1-4.6-1.3-5.8-1  s-2,0-3.9-1.2c-1.9-1.2-0.3-4.1-2.5-5.4c-1.9-1.1-2.3-2.5-2.7-3.9c-2.9,1.4-10,9.2-11.1,12.3c-1.2,3.3-2.2,8.4-2.2,8.4l-23.8,1  l-47.9,1.2l-0.8-11l-46.3,1.2c0,0-1.4,7-0.7,9.9c0.8,2.9,0.2,5.8,3.6,5.8c3.5,0,3.3,0.6,9,8.3c2.2,2.9,3.5,4.6,4.4,5.7l0,0.1  c0.3-0.3,0.6-0.6,0.8-0.9c1.1-1.3,2.4-1.3,3.1,0c0.7,1.3-1.3,3.7-2.7,5.1c0,0-0.1,0.1-0.1,0.2l0.1,0.2c0,0.1,0,0.3,0,0.5  c-0.4,4.1-0.9,9.7-3.3,11.7c-2.4,2-6.8,12.4-7.3,14.1c-0.6,1.8-2,3-3.3,5.3c-1.3,2.3-3.4,5.7-7.8,5.9c2.6,4.3,18.3-0.8,22.8-1.8  c4.5-1.1,2.6,0.7,3.7,4.5c1.1,3.8,7,6.9,9.8,6.4c0.9-0.2,1.6-0.2,2.3-0.1c0.8-1.7,3.1-7.4,3.3-10c0.2-3.1,0.5-5.2,2.5-7  c2-1.9,6.5-6.1,6.6-8.4c0.1-2.3-0.1-5.9,2.1-8c2.2-2.1,2.3-3.7,4.6-1.1c2.4,2.6,9.1,10.6,12.4,10.5c3.3-0.1,10-5.5,12.4-4.2  c2.3,1.2,12.1,5.9,13.8,7.1c0,0,0.1-0.1,0.2-0.1c0.9,0.1,7.1,3.8,12.5,4.6c5.4,0.8,10.6,1.6,15.2,0.1c4.6-1.5,6.1-3.4,10.6-3.5  c4.5-0.1,18.7-2.5,19.2-1.2c0,0.1,0.1,0.3,0.2,0.4l0.1-0.3c2.8-0.7,5.9-3.6,5.9-5.7c0-2.1,0-3,2.1-3.7  C580.6,219.9,577.4,215.9,575,213.2z" stroke-miterlimit="10" stroke="#FFFFFF"/>
<path name="库尔勒" fill="#D3D3D3" id="path6" d="M638.8,317.3c-2.9,0.9-12.2-2.7-13.1-4c-0.9-1.2-2.1-2.6-4.6-1.8  c-2.4,0.7-20.6-1.2-23.1-2.2c-0.1,0.3-0.3,0.6-0.7,0.8c-2,0.8-5.4,0.8-7.5,2.7c-2,1.9-10.1,1.3-12,0.9c-1.9-0.4-4.4-0.9-7.6,0.4  c-3.2,1.3-10.1,1-13.5,1.1c-3.4,0.1-7.6,0-9.9-1.8c-2.3-1.8-2.8-1.6-6.2-1.6c-3.4,0-13.7,1-21.1-1.5s-8.1-2.1-11.5-1.5  c-3.4,0.6-7.7,1.8-8.2-0.8c-0.5-2.5,1.8-5.6-3-9.7c-4.8-4.2-6.2-9.4-9-11.8c-2.8-2.4-2.7-6.2-1.5-8.2c1.1-2,1.8-3.2,4.7-4.8  c2.9-1.6,1.1-5.3-0.9-6.8c-1.8-1.3-3-1.2-3.3-3.2c-1.5,0.2-6.5,0.6-7.4-0.2c-1.1-0.9,0.9-3.2-1.6-4.6c-2.5-1.5-12.3-9-13.5-7.3  c-1.2,1.7-2.6,3.6-5.2,2c-2.5-1.6-3.8-2.4-6.6-1.9c-2.8,0.5-8.7-2.5-9.8-6.4c-1.1-3.8,0.8-5.6-3.7-4.5c-4.4,1-20.1,6.1-22.8,1.8  c-0.1,0-0.1,0-0.2,0c-4.5,0.1-5.6-1.9-6.2-3.4c-0.5-1.3-1.7-1.8-3.4-1c-0.1,0.2-0.3,0.5-0.6,0.7c-2.2,1.6-7.3,2.8-9,4.5  c-1.7,1.7-3.4,3-5.3,3.1c-1.9,0.2-2.5,0.5-2.6,2.5c-0.2,2-0.6,5.5-5.9,5.5s-13.2-1.1-15,0.2c-1.7,1.2-2.2,2.5-8.3,3.1  c-6.1,0.6-12.2,1.2-12,5c0.1,3.5,2.8,9.1,1.7,10.2c0.6,0,1.2,0.1,1.8,0.4c2.5,1.2,4.5-1.8,6.3,0.1c1.8,1.9,3,1.5,4.2,0.9  c1.2-0.6,1.5,0.4,3.3,2.1c1.8,1.6,6,3.1,8.1,1.8s3.1-1.5,4.8-1.5c1.6,0,4.8-2.4,4,10.9c-0.8,13.4,2.5,13.5,0.7,16.4  c-1.9,2.9-2.5,6.4-1.2,9c1.3,2.7,3.4,4.1,4,11.7c0.5,7.6-0.1,13.1-0.4,16.8c-0.3,3.7-0.3,10.3,0.1,14.2c0.4,3.8,0.6,14-1,15.2  c-1.5,1.1-15.4,19.2-16.7,20.8c-0.2,6.5-1.1,40,0.8,42c2.2,2.2,7.1,6.4,11.1,11.3c4.1,4.9,4.6,7.4,4.6,14s-2.5,13.9-2.5,16.9  c0,3-2.2,12.5,2,15.7c4.2,3.2,9.8,2.4,10.5,7.8c0.7,5.4,1.2,12.9,3.7,11c2.5-1.9,2-4.6,4.4-1.5c2.3,3,3,5.1,5.1,13.6  c2.3-2.2,3.7-1.8,8.1-1.8c4.5,0,8.6,1.1,10.1,2.7c1.5,1.7,3.8,2.3,5-0.1c1.2-2.4,3.5-2.1,7.5-2.9c4.1-0.8,5.3-7.1,6-9.8  c0.7-2.7,6-5.9,10.2-5.9c4.2,0,4.4-0.8,6.2-2.4c1.8-1.7,5.9-0.5,9.3-0.5c3.5,0,4.8-2.3,7.1-3.3c2.3-1.1,3.2-0.9,5.3,0.6  c2.1,1.5,6.6-0.9,10.1-1.1c3.5-0.2,9.8-2,13.5-3.2c3.8-1.2,9.2,0.9,11.1,2.6c2,1.7,3.8,3.3,5.7,2.6c2-0.8,5.6,0,7.4,0.9  c1.8,0.9,12.8,5,16.2,6.8c3.5,1.8,5.6,0.8,6.9-1.2c1.4-2,4.5-2.7,4.5-4.4c0-1.7,0.5-2.4,1.2-2c0.8,0.5,6.2,2.9,10.2,2.9  c4.1,0,5.6,0.6,8.9,0.6s3.9,2.1,6.3,3c2.4,0.9,2.6-1.2,4.7-3.2c2.1-2,1.8-4.5,0.2-6.3c-1.7-1.8-1.4-5.1-2.3-8  c-0.9-2.9-3-3.5-7.2-4.1c-4.2-0.6-2.1-5.7-2-8.7c0.2-3,5.1-3.8,8-5.1c2.9-1.4,3.2-2.7,6.2-3.2c3-0.5,0.5-5.4-2.4-8.3  c-2.9-2.9-3.2-5-4.5-7.4c-1.4-2.4-3.8-2-7.2-4.7c-3.5-2.7-5.6-3.8-8.4-4.4c-2.9-0.6-5.4-2.4-4.5-5.9c0.9-3.5-5.3-10.8-7.4-13.2  c-2.1-2.4-3.6-2-3.6-4.1c0-2.1,3.3-2.9,5.9-2.6c2.6,0.3,3-1.8,4.7-3c1.7-1.2,2.7-3,3.9-5.3c1.2-2.3,1.7-1.1,4.7-0.6  c3,0.5,3.3-1.2,7.4-2.1c4.1-0.9,7.1-2.9,11.7-3.9c4.7-1.1,4.8-3.8,8-3.9c3.2-0.2,4.8-1.5,6.5-3c1.7-1.5,3.2-2.3,6-2.3  c2.9,0,7.2-3.5,8.7-4.8c1.5-1.4,3.9-2,7.5-2.3c3.6-0.3,3.9,0.5,3.9-4.5c0-5-3-13.4-5.1-17.4c-2.1-4.1-3.2-4.1-0.6-7.1  c2.6-3,1.7-12.9,1.1-15.8c-0.6-2.9,0-5.1,5-4.8c5,0.3,6.3,0.3,10.4-3.5c4-3.7,6.2-9.3,6.8-13.2C647.4,319.6,641.2,316.5,638.8,317.3  z" stroke-miterlimit="10" stroke="#FFFFFF"/>
<path fill="#D3D3D3" id="path7" d="M404.9,205.3c-1.6,0.3-3.5-0.6-3.5,0.5c0,1.2,2.1,4.5,1.8,7  c-0.4,2.5,0.4,3.3,1.7,2.2c1.3-1.1,1.9-3,1.9-4.6c0-1.6,1.6-3.9,0.9-4.5C406.9,205.4,406.5,205,404.9,205.3z" stroke-miterlimit="10" stroke="#FFFFFF"/>
<path fill="#D3D3D3" id="path8" d="M405.2,193.7c1.2-1.4,1.9-0.8,2.5,1.6c0.6,2.3-1.2,2.2,0.3,2.5  c1.5,0.3,1.2-6.5,2.2-10.5c1-4,2-7.3,1.8-11.2c-0.2-3.8,1.5-5,3.3-7.5c1.8-2.5,3.7-7.5,6.5-10.7c2.8-3.2,4-6.3,7.2-9.5  c3.2-3.2,4.3-6,2.3-9.3c-2-3.3-7.8-1.5-10.8,0c-3,1.5-7.8,6.5-9,10.8c-1.2,4.3-5.3,7.5-7.7,9.5c-2.3,2-3.2,5.3-3.2,8.2  s-1.5,4-2.5,5.2s-2.7,3-2.5,5.7c0.2,2.7-0.3,4.3-0.3,7.3c0,3,2.8,1.5,4-0.5c1.2-2,1.3,4.5,1.3,4.5s0.1,1.4,1.2,2.8  C403,194,403.9,195.1,405.2,193.7z" stroke-miterlimit="10" stroke="#FFFFFF"/>
<path fill="#D3D3D3" id="path9" d="M431.3,139.2c-2-3.3-7.8-1.5-10.8,0c-3,1.5-7.8,6.5-9,10.8  c-1.2,4.3-5.3,7.5-7.7,9.5c-2.3,2-3.2,5.3-3.2,8.2s-1.5,4-2.5,5.2s-2.7,3-2.5,5.7c0.2,2.7-0.3,4.3-0.3,7.3c0,3,2.8,1.5,4-0.5  c1.2-2,1.3,4.5,1.3,4.5s0.1,1.4,1.2,2.8c1.1,1.4,2,2.5,3.3,1.1s1.9-0.8,2.5,1.6c0.6,2.3-1.2,2.2,0.3,2.5c1.5,0.3,1.2-6.5,2.2-10.5  c1-4,2-7.3,1.8-11.2c-0.2-3.8,1.5-5,3.3-7.5c1.8-2.5,3.7-7.5,6.5-10.7c2.8-3.2,4-6.3,7.2-9.5C432.1,145.3,433.3,142.5,431.3,139.2z" stroke-miterlimit="10" stroke="#FFFFFF"/>
<path name="哈密" fill="#D3D3D3" id="path10" d="M709.2,236.1c-1.5-1-6.5-4.9-8.6-6.2c-2.2-1.3-4.6-2.5-5-4.2  s-0.3-2.4-1.1-5.2c-0.8-2.8-2.9-5.6-4.3-7.2s-4-8.9-5.1-10.7c-1-1.8-2.2-0.8-4.7-1.7c-2.5-0.8-2.5-4.1-3.1-5.9  c-0.6-1.9,0.7-2.3,0.8-4.2c0.1-1.9-2.3,0.2-7,1.4c-4.7,1.2-5.6-0.6-7.8-1.4c-2.2-0.8-3.8-2.6-6.3-4c-2.4-1.4-2.6-2-4.1-1.7  c-1.5,0.3-2.9-0.6-4-1.9c-1.1-1.3-6.3-4.4-8.9-6.2c-2.5-1.8-6.2-3.1-10.9-5.4c-4.7-2.3-9.9-0.8-10.6-0.8c-0.7,0-5,0.1-7.7,0.1  c-2.7,0.1-5.4,0-8.2,0.7c-2.8,0.7-9.9-0.3-11.9-0.2c-2,0.1-5.5-0.5-9.3-0.4c-2.5,0-4.2-0.7-5.7-1.2c-0.5,1.4-1.5,5-0.4,6.9  c1.4,2.3,3.4,4.4,0.9,7.8c-2.5,3.4-5.5,7.1-4.6,13.6c0.9,6.5,1.1,12.6,3.5,15.2c2.5,2.7,5.7,6.7,3.5,7.4c-2.1,0.7-2.1,1.6-2.1,3.7  c0,2.1-3.1,5-5.9,5.7l-0.1,0.3c0.4,1,0.8,1.9,1.6,3.1c0.9,1.3,6,11.1,6.6,14.6c0.6,3.6,3.8,27.4,6.4,29.6c2.5,2.1,7.3,5.2,7.5,10.2  c0.1,5.1,1.4,14.7,2.8,16.3c1.1,1.3,3.1,3.7,2.8,5c2.5,1.1,20.7,3,23.1,2.2c2.4-0.8,3.6,0.6,4.6,1.8c0.9,1.2,10.2,4.9,13.1,4  c2.4-0.8,8.6,2.2,10.5,3.2c0-0.1,0-0.2,0.1-0.3c0.6-3.9,3.6-10.4,7.1-12.2s8.4-7.8,13.7-15.9c5.3-8.1,16.4-10.7,17.7-11.4  c1.3-0.7,5.4-1.3,8.9-1.8s7.4-4.4,8.9-6.1c1.5-1.7,0.5-7.3-1-9.8c-1.5-2.5-1-7.5-1-10.7c0.1-3.1,3.2-6.1,4.8-7s2.4-1.7,3.1-2.9  S710.7,237.1,709.2,236.1z" stroke-miterlimit="10" stroke="#FFFFFF"/>
<path name="克拉玛依" fill="#D3D3D3" id="path11" d="M407.6,206c0.7,0.6-0.9,2.9-0.9,4.5c0,1.6-0.5,3.5-1.9,4.6  c-1.3,1.1-2.1,0.3-1.7-2.2c0.4-2.5-1.8-5.8-1.8-7c0-1.2,1.9-0.3,3.5-0.5C406.5,205,406.9,205.4,407.6,206z M437.9,199.4  c-1.1,1.3-3.2,3.3-4.2,3.2c-1-0.1-1.9-0.8-1.9-0.8s-2.6-1.3-2.9,0.5c-0.3,1.8,2.4,2.9,2.3,5.1c-0.1,2.1-1.8,3.4,0.3,5.3  c2.1,1.8,3.5,0.5,4.4-0.2c0.9-0.7,1-6.6,2.4-8c1.5-1.4,3.4-3.8,2.7-5.1C440.3,198.2,438.9,198.2,437.9,199.4z M420.5,139.2  c-3,1.5-7.8,6.5-9,10.8c-1.2,4.3-5.3,7.5-7.7,9.5c-2.3,2-3.2,5.3-3.2,8.2s-1.5,4-2.5,5.2s-2.7,3-2.5,5.7c0.2,2.7-0.3,4.3-0.3,7.3  c0,3,2.8,1.5,4-0.5c1.2-2,1.3,4.5,1.3,4.5s0.1,1.4,1.2,2.8c1.1,1.4,2,2.5,3.3,1.1s1.9-0.8,2.5,1.6c0.6,2.3-1.2,2.2,0.3,2.5  c1.5,0.3,1.2-6.5,2.2-10.5c1-4,2-7.3,1.8-11.2c-0.2-3.8,1.5-5,3.3-7.5c1.8-2.5,3.7-7.5,6.5-10.7c2.8-3.2,4-6.3,7.2-9.5  c3.2-3.2,4.3-6,2.3-9.3C429.3,135.8,423.5,137.7,420.5,139.2z" stroke-miterlimit="10" stroke="#FFFFFF"/>
<path name="博乐市" fill="#D3D3D3" id="path12" d="M371.8,202.5c0.3-3.1,1.4-0.9,3.7-3.4c2.3-2.5-0.6-6.9-1.8-9.8  c-1.2-2.9-5.5-5.2-10.6-5.2c-5,0-5.7-0.5-8.6-3.1c-2.4-2.2-7.7-4.9-9.5-5.7c-1.3,1.2-4.8,1-7.4,1c-3,0-3.8-0.8-6.5-1.2  s-3.2-0.9-4.4-3c-1.2-2.1-1.8-0.3-4.4-0.3c-2.6,0-2.4,1.1-5.7,2.1c-3.3,1.1-4.1,1.8-6.9,2c-2.9,0.2-1.5,0.8-4.4,1.5  c-2.9,0.8-2.6,1.1-4.8,0.6s-2.7-1.2-2.7,0.5s-0.5,0.8-3.8,0.8c-3.3,0-1.7,0-4.8,2.1c-3.2,2.1-4.7,0.9-6.8,0.9  c-2.1,0-2.6,0.9-4.8,3.2s-0.2,3.3,0.6,4.5c0.8,1.2,2.1,0.2,4.8,0.2c0.7,0,1.2,0.2,1.6,0.6c0.6-0.1,3-0.3,7.1,1.6  c4.8,2.2,4.8,1.9,4.8,3.9c0,2-0.8,2.5,1.2,2.7c2,0.2,9.4,3.4,13.1,4.7c3.7,1.2,4.7,0.6,7,2.5c2.3,1.9,9.4,5,11.2,5  c1.9,0,6.7-0.9,8.4,0.8c1.7,1.7,7.9,3.7,11.1,6.2c3.1,2.5,6.4,1.6,9.5,1.6c2.5,0,6.2,0.2,8.6,1.3c-0.3-1.4-0.7-4.2-0.7-6.1  C366.3,212.3,371.5,205.6,371.8,202.5z" stroke-miterlimit="10" stroke="#FFFFFF"/>
<path name="伊宁市" fill="#D3D3D3" id="path13" d="M347.7,262.6c-0.2-3.7,5.9-4.4,12-5c6.1-0.6,6.5-1.9,8.3-3.1  c1.7-1.2,9.7-0.2,15-0.2s5.8-3.4,5.9-5.5c0.2-2,0.8-2.3,2.6-2.5c1.9-0.2,3.6-1.4,5.3-3.1c1.7-1.7,6.9-3,9-4.5  c2.2-1.6-0.3-3.7-1.6-5.2c-1.2-1.4-4.8-1.6-5.8-0.2c-0.9,1.4-2.6,0.3-3.4-2.2c-0.8-2.5-5.1-2-6.7-4.1c-1.6-2-7.6-2.8-10-2.8  c-2.3,0-7.8-0.8-9.8-2.7c-2-1.9-7-2.2-10.1-2.2c-3.1,0-6.4,0.9-9.5-1.6c-3.1-2.5-9.4-4.5-11.1-6.2c-1.7-1.7-6.5-0.8-8.4-0.8  c-1.9,0-8.9-3.1-11.2-5c-2.3-1.9-3.3-1.2-7-2.5c-3.7-1.2-11.1-4.5-13.1-4.7c-2-0.2-1.2-0.6-1.2-2.7c0-2,0-1.7-4.8-3.9  c-4.1-1.9-6.5-1.7-7.1-1.6c1.1,1,1.3,3,2.9,4.7c2.3,2.3,0.6,4.2,0.6,7.4c0,3.2,3.6,5.4,0.8,8.6c-2.9,3.2,1.4,5.9,1.5,8.1  c0.1,2.3,0.8,6.8,1.2,8.4c0.5,1.7,2.3,4.5,3.5,7.1c1.2,2.6,2.9,6.8,1.5,8.3c-1.4,1.5-0.6,2.6,0.6,3.2s0.8,1.7,0.9,4.1  c0.2,2.4-5.7,3-7.4,3.2c-1.7,0.2-3,2.4-2,3.8c1.1,1.4,1.2,0.6,1.4,3.5c0.2,2.9-3.9,3-6.2,3.9c-2.3,0.9-3,4.7-3,6.8  c0,2.1,1.7,3.2,1.1,4.7c-0.6,1.5,0.3,3.9,0.3,6c0,0.3,0,0.7,0,1c3.3-0.5,15.6-2.4,19-0.5c3.9,2.2,5.4,4.2,6.6,1.9  c1.2-2.2,2.1-4,6.1-4c4,0,7.8-1.9,10.4-3c2.7-1,6,3.9,8.4,1.2c2.4-2.7,6.7-3.7,10.3-4.5c2.7-0.6,4.3-1.5,6.1-1.5  C350.6,271.6,347.9,266.1,347.7,262.6z" stroke-miterlimit="10" stroke="#FFFFFF"/>
<path name="吐鲁番市" fill="#D3D3D3" id="path14" d="M592.4,288c-0.1-5.1-4.9-8.1-7.5-10.2c-2.5-2.1-5.8-26-6.4-29.6  c-0.6-3.6-5.7-13.3-6.6-14.6c-0.9-1.3-1.3-2.2-1.8-3.5c-0.4-1.2-14.7,1.1-19.2,1.2c-4.5,0.1-6,2-10.6,3.5c-4.6,1.5-9.8,0.7-15.2-0.1  c-5.4-0.8-11.5-4.5-12.5-4.6c-0.9-0.1,0.3,3.4-0.3,5.4c-0.6,2-6.7,4.3-9.7,5.3c-2.9,0.9-2.1,2-2.4,4.4s-4.5,1.4-7.1-0.3  c-2.5-1.7-3.8,0.2-9.1,0.2c-5.3,0-8.6-0.6-10.1-1.6c-1.5-0.9-3.9,1.8-4.8,3.4c-0.9,1.6,1.4,2.6,4.2,3.7c2.8,1.1,8,3.8,10.2,6  c2.2,2.2,3.3,2.6,3.1,5.8c-0.1,3.2,1.3,2.8,3.3,4.3c2,1.5,3.8,5.2,0.9,6.8c-2.9,1.6-3.5,2.8-4.7,4.8c-1.1,2-1.3,5.8,1.5,8.2  c2.8,2.4,4.2,7.6,9,11.8c4.8,4.2,2.5,7.2,3,9.7c0.5,2.5,4.8,1.4,8.2,0.8c3.4-0.6,4-1,11.5,1.5s17.7,1.5,21.1,1.5  c3.4,0,3.9-0.1,6.2,1.6c2.3,1.8,6.4,1.9,9.9,1.8c3.4-0.1,10.4,0.1,13.5-1.1c3.2-1.3,5.7-0.8,7.6-0.4c1.9,0.4,10,1,12-0.9  c2-1.9,5.4-1.9,7.5-2.7c2-0.8-0.8-4.2-2.1-5.8C593.8,302.6,592.6,293,592.4,288z" stroke-miterlimit="10" stroke="#FFFFFF"/>
<path name="和田" fill="#D3D3D3" id="path15" d="M397.6,510.5c-2.5,1.9-3-5.6-3.7-11c-0.7-5.4-6.3-4.6-10.5-7.8  c-4.2-3.2-2-12.7-2-15.7c0-3,2.5-10.3,2.5-16.9s-0.5-9.1-4.6-14c-4.1-4.9-9-9.1-11.1-11.3c-2-2-1-35.6-0.8-42  c-0.1,0.1-0.1,0.1-0.1,0.1l-88.8-3.4l-11-7.4c-0.5,2.2-0.9,3.7-0.9,3.7s-4.6,21.5-5.7,22.4c-1,0.9-4.3-2.8-6.3-1.6  c-1.9,1.2-3.9,2.5-4.8,4.5c-0.9,1.9-25.9,21.5-33.2,28.7s-13.7,14.4-15.4,20.4c-1.7,6-4.5,5-3.7,9c0.7,4-1,4.3-2.2,5.5  c-1.2,1.2,0.9,7.3,0.9,11.1c0,3.7,0.9,6-1.6,7.8c-2.4,1.7-0.7,2.4,1,4.6c1.7,2.2,1,7,4.6,7c3.6,0,3.5,1.2,2.4,4  c-1,2.9-3.5,4.1-1.4,5.9c2.1,1.7-0.2,4.7,0.6,6.1c0.7,1.2-0.3,7.7-1.5,10.7c0,0,0.1,0,0.1,0c1.4-0.6,6,1.1,8.4,1.1s2.3,0.6,1.1,1.2  c-1.2,0.6-2.7,2.1-3.6,4.5c-0.9,2.4,1.5,6.6,2.9,8.7c1.4,2.1,0.1,3.3,1.4,5.3c1.2,2,0.6,3,0.3,5.1c-0.3,2.1,0.9,1.8,1.1,5  c0.1,3.2,3.5,3.6,5.7,4.5c2.3,0.9,4.5,2.4,7.4,3c2.9,0.6,2.3,3.8,6.6,5.4c4.4,1.7,5.1-0.3,8.4-1.8c3.3-1.5,10.2,0.1,14.4-0.2  c4.2-0.3,4.5-4.8,6.3-8c1.8-3.2-1.1-5,0.1-6.2c1.2-1.2,4.2-1.7,4.5-3.2c0.3-1.5,0.7-1.8,2.7-2.9c2-1.1,2.1-3.6,5.3-6.2  c3.2-2.6,1.7-4.1,2.4-6.6s6.6-5,9.3-1.4c2.7,3.6,5.9,3.3,10.2,3.2c4.4-0.1,1.4-3.8,2.7-3.3c1.4,0.5,5.9,3.2,8.3,2.6  c2.4-0.6,2.1-0.3,4.2,1.5c2.1,1.8,6.8,2.4,10.4,2.1c3.6-0.3,4.4-3.5,5.4-5.9c1.1-2.4,5.1-3.6,7.8-5c2.7-1.4,2.4-1.7,3.3-4.7  c0.9-3,3.2-1.4,6.9-0.3c3.8,1.1,4.2,0.5,6.6-0.5c2.4-0.9,4.4,0.2,4.4,2.6c0,2.4,0.8,4.7,2.7,7.1c2,2.4,4.1,2.6,7.4,2.4  c3.3-0.1,4.2-1.2,6.8,0.3c2.6,1.5,5.9-0.1,8.4-2c2.6-1.8,5,0,8.9,0c3.9,0,6.2-4.7,6.8-5.9c0.6-1.2,1.7-6.8,3.2-6.8  c1.5,0,5.6-0.5,8-2.9c0.1-0.1,0.1-0.1,0.2-0.2c-2.1-8.5-2.8-10.6-5.1-13.6C399.6,506,400.1,508.7,397.6,510.5z" stroke-miterlimit="10" stroke="#FFFFFF"/>
<path name="阿克苏市" fill="#D3D3D3" id="path16" d="M367.3,391.8c0,0,15.3-19.7,16.8-20.9c1.5-1.2,1.4-11.3,1-15.2  c-0.4-3.8-0.4-10.5-0.1-14.2c0.3-3.7,0.9-9.3,0.4-16.8c-0.5-7.6-2.6-9-4-11.7c-1.3-2.7-0.7-6.1,1.2-9c1.9-2.9-1.5-3.1-0.7-16.4  c0.8-13.4-2.4-10.9-4-10.9c-1.6,0-2.7,0.1-4.8,1.5s-6.3-0.1-8.1-1.8c-1.8-1.6-2.1-2.7-3.3-2.1c-1.2,0.6-2.4,1-4.2-0.9  c-1.8-1.9-3.7,1-6.3-0.1c-2.5-1.2-4.3,0.3-7.9,1c-3.6,0.7-7.9,1.8-10.3,4.5c-2.4,2.7-5.7-2.2-8.4-1.2c-2.7,1-6.4,3-10.4,3  c-4,0-4.9,1.8-6.1,4c-1.2,2.2-2.7,0.3-6.6-1.9c-3.3-1.9-15.6-0.1-19,0.5c0,1.8-0.1,3.9-0.6,6.2c-0.6,2.7-5,2.1-7.4,2.7  c-2.4,0.6-3.3,5.6-4.4,5.9c-1.1,0.3-4.8,1.8-7.8,1.4c-3-0.5-3.6,1.1-6.5,2.4c-2.9,1.4-4.2,1.5-6.9,2.9s-5,2.9-8.3,4.2  c-3.3,1.4-3.9,1.8-6.5,3.9c-0.6,0.5-1.3,0.9-2.1,1.3c2.2,2.5,8.6,9.9,8.9,12.9c0.4,3.6,0.6,7.9-1.9,8.8c-2.4,0.9-3.9,0.4-4.9,4.3  c-0.9,3.9-4.3,6.6-8.8,10.5c-1.7,1.5-3.6,2.6-5.4,3.6c-0.4,1-2.1,5.7-0.5,7.4c1.8,1.9,10,3.4,13,1s8.1-5.4,14-4.8  c6,0.6,7-2.1,13.4,0.3c6.4,2.4,10.9,5.5,10.9,7c0,1.1-2.4,10.7-3.7,16.1l11,7.4L367.3,391.8z" stroke-miterlimit="10" stroke="#FFFFFF"/>
<path name="喀什市" fill="#D3D3D3" id="path17" d="M201.8,519.9c-0.8-1.4,1.5-4.3-0.6-6.1c-2.1-1.7,0.4-3,1.4-5.9  c1-2.9,1.2-4-2.4-4c-3.6,0-2.9-4.9-4.6-7c-1.7-2.2-3.5-2.9-1-4.6c2.4-1.7,1.6-4,1.6-7.8c0-3.7-2-9.9-0.9-11.1  c1.2-1.2,2.9-1.5,2.2-5.5c-0.7-4,2-3,3.7-9c1.7-6,8.2-13.2,15.4-20.4s32.3-26.8,33.2-28.7c0.9-1.9,2.8-3.3,4.8-4.5  c1.9-1.2,5.2,2.5,6.3,1.6c1-0.9,5.7-22.4,5.7-22.4s4.6-18.2,4.6-19.7c0-1.5-4.5-4.6-10.9-7c-6.4-2.4-7.5,0.3-13.4-0.3  c-6-0.6-11,2.4-14,4.8s-11.2,0.9-13-1c-1.6-1.7,0.1-6.5,0.5-7.4c-3.1,1.6-6.3,2.8-8.6,4.3c-3.7,2.4-4.1,4.5-7.7,5.3  c-3.6,0.8-3.4-0.8-5.4,2.1c-2.1,2.8-2.4,4.5-7.9,5.1c-5.4,0.6-5.2,4.1-8.6,5.1c-3.4,1-7.8,0.4-12.8,0.6c-5,0.2-13.6,1.2-16.5-1.8  c-2.8-3-6.2-4.4-7.4-3c-1.2,1.4-1.6,5.2-3.2,8c-1.6,2.8-3.8,13.6-0.2,12.2c3.6-1.4,5.8-5.8,6.4-4c0.6,1.8-0.6,7.2,0.4,8  c1,0.8,5-2.2,5.6-5.4c0.6-3.2,1.4-4.8,4-3.4c2.6,1.4,3.8,0.8,3.8,4.8s1,5.4-1.6,5.4c-2.6,0-8.2-1.2-6.2,2.2  c2,3.4,7.6,12.4,11.4,14.3c3.8,1.8,7,8,7,10.8s-4.4,14.7-6.6,16.5c-2.2,1.8-5,2-7.6,1.8c-2.6-0.2-5.4-1.4-6-0.4  c-0.6,1-2,1.8-2.8-0.8c-0.8-2.6-2.6-5.2-4.2-4.8s-5,2.4-5.8-1c-0.8-3.4-4-10.4-7-11.8c-2.8-1.3-10.6-2.2-10.7-6.5c0,0,0,0,0,0  c-3.3,2-0.2,2.9-0.3,5.4c-0.2,2.6-0.5,4.5,1.5,6.3c2,1.8,0.8,2.1,0.4,3.6c-0.3,1.5,0.3,2.9,1.5,4.8c1.2,2-0.5,3.8-1.5,5.1  c-1.1,1.4-1.4,2.4-0.3,4.1c1.1,1.7,1.1,2.3,3.6,4.1c2.6,1.8,2.3,3.6,0.5,4.8c-1.8,1.2-3.3,1.8-4.4,2.3c-1.1,0.5-5,1.5-6.5-0.1  c-1.5-1.7-2.1-0.3-5.1-0.6c-3-0.3-2.7,3.6-2.6,6.5c0.1,2.9,2.4,1.5,3.8,0.9c1.4-0.6,1.8,1.2,2.9,0.9c1.1-0.3,1.4,0,3.3,1.2  c2,1.2,4.7,0.3,7.2,0.2c2.6-0.2,4.4,1.7,5.7,3.5c1.4,1.8,2.6,4.1,2.6,6.6c0,2.6,1.7,1.8,3.3,0.3c1.7-1.5,4.5-0.9,5.6,1.5  c1.1,2.4,5.3,1.7,5.6,5.9c0.3,4.2-0.2,3.6,1.2,5.7c1.4,2.1-0.2,2-0.6,4.5c-0.5,2.6,1.5,3.2,1.1,4.5c-0.5,1.4-2.4,2-3,4.2  c-0.6,2.3,1.1,3.2,3.2,3.6c2.1,0.5,2.3,2.3,1.7,4.2c-0.6,2-1.1,2.6,1.8,3.8c2.9,1.2,4.7-1.4,7.8-2.3c3.2-0.9,3.8-0.2,3.2,1.8  c-0.6,2-2,1.8,0.3,2.9c2.3,1.1,2.1,1.5,3.5,2.9c1.4,1.4,5.7,4.5,8,5.4c2.3,0.9,6.3,2.6,8.7,3c2.4,0.5,3.8,1.8,7.7,2.4  c3.8,0.6,5.9,0.2,7.3-0.4C201.5,527.6,202.5,521.2,201.8,519.9z" stroke-miterlimit="10" stroke="#FFFFFF"/>
<path name="阿图什市" fill="#D3D3D3" id="path18" d="M132.8,423.9c3,1.4,6.2,8.4,7,11.8c0.8,3.4,4.2,1.4,5.8,1  s3.4,2.2,4.2,4.8c0.8,2.6,2.2,1.8,2.8,0.8c0.6-1,3.4,0.2,6,0.4c2.6,0.2,5.4,0,7.6-1.8c2.2-1.8,6.6-13.6,6.6-16.5s-3.2-9-7-10.8  c-3.8-1.8-9.4-10.8-11.4-14.3c-2-3.4,3.6-2.2,6.2-2.2c2.6,0,1.6-1.4,1.6-5.4s-1.2-3.4-3.8-4.8c-2.6-1.4-3.4,0.2-4,3.4  c-0.6,3.2-4.6,6.2-5.6,5.4c-1-0.8,0.2-6.2-0.4-8c-0.6-1.8-2.8,2.6-6.4,4c-3.6,1.4-1.4-9.4,0.2-12.2c1.6-2.8,2-6.6,3.2-8  c1.2-1.4,4.6,0,7.4,3c2.8,3,11.4,2,16.5,1.8c5-0.2,9.4,0.4,12.8-0.6c3.4-1,3.2-4.5,8.6-5.1c5.4-0.6,5.8-2.3,7.9-5.1  c2.1-2.8,1.9-1.3,5.4-2.1c3.6-0.7,3.9-2.8,7.7-5.3c3.7-2.4,9.6-3.9,14-7.9c4.5-3.9,7.9-6.6,8.8-10.5c0.9-3.9,2.4-3.4,4.9-4.3  c2.4-0.9,2.2-5.3,1.9-8.8c-0.3-2.9-6.7-10.4-8.9-12.9c-2.3,1-5,1.3-7.1,1.4c-2.7,0.2-1.4,0.5-2,3c-0.6,2.6-2.9,3.3-6,3.5  c-3.2,0.2-2.7,1.2-4.1,4.2c-1.4,3-4.5,2.1-6.9,2.4c-2.4,0.3-3.5-0.5-7.2-0.9c-3.8-0.5-4.7-1.8-7.7-2.1s-5.6,2-6.8,3.2  c-1.2,1.2-3.9,7.2-3.9,9.5s-4.5,7.7-6,9.6c-1.5,2-3.5,2.4-4.4,0.3c-0.9-2.1-1.2-1.7-3.6-1.2c-2.4,0.5-3.6,1.4-6.8,2.4  c-3.2,1.1-5,0.9-6.8,0.6c-1.8-0.3,0.5-4.5,0-7.1c-0.4-2.6-0.6-4.5-1.1-6.2c-0.5-1.7-3.9,0.3-5.1,1.7c-1.2,1.4-5.1,3.9-7.5,3.9  c-2.4,0-5.1,0-8-1.5c-2.9-1.5-1.7-1.4-2.4-0.3c-0.8,1.1,1.1,2.6,1.8,3.8c0.8,1.2,0.8,1.8-1.1,1.7c-1.8-0.2-3.6,0.5-5.7,0.6  c-2.1,0.2-4.4,3.3-6.2,5.3c-1.8,2-3.9,1.2-6,0c-2.1-1.2-3.5,0.9-5.6,1.1c-2.1,0.2-2.6,1.4-2.3,2.4c0.3,1.1-1.4,2.4-3.2,4.8  c-1.8,2.4,0.3,4.2,0.3,6s-0.2,4.8-1.5,6.3c-1.4,1.5-5.1,2.9-7.4,2.9c-2.3,0-2.4,1.4-3.6,2c-1.2,0.6-0.8,0.5-0.6,1.8  c0.2,1.4,0.3,2.1,1.5,3c1.2,0.9,1.8,1.8,2.6,4.7c0.8,2.9,2.7,2.6,3.6,3.9c0.9,1.4-2,2.9-3.6,3.6c-1.7,0.8,0.9,3.5,1.2,6.5  c0.3,3,3.8,5.4,5.7,6.8c2,1.4,1.8,0.9,2.7-0.5c0.9-1.4,3-2.4,4.5-2.9c1.5-0.5,6.9,1.1,8.7,2.6c1.8,1.5,4.8,3.5,7.2,5.3  c2.4,1.8,2.7,3.7-0.6,5.7C122.1,421.7,129.9,422.6,132.8,423.9z" stroke-miterlimit="10" stroke="#FFFFFF"/>
</svg>