<?xml version="1.0" encoding="UTF-8" standalone="no"?><!-- Generator: Adobe Illustrator 18.0.0, SVG Export Plug-In . SVG Version: 6.00 Build 0)  --><svg xmlns="http://www.w3.org/2000/svg" xmlns:xlink="http://www.w3.org/1999/xlink" contentScriptType="text/ecmascript" zoomAndPan="magnify" contentStyleType="text/css" id="图层_1" mapName="江西省" mapType="省市地图" enable-background="new 0 0 800 600" version="1.1" xml:space="preserve" preserveAspectRatio="xMidYMid meet" viewBox="0 0 800 600" x="0px" y="0px">
<path name="抚州市" fill="#D3D3D3" id="path0" d="M510.9,251.9c-2.4-1.4-12.8-6.9-17-4.4c-4.7,2.9-10.9,5.1-9.4,0  c1.5-5.1,4-12.3,0-17c-4-4.7-9.4-4.4-12.3-4.4c-2.9,0-12.3-1.8-12.3-5.1c0-3.3-0.4-8,1.5-10.5c1.8-2.5,5.8-1.8,8.7-5.8  c2.5-3.4,2.8-7.1,2.9-8.1c-0.5,0.2-1.3,0.2-2.1,0.5c-1.3,0.5-2,1.5-3.2-0.1c-1.2-1.6-2.4-3.6-3.7-4c-1.3-0.4-3,3-3,3s-1,2.1-2.5,0.8  c-1.6-1.3-3.2-0.9-5.4-0.5c-2.2,0.5-2.8-2.6-1.6-5.4c1.2-2.8-0.1-3.6-1.3-3.6c-1.2,0-1.8,0.4-1.8-2.3c0-2.2-0.5-1.9-1.2-2.7  c-0.4,1.4-0.5,5.6-0.8,9.9c-0.3,4.6-2.9,7.8-3.8,9.1s-2.6,7.2-2.6,8.2c0,1-3.8,0.6-5.5,1.8c-1.7,1.2-1.8-0.6-3.5-2.2  c-1.7-1.6-2.8,0.3-3.7,1.8c-0.9,1.5-2.9,1.3-5.8,1.5s-2.6,2.7-4.2,3.7c-1.5,1-3.1-1.5-3-2.9c0.2-1.3-1.4-3.1-3.6-3.9  c-0.4-0.1-0.8-0.4-1.2-0.8c-0.6,1.2-4.8,9.6-1.8,11.6c3.1,2.1,3.8,3.1,3.7,6.3c-0.1,3.1-2.6,9.4-6.8,12.9c-4.3,3.6-4.4,4.7-8.8,5.3  c-4.4,0.6-4.8,0.4-6.9,2.1c-2.1,1.7-2.9,1.8-2.8,4.1c0.1,2.3,0.5,5-1.4,5.8c-1.9,0.9-0.9,4.3-0.9,4.3s-0.4,2-2.1,1.1  c-1.6-0.9-4.3-2.3-7.2,1.1c-2.9,3.4-4.7,5.7-6,6.7c-1.3,1-5,3.7-5,5.6c0,1.9-1.3,5.9-0.3,7.1c1,1.3,2.5,5.6,5.6,5.6  c3.1,0,6.9,0.9,5.1,3.1c-1.8,2.3-2.3,3.3-2.3,4.7c0,1.4-0.9,2.6-0.9,4c0,1.4-0.7,3.1-2.3,4.1c-1.6,1-4,5.3,0,11  c4,5.7,5.3,6.1,7.6,4.9c2.3-1.3,6.2-1.2,6.9,2c0.7,3.2,3.1,8.8,5.8,9.9c2.5,1,3.7,1.3,3.9,1.3c0.6-0.5,1-0.9,1.3-1.2  c0.9-0.9,1.5-3.1,3.7-5.3c2.2-2.3,1.8-2.3,1.8-6.1c0-3.9,4.6-3.3,7.6-3.5c3-0.2,2.7,1.5,2.8,3.1c0.1,1.6,2.9,3.3,4.9,4.7  s0.7,5.6-0.6,6.5c-1.3,0.9-1,4.2-1.6,5.8c-0.6,1.6-0.2,2.8,1.3,4.1c1.5,1.2-0.1,2.8-1.4,3.2c-1.3,0.3-1.2,1.9-0.2,3.2  c0.9,1.2-1.5,6.6-2.9,8.6c-1.4,2,1.6,3.3,4,3.3s2.9,2,3.3,4c0.4,1.9,2.2,1.6,4.3,1.1c2.1-0.5-0.6,4.8,0.4,5.5c0.9,0.7,0.8,2,0.1,3.4  c-0.7,1.4,0,2.6,0.7,2.5c0.7-0.1,2.6-0.5,2.9,0.8c0.4,1.2,0.8,0.8,3.4,0.8c2.7,0,3.3,0.3,3.3-3.1s1.8-2.2,2.5-2.4  c0.7-0.2,2.5,0.3,2.5-0.9s-0.1-1.5,2.1-2.4c2.2-0.9,3.7,3,4,4.5c0.2,1,3.8-0.6,6-1.7c-0.5-0.6-1-1.2-1.4-1.8c-1.1-2,0-5,0.2-7.8  c0.2-2.8-2.3-4.2-3.9-6.2c-1.6-2,1.1-4.6,2.8-6.3c1.6-1.8,0-3.1-0.3-5.9c-0.3-2.8,1.6-3.4,2.4-3.9c0.8-0.5,6.5-4.6,7.8-6.2  c1.3-1.6,3.3-3.1,5.7-2.6s2.4-1.3,4.2-2c1.8-0.7,2.4-1.5,3.4-1.1c1,0.3,4.6,0.8,5-0.3c0.5-1.1,2.8-0.8,4.7-0.2  c2,0.7,4.1-3.1,4.2-4.7c0.2-1.6,2.6-2.3,3.9-3.3c1.3-1,1.3-0.7,1.5-2.6c0.2-2,1.3-2.6,2-4.2c0.7-1.6,7.8-5.9,9.8-8.6  c2-2.8-1.8-2.4-5-4.2c-3.3-1.8,0.3-7,1.5-8.3c1.1-1.3,0.2-2.8-0.3-3.6c-0.5-0.8-2.9-8.1-3.7-10.1s-4.4,1.3-4.4,1.3s-2.8-5.5-1.5-5.5  c1.3,0,1.3-0.7,1-1.8c-0.3-1.1-1.5-3.3,0.2-4.1c1.6-0.8,2.6,0.2,4.1,1c1.5,0.8,2-0.2,1.8-1.5c-0.2-1.3,0.8-1.8,1.8-1.8  c1,0,2.9,1,7.6-0.8c4.7-1.8,6.7-8.8,7.6-10.2C511.5,253.7,511.3,252.8,510.9,251.9z" stroke-miterlimit="10" stroke="#FFFFFF"/>
<path name="赣州市" fill="#D3D3D3" id="path1" d="M442.5,373.3c-0.3-1.5-1.8-5.4-4-4.5c-2.2,0.9-2.1,1.2-2.1,2.4  s-1.8,0.7-2.5,0.9c-0.7,0.2-2.5-0.9-2.5,2.4s-0.7,3.1-3.3,3.1c-2.7,0-3.1,0.5-3.4-0.8c-0.4-1.2-2.2-0.9-2.9-0.8  c-0.7,0.1-1.4-1.1-0.7-2.5c0.7-1.4,0.8-2.7-0.1-3.4c-0.9-0.7,1.8-5.9-0.4-5.5c-2.1,0.5-4,0.8-4.3-1.1c-0.4-1.9-0.9-4-3.3-4  s-5.4-1.2-4-3.3c1.4-2,3.9-7.4,2.9-8.6c-0.9-1.2-1-2.8,0.2-3.2c1.3-0.3,2.9-1.9,1.4-3.2c-1.5-1.2-1.9-2.5-1.3-4.1  c0.6-1.6,0.4-4.9,1.6-5.8c1.3-0.9,2.6-5.1,0.6-6.5s-4.8-3.1-4.9-4.7c-0.1-1.6,0.2-3.3-2.8-3.1c-3,0.2-7.6-0.3-7.6,3.5  c0,3.9,0.5,3.9-1.8,6.1c-2.2,2.3-2.8,4.4-3.7,5.3c-0.9,0.9-5,4.4-6.5,5.8c-1.5,1.4-7,7.3-7,8.5c0,1.2-1.9,3.4-3.5,1.8  c-1.6-1.6-2.8-4.9-5.7-2c-2.9,2.8-0.1,6.8,0.6,7.4c0.7,0.6,4.4,1.1,2.2,3c-2.2,1.8-3.3,2.6-2.3,4.3c0.9,1.7-0.9,4.4-3.5,3.9  c-2.6-0.6-3.9-2.3-6-0.6c-2.1,1.7-3.4,0.6-4.1-0.7c-0.7-1.2-0.8-3.1-2.7-2.4c-1.9,0.7-3,1.6-4.3,0.6c-1.3-1-1.6-1.8-3.6,0.5  c-2,2.3-3.6,3.2-5.5,2.3c-1.9-0.9-3.6-2.3-5.5,1.2c-1.9,3.5-4.7,6-5.1,9.1s-6.1,2.5-7.1,2.4c-1-0.1-6.2,0.7-7.5,3.5  c-1.3,2.8-2.6,3.1-2.2,4.1c0.4,1-0.8,2.3-1.5,3.5c-0.7,1.2-2.8,3.9-0.7,6.4c2.1,2.5,2.2,1.7,2.5,3.9c0.2,2.2,1.9,3.2,1.2,5.1  c-0.7,1.9-4.7,3.3-1.9,4.8c2.8,1.5,4.6,3.9,2.5,5.1c-2.1,1.2-3.5,0.7-4.4-1c-0.9-1.7-1.5-4.4-5.1-4.1c-3.6,0.3-6.7,0.1-7.4-0.3  c-0.7-0.5-2.9-0.7-4,0.6c-1.1,1.2-6.3,0.7-8.6,1.6c-2.3,0.9-6.2,1.5-8.3,0.1c-2.1-1.4-6.4-7.2-10.2-5.3c-3.7,1.8-4.3,3.1-4.3,4.5  c0,1.5-1.3,1.6-2.5,1.6c-1.2,0-2.9-0.7-3,1.7c-0.1,2.4-1.1,7.4-3.3,5.5c-2.2-1.9-2.9-3.1-5.1-0.6c-2.2,2.5-4.6,1.6-5.4,4.5  c-0.8,3-5.5,1.2-7.4,2c-1.9,0.8-4.2,0.7-5.6,0.7c-1.4,0-2.7,0.2-3.3,1.6c-0.5,1.2-4.6,1.3-5.7,1.3c0.3,1.6,0.5,3.3,0.5,4.2  c0,2.3-3.4,5.2-4.2,6.2c-0.8,1-0.8,3.4-0.8,5.5s-4.9,5.7-4.9,5.7s-1.3,3.1-0.5,4.4c0.8,1.3,6.7,11.7,7.2,13.2c0.5,1.5-1.3,6-2.8,7.3  c-1.5,1.3-1,4.4-0.8,4.6c0.9,0.3,1.6,0.5,2.1,0.6c2.3,0.5,1,1.1,1.5,2.8c0.5,1.6,1.8,2.6,2.8,2.8c1,0.2,0.8,2.3,0.8,2.3  s-1.6,6-2,7.6c-0.3,1.6,0.3,3.7,1.8,2.6c1.5-1.1,11.5-5.2,11.5-5.2s6.8,1.6,9.1,2.3c2.3,0.7,3.1-0.2,3.4-2c0.3-1.8-1.6-2.4,4.2-1.6  c5.9,0.8,3.4-2,5.4-2.9c2-1,0.3-2.8,3.7-2.8c3.4,0,3.3-1,6-2.6c2.8-1.6,4.6,0.8,4.6,0.8s1.8,2.8,2.6,4.7c0.8,2,2.4,3.1,6.8,4.1  c4.4,1,3.3,2.9,4.2,3.7c1,0.8,1.8,3.1,1.6,4.1c-0.2,1-3.1,3.3-3.7,4.7c-0.7,1.5,1,2.9,2,4.2c1,1.3,1.8,3.9-1.5,3.4  c-3.3-0.5-5.2,3.3-6.2,4.4c-1,1.1-2.6,0.3-5.4-0.3c-2.8-0.7-1.8,1-1.8,1s-1.3,3.9-4.2,5c-2.9,1.1-8.6,5.4-9.8,5.9  c-1.1,0.5-0.7,4.7-0.8,7.2c-0.2,2.4-1.6,3.3-3.1,4.2c-1.5,1-0.2,2.9-0.2,5c0,2.1-4.7,7.5-7.6,8.3c-2.9,0.8-3.1,1.8-6.3,3.3  c-3.3,1.5,1.8,2.6,4.2,3.9c2.4,1.3,2.9,1.3,2.9,3.1c0,1.8-1,2,3.7,2.3c4.7,0.3,3.9,1.5,5.2,3.1c1.3,1.6,2.8,3.9,3.1,5.7  c0.3,1.8,3.9-1.8,5.7-3.1c1.8-1.3,3.6-2.4,6.7-1.6s3.7-0.5,4.9-1c1.1-0.5,4.9-1.3,4.9-1.3s2.3,2.1,3.6,2.4c1.3,0.3,1.6-3.3,2.1-4.9  c0.5-1.6,6.2-0.5,8.5,0.8c2.3,1.3,4.9,1.6,4.9,1.6s1.6-4.1,2.9-7.2c1.3-3.1,2.1-1.8,4.1-1.8c2,0,3.4-0.8,4.7-2.4  c1.3-1.6,2.3-1,4.4-0.3c2.1,0.6,4.7,3.3,4.7,3.3s2-2.3,3.6-2.3c1.6,0,2.3-1.1,3.7-2.4c1.5-1.3,4.1-2,4.1-2s3.1-1.8,4.7-2.4  c1.6-0.7,2.1-1.6,3.7,0.2c1.6,1.8,3.1,1.6,5-1.5c2-3.1,6-1.1,6.8-1.1s6.3,6.5,8.3,11.5c2,5,7,4.9,8.5,5.4c1.5,0.5,3.6,2.6,3.9,5.2  s8.9,0.3,11.9-1.1c2.9-1.5-2.8-5-4.6-8c-1.8-2.9,0.3-2.4,1.5-4.6c1.1-2.1-2.6-1.5-3.7-2.4c-1.1-1,2.3-10.1,2.8-13.2  c0.5-3.1,0.8-3.9,3.6-4.7c2.8-0.8,3.6,1.6,4.4,2.8c0.8,1.1,2.1-0.2,2.1-2c0-1.8-2.1-2.9-3.1-4.6c-1-1.6,2.1-4.4,2.1-4.4  s0.2-1.6-0.5-2.9c-0.6-1.3,0.8-2.1,2.6-3.4c1.8-1.3-0.3-3.6-0.3-3.6s-2.6-3.3-4.4-7.5c-1.8-4.2,1.8-7.2,3.6-7.8c1.8-0.7,6-4.2,8-6.8  c2-2.6,1.6-3.6,0.8-6c-0.8-2.4-0.2-4.7,1.3-5.7c1.5-1-0.3-3.9-1.1-4.6c-0.8-0.7,1.8-5.4,3.9-8c2.1-2.6,1-3.7,0.8-7.2  c-0.2-3.4,2.8-8.3,3.1-9.9c0.3-1.6,2.9-5.2,5.2-4.4c2.3,0.8,2.4-2.8,2.4-2.8s-2.3-2.6-4.6-5c-2.3-2.4,5.2-7.6,8.9-7.6  c3.7,0,6.3-1.6,6.7-2.8c0.3-1.1,2.8-2.1,3.9-2.8c1.1-0.7,2-2.3,2.3-4.7c0.3-2.4,8.5-9.1,9.8-10.9c1.3-1.8,0-3.7-0.8-4.9  c-0.8-1.1-2.4,0.2-3.7,0.3c-1.3,0.2-2.1-2.1-2.1-3.4c0-1.3-1.3-1.8-1.3-4.4c0-2.6,7.3-11.1,9.8-14c2.4-2.9,4.6-1.5,7.3-0.3  s0.7-0.5,1.6-4.6c1-4.1-0.5-2.9-0.8-5.9c-0.2-2-1.3-3.3-2.4-4.5C446.4,372.7,442.7,374.4,442.5,373.3z" stroke-miterlimit="10" stroke="#FFFFFF"/>
<path name="鹰潭市" fill="#D3D3D3" id="path2" d="M520.1,221.8c-3.1-0.5-1.7-0.8-4.4-2.2c-2.8-1.4-3.4-10.6-4-12.3  c-0.6-1.6-0.5-5.7,1.4-6.7c1.9-0.9,2.6-4.2,1.6-6c-1.1-1.8,0.1-1.8,1.4-5c1.3-3.3,0.8-3.6-0.1-6.2c-1-2.6-2.3-5-3.5-7  c-1.2-2-2.9-3.9-5-3.9c-2.2,0-2.2,1.5-5.3,3.9c-3.1,2.3-3.7,0.2-5.3-0.6c-1.6-0.8-2.5-2.2-5.3-1.6c-2.8,0.6-1.8,4.1-1.7,5.8  c0.1,1.8-2.5,1.6-3.7,0.5s-3.2,1.1-5.2,0.9c-1.9-0.1-2.2,1.9-3.5,1.6c-1.3-0.2-2.9,1.4-1.6,2.6c1.3,1.2,0.5,3.9-0.8,5.1  c-1.3,1.3-1.6,3.3-1.6,4.7c0,0.6-0.3,0.9-0.7,1c-0.1,1-0.4,4.7-2.9,8.1c-2.9,4-6.9,3.3-8.7,5.8c-1.8,2.5-1.5,7.3-1.5,10.5  c0,3.3,9.4,5.1,12.3,5.1c2.9,0,8.3-0.4,12.3,4.4c4,4.7,1.5,12,0,17c-1.5,5.1,4.7,2.9,9.4,0c4.1-2.6,14.5,3,17,4.4  c-0.4-1.2-1.2-2.5-1.5-3.5c-0.6-2,2.9-1.6,3.3-0.7c0.3,1,2.1,0.5,2.1-0.5s4.4-3.3,4.4-3.3l3.7-1.3c0,0,2-3.4,4.1-3.4  c0.5,0,0.9,0,1.2-0.1c-0.3-1.6-0.6-6.2,0.4-10.9C529.5,223.5,523.2,222.3,520.1,221.8z" stroke-miterlimit="10" stroke="#FFFFFF"/>
<path fill="#D3D3D3" id="path3" d="M352.5,154.2C351.8,155.3,352.9,154.4,352.5,154.2L352.5,154.2z" stroke-miterlimit="10" stroke="#FFFFFF"/>
<path name="南昌市" fill="#D3D3D3" id="path4" d="M349.7,140.2c2.5,1.9,4.5,3.8,4.5,5.7c0.1,1.9-0.7,6.7-1.7,8.2  c0,0,0,0.1-0.1,0.1c0.4,0.2-0.7,1.1,0,0c-0.1,0-0.2-0.1-0.4,0c-1.4,0.1-4,1.9-0.9,3.2c3,1.3,3.8,1.3,5.4,1.1  c1.6-0.2,2.3,1.5,2.3,5.1s-1,5.9-1.7,7.8s-1.1,3.8,1.2,3.6c2.2-0.1,2.1,0.7,2.3,3.2c0.2,2.6,0.2,4-1.4,6.9c-1.6,2.9-2.4,5.7-0.8,6.5  c1.5,0.7-0.5,2.1-0.9,3.3c-0.5,1.2,0.5,1.5,2.3,1.2c1.8-0.3,3.7-3.6,5.8-1.3c2.2,2.2-1.5,5.1,1.2,6c2.8,0.9,4.9,0.4,4.9-1.2  c0-1.6,0.3-2.5,2.5-1.3s3.2,1,5.1-0.9c1.8-1.9,2-3.9,3.8-1.8c1.8,2.1,2.2,2.4,2.3,3.9c0.2,1.5,0.1,0.5,2.2,0.5c2.2,0,4.3,0,5.2,1.2  c0.9,1.2,0.6,1.8,2.9,0.7c2.3-1,2.5,1.2,4.3,0.1c1.8-1,3.7-0.4,5.4,1.2c1.7,1.6,2.9,5.7,5.1,6.4c2.2,0.7,3.7,2.5,3.6,3.9  c-0.2,1.3,1.4,3.9,3,2.9c1.5-1,1.2-3.6,4.2-3.7s4.9,0,5.8-1.5c0.9-1.5,2-3.4,3.7-1.8c1.7,1.6,1.8,3.4,3.5,2.2  c1.7-1.2,5.5-0.7,5.5-1.8c0-1,1.7-6.9,2.6-8.2s3.5-4.5,3.8-9.1c0.3-4.3,0.4-8.5,0.8-9.9c-0.1-0.2-0.3-0.4-0.5-0.7  c-1-1.8-2.8-2.9-3.3-6.1c-0.5-3.2-4.4-7-5.2-8.8c-0.8-1.8-6.4-6-8.4-6.2c-2-0.2-1.7-2-4.2-3.9c-2.5-1.9-2.6-2.8-2.8-4.8  c-0.1-2,2-2.9,4.7-2.9c2.6,0,3.4-4.3,4-6.1c0.6-1.8,2.4-6.8,2.4-9c0-2.2,1.6-3.4,1.1-6c-0.2-1.1,0.1-1.8,0.6-2.4  c-2.3-0.7-18.5-5.5-21.7-6.9c-3.5-1.5-8.8,4.9-10.2,6.7c-1.4,1.8-6.6,1.7-8.2,1.8c-1.5,0.1-4.8,4-5.3,5.4c-0.5,1.4-1.4,3.8-3.4,5.2  c-2,1.4-2.4,2.8-3.4,3.8c-1,1-0.7-0.3-0.8,0.6c-0.1,1-4.9,2.1-5.5,0.3c-0.5-1.8-1.5,1.5-4,1.5c-2.5,0-2.3-0.9-3-2.9  c-0.7-2-2.1-1.6-5.1-1.1c-3,0.5-4.8-2.1-5.5-3.4c-0.7-1.3-3.5-1.9-6.9-1.9c-1.2,0-2-0.1-2.4-0.4C349.8,135,347.4,138.5,349.7,140.2z  " stroke-miterlimit="10" stroke="#FFFFFF"/>
<path name="九江市" fill="#D3D3D3" id="path5" d="M241.3,153.5c1.2-1,1.5-1.9,3.3-0.6c1.8,1.3,2.7,0.2,3.2,2.6  c0.5,2.4,3.3,4.5,4.5,5.9c1.2,1.4,2.8,4.1,5.3,3.1c2.5-0.9,4.1-2.1,5.4-1.1c1.4,1,2-0.3,2.6-2.3c0.6-2,0.3-2.2,3.5-2.6  c3.2-0.3,3.8-0.7,4.6-1c0.8-0.3,1.3-0.2,1.4,1.3c0.1,1.5,1.8,5,4.6,6.1c2.9,1.1,7.2,0.3,8.6,0.6c1.4,0.2,3.2-1.6,4-2.3  s2.7-2.2,1.4-3.5c-1.3-1.2,0.6-2.8,1.6-1.6c1,1.2,1.9,3.6,4.9,1.6c3-2,4-3.6,3.6-6c-0.3-2.4-1.4-3.6,0.6-4.5  c1.9-0.9,3.9-1.5,3.5-4.4c-0.4-2.9,0.5-9.2,4.6-11.1c4.1-1.9,14-8.1,22.1-7.4c8.1,0.7,12.5,0.7,13.8,4.2c1.3,3.5,0.8,4.2,4.2,4.2  c3.4,0,6.2,0.6,6.9,1.9c0.7,1.3,2.4,3.9,5.5,3.4c3-0.5,4.5-0.9,5.1,1.1c0.7,2,0.5,2.9,3,2.9c2.5,0,3.5-3.3,4-1.5  c0.5,1.8,5.4,0.6,5.5-0.3c0.1-1-0.2,0.4,0.8-0.6c1-1,1.4-2.4,3.4-3.8c2-1.4,2.9-3.8,3.4-5.2c0.5-1.4,3.8-5.3,5.3-5.4  c1.5-0.1,6.7,0,8.2-1.8c1.4-1.8,6.7-8.3,10.2-6.7c3.2,1.4,19.3,6.2,21.7,6.9c0.6-0.8,1.6-1.6,2.3-3.1c1.2-2.7,3.1-4.4,5.5-3.7  c2.4,0.7,2.4,0,5.2-2.3c2.8-2.3,2.3-2,1.7-4.8s-0.7-4.6-2.3-5.7c-1.6-1.2-2.2-4.2-2.2-6.9s-1.9-4.8-1.4-6.5  c0.5-1.8,2.2-7.5-0.2-10.1s-1.4-3.6,0.4-5.6c1.7-2.1,6.1,2.1,7.3,3.1c1.1,0.9,5.4-4.2,6.4-5.3l-4-3.2c0,0,0-2.6,0-5.2  c0-2.6,4.2-6,4.2-6s3.4-5.5,4.6-5.9c1.1-0.3,2.3,1.1,4.4,0s7.8-13.2,8-15.6c0.2-2.4-3.7-3.3-5.2-3.3c-1.5,0-3.7-1.8-5.7-3.7  c-2-2,0.7-1.7-1.9-2.1c-2.1-3-4.1-4.1-7.9-4.6c-2.4-0.3-4.9,0.7-5.6,1.4c-0.7,0.7-2.6,6.3-2.6,7.1c0,0.8,0.4,4.1-0.4,5.9  c-0.8,1.7-2,2.8-3.7,3.2c-1.7,0.4-4.3,1.4-5.3,1.4c-1,0-6.1,0.3-6.4,1.3c-0.4,1-3.2,2.7-4.2,4c-0.9,1.3-4.8,5.1-6.1,3.3  c-1.3-1.8-2.7-2.5-5.1-2.9c-2.3-0.4-6.1-0.8-7.7,1c-1.6,1.8-5.8,3.4-7.4,4.6c-1.5,1.2-3.5,1.8-5.4,2.4c-1.9,0.6-2.5,1.1-3.8,0.2  s-5.3-3.3-5.9-3.6c-0.4-0.2-2.1-1-3.3-1.7c-0.9-0.5-2.3-0.8-2.3-2.4c-0.1-3.7-0.8-4.2-3.7-4.2c-2.9,0-10-0.5-12.4,0  c-1.6,0.3-4,1-6.5,2.4c-1.8,2.4-3,4-3.1,5.5c-0.2,2.6-2.4,6.7-2.9,7.5c-0.5,0.8-8.3,7-8.3,7l-5.9,2.3c0,0-2-1.6-3.1-2.6  c-1.1-1-5,0.3-5,0.3l-3.7-2.6c0.3,0.2-2.6-1.5-3.1,0c-0.5,1.5,0.5,5.3,1.3,6.1c0.8,0.8,1.2,3.8,1.2,3.8l1,6.3c0,0-1,1-3.1,1  s-3.1-1.5-3.3-3.6c-0.2-2.1-2.1-2.3-3.4-1.5c-1.3,0.8-3.1-0.7-5-0.7c-2,0-1.3,1.3-1.3,3.4c0,2.1-0.5,3.1-0.5,3.1s-4.6-2-6-2.3  c-1.5-0.3-1,4.2-1,6.3c0,2.1,1.3,0,2.7-0.8c0.4-0.2,0.6-0.4,0.7-0.6c0.2-0.2,0.5-0.2,0.7-0.3c2.5-0.6-2.3,6-2.7,7.2  c-0.8,2.3-3.3,1.3-5,1c-1.8-0.3-3.1,1-4.4,2c-1.3,1-2.3,1-4.7-1c-2.4-2-7,0.2-9.4,0.8c-2.4,0.7-5,3.1-6.3,4.1  c-1.3,1-6.8,1.5-8.3,0.8c-1.5-0.7-5.9-1-8.6-0.8c-2.8,0.2-0.2-3.1-3.7-3.1c-3.6,0-4.2,3.4-4.2,3.4s0.3,5.9-0.3,7.8  c-0.7,2-2.4,2-3.3,2.8c-0.8,0.8-3.7,1.1-5,1.1c-1.3,0-4.2,0.3-6.3,0.7c-2.1,0.3-6.7,7.3-6.7,7.3s-4.6,4.2-5.5,5.2  c-0.4,0.4-2.3,1.6-2.1,3.9c0.3,2.9,2,7.1,2,7.4c0.2,0.6,0.2,1.9,2.1,1.7c2-0.2,2.9,1.5,3.3,2.8c0.3,1.3,0,2.4,2.9,2.4  c2.9,0,1.3,3.3,1.5,5.2c0.2,2,3.9,1.3,5.7,1.3c1.8,0,2.9,1.1,2.9,1.1s-2.1,4.2-1.5,6.5c0.7,2.3,0,3.4-0.8,4.7  c-0.1,0.1-0.1,0.2-0.2,0.3l1.6-2.6C238.3,160.1,240.1,154.5,241.3,153.5z" stroke-miterlimit="10" stroke="#FFFFFF"/>
<path name="上饶市" fill="#D3D3D3" id="path6" d="M611,193c-0.8-2.6,1-4.6,1.6-6.3c0.7-1.8-3.7-5-4.1-6.2  c-0.3-1.1-0.3-4.2-1-7.8c-0.7-3.6,0.8-5.2,0.8-7.8s-3.7-9.9-4.7-11.7c-1-1.8-4.4-2-4.4-2l-4.4-9.3c0,0-2.6-3.1-4.2-3.6  c-1.6-0.5-2.1-0.8-4.9-3.4c-2.8-2.6-4.9-0.2-6.7-1.5c-1.8-1.3-5-13.7-5-15.8c0-2.1,0.8-5.5,1.6-6.8c0.8-1.3,1.8-2,2-4.2  c0.2-2.3,1.3-2.1,2.9-2.1c1.6,0,3.1-1.3,4.2-2.3c1.1-1,1.3-1.3,2.9-2.3c1.6-1,0.5-4.4,0.2-5.9c-0.3-1.5-2.3-2.1-3.7-2.8  c-1.5-0.7-2.6-7-3.3-8.9c-0.7-2-2.3-2.3-5-3.3c-2.8-1-3.1-3.4-4.6-3.7c-1.5-0.3-9.4,2.9-9.4,2.9s-4.6-1.5-6.7-2.1  c-1-0.3-2.8,0.2-4.6,0.7c0,1.1-1,2.3-1,2.3s-6.4,5.3-10,7.8c-3.6,2.6-5.8,5.3-6.8,5.4c-1.1,0.2-3.4,2.4-3.6,5.1  c-0.2,2.7-5,7.1-5,8.5c0,1.4-3.1,5.9-4.5,7.4c-1.4,1.5,0.8,4.2,0.8,6.1c0,1.8,2.8,2.3,3.1,1.1c0.3-1.2,2.6-0.3,4.2-0.8  c1.6-0.5,3.6,1.4,1.4,2.7c-2.2,1.4-0.3,3,1.6,4.1c1.9,1.1,1.7,2.6,0.3,4.1c-1.4,1.5-2.5,2.9-2.2,4.8c0.3,2-1.9,1.2-3.4,1.8  c-1.6,0.6,0.2,2.4,1.1,3.3c0.9,0.9,4,3.3,6.4,3.3c2.3,0,1.9,1.2,0.8,2.1s-0.2,1.4-0.2,3.5s-1.1,2.6-2,1.2c-0.9-1.4-1.9-0.5-5.9-0.5  c-4,0-3.7,3.6-4.8,5.9s-2.6,1.7-4.2,0.3c-1.6-1.4-3.6,1.7-4.8,3.5c-1.2,1.8-1.4,2.9-2.5,1.5c-1.1-1.4-2.5,0.2-4.2,1.4  c-1.7,1.2-3.1-1.2-3.7-4.2c-0.6-3-7.6-2.6-9-2.6s-3.6-0.3-3.7-3c-0.2-2.7-1.9-3.8-3.4-4.5c-1.6-0.8-2-4.5-0.3-6.7  c1.7-2.1,2.8-5.1,2.8-5.1s2.5-0.9,0.9-2.6c-1.6-1.7-0.9-2.1,0.8-3.2c1.7-1.1-1.1-2.3,1.6-4.8c2.6-2.6,0.2-7.3-0.3-10.9  c-0.5-3.6,0.8-4.1,3.1-6.7c2.3-2.6-1.6-4.4-3.3-6.2s-1.6-2.9,0.5-5.4c2-2.6,0.6-4.2-0.8-4.8c-1.4-0.6-1.1-1.5-0.9-4.7  c0.2-3.2,0.1-5.2-0.8-8.7c-0.9-3.5,3.5-8.9,4.5-9.9c0.9-1,1.3-3.7,1.3-3.7l-1.2-2c-0.2,0.4-0.4,0.6-0.6,0.8  c-1.1,0.8-7.5,1.5-7.5,1.5l-2.3,2.9c0,0-3.6,1-5,1.5c-1.5,0.5-6.7,5.4-7.3,6.5c-0.7,1.1-3.3,1.1-4.2,0c-1-1.1-3.3-2-4.1-1  c-0.8,1-2.3,0.5-2.3,0.5l-1.7-1.3c-0.9,1.1-5.3,6.2-6.4,5.3c-1.2-1-5.6-5.2-7.3-3.1c-1.7,2.1-2.8,3.1-0.4,5.6s0.7,8.3,0.2,10.1  c-0.5,1.8,1.4,3.9,1.4,6.5s0.6,5.7,2.2,6.9c1.6,1.2,1.7,2.9,2.3,5.7s1.1,2.5-1.7,4.8c-2.8,2.3-2.8,3-5.2,2.3  c-2.4-0.7-4.3,1.1-5.5,3.7c-1.2,2.7-3.4,2.9-2.9,5.5c0.5,2.6-1.1,3.7-1.1,6c0,2.2-1.8,7.2-2.4,9c-0.6,1.8-1.3,6.1-4,6.1  c-2.6,0-4.8,0.9-4.7,2.9c0.1,2,0.2,2.9,2.8,4.8c2.5,1.9,2.2,3.6,4.2,3.9c2,0.2,7.6,4.4,8.4,6.2c0.8,1.8,4.8,5.6,5.2,8.8  c0.5,3.2,2.3,4.3,3.3,6.1c1,1.8,1.7,0.7,1.7,3.4s0.6,2.3,1.8,2.3c1.2,0,2.5,0.8,1.3,3.6c-1.2,2.8-0.6,5.8,1.6,5.4  c2.2-0.5,3.8-0.8,5.4,0.5c1.6,1.3,2.5-0.8,2.5-0.8s1.7-3.4,3-3c1.3,0.4,2.5,2.3,3.7,4c1.2,1.6,1.9,0.6,3.2,0.1  c1.3-0.5,2.8-0.1,2.8-1.5c0-1.4,0.2-3.4,1.6-4.7c1.3-1.3,2.2-4,0.8-5.1c-1.3-1.2,0.2-2.8,1.6-2.6c1.3,0.2,1.6-1.8,3.5-1.6  c1.9,0.1,4-2.1,5.2-0.9s3.8,1.3,3.7-0.5c-0.1-1.8-1.1-5.3,1.7-5.8c2.8-0.6,3.7,0.8,5.3,1.6c1.6,0.8,2.2,2.9,5.3,0.6  c3.1-2.3,3.1-3.9,5.3-3.9c2.2,0,3.8,1.9,5,3.9c1.2,2,2.5,4.4,3.5,7c1,2.6,1.4,2.9,0.1,6.2c-1.3,3.3-2.5,3.3-1.4,5  c1.1,1.8,0.4,5-1.6,6c-1.9,0.9-2,5-1.4,6.7c0.6,1.6,1.2,10.9,4,12.3c2.8,1.4,1.3,1.8,4.4,2.2c3.1,0.5,9.4,1.6,8.4,6.4  c-0.9,4.7-0.7,9.2-0.4,10.9c0.9-0.2,1.1-0.7,2.1-2c1.3-1.8,3.7-0.3,3.9,1c0.2,1.3,0.7,1,1,1.8c0.3,0.8,2,3.1,2.3,4.9  c0.3,1.8,3.6,2.8,5.4,4.1c1.8,1.3,4.4,2.6,7.2,3.1c2.8,0.5,2.8-6.3,3.9-8.3c1.1-2,6.2-3.9,6.2-3.9s6.5-4.2,10.1-5.5  c3.6-1.3,4.2,1.3,6.8,1.6c2.6,0.3,5.7-3.1,6-7.2c0.3-4.1,4.9-1.6,4.9-1.6s4.1,0.3,5.7-1c1.6-1.3,4.7-1.3,7.2-1.3  c2.4,0,2.6-4.7,3.3-6.8c0.6-2.1-0.3-4.2-0.3-4.2s-2.8-1.6-3.4-2.8c-0.6-1.1,4.2-5.4,5.5-6.3c1.3-1,4.2-2.3,6.7-3.7  C614.8,199.4,611.8,195.6,611,193z" stroke-miterlimit="10" stroke="#FFFFFF"/>
<path name="景德镇市" fill="#D3D3D3" id="path7" d="M493,69c-0.9,1-5.4,6.4-4.5,9.9c0.9,3.5,0.9,5.5,0.8,8.7  c-0.2,3.2-0.5,4.1,0.9,4.7c1.4,0.6,2.8,2.3,0.8,4.8c-2,2.6-2.2,3.6-0.5,5.4s5.6,3.6,3.3,6.2c-2.3,2.6-3.6,3-3.1,6.7  c0.5,3.6,3,8.3,0.3,10.9c-2.6,2.6,0.2,3.8-1.6,4.8c-1.7,1.1-2.3,1.5-0.8,3.2c1.6,1.7-0.9,2.6-0.9,2.6s-1.1,3-2.8,5.1  c-1.7,2.1-1.2,5.9,0.3,6.7c1.6,0.8,3.3,1.8,3.4,4.5c0.2,2.7,2.3,3,3.7,3s8.4-0.5,9,2.6c0.6,3,2,5.4,3.7,4.2c1.7-1.2,3.1-2.7,4.2-1.4  c1.1,1.4,1.2,0.3,2.5-1.5c1.2-1.8,3.3-4.8,4.8-3.5c1.6,1.4,3.1,2,4.2-0.3s0.8-5.9,4.8-5.9c4,0,5-0.9,5.9,0.5c0.9,1.4,2,0.9,2-1.2  s-0.9-2.6,0.2-3.5s1.6-2.1-0.8-2.1c-2.3,0-5.4-2.4-6.4-3.3c-0.9-0.9-2.6-2.7-1.1-3.3c1.6-0.6,3.7,0.2,3.4-1.8  c-0.3-2,0.8-3.3,2.2-4.8c1.4-1.5,1.6-3-0.3-4.1c-1.9-1.1-3.7-2.7-1.6-4.1c2.2-1.4,0.2-3.2-1.4-2.7c-1.6,0.5-3.9-0.5-4.2,0.8  c-0.3,1.2-3.1,0.8-3.1-1.1c0-1.8-2.2-4.5-0.8-6.1c1.4-1.5,4.5-6.1,4.5-7.4c0-1.4,4.8-5.8,5-8.5c0.2-2.7,2.5-5,3.6-5.1  c1.1-0.2,3.3-2.9,6.8-5.4c3.6-2.6,10-7.8,10-7.8s1-1.1,1-2.3c-2.1,0.7-4.2,1.6-4.6,1.7c-0.8,0.2-4.2-5-5.2-6c-1-1-5.7,2.3-5.7,2.3  s-2.4-1.8-4.9-2.8c-2.4-1-0.3-3.6-0.8-4.6c-0.5-1-1.1-1-4.2-2.8c-3.1-1.8-1.8-2.9-2-4.9c-0.2-2-1.8-3.4-3.1-4.1  c-1.3-0.7-0.3-4.4-1.1-6.3c-0.8-2-2.6,2-2.6,2s-2.3,0.7-2.6-0.8c-0.3-1.5-2-1.5-2-1.5s-1.5,1.1-4.1,1c-2.6-0.2-2.8-2.8-1.8-5.4  c1-2.6-2.4-2.4-5.9-3.6c-3.4-1.1-4.7,2-4.9,3.4c-0.2,1.5-1,2.8-1.8,3.1c-0.8,0.3-1.8,0.5-1.6,2.8c0.2,2.3,2.1,2.1,2.1,2.1  s1.5,2.1,1.1,3.9c-0.3,1.5-1.1,5-2,6.7l1.2,2C494.3,65.3,493.9,68,493,69z" stroke-miterlimit="10" stroke="#FFFFFF"/>
<path name="新余市" fill="#D3D3D3" id="path8" d="M342.6,245.3c-1-0.1-6.8-1.5-9.4-2.2c-2.6-0.7-5.3,0.4-6.7,0.8  c-1.4,0.4-5-1.8-5-3.2c0-1.4,0.4-4.1-0.4-4.3c-0.9-0.2-1-1.2-0.2-2c0.8-0.8,2.7-8.8,0.1-9c-2.6-0.2-6.2,0.3-7.5-0.3  c-1.3-0.6-7.2-4.3-9.3-1.4c-2.2,3-3.1,4.6-5.7,4.3c-2.6-0.3-2.4-5-6-5.4c-3.6-0.4-6.6,0.3-8.6-0.2c-2-0.5-4.3,0.8-5.2,1  c-0.9,0.1-6.8,1.7-5.7,4.3c1.1,2.6,0.8,4.9-0.8,5.8c-1.5,1-2.6,2.9-2.7,4c-0.1,1.2-3,2.4-4,3.9c-1,1.5-0.2,5.8,2.6,6.2  c2.8,0.4,2.9,0.7,4.8-0.3c1.8-1.1,4.1-0.1,1.5,2.1c-2.6,2.2-4.6,3.4-3.7,5.3c0.9,1.9,1.6,4.6-0.8,7.7c-2.3,2.9-3.5,9.3-2.7,11.3  c2.4-0.3,2.5,1.2,3,2c0.5,0.9,1.2,1.2,2.7,1.2c1.6,0,1.9,0,3.1,1.1c1.2,1.1,1.8-0.1,3.3-0.1s1.4-1.6,1.4-3.2c0-1.5,0.8-2.3,3.8-2.2  c3,0.1,2.4-1.6,5.6-1.9c3.2-0.2,4.5,1.8,6.5,3.5c2,1.8,4.4-2.7,5.8-4.1c1.4-1.4,5.5-3.2,7.5-3.4c2-0.2,4.9-1.2,5.1-2.2  c0.2-0.9,1-1.8,2.1-1.8s1.7-1.1,2.6-2.7c1-1.5,2.3-1.1,3.2,0.3c0.8,1.4,2.7,0.3,3.5-0.9c0.7-1.2,3.8-2.9,5.4-2.9  c1.6,0,6.9-0.4,8.5-1.7c1.6-1.3,2.7-3.6,3.9-4.6c1.2-1,0.8-6.8,0.8-6.8l0-0.2C344.5,244.5,343.3,245.4,342.6,245.3z" stroke-miterlimit="10" stroke="#FFFFFF"/>
<path name="宜春市" fill="#D3D3D3" id="path9" d="M407.5,220.2c-2.9-2,1.2-10.4,1.8-11.6c-1.5-1.5-2.5-4.3-3.9-5.6  c-1.7-1.6-3.5-2.2-5.4-1.2c-1.8,1-2-1.2-4.3-0.1c-2.3,1-2,0.4-2.9-0.7c-0.9-1.2-3.1-1.2-5.2-1.2c-2.2,0-2.1,1-2.2-0.5  c-0.2-1.5-0.5-1.8-2.3-3.9c-1.8-2.1-2-0.1-3.8,1.8c-1.8,1.9-2.9,2.1-5.1,0.9s-2.5-0.3-2.5,1.3c0,1.6-2.2,2.1-4.9,1.2  c-2.8-0.9,0.9-3.7-1.2-6c-2.2-2.2-4,1-5.8,1.3c-1.8,0.3-2.8,0-2.3-1.2c0.5-1.2,2.5-2.5,0.9-3.3c-1.5-0.7-0.8-3.5,0.8-6.5  c1.6-2.9,1.6-4.3,1.4-6.9c-0.2-2.6-0.1-3.4-2.3-3.2c-2.2,0.1-1.8-1.7-1.2-3.6s1.7-4.2,1.7-7.8s-0.7-5.3-2.3-5.1  c-1.6,0.2-2.4,0.3-5.4-1.1c-3-1.3-0.4-3,0.9-3.2c0.2,0,0.3,0,0.4,0c0,0,0-0.1,0.1-0.1c1-1.5,1.8-6.3,1.7-8.2c-0.1-1.9-2-3.8-4.5-5.7  c-2.3-1.8,0-5.2,0.4-5.8c-0.9-0.5-1-1.6-1.8-3.8c-1.3-3.5-5.7-3.5-13.8-4.2c-8.1-0.7-18,5.5-22.1,7.4c-4.1,1.9-5.1,8.2-4.6,11.1  c0.4,2.9-1.5,3.5-3.5,4.4c-1.9,0.9-0.9,2.1-0.6,4.5c0.3,2.4-0.7,4-3.6,6c-3,2-3.9-0.5-4.9-1.6c-1-1.2-2.9,0.4-1.6,1.6  c1.3,1.2-0.7,2.8-1.4,3.5s-2.5,2.6-4,2.3c-1.4-0.2-5.7,0.5-8.6-0.6c-2.9-1.1-4.6-4.6-4.6-6.1c-0.1-1.5-0.6-1.6-1.4-1.3  c-0.8,0.3-1.4,0.7-4.6,1c-3.2,0.3-2.9,0.6-3.5,2.6c-0.6,2-1.3,3.3-2.6,2.3c-1.4-1-3,0.2-5.4,1.1c-2.5,0.9-4.1-1.8-5.3-3.1  c-1.2-1.4-4-3.5-4.5-5.9c-0.5-2.4-1.4-1.3-3.2-2.6c-1.8-1.3-2-0.4-3.3,0.6c-1.2,1-2.9,6.6-2.9,6.6l-1.6,2.6  c-0.7,1.6-0.8,5.7-0.8,5.7s0.2,2.6-0.5,4.4c-0.7,1.8-2.1,2.6-3.1,3.9c-1,1.3,0.8,3.1,2.9,3.3c2.1,0.2,3.1,2.8,5,3.4  c2,0.7,2.6,2.6,2.1,3.6c-0.5,1-1.5,2.3-1,4.1c0.5,1.8,2.1,2.1,4.1,3.4c2,1.3,0.8,3.3,0.8,5.2c0,2-3.9,5.2-3.9,5.2s-3.3,2.9-4.6,3.3  c-1.3,0.3-3.7,2.6-3.7,2.6l-3.7,5.5c0,0-4.6,0-6,0.8c-1.5,0.8,0.8,5.7,0.8,5.7s1,2.4,1.1,3.9c0.2,1.5-1.3,2.6-2.8,2.6  c-1.5,0-6,2.4-7,4.7c-0.1,0.2-0.2,0.3-0.3,0.4c0.1,0.4,0.2,0.8,0.2,0.9c0.2,1.1,2.5,2,3.2,1.9c0.6-0.1,1.5-1.6,3,1s-5.4,3.9-8.1,5.5  s-0.5,4.1,0,6.4c0.5,2.3,1.3,1.5,5.2,5.4s7.3,3,11,1.2c3.7-1.8,4.9,3.6,5.9,4.7s3.5,2.9,3.6,4.8c0.1,2,1.7,4.8,3.1,6.5  c1.4,1.6,5,1.2,6.7,2.2c1.7,0.9,3.1,1,4.4,0.6c1.4-0.4,2.4,2.5,3.6,3.3s4.5-3.8,8-4.7c0.4-0.1,0.8-0.2,1.1-0.2  c-0.8-2,0.4-8.3,2.7-11.3c2.4-3.1,1.6-5.8,0.8-7.7c-0.9-1.9,1.1-3.1,3.7-5.3c2.6-2.2,0.3-3.2-1.5-2.1c-1.8,1.1-2,0.7-4.8,0.3  c-2.8-0.4-3.6-4.8-2.6-6.2c1-1.5,3.9-2.7,4-3.9c0.1-1.2,1.2-3.1,2.7-4c1.5-1,1.8-3.2,0.8-5.8c-1.1-2.6,4.9-4.2,5.7-4.3  c0.9-0.1,3.3-1.5,5.2-1c2,0.5,5-0.2,8.6,0.2c3.6,0.4,3.4,5.1,6,5.4c2.6,0.3,3.6-1.4,5.7-4.3c2.2-3,8,0.7,9.3,1.4  c1.3,0.6,4.9,0.1,7.5,0.3c2.6,0.2,0.7,8.1-0.1,9c-0.8,0.8-0.7,1.8,0.2,2c0.9,0.2,0.4,3,0.4,4.3c0,1.4,3.6,3.6,5,3.2  c1.4-0.4,4.1-1.6,6.7-0.8c2.6,0.7,8.5,2.1,9.4,2.2c0.8,0.1,2-0.9,2.3-1.9l0,0c0-0.2,0-0.3,0-0.5c-0.2-1.5-0.9-4.5,0.1-6.3  c1-1.8,1.8,0.1,4.2,1.3c2.4,1.2,2.3-0.2,2.3-1.6c0-1.4,2.4-0.5,4,0c1.6,0.5,0.3,3.7-0.2,5.3c-0.5,1.6,3.3,4.2,5,6.4  c1.7,2.2,3.4,2,5.4,2.4c2,0.4,2.5,1.8,3.7,3.5c1.1,1.6,6.2,7.1,7,7.9c2.2-1.3,4.1-0.3,5.4,0.4c1.6,0.9,2.1-1.1,2.1-1.1  s-1-3.4,0.9-4.3c1.9-0.9,1.4-3.5,1.4-5.8c-0.1-2.3,0.7-2.4,2.8-4.1c2.1-1.7,2.4-1.5,6.9-2.1c4.4-0.6,4.5-1.7,8.8-5.3  c4.3-3.6,6.8-9.8,6.8-12.9C411.3,223.4,410.7,222.4,407.5,220.2z" stroke-miterlimit="10" stroke="#FFFFFF"/>
<path name="萍乡市" fill="#D3D3D3" id="path10" d="M218.5,328.9c2.6,0,0-2.2,0-6c0-3.8,5.6-6,9.2-13.1  c3.6-7.1-6.7-7.1-8.2-11.5c-1.5-4.4,1-5.5,4.6-4.4c3.6,1.1,5.1-0.5,9.2-3.8c4.1-3.3,3.6-7.7,6.2-11.5c2-3,5.7-4.1,7.2-4.5  c-1.4-0.2-2.8-0.5-3.5-1.4c-1.4-1.6-3-4.5-3.1-6.5c-0.1-2-2.5-3.7-3.6-4.8s-2.2-6.5-5.9-4.7c-3.7,1.8-7.1,2.6-11-1.2  s-4.6-3.1-5.2-5.4c-0.5-2.3-2.7-4.8,0-6.4s9.6-2.8,8.1-5.5s-2.3-1.1-3-1c-0.6,0.1-3-0.7-3.2-1.9c0-0.1-0.1-0.5-0.2-0.9  c-1.7,2-8.2,2.8-10.8,3c-2.8,0.2-3.1,3.1-4.6,4.1c-1.5,1-0.5,5.4,0,6.7c0.5,1.3,2.1,4.4,2.1,4.4s-1.1,2.9-3.1,3.7  c-2,0.8-4.1,2.8-4.6,4.7c-0.5,2-1.8,4.2-4.1,4.7c-2.3,0.5-3.3,2.6-3.3,2.6s-0.7,5-1.3,7.2s2.6,3.6,2.6,5.7s-1,1.3-2,2.9  c-1,1.6,0.3,4.7,1.6,5.4c1.3,0.7,0.3,1.5,0,2.8c-0.3,1.3-0.5,1.3-0.2,2.3c0.3,1,3.9,2.4,5.5,2.8c1.6,0.3,12.2-3.4,15.3-3.9  c3.1-0.5,1,4.4,1,4.4s-1.3,5.7-1.3,8.1c0,2.4-3.6,7.2-5.5,7.8c-2,0.7-1.8,3.9,0,3.9c1.8,0-0.2,1.3,2,4.6c2.1,3.3,1.6,3.4,3.4,4.2  c1.8,0.8,1.6,2.1,2,3.7c0.3,1.6,0.5,1.1,2.4,2.6c0.2,0.1,0.3,0.3,0.4,0.4C216.4,325.5,216,328.9,218.5,328.9z" stroke-miterlimit="10" stroke="#FFFFFF"/>
<path name="吉安市" fill="#D3D3D3" id="path11" d="M388.6,332.1c-2.7-1.1-5-6.7-5.8-9.9c-0.7-3.2-4.6-3.3-6.9-2  c-2.3,1.3-3.7,0.9-7.6-4.9c-4-5.7-1.6-10,0-11c1.6-1,2.3-2.7,2.3-4.1c0-1.4,0.9-2.6,0.9-4c0-1.4,0.6-2.4,2.3-4.7  c1.8-2.3-2.1-3.1-5.1-3.1c-3.1,0-4.6-4.3-5.6-5.6c-1-1.3,0.3-5.3,0.3-7.1c0-1.9,3.7-4.6,5-5.6c1.3-1,3.1-3.3,6-6.7  c0.6-0.7,1.2-1.2,1.8-1.5c-0.8-0.8-5.9-6.3-7-7.9c-1.2-1.7-1.7-3.1-3.7-3.5c-2-0.4-3.6-0.2-5.4-2.4c-1.7-2.2-5.5-4.9-5-6.4  c0.5-1.6,1.8-4.8,0.2-5.3c-1.6-0.5-4-1.4-4,0c0,1.4,0.1,2.7-2.3,1.6c-2.4-1.2-3.3-3.1-4.2-1.3c-1,1.8-0.3,4.9-0.1,6.3  c0,0.2,0,0.3,0,0.5l0,0.2c0,0,0.3,5.8-0.8,6.8c-1.2,1-2.3,3.3-3.9,4.6c-1.6,1.3-6.9,1.7-8.5,1.7c-1.6,0-4.6,1.6-5.4,2.9  c-0.7,1.2-2.6,2.4-3.5,0.9c-0.8-1.4-2.2-1.9-3.2-0.3c-1,1.5-1.5,2.7-2.6,2.7s-1.9,0.8-2.1,1.8c-0.2,0.9-3.1,2-5.1,2.2  c-2,0.2-6.1,2-7.5,3.4c-1.4,1.4-3.8,5.9-5.8,4.1c-2-1.8-3.4-3.7-6.5-3.5c-3.2,0.2-2.6,2-5.6,1.9c-3-0.1-3.8,0.6-3.8,2.2  c0,1.5,0.1,3.2-1.4,3.2s-2.1,1.2-3.3,0.1c-1.2-1.1-1.5-1.1-3.1-1.1c-1.6,0-2.2-0.3-2.7-1.2c-0.5-0.9-0.6-2.7-4.1-1.8  c-3.5,0.9-6.9,5.6-8,4.7s-2.2-3.7-3.6-3.3c-1.4,0.4-2.7,0.3-4.4-0.6c-0.8-0.4-1.9-0.6-3.1-0.8c-1.5,0.4-5.2,1.5-7.2,4.5  c-2.6,3.8-2.1,8.2-6.2,11.5c-4.1,3.3-5.6,4.9-9.2,3.8c-3.6-1.1-6.2,0-4.6,4.4c1.5,4.4,11.8,4.4,8.2,11.5c-3.6,7.1-9.2,9.3-9.2,13.1  c0,3.8,2.5,6,0,6c-2.5,0-2.1-3.4-4.4,4.1c1,1.4-1.3,3.3-2.4,4.1c-1.1,1-1.5,3.4-1.3,5c0.2,1.6-0.8,6.8-0.8,11.5c0,4.7,0.8,4.4,2.1,6  c1.3,1.6,5.7,2.3,6.7,2.3c1,0,3.7,0.8,4.2,2.1c0.5,1.3,3.7,2,6.5,2s1.3,1.5,1.3,1.5s-1,2.6-2.6,4.1c-1.6,1.5-0.3,3.6-0.3,3.6  l0.8,5.2c0,0-1,2.4-2.8,3.6c-1.8,1.1-2,6.3-2,8.1c0,1.8-1.8,5.7-3.6,7.5c-1.8,1.8-2.9,4.7-3.3,6c-0.3,1.3,1.3,2.1,1.3,2.1  s4.4,0.3,5.2-0.3c0.8-0.7,2.4-1.3,4.9-1.3c2.4,0,2.8-1.3,3.4-2.4c0.7-1.1,5.4-0.8,6.2-0.8c0.8,0,1.3,1,1.3,1l0.8,3.3  c0,0,2,2.8-0.2,3.1c-2.1,0.3-11.2,5.4-13,6.2c-1.8,0.8-4.7,5.9-4.6,6.3c0,0.2,0.5,2.8,0.9,5.4c1.1,0,5.2-0.1,5.7-1.3  c0.6-1.4,1.9-1.6,3.3-1.6c1.4,0,3.7,0.1,5.6-0.7c1.9-0.8,6.5,0.9,7.4-2c0.8-3,3.2-2,5.4-4.5c2.2-2.5,2.9-1.4,5.1,0.6  c2.2,1.9,3.2-3.1,3.3-5.5c0.1-2.4,1.9-1.7,3-1.7c1.2,0,2.5-0.1,2.5-1.6c0-1.5,0.6-2.7,4.3-4.5c3.7-1.8,8.1,4,10.2,5.3  c2.1,1.4,6,0.8,8.3-0.1c2.3-0.9,7.6-0.3,8.6-1.6c1-1.2,3.3-1,4-0.6c0.7,0.5,3.7,0.7,7.4,0.3c3.6-0.3,4.2,2.4,5.1,4.1  c0.9,1.7,2.3,2.3,4.4,1c2.1-1.2,0.4-3.6-2.5-5.1c-2.8-1.5,1.2-2.8,1.9-4.8c0.7-1.9-0.9-3-1.2-5.1c-0.2-2.2-0.4-1.4-2.5-3.9  c-2.1-2.5,0-5.1,0.7-6.4c0.7-1.2,1.9-2.5,1.5-3.5c-0.4-1,0.9-1.2,2.2-4.1c1.3-2.8,6.4-3.6,7.5-3.5c1,0.1,6.7,0.7,7.1-2.4  s3.3-5.6,5.1-9.1c1.9-3.5,3.6-2.2,5.5-1.2c1.9,0.9,3.5,0,5.5-2.3c2-2.3,2.3-1.5,3.6-0.5c1.3,1,2.5,0.1,4.3-0.6  c1.9-0.7,2,1.1,2.7,2.4c0.7,1.2,2,2.4,4.1,0.7c2.1-1.7,3.4,0,6,0.6c2.6,0.6,4.4-2.2,3.5-3.9c-0.9-1.7,0.1-2.5,2.3-4.3  c2.2-1.8-1.5-2.4-2.2-3c-0.7-0.6-3.5-4.5-0.6-7.4c2.9-2.8,4.1,0.5,5.7,2c1.6,1.6,3.5-0.6,3.5-1.8c0-1.2,5.5-7.2,7-8.5  c1.1-1,3.6-3.2,5.3-4.6C392.3,333.4,391.1,333.1,388.6,332.1z" stroke-miterlimit="10" stroke="#FFFFFF"/>
</svg>