<?xml version="1.0" encoding="UTF-8" standalone="no"?><!-- Generator: Adobe Illustrator 18.0.0, SVG Export Plug-In . SVG Version: 6.00 Build 0)  --><svg xmlns="http://www.w3.org/2000/svg" xmlns:xlink="http://www.w3.org/1999/xlink" contentScriptType="text/ecmascript" zoomAndPan="magnify" contentStyleType="text/css" id="图层_1" mapName="江苏省" mapType="省市地图" enable-background="new 0 0 800 600" version="1.1" xml:space="preserve" preserveAspectRatio="xMidYMid meet" viewBox="0 0 800 600" x="0px" y="0px">
<path name="宿迁市" fill="#D3D3D3" id="path0" d="M301.5,266.6c8.4,3.6,7.6-3.5,10.4-3.5s8.5,6.9,10.1,5  s-4-7.1,0.8-15.5c0.6-1.1,3.7,0.9,6,2.7c2.6,2.1,3.7,1.3,3.6-1.9c0-1,6,2.2,9.6,2.2c3.1-0.1,3.4-1,5.9-4.3c3.1-4,5.3-1.9,7.4-5.6  c1.1-1.9,0.8-5.5,0.8-5.5s1-5.7,1-8.7c0-3,1.2-5.3,2.7-7c1.5-1.6,0.3-3.3-2.5-6.1c-2.8-2.8-0.6-4.9,2.2-7.7  c2.8-2.8-0.4-9.5-0.4-12.6c0-3.1,1.8-3.1,1.6-4.6c-0.1-1.5-1.3-3,0.1-3.1c1.5-0.1,3.3-3.5,3.9-6.1c0.6-2.6,2.9-3.3,5.2-3.6  s5.5,0.9,9.1,0.9c3.5,0,4-2,4.9-4.6s3.7-6,4.8-7.8c1.1-1.8,5.4-5.4,8-7.5c2-1.6,3.5-4.7,4.1-6c-0.1-1.5,0-3.1,0-3.9  c0-1.5-0.1-2.3-1.7-3.3c-1.6-1.1-1-1.9-0.6-3.5c0.4-1.6,0.2-2.4-1.1-3.7c-1.3-1.4-2.4-0.7-3.2,1.5c-0.8,2.3-1,0.6-2.1-1  c-1.1-1.5-1.9-3.2-3.9-6.6c-2-3.5-1.5-8-1.8-12.5c-0.3-4.4,0.1-4.2,1.2-5.2c1.1-1,1.3-1.8,0.8-2.5c-0.5-0.7-2.6,1.9-4.8,2.2  c-2.2,0.3-3.2,2.1-5.8,3.5c-2.6,1.4-9.3,0.9-12.3,0.4c-3.1-0.5-3.4,3.6-4.5,4.8c-1.1,1.3-2.7,1.1-4.3,0.1c-1.6-1-2.6-0.7-4.6-0.3  c-2,0.4-2.5-1.3-4.9-2.3c-0.6-0.2-0.9-0.5-1.2-0.9c-0.1,0.3-0.5,1.1-0.5,2.4c0,1.6-2.4,3.2-4.2,3.8c-1.8,0.5-3.5-0.8-3.5,0.4  c0,1.2-0.3,3.8-1.6,4.1c-1.3,0.4-1.5,3.1-0.9,4.5c0.6,1.3,0.5,3.8,0.4,6.1c-0.1,2.3-2.4,2.2-4.2,2.9c-1.8,0.7-1.8,3-1.8,5  c0,2-1,1.9-2.2,2.9c-1.2,1-1.9,1.7-3.4,0.7c-1.5-1-4.5-1-6.2-1.7c-1.7-0.7-3.5-0.7-5.6,0.1c-2.2,0.8-6.6,0.4-9.3-0.4  c-2.8-0.8-6.2-2.7-6.8-6.1s-5.8-0.4-7.8-0.1c-2,0.2-2.5,0.9-2.4-0.5c0.1-1.4-1.1-1.9-2.7-2.3c-1.6-0.4-1.2,1.8-1.5,3.2  c-0.3,1.4-3,1.8-4.3,3s-2.7,2.9-1.8,3.8c0.9,0.9,4.1,3.4,5.1,4.7c1,1.2,0.1,5.3-1.2,7.1c-1.3,1.8,3.9,5.4,4.9,6.3c1,1,2,2.1,3.6,2.1  c1.7,0,2.4,0.3,2.4,2.3c0,2,0.2,3.6,1.7,4.5c1.5,0.9,1.9,2.8,2.7,4.1c0.7,1.2-1,11.7-1.3,13.7c0.3,0,0.6,0.1,0.9,0.2  c2.1,0.7-0.9,1.5-2.3,2c-1.4,0.5-0.8,4.8,0,8c0.8,3.2-4.3,6.5-4.8,7.4c-0.5,0.9-0.1,13.4,0,15.8c0.1,2.5-2.8,1.1-4.6,0.3  c-1.8-0.8-2,1-3.8,3.9c-1.7,2.9-1.6,5.3-1.1,8.2c0.5,2.9-2,4.6-4.2,5.4c-2.1,0.8-2,2.3-1.2,4.4c0.9,2.2-2.8,6-3.8,7.6  c-1,1.6,2.2,3.4,3.5,3.7c1.3,0.3,0.6,3.1,0.6,4.6c0,1.4,0.7,2.6,2.4,2.9c1.8,0.3,2.6,1.3,3.4,2.1c0.8,0.8,1.7,0.8,3.7,0.8  c2,0,6-2.6,8.4-2.9c2.4-0.3,1.7-0.8,1.6-2.4c-0.1-1.7,1.7-3.5,3.2-3.5c0.6,0,1.1,0.7,1.5,1.6C298.9,268.1,300,265.9,301.5,266.6z" stroke-miterlimit="10" stroke="#FFFFFF"/>
<path name="淮安市" fill="#D3D3D3" id="path1" d="M448.2,234.8c-1.8-0.5-7.1-0.9-7.9-1.7c-0.8-0.8-6.7-7.2-6.4-8.7  c0.3-1.5-1.2-4-1.8-5.9c-0.7-1.9-1-5.1,0.2-6.4c1.2-1.3,0.1-2.7-0.3-3.5c-0.3-0.8-0.1-4.5,1.3-6.4c1.4-2,1.6-2.4,1.9-4.7  c0.3-2.3,0.7-3.5,2.1-4.8c1.4-1.4,1.8-2.1,2.1-3.8c0.3-1.7,0.7-5.1,3.7-6.6c2.9-1.5,6.7-4.8,6.7-7.5c0-2.7-0.6-0.8-2.2-2  c-1.6-1.2-4-3.7-4.8-6.6c-0.8-2.9-2-4.6-2.5-5.1c-0.1-0.1-0.2-0.2-0.3-0.3c-1.1,0-3.8,2.3-4.9,2.8c-1,0.5-3.7,2.6-4.6,3.7  c-0.9,1.1-2.5,1.2-4.7,0c-2.2-1.3-2.6-3.2-3.9-4.6c-1.3-1.4-4.3-0.4-6.2,0.3c-1.9,0.7-3.4,1.1-4.9,0.1c-1.5-1.1-2.1-0.5-3.7-0.3  c-1.7,0.2-3.7-2.5-5.2-4c-0.7-0.6-0.9-1.7-1-2.9c-0.6,1.3-2.1,4.4-4.1,6c-2.5,2.1-6.9,5.8-8,7.5c-1.1,1.8-3.9,5.2-4.8,7.8  s-1.3,4.6-4.9,4.6c-3.5,0-6.8-1.1-9.1-0.9s-4.7,1-5.2,3.6c-0.6,2.6-2.4,5.9-3.9,6.1c-1.5,0.1-0.3,1.6-0.1,3.1  c0.1,1.5-1.6,1.5-1.6,4.6c0,3.1,3.3,9.8,0.4,12.6c-2.8,2.8-5,4.9-2.2,7.7c2.8,2.8,4,4.4,2.5,6.1c-1.5,1.6-2.7,4-2.7,7  c0,3-1,8.7-1,8.7s0.2,3.6-0.8,5.5c-2.1,3.7-4.3,1.6-7.4,5.6c-2.5,3.2-2.8,4.2-5.9,4.3c-3.6,0.1-9.6-3.1-9.6-2.2  c0.1,3.2-1,3.9-3.6,1.9c-2.3-1.8-5.4-3.9-6-2.7c-4.7,8.4,0.9,13.7-0.8,15.5s-7.4-5-10.1-5s-2,7.1-10.4,3.5c-1.6-0.7-2.6,1.6-4.2,2.7  c0.7,1.5,1,3.8,0.8,4.9c-0.3,1.9,1.6,1,0.8,4c-0.8,3,0.3,7.3,1.1,8.3c0.8,1,0.9,8.7,1.3,10.5c0.4,1.7,3.7,1.6,5,3  c1.4,1.4-4.7,3.2-6,3.5c-1.4,0.3-0.8,3.9-0.7,5.9c0.1,2.1,2.7,3.9,4.5,4.2c1.8,0.4,1.5,4.6,1.9,6.8s-0.4,3.2,1.2,3.8  c1.5,0.5,3,1,4.2,1.7s1.2,4.3,2.5,5c1.4,0.7,3.7-1.5,5.2-1.9c1.5-0.4,2.1-1.4,3.2-2.1c1.2-0.6,1.4,2.2,2.8,2.7  c1.4,0.5,8.6-0.4,10.3-0.5c1.6-0.1,2.5-1.9,4.1-2.3c1.6-0.4,3.6,1,5,2.2c1.4,1.2,5.9,2.5,6.8,2.1c1-0.5,0.5-13.2,0.9-16.1  c0.5-3,5.6-1.6,6.8-1.8c1.2-0.2,1.2-4.5,1.2-5.9c0-1.3,4.5-7.1,6-7.6c1.5-0.6,2.6-0.1,2.6,1.7c0.1,1.9,5.2,1,6.4,0.6  c1.2-0.4,4.1-0.3,6.2-0.1c2.1,0.2,0.2,3.1,0.2,4.2c0,1.2,4.1,3.2,5.3,5.4c0.9,1.7,2.7,3.3,4.1,4.7c1.9-0.9,5.7-4.9,6-6.2  c0.4-1.4,3.4,1.8,4.8,1.9c1.4,0.1,2.3-3.1,2.6,0c0.3,3.1,5.2,1.2,6.6,1.1c1.4-0.1,1.1-3.4,0.9-4.4c-0.1-1-2.9,1.9-3.9,2.4  c-1.1,0.5,1.1-1.7,1.5-3.2s-1.2-3.9,0.4-3.6c1.6,0.3,3.1-4.8,3.8-5.3c0.7-0.6,3.3-3.8,3.3-3.8s4.2-3.5,2.5-6c-1.7-2.5-1-3.9-2.5-5.6  c-1.5-1.7-1-7.1-3.9-7.3s-6.2-2.2-6.2-3.3c0-1.1-1.6-5.6-2.4-5.7c-0.8-0.1-6.9-0.1-6.9-2.3c0-2.2-2.1-7.3,3.3-8.4  c5.5-1.1,6.4-2.6,7.4-2.4c1.1,0.2,0.8-1.7,0.3-2.9c-0.5-1.1-3.6-3.6-2.7-4.3c0.9-0.7,5.8,0,9.1,0c3.3,0,11-0.7,12.8,0  c1.9,0.6,2.1-0.3,3.3-1.3c1.2-1.1,4.5-2.9,6-2.6c1.5,0.3,2.6,0.5,3.2,1.3c0,0.1,0.2,0.1,0.3,0.2v0c0.7-0.1,1.7-2,3.3-2  c1.9,0,3.7-2.3,5.1-3.7C450.7,237.3,450,235.4,448.2,234.8z" stroke-miterlimit="10" stroke="#FFFFFF"/>
<path name="扬州市" fill="#D3D3D3" id="path2" d="M457.5,381.9c1.1-1.6,6-4.4,7.5-4.1c1.5,0.4,3.4,1.6,4.3-0.8  c0.9-2.4,4.1-7.7,2.4-9.2c-1.7-1.6-3.5-2.3-3.7-5.9s-3.8-8.3-2.2-9c1.6-0.7,3.5,0.8,4.3-0.3s0.3-3.1-1.4-4.7c-1.8-1.6-1-2.4-0.9-4.8  c0.1-2.3-0.3-5.8,2.2-4.9c2.5,0.9,7.6,3.8,9.9,3.8c2.2,0,1.2-3,0.2-4.7c-1-1.7-6.4-3.6-6.4-6c0-2.4,0.2-2.8-0.8-3.9  c-1-1.1-2.8-3.1-2.7-4.7c0.1-1.6,1.6-3.7,0.1-4.1c-1.4-0.4-4.7-0.2-4.3-2.8c0.3-2.6,1-4.7,1-6.7c0-2,1-5.5-1.6-4.3  c-2.5,1.2-4.1,2.2-5.1-0.4c-1-2.7-2.8-7.5-2.1-10.2c0.7-2.7,0.9-6.1-2.1-8.2c-3-2.1-4.9-6-4.9-8.5c0-2.6-0.1-5.9,0.9-8.3  c1-2.3,2.8-6,4.7-6.8c-0.6-0.5-1.2-0.9-1.2-1.4c-0.3-1.4,1.1-3.9,1.7-5.2c0.5-1.3-1.8-1-4.3-0.8c-2.6,0.2-1.9,0.4-2.5-1.3  c-0.6-1.8-2.8-3.8-3.5-5.3c-0.7-1.5-1.3-2.2-4-2.7c-2.3-0.5-2-1.3-2-1.3v-0.1c-0.1,0-0.3-0.1-0.3-0.2c-0.6-0.8-1.7-1.1-3.2-1.3  c-1.5-0.3-4.8,1.5-6,2.6c-1.2,1.1-1.4,2-3.3,1.3c-1.9-0.6-9.5,0-12.8,0c-3.3,0-8.2-0.7-9.1,0c-0.9,0.7,2.2,3.2,2.7,4.3  c0.5,1.1,0.7,3.1-0.3,2.9c-1.1-0.2-2,1.2-7.4,2.4c-5.5,1.1-3.3,6.2-3.3,8.4c0,2.2,6,2.2,6.9,2.3c0.8,0.1,2.4,4.7,2.4,5.7  c0,1.1,3.3,3.1,6.2,3.3s2.5,5.6,3.9,7.3c1.5,1.7,0.8,3.1,2.5,5.6c1.7,2.5-2.5,6-2.5,6s-2.6,3.2-3.3,3.8c-0.7,0.6-2.2,5.6-3.8,5.3  c-1.6-0.3,0,2.1-0.4,3.6s-2.5,3.7-1.5,3.2c1.1-0.5,3.8-3.4,3.9-2.4c0.1,1,0.5,4.3-0.9,4.4c-1.4,0.1-6.3,2-6.6-1.1  c-0.3-3.1-1.2,0.1-2.6,0c-1.4-0.1-4.4-3.3-4.8-1.9c-0.3,1.2-4.1,5.2-6,6.2c0.5,0.5,0.9,0.9,1.2,1.3c1.2,1.5,3.2,0.6,3.3-1.7  c0.2-2.2,2.6-1,6.1-1.4c3.5-0.4,2.5,2.3,2.6,4c0.1,1.7,0.3,11.6-0.9,14c-1.2,2.4,1,7.1,1.7,9c0.7,1.9-1.3,4.4-3.7,5.1  c-2.4,0.7-2,1-2,3.4c0,2.4-1.3,5-1.9,6.2c-0.7,1.2-5.6,5.3-6.5,5.4c-0.9,0.1-1.9,0.4-2.6,2.9c-0.3,1-0.8,0.6-1.3-0.4  c-1.8-0.5-7-1.7-6.4-0.1c0.7,1.9,1,4,1,5.9c0,1.9,3,3.6,2.8,5.9c-0.1,2.4-3.7,6.1-1.9,8.3c1.8,2.2,3.3,5.8,5.6,6.5  c2.4,0.7,4.3,0.7,6.7-0.3c2.4-1,6.8-2.5,8.7-1.6c0.4,0.2,0.7,0.5,1,0.9c1-0.4,6-2.2,9.6-0.1c4,2.4,5.9,0.4,7.6-0.6  c1.8-1,6.4-2.7,8.6-3.3s7.3,2.4,8.9,1.7c1.6-0.7,3.8-1.3,5.2-0.9c1.4,0.4,3.7-0.8,3.2,2c-0.5,2.8-0.4,3.8,1.1,1.8  c1.6-1.9-0.6-1.4,0.7-2.5c1.2-1,2.4-2,4-2.7l0,0c0.2-0.1,0.3-0.2,0.4-0.2C455.9,384.5,456.3,383.5,457.5,381.9z" stroke-miterlimit="10" stroke="#FFFFFF"/>
<path name="泰州市" fill="#D3D3D3" id="path3" d="M537.3,403.5c-2.2-1.7-3.8-1.7-5.4-0.8c-1.6,0.9-4.1,0.1-5.9-0.2  c-1.8-0.3-1-4.4-0.7-6.2c0.3-1.9,0.4-6.2-0.1-8c-0.6-1.8-0.2-4.5,0-7.1c0.2-2.7,0.2-5.8-0.3-8.5c-0.6-2.7-2.8-2.3-3.9-2.3  s-4.2,0.4-2.9-1.5c1.3-1.9-1.6-9.5-2.3-11.7c-0.8-2.2,0.4-2.6,1.2-4c0.8-1.5-0.4-6.2-1.2-7.9c-0.8-1.7-1.3-2.2-2.5-1.8  c-1.1,0.4-2.6-0.4-2.6-0.4l-0.3-0.1c0,0,0,0,0,0c-0.8-0.3-2-3-2.6-4.7c-0.9-2.5-4.3,1.6-6.3,1.7c-2,0.1-0.8-3.4-1.1-5.1  c-0.3-1.7,4.7-6,6-7.9s5.2-4.4,5.6-6.1c0.4-1.7-1.5-2.2-4.4-1c-2.9,1.1-2.7,0.8-3.8-0.9c-1.1-1.7,5.2-4.8,6.5-6.7  c1.3-1.8-1.3-3.8-2.7-5c-1.4-1.2-1.4-3.4-0.7-4.4c0.7-0.9,2.2,0.6,4.1,0.5c1.9-0.2,3.4-1.8,5.5-2.5c2.1-0.7,1.8-2.7,2.4-5.2  c0.6-2.5,0.6-7.6,0.6-8.9c0-1.3-0.2-2.8-1.5-3.7c-1.3-0.9-0.7-4-0.7-5.7c0-1.7-0.4-1.9-1.9-1.9s-7.7-0.8-14.4-3.5  c-6.7-2.7-8.3-1-10.8-0.3c-2.5,0.7-3,1.1-5.4,1c-2.4-0.1-7.2,1.1-9.3,1.1c-2.1,0-4.2-0.4-6.5,0.4c-2.3,0.8-2.5,0.6-4.7,0.2  c-2.1-0.4-2.2-3.1-3.6-5.1c-1.4-2-0.2-0.9-0.6-3.2c-0.2-1.5-2.1-2.6-3.4-3.5c-1.9,0.8-3.7,4.5-4.7,6.8c-1,2.4-0.9,5.8-0.9,8.3  c0,2.6,1.9,6.4,4.9,8.5c3,2.1,2.8,5.5,2.1,8.2c-0.7,2.7,1.1,7.5,2.1,10.2c1,2.7,2.5,1.7,5.1,0.4c2.5-1.2,1.6,2.3,1.6,4.3  c0,2-0.7,4.1-1,6.7c-0.3,2.6,2.9,2.3,4.3,2.8c1.4,0.4,0,2.6-0.1,4.1c-0.1,1.6,1.7,3.6,2.7,4.7c1,1.1,0.8,1.4,0.8,3.9  c0,2.4,5.4,4.3,6.4,6c1,1.7,2,4.7-0.2,4.7c-2.2,0-7.3-2.9-9.9-3.8c-2.5-0.9-2.1,2.6-2.2,4.9c-0.1,2.3-0.9,3.2,0.9,4.8  c1.8,1.6,2.2,3.6,1.4,4.7s-2.8-0.3-4.3,0.3c-1.6,0.7,2.1,5.4,2.2,9s2,4.3,3.7,5.9c1.7,1.6-1.5,6.9-2.4,9.2c-0.9,2.4-2.8,1.1-4.3,0.8  c-1.5-0.4-6.3,2.5-7.5,4.1c-1.1,1.6-1.6,2.6-3.4,3.2c-0.1,0-0.2,0.1-0.4,0.2l0.1,0.1c1.4,1.2,3,2.9,4.2,3.1c1.4,0.2,4.8,4.3,6.6,4.6  c1.8,0.3,3.1,0.9,1.9,2.4c-1.2,1.5-1.7,5.7-1.7,7.7c0,2,2.6,3,4.3,3.1c1.7,0.1,4,1.9,5.7,3.5c0.6,0.5,1,0.9,1.4,1.2  c3,0,5.6,0.1,6.3,0.8c1.5,1.5,2.3,5.7,4.4,7.9c1.4,1.5,1.9,2.6,1.7,3.6c-0.1,0.4-0.2,0.7-0.4,1.1c2.2,1.4,4.9,2.6,7.6,2.8  c3.5,0.3,6,1.7,8.2,3.5s3.1-0.6,4.5-1.5c1.5-0.8,3.6-0.5,5.8-1.5c1.9-0.8,2.5-1.5,3.5-2.1c0.1-0.1,0.2-0.2,0.2-0.3  c1.7-1.8,7.6-5.8,8.9-7.7c1.7-2.4,10.5-7.3,13.5-8.8c1.6-0.8,2.8-1.2,3.9-1.3C543.6,405.7,539.5,405.1,537.3,403.5z" stroke-miterlimit="10" stroke="#FFFFFF"/>
<path name="徐州市" fill="#D3D3D3" id="path4" d="M295.3,185.4c-0.8-1.3-1.2-3.2-2.7-4.1c-1.5-1-1.7-2.5-1.7-4.5  c0-2-0.7-2.3-2.4-2.3c-1.7,0-2.6-1.2-3.6-2.1c-1-0.9-6.2-4.5-4.9-6.3c1.3-1.8,2.2-5.9,1.2-7.1c-1-1.2-4.2-3.8-5.1-4.7  c-0.9-0.9,0.5-2.6,1.8-3.8s4-1.6,4.3-3c0.3-1.4-0.1-3.6,1.5-3.2c1.6,0.4,2.8,0.9,2.7,2.3c-0.1,1.4,0.4,0.7,2.4,0.5  c2-0.2,7.2-3.3,7.8,0.1s4,5.3,6.8,6.1c2.8,0.8,7.2,1.2,9.3,0.4c2.2-0.8,3.9-0.8,5.6-0.1c1.7,0.7,4.7,0.7,6.2,1.7  c1.5,1,2.2,0.3,3.4-0.7c1.2-1,2.2-1,2.2-2.9c0-2,0-4.3,1.8-5c1.8-0.7,4.1-0.6,4.2-2.9c0.1-2.3,0.2-4.8-0.4-6.1  c-0.6-1.3-0.4-4.1,0.9-4.5c1.3-0.4,1.6-3,1.6-4.1c0-1.2,1.7,0.2,3.5-0.4c1.8-0.5,4.2-2.2,4.2-3.8c0-1.3,0.3-2.1,0.5-2.4  c-0.8-1.1-0.2-2.7,0.1-4.2c0.4-2,0.6-2.4-1-4.7c-1.6-2.3-4.1-1.8-5.8-0.5c-1.7,1.3-3.1,0.6-4.4-0.8c-1.3-1.4-3.3-1.4-4.9,0.1  c-1.6,1.5-3.2,1.4-5.2,2.2c-1.5,0.6-4.5-1-5.7-1.7c-1.9,2.6-6.4,1.9-9.7,1.6c-3.9-0.3-10.2,4.2-12.2,5c-2,0.8-4.2-0.8-3.6-4.4  c0.6-3.6-0.5-6.3-2.6-7.8c-2.1-1.5-1.2-2.8-0.1-3.4s3.7-3.1,4.2-4.8c0.5-1.7-4.9-0.7-7.3-0.6c-2.4,0.1-1.7-3.7-0.3-6.4  c1.4-2.8-0.6-3.2-2.3-5.6c-1.7-2.5-4.2-0.9-7-0.9c-2.9,0-5.3-0.6-6.1-1.4c-0.8-0.8-2.3-1.8-3.9-1.8c-1.6,0-1.3,1.2-1.4,2.4  c-0.1,1.2-2.9,1.3-4,0.9c-1.1-0.4-1.8-0.2-4.3,0.3c-2.4,0.5-2.7,5.1-2.4,6.7c0.2,1.5,0.2,5.8-0.3,7.3c-0.6,1.5-1.8,2.4-2.1,1.4  c-0.4-1-0.8-0.5-2.7-1.6s-4.3-1.2-6-0.6c-1.7,0.6-4.5,4-5.4,5c-0.8,1-5.3,3.9-9.1,4.8c-3.8,0.8-9.4-2.7-10.1-4  c-0.7-1.2-2.7-3.8-4.5-4.3c-1.8-0.5-3.4-4.4-3.8-6s-2.3-1.6-2.9-0.6c-0.5,1-3.4,1.3-4.6,1.3c-1.2,0-1.2,0.6-0.7,1.4  c0.5,0.8,0,2.2-1,2.9c-1,0.6-1.1,1.4-1.1,3c0,1.5-2.4,5.3-5.5,8.4c-3.1,3.1-6.6-2.8-6.8-4.9c-0.2-2.1-1.5-13.9-1.9-14.9  c-0.4-1.1-0.4-4.1-2.5-3.8s-3.7-1.2-4.7-2.3c-1-1.1-1-7.2,1.1-7.5c2.1-0.3-0.9-6.6-4.5-9.6c-3.6-2.9-5.1-7.2-6.3-8.9  s-8.2-6.6-10.1-7.8c-1.9-1.2-5.2-2.9-7.2-2c-2,0.9-9.5,0.2-14-0.3c-4.5-0.6-5.8-0.1-8.3,1.3c-2.5,1.4-10.9,1.8-12.6,1.8  c-1.7,0-4.1,6-4.9,7.2c-0.8,1.2-1.4,1.8-1.7,4.9c-0.2,3.1-2.5,5.9-3.2,6.1c-0.7,0.2-1.5,2.3-0.7,3.6c0.9,1.3,0,4.9,0.3,8  c0.3,3.1,3,1.6,3.3,1.7c0.3,0,1.9,0.3,2.8,2.5c0.9,2.2,2.4,1.8,3.4,2.3c0.9,0.6,1.9,1.8,2.1,3.9c0.2,2.1,1.3,3.1,2.6,3.5  c1.3,0.4,5.5,4.5,6.8,5.2c1.3,0.7,1.8,1.5,0.7,1.5c-1,0-1.8,0.6-3.1,1.5c-1.3,0.9-0.7,2.1-0.1,1c0.7-1.1,3.2-2.3,5.4-1.1  c2.2,1.2,10.7,1.6,13.6,1.9c2.9,0.3,3.5,5.3,4.7,6.5c1.2,1.2,2.6,4.1,4.2,4.3c1.6,0.3,6.7-0.5,10.2-0.6c3.5-0.1,4.2,2.9,4.3,4.5  c0.1,1.6,0.3,7.7,0.3,9.4c0,1.6,4,5.3,6.1,6.8c2.1,1.5-0.4,5.2-1.5,7.1c-1.1,1.9,1.5,2.7,3.4,3.5s6.1,3.7,7,4.7  c0.9,0.9,0.9,2.8,6.4,5.9c5.5,3.1,12.6,0,14.4-1c1.8-1,4.1-1,4.3,0.5c0.3,1.5,1.7,4.9,3.4,5.9c1.8,1.1,4.1,0.8,5.8,0.8  c1.8,0,4.6-2.5,6.4-3.1c1.8-0.6,1.9,3.6,2.8,5.3c0.9,1.7,1.3,2.3,3.3,2.8c1.9,0.5,2.3-0.8,4.1-3.2c1.8-2.4,2.8,0.7,3.4,1.6  c0.5,0.9,1.4,1.8,0.8,3.6c-0.6,1.9,0.9,4.6,2.4,5.7c1.5,1.1,1.8,2.5,2,4.3c0.1,1.9,3.1,0.9,4.6,0c1.4-0.9,0.8,7.3,0.5,9.9  c-0.3,2.6-0.2,5.8,0,8.3c0.2,2.5,1.4,3.3,2.4,3c1-0.2,1.1-1.1,3.2-1.1s10.5,0.6,13.2,0.4c2.7-0.2,4-3,4.5-3.7c0.5-0.7,3.3,1.3,5,1.6  c1.7,0.3,2.7,0,3.6-1c0.9-1,5.7-1.8,7.8-0.4c1.8,1.2,3.3,0.8,5,1.1C294.3,197.1,296,186.6,295.3,185.4z" stroke-miterlimit="10" stroke="#FFFFFF"/>
<path name="连云港市" fill="#D3D3D3" id="path5" d="M325.1,114.6c2-0.7,3.6-0.6,5.2-2.2c1.6-1.5,3.7-1.5,4.9-0.1  c1.3,1.4,2.7,2.1,4.4,0.8c1.7-1.3,4.2-1.8,5.8,0.5c1.6,2.3,1.3,2.8,1,4.7c-0.4,2-1.3,4.1,1.1,5.1c2.4,1,3,2.8,4.9,2.3  c2-0.4,3-0.7,4.6,0.3c1.6,1,3.2,1.2,4.3-0.1c1.1-1.3,1.4-5.3,4.5-4.8c3.1,0.5,9.7,1,12.3-0.4c2.6-1.4,3.6-3.3,5.8-3.5  c2.2-0.3,4.3-2.9,4.8-2.2c0.5,0.7,0.3,1.5-0.8,2.5c-1.1,1-1.5,0.8-1.2,5.2c0.3,4.4-0.3,9,1.8,12.5c2,3.5,2.8,5.1,3.9,6.6  c1.1,1.5,1.3,3.3,2.1,1c0.8-2.3,1.9-2.9,3.2-1.5c1.3,1.4,1.5,2.1,1.1,3.7c-0.4,1.6-1.1,2.5,0.6,3.5c1.6,1.1,1.7,1.9,1.7,3.3  c0,1.5-0.5,5.3,1,6.8c1.5,1.5,3.6,4.2,5.2,4c1.7-0.2,2.2-0.8,3.7,0.3c1.5,1.1,3,0.7,4.9-0.1c1.9-0.7,4.8-1.7,6.2-0.3  c1.3,1.4,1.7,3.4,3.9,4.6c2.2,1.3,3.8,1.2,4.7,0c0.9-1.1,3.5-3.2,4.6-3.7c1-0.5,3.8-2.8,4.9-2.8c-0.5-0.4-0.8-0.9,0.1-1.5  c1.2-0.8,5.2-1.7,5.2-3.2c0-1.6-1.2-2.5-2.9-2.2c-1.7,0.3-2.5-2.4-3.7-1.5c-1.1,0.8-3.7-0.9-3-2.1c0.7-1.2,3-3.1,1.3-3.3  s-5.2-1.4-3.6-3.3c1.6-1.8,4.6-5,6.7-4.9c2.1,0.1,1.7,0.6,3.1-1c1.3-1.6,4.7-3.1,6.6-4c1.9-0.9,4.8-2.6,5.5-4.2  c0.7-1.6,4.6-3.5,4.4-5.2c-0.2-1.7,1.1-2.8,1.8-3.4c0.7-0.6,4.3-3,3.5-4.3c-0.8-1.3-1.2-8.5-0.3-10.5c-0.1-0.4-0.1-1.1,0.4-2.1  c1.2-2.6-4-5.4-6.6-6.3c-2.6-0.9-2.2-0.6-3,0.1c-0.8,0.7-1.9,2.1-3.5,2.4c-1.6,0.3-5,3.7-6.1,4.7c-1.1,1-2.9,0.5-4.4,0  s-4.1-1.3-1.9-1.3c2.3,0,5.5-1,7.9-2.4c2.5-1.4,2.2-4.1,2.5-6.6c0.2-2.6-3.7-3.4-5.4-3.5c-1.7-0.1-4.2-1.8-5.7-3.6  c-1.5-1.9-4.9-4.4-6.6-5.1c-1.8-0.6-0.6-1.8,0.1-3.3c0.7-1.6,1.4-2,0.3-4.2c-1.1-2.1-4.6-2.2-6.7-1.9c-2,0.3-4.3-2.1-5.9-3.1  c-1.6-0.9-2.1,1.8-3.9,3.5c-1.8,1.8-4.9-0.4-5.9-2c-1-1.7-2.7-1.6-3.9-0.5c-1.2,1.1-1-0.9-1-2.9c0-1.9-0.9-3.9-2.3-5  c-1.4-1.1-0.6-6.7,0.9-9.4c1.5-2.7,1.6-4.7,1.1-8.5c-0.5-3.9,0.8-4.3,1.5-9.2c0.8-4.9,3.8-5.2,5.3-5.5c1.5-0.3-0.9-2.3-3.5-4.4  s-1.9,1.2-3.3,1.2c-1.4,0-3,0.3-4.6,2.1c-1.6,1.8-7.1,5.7-8.1,7.7c-1,1.9-6,0.4-9,0.5c-2.9,0.1-7.6,1.6-9.5-0.2  c-1.9-1.8-3.1-0.3-6.4,2.5c-3.2,2.8-1.7,6.2-1.6,8.2c0.1,2-5.6,11.3-7.1,12.2c-1.5,0.9-2,1.4-2,2.8c0,1.4-1.1,4.6-1.9,5.1  c-0.8,0.5-2.4,1.4-2.8,3c-0.3,1.6,4.1,3.6,5.2,4.3c1.2,0.8-4.4,5.2-6.1,6.1c-1.7,0.9-7-0.6-11.5-3.2c-4.5-2.6-8.7,1.7-11.4,3.6  c-2.7,1.9-2.4,2.5-3,5.2c-0.5,2.7-0.5,3.2-2.4,2.6c-2-0.6-2.3,0.8-2.3,3.3c0,2.6-0.5,4.8,0.8,7.1c1.2,2.3-0.3,6-1.2,11  c-0.2,0.8-0.4,1.5-0.8,2C320.7,113.6,323.6,115.1,325.1,114.6z" stroke-miterlimit="10" stroke="#FFFFFF"/>
<path name="盐城市" fill="#D3D3D3" id="path6" d="M584.2,326.2c-0.1-3.7-0.1-3.2-1.5-3.1c-1.4,0.1-3.3-1.9-4.7-2.8  c-1.4-0.9-2.1-2.2-0.4-2.7c1.7-0.5,1.1-1.8,0.5-2.5c-0.6-0.7,0-1.4,1.1-0.7c1.1,0.6,2-0.3,3.8-1.1c1.9-0.8-0.1-4.2,0.2-5.7  c0.3-1.6,0.4-2-1-3.3c-1.5-1.4-0.6-2-1-4.9c-0.4-2.9,0-5.9,0-8.1c0-2.2-0.6-2.3-1.9-3.9c-1.2-1.7-2.6-1.4-4.3-0.1  c-1.7,1.2-2-0.9-3.1-1.4c-1.1-0.4-0.7-0.8-0.7-2.7s-0.9-3.6-2.1-5.2c-1.1-1.6-1.7-1.6-1.9-3.4c-0.2-1.9-1.4-4.1-2.8-5.2  c-1.5-1.1-1.4-1.7,1.2-2.2c2.6-0.5,1.2-3.9,0-7.4c-1.2-3.4-3.7-2.9-5.8-3.3c-2.1-0.4-4.7-7.9-4.9-10.2c-0.2-2.3-0.1-2.2-2.3-4.2  c-2.2-2-1.1-7.8-0.9-9.7c0.2-1.9,0-2.5-0.8-2.6c-0.8-0.1-2.1,0.8-0.6-1.2c1.5-2.1-0.2-6.2-1.8-6.9c-1.6-0.6-1.6-2-1.6-3.7  c0-1.8-2.6-6-4.1-7.6c-1.5-1.6-0.9-2.3,0.6-3.7c1.6-1.5-0.1-4.4-0.1-7.2s-0.8-2.3-3.2-2.3c-2.4,0-1.8-1.9-1-4.1  c0.7-2.2-0.1-2.1-1.8-2.1c-1.7,0-0.8-0.7-1.6-2s1.1-1.7,1.7-2.8c0.5-1.1-2.9-9-3.9-9.3c-1-0.2-2-0.2-1.6-3.1c0.4-2.9-1.7-6-3-7.8  c-1.4-1.8-1.9-5.3-3.1-6.4c-1.2-1.1-1.5-5.9-2.7-8.1s-1.5-4.7-1.5-7.4c0-2.7-2.9-7.2-3.7-8.9c-0.8-1.8-0.3-5.2-0.3-7  c0-1.8-0.5-2.2-2.4-3.4c-1.9-1.2-2.5-0.7-4-1.9c-1.5-1.3-10.6-5.1-12.5-5.5c-1.9-0.4-4.4-3.6-5.6-4.5c-1.2-0.9-5.6-4.3-7-4.3  s-3.1-0.2-4.2-1c-1.1-0.8-4.6-1.4-6.6-1.4c-1.9,0-3.5-0.1-4.8-0.6c-1.3-0.5-2.8-0.8-4.1,0.3c-0.8,0.7-1.6,0.7-1.9,0.1  c-0.9,2-0.5,9.2,0.3,10.5c0.8,1.4-2.8,3.7-3.5,4.3c-0.7,0.6-2,1.6-1.8,3.4c0.2,1.7-3.7,3.6-4.4,5.2c-0.7,1.6-3.6,3.3-5.5,4.2  c-1.9,0.9-5.3,2.4-6.6,4c-1.3,1.6-0.9,1.1-3.1,1c-2.1-0.1-5.1,3.1-6.7,4.9c-1.6,1.8,1.9,3.1,3.6,3.3s-0.6,2-1.3,3.3  c-0.7,1.2,1.8,3,3,2.1c1.1-0.8,1.9,1.9,3.7,1.5c1.7-0.3,2.9,0.6,2.9,2.2c0,1.6-4,2.4-5.2,3.2c-1.2,0.8-0.3,1.3,0.2,1.9  c0.5,0.5,1.7,2.2,2.5,5.1c0.8,2.9,3.2,5.5,4.8,6.6c1.6,1.2,2.2-0.7,2.2,2c0,2.7-3.8,6.1-6.7,7.5c-2.9,1.5-3.3,4.9-3.7,6.6  c-0.3,1.7-0.7,2.4-2.1,3.8c-1.4,1.4-1.8,2.5-2.1,4.8c-0.3,2.3-0.5,2.7-1.9,4.7c-1.4,2-1.6,5.6-1.3,6.4c0.3,0.8,1.4,2.2,0.3,3.5  c-1.2,1.3-0.8,4.5-0.2,6.4c0.7,1.9,2.1,4.4,1.8,5.9c-0.3,1.5,5.6,7.9,6.4,8.7c0.8,0.8,6.2,1.2,7.9,1.7c1.8,0.5,2.5,2.5,1.2,3.8  c-1.3,1.3-3.2,3.7-5.1,3.7c-1.6,0-2.7,2-3.3,2v0.1c0,0-0.3,0.8,2,1.3c2.6,0.5,3.3,1.2,4,2.7c0.7,1.5,2.9,3.5,3.5,5.3  c0.6,1.8-0.1,1.5,2.5,1.3c2.6-0.2,4.9-0.5,4.3,0.8c-0.5,1.3-1.9,3.8-1.7,5.2c0.3,1.4,4.3,2.6,4.7,4.9c0.4,2.3-0.8,1.1,0.6,3.2  c1.4,2,1.4,4.8,3.6,5.1c2.1,0.4,2.4,0.5,4.7-0.2c2.3-0.8,4.4-0.4,6.5-0.4c2.1,0,6.9-1.2,9.3-1.1c2.4,0.1,2.9-0.2,5.4-1  c2.5-0.7,4.1-2.4,10.8,0.3c6.7,2.7,13,3.5,14.4,3.5s1.9,0.2,1.9,1.9c0,1.7-0.7,4.8,0.7,5.7c1.3,0.9,1.5,2.4,1.5,3.7  c0,1.3,0.1,6.4-0.6,8.9c-0.6,2.5-0.3,4.5-2.4,5.2c-2.1,0.7-3.6,2.3-5.5,2.5c-1.9,0.2-3.4-1.4-4.1-0.5c-0.7,0.9-0.7,3.2,0.7,4.4  c1.4,1.2,4,3.1,2.7,5c-1.3,1.8-7.7,4.9-6.5,6.7c1.1,1.7,0.9,2,3.8,0.9c2.9-1.1,4.8-0.7,4.4,1c-0.4,1.7-4.3,4.3-5.6,6.1  s-6.3,6.1-6,7.9c0.3,1.7-0.9,5.2,1.1,5.1c2-0.1,5.4-4.2,6.3-1.7c0.6,1.7,1.8,4.4,2.6,4.7c0.1-0.1,0.2-0.3,0.3-0.7  c0.3-2.4-1-7.3,2.1-7.7c3.2-0.4,6.2-3.4,8.2-4.7c1.9-1.3,7.2-2.7,7.8-0.9c0.6,1.7-1.3,2.3,1.6,3.1c3,0.8,2.8,1.7,3.6,3.6  c0.8,1.8,6.8,3,14,1.8c7.2-1.1,7.3-0.8,7,0.8s-0.9,4.2,0.7,5c1.6,0.8,2,0,3,1.3c1,1.3,1.8,0.2,3.4-1.2c1.6-1.4,0.9-1.2,3.9-0.1  c3,1.1,2.2-0.6,4.9-0.6c2.7,0,4,1.3,4.7,0.1c0.6-1.2,3.6-2.3,5.3-2.5c0.1-0.2,0.4-0.5,0.7-0.8c0.9-0.7-0.9-2.1-2.2-3.1  c-1.2-1,1.2-0.9,3.6,0.6C585.6,338.6,584.4,330,584.2,326.2z" stroke-miterlimit="10" stroke="#FFFFFF"/>
<path fill="#D3D3D3" id="path7" d="M404.5,389.7l0.3,0.1c0-0.1-0.1-0.1-0.1-0.2  C404.6,389.7,404.5,389.7,404.5,389.7z" stroke-miterlimit="10" stroke="#FFFFFF"/>
<path name="镇江市" fill="#D3D3D3" id="path8" d="M474.8,409.7c-1.7-1.6-4-3.4-5.7-3.5c-1.7-0.1-4.3-1.1-4.3-3.1  c0-2,0.5-6.2,1.7-7.7c1.2-1.5-0.1-2.1-1.9-2.4c-1.8-0.3-5.3-4.4-6.6-4.6c-1.2-0.2-2.8-1.9-4.2-3.1l-0.1-0.1c-1.6,0.6-2.7,1.7-4,2.7  c-1.3,1.1,0.9,0.5-0.7,2.5c-1.6,1.9-1.7,1-1.1-1.8c0.5-2.8-1.8-1.6-3.2-2c-1.4-0.4-3.6,0.2-5.2,0.9c-1.6,0.7-6.7-2.2-8.9-1.7  s-6.9,2.3-8.6,3.3c-1.8,1-3.6,3-7.6,0.6c-3.6-2.1-8.5-0.4-9.6,0.1c0,0.1,0.1,0.1,0.1,0.2c1,1.6,1,4.2-1.4,4.3  c-3.1,0.2-8,0.2-9.3,2.7c-1.2,2.5-2.9,4.3-5.1,4.3s-10.9,5.1-6,6.6c4.9,1.4,6.8,3.9,6.4,7.6c-0.4,3.7,3.1,7.4-1,8.6  s-4.1,3.9-1.5,5.3c2.6,1.4,5.5,2.8,4.7,6.4c-0.9,3.6-3.4,3.8-5.8,3.6c-2.4-0.3-2.1,3.4-4.1,3.4c-2,0-6.4-0.9-3.7,1.4  c2.7,2.3,2.7,2.3,1.8,4.3c-0.8,2-0.3,2.4,2.4,1.1c2.7-1.3,3.8-0.7,5.7,1.6c1.8,2.3,4.3,7.8,5.5,4.3c1.3-3.6,3.8-2,6.1-0.6  c1.9,1.2,5.2,6.9,6.1,10.2c2-0.4,9.5-2.5,9.8-8.6c0.4-7,1.1-13.8,1.1-16.3s5.3-8.3,7.1-5.2c1.8,3.1,6.1,7.1,6,4.6  c-0.1-2.5-2.5-6.3,0.1-5.7c2.6,0.5,4.5,4.9,7.2,4.1c2.7-0.8,5.3-3,8.3,0.7c3,3.7,0.2,5,3.4,5.6c3.1,0.5,4.1-2.7,5.1,1.2  c1,3.8,0.9,3.3,3.8,4.1c2.8,0.8,6.9,4.4,6.4,1.8c-0.5-2.5,0.2-4.7,0.7-5.9c0.5-1.2,2.2-5.1,1.4-6.3c-0.8-1.2-3.9-4-3.5-5.5  c0.4-1.5,2.3-7.2,1.7-8.4c-0.6-1.2-1.4-13.4,2.4-13.7c1.9-0.1,5.3-0.4,8.6-0.5c0.4,0,0.7,0,1.1,0  C475.8,410.6,475.3,410.3,474.8,409.7z" stroke-miterlimit="10" stroke="#FFFFFF"/>
<path fill="#D3D3D3" id="path9" d="M518.3,425.3l-0.2,0c-0.1,0.1-0.2,0.2-0.2,0.3  C518,425.5,518.1,425.4,518.3,425.3z" stroke-miterlimit="10" stroke="#FFFFFF"/>
<path name="无锡市" fill="#D3D3D3" id="path10" d="M514.4,427.7c1.9-0.8,2.5-1.5,3.5-2.1c-0.3,0.4-0.3,0.6,0.2,0.6  c2.4,0,7.8-2.4,10.7-2.4c0.3,1.4,1.5,6.7,3.7,7.1c2.4,0.5,6.2-0.6,8.2,3.4c2,4,3.8,4.8,3.8,7.7c0,2.9-0.5,1.2,2.4,1.2  c2.9,0,3.9,1.1,4.8,2.9c0.9,1.8,0.7,2.9-0.4,5.1c-1,2.2,0.2,1.9,1.2,2.9c0.9,1.1,1.7,2-0.5,2.8c-2.2,0.8-2.2,3.3-0.3,4.2  c1.9,0.9,3.1,1.6,1.9,3.9c-1.3,2.2-5.8,1.1-6.4,2.3c-0.6,1.3-1.5,4.2,1.2,3.6c2.7-0.6,4.1-1.8,4.9,1.5c0.8,3.3,0.9,5.4-0.9,7.1  s-6.6,5.5-9.1,6.2c-1.9,0.5-7.7,1.7-11.1,3c-1-1.6-3-2.1-5.1-2.1c-2.9,0-3.7,2.2-6.7,4.2c-2.9,2-2.2,0.9-4.9,1.3  c-2.7,0.4-2.6,0-3.5-2c-0.9-2,0.4-2.2,1.6-3.9c1.2-1.8-0.9-7.3-1.2-9.3c-0.3-2-1-1.2-2.6-0.5c-1.6,0.7-6.4,5-7,5.5  c-0.2,0.2-0.3,0.5-0.4,0.8c-0.1-0.4-0.2-0.8-0.2-1.2c-0.4-2.3-2.3-4.1-5.5-6.8c-3.2-2.6,1.3-6.5,2.7-7.6c1.5-1.1,1.7-2.5,1.5-4.1  c-0.3-1.6,1.5-1.8,3.5-2.2c2-0.4,1.3-5,1.1-7.6c-0.2-2.7,1-3.4,2.7-3.4c1.6,0,0.4-2.8-0.7-4.5c-1.1-1.7-0.4-2.7,0.4-6.8  c0.8-4.1-1.5-4.4-2.6-3.1s-9.6,3.9-12.2,4.8c-2.6,0.9-3.7,2.6-5.8,2.3s-2.1-3.6-0.4-5.3c1.6-1.6,0.8-4.4,0.8-6.4c0-2-1.1-4.2,0.1-6  c0.1-0.2,0.3-0.4,0.4-0.6c2.2,1.4,4.9,2.6,7.6,2.8c3.5,0.3,6,1.7,8.2,3.5s3.1-0.6,4.5-1.5C510.1,428.3,512.2,428.6,514.4,427.7z   M496.1,491.7c-1,2-2.2,6.2-0.8,6.3c1.4,0.1,1.5,1.5,2.4-0.9c0.9-2.4,1-3.4,2.6-2.5c1.6,0.9,2.8,0,2.8-1.5c0-1.5-0.9-2.8-1-4  c-0.1-1.2,0.8-2,0.3-3.5c0,0,0,0,0,0c-0.1,0.9-0.4,1.8-1.3,2.3c-2.2,1.2-3.2,0.9-4.3,0c-0.2-0.2-0.6-0.6-0.9-1  C496.6,488.4,496.8,490.3,496.1,491.7z" stroke-miterlimit="10" stroke="#FFFFFF"/>
<path name="苏州市" fill="#D3D3D3" id="path11" d="M629.5,479.8c-1.8-0.6-2-5.4-4.4-8.5c-2.4-3.1-9-12.1-11.5-12.1  c-2.6,0-6-4.1-7.8-5.3c-1.8-1.1-5.3,0-7.1-3.1c-1.8-3.1-2.5,0.5-5.8-2.1c-3.3-2.5-3.6-0.2-7.6,0.4c-4,0.5-10.4-4.9-14-7.8  c-3.6-2.9-0.9-1.5,3.5-2c4.4-0.5-3.5-13.8-5.5-16c-2-2.2-1.1-1.5,0.7-2.7c1.8-1.3-2-0.5-3.3-1.6c-1.3-1.1-13.1-0.5-18,0.2  s-4.4-1.6-8.7-2.2c-4.4-0.5-2.9,1.1-3.8,3.8c-0.9,2.7-4.4,3.3-7.3,3.3c0,0,0,0,0,0c0.3,1.4,1.5,6.7,3.7,7.1c2.4,0.5,6.2-0.6,8.2,3.4  c2,4,3.8,4.8,3.8,7.7c0,2.9-0.5,1.2,2.4,1.2c2.9,0,3.9,1.1,4.8,2.9c0.9,1.8,0.7,2.9-0.4,5.1c-1,2.2,0.2,1.9,1.2,2.9  c0.9,1.1,1.7,2-0.5,2.8c-2.2,0.8-2.2,3.3-0.3,4.2c1.9,0.9,3.1,1.6,1.9,3.9c-1.3,2.2-5.8,1.1-6.4,2.3c-0.6,1.3-1.5,4.2,1.2,3.6  c2.7-0.6,4.1-1.8,4.9,1.5c0.8,3.3,0.9,5.4-0.9,7.1s-6.6,5.5-9.1,6.2c-1.9,0.5-7.7,1.7-11.1,3c0,0,0,0,0,0c-1-1.6-3-2.1-5.1-2.1  c-2.9,0-3.7,2.2-6.7,4.2c-2.9,2-2.2,0.9-4.9,1.3c-2.7,0.4-2.6,0-3.5-2c-0.9-2,0.4-2.2,1.6-3.9c1.2-1.8-0.9-7.3-1.2-9.3  c-0.3-2-1-1.2-2.6-0.5c-1.6,0.7-6.4,5-7,5.5c-0.2,0.2-0.3,0.5-0.4,0.8c0.2,0.9,0.3,1.8,0.3,2.6c0,0,0,0,0,0c0.4,1.5-0.4,2.3-0.3,3.5  c0.1,1.2,1,2.5,1,4c0,1.5-1.2,2.4-2.8,1.5c-1.6-0.9-1.7,0.1-2.6,2.5c-0.9,2.4-1,1-2.4,0.9c-1.4-0.1-0.2-4.4,0.8-6.3  c0.7-1.5,0.5-3.4-0.1-4.8c-0.4-0.5-1-1.2-1.6-1.8c-1.1-1.2-2.6-2.2-4.3-2c-3.4,0.4-5.4-1-5.6-2.6c-0.3-1.6-0.5-6.4-1.7-7.2  c-1.2-0.8-3.9-0.4-5.4,0.4c-1.5,0.8-3.9,1.4-4.7,2.2c-0.8,0.8-6.8-3.6-8.9-3.6c-2.1,0.1-3.7-0.8-4.2-2c-0.5-1.2-1.2-6-2.9-5.7  c-1.7,0.3-1.8,1.3-2.2,2.6c-0.4,1.3-1.9,3.3-3.9,4.3c-2.1,0.9-4.4,2.1-5.1,3.9c-0.7,1.8,1.6,3.5-0.1,4.7s-3.7,1.2-2.5,3.9  s2.3,4.3,0.7,5.6c-1.6,1.3-4.2,6.9-4,11c0.2,4.1-2.1,6.1-0.5,9.5c1.6,3.3,4.4,10.9,0.6,16c1.1,0.7,2.4,1.6,4.2,2.4  c3.6,1.6,4.1-1,6-2.8c1.8-1.9,4.8,0,7-0.9c2.1-0.9,5.3-1.6,9.5-0.9c4.3,0.7,9.4-0.1,11.4-0.1c0.3,0,0.5,0.1,0.8,0.2  c1.8,0.8,3.5,4,4,6.2c0.6,2.6,2.1,3.8,4.7,8.7s4.8,5.8,8,6.6c3.1,0.7,3.3,4.6,4.8,5.1c1.6,0.6,4.7,2.6,7.7,3.7  c3,1.1,17.8-0.7,19.2-1.1c1.4-0.4,0.3,2.1,0.3,4.4c0,2.3,2.6,2.3,4.7,0.4c2.1-1.9,3.6-2.6,3.6-2.6s1,2.3,1,5.7  c0,3.4,2.8,12,4.3,13.5s3.1-2,5-4.4c1.8-2.4,2.7-3.1,3.6-4.8c0.9-1.7,3.1-2,5.1-2c2,0,4.3-0.3,5.5-1.9s4.4-1.3,5.8-2.7  c1.4-1.4-1-5.7-1.6-6.7c-0.6-1-1.1-2.1,0.3-3.1c1.4-1,3.1-1.3,4.4-0.3s2.7-2.6,4.5-3.8c1.8-1.3,6,0,8.5,0.4c2.6,0.4,2.6-4.6,2.6-9.1  c0-4.6-0.3-3.1-2.6-3.8c-2.3-0.7-1.1-3.3,1.6-5c2.7-1.7,5.1,0.1,9.1,0.9c4,0.7,5.7-0.9,9.2-2.1c3.6-1.3,0.7-11,1-14.2  c0.3-3.3,1.6-4,3.3-3.3c1.7,0.7,3,1.1,4.7-0.7c1.7-1.9,0.4-5.1-2.1-7.4c-2.6-2.3-1.4-3.7,0.4-4.7c1.8-1,2.6-1.4,2.6-4.3  s1.4-3.4,1.4-5.1c0-1.7,13.4-5.4,15.1-5.3C629.8,481.2,631.4,480.3,629.5,479.8z" stroke-miterlimit="10" stroke="#FFFFFF"/>
<path name="常州市" fill="#D3D3D3" id="path12" d="M439,510c-1.6-3.4,0.7-5.3,0.5-9.5c-0.2-4.1,2.4-9.7,4-11  c1.6-1.3,0.5-2.9-0.7-5.6s0.8-2.7,2.5-3.9s-0.6-2.9,0.1-4.7c0.7-1.8,3-3,5.1-3.9c2.1-0.9,3.5-3,3.9-4.3c0.4-1.3,0.5-2.3,2.2-2.6  c1.7-0.3,2.4,4.5,2.9,5.7c0.5,1.2,2.1,2.1,4.2,2c2.1-0.1,8.1,4.3,8.9,3.6c0.8-0.8,3.2-1.4,4.7-2.2c1.5-0.8,4.1-1.1,5.4-0.4  c1.2,0.8,1.4,5.6,1.7,7.2c0.3,1.6,2.3,3,5.6,2.6c3.4-0.4,5.6,3.9,6.8,4.8c1.1,0.9,2.2,1.2,4.3,0c2.2-1.2,1.2-4,0.8-6.2  c-0.4-2.3-2.3-4.1-5.5-6.8c-3.2-2.6,1.3-6.5,2.7-7.6c1.5-1.1,1.7-2.5,1.5-4.1c-0.3-1.6,1.5-1.8,3.5-2.2c2-0.4,1.3-5,1.1-7.6  c-0.2-2.7,1-3.4,2.7-3.4c1.6,0,0.4-2.8-0.7-4.5c-1.1-1.7-0.4-2.7,0.4-6.8c0.8-4.1-1.5-4.4-2.6-3.1s-9.6,3.9-12.2,4.8  c-2.6,0.9-3.7,2.6-5.8,2.3s-2.1-3.6-0.4-5.3c1.6-1.6,0.8-4.4,0.8-6.4c0-2-1.1-4.2,0.1-6c1.2-1.8,1.1-3.1-1-5.3  c-2-2.2-2.9-6.4-4.4-7.9c-1.5-1.5-12.1-0.5-16-0.3c-3.8,0.3-3,12.5-2.4,13.7c0.6,1.2-1.3,7-1.7,8.4c-0.4,1.5,2.7,4.3,3.5,5.5  c0.8,1.2-0.9,5-1.4,6.3c-0.5,1.2-1.2,3.4-0.7,5.9c0.5,2.5-3.5-1.1-6.4-1.8c-2.8-0.8-2.8-0.2-3.8-4.1c-1-3.8-1.9-0.6-5.1-1.2  c-3.1-0.5-0.4-1.9-3.4-5.6c-3-3.7-5.6-1.5-8.3-0.7c-2.7,0.8-4.6-3.6-7.2-4.1c-2.6-0.5-0.3,3.3-0.1,5.7c0.1,2.5-4.2-1.5-6-4.6  c-1.8-3.1-7.1,2.7-7.1,5.2s-0.7,9.3-1.1,16.3c-0.4,6.1-7.9,8.1-9.8,8.6c0.2,0.6,0.3,1.2,0.2,1.6c-0.1,2.7-2.1,6.8-2.9,7.1  c-0.8,0.3,2.4,4.4,0.3,6c-2.1,1.6-5.8,2.9-5.6,6.3c0.2,3.4,0.8,8.6,3.1,10.5c2.2,1.9,3.9,6.4,1.3,10.6c0.5,0.3,0.9,0.7,1.1,1.2  c0.7,1.4,1.1,3.6,3.4,3.6s10-1.1,10.5-2c0.6-0.9,0.6-1.7,2.7-1.6c2.1,0.1,2.4,2.8,1.3,4c-1.1,1.1-1.3,3-1.6,5c-0.3,2,0,2.6,2.6,4.3  c2.6,1.7,3.1,0,6.3,1.6c3.1,1.6,5.7,1.6,8.1,1.7c1.2,0.1,2.1,0.6,3.2,1.3C443.4,520.9,440.6,513.3,439,510z" stroke-miterlimit="10" stroke="#FFFFFF"/>
<path name="南京市" fill="#D3D3D3" id="path13" d="M400.8,496.5c-2.3-1.9-2.9-7.1-3.1-10.5c-0.2-3.4,3.5-4.7,5.6-6.3  c2.1-1.6-1.1-5.7-0.3-6c0.8-0.3,2.8-4.4,2.9-7.1c0.1-2.7-4.1-10.4-6.4-11.8c-2.3-1.4-4.8-3-6.1,0.6c-1.3,3.6-3.7-2-5.5-4.3  c-1.8-2.3-3-2.8-5.7-1.6c-2.7,1.3-3.3,0.9-2.4-1.1c0.9-2,0.9-2-1.8-4.3c-2.7-2.3,1.7-1.4,3.7-1.4c2,0,1.7-3.7,4.1-3.4  c2.4,0.3,5,0,5.8-3.6c0.9-3.6-2.1-5-4.7-6.4c-2.6-1.4-2.6-4.1,1.5-5.3s0.6-4.9,1-8.6c0.4-3.7-1.4-6.2-6.4-7.6  c-4.9-1.4,3.7-6.6,6-6.6s3.9-1.9,5.1-4.3c1.2-2.5,6.2-2.5,9.3-2.7c3.1-0.2,2.2-4.5,0.2-5.4c-1.9-0.9-6.4,0.6-8.7,1.6  c-2.4,1-4.3,1-6.7,0.3c-2.4-0.7-3.8-4.3-5.6-6.5c-1.8-2.2,1.8-5.9,1.9-8.3c0.1-2.4-2.8-4-2.8-5.9c0-1.9-0.3-4-1-5.9  c-0.6-1.6,4.5-0.4,6.4,0.1c-0.8-1.5-1.8-4.5-2.4-5.8c-1-2.1-2-2.2-4.5-1.7c-2.5,0.5-4.7-0.2-5.3-2.1c-0.6-1.9-1.4-3-2.9-3  s-3.2-0.5-3.5-2.6c-0.2-2.1-3.8,0.9-6.3,0.6s-1.5-2.7-2.5-2c-1,0.7-1.7,0.5-3.4-1.1c-1.6-1.6-2.9-1.2-3.8-0.2c-1,1-1.7,0.2-3.6-1.1  c-1.9-1.4-1.7-0.1-1.7,1.6c0,1.7-5.1,1.4-7.1,1c-2-0.4-3.7-1.7-5.6-0.2s0.6,4.9,2.7,5.8c2.1,1,0.6,4.6,0.4,7.6  c-0.2,3,5.7,2.4,7.8,2.2c2.1-0.1,2.4-0.2,1.6,2.1c-0.7,2.4,1,9.3,1.9,11.2c0.9,1.9,0.5,3.4-2.7,6c-3.2,2.6-1.5,4.9-0.4,6  c1.1,1.1,0,2.6-2.3,5.3s-10.7,2.9-12.9,2.9c-2.2,0-3.5-0.5-4.2,0.8c-0.7,1.3,1.4,5.7,1.6,7.9c0.2,2.2-13.2,8.2-13.3,8.7  c-0.1,0.5-0.6,4.5,0.2,5.8c0.8,1.3-0.2,2.9-1.8,3c-1.6,0.1-1.3,3.9-2.5,5.7c-1.2,1.8,1.6,4.2,3.4,4.2c1.8,0,2.6,3.2,4.6,3.2  c2,0,4.8,3.2,7,5.6c2.2,2.4,0.4,5-0.8,6c-1.2,1-1.4,2.2,0.6,3.2c2,1,2.4,1.6,4.8,3.8c2.4,2.2,4.4,0.4,7.2-0.8  c2.8-1.2,4.6,2.6,6.4,3.8c1.8,1.2-0.4,4.6-2.4,6c-2,1.4,0,1.8,1.6,3.4s2.9,1.3,5.4,0.9c2.6-0.4,3-4,6-4.7c3-0.7,2.1,3,2.1,5  c0,2,0.9,3.3,2.3,2c1.4-1.3,3.4-1.6,5.7-2.3c2.3-0.7,1,11,1.7,13.4c0.7,2.4,0,6.1-1,12.5c-1,6.4-8.2,9.5-11.2,10.1  c-3,0.6-3.4,4-4.8,6.1c-1.4,2.1,2.7,4,5,4.1c2.3,0.1,1.7,2,2.4,3.6c0.7,1.6,5.5,1.4,7,1c1.4-0.4,5.4-1.1,7.1-0.4  c1.7,0.7,7.4,0.4,9.4,0.4c2,0,7.5-0.4,9.8-3.1c2.3-2.7,5.4-4.7,7.8-7.3c1.7-1.8,3.3-1.6,4.3-0.9  C404.7,502.8,402.9,498.3,400.8,496.5z" stroke-miterlimit="10" stroke="#FFFFFF"/>
<path name="南通市" fill="#D3D3D3" id="path14" d="M685.5,456.7c-8.6-2.1-22.6-7.4-27.1-9.9c-4.5-2.4-4.7-2.4-7.1-2.4  s-3.6-5-7.3-6.5c-3.6-1.5-7.4-1.8-10.5-3.3c-3-1.5-7.3-4.2-10.5-0.8s-6.1,2.9-7.9,3.3c-1.8,0.5-3,1.2-4.2,0.8  c-1.2-0.5-1.2-0.3-1.2,1.8c0,2.1-0.2,4.9-2.7,4.2c-2.6-0.6-4.7-2.1-6.5-2.7c-1.8-0.6-1.1-3.5-3.2-2.3c-2.1,1.2-7.7,2.6-8.3-0.8  c-0.6-3.3,0-4.4-3.2-7.6c-3.2-3.2-10.3-15.6-15.5-15.8c-5.2-0.2-11.4-4.1-13-4.4c-1.7-0.3-2.9-2.3-4.7-1.5c-1.8,0.8-4.4,0.8-5.8-0.6  c-0.7-0.7-1.5-0.9-2.5-0.9c-0.7-1.9-4.8-2.4-7-4c-2.2-1.7-3.8-1.7-5.4-0.8c-1.6,0.9-4.1,0.1-5.9-0.2c-1.8-0.3-1-4.4-0.7-6.2  c0.3-1.9,0.4-6.2-0.1-8c-0.6-1.8-0.2-4.5,0-7.1c0.2-2.7,0.2-5.8-0.3-8.5c-0.6-2.7-2.8-2.3-3.9-2.3s-4.2,0.4-2.9-1.5  c1.3-1.9-1.6-9.5-2.3-11.7c-0.8-2.2,0.4-2.6,1.2-4c0.8-1.5-0.4-6.2-1.2-7.9c-0.8-1.7-1.3-2.2-2.5-1.8c-1.1,0.4-2.6-0.4-2.6-0.4  l-0.3-0.1c0.1-0.1,0.2-0.3,0.3-0.7c0.3-2.4-1-7.3,2.1-7.7c3.2-0.4,6.2-3.4,8.2-4.7c1.9-1.3,7.2-2.7,7.8-0.9c0.6,1.7-1.3,2.3,1.6,3.1  c3,0.8,2.8,1.7,3.6,3.6c0.8,1.8,6.8,3,14,1.8c7.2-1.1,7.3-0.8,7,0.8s-0.9,4.2,0.7,5c1.6,0.8,2,0,3,1.3c1,1.3,1.8,0.2,3.4-1.2  c1.6-1.4,0.9-1.2,3.9-0.1c3,1.1,2.2-0.6,4.9-0.6c2.7,0,4,1.3,4.7,0.1c0.6-1.2,3.6-2.3,5.3-2.5c-0.1,0.3,0.3,0.6,1.9,0.5  c2.6-0.1,2.1-0.5,3.7,1.7c1.7,2.2,4.1,1.5,4.6,3.5c0.5,2,1.1,4.1,4,4.1c2.9,0,7-0.1,9.1,1.9c2.2,2,8.6,4.6,13.2,6.1  c4.6,1.5,9.4,5.3,12.4,6.3c3,1,3.7,0.9,4,3.2c0.2,2.3,1.3,5.3,0.2,6c-1,0.7-1.5,3.2-0.8,5.7c0.6,2.4,1,3.2,2.4,3.5  c1.5,0.2,1.5,1.2,0.5,1.7c-1,0.5-3.9,1.4-3.9,4.2c0,2.8-0.2,2.3,1,2.5c1.2,0.2,1.8,0.9,1.7,2.5c-0.1,1.6,1,1.4,2.6,0.8  c1.6-0.6,4.3-0.1,3.6,2.4s-1.7,4.4,2.4,5.5c4.2,1.1,9.3-0.3,11.5,1.8c2.2,2.1,5.3,4.3,9.6,4.8c4.4,0.5,4.6,2.9,7.9,5  c3.3,2,11.4,10.3,11.9,13.4c0.5,3-0.1,5,1.6,6.5c1.7,1.5,0.9,3.5,1.8,5.6c0.9,2.1,3.5,6.4,3.5,10.5  C691.7,454,694.2,458.9,685.5,456.7z M657.2,450.6l-4.7-1.5c0,0-1.1,2.1,3.1,3.8c4.2,1.7,6.9,1.7,4.4,0  C658.1,450.9,657.2,450.6,657.2,450.6L657.2,450.6z M643.4,448.2l-8.2-2.7c0,0-1.9,3.7,5.5,6.7c7.3,3,12.1,3,7.8,0  C644.9,448.7,643.4,448.2,643.4,448.2L643.4,448.2z" stroke-miterlimit="10" stroke="#FFFFFF"/>
</svg>