<?xml version="1.0" encoding="UTF-8" standalone="no"?><!-- Generator: Adobe Illustrator 19.0.0, SVG Export Plug-In . SVG Version: 6.00 Build 0)  --><svg xmlns="http://www.w3.org/2000/svg" xmlns:xlink="http://www.w3.org/1999/xlink" contentScriptType="text/ecmascript" zoomAndPan="magnify" contentStyleType="text/css" id="图层_1" style="enable-background:new 0 0 800 600;" mapName="河南省" mapType="省市地图" version="1.1" xml:space="preserve" preserveAspectRatio="xMidYMid meet" viewBox="0 0 800 600" x="0px" y="0px">
<style type="text/css" xml:space="preserve">
	.st0{fill:#D3D3D3;stroke:#FFFFFF;stroke-miterlimit:10;}
</style>
<path class="st0" d="M482.1,125.1L482.1,125.1L482.1,125.1z" id="path0"/>
<path name="濮阳市" fill="#D3D3D3" id="path1" d="M628.4,53.4c-0.3-1-3.9,2-5,3.4s-7,3.8-8.9,3.9c-1.8,0.1-6.1,0.1-8.4,1.8c-2.3,1.7-5.4,3.1-7.2,4.1  s-4.2,2.8-5.7,4.7c-1.5,1.8-3.6,2.6-6.5,2.8c-2.9,0.1-3.7,0.9-5.2,2.4s-2.5,0.3-3.4-1.4c-0.9-1.6-2-1.6-3.5-1.1s-1.1,4.1-0.4,5.4  c0.7,1.3-4.1,4.8-7.9,9.6s-4.5-0.5-4.5-2.8s0.3-2.4,1.6-5.4s1.2-3,0.4-6.9c-0.9-3.9,2.9-6.4,5.4-8.8s1.9-2,1.9-5.5s2.6-5.3,3.1-6.9  c0.5-1.6,1.6-3.8,0.4-5.4c-1.2-1.6-2.2-1.3-2.2,0.6c0,1.9-2.6,2.6-4.6,2.9s-2.5,3.4-5.1,5.1c-2.6,1.8-3.6-2.1-4.1-3.9  c-0.5-1.8-3.1-3.5-4.7-6.4c-1.6-2.9-6.5-1.1-8.4-1.4c-1.9-0.3-7.1,3.3-8.6,5.3s-1,3.1-1.2,4.5s-0.4,3.1-2.2,3.1c-1.9,0-1,1-1,2.5  s-0.9,1.4-2.1,0.8s-3,0.3-4.5,1.1c-0.3,0.2-0.6,0.2-0.8,0.2c0,0.2,0,2.7,2.8,4.6c2.9,2,4.3,3.7,3.8,7.3c-0.5,3.7,1.2,7.1-1.8,8.9  s-2.5,2.2-2.7,4.5c-0.2,2.2-0.6,3.1-2.1,4.7c-1.5,1.5-4.2,2.9-1.9,6.9c2.2,4,1.5,5.3,0.3,8s-2.1,5.2,0.6,6.8  c2.6,1.6,4.2,3.2,5.6,5.1c1.5,1.9,1.6,3,0.5,4.1c-1.2,1.1-2.6,0.1-0.9,3.3c1.7,3.1,3.6,7.8-0.6,10.9c0.2,0.2,0.4,0.4,0.5,0.7  c1.7,2.2,5.4,3,6.4,3.2c-0.1-0.6-0.2-1.2-0.2-1.7c0-2.1,9-6.4,10.3-7.5c1.2-1.1,2.7-1.9,4.8-1.6c2.1,0.2,5.4-4.1,8.4-6.2  s5.2-6.7,4.1-8.4c-1.1-1.7,1.4-2.5,2.6-2.5c1.2,0,2.2-1.7,2.2-3.6s2.1-4.3,3.8-5.9s2.8-3.5,2.7-4.8c-0.1-1.4,2.5-1.6,3.7-1.9  c1.2-0.2,5.1-0.9,6.3-1.7c1.2-0.9,2.5-1,4.6-0.3s2.9-0.8,4.2-2c1.3-1.3,4.4-4.2,4.5-6.3c0.1-2.1,1.1-1.8,2.5-3.4  c1.5-1.7,8.9-1.9,11.2-2s0.2-3.7-0.7-4.8c-0.9-1.1,0-2.8,1.5-3.5s1.9-1.9,2-2.9c0.2-1.1,8.4-1.7,10.5-1.4c2.1,0.3,2.4-3.1,2.2-5.5  s1.6-2.5,3.2-5.4C631.2,54.5,628.7,54.5,628.4,53.4z" stroke-miterlimit="10" stroke="#FFFFFF"/>
<path class="st0" d="M482.1,125.1L482.1,125.1L482.1,125.1z" id="path2"/>
<path name="新乡市" fill="#D3D3D3" d="M528.8,137.7c-2-2.5-2.9-3.1-6.5-1.9c-3.6,1.2-4.3,3.4-7.2,3.4s-7.6,1.5-10.5,2.4  s-10.3,3.4-10.7,6.2c-0.3,2.8-0.1,5.8-2.8,7.3c-2.6,1.4-6.7-0.2-8.7-1.8c-2-1.5-2-4-1.2-5.5s1.8-3.6,1.8-6.2s0.1-6.8,0.6-8.4  c0.5-1.6,1-6.2-1.6-8.3c-1.2,1.2-3.1,2.3-4.4,2.5c-1.9,0.3-5.6,1.5-7-3s-4.6-2-7.2-2.7s-6.7-4.8-9.7-6s-2.6-1.8-2.5-5.7  c0.1-4-0.5-4.5-0.9-7.4c-0.5-2.9-3.5-1.2-5.6-1.2s-3.2-0.6-4.2,1.2c-1.1,1.8-6.2,0.6-11,1.1s-1.2-2.3-1.1-4.7s-2.3-6.1-4.9-10  c-2.2-3.3-7.1-4.1-8.6-4.2c0,1.1-2.7,1.4-5.2,1.4c-2.9,0-1.5,3-0.5,4.1c0.9,1.1,1.7,2.8,0.5,4.5s0.3,2.8,0.4,4.7  c0.1,1.9,1.1,5.1,2.1,7.1s-2.5,1.5-4.9,0.1s-2,0.8-1.9,3s-1.7,4.1-3.4,4.3c-1.7,0.2-1.2,3.4-1.7,5.5c-0.6,2.1-4.1,1.5-6.5,2.1  c-0.6,0.2-1.2,0.5-1.8,0.8c0,0.7-0.1,4.2,1,5.2c1.3,1.1,3.3,2.5,3.5,5.1c0.2,2.6,1.1,5.6,1.6,7.9c0.5,2.3,1,3,1.8,3.8  c0.8,0.7,1.3,2.2,1.4,3.6c0,1.5,0.8,3.4,0.7,5.2c-0.1,1.8-2.5,5.9-0.6,8.1c2,2.2,3,3.5,4.8,4.4s3.8,2.2,4.3,4.4s1.3,8.3,0.2,9.5  c-0.9,1-2.2,2.7-2.7,3.3c2.9,1.5,9.4,5.2,12.5,4.4c3.6-1,7.2,1.6,10.3,2c3.1,0.4,7.5,1.5,9.9,0.1s5.9-6.4,12-6.6  c6.1-0.2,7,2.3,9.2,3.8c2.2,1.4,4.6,3.5,8.5,2.7s8.4-1,11.1,0.3c2.8,1.3,5.8,1.8,8.4,0.2s10-3.7,12.2-2.8s6,4.2,8.1,3.4  c2.1-0.8,3.6-2.3,2.5-3.7s-3.8-3.7-2.3-4.8s4.7-2.8,5.3-4c0.4-0.7,0.6-0.9,0.8-0.9c-0.1-0.5-0.2-1.1-0.4-1.5c-0.5-1.7,1.7-5.2,3-8.3  c1.2-3.1,0-3.7-1-5.3s1.4-4.5,4.1-5.6c2.7-1.1,5.3-3.5,9.8-7.4c3.4-3.1,3.1-5.9,2.8-8C534.1,140.8,530.5,139.9,528.8,137.7z" stroke-miterlimit="10" stroke="#FFFFFF"/>
<path name="焦作市" fill="#D3D3D3" d="M410.8,170.4c-0.5-2.2-2.5-3.5-4.3-4.4s-2.8-2.2-4.8-4.4s0.5-6.3,0.6-8.1s-0.7-3.7-0.7-5.2  s-0.6-2.9-1.4-3.6c-0.8-0.7-1.2-1.4-1.8-3.8c-0.5-2.3-1.4-5.3-1.6-7.9c-0.2-2.6-2.2-4-3.5-5.1c-1.2-1-1-4.5-1-5.2  c-1.8,1.1-3.7,2.9-6.3,2.9c-3.5,0-2.4,1.1-3.4,3.3c-1,2.2-1.5,1.7-4.1,0.6c-2.7-1.1-6.1,1.5-7.4,4.1c-1.4,2.7-3.3,6.2-5,8.5  s-7.5-3-9.5-4.9s-1.6,0.2-1.4,1.2c0.3,1-0.3,4.3-0.1,5.2c0.2,0.9-0.5,1.9-2.7,1.9s-3.4,1.5-4.7,3.6c-1.3,2.1-4.9,1.7-7.7,0.3  c-2.8-1.3-4.6,2.3-6.5,4.3c-0.1,0.1-0.2,0.1-0.2,0.2c0.1,2,0.6,8.7,0,10.5c-0.7,2.1-1.9,4.8-3.7,7c-1.7,2.2-5.4,9.5-7.1,10  c-1.6,0.5-2.8,1-2.7,2.2l0,0c2,1.6,2.5,8.9,3.6,9.7c1.3,1.1,5.2,3.4,7,3.3c1.8-0.1,3.3-0.4,4.5,1.1s3.6,1.6,6.9,0.2  c3.3-1.4,11-3,15-2.5c3.9,0.5,11.3-0.8,16.5-5s6.5-6.1,8.9-6.3s6.7-3.5,9.1-3.4s14.3,0.9,16.1,1.7c0.3,0.1,0.7,0.3,1.1,0.6  c0.4-0.5,1.8-2.3,2.7-3.3C412.1,178.7,411.3,172.6,410.8,170.4z" stroke-miterlimit="10" stroke="#FFFFFF"/>
<path name="济源市" fill="#D3D3D3" d="M322.5,181.5c1.7-0.5,5.4-7.8,7.1-10s3-4.9,3.7-7c0.6-1.8,0.2-8.6,0-10.5c-2.1,1.5-8-3.4-9.8-6.5  c-1.9-3.2-2.7,1.2-2.2,2.9c0.6,1.7-1.2,2.4-3.1,2.4s-9.5-0.3-12.7-1.2s-5.6,0.2-7.8,1.2c-2.2,1-7.3-0.1-7.4-1.5s-2-1.7-3.8-0.5  s-8.3-3.6-9.4-4.2c-1.1-0.6-4.2-1.2-5.4-0.6c-1.1,0.6,0.1,3.8,1,4.7c1,0.9-1.6,10.4-1.7,12.3s-0.6,5.2-1,7.4  c-0.3,2.1-1.8,1.8-2.6,0.8c-0.1,0.5-0.3,2.6,2.7,2.3c3.5-0.3,6.8-0.5,8.2,1.5c1.3,2,3.4,4.9,5.1,4.8c1.7-0.1,2.4,1.1,3.1,2.2  c0.6,1,1.5,3.1,2.4,0.6c1-2.6,1.3-2.7,2.2-1.4c0.9,1.3,2.2,3.7,3.8,2.4c1.6-1.3,2.4,1.3,4.7,1.7c2.2,0.4,5.2,1,6.7,1  c1.2,0,4.2,0.4,6.4,1.4c4.3,2.2,0.3,1.5,3.5-2.5c1.1-1.4,3.2-1.5,3.5-1.4C319.8,182.6,320.9,182,322.5,181.5z" stroke-miterlimit="10" stroke="#FFFFFF"/>
<path name="开封市" fill="#D3D3D3" d="M463.2,192.4c0.5,1.6,0.4,2.1-0.8,2.9c-1.2,0.8-3.5-0.1-4.2,0.7s-1.1,1.8-0.1,3s1.2,1.7,1.2,4.9  s-1.6,3-0.4,5s0.5,3.9,0.2,5s-0.9,0.3-0.8,2.8s0.5,4.9-0.6,6.5c-1,1.6-4.7,9-6.2,9s-2.4,0.4-2.9-0.2c-0.5-0.6-1.5,1.3-1.3,2.4  c0.2,1.1,1.2,4.4-1,4.2s-7.4-2.6-8.6-0.8c-1.3,1.8-1.7,3.9-1.7,5.2s1.3,3.4,0.9,5.6c-0.3,2.2-0.9,3.5,0.4,4.5s2.9,0.9,3.8,2.4  s1.7,2.7,3.2,3.1s2.1,1.1,2.8,2.1c0.7,1,1.6,1.4,3.7,1.1s2.9-0.8,3.8,1.1s2.7,3.2,5.4,2.3c2.7-0.9,3.5-3.7,5.5-3.8  c2-0.1,4.6,0.4,5-1.5s2.5-2.2,3.8-1.5s7.2,4.4,8.9,1.8c1.7-2.6,1.5-3.2,1.4-4.7c-0.1-1.5,0.2-2.3,2-2.3c1.9-0.1,4.2,2.4,6,3.4  s3.7,3.5,6.7,3.5s4.6,2.8,6.9,2.7c2.3-0.1,3.8,0.6,5.3-1c1.5-1.6,3.6-3.1,5.3-3.9s2.6-1.1,5.3-1.2c2.2-0.1,1.8-1.7,1.6-2.1  c-0.1-0.1-0.2-0.1-0.3-0.2c-1.8-1.1-2.2-4.9-0.3-6.6c1.9-1.7-0.6-5.8-0.6-7.7s1.9-2.2,3.2-3.2c1.4-1,2-2.6,2-4.9s-0.4-4.1-1.6-5.8  c-1.2-1.7-1.1-7.6-1.2-9.2c-0.1-1.6,0.3-3.9,1.6-4.7c1.2-0.8,0.6-2.9-0.9-4.8c-1.5-1.9,0.2-2.1,1.6-2.1c1.4,0,2.9-0.5,3.8-1.2  c0.9-0.8,6.1-1.2,7.5-1.4c1.5-0.2,2.6-0.3,4.6-0.9c2-0.5,5.4-0.9,9.6-2.5c3.7-1.4,3.9-4.7,3.9-5.5c-1.9-0.2-2.2-1-1.9-2.9  c0.4-2.4,0.7-4-1.5-4.2s-1.2-1.5-0.2-3.1s-1.1-2.1-3.7-1.9c-2.6,0.2-2.8-2.4-5.6-4c-2.7-1.6-3.3-1.2-5.6,0.7c-2.2,2-2.3,1-5.9-0.6  c-3.6-1.6-2.6-0.4-4.1,1.6s-3,0.9-4.3-0.1c-1.4-1-3-2.2-4.7-0.5c-1.3,1.3-1.8-0.3-2.2-1.9c-0.2,0-0.4,0.2-0.8,0.9  c-0.6,1.2-3.8,2.9-5.3,4s1.2,3.4,2.3,4.8s-0.4,2.9-2.5,3.7c-2.1,0.8-5.9-2.5-8.1-3.4s-9.6,1.2-12.2,2.8s-5.6,1.2-8.4-0.2  c-2.8-1.3-7.2-1.1-11.1-0.3c-2.7,0.5-4.7-0.3-6.4-1.3C464.2,188.6,462.8,190.9,463.2,192.4z" stroke-miterlimit="10" stroke="#FFFFFF"/>
<path name="商丘市" fill="#D3D3D3" d="M684.7,289.5c-0.1-3.2-0.5-2.4-1.9-3.1s-1.4-2.1-1.9-3.3c-0.6-1.2-1.1-2.5-1.3-4.4s-2.1-2.8-3.5-4  c-1.3-1.2-2.1-3.8-2.7-5.3c-0.6-1.5,2.5-1.4,3.9-2.3s0.7-3.3-0.2-4.6c-0.8-1.3-0.7-2,0.6-5.5c1.2-3.5-0.7-3.6-2.6-3.7  c-1.9-0.1-3,0.2-5,1.7s-4.1,0.2-7.7-0.2c-3.6-0.4-2.8-0.7-3.7-2.5c-0.9-1.7-1.2-1.7-3-2.4s-3.8-2.7-5.2-4.1c-1.4-1.4-2.4-2.1-4-1.2  c-1.6,0.8-1.7-0.2-2.6-2.1c-0.8-1.9-1.1-3.1-2.3-4.7c-1.2-1.6-0.7-2.1-1.2-3.5s0.4-3,1.9-4s0.9-2.2,0.7-3.9c-0.2-1.6,1.1-3-0.2-3.7  c-1.2-0.7-2.7,1.8-4.9,3c-2.1,1.2-1.8-2.6-3.5-4.4c-1.7-1.9-2.6-0.8-4.4,0.5c-1.7,1.3-3.1-0.7-4.2-2.6c-1.1-1.9-3.4,2-5,2.6  c-1.6,0.7-10.1,2.6-13.1,1.2c-3-1.3-6.8-2.1-10.2-2.1s-0.4,1.8-1.1,3.3c-0.8,1.5-2,0.9-4.5-0.3c-2.4-1.2-8.6-0.4-10.8-1  c-2.3-0.6-4.2-4.5-5.9-6.1c-1.7-1.7-1.4-3.5-2.2-10.5s-2.6-7.6-4.9-10c-2.3-2.4-6.2-2.7-9.8-2.7c-0.8,0-1.3,0-1.8-0.1  c0,0.8-0.2,4.1-3.9,5.5c-4.3,1.6-7.6,1.9-9.6,2.5c-2,0.5-3.1,0.7-4.6,0.9s-6.7,0.6-7.5,1.4c-0.9,0.8-2.4,1.2-3.8,1.2  c-1.4,0-3.1,0.2-1.6,2.1c1.5,1.9,2.1,4,0.9,4.8c-1.2,0.8-1.6,3.1-1.6,4.7c0.1,1.6,0,7.5,1.2,9.2s1.6,3.5,1.6,5.8s-0.6,3.9-2,4.9  s-3.2,1.3-3.2,3.2s2.4,6,0.6,7.7c-1.9,1.7-1.5,5.5,0.3,6.6s3.7,1.8,4.5,3.3s1.6,2.4,3.4,2.4s4.3,0.5,5.4,1.9  c1.1,1.5,5.1,1.2,6.6,2.7s1.5,1.6,1.5,3.7s-0.8,11.4-0.1,12.6s0.9,4.1-0.6,5.1s-3.4,1.9-3.4,4.2s1,7.5,2.4,7.5s0.9-0.2,2-1.7  s0.9-2.6,2.9-2.1s2.9,0.6,4.8-1.1c1.8-1.7,2.2-2.5,5-3.1c2.7-0.6,2.1-1.8,4.4-0.9c2.4,0.9,3.1,0.4,3.8-0.5s1.4-2.3,2.8-1  c1.4,1.3,6.7,3.7,8,2.1c1.2-1.7,0-2.9,3.2-3.5s3.4-0.9,3.5-3.1s-0.1-3.7,1.8-3.3c1.9,0.4,3.6-0.4,5.6,0.1c1.9,0.4,3.6,1.7,3.8,1.8  c0.4-0.3,0.8-0.5,1.1-0.7c2.1-1.4,5.3-1.1,9.3-1.1s4.8,1.8,5.8,3.9s1.7,2.4,4,1.7c2.3-0.7,3-0.3,4.4,0.7c1.4,0.9,5.2,2,6.7,3.7  c1.6,1.7-0.5,6.8-0.5,7.7c0,0.9,1.6,2.1,3.3,1s2.6,0.3,2.6,1.3s-0.3,2.6,1,3.2s0.7,3.4,0.7,5.9s3.2,4.8,4.7,5.8s4.5,4,5.3,3.2  s3.2-1,5.9-2s4.7-2.4,5.8-3.4c1.1-0.9,3.8-1.7,6.3-1.9c2.5-0.2,5.2-5.8,5.4-6.9c0.2-1,2.7-2.8,5.4-3s5.4-3.1,6.9-3.9  s3.7-0.7,5.6-0.3C686.4,296.9,684.8,292.7,684.7,289.5z" stroke-miterlimit="10" stroke="#FFFFFF"/>
<path name="三门峡市" fill="#D3D3D3" d="M197.1,295.4c2.8-1.1,4.9-3.9,6.6-5.2c1.7-1.3,0.4-4.7-0.1-7.5c-0.5-2.9,0.9-3.9,1.9-5.5  s0.7-2.3-1.6-2c-2.2,0.3-2.4,0-3.8-2c-1.4-2-1.8-2.4-3.8-4.1s-7.1-4.8-8.9-5.5c-1.8-0.7-1.3-1.4,0.2-2.7c1.6-1.3,0.2-2.3,1.2-7.4  c1.1-5.2-0.1-3.8-1.8-5.6c-1.7-1.9-2.6-2.3-3.9-3.8c-1.3-1.6,2.2-1.5,2.9-2.7s2.2-2.5,3.6-2.5c1.4,0,2.1-0.3,2.4-1.8  c0.3-1.5,2.7-0.9,4.4-2.1c1.7-1.2,4.5-0.1,6.8-0.1s6.2-1.9,9.3-3.2c3.1-1.2,4.1-2.7,4.4-4.7c0.3-2.1,4-1.2,5.5-2.2  s10.3,2.2,11.4,2.2c1.2,0-0.2-0.7-0.8-2c-0.7-1.2,1.5-2.2,4.1-1.9s1.5-1.3,2.6-2.6c1.1-1.2,2.2,1.6,3.6,1.6c1.5,0,2.1-1.3,3.1-2.8  s2.2-0.2,4.6-0.3c2.3-0.2,1-0.9,1.4-2s3.1,1,4.9,2.8c1.7,1.8,2.1-0.2,2.2-1.5c0.2-1.3,1.2-3,2.6-5.2s2.8-5.2,3-7  c0.1-1.9,0.8-3.5,1.8-5.5s-0.9-4.5-2.7-6c-1.9-1.5-1.4-1.6-0.4-2.6s-0.3-1.9-2-1.9s-3.8-2.2-5.5-2.2c-1.6,0-2.1-0.2-1.6-1.9  c0.4-1.6,1-1.9,3.5-2.6c2.5-0.8,3.4-1.8,4.8-3.4c1.4-1.6-1.4,0.2-2.2-0.6s-0.5-2,1.4-2.5c2-0.5-0.9-2.6-2.9-2.6  c-1.8,0,2.7-4.6,3.6-5.4c-1.2-0.2-1.5-0.6-2.7-1.1c-1.6-0.7-1.6-0.9-2.2,0.5c-0.7,1.4-1.3,1.4-2.5,0.3c-1.2-1.1-3.5,0-5.4,0.3  s-2.4,0.6-2.9,2.5c-0.4,1.9-10.1,5.1-11.6,5.1s-1.1,2.2-0.2,4.1c0.9,1.9-2.5,2.2-3.5,2.4c-1,0.3-1.5,3.6-3.1,4s-1.3,1.4-1.2,3.5  s-2.2,3-3.4,2.3c-1.3-0.6-2.2-0.4-4.2,1.5c-2.1,1.9-3.4,1-4.2,0.3s-1.4-1.3-2.2-0.4c-0.8,0.8-2.5,1.1-4.6,1.3  c-2.1,0.3-4.2-0.9-6.4,0.1s-7.1,1.5-9.9,2.4c-2.8,0.9-4.7-1.8-5.3-0.7s-7.5,5.4-10.3,6.5s-6.4,4.1-7.8,4.2s-2.2-2.5-3.1-2.5  c-0.9,0-1.9,4-2.3,5.1c-0.5,1.1-4.5,1.1-6,1.1s-4.7,0.2-6.7,0.7s-5.6,3.9-7.2,5.4s-7.8,1.3-10.2,1.4c-2.4,0.1-4-0.6-6.1-2.1  c-2.1-1.6-5.6,0-7.6,0.4s-2.3,1.6-3.5,1.6s0.6,2.2,0.7,3.8s-0.5,1.8-2.1,3.3c-1.7,1.4,2.5,11,3.3,11.6s1.8,2.2,3,1.8  s2.4,0.1,2.4,2.3s0.8,3.1,2.5,4.6s-5.2,5.1-6.7,6.6c-1.5,1.6-0.3,5,1.8,4.9s3.3,2.3,6,2.6c2.7,0.3,2.3,2,4.1,4.1  c1.9,2.2,3.7,2.3,6.3,2.6c2.6,0.3-2.4,5.9-4.4,9c-2.1,3.1-1.8,6.3,1.5,6.2c3.3-0.1,1.6,0.7,2.2,2.2c0.7,1.5,1.9,3.6,3.5,5.3  c1.6,1.7-3.6,5-5.6,6.2c-1.9,1.2-0.9,2.7-0.5,4.1s1.8,1.7,2.7,1.7s2.4-0.7,3.8,0.6c1.4,1.2,6.9,5.6,9.9,7.9c3,2.2,3,8.8,4.4,12.6  c1.4,3.8,7.9,4.9,9.8,5.8c1.4,0.7,3.2,3,4.2,5.3c0.6-0.1,2.7-0.2,3.9,1.1c1.3,1.6,2.8,2.3,4.6,0s6.9-7.6,5.9-9.3  c-1-1.7-1.6-1.9-1.6-1.9s-2.4-1.2-1.7-2.8c0.7-1.6,0.8-1.9,2.3-1.1c1.4,0.8,3.6,1.3,4.1-1.6s2.9-9.9,5-9.2c1.2,0.4,3.1,1.4,4.8,2.1  c-1.2-1.6-2.5-8-3.4-10.2C192.1,298.6,194.3,296.5,197.1,295.4z" stroke-miterlimit="10" stroke="#FFFFFF"/>
<path name="漯河市" fill="#D3D3D3" d="M474.5,338.6c-0.9-1.3-1.2-2.4-1.2-4.4s0.2-2.6-1.2-3.7c-1.4-1.2-0.4-4.7-1.1-6.5  c-0.7-1.7-0.2-5-1.6-3.7s-2.7,2.1-4.2,2.4c-1.5,0.2-3.8,3.4-5.9,4.2c-2.1,0.8-1.5-2.2-2.5-3.9c-1-1.6,0.6-4.1,1.1-5.9  c0.5-1.7,2.6-4.4,3.5-6.4s0.4-2.9-1.8-5.1c-2.1-2.1,0.2-3.6,0.2-7s-3.3-5-5.4-5.1s-4.1-2.7-5.3-3.8c-1.3-1.1-5.9,0.6-7.9,2.1  c-2,1.6-4,2.4-4.8,3.5s-1.4,2.3-1.9,4.9s-2.2,2-3.5,0.5s-2.7-1-3.8,0.2c-1,1.3-3.4,0.7-4.7,2.1c-1.3,1.4-0.2,3.9,0.2,5.7  c0.4,1.8-0.7,5.1-1.3,7.2c-0.7,2.1,3.5,4.3,2.8,5.8c-0.6,1.5-2.1,2-3.6,1.5s-3.4-1.5-5.5-0.6s-4.5,1.1-5.8,1.7s1.5,3.4,1.4,5.8  c-0.1,2.3-2.5,4.2-4.1,4.9c-1.6,0.7-3.5,2.9-3.7,4.8s-2,4.1-3.8,5.5c-1.8,1.3-1.3,3.8-2.2,5.6c-0.8,1.8,2.6,1.6,4.7,2.8  c2.1,1.2,3.1,0.8,4-0.4c1-1.2,3.3-0.3,4.4-0.4c1-0.1,5.1,0,5.8,0.7c0.7,0.6,1.8,0.5,2,0.4c0.1-1.2,2-2.3,3.9-2.3  c2.2,0,6.5-0.2,7.8-1s2.6,0.3,4-2.2c1.5-2.4,4.2-1.9,5.4-1.8c1.3,0.1,5.2,0.6,6.7-1.6s3.1-5,5.1-3.6s3.6,1.3,5.1,2.6  c1.5,1.3,3.2,3.7,5.2,3.8c2,0.1,3-2.7,2.8,0.6c-0.2,3.3-0.1,4,1.4,2.4c1.5-1.7,4.2-2.1,5.5-2.8c1-0.5,1.3-3.1,2.4-3.5  C474,343,475.4,339.8,474.5,338.6z" stroke-miterlimit="10" stroke="#FFFFFF"/>
<path name="驻马店市" fill="#D3D3D3" d="M523.2,389.1c-2.1-0.7-0.9,1.1-3.6,0.8c-2.7-0.3-5.1-0.7-5.3-2.2c-0.1-1.5-1.4-1.5-3.7-3.2  s-2.6-3.3-3.3-5s-0.1-4.2,1.6-5.3c1.7-1.2,1.7-4.8,1.5-6.7c-0.2-1.9-1.6-2.9-4.2-3.6s-2-2-3.4-3.3s-2,1.9-3.9,0.9s-1.9-5.6-2.5-7.7  c-0.6-2.2-1.5-2.6-3.2-2.9s-1.9-0.7-3.3-2.3c-1.3-1.6-5.3-0.7-7.6,0.1c-2.3,0.8-5.4-1.5-7.7-3.3c-2.3-1.8-2.5,2.5-3.8,3.2  s-4,1.1-5.5,2.8c-1.5,1.7-1.6,1-1.4-2.4c0.2-3.3-0.8-0.5-2.8-0.6s-3.7-2.5-5.2-3.8s-3.1-1.2-5.1-2.6s-3.6,1.4-5.1,3.6  s-5.4,1.7-6.7,1.6c-1.2-0.1-4-0.6-5.4,1.8c-1.5,2.4-2.6,1.4-4,2.2s-5.7,1-7.8,1c-2.2,0-4.2,1.4-3.9,2.8c0.3,1.4-0.6,2.2-1.7,3  s-1.4,2.2-1.3,3.9c0.1,1.7-1,3.6-2.2,5.5s-0.1,8.5,1,12.1c1.2,3.6,2.4,2.6,2.5,4.3c0.1,1.6-9.1,0-11.9-0.3  c-2.5-0.3-9.6,2.4-10.8,2.9c0.4,2.7,0.4,5.3-0.6,6.4c-1.9,2.2-4.6,0.5-6.4-0.1c-1.9-0.6-4.9-1.2-6.5-0.1s-2.8,0.8-4.2-0.1  c-1.4-0.9-4.1-2.4-4.4-0.4c-0.3,1.9-1.3,3.8-3.2,5.7c-1.9,1.9-3.3,3.8-2.8,6.6c0.5,2.9,0.8,4.7,3.2,6.6c2.5,1.9,3.4,1,3,3.9  s-1.2,5.7-1.2,7.7s0.6,3.3,1.2,4.7c0.5,1.4,1.4,1.5,1.1,3.6s0.1,3.2,1.3,3.4c1.2,0.2,4.1,1.4,4.2,3.8s-1.2,2.4-1.8,1.1  c-0.6-1.3-1.2-2.6-2.2-0.6c-1.1,1.9-3.3,4.6-2.4,7.2s2.6,1.2,5.7,1.1s5-0.6,7.7,1.6c2.7,2.3,2.4,2.6,3.3,0.4c1-2.1,0.9-4.5,3.9-3.1  s9.4,5.8,11.6,4.6c2.1-1.2,3.4-2.9,3.5-5s0.6-5.9,2.1-6.5s-0.3-3.4,2.2-3.9c2.5-0.6,5-1.2,7.5,0.7c2.5,1.9,3.7,2,4,4.6  c0.3,2.7,0.3,4.7,2.9,5.1c1,0.1,1.6,0.4,1.8,0.6c0.6-0.2,2.4-0.8,3-1.8c0.7-1.3,2.9-1.6,4-0.1c1.2,1.5,5,1.8,5.4,3.9  s0.7,4.8,3.6,3.3s2.7,0,4.7-0.9s4.8-0.9,5.2,3.1c0.4,3.9,3.5,10.1,5.9,6.4c2.3-3.7,4.5-6.2,5.1-4.5s1.2,2.2,2.3,1.9  c1.2-0.3,2.4-1,2.6,1.8c0.1,2.8,0.2,3.8,1.3,4.4c1.1,0.5,1.3,0.9,1.8,2.6s-0.2,2.6,1.3,2.3c1.6-0.3,2.5-0.4,3,1.5s-0.8,3,1.7,3.5  c2.6,0.6,4.4,1.5,5.2,2.8c0.8,1.3,1.3,2.2,2.5,1.2s0.9-0.7,2.7-1.3c1.8-0.6,2-2.9,3.4-1.5s2.1,1.5,3.2,0.7s2.6,0.2,4-1.5  c1.3-1.7,3.8-6.2,3.4-7.3c-0.4-1-5.7-4.6-5.8-6.6c-0.1-2.1-0.7-4.4-1.2-5.9c-0.5-1.6,1-2.7,3.2-2.6c2.1,0.1,6.4-0.1,8-0.5  s3.3-3.7,4-2.2c0.8,1.5,2.3,2.3,3.9,2.1c1.5-0.3,5.9-2.3,4.8-4.5c-1.1-2.2-2.5-3-1.2-4.2c1.3-1.1,2.3-1.3,5.1-1.3  c2.7,0,3.7,0.4,3.7-1.1s0.8-1.7,3.9-2.2c3-0.5,4.5-3.2,7-0.3c2.5,2.9,2.3,4.4,5.4,4.2c3-0.2,2.8,0.3,4.2,1.4  c1.3,1.1,3.3,1.9,5.8-0.2c-0.2-0.6-0.2-1.3-0.3-2.1c-0.3-1.5,0.1-1.3,1.8-1.4s-0.1-2.1-1.4-2.5c-1.3-0.4-1.1-1.3-1.1-2.4  s-0.5-4.2-0.6-6.2s-0.8-3.6,1-4.7s1.1-0.9,0.6-2.8s0.1-1.9,0.4-3.6c0.3-1.7-0.4-2.2-3.5-2.5s-1.8-2.4-2-3.8s-2.9,0.9-4.5,0.1  s-2.5-0.4-4.4,0.1s-1.3-1.6-1.3-3.1s-4.9-1.3-6.3-1.2c-1.4,0.1-2.4-0.8-4.7-2.6c-2.3-1.8-1.7-4.2-0.1-6.4c1.6-2.2-0.1-3.5-1.2-5.8  c-0.3-0.6-0.5-1.2-0.7-1.8C525.5,389.7,524.7,389.7,523.2,389.1z" stroke-miterlimit="10" stroke="#FFFFFF"/>
<path name="信阳市" fill="#D3D3D3" d="M548.2,442.1c-1.3-1.1-1.1-1.6-4.2-1.4c-3,0.2-2.8-1.2-5.4-4.2c-2.5-2.9-4-0.2-7,0.3  s-3.9,0.7-3.9,2.2s-0.9,1.1-3.7,1.1c-2.7,0-3.8,0.2-5.1,1.3c-1.3,1.1,0.1,1.9,1.2,4.2c1.1,2.2-3.3,4.2-4.8,4.5s-3.1-0.5-3.9-2.1  c-0.8-1.6-2.4,1.7-4,2.2c-1.6,0.4-5.8,0.6-8,0.5c-2.1-0.1-3.7,1-3.2,2.6c0.5,1.5,1.1,3.9,1.2,5.9c0.1,2.1,5.3,5.6,5.8,6.6  c0.4,1-2,5.5-3.4,7.3c-1.3,1.7-2.9,0.7-4,1.5s-1.8,0.7-3.2-0.7c-1.4-1.4-1.6,0.9-3.4,1.5s-1.6,0.2-2.7,1.3s-1.6,0.2-2.5-1.2  c-0.8-1.3-2.6-2.2-5.2-2.8c-2.6-0.6-1.2-1.7-1.7-3.5c-0.5-1.9-1.4-1.8-3-1.5s-0.8-0.6-1.3-2.3c-0.5-1.7-0.7-2-1.8-2.6  c-1.1-0.5-1.2-1.6-1.3-4.4c-0.1-2.8-1.4-2.1-2.6-1.8c-1.2,0.3-1.7-0.2-2.3-1.9c-0.6-1.7-2.8,0.7-5.1,4.5c-2.3,3.7-5.4-2.5-5.9-6.4  c-0.4-3.9-3.2-4-5.2-3.1s-1.8-0.6-4.7,0.9c-2.9,1.5-3.2-1.2-3.6-3.3c-0.4-2.1-4.3-2.5-5.4-3.9c-1.2-1.5-3.3-1.2-4,0.1  c-0.6,1-2.4,1.6-3,1.8c0.4,0.4,0.1,0.9-0.3,1.3c-0.8,0.7-2,1.7-2,3.5s0.2,3,0.3,6.1c0.1,3.1-0.3,4.9-1.4,5.9c-1,1-3,1.5-3.2,1.6  c0.5,0.6,0.8,2.6,1,5.2c0.3,3.7,1.9,5.9,2.9,7.8s-1.4,2.6-2.8,3.1c-1.5,0.5,1.2,8.3,1.5,8.5s1.5,1.3,1.5,2.9s-1.2,6.3-2.2,6.9  c-1.1,0.5-2.2,0.2-2.5,0.9c-0.3,0.8,3.8,4.8,5.4,5.7c1.6,0.9-0.2,3.8-1.5,5.7s0.2,1.8,1.6,2.2c1.3,0.4,3,1.5,3,3.8s3,9.5,4,11.4  s4.4-1.1,5.3-2.3s1.9-0.9,3.6,0.2c1.7,1.1-1.2,6.1-0.8,7.9c0.5,1.9,3.4,2.3,6.4,2s4.4-0.6,5.3-2.2c0.9-1.6,2.2-3.3,3.6-4.5  s4.4-3.1,6.5-3.4c2.2-0.3,5.8-0.6,7.6,3.7c1.9,4.4,2.6,3.3,5.8,4.8c3.1,1.6,11.8,1.6,13.7,1c1.9-0.6,0.6-2.1,2.9-1.4  c2.2,0.7,1.4-0.7,3.3-1.1c1.9-0.4,2,2.7,2.3,4.7s-1.6,5.5-3.1,8.4s0,6.7,1.7,7.9s2.8-1.1,3.9-2.1s6.7,4.1,7.6,5.6s2.5,1.9,5.4,2.2  c2.9,0.4,3.7,3.8,5.6,5.1c1.9,1.3,6.1,1.9,8.4,1c2.3-0.9,3.7-0.8,5.9-1.1s1.8-0.1,3.1,0.9s2.8,0.1,3.3-1.2s0.9-1.9,2.5-1.9  s1.7,0.3,3.4-0.4s2.1-3.5,2.3-6.1s0.9-3.4,2.6-4.8c1.7-1.4,3.4,0.1,4,2s1.4,2.1,2.8,2.1c1.4,0,0.8,5.1,0.1,7s-1.2,6-1.5,7.7  c-0.3,1.8,0.5,2.6,2.4,2.1s2.3-0.2,2.3,1.4s0.6,2.2,1.6,1.5s2.6,0,4,0.1s4-1.7,6-1.8s0.4-3,1-4.4s1-3.1,0-4.4c-1-1.3-1.3-2,0.5-3.3  s2.4-3.7,2.7-4.4s1.8-3.7,3.6-5.3s1.6-5,2.5-5.8s2-2.4,4.1-2.4s4.7-2.5,6-3.8s4.7-3.6,6.3-5.1s4.4-0.4,6.1-1.4c1.7-1,4.2-0.4,7,0  c2.9,0.4,3.1,0.1,4-1.2s3-0.2,5.5-0.8s-0.1-3.7-0.8-5.9s0.6-3.4,1.9-5c1.3-1.6,1.4-3.3,0.5-4.5s0.4-12.7,0.4-15.2s0-4.1,0.4-7.1  c0.4-3.1-0.5-4.5-1.7-6.7s-1.2-5.8-1.3-8.8s0.1-4.8-0.5-8c-0.6-3.1-1.8-7.9-2.4-9.7c-0.6-1.8-1.4-4-0.8-4.6c0.5-0.5,0.7-1.3-0.2-3.8  s1.8-4.7,2.3-6.4c0.5-1.8-1.5-0.8-1.8-0.3s-0.8,2.4-1.4,2.9c-0.6,0.5-1.5,2-1.5,2.9c0,1-0.6,2.5-2.2,2.9c-1.6,0.4-2.5,1.8-3.5,3.1  c-1,1.3-1-1.6-0.7-2.5c0.3-1-1.1-0.1-1.8,0.9c-0.7,1.1-2.2,0.2-3.2-0.8c-1-1.1-2.7,0.6-3.8,2.3c-1.1,1.7-0.6,3.1-0.4,4.7  c0.2,1.6-2.2,1.2-2.8,0.8c-0.7-0.4-2.7,1.2-4.5,1c-1.7-0.2-3.5,0.2-4,0.6c-0.5,0.3-2.8-0.6-0.7-1.7s-0.8-1.8-1.8-1.9s-1.3-1-1.5-2.6  s-2.7-2.4-3.5-4.5s-1.5-2.1-2.7-2.5s-3-2.2-4.3-4.1s-0.2-1.5-1.5-1.6s-5.2,2.7-7.4,3.4c-2.3,0.7-1.1-2.6-0.5-3.5s-3.7-0.8-5.1-1.4  c-1.4-0.6-2.5,1.3-4.1,0.1c-0.8-0.6-1.1-1.2-1.3-1.8C551.5,444,549.5,443.2,548.2,442.1z" stroke-miterlimit="10" stroke="#FFFFFF"/>
<path name="南阳市" fill="#D3D3D3" d="M426,456.3c-0.1-3.1-0.3-4.4-0.3-6.1s1.2-2.8,2-3.5s1-1.6-1.5-2c-2.5-0.3-2.5-2.4-2.9-5.1  c-0.3-2.7-1.5-2.8-4-4.6c-2.5-1.9-5-1.3-7.5-0.7c-2.5,0.6-0.7,3.4-2.2,3.9c-1.5,0.6-2,4.3-2.1,6.5c-0.1,2.1-1.4,3.9-3.5,5  c-2.1,1.2-8.6-3.2-11.6-4.6s-2.9,1-3.9,3.1s-0.6,1.8-3.3-0.4c-2.7-2.3-4.6-1.7-7.7-1.6s-4.7,1.5-5.7-1.1s1.3-5.3,2.4-7.2  c1.1-1.9,1.6-0.6,2.2,0.6c0.6,1.3,1.9,1.3,1.8-1.1s-3-3.5-4.2-3.8c-1.2-0.2-1.6-1.3-1.3-3.4c0.3-2.1-0.5-2.3-1.1-3.6  c-0.5-1.4-1.2-2.7-1.2-4.7s0.7-4.8,1.2-7.7c0.4-2.9-0.5-1.9-3-3.9c-2.5-1.9-2.7-3.8-3.2-6.6c-0.5-2.9,0.9-4.7,2.8-6.6  s2.9-3.8,3.2-5.7c0.3-1.9,3-0.4,4.4,0.4c1.4,0.9,2.6,1.2,4.2,0.1s4.6-0.5,6.5,0.1s4.6,2.2,6.4,0.1c1.9-2.2,0-10.4-1-13.6  s1-3.7,1.1-6.5s-1.3-7.9-3-9.3s-3.5-2.1-5-1.7s-1.4,1.4-5.5,0.3c-4.2-1.2-3.2-3.5-5.5-6.5s-2.1-2.8-4.8-2.8s-2.5-2.5-3.7-6.5  c-1.2-3.9-4.4-3.7-6-6.2s-10.4-4.8-12.9-6.9s-4.4,1.4-7.8,3.5c-3.5,2.1-4.4,1.6-8.1-0.2c-3.7-1.8-9.2,0-12.5-3  c-3.2-3-2.8-0.7-4.8,1.8c-2.1,2.5-3.7-2.3-4.8-4.6c-1.2-2.3-4.9-1.8-5.8-4.4c-0.9-2.7-2.5-0.4-5.5,0.7s-5.4-1.5-6.2-4  c-0.8-2.5-8.1-2.1-10.7-2.1c-2.7,0-3.3-1.4-4.8-2.6s-4.2,3.1-5.5,4.4c-1.2,1.3-1.9,3.6-0.9,6.1c1,2.6,2.3,2,1.9,4.5  c-0.4,2.4-2.2,1.1-4-1.1s-2.9-1.4-2.9,0s-2.3,3.4-5,4.8c-2.7,1.3-3.8,1.7-4.6,0.9c-0.8-0.8-1.8-1.4-5.9-1.9  c-4.1-0.4-1.4-4.9-1.9-6.8c-0.4-1.9-9-6.3-10.9-6.5c-1.9-0.1-2.6,0.7-3.7-1.4c-1.1-2.1-5.2-2.1-7.8-3.1s-7.6-1.3-10.6-1.6  c-3-0.2-5.9-1.7-7.5-3.5s-5.3,0-7-0.2s-5.7-2.4-7.7-3.1c-2.1-0.7-4.5,6.3-5,9.2c-0.5,2.9-2.7,2.4-4.1,1.6c-1.4-0.8-1.6-0.5-2.3,1.1  s1.7,2.8,1.7,2.8s0.6,0.2,1.6,1.9c1,1.7-4.1,7-5.9,9.3c-1.8,2.3-3.3,1.6-4.6,0c-1.1-1.3-3.2-1.2-3.9-1.1c0.4,0.9,0.7,1.8,0.7,2.5  c0.2,2.6,0.8,4.1,1.8,6c1,2-2.6,5.9-3.6,7c-1.1,1.2,2.6,4.6,3.8,6.2s0.1,4.2-1.3,4.9c-1.4,0.7-1.1,6.1-1.4,8.3  c-0.4,2.1,0.9,5.9,1.9,6.1s1,1.1,0.8,3c-0.1,1.9,0.4,2.4,1.8,1.1c1.4-1.3,1.1-1.1,2.2-0.7c1.1,0.4,6.6,7.4,8,8.9  c1.4,1.6,0.9,2.5-0.7,3.2c-1.5,0.7-1,2.1-0.2,2s5.7,0.5,6.9,1.1s0.2,1.6,0.2,2.6c0,1.1,0.7,1.1,1.7,1.5s1.8,4.4,0.7,5.9  s-1.5,4.8-1.5,6.2c0,1.4,0.6,0.8,1.8,0.7c1.1-0.1,2.2-0.2,2.2,1.6s1,2.3,2,2.7c1.1,0.4,3-0.2,3.4,1.1c0.4,1.3,0.5,1.8,1.8,1.3  c1.2-0.4,1.1-0.4,2.5,1.1c1.3,1.4-0.1,3.2,0.7,4.3c0.7,1.1,2.3,0,4.4,0c2.1,0-2.3,3.1-1.9,4.2c0.5,1.1,3.6,4,5.3,5.6s3.6,6.5,4.8,9  s4.8,0.6,5.7-0.4s1.4-1.9,2.3-0.4c1,1.5,3.1,0.2,6.3,0.7s6.5,6.2,6.8,8c0.2,1.9,1.1,3.3,4,3.5c2.8,0.1,5.5,2.2,7.5,2.7  s4.3,1.5,6,0.6c1.7-0.9,3.1,3.1,5,4.9c2,1.8,3.1-0.1,3.6-1.3c0.5-1.2,1.8-1.6,2.9,0s3.7,4.4,5.1,5.4c1.5,1,2.9,2.2,5.5,2  s4.7,2.6,6.6,2.9c2,0.4,3.2,3.8,4.4,4.3c1.2,0.5,4.2-2.6,4.3-4.3c0.1-1.7,3.1-0.4,5.5,0.6c2.5,1,3.8-1.1,6.7-1  c2.9,0.1,4.2-0.1,5.4-1c1.3-0.9,10,1.7,11.6,2.1s5.2,1.3,7.8,1.1c2.6-0.2,6.4-3.1,8-4.2c1.5-1.2,2.6-0.7,3.3,1.4  c0.7,2.1,3.1,0.1,3.9-1.1c0.9-1.2,5,1.1,6.4,1.7c1.4,0.7,0.4-2.6,1.9-4.5s7.7,2.9,9.8,3.7c2.1,0.8,2.5-0.4,3.4-1.9  c0.9-1.4,2.4-3.4,4.1-3.7c1.8-0.3,3.2,1,4.3,2.5c1.1,1.5,4.9,5,6.2,6.1c1.2,1.1,0.8,3.3,2.1,4.2c1.3,0.9,3.6,2.1,4.4,2.1  s2.1,0.2,3,1s1.6,2.3,4.1,1.2c2.5-1,5.8-4.9,6.7-6.3c0.9-1.5,1.7-0.6,3.3-0.3c1.6,0.2,2.9-0.9,3-2.3s0.4-1.1,1.5-1.1s2-1.7,2.3-3.4  c0.2-1.7,2.4-2.1,4.3-1.8c1.9,0.3,2.3,0.6,3.5-0.9c0.4-0.5,0.7-0.5,0.9-0.3c0.2-0.1,2.2-0.6,3.2-1.6  C425.7,461.2,426.2,459.4,426,456.3z" stroke-miterlimit="10" stroke="#FFFFFF"/>
<path name="郑州市" fill="#D3D3D3" d="M368.8,258.6c2.1,1.3,1.7-0.6,3.2-2.9c1.5-2.4,3.6-4.3,5.9-4.3c2.2,0,6-1.7,6.3-5  c0.3-3.4,0.8-4.1,3.5-1.8c2.7,2.2,4.3,2.1,5.2,4.3c0.8,2.2,3.2,3.6,5.2,2.5s3.2-0.3,5.2,1.5s2.7,2.4,4.1,1.3  c1.4-1.1,4.1,0.1,5.5,2.2s2.9,2.9,4.9,2.1s2.5-3.6,4.8-4.3c2.2-0.7,4.3-0.5,6.4-1.4c2.1-1,4.8-0.6,6.1-0.5c0.9,0.1,1.4,0,1.6-0.1  c-0.2-0.9,0.1-1.9,0.3-3.4c0.3-2.2-0.9-4.3-0.9-5.6s0.5-3.4,1.7-5.2c1.3-1.8,6.4,0.6,8.6,0.8s1.2-3.1,1-4.2c-0.2-1.1,0.9-3,1.3-2.4  c0.5,0.6,1.4,0.2,2.9,0.2s5.2-7.5,6.2-9c1-1.6,0.6-4,0.6-6.5s0.5-1.7,0.8-2.8s1-3-0.2-5s0.4-1.9,0.4-5s-0.1-3.7-1.2-4.9  c-1-1.2-0.6-2.2,0.1-3s3,0.1,4.2-0.7s1.3-1.3,0.8-2.9c-0.4-1.4,1-3.8,1.3-4.2c-0.7-0.4-1.4-0.9-2.1-1.4c-2.2-1.4-3.1-4-9.2-3.8  s-9.6,5.2-12,6.6c-2.4,1.4-6.9,0.3-9.9-0.1c-3.1-0.4-6.7-3-10.3-2c-3.6,1-11.8-4.2-13.6-5c-1.8-0.8-13.7-1.6-16.1-1.7  s-6.8,3.2-9.1,3.4s-3.7,2-8.9,6.3c-5.2,4.2-12.5,5.5-16.5,5c-3.9-0.5-11.7,1.1-15,2.5c-1.2,0.5-2.4,0.9-3.3,1  c-0.1,0.6-0.3,3.8,3.2,3.1c3.8-0.7,5.2-1.7,5.4,0.5c0.2,2.2,2.2,5.6,0.9,6.3c-1.3,0.7-5.2,1.2-6.4,1c-1.2-0.2-2.6,1.7-2,3.3  s1.8,5.3,1.8,7.7s1.4,3.6,2.2,4.2c0.9,0.6,2.8,2.2,5.2,2.6c2.4,0.3,6.6,1.4,5.7,1.8c-1,0.4-4.5-0.6-4.5,1c0,1.7,0.2,6-1.6,5.9  c-1.8-0.1-4-0.9-5.2-0.6c-1.2,0.3-3.1,0.2-4.3-0.5c-1.2-0.7-1.5-2-4-1.8s-3.9,0.2-3.7,2.2c0.1,2.1-0.4,5.4-0.7,7.2  c-0.2,1.8-0.9,5.2,0.1,6.1c1,0.9,4.6,2.7,5.7,2.5s4.5-0.2,4.5,1.3s-0.6,3.9,3.3,3.8s6.3-1.7,9.2-1.5c2.9,0.1,3,2.3,5.1,2.3  c1.7,0,3.3-0.2,3.9,0.6C363,258.1,366.9,257.5,368.8,258.6z" stroke-miterlimit="10" stroke="#FFFFFF"/>
<path class="st0" d="M482.1,125.1L482.1,125.1L482.1,125.1z" id="path14"/>
<path name="安阳市" fill="#D3D3D3" d="M524.7,92c1.5-1.5,1.9-2.4,2.1-4.7c0.2-2.2-0.3-2.6,2.7-4.5c3-1.8,1.3-5.3,1.8-8.9  c0.5-3.7-0.8-5.3-3.8-7.3c-2.8-2-2.8-4.5-2.8-4.6c-0.9,0-1.2-1.1-0.2-2c1.2-1.1,1.2-1.4,0.1-4.4c-1.1-3-4.9-1.8-7.2-1.6  c-2.4,0.1-5.2,1.1-7.7-0.3c-2.5-1.4-5.4,0.6-9.6,2.1s-5.4-0.5-7.8-2.5c-2.3-2-9-6.1-12.4-8.8s-13.4-7.3-14.4-7.6s-1.4,0.3-2.4,2  s-5.5-1-6.9-2.6c-1.5-1.5-3.8-4.4-5-5c-1.3-0.5-3.1-1.6-3.6-3.8c-0.5-2.1-1.6-0.3-2.1,0.8c-0.5,1-2.2,1.8-2.4-0.8  c-0.2-2.6-1.5-0.5-1.7,0.8s-2.5,0-3.2-1c-0.8-1-5.7,0.3-7.6,0.8c-1.9,0.4-5-1.4-6.7-2.9s-1.9,3.4-2,5.3s-1.4,4.2-1.4,6.1  c0,1.9-0.4,2.7-1.7,3.7c-1.3,0.9-1,1.5-0.3,2.2c0.8,0.7,0.9,1.6-1.2,3.1s-0.7,2.6,0.6,3.5c1.3,0.9,0.8,2.6-1.2,3.6s-0.9,1.5,0.3,3.6  c1.2,2.1,1.5,3.8-0.6,5.2c-2.1,1.5,0.3,2.1,1.6,2.3s1,0.1,1,1.9c0,1.8-1.6,2.6-4.2,3.2c-2.6,0.5-1,4.3,0,6.3c1,2.1,0.5,3.8-0.9,5  c-1.5,1.2-0.6,2.4,0.8,4c0.2,0.3,0.3,0.5,0.3,0.7c1.4,0.1,6.4,0.9,8.6,4.2c2.6,3.9,5,7.6,4.9,10s-3.7,5.2,1.1,4.7  c4.8-0.5,9.9,0.7,11-1.1c1.1-1.8,2.1-1.2,4.2-1.2c0.3,0,0.7,0,1-0.1c-0.8-2.1,4.9-6.5,6-7.5c1.2-1,1.3-2.3-0.7-2.5  c-2-0.1-4.2-5.4-1.1-8.6c3.1-3.1,1.3-6.4,0-8.8s0.7-4,3.4-4.3c2.7-0.3,2.2-3.9,4.9-6c2.7-2.1,2.5,2.1,2.5,4.5s3,1.5,5.1,0.3  s4.8,4,6.7,6c1.9,1.9-2.8,8.5-6,10c-3.1,1.5,0.1,4.9,1.2,6.9c1,1.9,2.4,4,4.8,0.9s7.8-1.6,10.9-2.5s8.5,0.4,11.2-0.7  c2.7-1.2,4.5,3.1,7.3,3.1s5.4,0.7,7,4s-7.7,13-10.1,14.6c-2.5,1.6-7.9,4.2-10.4,6s-5,4.4-5.3,6.3c-0.1,0.6-0.6,1.4-1.2,2l0.1-0.1  l0,0l0,0l0,0c2.6,2,2,6.7,1.6,8.3c-0.5,1.6-0.6,5.8-0.6,8.4s-1,4.6-1.8,6.2c-0.8,1.5-0.8,4,1.2,5.5s6.1,3.2,8.7,1.8s2.4-4.5,2.8-7.3  c0.3-2.8,7.8-5.3,10.7-6.2c2.9-0.9,7.6-2.4,10.5-2.4s3.5-2.2,7.2-3.4c3.3-1.1,4.3-0.7,5.9,1.2c4.2-3.1,2.3-7.7,0.6-10.9  c-1.7-3.2-0.3-2.2,0.9-3.3c1.2-1.1,1-2.2-0.5-4.1s-3-3.5-5.6-5.1s-1.8-4.1-0.6-6.8c1.2-2.7,1.9-4.1-0.3-8  C520.6,95,523.2,93.5,524.7,92z" stroke-miterlimit="10" stroke="#FFFFFF"/>
<path name="鹤壁市" fill="#D3D3D3" d="M488.5,116.9c2.5-1.8,7.9-4.4,10.4-6s11.8-11.4,10.1-14.6c-1.6-3.3-4.2-4-7-4s-4.6-4.3-7.3-3.1  c-2.7,1.2-8-0.2-11.2,0.7c-3.1,0.9-8.5-0.6-10.9,2.5s-3.7,1-4.8-0.9c-1-1.9-4.3-5.4-1.2-6.9c3.1-1.5,7.9-8.1,6-10s-4.6-7.2-6.7-6  s-5.1,2.1-5.1-0.3s0.1-6.6-2.5-4.5c-2.7,2.1-2.2,5.7-4.9,6c-2.7,0.3-4.8,1.9-3.4,4.3c1.3,2.4,3.1,5.7,0,8.8  c-3.1,3.1-0.9,8.5,1.1,8.6s1.9,1.5,0.7,2.5c-1.1,1-6.8,5.4-6,7.5c2-0.3,4.2-1.2,4.6,1.3c0.5,2.9,1.1,3.4,0.9,7.4  c-0.1,4-0.6,4.6,2.5,5.7c3,1.2,7.1,5.3,9.7,6s5.9-1.8,7.2,2.7c1.4,4.5,5,3.3,7,3c1.2-0.2,3.1-1.2,4.3-2.4c0.6-0.6,1.1-1.4,1.2-2  C483.5,121.3,486.1,118.7,488.5,116.9z" stroke-miterlimit="10" stroke="#FFFFFF"/>
<path name="洛阳市" fill="#D3D3D3" d="M298.667,311.667c3.656-0.272,5.27,0.744,7.667-0.667c1.722-1.014,2.631-2.565,3.667-4.333  c0.76-1.297,2.103-3.59,2.333-6.667c0.315-4.207-1.775-5.533-0.667-8c0.784-1.746,1.935-1.314,4.333-3.667  c0.705-0.692,3.725-3.654,4.333-8c0.325-2.319-0.172-4.073-1-7c-0.228-0.807-1.075-3.67-3-7.333c-2.101-3.998-3.357-4.894-3-6.667  c0.355-1.766,1.991-2.81,3.333-3.667c3.496-2.232,6.019-1.678,9-2.667c2.294-0.761,3.88-2.112,5.115-3.523  c-0.139-0.096-0.28-0.194-0.382-0.277c-1-0.9-0.4-4.3-0.1-6.1c0.2-1.8,0.8-5.1,0.7-7.2s1.2-2,3.7-2.2c2.5-0.2,2.8,1.1,4,1.8  c1.2,0.7,3.1,0.8,4.3,0.5c1.2-0.3,3.4,0.5,5.2,0.6c1.8,0.1,1.6-4.3,1.6-5.9c0-1.7,3.5-0.6,4.5-1c1-0.4-3.3-1.4-5.7-1.8  c-2.4-0.3-4.3-1.9-5.2-2.6c-0.9-0.6-2.2-1.8-2.2-4.2c0-2.4-1.2-6.1-1.8-7.7c-0.6-1.6,0.8-3.4,2-3.3c1.2,0.2,5.1-0.3,6.4-1  s-0.6-4.2-0.9-6.3c-0.2-2.2-1.6-1.2-5.4-0.5c-3.5,0.7-3.3-2.6-3.2-3.1c-1.6,0.2-2.8-0.2-3.5-1.1c-1.2-1.5-2.6-1.2-4.5-1.1  c-1.8,0.1-5.7-2.3-7-3.3c-1.1-0.9-1.5-8.1-3.6-9.7c-0.2-0.2-2.4,0-3.5,1.4c-3.2,4,0.8,4.7-3.5,2.5c-2.1-1.1-5.2-1.4-6.4-1.4  c-1.5,0-4.5-0.6-6.7-1c-2.2-0.3-3.1-3-4.7-1.7c-1.6,1.3-2.9-1.1-3.8-2.4c-0.9-1.3-1.2-1.2-2.2,1.4c-1,2.6-1.8,0.5-2.4-0.6  c-0.6-1.1-1.4-2.2-3.1-2.2c-1.7,0.1-3.8-2.9-5.1-4.8c-1.3-2-4.7-1.7-8.2-1.5c-3,0.2-2.8-1.8-2.7-2.3c-0.1-0.1-0.1-0.2-0.2-0.3  c-0.6-1.2-0.4-2.2-3-2.2c-0.6,0-1.1,0-1.5-0.1c-0.9,0.9-5.4,5.4-3.6,5.4c2,0,4.8,2.1,2.9,2.6c-2,0.6-2.2,1.8-1.4,2.5  c0.8,0.7,3.6-1.1,2.2,0.6c-1.4,1.6-2.3,2.6-4.8,3.4c-2.5,0.8-3.1,1-3.5,2.6c-0.4,1.6,0,1.9,1.6,1.9c1.6,0,3.8,2.2,5.5,2.2  s3,0.9,2,1.9s-1.4,1.1,0.4,2.6c1.9,1.5,3.7,4.1,2.7,6c-1,2-1.6,3.6-1.8,5.5c-0.1,1.9-1.6,4.8-3,7c-1.4,2.2-2.4,3.9-2.6,5.2  s-0.5,3.3-2.2,1.5s-4.5-3.9-4.9-2.8c-0.4,1.1,0.9,1.8-1.4,2c-2.3,0.2-3.6-1.2-4.6,0.3s-1.6,2.8-3.1,2.8s-2.6-2.8-3.6-1.6  c-1.1,1.2,0,2.9-2.6,2.6c-2.6-0.3-4.7,0.7-4.1,1.9c0.7,1.2,2,2,0.8,2c-1.2,0-9.9-3.2-11.4-2.2s-5.1,0.1-5.5,2.2  c-0.3,2.1-1.2,3.5-4.4,4.7c-3.1,1.2-7.1,3.2-9.3,3.2c-2.3,0-5.1-1.1-6.8,0.1c-1.7,1.2-4.1,0.7-4.4,2.1c-0.3,1.5-1.1,1.8-2.4,1.8  c-1.4,0-2.9,1.3-3.6,2.5c-0.7,1.2-4.2,1.1-2.9,2.7c1.3,1.6,2.2,2,3.9,3.8c1.7,1.9,2.9,0.5,1.8,5.6c-1.1,5.2,0.3,6.1-1.2,7.4  c-1.6,1.3-2,2-0.2,2.7s6.9,3.8,8.9,5.5s2.4,2,3.8,4.1c1.4,2,1.6,2.4,3.8,2c2.2-0.3,2.5,0.4,1.6,2c-1,1.6-2.4,2.6-1.9,5.5  c0.5,2.9,1.8,6.2,0.1,7.5c-1.7,1.3-3.9,4.1-6.6,5.2c-2.8,1.1-4.9,3.2-4.1,5.5c0.8,2.2,2.2,8.6,3.4,10.2c1.2,0.5,2.2,0.9,2.9,1  c1.7,0.2,5.4-1.6,7,0.2c1.6,1.8,4.5,3.3,7.5,3.5s8.1,0.6,10.6,1.6c2.6,1,6.7,1,7.8,3.1c1.1,2.1,1.8,1.3,3.7,1.4  c1.9,0.1,10.4,4.6,10.9,6.5c0.4,1.9-2.2,6.3,1.9,6.8c4.1,0.4,5.1,1.1,5.9,1.9s1.9,0.4,4.6-0.9s5-3.3,5-4.8c0-1.4,1.1-2.2,2.9,0  s3.6,3.6,4,1.1c0.4-2.4-0.9-1.9-1.9-4.5c-1-2.6-0.3-4.8,0.9-6.1c1.2-1.3,4-5.6,5.5-4.4s2.1,2.6,4.8,2.6  c1.428,0,4.11-0.108,6.442,0.156c0.037-0.923,0.219-1.892,0.691-2.823C289.232,313.591,294.876,311.949,298.667,311.667z" id="path17" stroke-miterlimit="10" stroke="#FFFFFF"/>
<path class="st0" id="path18" d="M412.7,323c-0.039,0.011-0.076,0.019-0.115,0.03C412.696,323.166,412.7,323.216,412.7,323z"/>
<path name="平顶山市" fill="#D3D3D3" d="M290.9,322.1c0.8,2.5,3.2,5,6.2,4c3-1.1,4.6-3.4,5.5-0.7c0.9,2.7,4.7,2.1,5.8,4.4c1.2,2.3,2.8,7.2,4.8,4.6  c2.1-2.5,1.6-4.8,4.8-1.8s8.8,1.2,12.5,3s4.6,2.3,8.1,0.2c3.5-2.1,5.3-5.5,7.8-3.5c2.5,2.1,11.3,4.4,12.9,6.9c1.6,2.5,4.8,2.3,6,6.2  s0.9,6.5,3.7,6.5c2.8,0,2.5-0.2,4.8,2.8s1.4,5.3,5.5,6.5c4.2,1.2,4,0.1,5.5-0.3c1.5-0.4,3.3,0.3,5,1.7s3,6.5,3,9.3  c-0.1,2.8-2.1,3.2-1.1,6.5c0.5,1.6,1.2,4.5,1.6,7.2c1.2-0.5,8.3-3.2,10.8-2.9c2.7,0.3,11.9,2,11.9,0.3c-0.1-1.6-1.3-0.7-2.5-4.3  c-1.2-3.6-2.2-10.2-1-12.1c1.2-1.9,2.3-3.8,2.2-5.5s0.2-3.1,1.3-3.9c1.1-0.8,2.1-1.6,1.7-3c0-0.2,0-0.3,0-0.5  c-0.3,0.1-1.4,0.2-2-0.4c-0.8-0.7-4.8-0.8-5.8-0.7c-1,0.1-3.4-0.8-4.4,0.4s-1.9,1.6-4,0.4c-2.1-1.2-5.5-1-4.7-2.8s0.4-4.2,2.2-5.6  c1.8-1.3,3.6-3.6,3.8-5.5c0.2-1.9,2.1-4,3.7-4.8c1.6-0.7,4-2.6,4.1-4.9c0.1-2.3-2.7-5.2-1.4-5.8c0.778-0.389,2.03-0.592,3.385-0.97  c-0.094-0.116-0.264-0.293-0.585-0.43c-1-0.6-2.4,0.9-2.8-0.1c-0.4-1-2.1-3.1-2.9-4.7c-0.7-1.6-4.4,0-5.9,0.2s-4.7-0.9-7.6-6  c-2.9-5.1-1.8-17-1.3-19.5s0-5.9-1.8-6.4s-5-2.7-6.7-4.6c-1.8-1.8-3.2-4.8-4.5-4.2s-3.8,1.6-6,1.9s-4.7-1.8-6.2-3.3  s-2.1-5.4-2.1-7.4s-0.7-2.7-2.3-3.8c-1.7-1.1,0.7-4.1,0.5-5.8c-0.1-1.7-2.1-1.3-4.2-1.3c-2.1,0-2.2-2.1-5.1-2.3  c-2.9-0.1-5.3,1.5-9.2,1.5c-3.9,0.1-3.3-2.3-3.3-3.8s-3.4-1.5-4.5-1.3c-0.998,0.182-3.954-1.278-5.318-2.223  c-1.235,1.411-2.821,2.762-5.115,3.523c-2.981,0.989-5.504,0.435-9,2.667c-1.342,0.857-2.978,1.901-3.333,3.667  c-0.357,1.772,0.899,2.669,3,6.667c1.925,3.663,2.772,6.526,3,7.333c0.828,2.927,1.325,4.681,1,7c-0.608,4.346-3.628,7.308-4.333,8  c-2.398,2.352-3.549,1.921-4.333,3.667c-1.108,2.467,0.982,3.793,0.667,8c-0.23,3.077-1.573,5.369-2.333,6.667  c-1.036,1.768-1.945,3.319-3.667,4.333c-2.396,1.411-4.01,0.394-7.667,0.667c-3.791,0.282-9.434,1.924-11.333,5.667  c-0.473,0.931-0.654,1.9-0.691,2.823C288.721,320.392,290.523,320.922,290.9,322.1z" id="path19" stroke-miterlimit="10" stroke="#FFFFFF"/>
<path name="许昌市" fill="#D3D3D3" d="M468,309.5c1.462-1.045,1.941-2.689,2.25-3.75c1.075-3.691-0.413-7.147-1.75-10.25  c-0.402-0.934-1.102-2.29-2.5-5c-1.705-3.304-1.974-3.623-2.25-4.75c-0.227-0.926-0.966-3.945,0.5-6.5  c0.807-1.408,1.437-1.198,2.25-2.75c0.13-0.249,1.171-2.301,0.75-4.75c-0.376-2.191-1.647-3.103-2.5-4.5  c-0.965-1.581-1.13-3.358-0.918-5.25c-1.057,0.894-1.989,2.405-3.932,3.099c-2.7,0.9-4.6-0.4-5.4-2.3c-0.9-1.9-1.6-1.4-3.8-1.1  c-2.1,0.3-3-0.1-3.7-1.1s-1.3-1.7-2.8-2.1c-1.5-0.4-2.4-1.6-3.2-3.1c-0.9-1.5-2.4-1.3-3.8-2.4c-0.4-0.3-0.6-0.7-0.7-1.1  c-0.2,0.1-0.7,0.2-1.6,0.1c-1.3-0.1-4-0.4-6.1,0.5c-2.1,1-4.2,0.7-6.4,1.4c-2.2,0.7-2.8,3.5-4.8,4.3s-3.5,0-4.9-2.1  c-1.4-2.1-4.1-3.4-5.5-2.2c-1.4,1.1-2.1,0.6-4.1-1.3c-2-1.8-3.2-2.7-5.2-1.5c-2,1.1-4.3-0.3-5.2-2.5c-0.8-2.2-2.5-2.1-5.2-4.3  c-2.7-2.2-3.2-1.5-3.5,1.8c-0.3,3.4-4.1,5-6.3,5c-2.2,0-4.3,2-5.9,4.3c-1.5,2.4-1.1,4.2-3.2,2.9c-1.9-1.1-5.8-0.5-6.7-0.4  c0.2,0.2,0.3,0.4,0.3,0.7c0.1,1.7-2.2,4.7-0.5,5.8c1.7,1.1,2.3,1.8,2.3,3.8s0.6,5.9,2.1,7.4s4,3.6,6.2,3.3s4.7-1.3,6-1.9  c1.3-0.6,2.7,2.3,4.5,4.2c1.8,1.8,4.9,4.1,6.7,4.6c1.8,0.5,2.3,3.9,1.8,6.4s-1.6,14.4,1.3,19.5c2.9,5.1,6.1,6.2,7.6,6  s5.1-1.8,5.9-0.2c0.7,1.6,2.5,3.6,2.9,4.7c0.4,1,1.8-0.4,2.8,0.1c0.7,0.4,0.7,0.8,0.7,1c0.8-0.2,1.6-0.4,2.3-0.7  c2.1-0.9,4.1,0.2,5.5,0.6c1.5,0.5,3,0,3.6-1.5c0.6-1.5-3.5-3.7-2.8-5.8s1.8-5.4,1.3-7.2c-0.4-1.8-1.6-4.3-0.2-5.7  c1.3-1.4,3.7-0.9,4.7-2.1c1-1.3,2.5-1.7,3.8-0.2s3,2.1,3.5-0.5c0.5-2.6,1.1-3.8,1.9-4.9c0.8-1.1,2.8-1.9,4.8-3.5  c2-1.6,6.6-3.2,7.9-2.1c1.3,1.1,3.3,3.6,5.3,3.8c2.1,0.1,5.4,1.7,5.4,5.1c0,3.4-2.4,4.9-0.2,7c1.695,1.695,2.395,2.68,2.136,4.046  C463.73,309.904,465.913,310.992,468,309.5z" id="path20" stroke-miterlimit="10" stroke="#FFFFFF"/>
<path name="周口市" fill="#D3D3D3" d="M457.6,317.1c-0.5,1.7-2.1,4.2-1.1,5.9c1,1.6,0.4,4.6,2.5,3.9c2.1-0.8,4.4-4,5.9-4.2s2.9-1.1,4.2-2.4  c1.3-1.3,0.9,2,1.6,3.7s-0.3,5.3,1.1,6.5c1.4,1.2,1.2,1.8,1.2,3.7s0.3,3,1.2,4.4c0.9,1.2-0.5,4.5-1.3,6.1c0.4-0.2,0.8-0.1,1.4,0.4  c2.3,1.8,5.4,4.1,7.7,3.3c2.3-0.8,6.3-1.7,7.6-0.1c1.3,1.6,1.6,2,3.3,2.3c1.7,0.3,2.6,0.8,3.2,2.9c0.6,2.2,0.6,6.7,2.5,7.7  c1.9,1,2.5-2.2,3.9-0.9c1.4,1.3,0.8,2.6,3.4,3.3c2.6,0.7,4,1.7,4.2,3.6c0.2,1.9,0.2,5.6-1.5,6.7c-1.7,1.2-2.4,3.6-1.6,5.3  c0.8,1.7,1,3.3,3.3,5s3.6,1.7,3.7,3.2s2.6,1.9,5.3,2.2s1.4-1.6,3.6-0.8c1.6,0.5,2.4,0.5,2.7,0.5c-0.4-1.5-0.3-2.7,0.1-3.6  c0.5-1.3,2.5-4.2,5.2-4.2s2.3,3.2,2.5,4.7s3,2.9,5.3,3c2.3,0.1,6.8,0.9,9.1,0.5c2.4-0.4,3.9-1.9,4.1-3.4s5.7-2.3,8.1-2.4  c2.5-0.1,2.5-1.6,1.5-3.8c-1-2.2,1.8-4.6,3.3-5.7c1.5-1.1,0.7-3.4,0.7-5c0-1.6,0-2,2.2-4.2s-0.2-5.1-2.3-6.8  c-2.1-1.7-1.6-2.5-0.7-4.1c0.9-1.6,0-1.9-0.6-2.8c-0.6-0.9-0.8-1.7,1.2-2.8s1.4-2.9,1.4-4.8c0-1.9,1.6-2.6,3.6-1.9s1.4-1.6,1.4-3.7  c0-2.1,2.5-2.3,3.7-3.4c1.2-1.1,4.9,0.8,7.8,0.8s4.1,0.1,4.8-1.3c0.7-1.4,2.8-1.6,4.2-1.9s-1.3-6.6-2.6-8.2c-1.3-1.7,0-2.6,0.1-5.8  c0.1-3.2-1.3-2.8-3.1-4.7c-1.7-1.2,1-1,3.2-1.4c2.2-0.4,3.3-7.6,3-9.2c-0.3-1.7-3-2.1-5.7-1.6c-2.8,0.5-0.7-1.9-0.6-4.6  c0.1-2.6,1.1-5.4,2-9c0.8-3,3.9-5.1,6.1-6.6c-0.2-0.1-1.9-1.4-3.8-1.8c-2-0.4-3.7,0.4-5.6-0.1c-1.9-0.4-1.6,1.1-1.8,3.3  c-0.1,2.2-0.3,2.5-3.5,3.1c-3.2,0.6-2,1.9-3.2,3.5c-1.2,1.7-6.5-0.8-8-2.1c-1.4-1.3-2.1,0.1-2.8,1c-0.7,0.9-1.4,1.4-3.8,0.5  c-2.4-0.9-1.7,0.2-4.4,0.9c-2.7,0.6-3.1,1.4-5,3.1c-1.8,1.7-2.7,1.6-4.8,1.1c-2-0.5-1.8,0.6-2.9,2.1c-1.1,1.5-0.6,1.7-2,1.7  s-2.4-5.3-2.4-7.5s1.9-3.1,3.4-4.2c1.5-1,1.3-3.9,0.6-5.1s0.1-10.5,0.1-12.6c0-2.1,0-2.3-1.5-3.7c-1.5-1.5-5.5-1.2-6.6-2.7  s-3.7-1.9-5.4-1.9s-2.5-0.8-3.4-2.4c-0.8-1.5-2.5-2.1-4.2-3.1c0.2,0.5,0.6,2-1.6,2.1c-2.6,0.1-3.6,0.4-5.3,1.2  c-1.7,0.8-3.8,2.3-5.3,3.9c-1.5,1.6-3,0.9-5.3,1c-2.3,0.1-3.8-2.7-6.9-2.7c-3,0-4.9-2.5-6.7-3.5s-4.1-3.5-6-3.4  c-1.9,0.1-2.1,0.9-2,2.3c0.1,1.5,0.3,2.1-1.4,4.7c-1.7,2.6-7.6-1.1-8.9-1.8s-3.4-0.4-3.8,1.5c-0.4,1.9-3.1,1.4-5,1.5  c-0.612,0.031-1.102,0.306-1.568,0.701c-0.211,1.891-0.047,3.669,0.918,5.25c0.853,1.397,2.124,2.309,2.5,4.5  c0.421,2.449-0.62,4.501-0.75,4.75c-0.813,1.552-1.443,1.342-2.25,2.75c-1.466,2.555-0.727,5.574-0.5,6.5  c0.276,1.127,0.545,1.446,2.25,4.75c1.398,2.71,2.098,4.066,2.5,5c1.337,3.103,2.825,6.559,1.75,10.25  c-0.309,1.061-0.788,2.705-2.25,3.75c-2.087,1.492-4.27,0.404-6.564,0.146c-0.062,0.326-0.162,0.668-0.336,1.054  C460.2,312.7,458.1,315.3,457.6,317.1z" id="path21" stroke-miterlimit="10" stroke="#FFFFFF"/>
</svg>