<?xml version="1.0" encoding="UTF-8" standalone="no"?><!-- Generator: Adobe Illustrator 18.0.0, SVG Export Plug-In . SVG Version: 6.00 Build 0)  --><svg xmlns="http://www.w3.org/2000/svg" xmlns:xlink="http://www.w3.org/1999/xlink" contentScriptType="text/ecmascript" zoomAndPan="magnify" contentStyleType="text/css" id="图层_1" mapName="河北省" mapType="省市地图" enable-background="new 0 0 800 600" version="1.1" xml:space="preserve" preserveAspectRatio="xMidYMid meet" viewBox="0 0 800 600" x="0px" y="0px">
<path name="衡水市" fill="#D3D3D3" id="path0" d="M392.6,431.3c1.4-2.2,1.8-4.2,1.8-6.3c0-2.1,0.3-2.2,1.4-2.6  c1.1-0.4,1.9-1.9,2-3.6c0.1-1.7,2.1-2.2,2.2-5c0.1-2.7-0.1-2.3-1.1-2.8c-0.9-0.5-2.7-0.6-4.9-0.2c-2.2,0.4-4.7-0.1-5.7-0.3  c-0.9-0.2-2.8-0.6-3.1,0.3c-0.2,0.9-2.1,1.6-4.9,1.6c-2.8,0-4.7,0.8-5.1,2.2c-0.3,1.4-3.3,5.8-4.8,5.8c-1.6,0-1.2-2.8-1.1-4.5  c0.1-1.7,0.7-3.8-0.4-4.3c-1.2-0.5-2.4-3.2-3.4-4.1c-0.9-0.9-1.7-1.9-0.6-2.5c1.1-0.6,1.3-2.6,1.6-4.1c0.3-1.5,0-1.4-1.8-2.1  c-1.8-0.7-3.4,0.4-4.6,0.8c-1.3,0.4-2.1-0.4-4.6-0.8c-2.5-0.4-2.1-4.7-2.2-6.1c-0.1-1.4-2.1-4.6-4.2-7.8c-1.9-2.8-4.3-2-4.7-1.8  c0,1.1-1.5,1.5-4,3c-3,1.8-6.9,0.9-8.9,0.8c-1.9-0.1-5.4-1-7.3-1.4c-1.9-0.4-2.3,2.4-2.4,4.1c-0.1,1.6-2.8,3.1-3.3,3.4  c0.6,0.5,1.1,1,1.6,1.6c1.4,1.6,1.3,4.9,1.3,6.1c0,1.2-0.1,5,1.9,5.4c2,0.4,3.5,0.7,4.1,2.3c0.6,1.6,0,3.4-1.1,6.4  c-1.1,3.1-6.8,10.2-6.5,11.6c0.3,1.4,1,6.1-0.1,8.6c-1.1,2.6-3.1,6.1-7.8,7.8c-4.7,1.6-2.6,4.8-1.6,5.8c1,1,3.2,0.7,4.9-0.2  c1.7-0.9,4.3-1.1,6.6-0.4c2.3,0.7,3.7,1.3,3.7,3.2c0,1.8-0.6,3.6-2.5,4.5c-1.9,1-3.2,1.8-1.4,3c1.7,1.2,3.8,3.5,5.9,4.7  c2.1,1.2,6,5.2,7.7,5s2-0.1,2.9,1.2c0.9,1.2,4.2,3.1,5.6,3.6c1.3,0.5,1.8,1.1,2.8,2.6c1,1.5,1.7,1.9,1.4,3.4c-0.3,1.4,0.4,0.9,1.7,2  c1.3,1.2,2.1,2.8,3.2,4.1c0.9,1.1,2.3,3.3,2.8,4c0.7-1.8,1.6-4.7,1.6-5.8c0-1.3,0.4-1.7,0.8-1.9c0.4-0.2,1.3-2.4,1.7-3.5  c0.4-1.1,3.3-2.6,3.5-3.9c0.2-1.3-1.6-5.5,1-7.2s6.1-3.9,9.2-3.4c3.1,0.6,6.8,1.5,7.8-0.9c0.9-2.4,0.7-1.9-0.3-2.4  c-1-0.6-1.9-1.2-1.6-3.3c0.3-2.1-0.2-2.6,1.8-2.9c2-0.3,1.7-0.7,1.7-2.1c0-1.4,0.9-4.4,1.8-5c0.9-0.6,0.5-1.2,1-2.5  c0.4-1,1.3-2.5,2.2-2c0.2-0.5,0.8-2.3,1-4.3C388.9,435.6,391.2,433.5,392.6,431.3z" stroke-miterlimit="10" stroke="#FFFFFF"/>
<path name="保定市" fill="#D3D3D3" id="path1" d="M321.7,389.5c0.1-1.7,0.5-4.5,2.4-4.1c1.9,0.4,5.4,1.3,7.3,1.4  c1.9,0.1,5.8,1,8.9-0.8c3-1.8,4.5-1.9,3.9-3.7c-0.6-1.8-1.4-11.7,3.5-13.1c4.9-1.4,6.9-0.7,9.3-2.4c2.4-1.7,2.6-4.7,3.2-6.9  c0.5-2.2,0.6-6.9,0.6-8.9c0-1.9,0.3-4.7,2.3-5.1c2-0.4,2.6-2.3,2.8-3.5c0.2-1.2,1.7-2.6,1.6-4.2c-0.1-1.6,0.4-2.4,1.5-2.8  c1.1-0.4,3.2-1.6,4.3-1.4c1.1,0.2,1.3,2.1,3.3,1c1.9-1.1,7.3-4.9,8.1-6.5c0.8-1.6,1.1-2.3-0.3-2.4c-1.4-0.1-1.6-0.8-1.5-2.2  c0.1-1.4,1.7-4.6-2.2-6.2c-3.9-1.7-0.9-2.2-2.9-2.7c-2-0.5-2.1-1.4-2.1-3c0-1.6-1.3-5.5-2-6.8c-0.7-1.3-0.6-5.2-3.4-5.2  c-2.8,0-3.9-0.9-3.1-1.9c0.8-1,1-2.6,0.9-4c-0.1-1.3,0.1-5.1,0.9-5.6c0.7-0.4,4.3-2.9,5.4-4.1c-0.2-1.3-0.7-2.8-1.3-3.1  c-0.7-0.4-2.3-0.1-3.4,0.3c-1.1,0.4-3,0.4-3.8,0.4c-0.8,0-8-0.6-8.9-0.2c-0.9,0.4-2-1.6-3.1-0.5c-1.1,1.1-4.2,3.7-5.6,4.7  c-1.4,1-3.3,1.6-4.3,1.1s-2.1-3.4-3.2-4c-1-0.6-4.3-3.1-6.2-2.9c-1.9,0.2-8.2-0.7-8.2-3.9c-0.1-3.3-1.1-3.9-0.9-5  c0.2-1,1-2.3-0.1-2.9c-1.1-0.6-3.6-0.1-3.2-1.5c0.5-1.4,1-3.2,2.4-3.1c1.5,0.1,5.8,0.1,5.2-1.3c-0.6-1.4-1.8-2.2-1.9-4  c-0.1-1.8-0.4-2.6-1.7-3.9c-1.3-1.3-1.1-2.4-2.6-2.4c-1.2,0-2.2-1.4-2.5-2.4c-0.7,0.2-0.8,2-1.1,3.3c-0.3,1.4-0.2,2.2-1.7,3.2  c-1.5,1-1.5,3.2-4,7.5c-2.5,4.3-7.4,7.1-9.9,9.5c-2.6,2.5-3.8,0.4-5-0.9c-1.1-1.3-2.6-0.9-4.5,1c-1.9,1.8-3.5,1.9-5.5,1.8  c-2-0.1-1.9,3-3.2,4.5c-1.3,1.4-1.4,2.4-2.7,1.8c-1.3-0.7-4.6-1.9-6.3-2.5c-1.7-0.6-8.7,2.5-10.7,3c-1.6,0.4-3.7,0.5-4.4,0.5  c0.1,0.1,0.2,0.3,0.3,0.4c1.3,2.2,2.6,5,1.1,6.9c-1.5,1.9-4.1,4.9-3.8,7.4c0.3,2.5,1.8,3.5-0.5,4.8c-2.3,1.3-1.6,2.2-1.7,4.3  c-0.1,2.1,0.3,3.3,1.2,4c0.8,0.7,2.8,2.9,0.4,4.2c-2.3,1.3-5.2,1.6-5.2,3.1c0,1.5-0.8,1.6-0.7,3.3c0.2,1.7-1.3,1.6-2.2,1  s-2.6-2.4-4.2-0.8c-1.6,1.7-2.6,2.4-2.8,3.3c-0.3,0.8-1,1-2.3,0.8c-1.3-0.2-1.8-0.3-2.3,0.4c-0.4,0.8-2.3-0.3-3-1.3  c-0.8-1.1-4.4-6.3-5.6-5.4c-1.2,0.9-0.8,2.6-1.4,3.8c-0.7,1.2-3.8,0.9-4.9,1.9c-1,1-2.2-2.1-2.9-0.1c-0.8,2-1.6,3.5-3,4.7  c-1.4,1.2-4.2,1.6-4.2,3.6c0,2,1,3.8,1,5.9c0,2.1,0.4,3.2,1.5,3.5c1.1,0.3,3.9,1.3,2.9,3.3c-0.5,1.1-1.7,2.6-2.8,3.9  c0.9,0.5,7.7,4.2,9.8,5.7c2.2,1.6,3.2,2.3,5,2.2c1.8-0.1,3,0.1,4.2,0.6c1.2,0.5,4.2-1,6.6-2c2.4-1.1,7.4-2.3,11.1-0.8  c3.7,1.5,8.8,4.5,11.1,6c2.3,1.4,3.7,2.5,4.1,3.4c0.4,0.9-1.1,1.2,0.9,3.7c1.9,2.5,3.5,6.3,5,6.3c1.5,0,5.2-1.4,7.2-0.1  c2,1.3,6.7,4.1,7.9,6.6c1.2,2.5,0.9,4.4-0.5,6.1c-1.3,1.7-2,3.1-1.2,3.6c0.8,0.5,1.3,0.4,2.9-0.6c1.5-1,2.3-1.6,3.5-0.5  c1.2,1.2,3.6,2.2,4.6,0.9c1-1.3,1.3-1.1,2.9-0.1c1.5,1,5.6,2.8,7.1,2.1c1.5-0.7,2.3-3.3,4.8-2.3c1.7,0.6,3.1,1.6,4.3,2.7  C318.9,392.6,321.6,391.1,321.7,389.5z" stroke-miterlimit="10" stroke="#FFFFFF"/>
<path name="邢台市" fill="#D3D3D3" id="path2" d="M352.7,485.1c-1.1-1.3-1.8-3-3.2-4.1c-1.3-1.2-2-0.6-1.7-2  c0.3-1.4-0.5-1.8-1.4-3.4c-1-1.5-1.4-2.1-2.8-2.6c-1.3-0.5-4.7-2.3-5.6-3.6c-0.9-1.3-1.2-1.3-2.9-1.2s-5.6-3.7-7.7-5  c-2.1-1.2-4.2-3.6-5.9-4.7c-1.7-1.2-0.5-2,1.4-3c1.9-1,2.5-2.7,2.5-4.5c0-1.8-1.4-2.5-3.7-3.2c-2.3-0.7-4.9-0.5-6.6,0.4  c-1.7,0.9-3.9,1.2-4.9,0.2c-1-1-3.1-4.1,1.6-5.8c0.7-0.2,1.3-0.5,1.9-0.8c-1-0.5-0.8-2.3-1.4-4.2c-0.7-2-0.1-3.2-1.7-3.9  c-1.5-0.7-2.3-1.8-4.3-4.8c-2-3-3.3,0-5.8,3.7c-2.4,3.7-3.6-0.1-5.3,1c-1.7,1.2-5.2,2.2-7.5,3c-2.3,0.9-3.6,2.2-4.5,4.6  c-0.9,2.4-5.5,4.2-9.2,6.9c-3.7,2.7-11.1,2-14.6,2.5c-3.5,0.5-5,1.1-8,3.5c-2.9,2.4-6.2-0.9-8.2-2.5c-2-1.6-3.4,0.9-3.5,2.3  c-0.1,1.4-2.9,2.1-4.6,3.1c-1.3,0.8-2.3,0.2-2.7-0.1c-0.4,1-0.8,1.9-1.3,2.3c-1.3,1.2-3.2,1.2-4.3,4.1c-1.2,2.9-1.3,4.3-2.5,4.8  c-1.3,0.6-2,1.8-2.4,3.9c-0.4,2.1-1.8,5.2-2.6,6.6c-0.8,1.4-1.3,2.8-2.9,3.4c-1.7,0.7-3.9,2.4-3.6,4.3c0.3,1.6,2.6,5.7,2,8.5  c0.7-0.2,2.6-0.5,6.4,1.2c5,2.2,6.7,3.5,7.3,5.1c0.6,1.6,0.8,2.4,2.5,3c1.8,0.6,2.6,0.9,3.2,2.2c0.6,1.4,3.2,3.2,5.4,2.6  c2.2-0.6,4.7-0.4,5.5-1.2c0.9-0.8,1.7-0.3,3,0.1c1.3,0.3,3.5-0.1,4.6-0.6c1.1-0.5,3.8-0.3,4.8,0.6c0.9,0.9,6.2,2.9,7.5,0.6  c1.3-2.3,3.9-3.3,6.5-4.2c2.5-0.8,5.5-2.9,8.2-2.9c2.6,0,5.1-1.5,6.1-2c1-0.5,3.7-2.1,5.9-1.4c2.3,0.8,6.1,0.5,8.2,0.9  c2.1,0.4,4.2-1.4,4.9,0.5c0.8,1.9,1.7,5.8,5.1,6.4c3.4,0.6,6.5,0.3,6.9,2c0.3,1.7,0.3,5,3.5,5.9c3.2,0.9,4.7,1.9,6.3,2.2  c1.2,0.2,1.6,1.4,1.8,2.1c0.2-0.5,0.5-0.9,1.1-1.2c1.3-0.9,1.6-0.8,1.9-2c0.3-1.2,1.2-0.9,2.4-1.4c1.2-0.6,3.7-0.1,5-1  c1.3-0.9,2.4-2,3.8-2.1c1.3-0.1,2-0.2,2-0.8c0-0.6-0.7-2,0.4-3.5c1.1-1.4,3.5-3.6,4-5.5c0.6-1.9,1.9-2.9,1.9-4.3  c0-1.4,0-2.2,0.9-2.5c0.9-0.3,2.8-2.4,3.4-3.7c0.1-0.3,0.3-0.7,0.4-1.1C355.1,488.4,353.6,486.2,352.7,485.1z" stroke-miterlimit="10" stroke="#FFFFFF"/>
<path name="石家庄市" fill="#D3D3D3" id="path3" d="M235.2,457.3c1.6-1,4.5-1.7,4.6-3.1c0.1-1.4,1.5-3.9,3.5-2.3  c2,1.6,5.2,4.8,8.2,2.5c2.9-2.4,4.5-3,8-3.5c3.5-0.5,10.8,0.2,14.6-2.5c3.7-2.7,8.4-4.5,9.2-6.9c0.9-2.4,2.2-3.7,4.5-4.6  c2.3-0.9,5.8-1.9,7.5-3c1.7-1.2,2.9,2.7,5.3-1c2.4-3.7,3.7-6.8,5.8-3.7c2,3,2.8,4.1,4.3,4.8c1.5,0.7,1,2,1.7,3.9  c0.7,1.9,0.4,3.7,1.4,4.2c3.4-1.8,5-4.7,5.9-7c1.1-2.6,0.4-7.2,0.1-8.6c-0.3-1.4,5.5-8.6,6.5-11.6c1.1-3.1,1.6-4.8,1.1-6.4  c-0.6-1.6-2.1-1.9-4.1-2.3c-2-0.4-1.9-4.2-1.9-5.4c0-1.2,0.1-4.4-1.3-6.1c-1.4-1.6-3.4-3.3-5.8-4.2c-2.5-1-3.3,1.6-4.8,2.3  c-1.5,0.7-5.6-1.2-7.1-2.1c-1.5-1-1.9-1.2-2.9,0.1c-1,1.3-3.5,0.3-4.6-0.9c-1.2-1.2-1.9-0.5-3.5,0.5c-1.5,1-2.1,1.1-2.9,0.6  c-0.8-0.5-0.1-1.8,1.2-3.6c1.3-1.7,1.6-3.7,0.5-6.1c-1.2-2.5-5.9-5.3-7.9-6.6c-2-1.3-5.7,0.1-7.2,0.1c-1.5,0-3.1-3.8-5-6.3  c-1.9-2.5-0.5-2.8-0.9-3.7c-0.4-0.9-1.8-1.9-4.1-3.4c-2.3-1.4-7.4-4.4-11.1-6c-3.7-1.5-8.7-0.3-11.1,0.8c-2.4,1.1-5.4,2.5-6.6,2  c-1.2-0.5-2.4-0.7-4.2-0.6c-1.8,0.1-2.8-0.6-5-2.2c-2.1-1.5-8.9-5.2-9.8-5.7c-0.9,1.1-1.7,2.1-1.9,2.6c-0.4,1.1-1.1,2.1-2.2,2.1  c-1.1,0-1.8,0.6-1.8,1.9c-0.1,1.3-0.3,3-1.8,3s-4.3-0.3-4.9,1.3c-0.6,1.7-1.5,4.5-2.5,5.6c-1,1.1-1.9,4.9-0.9,6.1  c1,1.2,2.5,4.2,1.1,4.9c-1.4,0.8-3.8,2.3-3.3,5c0.6,2.7,1.3,3.4,1.2,5.6c-0.1,2.2-0.8,2.4-0.3,3.5c0.4,1.1,2.2,3.1,3.1,3.1  s2.3-0.8,3.3,0.3c0.9,1.2,1.1,1.3,2.8,1.4c1.7,0.1,2.5,0.3,2.8,1.3c0.3,1.1,0.5,2.1,2.4,2c1.9-0.1,4.1-0.8,4.1,1.6  c0,2.3-0.3,2.6,0.8,3.7c1.2,1.1,1.5,2.1,1.8,3.7c0.3,1.6,1.8,6.3,3.5,8.9c1.7,2.6,3.2,4.2,3.2,6.4c0,2.3-1,4,1.1,4.5  c2.1,0.5,4.6,1.6,3.8,3.3c-0.8,1.8-3.3,2.4-3.7,3.8c-0.4,1.4,1.3,1.1,2.8,1c1.6-0.1,5.4-0.6,6.5,1.3c1.2,1.9,2.3,2.4,0.8,5.5  c-1.5,3.1-3.9,6.5-4.8,8.8c-0.6,1.4-1,3.5-1.6,5.2C232.9,457.4,233.9,458.1,235.2,457.3z" stroke-miterlimit="10" stroke="#FFFFFF"/>
<path name="邯郸市" fill="#D3D3D3" id="path4" d="M326.7,516.2c-1.6-0.3-3.1-1.3-6.3-2.2c-3.2-0.9-3.1-4.2-3.5-5.9  c-0.3-1.7-3.5-1.4-6.9-2c-3.4-0.6-4.3-4.5-5.1-6.4c-0.8-1.9-2.8-0.1-4.9-0.5c-2.1-0.4-5.9-0.2-8.2-0.9c-2.3-0.8-4.9,0.9-5.9,1.4  c-1,0.5-3.5,2-6.1,2c-2.6,0-5.6,2-8.2,2.9c-2.5,0.9-5.2,1.9-6.5,4.2c-1.3,2.3-6.5,0.3-7.5-0.6c-0.9-0.9-3.7-1.1-4.8-0.6  c-1.1,0.5-3.3,0.9-4.6,0.6c-1.3-0.3-2.1-0.9-3-0.1c-0.9,0.8-3.3,0.6-5.5,1.2c-2.2,0.6-4.8-1.3-5.4-2.6c-0.6-1.4-1.4-1.6-3.2-2.2  c-1.8-0.6-2-1.4-2.5-3c-0.6-1.6-2.3-2.9-7.3-5.1c-3.7-1.6-5.6-1.4-6.4-1.2c-0.1,0.4-0.2,0.7-0.4,1c-1.6,2.8-0.3,4.5-0.2,5.6  c0.2,1.1,2.2,5.3,0,5.9c-2.2,0.6-2.2-1.1-2.8-1.5s-0.5-1.3-2.6,0.3c-2.1,1.6-1.8,2.8-1.7,3.9c0.1,1.1,0.6,2.3-1.1,3.3  c-1.7,1-2.9,0.4-3,1.8c-0.1,1.4-2.4,0.5-2.4,0.5s-1.7,0.5-2.3,1.4c-0.6,0.9-1.8,0.2-2.6,0.2s-1.2,0.4-0.5,1.2  c0.7,0.8,1.7,1.3,0.3,2.8c-1.4,1.5-1.3,3.6,0.1,3.9c1.4,0.3,4.3,0.6,4.3,2.4c0,1.8-0.5,2.1,0.8,3c1.3,0.9,1,1.6,0.1,2.6  c-0.9,1-1.8,1.8-1,3.4c0.8,1.7,6.6,5.2,7.8,5.9c1.2,0.8,2.8,2.7,3.2,3.8c0.3,1.2,1,1.8,2.3,1.9c1.3,0.2,2.3,0.9,3.2,2  c0.9,1.1,2.6,0.7,2.7,0c0.1-0.7-0.1-1.8,1.4-1.3c1.5,0.6,1.6,1.4,2.4,1c0.8-0.4,0.9-0.5,1.3,0.3c0.4,0.8,1.5,1,1.9,0.3  c0.4-0.7,0.5-0.4,1.2,0.4c0.7,0.8,2.6,2.3,2.1,0.8c-0.5-1.5-1.9-2.1-1.1-2.6c0.8-0.5,1.4-0.6,1.7,0.8c0.3,1.4,0.9,2.3,2.1,3.7  c1.2,1.5,3,3.4,5.2,3.1c2.1-0.3,3.2-0.1,5.6-0.1s10.2,0.4,12.4,2.1c2.1,1.7,2.8,2.4,4.4,2.7c1.6,0.2,2.4,0.6,3.7,2  c1.3,1.4,2.8,0.5,4,2.1c1.2,1.7,3.4,2.8,5.1,2.4c1.7-0.3,4.2-2,8.6-0.7c4.4,1.3,7.2,1,8.6,0.5c1.3-0.5,3.4-0.2,3,2.6  c-0.4,2.8-1.6,4.2-0.5,4.2c1.1,0,1.4-1.2,2.4-0.9c1,0.3,1.2-1.3,2-0.7c0.8,0.6,1.1,1.2,1.5,0.1c0.4-1.1,0.9-1.2,1.3-0.9  s0.7-0.6,0.7-1.4c0-0.9,1-0.9,1.5-0.9c0.5,0.1-1.7-4-0.2-4.8c1.5-0.8,3.3,0.4,4.6-1.9c1.3-2.3,1.3-2.8,2.4-1.8  c1.1,0.9,1.7,1.9,3.5,1.3c1.9-0.6,2.4-0.8,3.2,0.9c0.8,1.7,3.2,6.6,5,7.7c1.7,1.1,1.3,0.9,2.6-0.3c1.3-1.2,1.9-3.2,4.5-3.9  c2.6-0.7,3.7-2.3,3.5-4.4c-0.2-2.1-0.8-6.7-3.2-8.7c-2.4-2-1.7-2-3.9-3.6c-2.2-1.6-2.3-3.6-2.8-4.6c-0.5-1-0.6-1.3-1.3-2  c-0.7-0.6-0.6-1.7-0.5-2.5c0.1-0.9-2.6,0.5-1.9-1.1c0.7-1.6,0.2-3.1,1.1-3.9c0.9-0.8,2.4-2,2.4-3.3c0-1.3-0.7-1.4-0.1-2.6  s0.5-2.4,1.3-3.1c0.9-0.7,1.9-0.4,2.2-2.4c0.3-2-0.2-2.3,1-2.9c1.3-0.6,2-0.6,2.8-2c0.5-0.8,0.6-1.5,0.9-2.1  C328.3,517.6,327.9,516.4,326.7,516.2z" stroke-miterlimit="10" stroke="#FFFFFF"/>
<path name="张家口市" fill="#D3D3D3" id="path5" d="M277.2,278.9c1.7,0.6,5,1.8,6.3,2.5c1.3,0.7,1.4-0.3,2.7-1.8  c1.3-1.4,1.1-4.6,3.2-4.5c2,0.1,3.6,0,5.5-1.8c1.9-1.8,3.4-2.2,4.5-1c1.1,1.3,2.4,3.4,5,0.9c2.6-2.5,7.4-5.2,9.9-9.5  c2.5-4.3,2.5-6.5,4-7.5c1.5-1,1.4-1.8,1.7-3.2c0.3-1.3,0.4-3.2,1.1-3.3c-0.1-0.3-0.1-0.5-0.1-0.7c0.2-0.8,2.7-6.4,5.8-8.3  c3.2-1.9,7.4-3.7,8.5-4.7c1.1-1,3-1.3,4.3-1c1.3,0.3,2.8,1.1,3.1-0.4c0.3-1.5,1.1-2.9,2.6-1.9c1.5,1,3.6,2.1,4.1-0.2  c0.4-2.4,2.4-5.9,3.5-8.2c1-2.3,1.5-4,0.2-5.3c-1.3-1.3-5.8-5.5-7.1-6.5c-1.3-1-3.3-3.3-3-4.5c0.2-1.1-0.1-2-1-2.5  c-0.9-0.5-2.3-1.7-1-2.7c1.3-1,3.3-2.3,4.3-3.8c1-1.4,4.4-3.3,6-3.3c1.6-0.1,2.9-0.1,4.2,0.6c1.3,0.7,2.9,1.4,4.9,0.1  c2-1.3,4.1-1.6,4.7-3.4c0.7-1.8,3.6-6.2,4.8-7.8c1.1-1.6,2.6-5.2,3.8-4.5c1.1,0.7,2.1,1.7,3.9,1.4c1.8-0.2,1.7-0.4,2.9-1.1  c1.2-0.7,1.5-0.5,2.4,0.2c0.9,0.7,1.9,1.8,2.7,0.7c0.8-1.1,0.7-1.9-0.1-2.7c-0.8-0.8-3.8-4.8-4.4-5.3c-0.7-0.5-3.6-3.8-2.9-5  c0.5-0.8,1.2-1.2,1.9-1.1c-0.1-3.8-3.5-4-5.1-5.3c-1.6-1.2-0.5-3-0.5-4.4c0-1.4,0.4-2.9-0.5-3.5c-0.9-0.6-1.4-1.9-2.3-3.9  c-0.9-2-0.5-3.4-0.7-5.8c-0.2-2.4-1.6-3.3-2.6-4.1c-1-0.9-0.9-2.3,0.6-3.6c1.6-1.3-0.9-2.2-1.6-4.5c-0.8-2.3-3.1-1.6-4.4-1.6  c-1.3,0-2.3-0.2-3-1.6c-0.7-1.4-2.8-4.7-3.9-5.8c-1-1-2.3-2.1-2.4-5.2c-0.1-3.1-2.3-4.5-3.1-6.9c-0.8-2.4,4.8-7.3,7.2-9.2  c2-1.6,1.9-3.3,1.8-3.8c-1.6,0.1-4.1,0.1-4.4-0.9c-0.3-1.2-0.1-3.9-1.5-5.1c-1.4-1.2-2.9-2.3-3-3.8c-0.1-1.6-0.6-3.8-1.6-3.7  c-1,0.2-2.7-0.1-5.1,1.9c-2.4,2-2.7,3.3-4.7,3.3c-2,0-2.7,0.3-3.8,1.8c-1.1,1.5-5.4,5.3-7.6,5.8s-3.8,1.8-4.9,2.8  c-1.1,1-5,3.3-6.9,3.3c-1.9,0-3.4,1.2-3.6,2.3c-0.2,1.1-0.6,2.4,0.6,3.4c1.2,1,3.1,3,1.8,3.5c-1.3,0.5-2.3,1.2-3.7,0.8  c-1.3-0.4-1.8-1.7-2.1-0.3c-0.3,1.4-0.7,3.6-2.3,3c-1.6-0.6-2.8-2.7-4.3-2.9c-1.5-0.3-3-2.3-4.8-0.8c-1.8,1.5-3.1,0.6-4.1,0.6  c-1,0-2.4-0.6-5.1,0.3c-2.7,0.8-5.4,1.3-4.1-0.8c1.3-2,2.4-3.9,2.1-5.9c-0.3-2-0.9-6.4-1.1-7.9c-0.2-1.6-0.1-2.8,0.8-3.1  c0.9-0.3,2.2-1.3,1.3-3.5c-0.8-2.3,0.1-8.9-1.8-10.3c-1.8-1.4-4.9-4.1-4.6-5.3c0.3-1.2,0.1-3.7,1.5-4.5c1.4-0.8,0.7-2.1,0.1-3.1  c-0.6-1-3.6-3.8-4.4-1.5c-0.8,2.3,0.6,5-1.7,5c-2.3,0-3.2-2.2-3.9-1.3c-0.8,0.8-3,0.6-4.5,0c-1.5-0.6-4.5-1.5-6.2,0.3  c-1.7,1.8-2.7,4.5-2.8,5.4c-0.1,0.9-0.2,1.9,0.8,3.6c1,1.7,1.2,3.9-1.1,4.7c-2.3,0.8-4.4,1-6.4,1.2c-1.9,0.2-4.9,3.1-5.5,5.4  c-0.6,2.3-2,3.5-3.2,3.9c-1.2,0.4-1.3,3.7-1.2,5.1c0.1,1.4,2.3,10.9,1.5,12.5c-0.8,1.6-2.5,3.9-1.5,4.9c1,1,3.6,2.8,2.1,3.7  c-1.5,0.9-3.8,0.7-5.1,0c-1.3-0.7-4.3-1.7-7.3-1.1c-3,0.6-7.5,3.3-8.5,4c-1,0.7-5.1,3.4-2.7,4.3c2.4,0.9,4.6,1.3,4.3,2.9  c-0.3,1.7,0.2,2.1-0.8,3c-1,0.9-2.1,3-0.3,4.8c1.8,1.8,2.7,3.3,3.9,4.8c1.3,1.4,1.8,2.6-0.2,3.8c-2,1.3-4.4,1.2-4.7,2.5  c-0.3,1.3-1.5,2.5-2.1,3c-0.6,0.5-2.8,1.9-1.9,3.1c0.8,1.2,5.3,4.1,6.8,6.6c1.5,2.5,4.3,8,5.8,9.3c1.4,1.3,2,1.8,1.6,3.3  c-0.4,1.5-2.8,2.7-0.4,4c2.4,1.3,3.8,3.2,5.2,5.8c1.3,2.6,4.3,8.4,6.2,10.1c1.8,1.7,3.1,3.8,3,6c-0.1,2.3-0.7,5.4-0.1,7.2  c0.6,1.8,1,3.5,1,4.8c0,1.3,0.9,3.3,3.2,3.3c2.3,0,3.1-0.2,4.4-0.8c1.3-0.7,1.4-0.8,2.6,0.3c1.2,1.1,2.7,0.3,3.8,1.1  c1.1,0.8,1.6,2,0.5,3.9c-1.1,1.9-5.5,4.4-6.7,4.6c-1.2,0.2-8.7,1-10,1.7c-1.3,0.7-2,1.9-2.3,2.7c-0.3,0.8-2.7,1-4.6,1.1  c-1.9,0.1-5.5,0-5.4,1.3c0.1,1.3-0.3,2.1,0.4,3.1c0.7,1,0.6,3.4-0.3,4.5c-0.8,1.1-1.9,1.5-3-0.1c-1.1-1.6-1-3.4-2.3-3  c-1.3,0.4-0.8,1.7-0.8,2.8c0,1.2-0.1,2.3-1.3,2.9c-1.3,0.7-2.3,0.9-2.3,2.3c0,1.4-0.3,1.1,1.2,1.1c1.4,0,3.8,0.2,4.8,2.3  c0.9,2.1,2.5,4.1,3.7,4.6c1.2,0.5,2.8,1.5,4.4,1.5s2,0.5,3.6,1.7c1.6,1.2,2.6,2,4.7,1.6c2.1-0.4,5.6-1.1,6.4-0.3  c0.8,0.8,0.8,3.5,1.8,4.6c0.9,1.1,0.8,1.8,0.8,3c-0.1,1.2-1.3,7.7-0.8,8.9c0.5,1.3,0.9,4.6,3.7,4.8c2.6,0.2,2.8,0.4,3.8,2.2  c0.7,0,2.8-0.1,4.4-0.5C268.5,281.4,275.6,278.3,277.2,278.9z" stroke-miterlimit="10" stroke="#FFFFFF"/>
<path name="秦皇岛市" fill="#D3D3D3" id="path6" d="M605.4,234c-0.2-1.7,0.3-3.2-1.4-3.2c-1.7,0-5.7,0.6-5.9-2.2  c-0.2-2.8-1-7.8-1.7-8.6c-0.7-0.8-2.2-2.3-3.8-2.7c-1.6-0.4-2.1-1.6-2.1-2.7c0-1.2-4.3-8.9-4.1-10.1c0.2-1.3,1.5-5.3-0.2-6.5  c-1.7-1.2-2.2-2.3-1.9-3.7c0.3-1.4,1.1-3.5,0.2-3.5c-0.9,0-4.9,1.7-7,1.7s-5.4,0.5-6.3,0.9c-1,0.4-3,0.4-5.5-0.1  c-2.5-0.5-2.6-2.1-2.6-3.4c0.1-1.3-0.2-2.4-0.7-2.2c-0.5,0.2-3.7,1-4.2-0.3c-1.3,0.2-6,1.2-7.6,3.1c-1.9,2.3-5.6,2.9-7.6,3.2  c-2,0.2-4.9-0.1-5.4,1.6c-0.6,1.7-1.6,2-2.9,2c-1.4,0-4.6,0-6.8,3.1c-2.2,3.1-3.5,4.2-1.7,5.8c1.8,1.6,2.5,3.6,1.1,4.6  c-1.4,1-5.2,3.7-5.1,5.6c0.1,1.8-0.4,2,1.1,2.9c1.5,0.9,3.2,1.5,4.6,2.4c1.4,1,2.7,2.1,3.9,2.5c1.3,0.4,2.2,0.5,3.4,0.5  s2.6-0.3,4,0.2c1.4,0.5,3,0.9,4,1.8c1,0.9,2.1,0,2.5,0.9c0.4,0.9-0.1,4.3-0.9,4.3c-0.7,0-2.2,0.4-2.2,1.5c0,1.2-1,2.1-0.4,3.5  c0.6,1.4,1.7,5.1,1.4,6.8c-0.3,1.7-2.5,5.3-2.5,6.2c0,0.8,0.2,1.4-0.2,2.3c-0.4,0.9-0.9,1.4-0.6,2.3c0.3,0.9,0.5,1.5-0.4,1.7  c-0.9,0.2-0.8,1.9-1.1,2.7c-0.3,0.9-1.3,2.7-1,4.1c0.3,1.3,0.5,2.5,1.2,3.5c0.7,1,4.3,3.6,5.1,4.2c0.7,0.6,1.6,1.1,1.6,3  c0,1.9-0.6,3.3,0.7,3.3c1.3,0,2.3-0.3,3.5-0.7c1.1-0.4,1.8-0.7,2.3,0.7c0.4,1.4-0.2,2.9,0.9,3.3c1.1,0.3,1.6,0.4,2.3,1.5  c0.7,1,0.5,1.8,1.8,1.3c1.3-0.5,4.3-1.1,5.8-0.9c1.4,0.1,7.4,2.6,9.1,3.6c0.4-0.9,1.6-0.9,0.6-1.6c-1.2-0.7-2.7-2.3-2.5-3.3  c0.2-1,2.5-6.3,2-7.5c-0.5-1.2-0.7-0.4-1.1,0.1c-0.4,0.5-1.8,2.3-1.8,1c0-1.3-0.4-1.9-0.6-1.5c-0.2,0.4-1.4,0.2-0.7-0.6  c0.8-0.8,1.3-1.3,2.4-1.3s1.9,1.3,2.5-0.1c0.6-1.3,1.4-2.7,1.1-4.4c-0.2-1.7-0.2-2.5,0.4-3.5c0.6-1,2.7-3.8,3.2-5.2  c0.5-1.4-0.1-2.1,1.1-2.2c1.1-0.1,1.4-0.2,2-1.2c0.6-1,1-2.1,2.9-2c1.9,0.1,3.2,0.4,3.2-1.6c0-2-0.8-4.2,0-5  c0.8-0.8,1.8-1.9,3.2-1.8c1.4,0.1,2.2-0.7,2.4-1.6c0.2-0.9,3.1-1,4.1-1.3c1-0.4,2,0.2,2.9-1c0.9-1.1,1-2.1,2.3-2.3  c1.3-0.2,2-0.4,2.6-1.1C604.6,235.6,605.6,235.7,605.4,234z" stroke-miterlimit="10" stroke="#FFFFFF"/>
<path fill="#D3D3D3" id="path7" d="M417.4,270.2c0.2,0,0.3,0,0.4,0.1c1,0.6,2.6,0.9,3.1,2.3  c0.4,1.4,0.5,2.3,2.2,1.5c1.7-0.8,1.4-0.9,3.3-0.5c1.9,0.4,5.4,2.1,6.3,2.7c0.9,0.6,1.8-0.3,2-2.1c0.2-1.8-0.9-5.4-0.1-7  c0.9-1.6,1.3-2.7,1.1-4.5c-0.2-1.8-1.4-3-0.7-3.4c0.7-0.3,6-2.9,3.5-3c-2.5-0.1-5-0.4-5.4-2.1c-0.4-1.7-1-3.8-0.6-5.7  c0.4-1.8,4-8.8,4.2-10.8c0.2-2,0.5-2.2-1.1-1.2c-1.6,1-7.4,2.2-8.5,3.1c-1.2,0.9-2.3,1.7-4,1.4c-1.7-0.3-3.5-0.9-6.1-0.4  c-2.6,0.6-5.6-0.2-7.2,0.5c-1.5,0.7-2.5,1.2-2.1,3.8c0.4,2.6,0,8.2,1.8,9.5c1.8,1.3,5.6,4.4,6.1,3.4c0.5-1,0.9-1.5,1.7-0.4  c0.7,1.1,2.5,3,2.4,4.8c-0.1,1.7,0,3.4-0.8,4.1c-0.8,0.7-1.5,1.7-1.5,2.6C417.4,270,417.4,270.2,417.4,270.2L417.4,270.2z" stroke-miterlimit="10" stroke="#FFFFFF"/>
<path name="承德市" fill="#D3D3D3" id="path8" d="M475.8,222c1.3,0,5.1-1.8,6.3-1.9c1.2-0.1,4.4-1.3,5.9-2.2  c1.6-0.9,5.9-7.6,9.1-8.8c3.2-1.1,2.1-4.1,5.5-3.2c3.4,0.9,8.3,2.3,10.5,2.3c2.2,0,4-1.4,5.2-0.3c1.3,1.1,0.7,3.5,0.8,5.5  c0.1,1.9,0.8,4.2,2.7,4.4c0-0.3,0-0.8,0-1.4c-0.1-1.8,3.7-4.5,5.1-5.6c1.4-1,0.7-3.1-1.1-4.6c-1.8-1.6-0.5-2.7,1.7-5.8  c2.2-3.1,5.4-3.1,6.8-3.1c1.4,0,2.4-0.3,2.9-2c0.6-1.7,3.4-1.4,5.4-1.6c2-0.2,5.7-0.9,7.6-3.2c1.7-2,6.4-2.9,7.6-3.1  c0-0.1-0.1-0.2-0.1-0.4c0-1.8,1.5-4.9,1-5.4c-0.5-0.5-1.1-0.7-2.1-0.1c-1.1,0.6-6,3.4-10-0.5c-4-3.9-8.9-7.9-8.9-9.4  c0.1-1.5,0.8-4.2,1.4-5.4c0.6-1.2,0.1-7.2,1.6-6.9c1.5,0.2,6,0.9,6.6-0.6c0.6-1.5-0.5-3.6-2.4-3.9c-1.8-0.3-3.1-2.3-2.9-3.5  c0.2-1.2,1.7-1.3,3.3-1.3s4.5-1.9,6.8-4.4c2.3-2.5,5.7-5.6,4.6-6.9c-1.1-1.4-1.5-2.2-0.1-2.7c1.5-0.5,4.5-0.6,4.4-2.5  c-0.1-1.9-0.6-6-2.1-4.4c-1.5,1.6-2.4,2.1-4.4,2.1c-2,0-7.9-0.2-9.5-0.1c-1.5,0.1-7.8,0.2-8.9-1.1c-1.1-1.3-3-4.4-4.5-3.6  c-1.5,0.8-2.7,4.5-5,3.5c-2.3-1-4.8-2.1-6.3-1.8c-1.5,0.3-5.9,0.2-7.3,0.7c-1.4,0.4-4.8,0.7-5.4,1.9c-0.6,1.3-2.1,2.2-3,0.8  c-1-1.4-1.8-2.4-1.4-4.8c0.4-2.4,1-4.9-1.1-5.5c-2.1-0.6-4.3-2-2.9-3.2c1.5-1.2,2.2-2.7,1.1-4.7c-1.1-2-2.5-1.8-3.8-2.4  c-1.3-0.6-2.4-1.2-2.4-2.8c0-1.6-1.5-2.5-2.3-3.2c-0.8-0.7-2.3-4.4-2.8-6.6c-0.5-2.2-0.7-4.3-0.1-5.8c0.7-1.5,3.5-1.9,4.6-1.3  c1.1,0.5,2.4,3.3,3.9,3.3c1.5-0.1,1.7,0.2,1.9-1.3c0.2-1.5,1.4-2.7,1.4-4.4c-0.1-1.6,0.4-4-1.5-4.4c-2-0.4-4.5-2.7-3.2-3.5  c1.4-0.8,2.6-1.3,2.3-2.7c-0.4-1.4-0.7-2-2-2.3c-1.3-0.3-2.5-0.2-1.4-1.6c1.1-1.4,1.7-2.2,1.1-3.5c-0.6-1.3-2.1-2.6-3.2-1.9  c-1.1,0.7-1.1,1.1-1.1,2.3c0,1.3-0.4,3.5-1.7,3.4c-1.4-0.1-4.1-1.1-3.4-2.3c0.7-1.2,2.6-1.7,1.9-2.5c-0.7-0.8-1.9-2.7-2.8-2.7  c-0.9,0-1.4-0.4-1.1-1.6c0.3-1.2,0.6-4.5-1-4.8c-1.6-0.3-6.6-2.9-6.6-4.2c-0.1-1.3,2.2-1.2,3.1-2.2c0.9-1,1.9-2.7,0.6-3.4  c-1.3-0.7-1.8-1.7-1.7-2.6c0.1-1,0.2-2.5,0.2-2.5s0.7-1.9-2.1-3.9c-2.7-1.9-10-11.5-11.6-13.5c-1.6-1.9-0.5-4-2.9-2.7  c-2.4,1.3-9.3,5.9-10.9,4.4c-1.6-1.5-1.8-2.9-2.8-2.6c-1,0.4-1.1,1.5-2.4,0.8c-1.3-0.6-1.9,0.2-1.8,1.9c0.1,1.7-0.4,3.7-1.3,4  c-0.9,0.3-2.6,1.4-2.6,2.9c0,1.5,0.6,3-1.5,3.3c-2.1,0.3-3.5,0.1-4.4-0.5c-0.9-0.6-3.6-0.5-5.1-0.3c-1.5,0.2-3.1,0.9-4.4,0.6  c-1.3-0.3-1.9,0.1-2.6-0.4c-0.7-0.6-1.3-0.4-1.8,0.2c-0.4,0.6-1,1.3-2.2,1.3c-1.2,0-2.3,0-2.5,1.1c-0.2,1-0.3,1.4-1.9,1.7  c-1.6,0.3-4.7,2.3-4.9,3.7c-0.2,1.4-1,1.8,0.1,6.2c1.1,4.4,2.7,8.6,0.7,9.5c-2.1,0.9-2,0-2,0s-2.4-0.6-3.1-0.6c-0.7,0-2.5-1.2-2.5,0  c0,1.2,1.8,2.4,2.6,3.1c0.8,0.7,3.9,3.6,4.2,6.5c0.3,2.9,0.8,5.5-0.2,5.5c-1,0-2.3,0-2.8,1.2c-0.6,1.2-1.1,1-2.5,1  c-1.4,0-3.2-0.1-3,1.3c0.2,1.3,0.3,2.4-1,2.8c-1.3,0.4-5.2-0.4-6.2,0.3c-1,0.8-3.2,1.6-4.4,0.9c-1.3-0.7-3.8-4.2-5.1-3.4  c-1.3,0.8-1.4,1.3-2.9,1.3c-1.5,0-1.2-0.8-1.2-1.3c0-0.6,0.5-2.7-0.9-2.5c-1.4,0.2-4.3,0.4-5.4,1.8c-1.1,1.3-5.2,3-5.6,4.8  c-0.4,1.8-1.3,2.3-1.4,3.3c-0.2,1.1-1.6,1.3-2.9,1.6c-1.3,0.3-2.3,1.2-2.4,2.7c-0.2,1.5-0.3,4.8-1.8,5c-0.2,0-0.4,0-0.6,0.1  c0.1,0.5,0.3,2.2-1.8,3.8c-2.4,1.9-8,6.8-7.2,9.2c0.8,2.4,3,3.8,3.1,6.9c0.1,3.1,1.3,4.2,2.4,5.2c1,1,3.2,4.4,3.9,5.8  c0.7,1.4,1.7,1.6,3,1.6c1.3,0,3.7-0.6,4.4,1.6c0.8,2.3,3.2,3.1,1.6,4.5c-1.6,1.3-1.6,2.7-0.6,3.6c1,0.9,2.4,1.7,2.6,4.1  c0.2,2.4-0.2,3.8,0.7,5.8c0.9,2,1.5,3.3,2.3,3.9c0.8,0.6,0.5,2.1,0.5,3.5c0,1.4-1,3.2,0.5,4.4c1.6,1.2,5,1.4,5.1,5.3  c0.4,0,0.7,0.2,1,0.5c0.8,1,1.4,3.7,3.6,2.9c2.3-0.8,2.4-1.3,1.8-2.9c-0.6-1.6-3.5-3.6-0.8-3.8c2.7-0.1,8.6,0.1,8.7-1.7  c0.1-1.8,1-5,2.3-5.4c1.3-0.4,2.7-0.3,2.9,2.3c0.2,2.6,0,6.4,0.7,6.5c0.7,0.1,1.5,0.5,2,1.8c0.5,1.3,0.7,2.3,2.9,3.4  c2.3,1.1,2.1,1.9,3.2,2.8c1,0.9,3.3,0.2,4.4,2.4c1.1,2.2,3.9,7.2,6.4,8.7c2.4,1.6,3.6,1.2,5.1,1c1.5-0.2,6-0.5,7.6-0.6  c1.6-0.1,3-0.3,4.5,0.6c1.4,0.9,4.3,1.4,5.6,0.8c1.3-0.5,2.8-0.4,4.6-0.4c1.8,0,6.5,0.1,6.7,1.3c0.2,1.2-0.5,2.3-1.7,2.2  c-1.1-0.1-3.3,0.1-2.8,1.3c0.5,1.1,1.5,4.3-0.7,4.5c-2.1,0.2-4.5-0.2-6.3,0.2c-1.8,0.5-4,1.6-3.9,2.6c0.1,1,2,2-0.3,2.1  c-2.3,0.1-1.8,2.1-1.8,2.8c0.1,0.7,2,0.4,2,1.6c0,1.2,1.2,2.9,1.2,4.5c0,1.7-1.1,3.1-0.7,4.4c0.5,1.3,2,5,3.5,6.6  c1.5,1.6,5,4.5,5.8,3.9c0.8-0.5,3.1-2,4.6-1.6c1.5,0.4,5.3,0.7,6.2,2.1c0.4,0.6,0.9,1.3,1.5,2.1c0.5-0.1,6.1-1.7,7.9-2.4  C469.5,224.5,474.5,222,475.8,222z" stroke-miterlimit="10" stroke="#FFFFFF"/>
<path name="唐山市" fill="#D3D3D3" id="path9" d="M562.4,281.9c-1.5-0.2-4.5,0.4-5.8,0.9c-1.3,0.5-1.1-0.2-1.8-1.3  c-0.7-1-1.2-1.1-2.3-1.5c-1.1-0.3-0.5-1.9-0.9-3.3c-0.4-1.4-1.1-1.1-2.3-0.7c-1.1,0.4-2.1,0.8-3.5,0.7c-1.3,0-0.8-1.4-0.7-3.3  c0-1.9-0.8-2.5-1.6-3c-0.8-0.6-4.3-3.2-5.1-4.2c-0.7-1-1-2.1-1.2-3.5c-0.3-1.3,0.7-3.2,1-4.1c0.3-0.9,0.2-2.6,1.1-2.7  c0.9-0.2,0.6-0.7,0.4-1.7c-0.3-0.9,0.2-1.4,0.6-2.3c0.4-0.9,0.2-1.5,0.2-2.3c0-0.8,2.2-4.5,2.5-6.2c0.3-1.7-0.8-5.4-1.4-6.8  c-0.6-1.4,0.4-2.3,0.4-3.5c0-1.2,1.5-1.5,2.2-1.5c0.7,0,1.2-3.3,0.9-4.3c-0.4-0.9-1.5,0-2.5-0.9c-1-0.9-2.6-1.2-4-1.8  c-1.4-0.5-2.8-0.2-4-0.2s-2.1-0.1-3.4-0.5c-1.3-0.4-2.6-1.5-3.9-2.5c-1.4-1-3.1-1.6-4.6-2.4c-1-0.6-1.1-0.8-1.1-1.5  c-1.9-0.2-2.6-2.5-2.7-4.4c-0.1-2,0.4-4.4-0.8-5.5c-1.3-1.1-3,0.3-5.2,0.3c-2.2,0-7.1-1.4-10.5-2.3c-3.4-0.9-2.4,2.1-5.5,3.2  c-3.2,1.1-7.5,7.9-9.1,8.8c-1.6,0.9-4.8,2.1-5.9,2.2c-1.2,0.1-5.1,1.9-6.3,1.9c-1.3,0-6.2,2.5-8.1,3.3c-1.8,0.7-7.4,2.2-7.9,2.4  c0.9,1.1,1.8,2.2,2.5,2.8c1.1,1,2.3,4.2,4.8,4.4c2.6,0.2,4,0,4.4,1.4c0.4,1.4,1.4,2.3,0.7,2.8c-0.7,0.5-1.7,1.2-0.5,1.9  c1.2,0.7,1,0.8,2.5,1.2c1.5,0.4,1.5,0.9,1.2,2.6c-0.3,1.7-1,1-2,0.9c-1.1-0.1-3.2,0.1-3.9-0.9c-0.7-1-2.5-0.8-3.7-0.7  c-1.2,0.1-4.3,0.1-5.9,0.8c-1.5,0.7-3.5,2.5-3.6,4.7c-0.1,2.2,0.1,5.1,1,6.5c0.9,1.4,3,4.7,3.6,6.1c0.5,1.4,1.1,1.7,0.9,3.1  s-0.3,2.1,1.1,2.1c1.4,0,2.1-0.5,2.7,1.4c0.7,1.9,1.7,4.1,0.6,5c-1.1,1-1.8,2.1-1.3,2.6c0.6,0.4,0.8,1.9,1.8,1.6  c1-0.4,2.3-1.3,2.6-0.4c0.3,0.8,0,1.6-0.3,2.1c-0.3,0.5,0.2,0.3,1,0.9c0.8,0.6,0.4,1.1,1.2,1.9c0.8,0.7,1.3-3.2,1.5-4.4  c0.3-1.2,0.5-2.1,2.4-2.5c2-0.4,6.6-0.9,7.5-0.2c1,0.7,1.4,3.8,0.8,5.6c-0.5,1.7-1.7,4.5-2.4,5.4c-0.7,1-2,3.5-0.7,4.5  c1.3,1,7.4,1.4,9.2,3.6c1.8,2.2,2.9,4.7,3.2,6.4c0.2,1.7,0.8,5.4,1.8,5.5c1,0.1,4.1-0.7,6.4,1c2.3,1.7,4.5,3.2,4.5,4.5  c0,1.4,1.3,4.9,2.3,5.1c1,0.2,3.9,2.9,5.8,2.4c1.8-0.5,3.5-1.5,3.6-2.1c0.1-0.7,1.1-1.2,1.9-1.7c0.8-0.5,1.3-0.8,1.7-1.8  c0.5-1,0.6-0.8,1.7-1.3c1.1-0.4,2.1-0.7,2.4-1.6c0.3-0.9,0.7-1.4,1.5-1.7c0.9-0.2,2.2-0.5,2.9-1.4c0.7-1,1.9-1.5,3.2-1.5  c1.3,0,2.4-0.7,3.6,0.6c1.2,1.3,2,3.2,4.5,2.6c2.5-0.6,4.1-0.7,4.3-2.1c0.2-1.5-0.2-2.8,0.5-2.3c0.7,0.5,1.4,1,1.6,0.2  c0.2-0.7,1.5-1.4,1.7-0.5c0.1,0.9,0.8,1.9,1.7,1.2c0.9-0.7,0.2-1.6,1.1-1.7c0.8-0.1,0.4,0.4,1.8,0.3s3,0.1,4.1-1.1  c1.1-1.2,1.9-1.1,1.5-2.6c-0.4-1.6,1-3,1.5-3.6c0.5-0.6,2-0.2,2.2-1c0.2-0.8,0.8-1.7,1-2.6c0.2-0.9,2.1-1.9,2.3-2.9  c0.2-1-0.8-3.1,1.5-3.2c2.3-0.1,4-0.4,4.1-1.6c0-0.1,0.1-0.3,0.1-0.4C569.8,284.5,563.8,282,562.4,281.9z" stroke-miterlimit="10" stroke="#FFFFFF"/>
<path name="廊坊市" fill="#D3D3D3" id="path10" d="M417.4,270.2c-0.1,0,0-0.1,0-1.1c0-0.9,0.7-2,1.5-2.6  c0.8-0.7,0.7-2.3,0.8-4.1c0.1-1.7-1.7-3.7-2.4-4.8c-0.7-1.1-1.2-0.6-1.7,0.4c-0.5,1-4.3-2.1-6.1-3.4c-1.8-1.3-1.4-6.9-1.8-9.5  c-0.4-2.6,0.6-3.1,2.1-3.8c1.5-0.7,4.6,0.1,7.2-0.5c2.6-0.6,4.4,0.1,6.1,0.4c1.7,0.3,2.8-0.6,4-1.4c1.2-0.9,6.9-2.1,8.5-3.1  c1.6-1,1.3-0.8,1.1,1.2c-0.2,2-3.8,9-4.2,10.8c-0.4,1.8,0.1,4,0.6,5.7c0.4,1.7,2.9,2,5.4,2.1c2.5,0.1-2.7,2.6-3.5,3  c-0.7,0.3,0.5,1.5,0.7,3.4c0.2,1.8-0.2,2.9-1.1,4.5c-0.9,1.6,0.2,5.2,0.1,7c-0.2,1.8-1,2.7-2,2.1c-0.9-0.6-4.4-2.3-6.3-2.7  c-1.9-0.4-1.6-0.3-3.3,0.5c-1.7,0.8-1.8-0.1-2.2-1.5c-0.4-1.4-2.1-1.6-3.1-2.3C417.7,270.2,417.6,270.2,417.4,270.2L417.4,270.2z   M374.1,336.4c0.4,0.7,2.5,2.2,3.6,3.1c1,0.9,1.9,1.6,3.2,2.1c1.3,0.5,5,1.8,6.2,3.2c1.2,1.5,1.2,2.8,0.5,6.2  c-0.7,3.4-2.1,2.5-1.5,5.1c0.7,2.6,3.6,10,5.4,11.7c1.8,1.7,1.6,4.3,6.5,3.2c4.9-1.1,5-1.3,5.2-2.2c0.2-0.9,2.4-1.5,2.4-3.5  c0-2,0.3-2.9,2-5c1.7-2.1,2.1-2.4,3.5-2.5c1.4-0.1,3.1-1.2,1.5-2.9c-1.6-1.8-2.8-2.5-2.9-3.7c-0.1-1.1-0.1-2.6,0.2-3.3  c-0.6-0.9-1.1-2.2-1.3-4.1c-0.7-6.1-0.5-8.6-0.2-10.4c0.3-1.9,1.9-6.9,4.3-8.6c2.4-1.7,4.2-2,5.6-2c1.4,0,1.7-1.2,2.1-2.8  c0.4-1.6,1.3-5.2-0.5-6.8c-1.7-1.5-4-0.7-3.3-2.2c0.7-1.5,2.9-3.2,2.1-4.4c-0.8-1.2-3.3-1.7-2.3-3.1c1.1-1.3,1.7-3.6,0.6-4.3  c-1.1-0.7-1.9-0.3-2.8,0c-0.9,0.3-1.5-1.7-0.9-3.1c0.6-1.3,0.4-5.6-0.8-6.9c-1.2-1.3-1.4-1.9-1.3-2.8c0.1-0.8-0.2-7.6-0.9-9  c-0.7-1.4-2.3-0.8-3.1-0.7c-0.8,0.2-2.4,1.3-4.8,1c-2.3-0.3-6.6-1.7-7.4-0.8c-0.8,0.9-1.8,2.7-3.2,4.5c-1.4,1.8-4.2,3.7-5.2,4.2  c-1,0.4-1.5,1.6-0.4,2.3c1.2,0.8,2.3,2.7,1.7,3.6c-0.6,0.9-5.6,0-6.5-0.4c-0.9-0.4-4.2-2.8-5.4-2.8c-1.3,0-2-2.3-2-3.5  c0-0.2,0-0.5-0.1-0.8c-1.1,1.2-4.7,3.7-5.4,4.1c-0.8,0.5-1,4.2-0.9,5.6c0.1,1.3-0.1,3-0.9,4c-0.8,1,0.2,1.9,3.1,1.9  c2.8,0,2.7,3.9,3.4,5.2c0.7,1.3,2,5.2,2,6.8c0,1.6,0.1,2.5,2.1,3c2,0.5-1,1.1,2.9,2.7c3.9,1.7,2.3,4.8,2.2,6.2  c-0.1,1.4,0.1,2.1,1.5,2.2c1.4,0.1,1.1,0.8,0.3,2.4c-0.8,1.6-6.2,5.4-8.1,6.5c-0.8,0.5-1.4,0.4-1.8,0.1  C374.4,335.2,373.8,335.8,374.1,336.4z" stroke-miterlimit="10" stroke="#FFFFFF"/>
<path name="沧州市" fill="#D3D3D3" id="path11" d="M480.5,390.1c-0.9-0.2-0.9-1.7-1.9-0.4c-0.9,1.3-2,1.9-1.8-0.1  c0.2-2,0.4-1,1.9-2.3c1.5-1.3,5.3-3.5,2.8-5.5c-2.6-2-5.6-3.9-6.9-6.7c-1.3-2.8-4.6-8.6-5.4-10.3c-0.9-1.7-4.5-8.2-5.3-8.2  s-4.4,0.2-5.4,0.8c-1,0.6-4.9,1.6-5.8,2.5c-0.8,0.9-3.5,1.5-4.8,1.3c-1.3-0.2-3-0.1-2.6-1.3c0.4-1.2,0.2-2.5-1.3-1.9  c-1.5,0.5-4.5,0.2-5.8,1.7c-1.3,1.5-2.5,1.9-2.8,2.4c-0.3,0.5-3.7-2.5-3.9-5.6c-0.2-3.1,0-4-2-4c-2,0-5.1,0.7-7.2,0.6  c-2.2-0.1-2.5-0.3-3.7-2.1c-1.2-1.8-3.6-2.9-4.6-1.9c-0.7,0.7-2.6,0.8-3.9-1.2c-0.3,0.7-0.4,2.2-0.2,3.3c0.1,1.2,1.3,1.9,2.9,3.7  c1.6,1.8-0.1,2.8-1.5,2.9c-1.4,0.1-1.9,0.4-3.5,2.5c-1.7,2.1-2,3-2,5c0,2-2.2,2.6-2.4,3.5c-0.2,0.9-0.3,1.1-5.2,2.2  c-4.9,1.1-4.7-1.5-6.5-3.2c-1.8-1.7-4.7-9.1-5.4-11.7c-0.7-2.6,0.8-1.7,1.5-5.1c0.7-3.4,0.7-4.7-0.5-6.2c-1.2-1.5-4.9-2.8-6.2-3.2  c-1.3-0.5-2.2-1.2-3.2-2.1c-1-0.9-3.1-2.4-3.6-3.1c-0.3-0.6,0.3-1.2,0.6-1.4c-0.5-0.4-0.9-1-1.5-1.1c-1.1-0.2-3.3,1-4.3,1.4  c-1.1,0.4-1.6,1.2-1.5,2.8c0.1,1.6-1.4,3-1.6,4.2c-0.2,1.2-0.8,3.2-2.8,3.5c-2,0.4-2.3,3.2-2.3,5.1c0,1.9-0.1,6.7-0.6,8.9  c-0.5,2.2-0.8,5.3-3.2,6.9c-2.4,1.7-4.4,1-9.3,2.4c-4.9,1.4-4.1,11.3-3.5,13.1c0.1,0.3,0.1,0.5,0.1,0.7c0.5-0.2,2.8-1.1,4.7,1.8  c2.1,3.2,4.1,6.4,4.2,7.8c0.1,1.4-0.3,5.7,2.2,6.1c2.5,0.4,3.4,1.3,4.6,0.8c1.3-0.4,2.8-1.6,4.6-0.8c1.8,0.7,2.1,0.6,1.8,2.1  c-0.3,1.5-0.5,3.5-1.6,4.1c-1.1,0.6-0.3,1.6,0.6,2.5c0.9,0.9,2.2,3.6,3.4,4.1c1.2,0.5,0.5,2.6,0.4,4.3c-0.1,1.7-0.5,4.5,1.1,4.5  c1.6,0,4.5-4.4,4.8-5.8c0.3-1.4,2.2-2.2,5.1-2.2c2.8,0,4.7-0.6,4.9-1.6c0.2-0.9,2.1-0.5,3.1-0.3c0.9,0.2,3.5,0.7,5.7,0.3  c2.2-0.4,4-0.3,4.9,0.2c0.9,0.5,1.2,0.1,1.1,2.8c-0.1,2.7-2.1,3.3-2.2,5c-0.1,1.7-0.9,3.2-2,3.6c-1.1,0.4-1.4,0.5-1.4,2.6  c0,2.1-0.4,4.1-1.8,6.3c-1.4,2.2-3.7,4.3-3.9,6.6c-0.2,2-0.8,3.8-1,4.3c0.3,0.2,0.6,0.6,0.9,1.3c1.2,2.8,0.9,6.6,2,8.6  c1.1,2,2.6,2.4,4,1c1.4-1.4,3.9-4.6,4.5-6c0.6-1.4,2.9-5.2,4.4-5.3c1.5-0.2,2.3-3.3,3-4.2c0.7-0.9,1.4-3.3,3-3.9  c1.6-0.6,3.1-1.6,3.5-3.4c0.5-1.8,1.9-5.9,3.5-6.2c1.7-0.3,5.4-1.5,8.4-1.3c3,0.2,5.5,1.2,7.7,0.2c2.2-0.9,6.4-0.7,8.2-0.6  c1.7,0.1,6.8,0.6,8.5-0.6c1.7-1.2,4.4-1.2,5.6-0.9c1.2,0.3,3.2,1.5,3.9-0.6c0.7-2.1,1-2.4,1-3.4c0-0.9,2.1-1,2.6-2.8  c0.5-1.7,0.8-4.2,1.8-6.1c1-1.9,0.9-5,4.2-5.2c3.3-0.2,5-0.6,5.3-1.2c0.2-0.6,1.1-0.9,2.1-0.6c1,0.2,0-1.7,2.2-2.8  c2.2-1,1.7-2.1,1.7-2.8c0-0.7-0.8-1.1,0.6-2.1C481.8,392.5,481.3,390.3,480.5,390.1z" stroke-miterlimit="10" stroke="#FFFFFF"/>
</svg>