<?xml version="1.0" encoding="UTF-8" standalone="no"?><!-- Generator: Adobe Illustrator 18.0.0, SVG Export Plug-In . SVG Version: 6.00 Build 0)  --><svg xmlns="http://www.w3.org/2000/svg" xmlns:xlink="http://www.w3.org/1999/xlink" contentScriptType="text/ecmascript" zoomAndPan="magnify" contentStyleType="text/css" id="图层_1" mapName="浙江省" mapType="省市地图" enable-background="new 0 0 800 600" version="1.1" xml:space="preserve" preserveAspectRatio="xMidYMid meet" viewBox="0 0 800 600" x="0px" y="0px">
<path name="杭州市" fill="#D3D3D3" id="path0" d="M345.4,224.5c-0.6-1.3-0.5-0.8-1.1-0.1c-0.6,0.7-3.2,1.3-4.4,0.8  c-1.1-0.6-4.4-5.1-2.7-5.7c1.7-0.6,12.6-0.1,14.1-1.9c1.5-1.8,2.2-3.4,1.7-5.4c-0.5-2-0.4-3,1.1-3c1.5,0,9.2-0.6,11.5-5.1  c2.3-4.5,2.7-6.4,4.2-6.5c1.6-0.1,4.4-4.8,6.7-4c2.3,0.9,5.1,2.2,6.6,1.5s3.6-1.3,4.4-0.9c0.9,0.4,1.5-3.1,2.9-4.6  c1.5-1.5,3-2.9,1.7-4.7c-1.3-1.8-4-6.7-3.5-9.5c0.6-2.8-1-3.9-2.4-5.8c-1.3-1.9-2.1-4.3,0.8-4.3s5.2-4.3,7.4-1.2  c2.2,3,7.3,1.5,8.1,0.3c0.8-1.1,1.8-3.4,3.7-3c1.9,0.3,4,1.3,6.4,1.3s2.9,0.1,4.6,1.3c1.6,1.2,2.7,2.2,5.9,1.3  c0-0.7,0.3-1.5,0.7-2.7c0.7-2.4-0.7-6.3-0.8-8.6c-0.1-2.3-1.4-4.2-0.5-5.8c0.9-1.6-0.2-2.3-1.3-3.3c-1.1-1-0.9-4.2-0.5-7.9  c0.5-3.7-9.1-2.7-16.8-1.3c-7.7,1.4-8.2,7.4-9.7,11.8c-1.5,4.4-9.2,1.8-11.4-0.7c-2.1-2.5-1.7-1.4-4.7,1.8c-3,3.2-2.7-1.5-0.5-3.6  c2.2-2.2,6.6-2,9.6-0.1c2.7,1.7,6.6-5.7,8.8-10.2c-1.1,0-4.1,0.1-5.2-0.8c-1.4-1.1-1-2.1-3.3-2.4c-2.3-0.3-2.6-2-0.8-3  s2.4-3.4,2.3-5.4c-0.1-2-1.5-9.6-3.9-9.6c-2.4,0.1-5.8,1.2-7.5,1c-1.7-0.2-2.5-1.6-2.7-3c-0.2-1.4-0.8-4.2-1.8-0.7  c-1,3.6-2.5,6-4.6,5.7c-2.1-0.3-5-2-7.3-1.6c-2.2,0.3-5.5,0.5-5.2,4.1s1.1,5.8-1.5,5.5c-2.5-0.4-7-1-8.6,0.1c-1.6,1-2.5,0.8-3.7-0.1  c-1.1-1-2.3-1.1-3.8-1.2c-1.5-0.1-2.9-0.1-4.9-2.9c-2-2.7-2.1-4.1-5.4-4.1s-2.9-0.2-2.9-2.1c-0.1-1.9-0.4-3-2.5-3  c-2.2,0-3.9,0.4-6.1-0.6c-2.2-1-3.8-0.4-4.3,1.6c-0.5,2,0.4,7.3,0.8,4.3c0.4-3,2.8-4.3,2.9-1.5c0.1,2.8-1.1,7.3-0.9,9.5  c0.2,2.2-1.5,13.2-5.5,10.1c-3.9-3.1-2.1-7.6-3.7-5.9c-1.6,1.7-2.5,3.6-4.8,3.2c-2.3-0.5-4.1-3.3-5.1-1s-2.1,5.1-4.6,3.2  c-2.5-1.8-2.5-4.1-4.1-0.9c-1.4,2.8-7.3,3.2-8.6,3.2c0.1,0.8,0,1.5-0.1,2.2c-0.2,1.6-3.1,1.8-4.8-0.2c-1.6-2-4.5-2-7.3-0.1  c-2.7,1.9-4.6,3.9-5.7,7.3c-1.1,3.4-9.1,1.1-12.4,0c-3.3-1.1-4.1-2.4-5.7-1c-1.6,1.4-4.4,0.1-5.6-1c-1.1-1.1-3.3-3.1-8.4-4.3  c-5.1-1.1-9.1,8.4-9.1,12c0,3.6,2.6,4.9,4.4,6.3c1.9,1.4-4.1,4.2-7.4,6.4c-3.3,2.3,1.7,2,3.1,2.4c1.4,0.4,1.6,2.3-0.6,3.6  c-2.1,1.3-1.7,6.3-0.9,7.4c0.9,1.1,1.7,9.7,2.3,13.9c0.6,4.2-3.7,4-5.4,4c-1.7,0-1,1-0.3,3.4c0.7,2.4-6.4,8.6-10,10  c-3.6,1.4-3.6,4.3-3.9,7c-0.3,2.7,1.3,5.6,1.3,8c0,2.4-6.9,7-9.1,9.3c-2.3,2.3-4.6,2.6-7.7,1.6c-3.1-1-7,6.9-9.3,9.2  c-2.3,2.3-4.6,2.9-5.1,6.9c-0.6,4-1.1,1.6-6.4,4c-5.3,2.4-6.4,1.4-11.1,1.3c-0.1,0-0.1,0-0.2,0c0.6,1.1,5.1,9.5,6.5,10  c1.5,0.5,2.5-0.4,2.7,1.9c0.2,2.3,2.2,3.4,4.1,3.6c1.8,0.2,0.1,3.4,4.8,2.3c4.7-1.1,5.6-3.1,6.5,0.3c0.9,3.4,0.3,5.3,3.2,5.4  c2.9,0.2,5.2-0.3,4.8,2c-0.4,2.3-1.5,4.4-0.7,5.6c0.8,1.3,0.8,3,0.8,4.6s1.1,6.7,7.2,6.7c6.1,0,7.6-1,9.6-3.4  c1.9-2.4,0.5-4.5,2.8-5.1c2.2-0.6,3.7-3.3,5.4-3.9c1.7-0.5,6.3-8.2,8.5-7.2c2.2,0.9,4.9,2.2,7.7,7.3c2.8,5.1,3,5.6,3.8,6.9  c0.8,1.2-0.5,3.7,2.8,3.3c3.4-0.4,12.3-5.8,13.6-3.5c1.2,2.3,2.5,4,3.5,2.4c1.1-1.6,5.5-9.6,7.4-7.9c1.5,1.4,4.5,0.7,5.4,1.2  c0.3-0.3,3.6-3.1,4.7-7.1c1.2-4.2,1.4-11.2,4.2-12.2c2.8-1,4.4,0.6,9.2-0.2c4.8-0.8,2.3,0.3,2.8,2.3c0.5,2,1.2,7.2,6.8,6.1  c5.6-1.2,11.4-3.8,12-5.9s3.6-5.2,8.5-5.7c4.8-0.4,4.3-10,5.2-12.4c0.9-2.4,5.2-5.7,5.2-12.4c0-6.7,4.8-13.4,8.7-11.9  c3.9,1.5,3.8,4.6,9,2c2.4-1.2,4.1-1.7,5.4-1.8C345.4,228.5,345.9,225.6,345.4,224.5z" stroke-miterlimit="10" stroke="#FFFFFF"/>
<path name="绍兴市" fill="#D3D3D3" id="path1" d="M495.7,262c-0.9-2.1,0.9-2.9,1-9c0.1-6.2-2.3-5.3-5.5-6.4  c-3.3-1.1-5.4,0.2-7.2-1.8c-1.8-2.1-1.1-3.7-1-5.9c0.1-2.2-0.1-4.2-1.9-4.5c-1.8-0.2-3.5-1.1-5.8-2.5s-1.3-3.6-0.7-5.2  c0.6-1.6,0.1-4.9-1.1-6.5c-1.2-1.6,2.1-5.4,4.8-6.7c2.7-1.3,3.1-2.3,3.1-3.7c0-1.4-0.6-5-3.4-5.7c-2.8-0.7-4.1-2.4-5.9-4.1  c-1.7-1.7-2.5-3.5-1.6-3.7c0.9-0.2,2.7-3.4,2.7-5.1c0-1.8,0.6-1.5,2.4-1.9c1.8-0.5,3.3-4.7,2.8-6.6c-0.5-2-3-1.1-6.8-0.9  c-3.8,0.2-4.9-2.5-5.3-4.2c-0.4-1.7-1.1-4.9-3.5-6.6c-2-1.4-4.7-8.1-5.6-10.5c-4.5,2.5-8.7,4.6-10.1,4.8c-3.1,0.4-2.4,0.3-2.4-2.7  c0-3-4.3-4.6-8.3-3.5c-3.9,1.2-3.8,2.2-4.7,4.8c-0.9,2.6-1.4,2.4-3.1,1.5c-1.7-0.9-2.1-1-2.2,0.2c-0.1,1.1-0.9,2.2-2.4,1.6  c-0.8-0.3-1-0.8-1-1.6c-3.1,0.9-4.2-0.1-5.9-1.3c-1.7-1.2-2.2-1.3-4.6-1.3s-4.5-1-6.4-1.3c-1.9-0.3-2.9,1.9-3.7,3  c-0.8,1.1-5.8,2.7-8.1-0.3c-2.2-3-4.5,1.2-7.4,1.2s-2.1,2.4-0.8,4.3c1.3,1.9,2.9,3,2.4,5.8c-0.6,2.8,2.1,7.7,3.5,9.5  c1.3,1.8-0.2,3.2-1.7,4.7c-1.5,1.5-2.1,5-2.9,4.6c-0.9-0.4-2.9,0.2-4.4,0.9s-4.4-0.6-6.6-1.5c-2.3-0.9-5.2,3.9-6.7,4  c-1.6,0.1-1.9,2-4.2,6.5c-2.3,4.5-10,5.1-11.5,5.1c-1.5,0-1.6,0.9-1.1,3c0.5,2-0.2,3.7-1.7,5.4c-1.5,1.8-12.4,1.3-14.1,1.9  c-1.7,0.6,1.6,5.1,2.7,5.7c1.1,0.6,3.7-0.1,4.4-0.8c0.6-0.7,0.5-1.1,1.1,0.1c0.5,1.1,0.1,4-0.1,4.9c1.5-0.2,2.4,0.2,3.5,0.5  c1.9,0.6,5.4,3.1,3.8,5.5c-1.6,2.4-3.1,7.8-1.7,9.4c1.4,1.6,7.2,3.8,8.8,6.1c1.6,2.4,1.4,4.2,4.7,3.2c3.3-1,5.1-4.7,5.1-4.7  s1.9-1.9,4,0.4c2.1,2.3,7.8,2.9,7.3,5.4c-0.6,2.6-3.8,4.4-1.4,5.1c2.4,0.7,3,0.1,3,3.6c0,3.4-1.1,10.3,5.4,6.4  c6.6-3.8,9.8-6.7,11-8.8c1.1-2.1,4.3-7.6,6.4-4.4c2.1,3.1,2.9,6.7,6.3,9.3c3.4,2.6,5.3,9.8,10.3,10s5.4,1.4,7.3,1.1  c1.9-0.3,4.6-3,5.6,0.1c1,3.1,2.3,2.4,4,2.4s2,0.7,2.7,3.1c0.7,2.4,0.5,7.5,3.2,7.8c0.2-1,2.3-1.4,3.7-1.7c1.4-0.3,2.7-3.4,3.9-3.9  c1.3-0.4,1.1,2.3,3.1,2.9c2,0.7,2.7-2.8,3.7-6.5c0.9-3.7,5.5-0.9,8-0.3c2.4,0.6,2.5-0.2,2.6-1.9c0.1-1.7,3.1-1,4.3-0.9  c1.2,0.2,2.4-1.6,2.7-1.9c0.3-0.3,2-2,4,0.5c1.9,2.4,3.3,0.9,3.8-1.6c0.5-2.5,1.4-0.3,3.3,0.3c1.6,0.4,3.8,0.5,4.5,0.5  c1.5-2.2,3.7-4.4,5.2-5.8C499.6,268.1,496.6,264.1,495.7,262z" stroke-miterlimit="10" stroke="#FFFFFF"/>
<path name="金华市" fill="#D3D3D3" id="path2" d="M441.1,283.2c-0.7-2.4-1-3.1-2.7-3.1s-3,0.7-4-2.4  c-1-3.1-3.7-0.4-5.6-0.1c-1.9,0.3-2.3-1-7.3-1.1s-6.8-7.4-10.3-10c-3.4-2.6-4.1-6.1-6.3-9.3c-2.1-3.1-5.3,2.3-6.4,4.4  c-1.1,2.1-4.4,5-11,8.8c-6.6,3.8-5.4-3-5.4-6.4c0-3.4-0.6-2.9-3-3.6c-2.4-0.7,0.9-2.6,1.4-5.1c0.6-2.6-5.1-3.1-7.3-5.4  c-2.1-2.3-4-0.4-4-0.4s-1.9,3.7-5.1,4.7c-3.3,1-3.1-0.8-4.7-3.2c-1.6-2.4-7.4-4.5-8.8-6.1c-1.4-1.6,0.1-7,1.7-9.4  c1.6-2.4-1.8-4.9-3.8-5.5c-1.9-0.6-3.6-1.3-8.8,1.3c-5.3,2.6-5.2-0.5-9-2c-3.9-1.5-8.7,5.2-8.7,11.9c0,6.7-4.3,10-5.2,12.4  c-0.9,2.4-0.3,12-5.2,12.4c-4.8,0.4-7.9,3.6-8.5,5.7s-6.4,4.8-12,5.9c-5.6,1.2-6.3-4.1-6.8-6.1c-0.5-2,2-3.1-2.8-2.3  c-4.8,0.8-6.4-0.8-9.2,0.2c-2.8,1-3,8-4.2,12.2c-1.1,4-4.4,6.8-4.7,7.1c0.2,0.1,0.3,0.3,0.2,0.5c-0.4,1.4-5.1,5.5-2.5,10.5  c2.7,5,6.8,10.5,7.8,12.6s1.9,3,1.5,12.5c-0.3,9.5-1,10.8,1.5,13.3c2.5,2.6,0.2,4.9,0.4,5.8c0.2,0.9,0.7,6.3,0,8.3  c0.2,0.3,0.4,0.7,0.7,1.2c1,1.7,3.5,3.6,5,3.4c1.4-0.2,3.5,2,4.8,1c1.3-1,5.4-2.8,5.7,0.2c0.3,3.1-0.4,7.8-0.5,8.9  c-0.2,1.1-2.5,4.2-1.5,6.8c1.1,2.6,2.7,2.4,3.8,2.7c1.1,0.4,2,4.5,1.5,6.1c-0.5,1.6-2.4,1.8-1,4.3s0.9,5.8,4.7,5.8  c3.8-0.1,10.8-1.4,13.2-1.2c2.4,0.2,4.5-2.2,6.8-6.3c2.3-4.1,5.4-8.5,7.6-8.5c2.2,0,3.7-4,3.9-6.1c0.2-2,1.4-6.6,3.2-6.9  c1.8-0.3,6.4-6.5,6.8-9.1c0.4-2.7,3.9-4.4,5.5-3.2c1.6,1.2,2.6,1.4,4.9,1c2.4-0.4,2.6-0.1,3.8,1.6c1.3,1.7,4.1,3.4,5.1,2  c1-1.4,4.1-2.9,5.7-1.7c1.6,1.2,4.9,3.4,6.9,2c2-1.5,8.3-8.2,10.9-10.9c2.6-2.7,3.3-4.7,2.5-6.7c-0.7-2-2.7-2.5,0.1-3.9  c2.8-1.5,5.3-2.4,5.6,0.8c0.3,3.2,3.1,7.7,5.7,7.6c2.5-0.2,6.7,0.4,7.4,1.5c0.5-0.1,3.8-0.5,4.8-1.3c1.1-0.9,5.5,0.2,6.8,0.4  c1.3,0.2,6.4-2.6,8-4.2c1.6-1.5,5.4-3.4,7.2-4.5c1.8-1.1,1.9-2.4,1.9-5.1c0-2.6,2.8-6.6,4.8-8.8c2-2.2,0.1-10.9-0.1-12.1  c-0.2-1.2,0-1.8,1-2.1c1-0.4,2.9-0.4,3.2-1.7c0.3-1.2-2.6-1.5-3.5-3.1c-0.9-1.6,3.6-5.6,5.4-6.4c1.7-0.8,3.3-3.4,3.4-4.5  c0,0,0-0.1,0-0.1C441.6,290.7,441.8,285.5,441.1,283.2z" stroke-miterlimit="10" stroke="#FFFFFF"/>
<path name="衢州市" fill="#D3D3D3" id="path3" d="M272.6,343.8c-0.2-0.9,2-3.2-0.4-5.8c-2.5-2.6-1.8-3.8-1.5-13.3  c0.3-9.5-0.6-10.4-1.5-12.5s-5.1-7.6-7.8-12.6c-2.7-5,2.1-9,2.5-10.5c0.4-1.4-3.8-0.1-5.7-1.8c-1.9-1.7-6.3,6.3-7.4,7.9  c-1.1,1.6-2.3-0.1-3.5-2.4c-1.2-2.3-10.2,3.1-13.6,3.5c-3.4,0.4-2.1-2-2.8-3.3c-0.8-1.2-0.9-1.8-3.8-6.9c-2.8-5.1-5.5-6.3-7.7-7.3  c-2.2-0.9-6.8,6.7-8.5,7.2c-1.7,0.5-3.2,3.3-5.4,3.9c-2.2,0.6-0.8,2.7-2.8,5.1c-1.9,2.4-3.5,3.4-9.6,3.4c-6.1,0-7.2-5-7.2-6.7  s0-3.4-0.8-4.6c-0.8-1.3,0.3-3.3,0.7-5.6c0.4-2.3-1.9-1.8-4.8-2c-2.9-0.2-2.3-2-3.2-5.4c-0.9-3.4-1.8-1.4-6.5-0.3  c-4.7,1.1-3-2.1-4.8-2.3c-1.8-0.2-3.9-1.3-4.1-3.6c-0.2-2.3-1.1-1.4-2.7-1.9c-1.4-0.5-5.9-8.9-6.5-10c-4.5,0-2.8,3.6-2.7,5.4  c0.1,1.9,2.1,4.2-3.3,3.9c-5.4-0.3-4.1,0-8.1,1.9c-4,1.9-2,5.3-2,7.6c0,2.3-2.4,3.1-4,6.9c-1.6,3.7-6,3.9-9.6,3.1  c-3.6-0.7-3.4,2.3-3,5.3c0.4,3-0.1,3.1-3.1,5.4c-3,2.3-2.1,5-0.6,6.2c1.6,1.1,2,4.6,1,6.4c-1,1.9-0.3,1.9,0.7,3c1,1.1,1.1,2.9,1.1,4  c0,1.1-0.1,2.7,1,3.1c1.1,0.4,1.1,2.6,3.1,5c2,2.4,2.7,2.6,5,2.1c2.3-0.4,4.4,2.4,7.4,3.4c3,1,1.6,2.1-0.6,5.6  c-2.1,3.4,2.6,1.3,6.4,0.7c3.9-0.6,5.6,9.2,5.7,11.3c0.1,2.1,0.9,2.6,2.6,2.6c1.7,0,3.3,2.4,4.7,3.3c1.4,0.9,3.4,6.6,3.4,9.3  s0.9,6,3.1,7.4c2.3,1.4-1,9-2.3,10.7c-1.3,1.7-1.3,3.3,0.7,5.4c2,2.1,0.1,4.4,0.1,6.6s3.3,3.7,4.4,5.7c1.1,2-1.5,6.9-1.8,8.2  c-0.3,1.3,2.3,6.9,3.7,8.6c1.4,1.7-2.4,5.5-3.9,6.9c-1.5,1.4-0.6,1.4-0.2,3.1c0.4,1.7,2.2,3.9,3.9,4.4c1.7,0.5,1.9-0.9,3-2.6  c1.1-1.7,6-2.2,8.6-2.7c2.6-0.5,3.9,3.2,5.1,3.9c1.2,0.6,4.3-1,6.8-2.2c2.5-1.2,2.2-3,4.5-4.9c0.3-0.3,0.7-0.4,1-0.4  c1.1-1.7,6.3-9.9,6.3-11.9c0-2.2,0-3.6-1.4-3.3c-1.4,0.2-2.1-0.2-2.1-1.7c0-1.5,1-8.2,0.3-9c-0.7-0.8,2.3-1.9,3.4-1.9  c1,0,5.3-4.4,8.4-4.1c3.2,0.2,8.1,1.1,9.5-1c1.4-2.2,1.5-8.6,2.7-9.5c1.3-1,4.7-4.9,7.2-6.5c2.5-1.6,6.4-9,11.1-10.2  c4.7-1.2,10.6-1.2,11.8-3.3c1.2-2.1,5.5-0.4,8-2.1c2.4-1.7,2.9-4.2,7.6-4.3c3.2-0.1,4,0.1,4.5,0.7  C273.3,350.1,272.8,344.6,272.6,343.8z" stroke-miterlimit="10" stroke="#FFFFFF"/>
<path name="丽水市" fill="#D3D3D3" id="path4" d="M387.7,390.2c-1.6-0.5-3.7-5.7-3.3-8.8s2.3-0.9,5.8-2.5  c3.5-1.6,0.1-5.1-0.7-6.9c-0.8-1.9,0.1-3.6,1.4-5.2c1.3-1.5,2.4-4.2,2.9-6.1c0.5-1.9,0.8-4.6,0.2-5.8c-0.7-1.2,3.7-3.7,5.1-5.6  c1.4-1.9,2.5-3.5,2.3-4.7c-0.2-1.2-4.8-1.9-7.5-1.7c-2.6,0.2-5.4-4.4-5.7-7.6c-0.3-3.2-2.8-2.3-5.6-0.8c-2.8,1.5-0.8,2-0.1,3.9  c0.7,2,0.1,3.9-2.5,6.7c-2.6,2.7-8.9,9.4-10.9,10.9c-2,1.5-5.3-0.8-6.9-2c-1.6-1.2-4.7,0.3-5.7,1.7c-1,1.4-3.8-0.3-5.1-2  c-1.3-1.7-1.5-2-3.8-1.6c-2.4,0.4-3.3,0.2-4.9-1c-1.6-1.2-5.1,0.6-5.5,3.2c-0.4,2.7-4.9,8.9-6.8,9.1c-1.8,0.3-3,4.9-3.2,6.9  c-0.2,2-1.7,6.1-3.9,6.1c-2.2,0-5.3,4.4-7.6,8.5c-2.3,4.1-4.4,6.5-6.8,6.3c-2.4-0.2-9.4,1.1-13.2,1.2c-3.8,0.1-3.3-3.3-4.7-5.8  s0.5-2.6,1-4.3c0.5-1.6-0.4-5.7-1.5-6.1c-1.1-0.4-2.7-0.1-3.8-2.7c-1.1-2.6,1.3-5.7,1.5-6.8c0.2-1.1,0.9-5.9,0.5-8.9  c-0.3-3.1-4.4-1.2-5.7-0.2c-1.3,1-3.4-1.3-4.8-1c-1.4,0.2-4-1.7-5-3.4c-1-1.7-0.5-2-5.2-1.9c-4.7,0.1-5.2,2.6-7.6,4.3  c-2.4,1.7-6.8,0-8,2.1c-1.2,2.1-7.1,2.1-11.8,3.3c-4.7,1.2-8.6,8.6-11.1,10.2c-2.5,1.6-5.9,5.5-7.2,6.5c-1.3,1-1.4,7.4-2.7,9.5  c-1.4,2.2-6.3,1.3-9.5,1c-3.2-0.2-7.4,4.1-8.4,4.1c-1,0-4.1,1-3.4,1.9c0.7,0.8-0.3,7.5-0.3,9c0,1.5,0.7,1.9,2.1,1.7  c1.4-0.2,1.4,1.1,1.4,3.3c0,2-5.2,10.2-6.3,11.9c1.8,0,3.1,4.2,4,6c1,2,1.8,1.9,5.7,3.2c3.9,1.3-0.2,5.2-1.9,7.7  c-1.7,2.5,1.1,5.2,2.6,7.8c1.5,2.6-4.8,6.6-6.9,9.5c-2,2.9-1,9.4,0.1,12.3c1.1,2.9,0.2,3,2.5,4s4.2,3.7,6.2,4.7  c2,1.1,2.4,4.9,2.7,7.6c0.3,2.7,1.1,5.8,1.6,7.6c0.5,1.7,0.6,4.5,1.7,6.7c1.1,2.2,1.9,4.3,1.9,6.3c0,1.9-0.2,3.7,1.3,6  c1.5,2.4,2.5,9.9,2.6,13.5c0.1,3.6-2.9,5-5,5c-2,0,1.8,6,3.4,7.3c1.6,1.3,2.2,2.9,3,2.5c0.9-0.4,8.6-3.3,11.4-3.7  c2.8-0.3,3.7,0.8,5.1,1.9c1.4,1.2,3,0.4,5.4-0.3c2.4-0.7,2.8,2.7,3.8,5.1c1,2.4,6.6,2.3,10.1,3c3.5,0.7,5.4-1.5,6.4-3.5  c1-2,2.4-2.2,4.8-4.1c2.3-1.9,6.3-6.1,7.7-7.9c1.4-1.9,7.7,0.7,9.5,0.5c1.9-0.2,4.9-13.1,6.3-16.8c1.4-3.6,9.4-4.8,12.9-4.5  c1.1,0.1,1.8,0.6,2.2,1.4c2-2,1.1-7.2,2.4-8c1.3-0.8,3.3-3.9,4-5.9c0.7-2,1.8-4.1,3.4-4.1c1.6,0,5.5-3.5,7.8-6.8  c2.3-3.3,2.9-8.4,2.9-11.3s1.1-1.5,2.7-0.8c1.6,0.7,2.2-2,4.6-5.8c2.4-3.8,3.4-2.8,5.1-1.7s3.1,1,4.8,0.2c1.7-0.8,1.9-0.8,3.1,0.8  c1.2,1.6,4.4,1.2,8.6,1.5c4.2,0.3,7.9-2.2,10.8-3.6c3-1.4,5.4,1.4,6.6,3.9c1.2,2.5,2.1,3.4,4.3,3.9c2.3,0.5,2.5-3.5,4.4-6.6  c2-3.1,4.1-1.2,7.1-1.1c3,0.1,2.8-1.7,2.8-3.9s0.1-5.4,1.9-6.7c1.8-1.3,1.5-2.5,1.5-3.6c0-1.1-0.4-4.1,2-3.6  c2.4,0.5,2.7-1.8,2.5-3.9c-0.2-2.2-1.3-4.4,2.1-6.6c3.4-2.2-0.1-12.1-1-15c-0.9-2.9-3.8-4.5-5.9-5.6c-2.1-1-3-1.8-4.1-6.2  c-1.1-4.4,3.1-5.1,3.9-5.3c0.8-0.2,1.6-2.1,1-3.7c-0.4-1.1,0.8-2.5,2.4-3.3c-0.1-0.4-0.3-1.1-0.6-2.1  C397.1,392.5,389.4,390.7,387.7,390.2z" stroke-miterlimit="10" stroke="#FFFFFF"/>
<path name="温州市" fill="#D3D3D3" id="path5" d="M496.6,408.9c-0.9-1-1.7-3.9-2.8-3.2c-1.2,0.8-1.1,2.1-0.5,3.9  c0.5,1.8-0.8,1.4-2.9,3.3c-2.1,1.9-2.3,0.4-3.3,4.1c-1,3.7-2.1,3.9-4.8,3.3c-2.8-0.6-2.5-3.2-4-2.8c-1.5,0.4-2.9,2.9-1.2,3  c1.7,0.1,5.2,1.9,7.6,2.6c2.3,0.7,2.6,1.2,2.3,3c-0.3,1.8-2.3,1.9-1,3.4c1.4,1.5,0.3,3.2-1.4,2.8c-1.7-0.4-2.6-0.7-1.5,1  c1.1,1.7,1.3,3.4-0.5,3.2c-1.8-0.2-3.8-1-3.4,1.6s-0.8,2.9-2.1,2.2c-1.3-0.8-2.9,0.3-3,1.1c-0.1,0.8,0.2,3.4-1.4,3.8  c-1.6,0.5-3.1,1-1.6,1.9c1.5,0.8,2.8,2.9,1.2,5.4s-1.4,3.7-2.7,5.2c-1.3,1.5-2.1,5.3-3.3,4.5c-1.3-0.8-4.3-0.6-5.5-0.6  s-10.7,0.6-11.6-1.2c-0.9-1.8-2.4-2.4-3.5-2.3c-1.1,0.1-0.4,0.5-2.8-0.8c-2.4-1.3-1.4-1.6-2.9-1.6s-5.1-0.1-5.9-1.2  c-0.8-1.1-1.5-2-2.4-0.9c-0.9,1.1-3.2,3-5,2.1c-1.8-0.9-3.3-4.1-3.5-5.4c-0.2-1.4-1.3-3.2-1.6-1c-0.3,2.3,0.6,7.3,3.2,7.8  c2.6,0.5,6.2,0,9.1,0.8c2.9,0.8,5.3,2.1,5.5,3.3c0.1,1.2,1.1,2.3,2.5,2.3c1.4,0,1.3,1.1,3.2,1.1s7.1,0.9,8.1,2.5  c1.1,1.6,1.8,7.7,1.2,10.4c-0.6,2.7-2.4,5.1-4.7,5.4c-2.3,0.3-3.8,1.4-4,2.7c-0.3,1.3-5.5,8.4-5.5,10.3c0,1.9-0.4,4.3-3.2,3.7  c-2.9-0.6-5.3,0.4-4.5,1.5c0.8,1.1,1.1,3.1-0.1,4.4c-1.3,1.3-3.7,2.1-2.2,3c1.5,0.9,2.8,2.7,1.9,3.9c-0.9,1.2-2.4,3-3.4,3  c-1,0.1-1.8,0.6-1.8,1.2c0,0.7-2.4,0.9-3.5,0.6c-1-0.2-2.4,1.2-1.2,2.1c1.2,0.9,1.9,1.4,1.1,3.5c-0.9,2.1-0.9,4.4,0.7,4.9  c1.6,0.5,2,2.7,3.2,3c1.2,0.2,8.3,2.1,6.7,4c-1.6,1.9-2.3,1.5-2.3,2.4c0,0.8-0.9,0.8-1.6,0.3c-0.7-0.5-0.9-0.3-0.9,0.7  c0,1-0.2,2.2-0.6,3c-0.5,0.8,0.1,2.1,0.6,3s0.1,5-2.1,3.8c-2.2-1.2-3.4-2.2-4.3-2.1c-1,0.1-1.7-0.6-2.3-1.4  c-0.6-0.8-2.6-0.6-3.3-0.3c-0.7,0.4-0.1,1,0.8,1.4c0.9,0.4,0.7,1.6-0.5,1.8c-1.2,0.2-0.2,2.1-1.4,3c-1.2,0.9-3.8,2.6-1.2,3.2  c2.6,0.6,3.5,0.5,3.5,1.8c0,1.3-0.3,4.4-1.7,4.2c-1.4-0.2-4.2,1.8-3.5,2.8c0.8,1,2.9,4.1,1.3,5.1c-1.6,1-1.1,2.4-0.8,3.5  c0.3,1.1-2.7,4-4.4,4.2c-1.7,0.2-2.9,0.1-2.3-1.7c0.6-1.8,1.2-3.9-0.1-3.9c-1.3,0-2.8,1.6-2.6,3.8c0.3,2.2-1.9-1.3-2.3-1.9  c-0.4-0.5-1.5-3.3-0.7-6.6c0.8-3.3-0.2-7.9-2.4-9.4c-2.2-1.5-4.1-4.1-4.8-6.1c-0.7-2-1.3-5.7-3.9-5.3c-2.7,0.4-4.6-0.1-5.5-1  c-0.9-0.8-1.3-2.8-4.9-3.3c-3.7-0.5-10.9,0-10.9,0s-2.9,1.9-4.1,3.3c-1.2,1.4-5.7,6-7.5,6.2c-1.7,0.2-3.2-0.6-4.4-1.9  c-1.2-1.3-3.6-3.5-5.5-1.1c-1.9,2.4-4.1,6.2-7,7.2c-3,1-4.9,1.8-5.9,0.8c-0.9-1-1.9-1.7-2.7-1.2c-0.7,0.4-0.3,2.3-2.4,2  c-2.1-0.3-3.6-1.5-4.2-1c-0.6,0.5-1.5,0.7-1.3-0.3c0.2-1,0.7-3.3-0.1-4c-0.8-0.7-1.9-1.7-2.4-3.7c-0.6-2-2-4.9-3.5-5.6  c-1.4-0.7-2.3-2.9-2.3-5c-0.1-2.1,1.6-11-0.1-11.2c-1.7-0.1-5.5,1.5-5.5,0.3c-0.1-1.2,2.8-5.5-0.8-5.4c-3.6,0.1-4.9-0.7-3.4-3.9  c1-2.2,1.7-4.9,1-6.4c2-2,1.1-7.2,2.4-8c1.3-0.8,3.3-3.9,4-5.9c0.7-2,1.8-4.1,3.4-4.1c1.6,0,5.5-3.5,7.8-6.8  c2.3-3.3,2.9-8.4,2.9-11.3s1.1-1.5,2.7-0.8c1.6,0.7,2.2-2,4.6-5.8c2.4-3.8,3.4-2.8,5.1-1.7s3.1,1,4.8,0.2c1.7-0.8,1.9-0.8,3.1,0.8  c1.2,1.6,4.4,1.2,8.6,1.5c4.2,0.3,7.9-2.2,10.8-3.6c3-1.4,5.4,1.4,6.6,3.9c1.2,2.5,2.1,3.4,4.3,3.9c2.3,0.5,2.5-3.5,4.4-6.6  c2-3.1,4.1-1.2,7.1-1.1c3,0.1,2.8-1.7,2.8-3.9s0.1-5.4,1.9-6.7c1.8-1.3,1.5-2.5,1.5-3.6c0-1.1-0.4-4.1,2-3.6  c2.4,0.5,2.7-1.8,2.5-3.9c-0.2-2.2-1.3-4.4,2.1-6.6c3.4-2.2-0.1-12.1-1-15c-0.9-2.9-3.8-4.5-5.9-5.6c-2.1-1-3-1.8-4.1-6.2  c-1.1-4.4,3.1-5.1,3.9-5.3c0.8-0.2,1.6-2.1,1-3.7c-0.6-1.7,2.4-3.9,4.7-4c2.4-0.1,2.7-3.2,2.1-5.5s-0.9-4.7,1.2-9  c2.2-4.2,4.8-0.3,7.5,1.9c2.7,2.2,5.6,2.4,7.8,2.4c2.3,0,3.2,1.5,5.8,2.5c2.6,0.9,2.3-3,2.3-4.9s2.1-3.4,4.5-2.9  c2.5,0.5,5.5-1.3,8.8-3.3c3.3-2,4.7-0.5,6.3,2.4c1.5,2.9,4.1,4.3,5.7,5.7c1.5,1.3,1.6,4.5,2.2,7.2c0.5,2.7,5.5-0.3,8.1-1  c2.7-0.7,6.4,1.2,10.2,2c3.8,0.7,7.6-3.5,10.1-6.5c2.5-3,4.5,1.4,5.9,2c1.3,0.5,2.6,0.8,3.2,1.9c0.6,1,1.5,2.5,2.9,3.5  c1.3,1,1.3,3.4,0.6,5.2c-0.7,1.8,0.7,2.6,1.2,4.1C497.2,404.1,496.8,407.8,496.6,408.9z M442.7,459.3c-1.6-0.3-1.6,0.8-1.5,1.4  c0.1,0.6,3.2,1.3,3.8,1.5c0.6,0.2,1.1-0.2,0.7-1.7C445.4,459,444.3,459.6,442.7,459.3z M483,532c-0.9-0.7-1.4-1.2-1.9-0.4  c-0.5,0.8-2.7,0.1-3.1,1.9c-0.4,1.8,0.1,2.7,0.8,2.8c0.8,0.1,0.5-0.6,0.6-0.6c0.2,0.1,0.6-2.5,1.9-1.9c1.3,0.6,3.4,1.5,3.4,0.5  C484.8,533.2,483.9,532.7,483,532z" stroke-miterlimit="10" stroke="#FFFFFF"/>
<path name="台州市" fill="#D3D3D3" id="path6" d="M555.6,329.5c-1.3,0.4-1.3,2.9-2.8,2.3c-1.6-0.6-1.6,1.3-3.8-0.3  c-2.2-1.6-8.8-3.2-9.6-1.7c-0.8,1.6-1.7,1.4-1.9,0.1c-0.2-1.3-0.1-4.5-1.6-4.2c-1.5,0.3-1.9,2.7-3.1,2c-1.3-0.7-3.9-1-3.9,0.4  s1.5,2.5,2.8,2.1c1.4-0.4,0.4,0.6,2.6,2.1c2.2,1.5,4.1,2.4,6.9,2.1c2.8-0.3,6.6,2.6,5.4,4.3c-1.1,1.7-2.7,4.4-0.1,3.4  c2.6-1,2.2-1.3,4.3-0.1c2.1,1.2,1.4,2.1,0,2.6c-1.4,0.5-5.1,3.2-2.7,3.2c2.3,0,4.5-0.1,3.9,0.9c-0.6,1-2.6,0.5-3.4,1.6  c-0.8,1-2.8,1.6-2.8,4.1c0,2.6,0.9,5-1.2,5c-2.1,0-5.4-0.4-7.2,1.4c-1.8,1.8-8.4,1.7-10.6,1.3c-2.2-0.4-4.7,1-2.5,2.6  c2.2,1.6,5,1.6,6.5,7.4c1.4,5.8,4.1,11.8,5.6,13.7c1.4,1.9,1,0.1,3.6-1.2c2.6-1.3,5.8-2.8,4,1.6s-2.5,3.5-3.6,3.5  c-1.1,0-3.4,0.4-1.2,2.1c2.2,1.6,2.2,2.2,0.8,3.7c-1.4,1.5-2.9,1.2-0.3,5.1c2.6,3.9,0.7,9.1,2.6,8.9c1.9-0.1,2.8-0.7,4.1,1.9  c1.4,2.6,2.6-1,4.5,0c1.9,1,0.7,0.5-0.5,1.8c-1.2,1.2-1.8,1.2-1.9,3.7c-0.1,2.5-0.8,3.4-1.7,3.4c-0.8,0-1.7-0.1-0.6,1.2  c1.1,1.4-0.1,2.9-1.9,3.2c-1.8,0.3-2.9,1.1-2.3-1.1c0.5-2.2,1-2.6-0.3-4c-1.2-1.4-1.2-5.4-2.8-4.3c-1.5,1.1-2.9,0.1-4.1-1.2  c-1.2-1.4-6.3-1.2-7.2-0.1c-0.8,1.1-1.7,7.2-3,5.2c-1.4-1.9-1.7-3.3-3.2-2.5c-1.5,0.8-2.1,2.9-0.1,3.9c1.9,1,3.9,1.4,1.7,3.4  c-2.2,2.1-1.5,2.2-3.4,2.2c-1.9,0-2.8,2.6-2.8,4.1s-3.3,4.1-1.8,4.1c1.5,0,2.2-0.4,3.2-1.5c1-1.1,2.1-0.6,0.4,1.7  c-1.7,2.2-3.6,6.5-4.5,5.4s-2.6-3.9-4.3-3.9c-1.7,0-2.6-0.4-2.6-1.8c0-1.4,0-1.8-1.5-0.6c-1.5,1.2-3,1.8-3,3.3  c0,1.5-1.7,4.7,0.6,5.8c2.2,1.1,5.8,2.2,4.4,4.4c-1.4,2.2-2.2,3.7-4.4,1.9c-2.2-1.8-3.7-1.4-2.9-0.3c0.8,1.1,2.5,1.8,1.1,2.2  c-1.4,0.4-1.5-1.5-2.6-0.7c-1.1,0.8-3.9,2.2-5,3.7c-1.1,1.5-0.7-1.5-2.8-0.4c-2.1,1.1-2.2,0.3-1.9-1.6c0.3-1.9,1.8-3.4,0.7-4.4  c-1.1-1-3.6-4.7-1.5-6.5c2.1-1.8,6.6-2.6,6.7-4.4c0.1-1.8,1.7-1.7,1.7-3.4c0-1.8,0.1-4.7,3.4-2.8c3.3,1.9,6.6,4,5.4,0.4  c-1.2-3.6-5.1-6.3-3.2-9.2c1.9-2.9-1.8-4.4-1.8-4.4s-4.5-1.7-3.4-3.9c1.1-2.2,4.4-1.1,4.5-2.9c0.1-1.8-3.6-1.4-4.7-1.5  c-0.2,0-0.3-0.2-0.5-0.3c0.2-1.1,0.7-4.8,0.2-6.1c-0.5-1.5-2-2.4-1.2-4.1c0.7-1.8,0.7-4.1-0.6-5.2c-1.3-1-2.3-2.5-2.9-3.5  c-0.6-1-1.9-1.3-3.2-1.9c-1.3-0.5-3.4-5-5.9-2c-2.5,3-6.3,7.2-10.1,6.5c-3.8-0.7-7.5-2.7-10.2-2c-2.7,0.7-7.6,3.7-8.1,1  c-0.5-2.7-0.6-5.9-2.2-7.2c-1.5-1.3-4.1-2.8-5.7-5.7c-1.5-2.9-3-4.3-6.3-2.4c-3.3,2-6.3,3.8-8.8,3.3c-2.5-0.5-4.5,1-4.5,2.9  s0.3,5.8-2.3,4.9c-2.6-0.9-3.5-2.5-5.8-2.5c-2.3,0-5.2-0.2-7.8-2.4c-2.7-2.2-5.4-6.1-7.5-1.9c-2.2,4.2-1.9,6.7-1.2,9  s0.3,5.4-2.1,5.5c-0.8,0-1.6,0.3-2.4,0.7c-0.1-0.4-0.3-1.1-0.6-2.1c-0.4-1.4-8.1-3.2-9.8-3.7c-1.6-0.5-3.7-5.7-3.3-8.8  s2.3-0.9,5.8-2.5c3.5-1.6,0.1-5.1-0.7-6.9c-0.8-1.9,0.1-3.6,1.4-5.2c1.3-1.5,2.4-4.2,2.9-6.1c0.5-1.9,0.8-4.6,0.2-5.8  c-0.7-1.2,3.7-3.7,5.1-5.6c1.4-1.9,2.5-3.5,2.3-4.7c0-0.1,0-0.2-0.1-0.2c0.5-0.1,3.8-0.5,4.8-1.3c1.1-0.9,5.5,0.2,6.8,0.4  c1.3,0.2,6.4-2.6,8-4.2c1.6-1.5,5.4-3.4,7.2-4.5c1.8-1.1,1.9-2.4,1.9-5.1c0-2.6,2.8-6.6,4.8-8.8c2-2.2,0.1-10.9-0.1-12.1  c-0.2-1.2,0-1.8,1-2.1c1-0.4,2.9-0.4,3.2-1.7c0.3-1.2-2.6-1.5-3.5-3.1c-0.9-1.6,3.6-5.6,5.4-6.4c1.7-0.8,3.3-3.4,3.4-4.5  c0.1-1.1,2.3-1.4,3.7-1.8c1.4-0.3,2.7-3.4,3.9-3.9c1.3-0.4,1.1,2.3,3.1,2.9c2,0.7,2.7-2.8,3.7-6.5c0.9-3.7,5.5-0.9,8-0.3  c2.4,0.6,2.5-0.2,2.6-1.9c0.1-1.7,3.1-1,4.3-0.9c1.2,0.2,2.4-1.6,2.7-1.9c0.3-0.3,2-2,4,0.5c1.9,2.4,3.3,0.9,3.8-1.6  c0.5-2.5,1.4-0.3,3.3,0.3c1.6,0.4,3.8,0.5,4.5,0.5c-1.2,1.7-2,3.4-1.7,4.8c0.7,3.1-0.2,5.6-0.7,7.1c-0.4,1.5,0.6,4.1,3,4  c2.4-0.1,4.8,0,5.1,2.8c0.3,2.8,0.3,8.5,4.6,8.3c4.3-0.1,10.5-0.8,12.3-2.3c1.4-1.2,4.5-1.4,5.7-1.4c0.2,0.1,0.5,0.1,0.9,0.1  c1.5,0,3.1-0.9,3.1,0.7c0,1.7,1.6,0.7,2.8,2.8c1.2,2.1,4.1,4.6,5.9,3c1.9-1.6,3.4-2.8,5.4-1.4c2,1.5,3.8,2.1,5.4,1  c1.7-1,2.7-1.1,2.4,1c-0.3,2.2-0.8,4-0.6,5.4c0.2,1.5-2.5,2.2-4.1,1.9c-1.6-0.3-2.2-3.6-3.7-2.5c-1.6,1.1-2.2,1.7-3.8,1.2  c-1.6-0.4-1,0.9-0.4,1.9c0.6,0.9,0.6,2.5,0,3.5c-0.6,1-0.5,3.5,1.4,2s2.9-1.8,1.7-2.4c-1.3-0.6-1.3-3.2-1.3-3.2s0.5-0.3,2.1,0.5  c1.6,0.8,8.3,1,8.9-0.6c0.5-1.7,1.2-2.6,1.8-0.9c0.5,1.7-0.1,1.8,1.7,1.9c1.8,0.1,4.7,1.5,3.4,2.3c-1.2,0.8-0.7,2.2-2.4,2.7  c-1.7,0.5-2.7,0.9-1.7,2.8c1,1.9,5.8,2,7.1,3.6C557.6,329,556.8,329.1,555.6,329.5z M585,391.2c-1.1-0.1-6.1,3-6.2,4.2  c-0.1,1.2,1.4,0.4,3.5,0.1s2.4-1.3,2.9-2.6C585.7,391.6,586.1,391.3,585,391.2z M491.1,479.4c-0.9,1.3-4.3,2.8-5.2,2.7  c-0.9-0.1-5,1.7-3.2,1.9c1.8,0.2,4.3,0.1,5.8,0c1.5-0.1,3.5,2.4,3.8,0C492.5,481.7,492,478.1,491.1,479.4z M496.8,460.2  c-1.6-0.1-5.3-0.1-5,1.2c0.2,1.3,0.3,2.9,1.6,1.8c1.3-1.1,1.5-1.1,2.9-1.1C497.6,462.1,498.4,460.3,496.8,460.2z M550.4,402.9  c-1,1.3-5,5.7-3.7,5.5c1.3-0.3,2.2,0.3,3-0.9c0.8-1.2,2.1-1.5,0.9-1.5C549.6,406,551.5,401.6,550.4,402.9z M583.3,388.6  c1.5-1.6-0.1-2.8-1.3-4c-1.2-1.2-0.8,3.1-0.8,4C581.1,389.5,581.9,390.2,583.3,388.6z M485.9,473.6c-0.3,0.1-0.4,1-0.4,1.7  c0,0.8,0.1,1.1,2,0.6c1.9-0.4,2.3-1.7,1.3-3C487.9,471.7,486.3,473.5,485.9,473.6z M477,477.5c-1.2-1.4-1.9-1.3-1.7-0.3  c0.2,1,0.2,2.1-0.7,2.2s-0.2,2.3,0.9,1.7c1.2-0.6,1.7-0.1,3.2-0.7C480.2,479.9,478.2,478.9,477,477.5z M488.4,464.7  c-0.6-0.4-2.4-2.1-3-2.6c-0.6-0.5-2.4,0-2.4,0s-4.8,0.2-5.7,1.6c-0.9,1.4-3.2,3.2,0.1,2.7c3.3-0.5,2.9-1.4,3.9,0.1s3.3,2.1,4,0.9  c0.7-1.2,1.8-1.5,3-1.4C489.5,466,489.1,465.1,488.4,464.7z" stroke-miterlimit="10" stroke="#FFFFFF"/>
<path name="宁波市" fill="#D3D3D3" id="path7" d="M599.4,200.6c-4.9,1.8-7.2,4.4-8.8,4.4c-1.6,0-1.5,0-3.4,1.4  c-1.9,1.4-3.3,4-5.6,4.6c-2.2,0.6-3.8,2.1-5.3,2.4c-1.5,0.3-3.4,1.8-4,3.4c-0.6,1.6-1.4,4.8-3.5,5.8c-2.1,1-2.1,1.5-1.5,2.6  c0.6,1-0.5,2.2-1.8,2.5c-1.3,0.3-3.6,1.3-3.8,2.5c-0.2,1.2-1.8,2.7-2.8,3.7c-1,1-2.1,1.4-2.1,2.1c0,0.7-0.5,1.7-1.7,1.9  c-1.2,0.2-1.2,0.6-1.2,1.5c0,1,0,3.2-2,3.7c-2,0.4-4.2,1.6-4.3,0.7c-0.1-0.9-1.1-1.3-1.6-0.4c-0.6,0.8-2.2,3.9-4.3,3.4  c-2.1-0.6-3.9-1.5-5.3-0.1c-1.3,1.4-5.7,5.4-5.9,1.8c-0.2-3.6-1.1-4.4-2.5-2.7c-1.4,1.7-2,2.7-3.2,2.7s-1.7,0.5-1.3,2.3  c0.4,1.8,1.7,3.2-0.8,3.9c-2.5,0.7-2.7,3.2-1.7,3.9c1.1,0.6,1.5,0.8,1.5,2.5s0.8,3.2,1.8,0.8c1-2.4,3.6-7.8,5.5-7.5  c1.9,0.4,0.4,1.4,2.5,1.4c2.1,0,1.3,1.4,0.1,3.1c-1.1,1.7-6.2,5.7-4.7,7c1.6,1.3,3.5,0.9,5.3-2.5c1.8-3.4,2.5-4.7,2.6-6.5  c0.1-1.8,6.7-4.8,8.5-5.4c1.8-0.6,4.3,0.7,4.8-1.1c0.4-1.8,1.2-2.5,2.6-2.9c1.4-0.4,3.8-2,5-0.8c1.2,1.2,1.5,1.1,3.3,0.4  c1.8-0.7,2.8-0.1,1.5,1.2c-1.4,1.2-0.4,3.8-0.2,4.9c0.2,1.1,3.5,2.4,4.7,0.1c1.2-2.3,0.1-6,1.5-6s4.1-0.4,2.6-1.4  c-1.5-1-4.7-2.7-7.1-1.2c-2.4,1.5-4.3,0.7-4.7-0.1c-0.4-0.8,2.9-3.1,3.7-4.1c0.8-1,0.4-3,2.7-3.2s2.6,0,4.6-1.2c2-1.2,4-1.6,5.5-1.6  c1.5-0.1,2.7-1.4,2.7-2.2c0.1-0.8,0.8-1.2,1.5-0.6c0.7,0.6,3.4,0.3,3.1,1.3c-0.2,1-0.1,1.3,1.2,1.3c1.3,0,2.2,0.6,2.9,2.6  c0.7,2,0.6,3.6-1,4c-1.6,0.5-1.9,0.9-1.9,2.1c0.1,1.2-0.8,1.3-1.6,1.6c-0.8,0.3-4.6,1.6-2.8,3.1c1.8,1.5,2.1,2.1,2.9,2  c0.8-0.1,0.2,4.6,1.3,4.9c1.1,0.2,5.1,1.3,3.7,3.1c-1.4,1.7-2.6,2.4-2.5,3.1c0.1,0.7-0.9,0.6-1.4-0.3c-0.6-0.9-1.6-0.2-2.2,0.6  c-0.6,0.7-1.6,3.6-2.6,4.1c-1,0.5-1.6,1.3-0.6,1.9c0.9,0.6,4.2,0.8,3.2,2.3s-2.7,2.9-1.2,3c1.5,0.1,4.6-0.2,3,0.9  c-1.6,1.1-3.2,1.1-3.2,2.9c0,1.8-2.5,2.6,0.6,4.2c3.1,1.6,3.3,2.1,5.1,1.1c1.7-1,3.3-0.1,2.3,1.2c-1.1,1.3-2.7,2.4-1.6,3.8  c1.2,1.4,0.9,3.4-0.3,3.1c-1.2-0.2-1.8-1-2.1,0.2c-0.3,1.2-5,3.9-6,4.2c-1,0.4-4.5,5.2-6.2,3.6c-1.7-1.7-1.5-2.3-2.4-3.1  c-0.9-0.8-4.4-2.5-1.6-4.6c2.9-2.1,2.1-3.9,1.4-5.1c-0.7-1.2-2.3-1.6-0.5-3.6c1.7-1.9,1.2-2.6-0.5-2.6s-3.7-0.4-1.3-1.7  c2.3-1.3,4.4-5.1,1.8-3.9c-2.6,1.2-3.4,1.2-3.4-0.8c0-2,0.5-4.1-1.2-4.1c-1.7,0-2.9,0.5-2,1.3c0.9,0.8,3.4,7,1.6,7  c-1.8,0-2.6,1.1-1.2,3c1.3,1.9,1.6,4.1,1.4,6.5c-0.2,2.3-0.4,3-1.6,3.9c-1.2,0.9-1,4.4-1.9,4.1c-0.9-0.3-1.1-3.5-2.1-3  c-1,0.5-2.2,3.9-4.8,3.7c-2.6-0.2-4.6,0.1-4.6-3.4c0-3.4,1.6-14,0.5-13.9c-1.1,0.2-0.3,1.1-1.4,1.2c-1.1,0.1-1.6,0.8-0.9,1.4  c0.6,0.6,0,3.7,0,5.5c0,1.8-0.6,4.1,0.2,5.5c0.8,1.4-0.2,4-0.9,2.8c-0.7-1.2-1.6-2.7-2.8-3.4c-1.2-0.7-0.2-2.1,0.2-3.5  c0.4-1.4,0.9-4.4-0.5-5.5c-1.4-1.1-3.5-2.3-2.6-0.7c0.9,1.6,2.5,4.1,0.5,3.5c-2-0.6-5.6-1.7-6.3-0.7c-0.7,1-1.3,2.1-0.3,3  c1,0.9,2.2,2.1,1,3.5s-1.9,0-1.5,2.6c0.4,2.6,1,3.8-0.3,3.9c-1.3,0.1-3.6,3.1-3.5,0.7c0.1-2.4-0.1-3.7-0.7-2.2  c-0.6,1.5-1,3.1-1.6,4.1c-0.6,1-0.4,0.7-1.6-0.4c-1.2-1.2-3.3-2.6-4.4-0.9c-0.8,1.2-1,1.8-0.4,2.1c-1.2,0-4.2,0.2-5.7,1.4  c-1.8,1.5-8,2.1-12.3,2.3c-4.3,0.1-4.3-5.5-4.6-8.3c-0.3-2.8-2.8-2.9-5.1-2.8c-2.4,0.1-3.4-2.5-3-4c0.4-1.5,1.4-4,0.7-7.1  c-0.7-3.1,4.3-8.1,6.8-10.6c2.5-2.5-0.5-6.6-1.4-8.6c-0.9-2.1,0.9-2.9,1-9c0.1-6.2-2.3-5.3-5.5-6.4c-3.3-1.1-5.4,0.2-7.2-1.8  c-1.8-2.1-1.1-3.7-1-5.9c0.1-2.2-0.1-4.2-1.9-4.5c-1.8-0.2-3.5-1.1-5.8-2.5s-1.3-3.6-0.7-5.2c0.6-1.6,0.1-4.9-1.1-6.5  c-1.2-1.6,2.1-5.4,4.8-6.7c2.7-1.3,3.1-2.3,3.1-3.7c0-1.4-0.6-5-3.4-5.7c-2.8-0.7-4.1-2.4-5.9-4.1c-1.7-1.7-2.5-3.5-1.6-3.7  c0.9-0.2,2.7-3.4,2.7-5.1c0-1.8,0.6-1.5,2.4-1.9c1.8-0.5,3.3-4.7,2.8-6.6c-0.5-2-3-1.1-6.8-0.9c-3.8,0.2-4.9-2.5-5.3-4.2  c-0.4-1.7-1.1-4.9-3.5-6.6c-2-1.4-4.7-8.1-5.6-10.5c5.8-3.2,12-7.2,13.4-8.7c2.4-2.6,11.8-7.1,16.3-9.7c4.5-2.6,9.7-3.2,14.5-1.4  c4.7,1.8,21,9.1,26.3,16.8c5.3,7.7,10.7,18.3,15.8,22.9c5.1,4.6,5.4,7.1,7.4,7.3c2,0.3,4-1.8,5.7-1.9c1.7-0.1,2.6,3.3,5.9,2.2  c3.3-1,5-1.5,4.1,0.3c-0.9,1.8-3.5,2.6,0.1,3.7c3.6,1.1,8,0.2,10.5,2.9c2.5,2.7,5.3,2.1,7.4,2c2.1-0.1,5.1,1.5,8,0.8  c2.9-0.7,5-1.2,6.8-3c1.7-1.7,2.5-1.4,3.6,0.5C603.9,196.9,604.3,198.9,599.4,200.6z M587.6,304c0.7-0.5,1.8-3.2,1.1-3.8  c-0.7-0.6-4.6-7.4-5.1-7.6c-0.6-0.2,0.2,0.6-0.9,1.6c-1.1,1-7,3.8-6.6,5.1c0.5,1.3,1,2.5,2.3,2.7c1.2,0.2,4,0.4,3.6,1.8  c-0.3,1.4-3,3.2-0.7,3.1c2.3-0.1,1.9,0.7,2,2c0.1,1.4,0.7,1.2,0.5,2.5c-0.2,1.3,0,1.9,1,0.5c1-1.4,2.1-4.9,3.7-4.8  c1.6,0.1,0.8-0.4,0.1-1.2C587.9,305.2,586.9,304.5,587.6,304z M573.6,299c-0.5,0.5-2,1.9-3,1c-1-0.9-1.9-1.9-3-2  c-1.1,0-3.3-0.7-3.1,0.4c0.2,1.1,0.6,2.4,0.5,3.4c-0.1,1,0.4,0.8,1.8,0.6c1.4-0.2,3,0,3.3,1.3c0.3,1.3-1,2.2-1.8,2.2  c-0.9,0-1.4,0.5-0.7,1.7c0.7,1.2,1.1,2.7,2.3,2.1c1.1-0.6,0.9-1.1,0.9-1.1c0-0.6,0.4-4.9,1.6-4.8c1.2,0.1,3.9-0.8,4-1.5  S574.1,298.5,573.6,299z M614.6,255.7c-0.3,1-2.1,2.5-2.5,2.8c-0.4,0.3,0.6,0.7,1,0.9c0.4,0.2,0.9,0.1,1.2-0.2  c0.3-0.3,3.4-2.3,2.4-3.5C615.8,254.6,614.9,254.7,614.6,255.7z M597.5,292.8c-0.6,0.1-1.1,0.1-0.8-0.6c0.4-0.8-0.1-3.5-1.1-3.5  c-0.9,0-0.9,0.2-0.8,1.5c0,1.2,0.6,2.8,0.1,3.3c-0.4,0.5-0.5,0.9-1.3,1.2c-0.8,0.3-2,1.7,0,1.5c2-0.2,1.7-1.6,3.8-1.2  c2.1,0.4,2.5,0.8,2.3-0.6C599.5,292.9,598.1,292.7,597.5,292.8z" stroke-miterlimit="10" stroke="#FFFFFF"/>
<path name="舟山市" fill="#D3D3D3" id="path8" d="M612.7,153.2c0.7,0.1-3.3,4.5-5.2,6.2c-1.9,1.7-2.1,0.5-2.1-0.4  c0-1-0.4-1.1-0.7-2.5c-0.4-1.3,2-2,2.7-3.2s4.3-0.1,4.3-0.2C611.6,152.9,611.9,153,612.7,153.2z M598.6,141.4c1.5,0,2.2-1,2.7,0.6  c0.4,1.6,0.8,1.4,1.7,1.3c0.9-0.1,1.6,0,2.2,1c0.5,1,0.3,1.9,2.4,1.6c2.1-0.2,2.5-0.7,3.4,0.4c1,1.1,1.4,2.1,2.7,1  c1.3-1,1.6-1.3,0.8-2.8c-0.8-1.5-2.2-3.1-1.9-3.9s0.6-1.5,1.6-1s2.2-1,1-2.3c-1.1-1.3-1.7-1.4-1.7-2.6s-0.7-1.7-1.3-0.6  c-0.6,1.1-3.6,3.6-4.6,2.9c-1-0.7-3.9-2.7-4.5-1.9c-0.7,0.7-1.4,1.6-1.3,1.6c0.1-0.1-1.6,2.6-3,3.1  C597.2,140.2,597.1,141.4,598.6,141.4z M621.3,122c0.9-0.4,1.5,0.3,2.8,1.5c1.3,1.2,0.9,0.2,0.9-1s1.6-1.9,2.9-3.5  c1.2-1.6,1.5,1.6,1.5,1.6s-0.6,0.1-0.2,0.9c0.4,0.9,5.6,0.2,7.1,0.9c1.5,0.7,1.8,0.2,1.6-2.5c-0.2-2.7-2.8-3-4.8-3.2  c-2-0.2-1.9-0.2-2.2-1.8c-0.3-1.6-1.1-0.6-1.8,0.5c-0.7,1.1-1.2,1.2-3.8,0.8c-2.6-0.4-3.7-1.2-5.3-1.9c-1.5-0.6,0.6,4,0.6,5.4  C620.7,121.2,620.4,122.4,621.3,122z M668.1,62c0.8-0.5,1-1.1-0.4-1.1c-1.3,0-1-1.3-2.8-1.6c-1.8-0.3-1.3,2.5-0.9,2.8  S667.3,62.5,668.1,62z M594,99.1c-0.2,0.5-0.6-0.1,0.1,1.3c0.7,1.4,1.9,1.6,2.2,0.2c0.3-1.4,0.2-2.3-0.8-2.3  C594.6,98.3,594.2,98.6,594,99.1z M581.2,159.3c1.4,0.8,5.4,4.5,5.1,6.9c-0.3,2.4-0.4,7.3,0.9,7.3c1.3,0,2.5,0,2.9,2.7  c0.3,2.7,0.4,4.2,2.2,4.4c1.8,0.2,2.3,2,3.1,0.8c0.7-1.2-0.5-3.3,1.6-3.2c2.1,0.1,3.9,0.2,5.4,1.7c1.5,1.5,3,0.2,5.2,0.2  s3.6,0.3,5.5,2c1.9,1.7,9.5,5.2,12.4,4.7c3-0.5,1-1.9,0.5-2.7c-0.5-0.7-1.4-1.4-0.4-3.4c1-1.9,4-3.8,2.4-4.9  c-1.5-1.1-4.8-5.8-5.6-4.9c-0.8,0.9-3.7,1.4-3.8-0.4c-0.1-1.8-0.7-2.7-2.4-3s-3-2.7-3.5-4.6c-0.5-1.9-1.7-0.3-3.1,0.3  c-1.3,0.6-5.1,2-5.9,0.4c-0.8-1.6-1.8-4.6-4.2-4.6s-3.5,0.1-5.3,1.4c-1.8,1.3-1.7,0.6-3.1-0.3c-1.3-0.9-0.9-1.7-3-0.9  c-2,0.8-3.1,1.6-3.2,0c-0.1-1.6,0.5-3.7-2.1-3.7c-2.7,0,0.1,0.8-1.3,1.1C580.3,157.3,579.8,158.5,581.2,159.3z M571.9,184.4  c1.4-0.9,1.4-1.3,3-1.3c1.6-0.1,5.1-2.1,4.6-4.7c-0.5-2.5-1.4-5.4-2.7-5.4s-1.5-0.2-1.9-1c-0.4-0.9-0.9-2.1-0.9-2.1  s-0.8-1.3-1.9-0.1c-1.1,1.3-1.3,1.3-1.3,3.2s0,8.5-0.6,9.9C569.6,184.3,570.5,185.2,571.9,184.4z M591.9,93.2  c0.9,0.3,1.9,0.8,2.4,0.3c0.5-0.5,1.1-2.3-0.3-1.7C592.5,92.4,591,92.8,591.9,93.2z M654.1,87.1c-0.9-0.4-1.3-2.1-2.4-1.5  c-1.1,0.6-2.6,1.5-1.2,2.4c1.4,0.9,2,1.2,3.1,1C654.6,88.6,654.9,87.5,654.1,87.1z M663.6,149.2c-0.2,1.5-0.1,2.5,0.4,2.9  c0.5,0.3,1,0,1-1.1c0-1.1-0.5-1.7-0.5-1.7S663.8,147.6,663.6,149.2z M665.4,71.4c-0.2,0-0.7,0-0.6,0.4c0.1,0.4,1.3,0.4,1.3,0.1  C666.1,71.6,665.6,71.4,665.4,71.4z M664.1,66c0.1-0.4-0.7-0.7-1-0.7c-0.3,0-1.1,0-1,0.6C662.3,66.5,664.1,66.5,664.1,66z M659,64.7  c-0.5-0.1-1.9-0.1-1.6,1c0.3,1.1,3.2,0.9,3.3,0.2C660.8,65.2,659.5,64.8,659,64.7z M665.5,67.2c-0.2,0-0.7,0-0.6,0.4  c0.1,0.4,1.3,0.4,1.3,0.1C666.2,67.4,665.7,67.3,665.5,67.2z M683.4,77.8c-1.1,0.2-1.9-0.9-2.3,0c-0.4,0.9,0,1.7,1.1,2.4  c1.1,0.7,2.3,2.2,2.4,0.5C684.7,78.9,684.5,77.6,683.4,77.8z M678.7,78c-0.6-0.3-1.1-0.7-2.4,0.7c-1.3,1.3-1.2,2.5-0.2,2  c1-0.5,1.2,1.3,2.1,0.2C679.2,79.7,679.3,78.2,678.7,78z M671.9,150c0,0-0.8-0.6-0.6,0.8c0.2,1.5,0.3,2,0.9,1.3c0.6-0.7,1-1,0.5-1.3  C672.1,150.4,671.9,150,671.9,150z M667.6,150.2c-0.6,0.8-0.1,1,0,1.4s1.5,1.6,2.5,1.6c1,0-0.8-2.7-1-3.7  C668.7,148.5,668.2,149.4,667.6,150.2z M649.3,80.8c-0.5-0.2-0.6-1.8-1.2-1.5c-0.6,0.3-5.1,0.8-6.7-0.5s-4.4-2.9-3.2-1.7  c1.2,1.2,2.3,2.2,1.2,2.9c-1.2,0.7-3,2.2-1.5,2.6s3-1.5,5.1-1.1c2.1,0.5,5.4,1,6.7,0.8C651,82.1,649.7,81,649.3,80.8z M621.7,214.1  c-0.5,0-4.2-2.7-5.7-3.2c-1.5-0.5-1.2,1.7,0.3,2.6c1.5,0.9,2.3,2.7,4.4,2.7c2.1,0,4.9,0.3,4.4-0.8  C624.5,214.3,622.2,214.1,621.7,214.1z M621.4,221.3c-0.2,0.1-4-0.1-4.4-0.7c-0.4-0.6-1.6-1.5-2-1.2c-0.4,0.4-0.4,1.5,0.7,2.4  c1.1,0.9,3.5,2,5.1,1.4c1.5-0.6,2.1-1.4,1.7-1.7C621.9,221,621.6,221.2,621.4,221.3z M612.5,220c-1.9-1-1.9-3-4.4-3  c-2.4,0-3.3-0.9-3.4-1.9c-0.1-1,0.1-3.1,0.1-3.2c0.1-0.1,0.2-4.8-0.7-3.8c-0.9,1-0.7,2.2-2.4,2.1c-1.7-0.1-4.9-0.8-4.5,1  c0.4,1.9,0.6,4-0.5,5c-1.1,1-2.5,1.7-1.3,2.3s2.1-2.2,3.6-1c1.5,1.3,4.9,1.1,4.1,2.2c-0.7,1.1-0.9,1.6,0.4,1.6  c1.3,0.1,2.4,0.4,1.6,1.7c-0.8,1.3-0.3,2,0.9,1.8c1.2-0.2,3.9-0.7,4.4,0.4c0.5,1.2,1.4,1.7,2.1-0.2C613.2,223.1,614.4,221,612.5,220  z M624.7,206.1c0.1,0.1,1.9-1.1,0.9-2.6c-0.9-1.4-1.7-3.7-2.5-2.7c-0.8,1-1.9,2.6-2.7,1.5c-0.8-1-2.6-2.1-3.9-1.5  c-1.3,0.6-1.6,1.1-0.2,2c1.4,0.9,2.6,1.5,2.9,3.1c0.4,1.6-0.3,2.2,1.6,2.2c1.9,0,3.7,1.2,4.6,2c0.9,0.8,2.4,0.6,0.9-1  C625.1,207.5,624.6,206,624.7,206.1z M637.5,191.2c-2.7-0.1-0.2-1.2,1.4-2c1.6-0.8,0.2-2.7-0.4-3.8c-0.6-1.1-2.1,0.9-3.1,0.9  c-1,0-3.3,0.5-3.1,1.1c0.2,0.7-0.1,4,1.2,6.2c1.3,2.2,0.2,2.4,0,3.4c-0.2,1-0.8,1.4,0,2.5c0.8,1,1.1,2.1,3.1,3.1c2,1,1-2.7-0.3-4.4  c-1.3-1.6,2-2.6,3.5-4.3C641.4,192.3,640.1,191.3,637.5,191.2z M633.2,144.5c0,1.3-0.7,3.6,1.4,2.4c2-1.2,2.6-1.8,2-2.5  c-0.6-0.7-0.7-1.2-0.9-2.3c-0.1-1.1-0.9-1-1.9-1c-1,0.1-7.8,0-8,1.5c-0.3,1.5-0.5,2.2-1.5,2.2c-1,0.1-4.4,2.2-3.6,2.7  c0.8,0.5,2,1.4,3,0.1c1-1.4,2.5-1.6,3.5-0.9c0.9,0.7,1.8,0.7,1.9-0.2c0.1-0.9,0.1-1.1,0.1-1.1s0.7-1.8,2.3-2  C633.1,143.1,633.2,143.2,633.2,144.5z M627.9,195.8c-1.2-0.6-2.9-1.7-3.8-0.8c-0.9,0.9-3.3,2-1.9,3c1.4,1,3.8,2.3,5,0.3  C628.5,196.4,629.1,196.4,627.9,195.8z M593.9,215.1c0.5-1.7,0-2.4-0.7-1.9c-0.7,0.5-2.2,1.3-2.2,2.3c0,1-0.3,2.5,0,2.5  C591.2,218,593.4,216.8,593.9,215.1z" stroke-miterlimit="10" stroke="#FFFFFF"/>
<path name="湖州市" fill="#D3D3D3" id="path9" d="M386.4,111.9c0.7-1.6,0.4-4.2,0.2-6.4c-0.3-2.2,0.6-4.4,2.7-5.8  c2.1-1.4,3.5-8.5,3.7-10.3c0.2-1.8,1.5,0.4,4,1.2c2.5,0.8,4-0.8,6.7-3.2c2.8-2.4,1.9-5.9,1.3-7.7c-0.5-1.4,0.5-2.8,0.9-3.3  c-0.6-0.8-1.3-1.9-2-2.8c-2.1-2.7-3.4-10.5-3.8-13.3c-0.3-2.8-1.6-2.2-2.3-1.4c-0.7,0.8-4.8,3.4-7.3,3.6c-2.5,0.3-1-3.1-0.3-6.2  c0.7-3.1-5.2-1.1-7.3-0.2c-2.1,0.9-10.5,1.1-15.4,0c-4.9-1.1-6-2.3-9.4-6.2c-3.5-3.9-5.6-4.4-7.1-4.5c-1.5-0.1-6.2-5.9-7-8.3  s-5.1-9.2-5.8-11.5c-0.7-2.2-4.1,0.4-7,0c-2.8-0.4-8.7,0.9-13.3,2.1c-4.6,1.2-3,3.8-7.4,4.1c-4.5,0.4-4,3-4,4.8  c0,1.9,0.2,3.6-0.7,4.4c-0.9,0.8,0.9,6.3-0.2,9.1c-1.1,2.8-4.1,7.8-5.7,10.5c-1.6,2.7-1.8,6.3-0.7,8.7c1.1,2.4-0.5,5.4-0.8,7  c-0.4,1.6-4.7,5.2-6.4,5.3c-1.7,0.1-2.2,6-2,7.7c0.2,1.7-2.5,5.5-5.6,8.5c-3.1,3-5,0.5-5.4-2.7c-0.3-3.2-2.5-0.8-5,2.2  c-2.6,3-6.6,5-8.6,4.8c-2-0.2-2.7,0.5-2,2.3c0.7,1.9-0.3,6.3-0.3,9.4c0,3.2,4.3,1.5,7,1.5c2.7,0,2.6,5.9,2.9,7.9c0.4,2,2,8.2,4,9.6  c1.2,0.8,1.6,2,1.7,3.1c1.3,0,7.2-0.4,8.6-3.2c1.6-3.2,1.6-0.9,4.1,0.9c2.5,1.8,3.6-0.9,4.6-3.2s2.8,0.6,5.1,1  c2.3,0.5,3.2-1.5,4.8-3.2c1.6-1.7-0.2,2.8,3.7,5.9c3.9,3.1,5.7-7.9,5.5-10.1c-0.2-2.2,1-6.7,0.9-9.5c-0.1-2.8-2.5-1.5-2.9,1.5  c-0.4,3-1.3-2.3-0.8-4.3c0.5-2,2.2-2.6,4.3-1.6c2.2,1,3.9,0.6,6.1,0.6c2.2,0,2.4,1.2,2.5,3c0.1,1.9-0.4,2.1,2.9,2.1s3.4,1.3,5.4,4.1  c2,2.7,3.4,2.7,4.9,2.9c1.5,0.1,2.7,0.3,3.8,1.2c1.1,1,2.1,1.1,3.7,0.1c1.6-1,6-0.4,8.6-0.1c2.5,0.4,1.8-1.8,1.5-5.5s3-3.7,5.2-4.1  c2.2-0.3,5.2,1.3,7.3,1.6c2.1,0.3,3.6-2.1,4.6-5.7c1-3.6,1.6-0.8,1.8,0.7c0.2,1.4,1,2.8,2.7,3c1.7,0.2,5.1-0.9,7.5-1  c0.3,0,0.5,0.1,0.7,0.2C385.9,113.6,385.9,113,386.4,111.9z" stroke-miterlimit="10" stroke="#FFFFFF"/>
<path name="嘉兴市" fill="#D3D3D3" id="path10" d="M497.5,85.4c0.3-1.1-0.4-4.9-3.6-8.3c-3.2-3.4-5.1-2.1-8.4-0.6  c-3.3,1.5-3.9-2.1-4.4-4.8s0.5-4.4-2.1-5.3c-2.5-0.9-4.6,0.6-8.2,2.5c-3.6,2-4.3-4.4-4.3-7.8c0-3.4-0.7-6.3-1.5-8.3  c-0.8-2.1,0.7-5.3,1.7-7.5c0.9-2.2-2.2-2.9-7.4-2.9s-7.2,1.8-9.9,3.5c-2.7,1.7-4.2,0.9-5.6-0.2c-1.4-1.1-5.7-0.6-7.1,1.5  c-1.4,2.1-4.5,2.4-6.2,3.5c-1.7,1.1,1,2.4,1,6.3c0,3.9-4.6,6.2-10.3,8.2c-5.7,2-8.8,7.5-11.3,11.4c-1.7,2.5-2.8,1.7-4.1,0.1  c-0.4,0.5-1.4,1.9-0.9,3.3c0.6,1.7,1.5,5.3-1.3,7.7c-2.8,2.4-4.2,4-6.7,3.2c-2.5-0.8-3.9-3-4-1.2c-0.2,1.8-1.6,9-3.7,10.3  c-2.1,1.4-2.9,3.6-2.7,5.8c0.3,2.2,0.5,4.7-0.2,6.4c-0.5,1.1-0.5,1.7-0.5,2c2,1.3,3.1,7.6,3.2,9.3c0.1,2-0.6,4.4-2.3,5.4  s-1.5,2.7,0.8,3c2.3,0.3,2,1.4,3.3,2.4c1.1,0.9,4.1,0.8,5.2,0.8c0.2-0.4,0.4-0.8,0.6-1.2c2-4.2,19.1-4.8,24.2-5.1  c5.1-0.4,11.5,2.1,12.9,3c1.4,0.9,3.7,4.9,5,4.5c1.3-0.5,2.1-0.1,3.3,0.9c1.2,1.1,2,0.8,2.9-0.4c0.9-1.2,6.3-3.2,9.8-4.8  c3.5-1.6,5-6.1,6.3-7.1c1.3-1,0.9-2.5-0.8-3.8c-1.7-1.3,2.2-7.4,4.3-11.7c2.1-4.3,5-5,6.3-6c1.4-1.1,6.1-1.2,8-0.8  c1.9,0.4,4.2-1.1,5.3-4c1-2.9,11.4-8.5,12.9-9.4C498.7,88,497.3,86.5,497.5,85.4z" stroke-miterlimit="10" stroke="#FFFFFF"/>
</svg>