<?xml version="1.0" encoding="UTF-8" standalone="no"?><!-- Generator: Adobe Illustrator 18.0.0, SVG Export Plug-In . SVG Version: 6.00 Build 0)  --><svg xmlns="http://www.w3.org/2000/svg" xmlns:xlink="http://www.w3.org/1999/xlink" contentScriptType="text/ecmascript" zoomAndPan="magnify" contentStyleType="text/css" id="图层_1" mapName="海南省" mapType="省市地图" enable-background="new 0 0 1000 1000" version="1.1" xml:space="preserve" preserveAspectRatio="xMidYMid meet" viewBox="0 0 1000 1000" x="0px" y="0px">
<path fill="#D3D3D3" d="M489.5,750.3c3-2.8,5-8.5,5.3-12  c0.4-3.5,0.6-7.1-2.5-9.1c-3.1-1.9-3-5.9-3-10.5c0-4.6-2.8-1.3-4,2.3s-7,6.4-8.1,9c-1.1,2.5,1.3,3.9-1,6.9c-2.2,3-3.9,6.9-3.9,9.3  s-0.8,5.6-2.3,5.6s-2.9,1.9-3,3.9c-0.1,1.9-1.6,5.6-3.5,7.6c-1.9,2.1-9.1-0.1-9.1-0.1s-6.7,0-9.2,1.9s-6.8,2.5-8.6,1.8  s-7.6-1.1-11.1-1.1c-3.5,0-6-1-7.1-4c-1.1-3-2.3-4.5-5.3-6.3c-3-1.8-1.1-4,0.4-5.9c1.4-1.9,0.6-5.8,0.6-9.9s3.1-8.3,3.6-11  c0.5-2.8,0-9.1-2.5-10c-2.5-1-6-3.4-7.5-6.1c-1.4-2.8-6.8-4.2-11.6-1.7c-5,2.5-5.9,2.8-9.5,2.2c-3.6-0.5-5.4-4.7-7-9  c-1.6-4.1-4.6-6.5-8.3-10.3c-3.6-3.6-6.4-2.3-8.9,2.3s-9.4,7.1-12.8,10.3c-3.4,3-3.4,9.1-3.1,12.6c0.1,3.5-1.1,6.4-3.5,7.6  s-4.3-1.8-6-5.1c-1.8-3.4-7.8-8.1-9.9-10.3c-2.1-2.1-11.5-0.1-14-1.1s-4,1.5-4,3.6c0,2.3-1,5.4-3.4,8.5c-2.4,3,0,9.7,0.4,12.2  s1.9,7.9-1,10.5c-2.8,2.6-6.6,0.8-7.9-1.1c-1.4-1.9-9.6-0.9-16.1-0.9s-6.6,1.3-8,3.9c-1.5,2.6-5.5,2.6-12,4.1  c-6.6,1.5-16,7.6-16.4,10.1c-0.4,2.4-9.3,8.1-10.6,9c0.1,0.1,0.1,0.3,0.3,0.4c3,3.5,4.4,3.8,6.1,7.3c1.6,3.5,5.9,3,8.9,1.3  c3-1.6,11.8-2,19-2.4s10.8,3.4,15.9,3.4s2,2.8,3.9,5.9s3.6,5.1,3.6,8.9s1.5,5.1,5.1,8.3s12.9-0.1,14.4-2.6s8.5-0.7,11.4-0.4  c3,0.4,6.6-0.4,8.6-2.8c2-2.4,9.1,0.6,13.3,0.6c4.1,0,6.6-0.7,10.6,2.3c4,3,16.1,3.8,24.6,2.6c8.5-1.1,10.9,2.1,19.6,8.1  c8.8,6,4,14.4,2.8,15.6s-2.5,3.5-1.3,8c1.3,4.5,5.9-2.4,6.5-4.5c0.6-2.1,2.4-2.8,4.9-4.3c2.5-1.4,4.6,3.3,6.8,5.1s2.5-3.5,1-5  c-1.5-1.5-1.3-2.9-0.5-4c0.8-1.1,2-1.6,3.1,1.3c1.1,2.9,6,6,7.2,6.9c1.3,0.9-0.4,2.4-0.5,4.5c-0.1,2.1-2.4,6.1-1,8.4  s4.4,0.1,5.9-2.6c1.5-2.8,8.1-1.6,10.8-1.9c2.6-0.1-0.8-3.8-2.3-3.9s-3.4-1.1-1-3.5c2.4-2.4,1.3-2.1,1.1-4.6  c-0.1-2.5,9.8-6.1,14.3-7.5s9.8-1,10.5,1.4s-0.9,3.1-0.8,5.5s0.8,5,3.9,4.3c3.3-0.9,0.4-3.2,0.4-6.3c0-3.1,2.8-2.1,4.7-1.1  c2,1,2.2,0,2.2-3.9c0-3.9,2.9-3.2,2.9-6.4s-4-5-6.8-3.5c-2.6,1.5-3.6,0.5-4-4.4c-0.4-4.9-4,2-4.9,4.4c-0.9,2.4-4-0.7-2.5-4.6  c1.5-3.9,6.9-7.1,8-4.6s2.2,4.5,6.8,4.6c4.5,0.1,1.1-3.8-1.6-5.1c-2.8-1.4,2-14,5-21.3c3-7.3,2.3-13.3,2.4-17c0.3-3.8,3.3-0.6,5-2.2  c0.6-0.5,1.1-0.8,1.6-0.6C488.6,755.6,487.5,752,489.5,750.3z" id="path0" opacity="0.5" stroke="#FFFFFF" name="三亚市" stroke-miterlimit="10"/>
<path fill="#D3D3D3" d="M595.8,219.4c0.5,4,1.6,8.9,4.3,9  c2.8,0.1,13.3-2,16.5-2.1s7.4-1.3,9,2.3s4.4,4.4,6.4,4.3c2-0.1,5.8-2.7,8.1-0.9c2.5,1.8,6.4,2.1,11.5-2.9s7.8-9.4,7.8-12.7  c-0.1-3.4-2-7.6,1.3-7.1c3.3,0.4,6.5,0.4,7.6,1.6c0.6,0.6,0.8-0.8,0.8-2c-1.1-1.3-2.5-2.9-3.6-4.1c-2.8-2.9-5-7-6.4-10.9  c-1.4-3.9-3.6-4.9-4.6-6.9c-1-2-3,0-3.6,2.9c-0.5,2.9-1.3-0.4-2.8-0.4c-1.5,0-1.5,0.9-1.5,0.9s1,1.8-0.1,2.6  c-1.1,0.9,0.1,1.6,1.3,1.3c1-0.4,3-2.9,2.2,0.9c-0.7,3.9-2.5,9.3-6.8,12.1s-5.3,2.4-13.3,0.9c-7.9-1.5-13.6-5.9-17-10.1  c-3.4-4.4-11.8-1.3-14.6-1c-2.9,0.1-2.5,7.3-4.1,10.5c-0.6,1.4-1.8,3.1-3.3,5C592.6,213.4,595.3,215.6,595.8,219.4z" id="path1" opacity="0.5" stroke="#FFFFFF" name="海口市" stroke-miterlimit="10"/>
<path fill="#D3D3D3" d="M606,259.3c-0.3,12.7,19.7,20,19.7,28.7  s-19,52.3,4.1,56c23.2,3.7,42.2-22.3,49.5-20c7.3,2.3-11.3,43.3,9.7,51s25.7,0.3,35.3,1.7c9.7,1.3,14.7,18.3,22,13.7  c7.3-4.7,8-18,10.7-24s6.3-6.7,7-10.7S746,336,750.3,331c4.3-5,9,0.3,12.3-4.7c3.3-5-10.3-16.3-1.3-20c9-3.7,16.3,6.7,21.7,0  c5.3-6.7-2-16.7-4.7-20c-2.7-3.3-8-2.3-9.7-5c-1.5-2.5-11.4-28.6-18-36.6c0,0.3-0.1,0.6-0.2,0.9c-1,4.6-2.9,2-4.5,0  c-1.6-2-2.9-1.4-3,1.5c-0.1,2.9-1.1,3.4-2.9-1c-1.8-4.4-2-8.8-1.5-13.5c0.5-4.9-2.9-7.5-3.9-10.4c-1-2.9,0.6-4.9,1.3-7.1  s0-3.8-3-3.3c-3,0.4-3.5,5.6-5.3,8.4c-1.8,2.8-3.1,5.1-4,1.4c-1-3.8,0.5-10.1,1.8-13.6s-1.8-2.9-4-1.3c-2.3,1.6-6.5,1.1-14.9-0.5  c-8.5-1.6-8.5-2.8-12.5-5.3c-4.1-2.5-21.9-12.4-24.1-14.1c-2.1-1.8-5.4-1.4-8.1-1.3c-2.8,0.1-1.1,2.9-0.4,5.1  c0.9,2.3,3.1,2.8,4.1,1.4c1-1.3,1.1-3.5,2.4-3.3c1.1,0.3-2.3,6,0.9,8.8c3.3,2.8,4.6,8.9,4.3,11.5c-0.3,1.5-1.5,0.5-3.1-1.3  c0,1.3-0.1,2.6-0.8,2c-1.1-1.3-4.4-1.3-7.6-1.6c-3.3-0.5-1.4,3.8-1.3,7.1c0,3.4-2.6,7.7-7.8,12.7s-9,4.6-11.5,2.9  c-2.4-1.9-6.1,0.7-8.1,0.9c-2,0.1-4.8-0.8-6.4-4.3s-5.8-2.4-9-2.3s-13.8,2.3-16.5,2.1C608.3,238.7,606.3,246.7,606,259.3z" id="path2" opacity="0.5" stroke="#FFFFFF" name="琼山市" stroke-miterlimit="10"/>
<path fill="#D3D3D3" d="M879.6,331.4c-2.4-2.4-0.1-6.9-0.8-8.3  s-1.6-4.1-5.4-4.9s-6.9-24.1-6.9-31.4s1.4-11.9-0.7-16.8c-2.3-4.9-3.8-18.1-7.1-26c-3.4-8-5-17.3-5.9-22.1c-0.9-4.9-6-12.4-6.9-14.3  c-0.9-1.9-3.4-3.4-3.8-0.1c-0.4,3.3-5.6,3.1-8.1,3.1s-4.7,1.9-7.1,2.6c-2.4,0.6-9.5,1-12.6-1.4s-7.8-2.9-12.1-3.9  c-4.4-1.1-7.9-3.3-9.9-8.8c-2-5.5-8-6.1-10.9-8c-2.9-1.9-7.8-16-8.4-19.3s-0.9-4.8-2.9-7.1c-2-2.4-1.3-3.6-1.4-7  c-0.3-3.4-1.1-3.1-3.1-1.4c-2,1.8-3.2,3.8-3.9,6.5s-0.2,4.8-2,6.1c-1.8,1.4-2.1,2.6-5,5.5s-7.5,2.4-12.1,0s-8.8,4.9-10.9,7.1  c-2.1,2.3-0.9,5.8-0.9,9.4s-0.8,8-0.9,11c-0.1,3,4.8,1,7.6,1c2.9,0,5.9,9.8,5.1,14.9c-0.7,5.1,3,13,5.3,16.9  c2.1,3.6,3.2,5.7,2.6,9.7c6.6,8.1,16.5,34.2,18,36.6c1.7,2.7,7,1.7,9.7,5c2.7,3.3,10,13.3,4.7,20c-5.3,6.7-12.7-3.7-21.7,0  c-9,3.7,4.7,15,1.3,20c-3.3,5-8-0.3-12.3,4.7c-4.3,5,14.3,20.7,13.7,24.7s-4.3,4.7-7,10.7s-3.3,19.3-10.7,24  c-7.3,4.7-12.3-12.3-22-13.7c-5.7-0.8-9.7,1.4-16.3,1.8c-7.9,5.4-16,15.5-1.1,20.5c0,0,21.3,1,21,10s5.3,17.3,13,21.7  c7.7,4.3-8.6,19.8,10.9,22.1c-0.5-4.1,7.5-5.1,12-5.9c4.5-0.8,3.8-5.1,2.3-9s-1-10.5-1-14.9s9.3-8.1,13.8-8.1c4.5,0,4.9-0.5,6.5-3.1  c1.5-2.5,5.9-2.8,9.6-4s1.6-4.3,0.4-7.4c-1.4-3.2,5.1-7.8,8.6-9.9c3.5-2.1,2.9-13,3.5-16c0.6-3.1,2.9-3.4,6.5-4  c3.6-0.6-3.5-9.4-6.4-13.4c-3-4-4.6-6-5.9-9.3s-3.8-4.4-7-6.1c-3.3-1.8,5.5-2.5,8.6-0.9c3.1,1.5,5.8-0.8,8.6-1.5s8.1,1.4,12.5,1.9  c4.5,0.4,3.2-1,3.9-3.9s2-4.6,5.1-5.3c3.1-0.5,1.7,1.8,0.1,2.8c-1.6,1-2.4,4.1-2.2,8.3c0,4.1-5.9,5.4-12,5c-6.1-0.4-5.9,0.3-6.8,2.8  c-0.9,2.5,1.7,11.4,3.9,13.3s1.5,3,2.5,8.3c1.1,5.1,8.8,0.4,10.9-1.6c2.1-2,6-5.3,9-10.6c2.9-5.3,5.1-6.5,9.6-7.9  c4.5-1.5,10.6-12.3,13-16.6c2.4-4.4,12.4-0.5,16.5,1.1C882.1,338.3,880.8,334.5,879.6,331.4z" id="path3" opacity="0.5" stroke="#FFFFFF" name="文昌市" stroke-miterlimit="10"/>
<path fill="#D3D3D3" d="M620.7,350.7c-7.7-5.3-19.3-20.3-22.3-9.3  s1.6,14.3,2.8,19c1.2,4.7-1.1,14,4.9,13.7s3,6.3,8,4.3s1.3-10,6-8.3s4,16,3,21.1c-1,5.2,10,10.5,9.3,16.2c-0.7,5.7-17.3,16-21.3,30  s7.7,23.7,18.3,32.7c10.7,9,9.3,32.3,12.3,33.7c3,1.3,6.3-2,11.7-3.7c5.3-1.7,9.7,1.7,14-7c4.3-8.7-7.3-24.7-3.7-36  c3.7-11.3,17.4-30,29.3-31.7c12-1.7,20-0.3,25.7-2c0,0,5.7-5.3,9.4-11.7c-0.1-0.9-0.1-1.8-0.1-2.6c0.3-9-21-10-21-10  c-14.9-5.1-6.8-15.1,1.1-20.5c-4.6,0.3-10.5-0.3-19.1-3.5c-21-7.7-2.3-48.7-9.7-51c-7-2.2-24.7,21.4-46.4,20.3  C630.1,351.7,627.5,355.4,620.7,350.7z" id="path4" opacity="0.5" stroke="#FFFFFF" name="定安县" stroke-miterlimit="10"/>
<path fill="#D3D3D3" d="M751.9,452.8c-19.5-2.3-3.2-17.8-10.9-22.1  c-6.9-3.9-12.2-11.1-12.9-19c-3.7,6.3-9.4,11.7-9.4,11.7c-5.7,1.7-13.7,0.3-25.7,2c-12,1.7-25.7,20.3-29.3,31.7  c-3.7,11.3,8,27.3,3.7,36c-4.3,8.7-8.7,5.3-14,7c-5.3,1.7-8.7,5-11.7,3.7c-0.5-0.2-0.8-0.9-1.1-2c-9.3,1.7-29.3,1.5-34.5,4.4  c-6.5,3.5-3.3,17-4.9,26s-9.9,31,0,31.5s3.4,10,10.4,10s12.5-0.5,16,3.5s12.5,12.5,23.5,6c10.4-6.1,48.3-36.2,71-39.9  c1.4-1.6,3.1-2.9,5.3-3.8c8.3-3.6,4.8-5.9,4.8-9.8c0-3.9,3.5-15.4,3.6-19.8s-2.1-1.6-3.9,0.9c-1.7,2.5-1.5,2.6-0.1,5.4  c1.3,2.8-1.8,6.1-2.8,9.6c-1,3.4-1.4-6.4-0.9-12.6c0.4-6.4-0.4-6.5-2-8.9c-1.8-2.4,3.4-3.6,7.9-3.6c4.5,0,4.8-2.3,4.5-5  c-0.4-2.6,1-5.6,4.9-7.6c3.8-2.1,2.5-10.3,7.4-18.5C755.5,461.2,752.4,456.9,751.9,452.8z" id="path5" opacity="0.5" stroke="#FFFFFF" name="琼海县" stroke-miterlimit="10"/>
<path fill="#D3D3D3" d="M719.5,617.7c-1.9-5.3-4.1-16.8-4.5-20.6  c-0.4-3.9-3.9,1.1-6.5,4.8c-2.6,3.6,0,2,2.3,4.3c2.4,2.3,0.7,4.6,0.4,8.9c-0.4,4.3-0.5,2.4,1.1,4.4c1.6,2,2,3-0.1,4.7  c-2.1,1.9-6.5,2.1-8.9-0.1c-2.4-2.2-3.9-1.8-7.8-1.8c-3.9,0-4.4-1.1-6-4.4c-1.6-3.3-0.1-5.6,3.1-5.5c3.3,0.3,6.6-2.1,6.6-7.3  c0-5.3,10-13.6,13-15.8c3-2.1,2.3-16.8,3.6-27.4c1-7.8,2.2-14.5,6.1-18.9c-22.7,3.7-60.6,33.8-71,39.9c-11,6.5-20-2-23.5-6  s-9-3.5-16-3.5c-1.4,0-2.2-0.4-2.8-1c-1.9,3.8-1.1,6.9-2.2,12.8c-1.5,8.1-16.5,16.6-21,24.1s4.5,20,0,34s-19,19-21,32  s-4,24.5,6,24.5c7.9,0,20.8,3.1,27.2,5.4c0.1-0.1,0.2-0.2,0.2-0.4c1.4-3,1-3.6,5-5.4c4-1.9,8.6-7.6,12.3-10.6c3.6-3,17.2-13.4,21-17  s9.6,0,14,0.1c4.4,0.3,4.5-1.9,5.4-5c0.9-3.1,4.6-6.4,12.3-6.4c7.6,0,8.9-2,10.4-3.3c1.5-1.4,4.4-3.5,5.9-0.4s-11.4,7.9-14.5,7.9  s-5.6,2-8.1,2.1c-2.5,0.3-2.6,2-1.6,2s2.1,0,4.4,1.5c2.3,1.5,6.4-1.1,9.3-1.8c2.9-0.6,4.9-0.1,7.1,1.6c2.2,1.8,3.8,2.1,6-2.5  c2.3-4.5,1.5-9.8,1.1-12.9s2.9-6.3,5-6.9s5.5-7.9,7.3-12.1c1.7-4.3,4.1-2,7.2-1.5c3,0.5,2.4-3.1,4.5-2.1s3.9-0.3,4.9-2.9  c0.9-2.6,3.3-0.3,6.8,0.1S721.5,623,719.5,617.7z" id="path6" opacity="0.5" stroke="#FFFFFF" name="万宁市" stroke-miterlimit="10"/>
<path fill="#D3D3D3" d="M538.5,656c-15,0.5-28,11-38.5,7s-1-25.5-7.5-19.5  s-4,26-2.7,32c1.3,6,13.7,0,19.7,2s10,9.5,3.5,27.9s-12,10.1-6.5,19.6c5.5,9.5,16.5,12,19.9,29.1c6.3-0.4,12.8-0.4,14.9-0.4  c3.6,0,5.5-1.6,6.5-4.6c1-3,3.4-1.6,5.6-0.4c2.3,1.3,3.8-1.9,5.1-5c1.4-3.1,2.4,0.4,3.1,4.3c0.8,3.8-4.5,8.6-7.8,11.5  c-3.3,2.9-9.8-3.5-12.1-2.3c-2.5,1.3,7.6,8.4,10.1,9.8c2.5,1.4,4.1-0.3,6.1-1.5s3.3-1.5,7.1-0.4c3.9,1.1,5.4-1.5,6.3-4.5  c0.8-2.9-1-3.3-3-3.3s-1.1-1.5-1.1-3.5c0-2-1.9-1.1-2.8-2.9s-0.1-4.3,3.8-5s3.5,4,3.8,6.6c0.3,2.6,1.8,2.6,3,0.9  c1.4-1.8,1.3-10.1,1.3-13.9c0-3.9,6.5-17.6,7.3-21.3c0.8-3.6,3-7.1,6.4-8.4c3.2-1.2,6.3-2,7.8-4.6c-6.3-2.3-19.3-5.4-27.2-5.4  c-10,0-8-11.5-6-24.5c0.7-4.8,3.1-8.4,6.1-11.9C563.5,660.7,549.3,655.6,538.5,656z" id="path7" opacity="0.5" stroke="#FFFFFF" name="陵水黎族自治县" stroke-miterlimit="10"/>
<path fill="#D3D3D3" d="M469.5,636c-15,5.5-12.5,50-28.5,52.5  s-2.5-10.5-16-10c-11.6,0.4-12.9,23.8-11.4,38.9c0.7,0.4,1.4,0.7,2,1c2.5,0.9,3,7.3,2.5,10s-3.6,6.9-3.6,11s0.8,8-0.6,9.9  c-1.5,1.9-3.4,4.1-0.4,5.9c3,1.8,4.1,3.3,5.3,6.3c1.1,3,3.6,4,7.1,4s9.3,0.4,11.1,1.1c1.9,0.7,6.1,0.1,8.6-1.8s9.3-1.9,9.3-1.9  s7.2,2.3,9.1,0.1c1.9-2,3.4-5.8,3.5-7.6c0.1-2,1.5-3.9,3-3.9s2.3-3.3,2.3-5.6s1.6-6.3,3.9-9.3c2.3-3-0.1-4.4,1-6.9  c1.1-2.6,6.9-5.5,8.1-9s4-6.9,4-2.3c0,4.6-0.1,8.6,3,10.5c3.1,2,2.9,5.6,2.5,9.1c-0.3,3.5-2.3,9.3-5.3,12c-2,1.8-0.7,5.4,0.3,7.5  c1.1,0.1,2.5,1.6,4.5,4.6c3,4.5,14.6-2.8,19.4-5.8c2.2-1.3,7.1-2,12.3-2.4C523,737,512,734.5,506.5,725c-5.5-9.5,0-1.2,6.5-19.6  s2.5-25.9-3.5-27.9s-18.3,4-19.7-2c-1.1-5-3-19.5,0.1-27.8C487.5,642.5,481,631.8,469.5,636z" id="path8" opacity="0.5" stroke="#FFFFFF" name="保亭黎族苗族自治县" stroke-miterlimit="10"/>
<path fill="#D3D3D3" d="M476,609.5c2.5-4,10-18,5-21s-15.5,2.5-28.5-3.1  c-13-5.6-21-30.9-28-32.9s-13.5,12-17.5,13.3c-4,1.3-6.5,1.7-14,0.2s-7,8.5-12.5,13c-5.5,4.5-11.5,13.5-26.5,16.5s-14-6.5-21-6  s-6,12-5.5,15.5s5,15.5,11,19.2s8-5.7,16,2.3s7,29.5-0.5,40s3.5,21,8.9,29.2c2.5-4.5,5.3-5.9,8.9-2.3c3.6,3.8,6.6,6.1,8.3,10.3  c1.6,4.3,3.4,8.5,7,9c3.6,0.5,4.5,0.3,9.5-2.2c4.9-2.5,10.3-1,11.6,1.7c1.1,2.1,3.4,3.9,5.5,5.1c-1.5-15.1-0.2-38.4,11.4-38.9  c13.5-0.5,0,12.5,16,10s13.5-47,28.5-52.5c0.8-0.3,1.5-0.5,2.2-0.6C469.8,626.2,473.7,613.1,476,609.5z" id="path9" opacity="0.5" stroke="#FFFFFF" name="五指山市" stroke-miterlimit="10"/>
<path fill="#D3D3D3" d="M301.5,609.5c-13-7-16.5,4.5-19,11s-6,6.5-11,7.5  s0.5,6-4.5,14.5c-5,8.5-37,1-45,0c-8-1-6,7.5-16.5,11.5s-20-1-30,0c-8.2,0.8-15,3.6-28.5,8.5c0,0.1,0,0.3,0,0.4  c0,3.9,0.1,5.4,1.3,7.3c1,1.8,0.9,10.3,0.9,14s-6.9,17.4-8.5,20.5c-1.6,3.3,2.4,18.9,2.8,23.9c0.4,5,7.8,5.8,14.6,5.4  s19.8,2.8,25.2,4.8c5.5,2,12,7.4,12.1,10.1c0.3,2.8,1.1,5.9,5.4,5.9c4.3,0,8.8,6.1,20.5,6.1c11.4,0,10.8,5.5,13.4,9  c1.4-0.9,10.3-6.6,10.6-9c0.4-2.5,9.8-8.6,16.4-10.1c6.5-1.5,10.5-1.5,12-4.1c1.4-2.6,1.5-3.9,8-3.9s14.8-1,16.1,0.9  c1.3,1.9,5.1,3.8,7.9,1.1c2.9-2.6,1.4-8,1-10.5s-2.8-9.3-0.4-12.3c2.4-3.1,3.4-6.3,3.4-8.5c0-2.1,1.5-4.6,4-3.6s11.9-1,14,1.1  c2.1,2.1,8.1,6.9,9.9,10.3s3.6,6.4,6,5.1s3.6-4.1,3.5-7.6c-0.3-3.5-0.3-9.6,3.1-12.6c3.4-3.1,10.3-5.8,12.8-10.3  c-5.4-8.2-16.4-18.7-8.9-29.2s8.5-32,0.5-40s-10,1.5-16-2.3c-5.1-3.2-9.1-12.3-10.5-17.1C320.1,616.8,313.5,616,301.5,609.5z" id="path10" opacity="0.5" stroke="#FFFFFF" name="乐东黎族自治县" stroke-miterlimit="10"/>
<path fill="#D3D3D3" d="M276.5,562.5c-10-6-17,1.5-24.9,0  c-7.9-1.5-2.6-21.5-5.1-31.5s-7-6.5-12.4-10s-5.6-14-10.1-22.5s-8-2-18-1.8c-10,0.2-8-13.2-15.5-13.2s-3.5,8-18,9  c-12.3,0.8-22-4.4-33.5-2.1c2.1,3,3.1,8,1.3,9.3c-2.4,1.8-2.8,6.9-3.1,10.9c-0.4,4.1-11.5,10.3-14.6,12c-3.1,1.6-2.4,3.3-0.3,4  s9.9,31.1,9.1,35.8c-0.8,4.8,1.8,13.1,4.1,15.1c2.4,2.1-0.4,16.1-5.8,20.8c-5.4,4.5-7.3,12.9-7.3,16.4c0,3.6,5.4,5.2,10.9,8  c5.5,2.7,8.3,18.3,11.3,23.6c2.8,5.2,2.4,12.3,2.4,16.2c13.5-4.8,20.3-7.7,28.5-8.5c10-1,19.5,4,30,0s8.5-12.6,16.5-11.5  c8,1,40,8.5,45,0c5-8.5-0.5-13.5,4.5-14.5s8.5-1,11-7.5c0.8-2,1.6-4.5,2.8-6.7c-3.3-3.6-6.9-8.5-8.8-14.3  C272.5,587.5,286.5,568.5,276.5,562.5z" id="path11" opacity="0.5" stroke="#FFFFFF" name="东方市" stroke-miterlimit="10"/>
<path fill="#D3D3D3" d="M332.7,552.3c-5.3-11.7-10-3-26-4.3  s-8.7-14.7-12.7-23.3c-4-8.7-10.7-13.3-14.7-20.7c-4-7.4,10-22.6,11.3-28.6c1.3-6-6.7-0.7-20-6c-13.3-5.3,16-18,0-16.6  s-17.3-20.1-14.7-22.1s19.3-7.3,0-9.3s-22.9-16.2-22.9-16.2c-3.8-2.2-6.5-8.5-7.6-13.3c-0.2,0-0.3,0-0.5-0.1c-2.5-0.6-1.4-1-1.4-4.2  s-3.9,0.1-5.8,2.9s-6.1,2.5-9.3,6s-8,6.6-13.8,7.8c-5.8,1.1-11.4,8.5-14.9,12.5c-3.5,4.1-8.5,7-15.6,10.9  c-7.3,3.8-11.5,2.9-15.5,1.9c-4-1-6.4,2.3-6.4,4.6c0,2.4-1.9,8.5-2.5,11.3c-0.6,2.8,1.9,3.8,1.1,6.6c-0.9,2.9-3-3.2-4.5-6  c-1.5-2.6-1.5,7.6,1,9.5s0,2.9-4.9,2.9c-4.8,0-4,9.1-3.6,13.4c0.4,4.2-2.8,11.4-3.9,14.1c-1.3,2.8,1.3,2.4,3.6,0  c2.4-2.2,4.9,1,8.1,2.8c0.7,0.4,1.4,1.1,2,1.9c11.5-2.3,21.3,2.9,33.5,2.1c14.5-1,10.5-9,18-9s5.5,13.4,15.5,13.2  c10-0.2,13.5-6.7,18,1.8s4.8,19,10.1,22.5s9.9,0,12.4,10s-2.9,30,5.1,31.5c7.9,1.5,14.9-6,24.9,0s-4,25,0,37  c1.9,5.8,5.6,10.7,8.8,14.3c2.7-5.1,7.2-9.1,16.2-4.3c12,6.5,18.6,7.3,26.5-2.4c-0.3-0.9-0.4-1.6-0.5-2.1c-0.5-3.5-1.5-15,5.5-15.5  c0.1,0,0.2,0,0.4,0C334.6,580.7,336.7,561.2,332.7,552.3z" id="path12" opacity="0.5" stroke="#FFFFFF" name="昌江黎族自治县" stroke-miterlimit="10"/>
<path fill="#D3D3D3" d="M441,547c12.5-6.5,19-3,19-14.5s0.5-20,0-26  s-9.7-0.1-14.1-2.5c-4.4-2.5-7.3-9.5-14.3-12.5c-7-3-9.5-12.5-17-13.5s-10.5-5.5-12-11s-3-10.5,0-16.5s-5-10.5-9.5-10  s-6.5,5-10.5,6.5s-22.5,3.5-26,2s-12.5-8.6-15-8.5S322,445,318,444s-11.5-7.5-6-10s-16.5-14-18.5-14c-1.8,0-28-3.5-38.6,1.2  c0.4,0,0.7,0.1,1.1,0.1c19.3,2,2.7,7.3,0,9.3s-1.3,23.5,14.7,22.1s-13.3,11.3,0,16.6c13.3,5.3,21.3,0,20,6  c-1.3,6-15.3,21.3-11.3,28.6c4,7.4,10.7,12,14.7,20.7c4,8.7-3.3,22,12.7,23.3s20.7-7.4,26,4.3c4.1,8.9,1.9,28.4,0.7,37.2  c6.6-0.1,5.9,9,20.6,6c15-3,20.9-12,26.5-16.5c5.5-4.5,5-14.5,12.5-13s10,1.2,14-0.2c4-1.3,10.5-15.3,17.5-13.3  c3.2,0.9,6.6,6.7,10.6,13.2C429.5,549.1,429.9,552.8,441,547z" id="path13" opacity="0.5" stroke="#FFFFFF" name="白沙黎族自治县" stroke-miterlimit="10"/>
<path fill="#D3D3D3" d="M377.6,244c1.3-1,3.4-4.4,9-1.6  c5.8,2.6,6.4,3.1,8.6,2.9c2.2-0.3,5.6-1.4,5-0.3c-0.5,1.1-1.4,2-2.9,1.8s-1.8,1-1.8,1s-2.4,3.3-5.1,1.4s-5.4-2-7.1-2  S376.4,244.9,377.6,244z M464.5,479c10.5-11,5.5-24.5-4.3-26.3s-14.2-8.3-10.7-15c3.5-6.8,31.5-8.7,29.5-11.2s-4-18-2.5-23  s12-13,11.7-17.3s-5.7-4.2-11.7-4.2s-6.5-9-10-11s-10.5-3.5-16.5-4s0.5-7-10-7.5s-14.8-8.7-10.8-21.5s-0.8-47.2-5-49.7  c-3.3-2-5.1-11-5.2-16.9c-1.4,1.2-3.3,1.8-5.2,1.5c-2.6-0.5,2.8-4.9,3.3-7.8c0.4-2.9-0.5-4-1.8-1.4s-5.1,4.8-8.1,5.5  s-7.3,0.6-9.5,3.5c-2.4,3-2-0.9-1.9-6.1c0.3-5.3-0.3-5.9-7-7c-6.9-1.1-3.6-1-5.5,2.6s-9.8-0.8-13.4-5.1s-10.4-4.8-16.3-3  c-5.8,1.6-6-0.4-6-5.5s0.1-3.8-3.3-4.4s-5-0.8-6,3c-0.9,3.9-3.9,2.9-7.5,2.5s-1.6,2.9-2.6,7.4c-1,4.6-7.3,7-11,8.8  c-3.8,1.6-4.5,3-4.9,6.8c-0.4,3.8-9.7,9.6-13,13.4c-3.2,3.9-2,7.3,0.8,12c2.8,4.6,0,11-1.8,13.4s3.3,0.3,5.1-2.4s5-0.9,8.6-0.5  s1.6-5.4,2.8-5.3c1.1,0.3,4.5-2.4,6.5-4.5c2-2.1,5.4-1.8,7.8-1.6s3.8-4.4,4.5-7.1s2-3.5,4.5-3.5s3.8,8.9,3.8,12s-5.4,3.9-8.5,4  c-3,0.3,2.6,3.9,6.8,5.1c4.1,1.3,4.5,3.6,4.5,8s-1.6,5-2.9,3.1c-1.3-1.8-4.9-4.4-9.4-8.1c-4.5-3.9-13.9,1.3-15.5,0.9  c-1.8-0.4-3.5-0.8-3.5,2.8c0,3.4,0.5,5.6-2.6,12.4c-3.2,6.8-27.3,15.8-31.5,17.9c-4.1,2.1-14,9-22,9.3c-8,0.3-12.4,7.4-13.6,10.1  s-13,13.5-15.4,13.8c-2.3,0.3-2.5,1.6,0.3,3.1c2.6,1.5,0.1,2.3-1.4,3.3s-0.1,2.1,0.6,3.9c0.7,1.6-0.1,4.1-2.2,4  c1.1,4.8,3.8,11.1,7.6,13.3c0,0,3.4,13.6,21.7,16.1c10.6-4.7,36.9-1.2,38.6-1.2c2,0,24,11.5,18.5,14s2,9,6,10s21-3.5,23.5-3.5  s11.5,7,15,8.5s22-0.5,26-2s6-6,10.5-6.5s12.5,4,9.5,10s-1.5,11,0,16.5s4.5,10,12,11s10,10.5,17,13.5c7,3,10,10,14.3,12.5  c2.7,1.5,7.3-0.2,10.5-0.3C456.2,497.2,457.4,486.5,464.5,479z" id="path14" opacity="0.5" stroke="#FFFFFF" name="儋州市" stroke-miterlimit="10"/>
<path fill="#D3D3D3" d="M517,349c3.5-3-1-9,0.5-14s8.5-5.5,11.5-24.5  s-21-22-16.5-30.5s13-27,7-34.5c-3.9-4.8-1.6-11.6,1.2-19.7c-2.4,0.1-5,0-6.6-0.1c-2.6-0.1-4.1,6.4-4.1,9.9s1.1,2.5-2.6,4.4  s-7-2.6-7.6-5.9s-1.3-3.8-3.4-5.8s-2.9-0.3-3.5,0.6s0.4,6.8,1.5,10.1c1.1,3.4-0.4,3.4-2.3,3.4s-1.4-4.5-2.1-7.8s-4.1-2.1-7.5-3.3  c-3.3-1-6-8.8-8.8-13c-2.9-4.3-5.9-2.8-9.1-2c-3.3,0.8-9.2,0.5-12.5,2.3c-3.1,1.8-10.8,0.8-13.1,0.6c-2.4-0.1-12.7,8.6-13.5,11  s-3.4,2.9-5,3.5c-1.6,0.6-3.4,0.9-3.3,3.3c0.3,2.4-2.5,7.5-2.9,7.6c-0.4,0.1-1.1,6.3-4,10.1c-3,3.8-0.4,4.9,6.3,4.9  c6.6,0,6.3,1.8,8.9,3.5c2.6,1.6,1.4,3.5-1.1,3.4c-2.4-0.1-3,0.9-4.1,3.1c-0.3,0.6-0.7,1.2-1.3,1.7c0.1,5.9,1.9,14.9,5.2,16.9  c4.2,2.5,9,36.8,5,49.7s0.3,21,10.8,21.5s4,7,10,7.5s13,2,16.5,4s4,11,10,11c3.1,0,6,0,8.2,0.5C496.9,370.7,514.4,351.2,517,349z" id="path15" opacity="0.5" stroke="#FFFFFF" name="临高县" stroke-miterlimit="10"/>
<path fill="#D3D3D3" d="M485,437.7c2.5,6.3,5.5,5.8,15,5.3  s18.8,7.5,26.4,0.3s4.2-18.8,9.7-20.3s-3.5-15,10.5-17.5s18,7.8,29.5,6.1s7-12.6,15.5-16.6s21-5.2,21-8.8c0-1.4,0-4.3,0-7.5  c-2.9,0.1-1.2-5-6.5-4.7c-6,0.3-3.7-9-4.9-13.7c-1.2-4.7-5.8-8-2.8-19s14.7,4,22.3,9.3c6.8,4.7,9.4,1.1,12.2-6.4  c-1-0.1-2.1-0.1-3.1-0.3c-23.2-3.7-4.1-47.3-4.1-56s-20-16-19.7-28.7c0.3-12.7,2.3-20.7-4.9-31.8c-2.6-0.1-3.8-5-4.3-9  c-0.5-3.6-3.3-5.9-5-7c-2.1,2.8-4.8,5.6-6.5,7.4c-3,2.9-6.8,2.6-10.8,2.9c-4,0.3,0,2.4,3.1,2.6c3.1,0.3,7-1.5,9.6-2.6  c2.6-1.1,5-4,6.5-5.9s1.3,1.6-1.9,8.1c-3.2,6.4-17.3,2.9-19.8,1.1c-2.4-1.6-6.1-0.1-7.2,2.5c-1.1,2.6-7.5,5-9.9,5.5  c-2.3,0.6,1.4,2.6,2.2,4.9s-6,5.8-9,5.1s-1.4,2-1.1,4.9c0.4,2.9-0.1,4.5-1.5,2.9c-1.5-1.6-4.6-1.5-8-2.3c-3.4-0.8-2.5-3.3-1-2.9  c1.5,0.4,3.9-0.4,7.8-3.8s-1.8-5.6-4.5-7.6s-4.9-5.4-6.1-9.4s-6.5-0.6-9.1,0.3c-1.1,0.3-2.5,0.5-4,0.6c-2.8,8-5.1,14.9-1.2,19.7  c6,7.5-2.5,26-7,34.5s19.5,11.5,16.5,30.5S519,330,517.5,335s3,11-0.5,14c-2.6,2.2-20.1,21.7-32.3,33.5c2.1,0.5,3.4,1.6,3.6,3.7  c0.3,4.3-10.2,12.3-11.7,17.3s0.5,20.5,2.5,23c0.5,0.6-0.7,1.1-2.7,1.7C481.8,432.1,483.1,433,485,437.7z" id="path16" opacity="0.5" stroke="#FFFFFF" name="澄迈县" stroke-miterlimit="10"/>
<path fill="#D3D3D3" d="M507.5,475.5c8,3,20,2.5,25,8s15,16.8,17.5,23.9  s12.5,2.6,17,4.1s3.5,12,9.5,16c4.5,3,17.1,4.6,24.6,4.6c0,0,0,0,0-0.1c1.6-9-1.6-22.5,4.9-26c5.2-2.8,25.3-2.6,34.5-4.4  c-1.7-6.1-2.2-24-11.2-31.6c-10.7-9-22.3-18.7-18.3-32.7s20.7-24.3,21.3-30c0.7-5.7-10.3-11-9.3-16.2c1-5.2,1.7-19.5-3-21.1  s-1,6.3-6,8.3c-0.6,0.2-1.1,0.4-1.5,0.4c0,3.1,0,6.1,0,7.5c0,3.7-12.5,4.8-21,8.8s-4,15-15.5,16.6s-15.5-8.6-29.5-6.1  s-5,16-10.5,17.5s-2,13-9.7,20.3c-2.3,2.2-4.8,3-7.4,3.1c-2.3,5.4-5.5,11.1-8.5,14.7C505.5,467,499.5,472.5,507.5,475.5z" id="path17" opacity="0.5" stroke="#FFFFFF" name="屯昌县" stroke-miterlimit="10"/>
<path fill="#D3D3D3" d="M601.1,563.5c-9.9-0.5-1.7-22.4,0-31.4  c-7.5,0-20.1-1.6-24.6-4.6c-6-4-5-14.5-9.5-16s-14.5,3-17-4.1s-12.5-18.4-17.5-23.9s-17-5-25-8s-2-8.5,3-14.5  c3-3.6,6.2-9.2,8.5-14.7c-5.9,0.1-12.4-3.7-19-3.3c-9.5,0.5-12.5,1-15-5.3c-1.9-4.7-3.2-5.6-8.7-9.5c-6.9,1.9-24.1,4.3-26.8,9.5  c-3.5,6.8,0.9,13.3,10.7,15S475,468,464.5,479c-7.1,7.5-8.3,18.2-8.1,24.7c2-0.1,3.4,0.5,3.6,2.8c0.5,6,0,14.5,0,26s-6.5,8-19,14.5  c-11.1,5.8-11.5,2.1-5.9,18.7c4.8,7.8,10.3,16.6,17.4,19.7c13,5.6,23.5,0.1,28.5,3.1s-2.5,17-5,21c-2.3,3.6-6.2,16.7-4.3,25.9  c10.1-2.2,15.9,7.5,18.2,12.3c0.6-1.7,1.5-3.2,2.6-4.2c6.5-6-3,15.5,7.5,19.5s23.5-6.5,38.5-7c10.8-0.4,25,4.7,32.1,7.6  c5.2-6,12-11.2,14.9-20.1c4.5-14-4.5-26.5,0-34s19.5-16,21-24.1c1.1-6,0.3-9,2.2-12.8C606.4,570.1,609.1,563.9,601.1,563.5z" id="path18" opacity="0.5" stroke="#FFFFFF" name="琼中黎族苗族自治县" stroke-miterlimit="10"/>
</svg>