<?xml version="1.0" encoding="UTF-8" standalone="no"?><!-- Generator: Adobe Illustrator 18.0.0, SVG Export Plug-In . SVG Version: 6.00 Build 0)  --><svg xmlns="http://www.w3.org/2000/svg" xmlns:xlink="http://www.w3.org/1999/xlink" contentScriptType="text/ecmascript" zoomAndPan="magnify" contentStyleType="text/css" id="图层_1" mapName="湖北省" mapType="省市地图" enable-background="new 0 0 800 600" version="1.1" xml:space="preserve" preserveAspectRatio="xMidYMid meet" viewBox="0 0 800 600" x="0px" y="0px">
<path name="孝感市" fill="#D3D3D3" id="path0" d="M598,274c2-1.1,2-1.9,1.9-3.3c-0.1-1.4-0.4-2.4,0.6-3.1  c1-0.7,2.1-3.9,1.9-5.4c-0.2-1.5,0.4-5.9,3-7.7c-0.4-0.9-0.6-2.1-0.7-3.2c-0.1-2.5,0.3-4.5,2.4-6.7c2.1-2.2,1.1-3.8,0.8-6.2  c-0.3-2.4-1.2-3.1-2.4-1.7c-1.2,1.4-1.4,1.7-3.1,0.4c-1.7-1.2-2.2-0.2-3.6,1.2c-1.4,1.4-3.2,1.3-4.7-0.1c-1.5-1.4-1.8-0.9-3.3-0.6  c-1.5,0.3-1.4,0.3-3.7-0.7c-2.3-1-6-1.5-7.5-3.4c-1.5-1.9-3.7-4-7.5-5.9c-1.7-0.9-3.6,0.1-5.3,1.5c-0.7,3.5-3.4,16.8-3.1,20.7  c0.4,4.5-0.3,12.4-0.7,15.7c-0.4,3.3-1.8,7.9-5.5,8.2c-3.7,0.3-8.6-0.8-11.1-0.5c-2.5,0.3-8.7-1.4-10.8-0.7c-2,0.7-10,3.7-12,2.9  c-2-0.8-2.7-2.5-4.2-1.2c-1.5,1.2-5.3,2.6-7.6,0.5c-2.3-2-5.5-4.9-8.7-3.7c-3.3,1.2-5.9,3-5.9,4.2c0,1.1-0.9,5.9-0.9,7.9  c0.9,0.9,1.7,2.2,2,3.1c0.5,1.3,3.5,0.9,4.9,0.4c1.4-0.5,3.1,3.2,3.4,5c0.2,1.8,1.7,1.2,2.7,1.9c1,0.7,1.2,2.3,1.1,3.9  c-0.1,1.6,0.4,3.7,1.4,5.3c1,1.7-0.2,4.3-1.6,5.2c-1.4,0.9-1.3,1.3-1,3.5c0.3,2.2-3.5,4.5-5.5,5.6c-1.9,1.1-5.1,5.4-6.9,6.8  c-1.7,1.4,0,3.9,1.4,6l0,0c0,0,0,0-0.1,0c0.1,0.1,0.2,0.1,0.2,0.1c1.5,2.1,3.7,5.2,5.8,7.1c2.1,2,2.1,6.1,2.2,8.4  c0.1,2.3,0.8,5.7,1.2,7.5c0.4,1.8,2.9,4.9,1.5,6.5c-1.4,1.6-2.2,3.7-2.2,5.4c0,1.7,1.4,5.4,1.9,6.3c0.5,0.9,2.5,2.2,1.2,4  c-1.3,1.8,0,3,0,4.7c0,0.8,0.3,1.3-0.1,1.4c1.4,0.6,3.5,0.2,4.1-0.3c1.6-1.4,0.7-2.8,2.8-3.6c2.1-0.8,0.2-2.8,2.9-4.1  c1.2-0.6,2.6-1.5,3.7-2.5l0,0.1c0,0,1.4,1.4,1.3,4c-0.2,2.5-1.6,3.8,0.9,4.7c1.5,0.5,3.1,1.2,4.5,1.8c0.7-1.8,3.1-2.9,4.8-3.5  c1.7-0.5,5.4-4.8,6.6-6.2c1.2-1.3,2.7-2.7,4.2-3.4c1.5-0.7,1.1-2.5,1.1-4.2c0-1.7,3.6-2,4.8-2.6c1.2-0.7,0.2-2.2,0.4-3.7  c0.2-1.6,1.4-2.9,0.7-3.7c-0.7-0.8-0.8-2.1,0-3.1c0.8-1-0.8-2-2-2.7c-1.1-0.7-1.5-2.1-1-2.5c0.5-0.3,0.9-1.8,1-3.4  c0.1-1.6,0.7-1.6,3.3-1.5c2.6,0.2,3.5-1.2,5-1.8c1.5-0.6,2.1,0.3,3.5,1.6c1.4,1.2,4.4,0.9,5.8,0.3c1.4-0.6,3.2,0,4.5,0  c1.3,0,1.2-5.2,0.2-6c-1-0.7-1.1-0.9-0.2-2c1-1.1,0.4-1.7-1-3c-1.3-1.4,0.1-5.8,0.2-9.4c0.1-3.6,0.2-4.8-0.2-6.4  c-0.3-1.7,1.7-3.8,1.4-5.6c-0.3-1.8,0.4-4.2,1.6-4.7c1.2-0.6,2-0.6,2.9-4c0.9-3.5-0.9-4.3-3-4.6c-2.1-0.3-1.6-2.1-2.9-4.5  c-1.3-2.4,0.1-4.6,1-4.7c0.9-0.2,4.5-2.7,5.5-4.5c1-1.8,3.1-2.9,3.8-2.9c0.7,0,0.6,3.3,0.6,4.6c0.1,1.3,1.3,0.6,2.6,0.3  c1.3-0.2,1.6,0.3,2.9,1.4c1.3,1.1,3.3,0.7,5.3,0.8c0.4,0,0.6,0.1,0.7,0.3c0.2-0.7,1.2-4.1,1.2-6.5C595.7,277,596,275.1,598,274z" stroke-miterlimit="10" stroke="#FFFFFF"/>
<path name="黄冈市" fill="#D3D3D3" id="path1" d="M750,431.7c-0.1-2.7-0.6-6.6-2.8-8.5c-2.2-1.9-1.8-7.8-1.3-10.9  c0.4-3.1,0.1-5.4-1-6.9c-1.2-1.5-1.6-4.8-2.2-8.5c-0.6-3.7-2.1-4.9-3.9-5.5c-1.8-0.6-1.5-1.9-3.6-4.8c-2.1-2.8-2.4-1.2-3.6-1  c-1.2,0.2-2.5,0.2-2.5-2.1c0-2.2-1.8-2.7-2.8-4.2c-1-1.5,1.2-4,3.4-4.8c2.2-0.7,1.6-2.2-1-4.2c-2.7-1.9-0.9-5.2-2.2-10.2  c-1.3-4.9-2.2-4-4.3-4.6s-6.4-9.7-7-12.4c-0.6-2.7,3.6-3.6,6.4-4.5c2.8-0.9,2.2-5.5,1-6.7c-1.2-1.2-2.1-1.6-0.4-3.3  c1.6-1.6,4.3-4.5,7-4.5c2.7,0,2.8-2.5,5.2-4c2.4-1.5,4.2-1.8,7.5-2.4c3.3-0.6,0-4.2-1.5-5.2s-2.2-2.5-5.5-3.3  c-3.3-0.7-4.3-1.6-4.9-3.4c-0.6-1.8-0.4-1.3-2.8-1.6c-2.4-0.3-1.5-0.9-2.2-3.6c-0.7-2.7-2.7-1.6-4-0.6c-1.3,1-1,1.2-4.3,0.7  c-3.3-0.4-6.3-5.5-9.3-8.7c-3-3.1-6.4,2.1-7.2,3.3c-0.7,1.2-0.9,2.5-3,2.2c-2.1-0.3-4.8-5.4-5.5-8.2c-0.7-2.8-1.8-3.7-3.3-3.9  c-1.5-0.1-2.4-3.1-3.9-5.8c-1.5-2.7-3.3-0.1-5.4-0.6s0-3.9,0-6c0-2.1-2.5,0.2-4.8,1c-2.2,0.9-5.4-0.1-6.4-0.9  c-1-0.7-0.3-2.8-3.6-2.2c-3.3,0.6-0.1-7.9,0.7-10c0.9-2.1,0.9-4.5-0.9-4.5c-1.8,0-0.9-1.2-3.7-4c-2.8-2.8-4.9,4.8-5.4,6.7  c-0.4,1.9-2.7,4.6-4.3,4c-1.6-0.6-2.7-0.6-4.3,0.7c-1.6,1.3-3.6,2.5-6,2.1c-2.4-0.4-2.1-0.7-4.2,0.1s-2.8,1.2-6.3,0.4  c-3.4-0.7-5.8-3.1-5.8-4.9s-0.4-1.6-2.8-1.2c-2.4,0.4-6.1-3.3-7.5-5.1c-1.3-1.8-2.8-1-5.2,0.4c-1.4,0.9-2.2,0.1-2.8-1.1  c-2.6,1.8-3.2,6.2-3,7.7c0.2,1.5-1,4.7-1.9,5.4c-1,0.7-0.7,1.7-0.6,3.1c0.1,1.4,0.1,2.2-1.9,3.3c-2,1.1-2.4,3-2.4,5.6  c0,2.4-1,5.9-1.2,6.5c0.4,0.6-1,2.2-1.5,3.6c-0.6,1.7,2.2,4.4,4.1,5.3c1.9,0.9,1.6,1,2.4,3.3c0.8,2.2,1.8,3.7,4.2,4.6  c2.4,1,0.5,6.4-1,9.3c-1.4,2.9,4.1,5.3,6.3,6.9c2.2,1.6,3.9,4.1,5.2,3.7c1.3-0.4,1.8-0.6,2.8,0c1.1,0.6,1.8,0,2-1.4  c0.1-1.4-0.6-2.3,0.9-3.3s2.8-0.6,4.6,0.6c1.7,1.2,1.7-0.7,2.5-1.7c0.8-1,1.2-1.2,1.4-0.3c0.1,0.9,1.1,2,2.2,2.7  c1.1,0.6,1.7,1.6,3.5,1.5c1.9-0.1,2-1.7,0.7-3c-1.3-1.2-1.3-1-0.6-3c0.7-2,4.1-1.2,5.4-1c1.3,0.2,1.3,2.8,2.4,2.2  c1.1-0.6,1.4-3,1.4-3.8c0-0.9,0.5-1.3,1.6-0.9c1.1,0.4,0.6,3.8,0.2,5.7c-0.4,1.9,1,2.3,2.1,3c1.1,0.7,1.5,1.2,0.7,2.3  c-0.8,1.2,2.7,4.1,4,5.6c1.3,1.5-3.7,3.2-5.4,3.5c-1.7,0.3-0.6,1.4,0.5,2.2c1,0.8-0.3,1.6-1.5,1.5c-1.1-0.1-1.2,0.1-1.2,0.7  s-0.3,1.9-1.7,0.9c-1.4-1-2.1,0.8-4.9-0.6c-2.8-1.3-3.8,5-4,6.3c-0.2,1.3-1.4,2.4-2.8,3c-1.4,0.7-1.5,3.1-1.5,4.1  c0,1,2.6,1.8,3.8,3.2c1,1.1,0.1,2.6-0.3,3.2c0.1,0.1,0.2,0.2,0.3,0.4c0.5,1.4-0.3,5.9-0.6,8.2c-0.2,2.3,0.4,7.3,1.9,8.6  c1.4,1.3,6.2,3,8.8,3.4c2.6,0.4,8.2-0.2,9.5,1c1.3,1.2,3.1,4.6,2.8,7c-0.2,1-0.3,1.8-0.6,2.3c0,1.3,0.1,4.3,0.1,5.5  c0,1.7,3,4.1,4.6,4.1c1.6,0.1,5.6-0.8,6.9,0c1.3,0.8,4.5,3.4,5.3,4.5c0.8,1.1,5.7,7.2,5.8,9.7c0.1,2.5-0.3,5.7,2.7,7.7  c2.9,2,2.6,3.6,4.1,4.8c1.5,1.2,1.8,2.3,2.2,4.3c0.4,2,4.3,5.4,5.6,6.3c0.9,0.6,1.8,1.5,2.3,2c0.4-0.3,0.8-0.5,1.2-0.5  c2.1-0.1,2.3-0.7,7.3-0.8c5.1-0.1,4.8-1.3,8.2-1.7c3.3-0.3,5,2.8,6.9,5.4c2,2.6,7.6,5.2,12.7,7.2c5.1,2.1,6.3-0.6,8-1.3  c1.8-0.7,6-3.8,8.3-5.6C749.7,437,750.1,434.4,750,431.7z" stroke-miterlimit="10" stroke="#FFFFFF"/>
<path name="武汉市" fill="#D3D3D3" id="path2" d="M633.2,352.9c-1.2-1.3-3.8-2.2-3.8-3.2c0-1,0.1-3.4,1.5-4.1  c1.4-0.7,2.6-1.7,2.8-3c0.2-1.3,1.2-7.6,4-6.3c2.8,1.3,3.5-0.5,4.9,0.6c1.4,1,1.7-0.3,1.7-0.9s0.1-0.8,1.2-0.7  c1.1,0.1,2.5-0.7,1.5-1.5c-1-0.8-2.2-1.9-0.5-2.2c1.7-0.3,6.7-2,5.4-3.5c-1.3-1.5-4.8-4.4-4-5.6c0.8-1.2,0.4-1.7-0.7-2.3  c-1.1-0.7-2.5-1.2-2.1-3c0.4-1.9,0.9-5.3-0.2-5.7c-1.1-0.4-1.6,0.1-1.6,0.9c0,0.9-0.3,3.2-1.4,3.8c-1.1,0.6-1.1-2-2.4-2.2  c-1.3-0.2-4.7-1-5.4,1c-0.7,2-0.7,1.7,0.6,3c1.3,1.2,1.2,2.9-0.7,3c-1.9,0.1-2.5-0.9-3.5-1.5c-1.1-0.6-2-1.8-2.2-2.7  c-0.1-0.9-0.6-0.7-1.4,0.3c-0.8,1-0.8,3-2.5,1.7c-1.7-1.2-3.1-1.5-4.6-0.6s-0.8,1.8-0.9,3.3c-0.1,1.4-0.9,2-2,1.4  c-1.1-0.6-1.6-0.4-2.8,0c-1.3,0.4-3-2.1-5.2-3.7c-2.2-1.6-7.7-4-6.3-6.9c1.4-2.9,3.4-8.3,1-9.3c-2.4-1-3.4-2.4-4.2-4.6  c-0.8-2.2-0.6-2.4-2.4-3.3c-1.9-0.9-4.7-3.5-4.1-5.3c0.6-1.7,2.8-3.8,0.8-3.9c-2-0.1-4.1,0.3-5.3-0.8c-1.3-1.1-1.6-1.7-2.9-1.4  c-1.3,0.2-2.5,1-2.6-0.3c-0.1-1.3,0.1-4.6-0.6-4.6c-0.7,0-2.7,1.1-3.8,2.9c-1,1.8-4.6,4.3-5.5,4.5c-0.9,0.2-2.3,2.4-1,4.7  c1.3,2.4,0.8,4.2,2.9,4.5c2.1,0.3,3.8,1.2,3,4.6c-0.9,3.5-1.7,3.5-2.9,4c-1.2,0.6-1.9,2.9-1.6,4.7c0.3,1.8-1.7,4-1.4,5.6  c0.3,1.7,0.2,2.9,0.2,6.4c-0.1,3.6-1.5,8-0.2,9.4c1.3,1.4,1.9,2,1,3c-1,1.1-0.8,1.2,0.2,2c1,0.7,1.1,6-0.2,6c-1.3,0-3.1-0.6-4.5,0  c-1.4,0.6-4.4,0.9-5.8-0.3c-1.4-1.2-2-2.1-3.5-1.6c-1.5,0.6-2.4,2-5,1.8c-2.6-0.2-3.2-0.2-3.3,1.5c-0.1,1.6-0.5,3.1-1,3.4  c-0.5,0.3-0.2,1.7,1,2.5c1.1,0.7,2.8,1.8,2,2.7c-0.8,1-0.7,2.3,0,3.1c0.7,0.8-0.5,2.1-0.7,3.7c-0.2,1.6,0.8,3.1-0.4,3.7  c-1.2,0.7-4.8,0.9-4.8,2.6c0,1.7,0.3,3.5-1.1,4.2c-1.5,0.7-3,2.1-4.2,3.4c-1.2,1.3-4.9,5.6-6.6,6.2c-1.6,0.5-4.1,1.7-4.8,3.5  c0.9,0.4,1.8,0.8,2.5,1.1c1.8,0.8,3.2,2.7,2.5,3.7c-0.6,1-0.4,1.6,0.8,3c1.2,1.4,1,3.1,2.2,3.8c1.2,0.7,1.7,1.5,1.4,2.9  c-0.4,1.4-0.4,2.7,0.9,3.2c1.3,0.5,3.2,2.4,3,3.6c-0.3,1.2,1.2,1.1,2.9,1c1.2-0.1,2-1.1,2.3-1.4c-0.7-0.2-1.2-0.8-1.2-2.2  c-0.1-2.1,2.4-4.3,2.8-5.7s2.1-3.1,4.7-3.2c2.5-0.2,4.1,0.5,5.3,2.5c1.2,2.1,3,2.9,2.6,3.6c-0.4,0.7-1.1,4.1-0.3,3.7  c0.8-0.4,3.6-2.5,5.1-1.2s2.9,3.2,3.8,4.7s3.7,6.9,4.9,7.3c1.3,0.4,2,1.6,1.3,2.6c-0.8,1-0.1,6.7,2.5,7c2.7,0.3,6.4-1.9,8-3.1  c1.7-1.2,3.4-1.7,5.5-0.4c2.1,1.3,6,3.8,8,3.8c1.1,0,2.7,0.6,3.8,1.4c0.3-1,1.3-4.6,2.8-4.6c1.8,0,0.5-1-0.1-1.9  c-0.7-0.9-0.6-4.1-2.1-5.1c-1.5-1-0.4-2.7-0.4-4.6c0-1.9-1.3-4.2-0.1-6.6c1.2-2.4,1-3.7,2.5-5.2c1.5-1.4,4.8-7.4,4.8-8.9  c0-1.5-0.3-4.1-1-6.3c-0.7-2.2-1.2-5.7-1.9-7.5c-0.7-1.8-1-2.7,0.5-3.3c1.5-0.5,6.3-1.8,6.3-3.5c0-1.8,0.6-2.7,0.2-4.2  c-0.3-1.4,2.3-1.6,3.3-1.6c1,0,5.8-3.2,7.4-4.5c1.4-1.2,4.4-0.7,5.3,0.5C633.3,355.5,634.2,353.9,633.2,352.9z" stroke-miterlimit="10" stroke="#FFFFFF"/>
<path name="随州市" fill="#D3D3D3" id="path3" d="M497.2,275.4c0-1.2,2.6-3,5.9-4.2c3.3-1.2,6.4,1.6,8.7,3.7  c2.3,2.1,6.1,0.7,7.6-0.5c1.5-1.2,2.2,0.4,4.2,1.2c2,0.8,10-2.2,12-2.9c2-0.7,8.3,1,10.8,0.7c2.5-0.3,7.4,0.8,11.1,0.5  c3.7-0.3,5-4.9,5.5-8.2c0.4-3.3,1.1-11.2,0.7-15.7c-0.4-3.9,2.3-17.2,3.1-20.7c-2,1.7-3.7,4.1-4.4,5c-1.2,1.7-2.4,2.1-6.2,3.4  c-3.7,1.3-1.9-1.3-3.5-2.8c-1.7-1.4-1.2-3-1.2-5.2s1.4-2.3-1.7-3c-3.1-0.7-2-0.6-2.8,1.2c-0.8,1.8-2.1,1.3-4.2,0.7  c-2.1-0.7-1.7-2.4-1.7-4.1c0-1.7,0.3-2.8-1.2-3.6c-1.5-0.9-1.2-1.5-0.8-3.4c0.4-1.9-2.3-2-3.9-2.5c-1.5-0.6-0.6-3.1,1.3-4.9  s-3.4-3.5-4.8-5.5c-1.4-2-0.3-2.8,2.5-4.9c2.9-2.1,1-6.6-0.9-8.7s-1.1-3.4-1.1-5.3s1.2-2.8,2.6-3.5c1.4-0.8-1.8-3-1.4-5.1  c0.3-2.1-0.7-4.2-2.1-6.3s-6.8,1-7.7,2.4c-0.9,1.4-2.4,1.8-3.3,2.9c-0.9,1.1-1.8,2.3-5.1,3c-3.3,0.7-5,2.8-6.6,4.7  c-1.7,2-2.9,1.4-4.5-0.1s-3.6-1.7-5.8-1.7s-3.3-1.4-3.6-4.3c-0.3-2.9-5.2-6.3-8.3-8.1c-3.1-1.8-4.8,0.5-5.1,2.3  c-0.2,1.8-0.9,2.4-2.6,2.4c-0.2,0-0.4-0.1-0.7-0.1c-0.9,0.4-4.3,1.8-5.5,2.6c-1.3,0.8-1.1,1.2,0.3,1.6c1.4,0.4,2.1,1.7,1.4,3.6  c-0.7,1.9-1.7,2.6-2.9,3.1c-1.2,0.5-0.4,1.7,0.7,2.5c1,0.8-0.5,4.6-1.7,7.7c-1.2,3.1,0.8,3.2,2,3.9c1.1,0.7-0.8,3-2.4,3.6  c-1.5,0.6-1.4,4.7-2.6,5.2c-1.2,0.5-2,5.4-2,6.7c0,1.3,1.9,1.4,3.3,1.4c1.4,0,0.8,1.9-0.3,2.3c-1.1,0.4-1.2,1.3-1.2,2.8  s-1.6,3.2-2.9,3.6c-1.3,0.4,0.6,1.5,0.9,3c0.4,1.5-1.4,2.8-2.7,2.8c-1.3,0-3.7,2.9-5.3,2.7c-1.6-0.2-3.5,3.5-4.2,5.2  c-0.7,1.7-0.8,2.3-2.2,2.2c-1.3-0.1-1.9,1.1-1.7,2.5c0.2,1.5-1.4,3.9-2.3,5c-0.9,1.1-1.3,2.8-0.6,5.9c0,0.1,0,0.3,0,0.4  c0.8-0.6,3.5,0.3,5,2c1.5,1.8,3.5,2.5,6.5,3.8c3,1.3,1.3,8.4,2.5,9.5c1.2,1.1,2-1.5,3.6-1.5s0.9,2.5,2.6,3.6c1.7,1.1,3.4-1.9,4-1.3  c0.6,0.6,3.7,2.7,6.1,2.3c2.4-0.4,6.4,2.3,8,2.9c1.6,0.6,3.4,4.5,5.6,4.5c2.2,0,2.3-0.5,2.9,0.5c0.5,1.1,0,1.6,1.7,1.6  c0.6,0,1.2,0.3,1.7,0.8C496.3,281.3,497.2,276.5,497.2,275.4z" stroke-miterlimit="10" stroke="#FFFFFF"/>
<path fill="#D3D3D3" id="path4" d="M548.5,402.4c0.1,0,0.1,0,0.2,0.1  C548.7,402.3,548.6,402.3,548.5,402.4z" stroke-miterlimit="10" stroke="#FFFFFF"/>
<path name="仙桃市" fill="#D3D3D3" id="path5" d="M543.3,402.8c0.3-1.2-1.7-3.1-3-3.6c-1.3-0.5-1.3-1.9-0.9-3.2  c0.4-1.4-0.2-2.2-1.4-2.9c-1.2-0.7-1-2.4-2.2-3.8c-1.2-1.4-1.4-2-0.8-3c0.6-1-0.7-2.9-2.5-3.7c-1.8-0.8-4.5-2-7-2.9  c-2.5-0.9-1.1-2.2-0.9-4.7c0.2-2.5-1.3-4-1.3-4l0-0.1c-1.1,1-2.5,1.8-3.7,2.5c-2.7,1.3-0.8,3.3-2.9,4.1c-2.1,0.8-1.3,2.2-2.8,3.6  c-0.5,0.5-2.6,0.9-4.1,0.3c-0.3,0.1-1.3-0.3-3.7-1c-4.8-1.4-7.2-1.9-9.8-1.9s-7.9,0.1-9.3-0.9c-1.4-1-2.2-0.9-4.3-1  c-2.1-0.1-2.3-1.3-2.3-3.4c0-2.1-1-2.5-2.8-0.9c-1.8,1.6-1.5,0.4-2.1-1.6c-0.5-1.9-4.1-2.6-5.6-2.6c-1.4,0-2.8-0.3-4.5-1.8  c0,0-0.1-0.1-0.1-0.1c-0.4,1.4-1.4,4.8-1.6,5.9c-0.2,1.4-0.7,4.1,2.3,4.3c3,0.2,1,3,0.1,4.1c-0.9,1-1.4,3.4-0.3,4.9  c1,1.6,1.1,2.5,0.5,4.9s2.1,4,3.9,5.1c1.8,1.2,0.5,3.8,0.5,5.7c0,1.9,2.6,3.4,4.5,4.8c1.9,1.5,6.9,1.6,8,1.5c1.1-0.1,3-1.4,7.5-0.8  s6.4-0.4,8-2.6c1.7-2.2,3.3-1,5,0.4s4.3,1.5,5.6,2.1c1.3,0.6,2.5,3.9,3.9,5.7c1.3,1.8,4.1,2.7,6.1,2.4c2-0.4,6.9-0.8,10.1-1  c3.2-0.2,3.1-2.4,4.2-4.1s3.1,0.1,4.6,0.1s2-1.9,4.4-2.8c2.4-0.9,6-2.7,6-4c0-0.1,0-0.2,0-0.3c-0.1,0-0.2,0-0.2-0.1  c-0.4,0.2-1.2,1.3-2.3,1.4C544.5,403.9,543,404,543.3,402.8z" stroke-miterlimit="10" stroke="#FFFFFF"/>
<path name="天门市" fill="#D3D3D3" id="path6" d="M442.9,364.4c2.2-0.9,6.8-3.2,7.5-0.5c0.6,2.7,2.1,4.7,4.9,6.2  c2.8,1.6,3.2,0.9,3.2-1.6s-0.4-5.2,1.4-5.2c1.8,0,3.9,1.4,5.6,3s3.1,1.8,4.5,1.8c1.4,0,5,0.6,5.6,2.6c0.5,1.9,0.3,3.1,2.1,1.6  c1.8-1.6,2.8-1.2,2.8,0.9c0,2.1,0.3,3.2,2.3,3.4c2.1,0.1,2.8,0,4.3,1c1.4,1,6.7,0.9,9.3,0.9s5,0.5,9.8,1.9c4.8,1.4,3.7,1.3,3.7-0.4  c0-1.7-1.3-2.8,0-4.7c1.3-1.8-0.6-3.1-1.2-4c-0.5-0.9-1.9-4.7-1.9-6.3c0-1.7,0.8-3.9,2.2-5.4c1.4-1.6-1.1-4.7-1.5-6.5  c-0.4-1.8-1.1-5.2-1.2-7.5c-0.1-2.3-0.1-6.4-2.2-8.4c-2.1-2-4.3-5-5.8-7.1c0,0-0.1-0.1-0.2-0.1c-0.4,0-2,0-5.7-0.9  c-4.2-1-7.1,7.2-9.4,9.2c-2.2,2.1-3.4,2.5-6.5,0.9s-1,2.4-1,4c0,1.6-2.8,1.3-4.8,0.7c-1.9-0.6-3.9-0.6-5.4,1  c-1.5,1.6-5.8,4.2-8.5,3.6c-2.7-0.6-3.7-4.8-3.9-7.2c-0.1-2.4-0.4-3-1.6-4.6c-1.2-1.6-8,3.9-8.9,5.5c-0.9,1.6-6,5.1-8,5.8  c-2.1,0.7-1,5.5-0.1,7.5c0.9,1.9,6-1.3,8-1.3c2.1,0,1.2,2.7,0.2,2.9c-0.4,0.1-1.2,0.3-2.1,0.7C440.5,358.9,440.9,365.3,442.9,364.4z  " stroke-miterlimit="10" stroke="#FFFFFF"/>
<path name="荆门市" fill="#D3D3D3" id="path7" d="M386.8,356.3c0.4,2.4-1.7,5.8-0.1,6.4c1.5,0.6,1,1.2,1,2.5  s1.2,1.6,2,0.6c0.7-1.1,1.9-1.2,1.9,1.2c0,2.4,1.2,5.7,2.4,5.2c1.2-0.4-0.9-1.8,0.1-2.8c1.1-1.1,1.7-0.3,3.7,1.2  c2.1,1.5,9.6,3,9.6,4.8s0.1,6,2.5,5.4c2.4-0.6,0.7-2,4.5-1.8c3.7,0.2,6.6-1.6,8.8-1.2c2.2,0.4,4-1.5,5.8-1.6  c1.8-0.2,1.5-3.2,1.2-4.2c-0.3-1.1-1.5-3.1,1.1-2.5c2.5,0.6,1.9-0.7,1.6-2.4c-0.3-1.6,1.5-6.1,3.3-7.2c1.8-1.1,5.1-2.5,6.1-2.7  c1.1-0.1,1.9-2.9-0.2-2.9c-2.1,0-7.1,3.3-8,1.3c-0.9-1.9-1.9-6.7,0.1-7.5c2.1-0.7,7.1-4.2,8-5.8c0.9-1.6,7.7-7.2,8.9-5.5  c1.2,1.6,1.5,2.2,1.6,4.6c0.1,2.4,1.2,6.6,3.9,7.2c2.7,0.6,7-1.9,8.5-3.6c1.5-1.6,3.4-1.6,5.4-1c1.9,0.6,4.8,0.9,4.8-0.7  c0-1.6-2.1-5.7,1-4s4.3,1.2,6.5-0.9c2.2-2.1,5.2-10.3,9.4-9.2c4.2,1,5.8,0.9,5.8,0.9l0,0c-1.5-2.1-3.2-4.7-1.4-6  c1.8-1.4,4.9-5.7,6.9-6.8c1.9-1.1,5.8-3.3,5.5-5.6c-0.3-2.2-0.4-2.6,1-3.5c1.4-0.9,2.6-3.5,1.6-5.2c-1-1.7-1.5-3.8-1.4-5.3  c0.1-1.6-0.1-3.2-1.1-3.9c-1-0.7-2.5-0.1-2.7-1.9c-0.2-1.8-2-5.5-3.4-5c-1.4,0.5-4.4,0.9-4.9-0.4c-0.5-1.3-2-3.9-3.7-3.9  c-1.7,0-1.2-0.5-1.7-1.6c-0.5-1.1-0.7-0.5-2.9-0.5c-2.2,0-4.1-3.9-5.6-4.5c-1.6-0.6-5.5-3.4-8-2.9c-2.4,0.4-5.5-1.7-6.1-2.3  c-0.6-0.6-2.3,2.4-4,1.3c-1.7-1.1-1-3.6-2.6-3.6s-2.4,2.6-3.6,1.5c-1.2-1.1,0.5-8.2-2.5-9.5c-3-1.3-5-2.1-6.5-3.8  c-1.5-1.7-4.2-2.6-5-2c0.2,3-4.3,6-4.8,6.5c-0.5,0.5,0.6,3.4,1.2,4.6c0.6,1.3,0.4,1.7-0.7,2.3c-1.1,0.6-3.5-1.9-5.5-2  c-2.1-0.1-2.3-1.1-4.4-3.6c-2.1-2.6-8.2-2-9.3-1.2c-1.1,0.7-5,2.9-6.5,4.6c-1.5,1.7-6.3-1-7.6-2.2s-2.2-2.3-3.5-1.4  c-1.3,0.9-2.7-0.2-4.2-1.3c-1.5-1.1-2.5,1-3.9,1c-1.4,0-3,0.5-3.1,2.9c-0.1,2.5-2.7,0.9-3.1,1.6c-0.4,0.7-1.4,1.8-2.7,1.2  c-1.2-0.5-3.4,1.9-4.6,2.6c-1.2,0.7-3.6,2.1-4.8,0.3s-1.8-1.3-3.7-0.6c-1.9,0.8-2.9,2.2-3,3.8c-0.1,1.6-0.4,5.9-0.9,7.2  c-0.6,1.3,1.2,4,1.8,6.6c0.5,2.4-4,3.7-6.5,4.6c0,0.4,0.3,2.9,1.4,4.3c1.2,1.5,3.7,2.4,3.7,4.6c0,2.2-1.1,7.7,1.2,10.2  c2.2,2.5,6.5,7.8,6.6,10.4c0.1,2.6-0.1,6.4-0.6,7.9s1.5,0.6,2.6,5.3c1.1,4.7,2.8,7.3,1.5,9.1c-1.3,1.8-1.3,2.9,0.1,5  c1.4,2.1,0.6,4.4,0.6,4.4c0,0-0.1,0-0.1,0C385,353.6,386.5,354.5,386.8,356.3z" stroke-miterlimit="10" stroke="#FFFFFF"/>
<path name="宜昌市" fill="#D3D3D3" id="path8" d="M317.8,415.2c0.5-2.7-0.6-3.7,1.7-4.7c2.2-1,4-3.1,6.6-1.4  c2.7,1.7,3.9,2.7,8.9,1.1c5-1.6,5.6-2.4,5.4-4.9c-0.2-2.4,2.7-10.9,1.8-9.8c-0.9,1.1-2.3,0.8-2.3-0.3c0-1.1,5-4.9,5.1-6.4  c0.1-1.6,4.1-1.7,6.1-4.3c2-2.7,5-3.4,6.1-0.6c1.1,2.9,2.4,5.5,6.3,6.7c3.9,1.1,6.3,0.9,6.1-1.4c-0.2-2.3,0-5.1,2-3.7  c2,1.5,6.7,7.7,8.3,6.9c1.6-0.8,0.7-3-0.3-4.1c-0.9-1.1-3.8-3.8-3.8-8.1c0-4.2,0.4-4.8-2.4-4.9c-2.8-0.1-3.5-1.9-3.5-3.7  c0-1.8,1.7-3.7,3.3-5.5c1.7-1.8,4.2-6.9,4.4-9c0.1-2.1,1.6-3.7,4.2-3.7c0.6,0,1.2,0,1.7,0.1c0,0,0.8-2.3-0.6-4.4  c-1.4-2.1-1.4-3.2-0.1-5c1.3-1.8-0.4-4.4-1.5-9.1c-1.1-4.7-3.1-3.9-2.6-5.3s0.7-5.3,0.6-7.9c-0.1-2.6-4.4-7.9-6.6-10.4  c-2.2-2.5-1.2-7.9-1.2-10.2c0-2.2-2.6-3.1-3.7-4.6c-1.1-1.4-1.3-3.9-1.4-4.3c-0.2,0.1-0.4,0.2-0.6,0.2c-2.2,0.8-8-4.4-10.1-5.7  c-2.1-1.2-0.9-2.5-0.3-3.6c0.7-1,0.3-2.1-0.6-3c-0.8-0.9-4.4,0-7-0.4c-2.6-0.4-5.1,0.6-5.8,1.9c-0.7,1.3-4.2,3.1-8.7,4.4  c-4.6,1.3-5.2-2.9-6.3-5.9c-1.2-3-3.7-0.9-5.2,0.2c-1.5,1.1-3,0.9-4-0.4c-1-1.3-1.2-3.1-3.7-3.7c-2.6-0.6-1.8-3.1-1.8-5.6  c0-2.5-3.5-2.1-5.4-2.1c-1.9,0-1.9,0.6-2.5,1.5c-0.6,0.9-3.8,0.8-5.3,1.9c-1.5,1.1-3.9-0.2-5.3-1.3c-1.3-1.1-2-2.6-1.4-3.9  c0.6-1.2,1.2-2.1,0.4-3c-0.9-1-1-1.6-0.1-3.6c0.9-2-1.5-2.6-2.9-2.7c-1.2-0.1-4.5-1-5.6-1.3c0.3,1.5,0.5,3.1-1.2,3.5  c-2,0.5-6.3,6.1-7.5,4.1c-1.2-1.9-4-6.4-4.8-6.1c-0.8,0.4-2.4,2.5-3.1,2.3c-0.7-0.2-2-1-2.2,0.6c-0.3,1.6-2.2,5.6-3.2,6  c-1,0.4-4.9-2.8-6.1-1.6c-1.2,1.2-1.1,2.1-1.1,3.5c-0.1,1.4-0.7,4.5-1.9,6.1c-1.1,1.6-1.2,4.5-1.3,5.6c-0.1,1.1-0.7,2.4-2.6,1.6  c-1.9-0.8-3.4-4.5-4.4-3.1c-1,1.3-3.5,1.4-4.8,1.2c0,0.4-0.1,0.8-0.3,1.1c-0.8,1.2-2.1,4.8-0.5,5.9c1.6,1.1,4.6,2.2,4.8,4.7  c0.2,2.5-1.7,4,0,5.6c1.7,1.5,5.1,6.5,2.1,8.9c-3,2.4-6.2,0.8-5.1,4.5c1.1,3.7-1.8,1.8-1.4,5.4c0.4,3.6-1.8,5.1-1.6,7.9  c0.2,2.7,0.5,3.3-1.8,4.8c-2.3,1.4-6.1,5.9-6.9,7.7c-0.8,1.8-2.1,6.2,1.1,4.8c3.2-1.4,6.1-3.2,8-1.9c1.9,1.3,1.3,3.6,1.3,6.3  c0,2.7-0.5,9.3,0.8,11.1c1.3,1.8,2.6,4.1,1.6,6.7c-1.1,2.6-2.1,5.3-5.4,5.3s-4.7,0.5-5.4,3.7c-0.7,3.2-1.8,11.7-0.5,13.2  c1.3,1.4,1.8,3.6,0.4,6.3c-1.4,2.7-1,4.1-3.3,3.5c-2.4-0.6-6.9-2.2-6,0.2c1,2.4,2.4,2.5,2.5,5c0.1,2.5,1.2,4.4,2.1,5.3  c1,0.8,2.5,2.2,1.3,4.3c-1.2,2.2-2.8,7.6-2.1,11.3c0.6,3.7,1.6,5.2,4.5,5.1c2.9-0.2,6.4-0.7,7.5-2.3c1.1-1.5,3.8-4.3,5.9-4.6  c-0.6-0.7-0.2-1.5-0.2-2.6c0.1-1.6,2.7-1.8,5.5-1.5c2.8,0.3,3-1.3,6.9-1.6c3.8-0.3,2.9,0.3,4.3,2.1c1.4,1.8,3.2,1.4,5.3-0.2  c2.2-1.6,0.2-4.9-0.6-5.8c-0.8-0.9,4.3-2,6.4-2c2.2,0,2.9,1,4.3,1.6c1.3,0.6,3.6-0.1,5.1-0.1c1.5,0,0.7,5,1.5,5.9  c0.9,0.9,10.7,0.2,12.6,0.3c1.9,0.1,10.3,0.7,14.1,1.5c1.4,0.3,2.4,0.9,3.3,1.6C313.6,418.2,317.3,417.4,317.8,415.2z" stroke-miterlimit="10" stroke="#FFFFFF"/>
<path name="黄石市" fill="#D3D3D3" id="path9" d="M692.3,434.1c-1.3-0.9-5.2-4.3-5.6-6.3c-0.4-2-0.7-3.1-2.2-4.3  c-1.5-1.2-1.1-2.8-4.1-4.8c-2.9-2-2.5-5.3-2.7-7.7c-0.1-2.5-5.1-8.6-5.8-9.7c-0.8-1.1-4-3.8-5.3-4.5c-1.3-0.8-5.3,0.1-6.9,0  c-1.7-0.1-4.6-2.5-4.6-4.1c0-1.3-0.1-4.3-0.1-5.5c-0.3,0.8-0.9,1.1-1.9,1.1c-1.8,0-4.2,0.3-3.5,1.7c0.7,1.5,1.7,2.8,0.4,3.8  c-1.3,1-2-0.4-1.7,2.8c0.3,3.1-0.3,2.6-2.8,2.6c-2.6,0-4.2-1.5-5.8-2.9c-1.6-1.5-4.3-2.4-5.1-5.7c0,0-4.5-6.5-5.5-5.5  c-1,1-1.8,2.7-3.9,2.9c-2,0.2-2.8,0.8-1.9,2c0.8,1.2,0,1.8-2.4,1.7c-2.4-0.2-3.4,2.4-3.4,3.7c0,1.3,2.7,3.5,3.6,4.8  c0.9,1.3,1.8,1.5,1.1,3.5c-0.7,2,0.6,3.1,1.6,4c0.9,0.9,1.8,6.4,0.6,7.4c-1.3,0.9-2.7,0.3-3.1,1.4c-0.5,1.1-1.7,2.5-3.3,1.3  c-1.5-1.2-1.7-2.3-2.6-2.3s-3.3-0.5-4.3,1.3c-1,1.8-1,4.6-1,6.1c0,1.5,0.1,3-1.1,3.6c-0.9,0.5-2.2,1.1-2.7,1.4  c0.4,0.2,1,0.3,2.1,0.3c2.8,0,13.9,2.5,15.6,2.6c1.7,0.1,2.6,0.3,2.6,2.8s-0.8,10.6,2.3,10.3c3.2-0.3,4.3-0.7,6.7,0.8  c2.4,1.5,1.9,2.2,1.8,4c-0.1,1.7-1,3.6,0.8,4.1c1.8,0.5,4.2,0.8,4.2,2.6c0,1.7,1.1,11,3.3,11.8c-0.1-0.7,0.7-1,3-1.8  c3.4-1.2,2.6,0.7,5.3,0.9c2.7,0.2,1.7-1.1,3.5-1c1.8,0.1,0.7,1.9,0.7,3.3c0,1.3,3.9,1.8,5.4,1.5c1.5-0.3,0.6-3.9,0.6-7.2  c0-3.3-3.3-7.3-4.5-8.8c-1.2-1.5,1.3-1.6,3.8,0.7c2.5,2.2,4.9,0.3,8.4,0.2s1.5,1.1,1.8,2.2c0.3,1.1,1.8,1.3,2.7,0.2  c0.9-1.1,5.3-2.7,8.9-4.4c3.6-1.7,7.4-7.9,7.3-10.8c-0.1-2.3,0.7-4.8,2.1-5.8C694.2,435.6,693.2,434.7,692.3,434.1z" stroke-miterlimit="10" stroke="#FFFFFF"/>
<path name="鄂州市" fill="#D3D3D3" id="path10" d="M610,422.6c0-1.5,0-4.2,1-6.1c1-1.8,3.4-1.3,4.3-1.3  s1.1,1.1,2.6,2.3c1.5,1.2,2.8-0.2,3.3-1.3c0.5-1.1,1.8-0.5,3.1-1.4c1.3-0.9,0.4-6.4-0.6-7.4c-0.9-0.9-2.3-2-1.6-4  c0.7-2-0.2-2.2-1.1-3.5c-0.9-1.3-3.6-3.5-3.6-4.8c0-1.3,1-3.9,3.4-3.7c2.4,0.2,3.2-0.5,2.4-1.7c-0.8-1.2-0.1-1.8,1.9-2  c2-0.2,2.8-1.8,3.9-2.9c1-1,5.5,5.5,5.5,5.5c0.7,3.3,3.5,4.2,5.1,5.7c1.6,1.5,3.2,2.9,5.8,2.9c2.6,0,3.1,0.6,2.8-2.6  c-0.3-3.1,0.5-1.7,1.7-2.8c1.3-1,0.4-2.3-0.4-3.8c-0.7-1.5,1.7-1.7,3.5-1.7c1.8,0,2.1-1.1,2.5-3.5s-1.5-5.8-2.8-7  c-1.3-1.2-6.9-0.6-9.5-1c-2.6-0.4-7.3-2.1-8.8-3.4c-1.4-1.3-2.1-6.3-1.9-8.6c0.2-2.3,1.1-6.8,0.6-8.2c-0.6-1.4-4.1-2.2-5.6-0.9  c-1.5,1.3-6.4,4.5-7.4,4.5c-1,0-3.6,0.2-3.3,1.6c0.3,1.4-0.2,2.4-0.2,4.2c0,1.8-4.7,3-6.3,3.5c-1.5,0.5-1.2,1.5-0.5,3.3  c0.7,1.8,1.2,5.3,1.9,7.5c0.7,2.2,1,4.7,1,6.3c0,1.5-3.3,7.5-4.8,8.9c-1.5,1.4-1.3,2.7-2.5,5.2c-1.2,2.4,0.1,4.7,0.1,6.6  c0,1.9-1.1,3.6,0.4,4.6c1.5,1,1.4,4.2,2.1,5.1c0.7,0.9,1.9,1.9,0.1,1.9c-1.5,0-2.5,3.6-2.8,4.6c1,0.7,1.6,1.6,1.1,2.4  c-0.6,1-0.8,1.7-0.2,2c0.6-0.3,1.8-1,2.7-1.4C610.1,425.6,610,424.1,610,422.6z" stroke-miterlimit="10" stroke="#FFFFFF"/>
<path name="咸宁市" fill="#D3D3D3" id="path11" d="M642.5,455.1c0-1.7-2.3-2-4.2-2.6c-1.8-0.5-0.9-2.4-0.8-4.1  c0.1-1.7,0.6-2.5-1.8-4c-2.4-1.5-3.6-1.1-6.7-0.8c-3.2,0.3-2.3-7.9-2.3-10.3s-0.9-2.7-2.6-2.8c-1.7-0.1-12.8-2.6-15.6-2.6  c-2.8,0-2.8-0.6-1.9-2.3c0.9-1.7-2.8-3.8-4.9-3.8c-2.1,0-5.9-2.5-8-3.8c-2.1-1.3-3.9-0.8-5.5,0.4c-1.7,1.2-5.4,3.4-8,3.1  c-2.7-0.3-3.3-5.9-2.5-7c0.8-1,0-2.2-1.3-2.6c-1.3-0.4-4.1-5.7-4.9-7.3s-2.4-3.4-3.8-4.7s-4.3,0.8-5.1,1.2c-0.8,0.4-0.1-3,0.3-3.7  c0.4-0.7-1.4-1.6-2.6-3.6c-1.2-2.1-2.8-2.7-5.3-2.5c-2.5,0.2-4.3,1.9-4.7,3.2s-2.9,3.6-2.8,5.7c0.1,2.1,1,2.4,2.7,2.4  c1.7-0.1,3-0.9,3.6-1.4c0.6-0.6,3.2-0.9,4.1,0c0.9,0.9,2.2,1.3,2.9,2.4c0.7,1.2,5.3,3.7,7.2,5.6c2,1.9-2.3,3.5-4.6,4.3  c-2.3,0.8-5.6,2.8-7.9,4.6c-2.4,1.8-6.5,5.9-9.4,8.9c-2.8,3-9.3,2.8-11.2,2.7c-1.9-0.1-5.8,1.1-6.9,2.8c-0.9,1.5-7.7,6.5-9.4,7.8  c0.2,0,0.4,0.1,0.6,0.1c1.1,0.6-0.2,4.4-0.2,5.6s1.3,3.1,1.6,4.5s-0.7,2.8-0.7,4.3c0,1.5,2.4,1.1,4.3,1.7c2,0.6,3.9-0.4,4.8-0.6  c0.9-0.2,5,6.2,6.5,7.7c1.4,1.5-0.9,3.2-2,4.2c-1,1-2.2,2.8-4.3,3.2c-2.1,0.3-0.7,2.6,0.9,2.8c1.6,0.2,5.4,3.5,7,4.8  c1.6,1.3,0.8,2.9-0.1,4.6c-0.9,1.7-3.9,3.2-5.7,3.9c-1.7,0.8-1.2,2-1.6,3.6c-0.4,1.7-2.3,3.3-3.4,4.8c-1.1,1.5-0.7,4.2,1.7,5.8  c2.4,1.7,4.6,1.7,5.7,2.2c1.1,0.5-2.1,5.4-2.8,6.3c-0.6,0.9-1,1.7,0.1,2.7c1.1,1,1.1,2.7,1.6,3.9c0.5,1.2,1.3,0.6,1.8-0.2  c0.5-0.9,1.7,0,1.7,0.9c0.1,0.9,0.1,3.1,1.3,3.4c1.2,0.3,1.6-1.5,1.9-2.8c0.3-1.3,1.4-2.1,3.5-2.4c2-0.2,3.2,2.7,5.5,3.9  c2.3,1.2,1.7,1.7,1.6,2.8c-0.1,1.2,2,1.2,4.3,0.5c2.4-0.7,2.5-4.8,2.8-6.2c0.3-1.4,1.8-3,5.3-5c3.5-2,3-3.8,3.5-5  c0.6-1.3,2-1.7,4.3-1.7c2.4,0,6.9-0.7,11-2.4c4.1-1.7,2.1-6.4,2.1-9.2s1.7-4,4.2-4.5c2.6-0.5,4,1.3,5.9,3c1.9,1.7,2.7,0.2,4-0.9  c1.3-1.1,2.2-0.9,3.9,0.2c1.7,1,4.9-0.1,7.3-0.6c2.4-0.6,5.5-2.8,6.5-3.9s5.6-2.5,9.3-2.8c3.7-0.3,1.7,1.7,3.4,2.3  c1.7,0.6,5.4-0.8,6.9-1.6c1.5-0.8,1.7-0.8,3.5-0.7c1.7,0.1,3.5-2.2,4.9-3.5c1.3-1.3,1.5-3.1,0.7-3.4c-0.8-0.2-1.2-0.8-2.1,1.3  c-0.9,2.1-1.8,0.1-2.7-2.1c-0.9-2.2-0.2-2.6,1.3-4.2c1.6-1.6,2-0.7,5.4,0.3c3.4,1,2-0.8,0.9-3c-0.4-0.7-0.6-1.2-0.6-1.6  C643.6,466,642.5,456.8,642.5,455.1z" stroke-miterlimit="10" stroke="#FFFFFF"/>
<path name="襄樊市" fill="#D3D3D3" id="path12" d="M292.5,260.1c-0.9,2-0.7,2.6,0.1,3.6c0.9,1,0.2,1.8-0.4,3  c-0.6,1.2,0.1,2.8,1.4,3.9c1.3,1.1,3.7,2.4,5.3,1.3c1.5-1.1,4.8-1,5.3-1.9c0.6-0.9,0.6-1.5,2.5-1.5c1.9,0,5.4-0.4,5.4,2.1  c0,2.5-0.8,5,1.8,5.6c2.6,0.6,2.7,2.3,3.7,3.7c1,1.3,2.5,1.5,4,0.4c1.5-1.1,4-3.1,5.2-0.2c1.2,3,1.8,7.2,6.3,5.9  c4.6-1.3,8-3.1,8.7-4.4c0.7-1.3,3.2-2.3,5.8-1.9c2.6,0.4,6.2-0.5,7,0.4c0.9,0.9,1.2,2,0.6,3c-0.7,1-1.8,2.4,0.3,3.6  c2.1,1.2,7.9,6.5,10.1,5.7c2.2-0.9,7.7-2.2,7.1-4.8c-0.6-2.6-2.4-5.3-1.8-6.6c0.6-1.3,0.8-5.6,0.9-7.2c0.1-1.6,1.1-3,3-3.8  c1.9-0.8,2.5-1.2,3.7,0.6s3.6,0.4,4.8-0.3c1.2-0.7,3.4-3.1,4.6-2.6c1.2,0.5,2.3-0.6,2.7-1.2c0.4-0.7,3.1,0.9,3.1-1.6  c0.1-2.5,1.7-2.9,3.1-2.9c1.4,0,2.4-2.2,3.9-1c1.5,1.1,2.9,2.2,4.2,1.3c1.3-0.9,2.2,0.2,3.5,1.4s6.1,3.8,7.6,2.2  c1.5-1.7,5.3-3.9,6.5-4.6c1.1-0.7,7.2-1.3,9.3,1.2c2.1,2.6,2.3,3.6,4.4,3.6c2.1,0.1,4.4,2.6,5.5,2c1.1-0.6,1.4-1,0.7-2.3  c-0.6-1.3-1.7-4.1-1.2-4.6c0.5-0.5,5.4-3.7,4.8-6.8c-0.6-3.1-0.3-4.8,0.6-5.9c0.9-1.1,2.5-3.6,2.3-5c-0.2-1.5,0.4-2.7,1.7-2.5  c1.3,0.1,1.5-0.5,2.2-2.2c0.7-1.7,2.6-5.4,4.2-5.2c1.6,0.2,4-2.7,5.3-2.7c1.3,0,3.1-1.3,2.7-2.8c-0.4-1.5-2.3-2.6-0.9-3  c1.3-0.4,2.9-2.1,2.9-3.6s0.1-2.5,1.2-2.8c1.1-0.4,1.7-2.3,0.3-2.3c-1.4,0-3.3-0.1-3.3-1.4c0-1.3,0.8-6.2,2-6.7  c1.2-0.5,1.1-4.6,2.6-5.2c1.5-0.6,3.5-2.9,2.4-3.6c-1.1-0.7-3.2-0.8-2-3.9c1.2-3.1,2.7-7,1.7-7.7c-1-0.8-1.9-2-0.7-2.5  c1.2-0.5,2.3-1.2,2.9-3.1c0.7-1.9,0-3.2-1.4-3.6c-1.4-0.4-1.6-0.8-0.3-1.6c1.1-0.7,4.5-2.2,5.5-2.6c-2.3-0.5-7.5-3.1-9.8-4  c-2.5-1-1.5,0.6-1.5,3.3c0,2.7-1.5,2.2-3.3,0.3c-1.8-1.8-2.7-0.8-4,0.1c-1.2,0.9-2.3,1.4-3.5-0.6c-1.2-1.9-5.9,2.4-8.8,4.5  c-2.9,2.2-4-0.9-7-1c-3.1-0.1-8.5-1.9-10.3-2.5c-1.8-0.6-4,2.4-6.6,2.3c-2.6-0.1-3.4,1.3-7.6,0.7c-4.2-0.6-4.9,2.3-6.5,3.2  c-1.6,0.9-7.9-3.7-9.7-5.5c-1.8-1.7-2.4-1.9-5.4-2c-3.1-0.1-8.4-5.3-9.2-7.2c-0.8-1.8-1.4-0.8-3.6,1.1c-2.3,1.9-2.7-0.9-4.5-3.2  c-1.8-2.3-5.8-2.2-8-3.4c-2.3-1.2-5.1-1.9-7.3-2s-5.8-7.3-7.4-9.7c-1.6-2.4-3.2-1.4-4.6-1.4c-1.5,0-2.2-0.1-4-1.3  c-1.8-1.1-2.7,1.9-4.3,3.3c-0.2,0.2-0.5,0.2-0.8,0.2c-0.6,1-2.8,4.7-3.5,6.2c-0.8,1.7-2.1,3.1-3.9,3.9c-1.7,0.8-0.7,1.3-0.9,3.2  c-0.3,1.9-2.7,2.4-4.1,4c-1.5,1.6-3.9,0.3-4.9-0.9c-1.1-1.2-2.3-0.4-3.7,2c-1.5,2.4-4.4,6.8-7.1,8.6c-2.7,1.7-1.6,2.3-3.2,3.9  c-1.6,1.6,0.5,5.2,1.9,5.9c1.3,0.7-0.1,5.1-0.7,6.3c-0.5,1.2-1.9,5.6-4.9,5.6c-3.1,0-4.1,1.2-8,4.7c-3.9,3.5,0.2,5.6,2.3,5.6  s1,0.9,0.4,1.5c-0.6,0.6-1.3,1.5-1.3,3.1s-0.1,3.3-1,3.4c-0.9,0.1-2.2-3.1-3-5s-4.4-0.8-5.9-0.3c-1.5,0.5,0.9,3.8,1.1,5.2  c0.2,1.4-1.4,3.6-2,5c-0.6,1.4,2.7,5.1,3.1,6.3c0.4,1.2-0.4,2.8-1.3,3.1c-0.9,0.3-1.3-0.6-1.5-2.1c-0.1-1.5-3.8-2.9-4.8-3.6  c-1-0.7-9.4-0.3-11.9-0.1c-2.3,0.1-3.5,3.5-3.7,4.1c0.7,0.6,1.4,1.2,2.2,2c4.4,4.6,8.5,8,8.5,11.4c0,3.3-0.4,4.6,2.9,4.6  c3.3-0.1,5.8,0.1,4.5,2.4c-1.3,2.3-2.3,4.4-1.9,6.1c0.1,0.2,0.1,0.4,0.2,0.6c1.1,0.3,4.5,1.2,5.6,1.3  C291.1,257.5,293.4,258.1,292.5,260.1z" stroke-miterlimit="10" stroke="#FFFFFF"/>
<path name="十堰市" fill="#D3D3D3" id="path13" d="M271.5,224.8c2.6-0.1,11-0.6,11.9,0.1c1,0.7,4.7,2.1,4.8,3.6  c0.1,1.5,0.6,2.4,1.5,2.1c0.9-0.3,1.7-1.9,1.3-3.1c-0.4-1.2-3.8-4.9-3.1-6.3c0.6-1.4,2.2-3.6,2-5c-0.2-1.4-2.6-4.7-1.1-5.2  c1.5-0.5,5-1.5,5.9,0.3s2.1,5.1,3,5c0.9-0.1,1-1.8,1-3.4s0.7-2.4,1.3-3.1c0.6-0.6,1.7-1.5-0.4-1.5s-6.2-2.1-2.3-5.6  c3.9-3.5,4.9-4.7,8-4.7c3.1,0,4.4-4.4,4.9-5.6c0.5-1.2,2-5.6,0.7-6.3c-1.3-0.7-3.5-4.3-1.9-5.9c1.6-1.6,0.5-2.1,3.2-3.9  c2.7-1.7,5.6-6.1,7.1-8.6c1.5-2.4,2.7-3.2,3.7-2c1.1,1.2,3.5,2.5,4.9,0.9c1.5-1.6,3.9-2.1,4.1-4c0.3-1.9-0.8-2.4,0.9-3.2  c1.7-0.8,3.1-2.1,3.9-3.9c0.7-1.5,2.9-5.2,3.5-6.2c-1.6-0.3-3.9-4.5-5.4-6.8c-1.8-2.7-3.6-4-6.6-5.6c-2.9-1.6-1-1.9,1.5-3.3  c2.5-1.4-0.9-2.6-2.8-1.9c-1.9,0.7-2-0.8-2.5-3.4c-0.5-2.6-1.7-2.8-3.3-3.5c-1.6-0.7-5.9-3.4-6.2-5.7c-0.3-2.3-1.4-0.9-2.9,0.1  c-1.6,1-0.9-1.9,0.3-6.5c1.2-4.5-1.4-7.6-2.8-10s-3.8-1.2-6-1c-2.1,0.2-2.1-1.2,1.3-2.8c3.4-1.6-4-7.4-6.1-10  c-2.1-2.6-3-2.9-4.8-0.4c-1.8,2.4-1.9,0.1-2.1-1.9c-0.3-2-0.4-3.1-1.4-5.8c-1-2.7-3.8,0.2-4.4,2.3c-0.6,2.1-4.8,1.7-8.3,1.4  c-3.5-0.3-3.2,2.2-3.2,4.3s-5.1,2.5-6.4,2.5c-1.3,0.1-1.2,3.2-2.5,4c-1.3,0.9-3.3-2.5-4.2-4.9c-0.9-2.4-2.4-0.9-3.8-0.3  c-1.4,0.5-2.4-2.6-2.4-4.6c0-2-0.6-2.4-0.9-4.8c-0.3-2.5-2.7-2.6-3.2-1.4c-0.5,1.2-0.4,1.2-1.8,2c-1.4,0.8-2,2.4-3.3,4.5  c-1.3,2.1-2.5,1.9-7,1.4c-4.5-0.5-11.7,0.5-15.4,0.5c-3.7-0.1-3.9-2.3-4.5-4.5c-0.7-2.2-4.7,0.1-7.7,0.3s-6.7-0.4-8.8-0.4  s-5.3-2.1-7.8-3.6c-2.5-1.5-6.7,0-10.6,0.8c-4,0.8-7.9-1-10.1-2.7s-3,0.1-4.3,1.2c-1.2,1.1-4.6,1-7.1,0.7c-2.6-0.4-3.4,0.2-3.4,1.2  s-1.1,3.5-1.8,4.3c-0.7,0.8-1.1,2.1-0.5,3.4c0.7,1.3,4.8,2.5,7.7,3.7c2.9,1.2,3.6,0.9,5.4,0.9c1.8,0,3,0.3,5.3,0.3s7.3,4,9.5,5  c2.3,1.1,0.6,5.4-0.4,7.4c-1.1,2-0.2,4.8-0.8,8.2c-0.5,3.3,3,2.2,4.5,1.6s4.8-1.3,5.7-0.3c0.9,1,4.1,1.3,9,2.6  c4.9,1.3,8.2,5.2,11,6.7c2.8,1.5,3.2,2.8,3.4,5c0.2,2.2,0.1,4.9-1,7.7c-1.1,2.8,1.1,3.9,2.7,5.3c1.6,1.4,0.7,3-0.4,4.2  c-1.1,1.2-4.9-0.6-6.5-1.5c-1.6-0.9-2,0.2-1.9,1.9c0.1,1.7-3.2,4.8-5.7,5.5c-2.5,0.7-5-2.6-7.5-5.5c-2.5-2.9-7.3,1.5-8.5,3  c-1.2,1.5-3.6,0.7-4.4,0c-0.8-0.7-2-1.5-4-0.1c-2,1.4-6.3-0.5-8.7-1.5c-2.4-1-2.6,1.4-2.3,3.1c0.3,1.7-0.5,2.3-1.9,2.4  s-2.6,0.7-3.8,2.1c-1.2,1.4,0.9,6.2,1.3,9c0.4,2.7-7.2,6.5-7.7,7.7c-0.5,1.2,0.5,5,1.7,6.3s1.9,2.6,2.9,4.4c1,1.8,1.1,2.3,3.6,3.7  c2.5,1.4,1.9,3.6,1.9,6.1c0,2.5,0.1,3.1,1.4,4.7c1.3,1.6-2.1,4.4-3.6,6.6s2.4,5.9,3.6,7.5c1.2,1.6-0.1,4.3-2.5,5.9  c-2.3,1.6,1.7,6.4,2.6,8.2c0.9,1.7-0.7,3.5-2.7,3.8c-2,0.4-1.2,1.5-1.2,3.5c0,2-0.7,2.4-2,3.7c-1.2,1.4,6.9,2,10.4,2  c3.5,0,4,3.6,5.4,8.7c1.5,5.1-2.7,5.9-2.7,8.2c0,2.2,4.1,1,7.9,0.1c3.8-0.9,4.8,2,6.9,4.3c2.1,2.4,5.4,0.4,7.2-0.6  c0.6-0.3,1-0.2,1.3,0.2c1.3-0.4,7.1-2.3,8.7-4.5c1.8-2.5,4.4-5.1,7.3-2.9c2.9,2.2,4.7,2.4,4.8,0.6c0.1-1.8-2.8-2.6-2.2-3.3  c0.5-0.7,3.8-0.9,4.1-2.6c0.2-1.7,2.6-9.8,6-11.2c3.5-1.4,5.8-4.7,6.4-6.7c0.6-2,2.3-1.8,4.5-1.7c2.2,0.1,5-2.6,14.6-2.3  c8,0.2,11.2,0.4,14.6,3.1C268,228.3,269.2,225,271.5,224.8z" stroke-miterlimit="10" stroke="#FFFFFF"/>
<path name="神龙架林区" fill="#D3D3D3" id="path14" d="M244.6,278.6c1-1.4,2.5,2.3,4.4,3.1c1.9,0.8,2.6-0.5,2.6-1.6  c0.1-1.1,0.1-4.1,1.3-5.6c1.1-1.6,1.8-4.7,1.9-6.1c0.1-1.4,0-2.3,1.1-3.5c1.2-1.2,5.2,2,6.1,1.6c1-0.4,2.9-4.4,3.2-6  c0.3-1.6,1.5-0.8,2.2-0.6c0.7,0.2,2.3-2,3.1-2.3c0.8-0.4,3.6,4.1,4.8,6.1c1.2,1.9,5.5-3.6,7.5-4.1c2-0.5,1.5-2.5,1.1-4.1  c-0.4-1.7,0.6-3.7,1.9-6.1c1.3-2.3-1.2-2.5-4.5-2.4c-3.3,0.1-2.9-1.2-2.9-4.6c0-3.3-4.1-6.8-8.5-11.4s-7.1-4.8-16.7-5.1  c-9.6-0.3-12.4,2.4-14.6,2.3c-2.2-0.1-3.9-0.3-4.5,1.7c-0.6,2-3,5.3-6.4,6.7c-3.5,1.4-5.8,9.5-6,11.2c-0.2,1.7-3.5,1.9-4.1,2.6  c-0.5,0.7,2.3,1.5,2.2,3.3c-0.1,1.8-1.8,1.6-4.8-0.6c-2.9-2.2-5.5,0.4-7.3,2.9c-1.6,2.2-7.5,4.1-8.7,4.5c0.5,0.7,0.1,2.4-2,3.4  c-3.2,1.5,0.5,2,2.3,2c1.9,0,1.6,1.2,4.1,4.2c2.5,3,5.1,2.5,8,3.2c2.3,0.6,3.3,7.3,3.4,11.3c1.2-0.2,5-1,6.5-3.3  c1.7-2.7,5.6-6,7.7-6.8c2.1-0.9,7.3,0.2,9,1.7c1.3,1.1,1.9,2.4,1.8,3.5C241.1,280,243.6,279.8,244.6,278.6z" stroke-miterlimit="10" stroke="#FFFFFF"/>
<path name="恩施土家族苗族自治州" fill="#D3D3D3" id="path15" d="M237.6,424c-1.1,1.5-4.7,2.1-7.5,2.3c-2.9,0.2-3.9-1.4-4.5-5.1  c-0.6-3.7,0.9-9.2,2.1-11.3c1.2-2.2-0.4-3.5-1.3-4.3c-1-0.8-2-2.7-2.1-5.3c-0.1-2.5-1.6-2.6-2.5-5c-1-2.4,3.6-0.8,6-0.2  c2.4,0.6,1.9-0.7,3.3-3.5c1.4-2.7,1-4.9-0.4-6.3c-1.3-1.4-0.2-9.9,0.5-13.2c0.7-3.2,2.1-3.7,5.4-3.7s4.3-2.6,5.4-5.3  c1.1-2.6-0.2-4.9-1.6-6.7c-1.3-1.8-0.8-8.4-0.8-11.1c0-2.7,0.6-5-1.3-6.3c-1.9-1.3-4.8,0.5-8,1.9c-3.2,1.4-1.9-3-1.1-4.8  c0.8-1.8,4.7-6.2,6.9-7.7c2.3-1.4,2-2,1.8-4.8c-0.2-2.7,1.9-4.3,1.6-7.9c-0.4-3.6,2.5-1.7,1.4-5.4c-1.1-3.7,2.1-2.1,5.1-4.5  c3-2.4-0.4-7.4-2.1-8.9c-1.7-1.5,0.2-3.1,0-5.6c-0.2-2.5-3.2-3.7-4.8-4.7c-1.6-1.1-0.3-4.7,0.5-5.9c0.8-1.2,0.3-3-1.4-4.5  c-1.7-1.5-6.9-2.6-9-1.7c-2.1,0.9-6,4.1-7.7,6.8c-1.5,2.3-5.3,3.1-6.5,3.3c0,1.3,0,2.3-0.1,2.8c-0.5,2-0.4,3,1,7.4  c1.4,4.5-0.5,7.1-2.1,8.2c-1.6,1.1-2.2,2.1-2.6,5.2c-0.4,3.1,0.9,7.1,2.3,8.4c1.5,1.4-0.2,5-1.4,8.3c-1.1,3.3-3.8,8.9-6.4,9.8  c-2.6,0.9-4.9-3-5.4-5.5c-0.5-2.5-1.5-1-2.5-0.5c-1,0.5-2,0.4-3.6-0.9c-1.6-1.2-3.8-1.2-6.6-0.2c-2.7,1-10.6,6.1-14,8.3  c-3.3,2.2-4.1,4.1-4.6,5.6c-0.5,1.5-1,3.8-3.1,3.7c-2.1-0.1-2.7,1.5-3.6,3.6c-0.9,2.1-1.9,2.1-3.2,0.9c-1.4-1.2-3.3,0.6-5.6,2.8  c-2.2,2.2-5.6,5.1-6.8,7.4s-3.1,5-5.7,6.9c-2.6,2-0.6-3.1-0.6-5c0-1.9,0.9-3-0.4-3.6c-1.2-0.6-1.4-3.3-3.1-4.7  c-1.7-1.4-7.7,4.8-11.5,7.8c-3.8,3-5.9-0.4-7.4-1.5c-1.5-1.1-0.4-5.8,0.2-7.1c0.6-1.3-2.9-2.8-7.3-2.1c-4.4,0.6-11.7,8.1-14,11.6  c-2.2,3.5-6,2.4-9.9,2.6c-3.9,0.2-3.8-4.1-4.6-6.9c-0.7-2.9-1.4-2.4-2.8-2.4c-1.4,0-1.5,0.2-1.5,2.6c0,2.4-3,5.3-4.9,7.2  c-1.9,1.8-3.7,2.3-6.6,0.3c-2.9-2-4.2-2-7.9-0.9s-1.6,6.8-2.6,9.5c-1,2.7,1.8,4.3,4,5.2c2.2,1,3.5,3.5,4.6,5.4  c1.1,1.9,1.6,3.5,3.5,3.7s1.3,3.2,0.5,5.3c-0.8,2.1-0.8,3.8-0.8,7.7c0,3.8-2.2,6.4-4.1,7.7c-1.9,1.3,0.2,1.1,1.6,2.1  c1.4,1-0.2,9.5-1,10.4c-0.8,0.9-0.4,6.1,1,7.5c1.4,1.4-0.9,2.5-2.5,1.6c-1.6-0.9-3,0.1-4.7-1.1s-1.9-1.2-2.1,0  c-0.1,1.2-1.9,1.4-4.3,2c-2.4,0.5-2.6,1.3-1.1,2.9c1.5,1.6,1.6-0.1,3-0.6c1.4-0.5,2.3,5.3,2.3,7.4c0,2.1,2.1,3.7,4,4.7  c1.9,1,3,0,3.9-2.4c0.9-2.4,3.9-7.8,4.9-10.8c1-3,3.2-1.3,5.8,0.1c2.6,1.4,3.6,9.4,3.7,12.8c0.1,3.4,1.3,3.9,2.4,4  c1.1,0.1,0.7,0.3,1.7,1.6c1,1.3,2.6,0.9,4,0.1c1.4-0.8,2,0.3,2,1.7c0.1,1.3,3.7,1.7,5,1.5c1.3-0.2,2.1,0.2,2.5,1.2  c0.4,1.1,0,0.9,1.4,2.3c1.4,1.4-0.8,8.5-1.9,11.7s1.1,5.6,3.4,6.9c2.3,1.2,2.1,4.5,1,6.3c-1.1,1.8-1.9,4.5,1.1,4.9  c3,0.4,7-4.1,11-5.8s3.6,4,3.6,6s0.4,3.3,2.1,5.1c1.6,1.8-0.5,3.8-1.6,6.3c-1.1,2.5,1.6,4.3,3.6,4.3c1.9,0,4.8,2.5,5.6,4.5  c0.8,2.1,2.6,2.1,4,1.4c1.4-0.7,1.2-8.4,1.2-9.6c0-1.2,4-4.4,5.8-5.2c1.8-0.8,1.9-7.4,2.1-9.6c0.1-2.2,2.9-1.6,2.5-3.3  c-0.4-1.6-0.5-3.3,1.1-3.8c1.6-0.5,1.6-1.9,1.5-3.8c-0.1-1.9,2.5-2.5,2.9-4c0.4-1.5,2.7-0.8,2.7-2.5s3.3-6.7,3.3-6.7s0.8-1.2,1.9-2  c1.1-0.8,1.3-0.1,3.7,0.3c2.4,0.4,3.6-1.2,4.8-2.1c1.3-0.9,2.7,0.8,3.6,2.2c0.8,1.4,1.2,1.3,2.9,1.3c1.7,0,1.7-4.1,1.7-5.7  s2-2.5,4.2-3.7c2.2-1.2,2-3.6,2-4.9s2.6-2.4,4.2-2.4c1.6,0,10.5-0.5,12.7-0.3c2.2,0.3,3.5,0,4.4-0.3c0.9-0.3,3.2-1.6,11.1,0.2  c7.9,1.7,13.1,7.6,14.2,9.7c1.1,2.1,1.5,1.6,3.2,1.6c1.7,0,2.2-0.2,3,1.7c0.8,2,1.4,0.9,4.3-0.2c2.9-1.1,3.9-2.4,4.6-4  c0.7-1.7,1.5-0.4,3.8,0.2c2.3,0.6,5.9-2,9.7-4.8c3.9-2.8,3.9-3.2,2-6.5c-1.9-3.3-5.3-4-7.2-5.9c-1.9-1.8-3.6-7.2-3.7-9.7  c-0.1-2.5,2.9-2.9,4.8-3.5c1.8-0.6-0.7-1.6-3.3-2.4c-0.8-0.3-1.2-0.5-1.5-0.8C241.4,419.7,238.6,422.5,237.6,424z" stroke-miterlimit="10" stroke="#FFFFFF"/>
<path name="潜江市" fill="#D3D3D3" id="path16" d="M424.4,381.7c1.3,2,1.5,3.6,1.3,5.6c-0.2,2,0.3,3.7,1.4,5.5  c1.1,1.9,6.3,9.9,5.8,13c-0.5,3.1,0.4,2.6,1,2.5c0.6-0.1,1.3,0.8,0.6,2c-0.6,1.2-3.1,3.2-0.1,3.5c3,0.3,6,1.5,7.1,2.5  c1.1,1,1.8,0.4,3,0c1.2-0.4,4.5,0.4,4.5-1.7s-2.3-2.6-0.7-2.8c1.6-0.2,3.5-1,2.8-2.5c-0.7-1.5,0.7-3.7,1.7-3.5  c1,0.2,2.3,0.3,3.4-1.2c1.1-1.4,1.5-1.1,2.7-0.1c1.2,1,3.6,0.6,4.7,1.7c1.1,1.1,4.6,3.9,6.5,1.6c1.7-2.1,1.3-4,1.7-4.8  c-0.6-0.6-0.9-1.3-0.9-2c0-1.9,1.3-4.5-0.5-5.7c-1.8-1.2-4.5-2.7-3.9-5.1s0.5-3.4-0.5-4.9c-1-1.6-0.6-3.9,0.3-4.9  c0.9-1,2.9-3.9-0.1-4.1c-3-0.2-2.5-2.9-2.3-4.3c0.2-1.1,1.2-4.5,1.6-5.9c-1.7-1.5-3.7-2.9-5.4-2.9c-1.8,0-1.4,2.7-1.4,5.2  s-0.4,3.1-3.2,1.6c-2.8-1.6-4.3-3.5-4.9-6.2c-0.6-2.7-5.3-0.4-7.5,0.5c-2,0.8-2.4-5.6-2.4-6.5c-1.3,0.6-2.9,1.3-4,2  c-1.8,1-3.6,5.5-3.3,7.2c0.3,1.7,0.9,3-1.6,2.4c-2.5-0.6-1.4,1.5-1.1,2.5c0.3,1,0.6,4-1.2,4.2c-1.7,0.1-3.5,1.9-5.6,1.7  C423.5,378.5,423.4,380.2,424.4,381.7z" stroke-miterlimit="10" stroke="#FFFFFF"/>
<path name="荆州市" fill="#D3D3D3" id="path17" d="M567.8,409.2c-2-1.9-6.5-4.4-7.2-5.6c-0.7-1.2-1.9-1.5-2.9-2.4  c-0.9-0.9-3.5-0.6-4.1,0c-0.6,0.6-2,1.3-3.6,1.4c-0.5,0-0.9,0-1.2-0.1c0,0.1,0,0.1,0,0.3c0,1.3-3.6,3-6,4c-2.4,0.9-2.9,2.8-4.4,2.8  s-3.6-1.8-4.6-0.1s-0.9,3.9-4.2,4.1c-3.2,0.2-8.1,0.7-10.1,1c-2,0.4-4.8-0.5-6.1-2.4c-1.3-1.8-2.5-5.1-3.9-5.7  c-1.3-0.6-3.9-0.8-5.6-2.1s-3.3-2.5-5-0.4c-1.7,2.2-3.6,3.1-8,2.6s-6.4,0.7-7.5,0.8c-1.1,0.1-6.2,0-8-1.5c-1.2-0.9-2.6-1.8-3.6-2.9  c-0.4,0.8,0.1,2.7-1.7,4.8c-1.9,2.2-5.4-0.5-6.5-1.6c-1.1-1.1-3.5-0.7-4.7-1.7c-1.2-1-1.6-1.3-2.7,0.1c-1.1,1.4-2.4,1.3-3.4,1.2  c-1-0.2-2.4,2-1.7,3.5c0.7,1.5-1.2,2.3-2.8,2.5c-1.6,0.2,0.7,0.6,0.7,2.8s-3.3,1.3-4.5,1.7c-1.2,0.4-1.9,1-3,0  c-1.1-1-4.1-2.2-7.1-2.5c-3-0.3-0.5-2.3,0.1-3.5c0.6-1.2,0-2.1-0.6-2c-0.6,0.1-1.5,0.5-1-2.5c0.5-3.1-4.6-11.1-5.8-13  c-1.1-1.9-1.6-3.6-1.4-5.5c0.2-2-0.1-3.6-1.3-5.6c-1-1.6-0.8-3.2-0.8-3.8c-0.1,0-0.2,0-0.2,0c-2.3-0.5-5.1,1.3-8.8,1.2  c-3.7-0.1-2.1,1.2-4.5,1.8c-2.4,0.6-2.5-3.6-2.5-5.4s-7.5-3.3-9.6-4.8c-2.1-1.5-2.7-2.3-3.7-1.2c-1,1.1,1.1,2.4-0.1,2.8  c-1.2,0.4-2.4-2.8-2.4-5.2c0-2.4-1.2-2.2-1.9-1.2c-0.8,1-2,0.7-2-0.6s0.4-1.9-1-2.5c-1.5-0.6,0.6-4,0.1-6.4c-0.3-1.8-1.8-2.7-3.5-3  c-0.5-0.1-1-0.1-1.6-0.1c-2.5,0-4,1.6-4.2,3.7c-0.1,2.1-2.7,7.2-4.4,9c-1.6,1.8-3.3,3.7-3.3,5.5c0,1.8,0.7,3.6,3.5,3.7  c2.8,0.1,2.4,0.7,2.4,4.9c0,4.2,2.9,7,3.8,8.1c0.9,1.1,1.9,3.3,0.3,4.1c-1.6,0.8-6.3-5.4-8.3-6.9c-2-1.5-2.2,1.3-2,3.7  c0.2,2.3-2.2,2.6-6.1,1.4c-3.9-1.1-5.2-3.8-6.3-6.7c-1.1-2.9-4.1-2.1-6.1,0.6c-2,2.7-6,2.8-6.1,4.3c-0.1,1.6-5.1,5.3-5.1,6.4  c0,1.1,1.4,1.4,2.3,0.3c0.9-1.1-2,7.3-1.8,9.8c0.2,2.4-0.4,3.3-5.4,4.9c-5,1.6-6.2,0.6-8.9-1.1c-2.7-1.7-4.4,0.4-6.6,1.4  c-2.2,1-1.2,2-1.7,4.7c-0.4,2.3-4.1,3.1-5.6,3.3c1.5,1.2,2.5,2.8,3.7,4.4c1.9,2.6,4,3.5,5.5,3.5s1.2,1,1.2,2.5  c0,1.5,2.3,1.1,4.1,0.9c1.8-0.2,4.6-1,6.5-1c1.9,0,2.8,2.3,5.5,3.3c2.6,1,4.7,0.1,8.4,0.8c3.6,0.7,4.1-0.9,5.5-2.1  c1.4-1.2,1.5-0.6,3.5,0.5c1.9,1.1,2.7-0.5,3.9,0.2c1.2,0.7,6.6,5.4,8.8,6c2.3,0.6,2.9,0.5,4,1.8c1.1,1.3,4.4,5.5,6.6,6.6  c2.3,1.2,3,0.5,4.1,0.3c1.1-0.2,0.2,3.1,0.2,5c0,2,2.8,3,4,4.5c1.2,1.5,3.8,2,4.8,1.7c1-0.3,1.3-1.1,2-0.1c0.6,1,1.2,0.4,3-0.4  c1.9-0.8,1.3,2.3,1.3,4.4s1.2,2.5,5.1,3.8c3.9,1.3,2.8,4.7,2.8,6.3c0,1.6,1.6,0.4,2.4-0.3c0.8-0.7,2.8-2.7,5.5-3.9  c2.7-1.2,4.4-4.4,6.1-5.6c1.8-1.2,2.8-0.4,4.2,0.8c1.4,1.2,3.6,2,4.2,1.2c0.5-0.7,2.3-1.2,3.6-1.3c1.3-0.2,3.8,0,4.8,1.4  c1,1.4,1.4,1.4,4.2,0.9s1.7-3.3,1.6-4.6c-0.1-1.3,4-2.7,6-2.7c2,0,0.9-1.6,0.1-2.7c-0.8-1.1,0.1-1.9,0.1-3.8  c0.1-1.9,4.4-3.6,5.7-4.7c1.4-1.1,3.4-2.9,5.2-3.3c1.9-0.4,2.3,1.8,3.2,3.2c0.9,1.3,0.2,6.2,0.7,7.2c0.5,1,4.2-4.1,5-4.7  s1-1.7,1.9-1.3c0.9,0.3-0.3,5.1-1.5,7.1c-1.2,2-6.2,6-7,6.9c-0.8,0.9,0.6,7.1,1,8.8c0.4,1.7,0.2,4.3,0.6,6c0.4,1.7,3.6-0.6,5.4-1.3  c1.8-0.8,3.7-1.8,4.8-1.8c1.1,0,1.4,4.5,1.4,6.2c0,1.7,0.2,1.8,1.2,1c0.9-0.8,0.9-1.4,2.1-1.6c1.2-0.2,1,1,2,2c1,1,4-4.1,4.6-5  c0.6-0.9,5.1-7.3,6.7-8.8c1.6-1.5,5.4-5.7,5.4-6.3c0.1-0.6,6.6-8.4,8-9.9c1.4-1.6,7.4-7.2,8.4-8.4c0.9-1.1,2.7-1.8,3.9-1.7  c1.7-1.3,8.5-6.3,9.4-7.8c1.1-1.7,5-2.8,6.9-2.8c1.9,0.1,8.4,0.3,11.2-2.7c2.8-3,7-7.1,9.4-8.9c2.4-1.8,5.7-3.8,7.9-4.6  C565.5,412.7,569.8,411.1,567.8,409.2z" stroke-miterlimit="10" stroke="#FFFFFF"/>
</svg>