<?xml version="1.0" encoding="UTF-8" standalone="no"?><!-- Generator: Adobe Illustrator 18.0.0, SVG Export Plug-In . SVG Version: 6.00 Build 0)  --><svg xmlns="http://www.w3.org/2000/svg" xmlns:xlink="http://www.w3.org/1999/xlink" contentScriptType="text/ecmascript" zoomAndPan="magnify" contentStyleType="text/css" id="图层_1" mapName="湖南省" mapType="省市地图" enable-background="new 0 0 800 600" version="1.1" xml:space="preserve" preserveAspectRatio="xMidYMid meet" viewBox="0 0 800 600" x="0px" y="0px">
<path name="邵阳市" fill="#D3D3D3" id="path0" d="M340.8,280.2c-1.8,2.2-4.8,5.2-5.6,7.6c-0.8,2.4-4.3-0.6-4.7-5.3  c-0.5-4.7-0.5-3.3-3.4-2.1c-2.9,1.2-3.5,3.3-4.3,5.2c-0.8,1.9-1.4,3.1-0.1,4.5c1.3,1.5,0.7,0.4,0.3,2.1c-0.4,1.8,2.2,1.3,3.3,2.2  c1.1,0.9,0.8,2.8-0.2,4c-1.1,1.2-0.4,1.3,1.1,3.8c1.5,2.5-2.8,2.7-4.8,3.4c-2,0.7-2.4,3.7-3.1,5.4c-0.8,1.7-1.8,1.7-3.4,0.8  c-1.6-0.8-6.6,0-8.3,3.4c-1.7,3.4-4,4.4-7.6,3.2c-3.6-1.1-2.9-0.2-4.3,0.4c-1.4,0.6-0.7,2.5-0.5,4.5c0.2,2-6.2,4.7-8.2,4.6  s-4.9,2.8-4.9,5.5s-2,3.3-3,3.5c-1,0.2-1.8,0.9-2.2,2.4c-0.3,1.5-1.1,3.1-3.1,4.4c-2,1.2-1.4,3.1-1.3,4.9c0.1,1.7-1.7,4.9-3.3,6.3  c-1.6,1.4-1.1,1.9,0.3,3c1.5,1-0.3,5-0.3,6.6c0.1,1.6,0.3,1.4-2.6,3.7c-2.9,2.3-4.6,1.7-6.6,0c-1.9-1.7-5.4,1.8-5.9,3.3  c-0.5,1.5-1.8,2.4-3.8,2.9c-1.9,0.5,0.4,6.4,2.3,8.2c1.8,1.8,0.1,4.2,1.5,5.3c1.4,1.1,4.1,2.1,6.7,1.9c2.7-0.2,2.5,10.5,2.2,12  c-0.3,1.5-1,2.3-0.5,4.5c0.5,2.2-0.2,4.6-2.7,7c-1.9,1.8-2,3.3-1.9,3.9c2.1-0.6,2.8,0.6,4.6,1.9c2.3,1.6,5.3-0.3,7.3,0.7  c2,0.9-1.9,6.5-2.1,10.5s4.7,3.7,6.8,4.3c2.1,0.5,1.7-2,3.1-3.9c1.3-1.9,4.8,2.5,6.8,3.9c2,1.3,0.7,2.4,0,3.5  c-0.7,1.1-0.5,1.5,0.9,1.5s3.3-1.1,4.8-2.4c1.5-1.3,3.7-3.9,3.9-7.2s2.3-4.1,5.2-6.9c2.9-2.8,5.1-3.6,5.9-3.5  c0.8,0.1,2.7,0.9,2.7-0.9c0-1.9,3.1-3.7,3.1-5.9s0.9-2.7,3.1-3.2c2.1-0.5,2.1-1.3,2.1-3.6c0-2.3,1.9-1.7,3.3-0.8  c1.5,0.9,5.7,1.1,7.5,0.8c1.7-0.3,2.8,2.7,3.6,4.5c0.8,1.9,6.8,1.7,8.8,0.5c2-1.2,3.5-0.8,5.6-0.5c2.1,0.3,0.9-4,1.7-5.2  c0.8-1.2,1.3-2,0.9-3.9c-0.4-1.8,3-2,4.4,0.3c0.6-0.9,3.2-4.6,3.2-7.3c0-3.1,4.1-7.2,3.8-9.7c-0.2-2.5-0.9-2.6,0.5-4.6  c1.4-2,6.1-5.4,5.4-3.8c-0.7,1.6-0.8,7.6,0.8,8.9c1.6,1.4,2.7,2.9,3.2,4.9c0.5,1.9,1.9,1.2,2.9-0.1c1-1.4,4.7-3.3,5.7-2.2  c1,1.1,1.8-1.2,1.5-2.8c-0.3-1.6,0-6.1-0.9-8.3c-0.9-2.1-1.1-7.5,1-7.6c2.1-0.1,4.7-2.8,5.4-4.6c0.7-1.8,0.1-2.4-1-4  c-1.1-1.5-3.2-3.2,0.3-3.8c3.5-0.6,3.2-3.3,6.7-1.7c3.5,1.5,5.1,0.1,7.7,0.1c2.2,0,4.1,1,4.5,1.2c0,0,0,0,0.1,0  c1.2-0.2,4.2-1.7,4.7-2.9c0.5-1.3-0.4-3.5-2.1-5.6c-1.7-2.1,2.7-1.5,5.2-1.3c2.5,0.2,3.1-1.8,2-3.4c-1.1-1.7,0.2-2.9,2.8-3.9  c2.6-0.9,2.3-3,3.8-2.2c1.6,0.8,4,1.3,5.6,1.1c1.7-0.1,2.1,0.3,2.6,1.6c0.5,1.3,5.5,2.3,7.1,3.9c1.6,1.6,0,2.9,0.3,4.8  c0.3,1.9,2.1-0.5,2.5-1.6c0.4-1,2.2,0.1,3.7,0.1s1.9,0.4,0.9,2c-0.9,1.6,4.4-2.2,4.9-4.7c0.5-2.5,2-1.4,4.6-3.4  c2.6-2.1-2.6-4.5-4.1-5.8c-1.5-1.4,2.5-2.8,1.8-5.1c-0.7-2.3-0.2-3.1,0.3-5.1c0.2-0.9,1.2-1.8,2.4-2.6c-0.4-0.2-1.3-0.8-2.6-2  c-1.7-1.6-1.5-4.3-1.9-6.3c-0.4-2-1.6-1.7-3.3-2.3s-1.6-1.4-1.9-3.1c-0.3-1.8-1.4-2.5-3.6-3.9c-2.3-1.4-4.4-4.4-6.1-6.2  c-1.7-1.8-2.9-1.6-4.9-2.1c-2-0.5-2.9-1.6-4-3.8c-1.1-2.2-2.3-0.6-4.6-3.4c-2.3-2.8-3-0.8-6.2-1.4c-3.2-0.6-0.2-1.1-0.2-4.4  c0-3.4-1.9-1.9-3.8-1.4c-1.9,0.4-2.8-1.3-3.3-3.1c-0.5-1.9-3.1,1.7-5.9,3.1c-2.7,1.4-3.8,1.1-5.9,0.6s-2.9,1.1-3.9,2.2  c-1.1,1.1-2,2.3-4.3,2.4c-2.2,0.1-2.9-2.4-4.9-3.1c-2-0.7-3.3,2.6-4.8,3.6c-1.5,1-2-0.1-2.7-2c-0.7-1.9-3.6-1.1-7.3-1.1  c-3.7,0-3.2-0.8-4.9-3.7c-1.7-2.9-4.2-1.6-6.1-2.9c-1.9-1.3-1.4-1.5-6.4-0.8c-2.8,0.4-4.5-0.1-5.8-1  C342.2,276.4,342.2,278.4,340.8,280.2z" stroke-miterlimit="10" stroke="#FFFFFF"/>
<path name="娄底市" fill="#D3D3D3" id="path1" d="M429.2,238.9c-0.3,1.3-0.6,2-1.9,1c-1.3-1-2.9-2.2-3.6-1.2  c-0.7,1-1.2,3.7-2.9,4.3c-1.7,0.6-4.5,1.9-4.8-1.1c-0.3-3-1.1-3.6-2.2-3.6s-0.7,1.9-3.1,1.3c-2.4-0.6-4.7-1-4.5,1.2  c0.1,2.2-0.5,2.9-2,2.1c-1.5-0.8-2.1-1.7-0.6-2.3s1.3-0.9,0.1-2.2c-1.2-1.3-0.6-1.7-2.7-1.4c-2.1,0.3-4.8,1.7-3.9-0.3  c0.9-2,4.1-3.2,3.7-4.3c-0.4-1-3.1,0.6-4.1-1c-1-1.6,1.6-9.4,0.8-9.9c-0.8-0.4-1.7,1.8-2.9,1.9s-1.6,0.1-1.6-1c0-1.1-1-1-2.4,0  c-1.5,1-3,0.8-4.8,0.3s-3.2-0.2-2.2-1.4c0.9-1.2,3-3-0.5-2.6c-3.5,0.4-3.6,1.6-4.8,3.3c-1.2,1.7,0.5,3.9-3.2,4  c-3.7,0.1-6.5,1.2-7,2.7c-0.4,1.6-1.8,5.4-3.4,6.2c-1.6,0.7-1.1,1.7-1.9,3.4c-0.8,1.7-1,3.9-2.3,3.2c-1.3-0.7-2.7-2.4-4.3-2.4  c-1.5-0.1-2.9-0.2-2.8,1.3c0.1,1.5,1.6,2.5,0,3.6c-1.6,1.1-3.1,0.5-3.4,2.7c-0.3,2.2,0.4,3.2-1.5,4.9c-1.8,1.8-4,1.9-4.9,3.7  c-0.9,1.8-1.1,2.9-4.6,3.2c-3.5,0.3-6.3,0.3-6.5,2.8c-0.2,2.5,1.8,3.9,3.5,5.7s0.8,4.3,3.1,6.3c2.3,2,3.7,4.2,8.7,3.5  s4.5-0.5,6.4,0.8c1.9,1.3,4.4,0,6.1,2.9c1.7,2.9,1.2,3.7,4.9,3.7c3.7,0,6.6-0.8,7.3,1.1c0.7,1.9,1.2,3,2.7,2c1.5-1,2.8-4.3,4.8-3.6  c2,0.7,2.7,3.2,4.9,3.1c2.2-0.1,3.2-1.2,4.3-2.4c1.1-1.1,1.9-2.6,3.9-2.2s3.1,0.8,5.9-0.6c2.7-1.4,5.4-5,5.9-3.1  c0.5,1.9,1.4,3.6,3.3,3.1c1.9-0.4,3.8-1.9,3.8,1.4c0,3.4-3,3.8,0.2,4.4c3.2,0.6,3.9-1.4,6.2,1.4c2.3,2.8,3.5,1.2,4.6,3.4  c1.1,2.2,2,3.3,4,3.8c2,0.5,3.2,0.3,4.9,2.1c1.7,1.8,3.8,4.8,6.1,6.2c2.3,1.4,3.4,2.1,3.6,3.9c0.3,1.8,0.2,2.6,1.9,3.1  s2.9,0.3,3.3,2.3c0.4,2,0.2,4.7,1.9,6.3c1.2,1.2,2.2,1.8,2.6,2c1.7-1.2,3.9-2.3,5.3-3c2.4-1.2,1.7-2.4,1.2-3.7  c-0.5-1.2-0.8-2.7,0.1-3.8c0.9-1.1,4,1.8,5.7,3.2c1.7,1.5,2.1,1.5,2.4-0.5c0.3-2,3.6-2.5,3.9-4.8c0.3-2.3,0.9-2.4,3.1-3.1  c2.2-0.7,6.1,0.3,8.8,1.3c2.6,1.1,0,1.1,4.1-0.4c4.1-1.4,2-3.6,1.5-6.1c-0.4-2.1,3-2.1,4.1-2.1c-0.4-0.5-0.6-1.3-0.7-2.1  c-0.3-1.9-2.2-3-3.9-3.7c-1.7-0.7-3.9-2.4-5.3-4.5c-1.4-2.1-2.3,0.1-2.6,2c-0.3,1.9-0.4,2.3-2.7,1.4s-2.1-1.2-3.5,0.2  c-1.5,1.4-2.3-0.6-2.4-2.3c-0.1-1.8,2.2-4.5,3.3-6.4c1.1-2-0.5-2.2-2.1-3c-1.6-0.8-2-0.6-1.9-2.6c0.1-2.1,3.1-2.1,4.6-2.9  c1.5-0.8-6.5-2.5-8.7-3.2c-2.3-0.7-3,2.5-3.2,4.5c-0.2,2-2.1-1-3.1-1c-1,0,1,1.6-0.4,2.4c-1.4,0.8-1-1.6-2.7-1.6  c-1.7,0-3.1,0.5-4.2,2c-1,1.5-1.5,1.1-1.6-1.2c-0.1-2.4-1.3-0.5-2.3-3c-1-2.4-1-2.7,0.7-2.7c1.7,0,3.2-0.3,2.6-1.6  c-0.6-1.3,0.4-2.1,2-4.3c1.6-2.2-1.9-3.3-4.3-3.7s-1.7-1.7-1.9-3.5c-0.2-1.8-2.4-2.1-3.7-1.8c-1.1,0.2,0.7-3.7,1.5-5.2  c-1.8-0.7-3.4-5.4-4.5-6.6c-1.3-1.5-3.3-0.3-5.3-0.5s-1.7-2.9-0.6-4c0.4-0.4,0.5-0.8,0.4-1.2C433.5,238.5,429.5,237.8,429.2,238.9z" stroke-miterlimit="10" stroke="#FFFFFF"/>
<path name="永州市" fill="#D3D3D3" id="path2" d="M390,354.9c-3.5-1.5-3.2,1.1-6.7,1.7c-3.5,0.6-1.5,2.2-0.3,3.8  c1.1,1.5,1.7,2.2,1,4c-0.7,1.8-3.3,4.5-5.4,4.6c-2.1,0.1-1.9,5.4-1,7.6c0.9,2.1,0.6,6.7,0.9,8.3c0.3,1.6-0.5,3.9-1.5,2.8  c-1-1.1-4.7,0.9-5.7,2.2c-1,1.4-2.5,2-2.9,0.1c-0.5-1.9-1.6-3.5-3.2-4.9c-1.6-1.4-1.5-7.3-0.8-8.9c0.7-1.6-4.1,1.8-5.4,3.8  c-1.4,2-0.7,2.1-0.5,4.6c0.2,2.5-3.8,6.7-3.8,9.7c0,2.7-2.6,6.4-3.2,7.3c0,0.1,0.1,0.1,0.1,0.2c1.3,2.5,2.9,2.8,5.9,4  c2.9,1.2,7.5,1.9,10,1.3c2.5-0.5,4,2,5.6,3.2c1.6,1.2,4,0.7,5.6,1.3c1.6,0.7-0.7,6.3-1.9,7.9c-1.2,1.6-0.8,3.7-0.1,4.8  c0.7,1.1,1.3,2.3,0,3.1c-1.3,0.8-1.5,1.7-2.3,4c-0.8,2.3-3.1,4.3-3.6,8.4c-0.5,4.1,3.1,11.2,5.1,12.1c2,0.9,3.1-0.3,3.5-1.9  c0.4-1.6,3.1-2.5,5.3-1.6c2.3,0.9,4.5,1.2,9.2,1.5c4.7,0.3-0.1,3.5-2.3,4.3c-2.1,0.8-0.4,3.1-0.1,5.2c0.3,2.1-4.9,5.1-8.5,4.5  c-3.6-0.5-3.1,4.5-3.1,7.5c0,2.9,0.5,3.3,1.9,7.7c1.3,4.4-2.3,11.3-3.2,13.7c-0.9,2.4-4.5,9.2-7.5,9.1c-2.9-0.1-3.1,0.5-4.1,1.7  c-1.1,1.2-1.6,3.2-3.1,5.2c-1.5,2-2.5,3.2-2.5,5.9c0,2.7-1.9,4-5.9,5.5c-4,1.5-6,7.2-7.2,9.7c-1.2,2.5-1.3,5.6-0.3,8.3  c1.1,2.7,1.2,5.5,1.9,7.1c0.7,1.6,5.3-0.4,7.2-0.7c1.9-0.3,2.5-3.1,2.5-6.5s4.4-4.8,7.3-5.9c2.9-1.1,4.9-3.7,6-5.7  c1.1-2,0.5-2.3,3.1-2.3c2.5,0,2.4,3.2,4.7,4.1s4.1-0.7,4.1-2.5c0-1.9,0.9-2.1,2-0.7c1.1,1.5,1.6,1.5,3.3,2.1  c1.7,0.7,0.5,2.1,0.1,4.8c-0.4,2.7,1.6,3.9,3.1,4.4c1.5,0.5,1.3,1.9,0.1,4c-1.2,2.1-1.2,4-1.2,7.5c0,3.5,1.1,7.3,2,10.3  c0.9,2.9-0.1,7.1-2.4,10.3c-2.3,3.2,2.5,4.1,4.1,4.1s2.5,1.3,4.3,2.1c1.7,0.8,2.9-1.1,4.1-2.9c1.2-1.9,2.1-2,3.7-2  c1.6,0,2-4.7,4.7-7.2c2.7-2.5,8.3-1.2,11.7-1.6c3.5-0.4,6.8,2.1,8.4,2.1c1.6,0,7.7,0.1,9.1,1.1c1.3,0.9,3.9-0.1,5.3-1.9  c1.5-1.7,5.6-4.8,9.9-7.2c4.3-2.4-0.4-8.8-1.7-10.4c-1.3-1.6,0.5-6.9,1.5-8.9c0.9-2,3.3-12.3,4.1-14.9c0.8-2.7,2.9-0.9,4-0.1  c1.1,0.8,5.6,1.1,7.2,1.1c1.6,0,3.2-2.5,4.1-2.8c0.4-0.1,0.8,0,1.1,0.4c1.4-1.7,0.9-4.8,0.6-6.4c-0.2-1.6-1.6-4-0.2-4.2  c1.4-0.2,3-1,3.2-3s1.9-1.7,4.3-3.9c2.4-2.2-3.4-6.1-5.5-8.7c-2.1-2.6-1.4-4.5-2.6-7.4c-1.3-3-8.8-4.3-10.9-5.3  c-2.1-0.9-2.1-4.1,0.1-6.4c2.2-2.3,1.5-2.3,0-3.8c-1.5-1.5-1.9-2.9-0.2-3c1.7-0.1,5.4-0.3,6.3-1.7c0.9-1.4,1.4-0.9,1.4,0.8  c0,1.7,2.5,0.7,4.1-0.8c1.6-1.5,1.9-3.3,0.5-5.4c-1.5-2.1-1-7.5-1.4-10.3c-0.3-2.7-1.6-3.5-3.4-1.9c-1.8,1.6-3.2-4-3.2-6.2  c0-2.2,1.3-6.6,2.7-8.6c1.5-1.9,1.7-4-0.3-4.8c-2.1-0.8-4.2,1.4-6.7,0.3c-2.2-0.9-0.4-3.9,0.1-4.7c-1.5-0.4-2.5-2.2-4-3.9  c-2-2.2-1.7-2.9-1.1-4.5c0.5-1.6-0.1-3.9,0.5-5.6c0.6-1.8,1.1-3.3-1.1-4.6c-2.3-1.3-1.9-1.5-2.3-3.3c-0.4-1.9-0.3-3.1-1.5-2.8  c-1.1,0.3-1.1-0.6-0.6-3c0.5-2.4-1.7-2.7-0.2-3c1.5-0.3,1.2-1.9,1.2-1.9s-1-2.5,2.9-4.2c4-1.7-2-2-3-2.5c-1-0.5,0.7-1.9,1.4-2.8  c0.6-0.9,0.9-3-1.7-3.6c-2.6-0.6-1.6-1.8-1.6-3c0-1.3-1.7-2-3.6-1.6c-2,0.4-3.2-1.5-4.7-2.4c-1.5-0.9-3.1-0.7-4.7-0.1  c-1.6,0.6-0.3,1.4,1.6,2.4c1.9,1,1.6,3.1,0.3,4c-1.2,0.8-3.7-4.4-5-6.5s-1.1-3.8-3-5.1c-1.9-1.4-1.5-2.2-2.9-4.7  c-1.5-2.5-1.4-2-5.1-2.7c-3.7-0.7-2.9-1.4-4.8-1.5c-1.9-0.1-4.8-1-6.7-2.2c-1.9-1.1-3.8-1.4-4.6,0.6c-0.7,2-1.5,2.9-3.4,2.9  c-1.9,0-7.4-2.2-6.6-2.6c-0.5-0.3-2.3-1.2-4.5-1.2C395.2,354.9,393.6,356.4,390,354.9z" stroke-miterlimit="10" stroke="#FFFFFF"/>
<path name="郴州市" fill="#D3D3D3" id="path3" d="M644.2,420.8c-1.2-0.6-0.8-1.6-0.1-2.6c0.7-1-1.7-2.1-4.7-1.6  c-3,0.5-5.2,0.7-8.1,3.5c-2.8,2.8-3,2.1-4.1,0.2c-1.1-1.9-2.2-1.1-3.8,1.1c-1.7,2.2-3.3,1.6-4.4-0.4c-0.2-0.4-0.3-0.7-0.2-1.1  c-1.4,1.2-6.9,6-11.3,9.8c-5.1,4.3-7,3.5-8.2,1.1c-1.2-2.4-0.4-5.3,1.8-7.7c2.2-2.4,0.4-4.2-1.3-7c-1.7-2.8-4-3.6-5.9-4.3  c-1.9-0.7-4-2.7-5.3-4.2c-1.3-1.6-1.9-7.5-1.4-9.4c0.5-1.9,1.2-2.7,0.5-4.1c-0.7-1.5-1.6-2.8-0.5-3.9c1.1-1.1,2.2-1.8-0.6-2.9  s-3-4.1-3-6.4c0-2.3-1.6-1.9-3.3-1.9s-1.8,1.4-3.4,2.9c-1.6,1.5-6.3,0-8.2-5.6c-1.9-5.6,0.8-9.2,1.7-12.9s-5.1-4.1-7.8-4.5  c-2.8-0.4-2,1.7-3.6,3.9c-1.6,2.2-2.2-1.4-2.3-3.5c-0.1-1.3-0.4-2-0.9-2.9c-1.6,1-6.5,1.1-8.9,1.1c-2.5,0-1.1,2.1-3.4,3.2  c-2.3,1.1-2,1.6-0.8,3.9c1.2,2.3,4.7,4.8,5.9,5.1c1.2,0.3,1.1,1.7,0,3c-1.1,1.2,0.4,3.2,0.7,5.8c0.3,2.5-0.5,5.2-2,6.4  c-1.5,1.2,0.5,3.2,2.8,4c2.3,0.8,2.1,1.7,1.1,2.3c-1.1,0.5-1.7,2.5-0.7,3.4c1.1,0.8,2.5,1.9-0.3,3.6c-2.8,1.7-1.1,4.2-3.4,5.4  c-2.3,1.2-2.3,3.4-2.1,4.7c0.1,1.3-0.5,1.7-2,1.7c-1.5,0-1.2,1.2-0.3,2.3c0.9,1.1-2.4,0.8-4,0.8c-1.6,0-2.4,1.2-2.4,3.5  c0,2.3,0,4-0.7,5.5c-0.7,1.5-4.3,0.4-5.5-0.5c-1.2-0.9-2.7-0.7-3.4,0.9c-0.7,1.6-2.7,0.1-4.8,0.8c-2.1,0.7-2.7-0.1-3.4-1.9  c-0.7-1.7-1.7-2.1-2.4-0.8c-0.7,1.3-2,2.7-3.9,2.7c-1.9,0-1.9,1.2-1.9,2.7c0,1.5-4.7-0.5-7-0.9c-2.3-0.4-2.1-3.5-3.6-6.3  c-1.5-2.8-3.6-0.1-4.8,2.1c-1.2,2.3-0.9,3.6-2.3,3.9c-1.3,0.3-4.3,0.1-5.5-3c-1.2-3.1-3.6-2.5-5.6-2.8c-2-0.3-1.8,0.4-2.6-1.4  c-0.8-1.8-1.9,1.3-2.8,3.1c-0.9,1.9-5.1,3.1-7.6,3.9c-0.6,0.2-1.1,0.2-1.6,0c-0.5,0.8-2.3,3.8-0.1,4.7c2.5,1,4.7-1.1,6.7-0.3  c2.1,0.8,1.8,2.9,0.3,4.8c-1.5,1.9-2.7,6.4-2.7,8.6c0,2.2,1.4,7.8,3.2,6.2c1.8-1.6,3.1-0.8,3.4,1.9c0.3,2.7-0.1,8.2,1.4,10.3  c1.5,2.1,1.1,3.9-0.5,5.4c-1.6,1.5-4.1,2.5-4.1,0.8c0-1.7-0.5-2.2-1.4-0.8c-0.9,1.4-4.6,1.6-6.3,1.7c-1.7,0.1-1.3,1.5,0.2,3  c1.5,1.5,2.2,1.5,0,3.8c-2.2,2.3-2.2,5.5-0.1,6.4c2.1,0.9,9.6,2.3,10.9,5.3c1.3,3,0.6,4.8,2.6,7.4c2.1,2.6,7.9,6.5,5.5,8.7  c-2.4,2.2-4.1,1.9-4.3,3.9s-1.8,2.7-3.2,3c-1.4,0.2,0,2.6,0.2,4.2c0.2,1.6,0.8,4.6-0.6,6.4c0.4,0.5,0.9,1.3,1.8,2.7  c1.6,2.5,2.4,1.3,3.5-0.8c1.1-2.1,4.4,1.2,7.1,2.7c2.7,1.5,7.6,2.1,11.3,2c3.7-0.1,5.6,2.4,7.1,4.9c1.5,2.5,2.2,6.1,3,8.2  c0.9,2.1,2.5,5,4,7.7c1.6,2.7,2.4,2.3,5.1,2.7c2.8,0.4,3.4-0.1,5.1-1.6c1.7-1.5,5.4-0.7,7.8-0.4c2.4,0.3,2.6-0.6,3.3-3.2  c0.8-2.6-0.5-5.2-1.9-6.5s-0.3-2.5,0.9-5.5c1.2-3.1-0.2-3.3-2.2-4.9c-2-1.7,0.6-6.2,2.8-7.5c2.2-1.3,1.9-1.9,0.3-3.3  c-1.6-1.5-0.6-1.4-1-3.2c-0.4-1.8-3.1,0.2-5.6,1.8c-2.5,1.6-4.3,0.2-5.3-1.4c-1-1.6-2.5-6.1-1.5-7.6c1-1.5,2.1,0.3,4.5,1.4  c2.5,1.1,2.5-0.3,2.6-1.2c0.1-0.9,2.4-2.6,3.5-2.6c1.2,0,4.4-1.8,7.4-3c3-1.2,2.7-2,3.1-3.1c0.5-1.1,1.3-0.5,2.6-0.5  c1.3,0,0-4.5,0.1-5.7c0.1-1.2,2-1.6,4-1.9c2.1-0.3,4.3-1.6,6.2-1.6c1.9,0,4.5-0.9,6.4-1.7c1.9-0.8,1,2.7,0.5,4.8  c-0.5,2.2,0.9,2.2,2.8,3c1.9,0.8,4.5,3,7.2,5.3c2.7,2.4,5.1,1.8,8.5,2.1c3.3,0.3,5.9,3.6,7.4,4.8c1.5,1.2,2.5-1.3,3.9-1.3  c1.5,0,3.9-1.7,7.9-3.1c3.9-1.4,3,1.3,4.6,2.5c1.7,1.2,3.2-0.1,4.4-1.2c1.2-1.1,1.9-3.1,3.5-3.5c1.7-0.5,1.9-1.5,1.7-2.8  c-0.2-1.3,3.3-3.5,5.6-4.5c2.3-1,1.1-3.7,0.8-5c-0.3-1.3,1.2-3,2.7-4.4c1.5-1.5-5-11-6.7-13.4c-1.7-2.4,0.3-5.8,1.9-8.1  c1.6-2.3,1.8-5,2.6-6.6c0.8-1.6,3-3.9,4.3-6.9c1.4-3.1-0.1-13.5-0.1-15.9c0-2.4,4.5-3,5.7-3c1.2,0,2.2-1.3,2.6-2.7  c0.4-1.3,3.5-1.3,4.6-1.3c1.1,0,3.7-1,5-2.3C646.3,421.5,645.3,421.4,644.2,420.8z" stroke-miterlimit="10" stroke="#FFFFFF"/>
<path name="衡阳市" fill="#D3D3D3" id="path4" d="M487.4,301.2c0.5,2.5,2.6,4.7-1.5,6.1c-4.1,1.4-1.5,1.4-4.1,0.4  c-2.6-1.1-6.6-2-8.8-1.3c-2.2,0.7-2.8,0.8-3.1,3.1c-0.3,2.3-3.6,2.8-3.9,4.8c-0.3,2-0.7,1.9-2.4,0.5c-1.7-1.5-4.8-4.4-5.7-3.2  c-0.9,1.1-0.5,2.6-0.1,3.8c0.5,1.2,1.1,2.4-1.2,3.7c-2.4,1.2-7.1,3.6-7.6,5.7c-0.5,2.1-1.1,2.8-0.3,5.1c0.7,2.3-3.2,3.8-1.8,5.1  c1.5,1.4,6.7,3.8,4.1,5.8c-2.6,2.1-4.1,0.9-4.6,3.4c-0.5,2.5-5.8,6.3-4.9,4.7c0.9-1.6,0.6-2-0.9-2s-3.3-1.1-3.7-0.1  c-0.4,1-2.2,3.4-2.5,1.6c-0.3-1.9,1.2-3.2-0.3-4.8c-1.6-1.6-6.6-2.6-7.1-3.9c-0.5-1.3-0.9-1.7-2.6-1.6c-1.7,0.1-4.1-0.3-5.6-1.1  c-1.6-0.8-1.2,1.3-3.8,2.2c-2.6,0.9-4,2.2-2.8,3.9c1.1,1.7,0.5,3.6-2,3.4c-2.5-0.2-6.9-0.8-5.2,1.3c1.7,2.1,2.6,4.4,2.1,5.6  c-0.5,1.3-3.4,2.7-4.7,2.9s4.6,2.6,6.6,2.6c2,0,2.7-0.9,3.4-2.9c0.7-2,2.7-1.8,4.6-0.6c1.9,1.1,4.8,2.1,6.7,2.2  c1.9,0.1,1,0.7,4.8,1.5c3.7,0.7,3.6,0.2,5.1,2.7c1.5,2.5,1,3.3,2.9,4.7c1.9,1.4,1.8,3,3,5.1s3.7,7.3,5,6.5c1.2-0.8,1.6-2.9-0.3-4  c-1.9-1-3.1-1.8-1.6-2.4c1.6-0.6,3.2-0.8,4.7,0.1c1.5,0.9,2.7,2.8,4.7,2.4c2-0.4,3.6,0.3,3.6,1.6c0,1.3-1,2.4,1.6,3  c2.6,0.6,2.3,2.7,1.7,3.6c-0.6,0.9-2.4,2.3-1.4,2.8c1,0.5,7,0.8,3,2.5c-4,1.7-2.9,4.2-2.9,4.2s0.2,1.6-1.2,1.9  c-1.5,0.3,0.7,0.6,0.2,3c-0.5,2.4-0.5,3.3,0.6,3c1.1-0.3,1,0.9,1.5,2.8c0.4,1.9,0,2.1,2.3,3.3c2.3,1.3,1.8,2.8,1.1,4.6  c-0.6,1.8,0,4.1-0.5,5.6c-0.5,1.6-0.8,2.3,1.1,4.5c2,2.2,3.1,4.6,5.6,3.9c2.5-0.7,6.7-2,7.6-3.9c0.9-1.9,2-4.9,2.8-3.1  c0.8,1.8,0.6,1.1,2.6,1.4c2,0.3,4.4-0.3,5.6,2.8c1.2,3.1,4.2,3.2,5.5,3c1.3-0.3,1.1-1.6,2.3-3.9c1.2-2.3,3.4-5,4.8-2.1  c1.5,2.8,1.3,5.9,3.6,6.3c2.3,0.4,7,2.4,7,0.9c0-1.5,0-2.7,1.9-2.7c1.9,0,3.2-1.3,3.9-2.7c0.7-1.3,1.7-0.9,2.4,0.8  c0.7,1.7,1.2,2.5,3.4,1.9c2.1-0.7,4.2,0.8,4.8-0.8c0.7-1.6,2.1-1.9,3.4-0.9c1.2,0.9,4.8,2,5.5,0.5c0.7-1.5,0.7-3.2,0.7-5.5  c0-2.3,0.8-3.5,2.4-3.5c1.6,0,5,0.3,4-0.8c-0.9-1.1-1.2-2.3,0.3-2.3c1.5,0,2.1-0.4,2-1.7c-0.1-1.3-0.1-3.5,2.1-4.7  c2.3-1.2,0.5-3.6,3.4-5.4c2.8-1.7,1.3-2.8,0.3-3.6c-1.1-0.8-0.4-2.8,0.7-3.4c1.1-0.5,1.2-1.5-1.1-2.3c-2.3-0.8-4.3-2.8-2.8-4  c1.5-1.2,2.3-3.9,2-6.4c-0.3-2.5-1.7-4.6-0.7-5.8c1.1-1.2,1.2-2.7,0-3c-1.2-0.3-4.7-2.8-5.9-5.1c-1.2-2.3-1.5-2.8,0.8-3.9  c2.3-1.1,0.8-3.2,3.4-3.2c2.5,0,7.3-0.1,8.9-1.1c-0.3-0.5-0.6-1-0.8-1.7c-0.7-1.8,0.5-2.7,1.6-4.6c1.1-1.9,0.6-3.1-1.2-4.1  c-1.8-1-1-1.5-1-3.9c0-2.4,0.5-3.9-1.8-5.1c-2.3-1.2-2.2-4-3-6.4s4.3-3.6,8.6-6.3c4.2-2.7,1.1-2.9-1.4-5.7s-3.3-1.9-4.9-0.8  c-1.7,1.1-2.4-1-3.9-1s-0.5,3.1-2.4,3.3c-1.9,0.1-0.8-1.9-2.8-2.1c-1.9-0.1-1.3-0.5-1.1-2.4s1.7-0.4-0.8-1.7  c-2.5-1.3-4-9.8-4.7-11.6c-0.7-1.8-3-3.4-3.5-4.6c0-0.1-0.1-0.2-0.1-0.3c-0.6-0.2-1.4-0.3-2.3,0c-2.8,0.9-2.7,1.8-2.9,3.5  c-0.1,1.1-1.1,2.3-1.3,3.5l0,0c0,0-1.4-0.3-1.9,0.8c-0.5,1.1-1.6,2.9-3.1,1.9c-1.5-1-1.5-0.6-3.1-0.2c-1.6,0.5-3.1-0.8-3.5-2.8  c-0.5-2-6.4-1.8-8.2-2.2c-1.9-0.4-1.5-1.3-1.1-4.3s-2.4-2.4-5-2.3c-2.5,0.1-2.6,3.2-3.8,2.8c-1.2-0.4-1.8,1.2-2.9,1.8  c-0.7,0.3-1.2,0-1.7-0.7C490.5,299.1,487,299.1,487.4,301.2z" stroke-miterlimit="10" stroke="#FFFFFF"/>
<path name="湘潭市" fill="#D3D3D3" id="path5" d="M443.6,256.3c1.3-0.3,3.5,0,3.7,1.8c0.2,1.8-0.4,3.1,1.9,3.5  s5.8,1.5,4.3,3.7c-1.6,2.2-2.6,3-2,4.3c0.6,1.3-1,1.6-2.6,1.6c-1.7,0-1.7,0.3-0.7,2.7c1,2.4,2.2,0.6,2.3,3c0.1,2.4,0.5,2.7,1.6,1.2  c1-1.5,2.4-2,4.2-2c1.7,0,1.3,2.4,2.7,1.6c1.4-0.8-0.6-2.4,0.4-2.4c1,0,3,3,3.1,1c0.2-2,1-5.2,3.2-4.5c2.3,0.7,10.2,2.5,8.7,3.2  c-1.5,0.8-4.5,0.9-4.6,2.9c-0.1,2.1,0.3,1.9,1.9,2.6c1.6,0.8,3.1,1.1,2.1,3c-1.1,2-3.4,4.7-3.3,6.4c0.1,1.8,1,3.7,2.4,2.3  c1.5-1.4,1.2-1.2,3.5-0.2s2.4,0.5,2.7-1.4c0.3-1.9,1.3-4,2.6-2c1.4,2.1,3.6,3.8,5.3,4.5c1.7,0.7,3.6,1.9,3.9,3.7  c0.3,1.9,1.3,3.4,2.4,2.8c1.2-0.6,1.8-2.1,2.9-1.8c1.2,0.4,1.3-2.7,3.8-2.8c2.5-0.1,5.4-0.7,5,2.3s-0.8,3.9,1.1,4.3  c1.9,0.4,7.8,0.2,8.2,2.2c0.5,2,1.9,3.3,3.5,2.8c1.6-0.5,1.7-0.8,3.1,0.2c1.5,1,2.5-0.8,3.1-1.9c0.5-1.1,1.9-0.8,1.9-0.8l0,0  c0.3-1.2,1.2-2.4,1.3-3.5c0.2-1.8,0.1-2.7,2.9-3.5c0.9-0.3,1.7-0.2,2.3,0c-0.3-1.5,0.2-5.5-0.3-8.6c-0.5-3.4,0-4.7,1.9-6.4  c1.9-1.8,1.6-3-0.4-5.3c-2-2.3,1.6-2.9,3.6-4.9s-3.6-8-4.3-10c-0.7-2,3.8-4.5,4.7-5.1c0.9-0.6,0.5-2,0.8-4.4  c0.3-2.1,2.8-7.1,3.5-8.3c-0.1-1-0.2-2.1-0.7-3c-1.2-2.1-3.3-0.2-4.9,1.7c-1.7,1.9-2.6-0.7-3.7-1.8c-1.1-1.1-2.5-1.7-3.4-0.8  c-0.9,0.9-1.8,1.8-4.3,1.1c-2.5-0.7-5.6-2.9-6.8-4.5c-1.3-1.6-4.8,0.2-4.8,1.8s-2,5.4-3,8.1c-1,2.6-4.5,1-6.4,0.2  c-1.9-0.7-1.1,3.8-1.5,5.4c-0.4,1.5-2.9-1.5-3.1-3.6c-0.2-2.1-1.8-1.6-2.2-3.1s-5.2-3.8-7.8-6.9c-2.6-3-4-3.6-6.4-2.9  c-2.4,0.7-1.9,4.2-1.6,5.4c0.4,1.3,0.3,3.5-2.1,3.5c-2.4,0-10.5,0.8-14.8,0.8s-2.5,2.2-4.9,2.4c-2.3,0.2-0.9,0.7-1.4,2.2  c-0.5,1.6-4.8,2.2-6.3,1.5c-1.6-0.8-3.9-1.2-6-0.7c-0.2,0.1-0.5,0-0.7-0.1C444.3,252.6,442.5,256.5,443.6,256.3z" stroke-miterlimit="10" stroke="#FFFFFF"/>
<path name="株洲市" fill="#D3D3D3" id="path6" d="M537.5,257c-0.9,0.6-5.4,3.1-4.7,5.1c0.7,2,6.3,8,4.3,10  s-5.6,2.6-3.6,4.9c2,2.3,2.3,3.5,0.4,5.3c-1.9,1.8-2.3,3.1-1.9,6.4s-0.1,7.7,0.4,8.9c0.5,1.2,2.8,2.8,3.5,4.6  c0.7,1.8,2.2,10.3,4.7,11.6c2.5,1.3,1.1-0.2,0.8,1.7s-0.8,2.3,1.1,2.4c1.9,0.1,0.8,2.2,2.8,2.1c1.9-0.1,1-3.3,2.4-3.3s2.2,2.1,3.9,1  c1.7-1.1,2.4-1.9,4.9,0.8s5.7,3,1.4,5.7c-4.2,2.7-9.4,3.9-8.6,6.3s0.7,5.2,3,6.4c2.3,1.2,1.8,2.7,1.8,5.1c0,2.4-0.8,2.9,1,3.9  c1.8,1,2.3,2.2,1.2,4.1c-1.1,1.9-2.3,2.8-1.6,4.6s1.6,2.5,1.7,4.6s0.7,5.7,2.3,3.5c1.6-2.2,0.8-4.2,3.6-3.9c2.8,0.4,8.7,0.7,7.8,4.5  s-3.6,7.4-1.7,12.9c1.9,5.6,6.6,7,8.2,5.6c1.6-1.4,1.7-2.9,3.4-2.9s3.3-0.4,3.3,1.9c0,2.3,0.2,5.3,3,6.4s1.7,1.8,0.6,2.9  c-1.1,1.1-0.2,2.4,0.5,3.9c0.7,1.4,0,2.2-0.5,4.1c-0.5,1.9,0.1,7.9,1.4,9.4c1.3,1.6,3.4,3.5,5.3,4.2c1.9,0.7,4.2,1.6,5.9,4.3  c1.7,2.8,3.5,4.6,1.3,7c-2.2,2.4-3,5.3-1.8,7.7c1.2,2.4,3.1,3.3,8.2-1.1c4.4-3.8,9.9-8.6,11.3-9.8c0.2-1.7,2.6-3.5,4.5-4.9  c2.3-1.8,1.5-4.7,2.6-6.6c1.1-1.9,0.7-4.1,0.2-6c-0.4-1.9,3-7.2,4.7-8.8c1.7-1.6,1-4.9,0.2-5.8c-0.8-0.9-1.2-2.5-0.6-3.6  c0.6-1.1,1.1-0.9,0.6-2.8c-0.5-1.8-1.7-0.8-3.8-1.7c-2.1-0.8-2-1.5-3.2-2.8c-1.2-1.3-2.5-1.3-4.4-1.1c-1.9,0.3-4.2,0.7-6.2-0.8  s-3.8-3.4-4-6.4c-0.2-3-2-7.1-2.1-9.6c-0.1-2.5,1.1-3.5,3.4-5.5c2.3-1.9,2.6-4.7,4.1-6.7c1.5-2-1.5-3.4-2.8-5.5  c-1.3-2.1-4.8-5.2-5.8-7.3c-1-2.1-0.6-2.5-2.2-3.5c-1.5-1.1-0.5-3.3,0.7-4.4c1.2-1.1,3.3-4.9,4-5.8c0.7-0.9,1.6-4,2.2-6.1  c0.5-2.1-0.5-2.6,0.5-4.4c1.1-1.7,0.8-1.6,0.8-4.5c0-2.9,0.4-2.6-1.9-2.6c-2.3,0-7.8,2.6-9.5,3.7c-1.7,1.1-4.3,1.5-5.8,1.3  c-1.5-0.2-3.3-1.3-5.1-2.4c-1.8-1.1-0.9-2.5-0.3-3.6c0.6-1.1,1.2-1.7,0.1-1.8c-1.1-0.1-1.7-0.4-2.4-2.7c-0.6-2.4,1.8-4.1,2.7-6.1  c0.9-2-0.3-2.3-2.3-2.5c-2-0.2-0.7-4.6,0.3-7.1c1-2.5,2.9-7.8,4.7-9.3c1.8-1.5,7.2-10.5,8.9-12.6c1.7-2.2,0.1-4.3-1.2-5.2  c-0.7-0.5-0.9-1.5-0.9-2.5c-0.5,0.1-1.3,0.3-2.1,0.8c-1.2,0.8-2.1,0.6-4-0.4c-1.9-1-1.9-2.7-2.6-3.9c-0.7-1.2-1.7,0.6-3.1-0.3  c-1.5-0.9-1.1-1.7-1.1-3.6s-2.9-1.2-4.9,0.1c-2,1.3-3.3,0.4-5,1.3c-1.8,0.9-1.9,2.9-3.9,2.7c-2-0.2-1.9,2.1-2.1,4.4  c-0.2,2.2-0.1,2.1-2.6,1.2c-2.5-0.9-5.4,0.9-8.2,0.9c-2.8,0-1.9-0.8-1.8-2.1c0.1-1.3-0.8-5.5,0-7.7c0.8-2.2-0.7-2.8-3-4.4  c-2.4-1.6-2.7-3.3-5.9-3.3c-3.3,0-1.5,4.7-1.2,7.3c0.2,2.6-2.4,3.8-4.5,2.7c-1.2-0.6-1.4-1.9-1.5-3.3c-0.6,1.2-3.2,6.2-3.5,8.3  C538,255,538.4,256.4,537.5,257z" stroke-miterlimit="10" stroke="#FFFFFF"/>
<path name="长沙市" fill="#D3D3D3" id="path7" d="M496.3,198.9c0,3.3-0.5,7.3-1.7,7.6c-1.2,0.3-2.6,1-4,0.1  s-2.5-0.9-2.6,0.5c-0.1,1.4-0.8,2.8-2.6,2.5c-1.8-0.3-4-1.5-5,0.2c-0.9,1.7-2.9,2.6-5.1,2.9c-2.2,0.3-5.3,2.7-7.1,4.6  c-1.7,1.9-3.4,5.1-4.8,3.1c-1.3-2-2.8-2.4-5.2-4c-2.5-1.6-5.2-4.1-11.6-0.3c-6.4,3.8-6.8,4.8-7.9,7.2c-1.1,2.4-3.1,4.8-4.6,5.7  c-1.5,0.9-2.2,2.5-1.2,3c1.1,0.5,2.3,1.9,1.7,3.9c-0.6,1.9,1,3.1-0.2,4.2c-1.2,1.1-1.5,3.8,0.6,4s4.1-1,5.3,0.5  c1.3,1.5,3.1,7.2,5.2,6.7c2.1-0.5,4.5-0.1,6,0.7c1.6,0.8,5.8,0.1,6.3-1.5c0.5-1.6-1-2,1.4-2.2c2.3-0.2,0.6-2.4,4.9-2.4  s12.3-0.8,14.8-0.8c2.4,0,2.5-2.2,2.1-3.5c-0.4-1.3-0.9-4.8,1.6-5.4c2.4-0.7,3.8-0.1,6.4,2.9c2.6,3,7.4,5.4,7.8,6.9s2,1,2.2,3.1  c0.2,2.1,2.7,5.1,3.1,3.6c0.4-1.5-0.4-6.1,1.5-5.4c1.9,0.7,5.4,2.4,6.4-0.2c1-2.6,3-6.5,3-8.1s3.5-3.4,4.8-1.8  c1.3,1.6,4.4,3.9,6.8,4.5c2.5,0.7,3.4-0.2,4.3-1.1c0.9-0.9,2.2-0.3,3.4,0.8c1.1,1.1,2,3.7,3.7,1.8c1.7-1.9,3.7-3.8,4.9-1.7  s0.1,5.2,2.2,6.3c2.1,1.1,4.7-0.1,4.5-2.7c-0.2-2.6-2-7.3,1.2-7.3c3.3,0,3.6,1.7,5.9,3.3c2.4,1.6,3.8,2.1,3,4.4  c-0.8,2.2,0.1,6.4,0,7.7c-0.1,1.3-1,2.1,1.8,2.1c2.8,0,5.7-1.8,8.2-0.9c2.5,0.9,2.4,1,2.6-1.2c0.2-2.2,0.1-4.6,2.1-4.4  c2,0.2,2.1-1.8,3.9-2.7c1.8-0.9,3,0,5-1.3c2-1.3,4.9-2,4.9-0.1s-0.3,2.7,1.1,3.6c1.5,0.9,2.5-0.9,3.1,0.3c0.7,1.2,0.7,2.9,2.6,3.9  c1.9,1,2.8,1.2,4,0.4c0.8-0.5,1.7-0.7,2.1-0.8c0-0.9,0.2-1.7,0.4-2.3c0.4-1.3,3.1-3.8,4.5-5.7c1.4-1.9,2.7-1,3.9-1  c1.2,0.1,1.5-0.4,1.7-1.5c0.1-1.2,2.6-1.7,5.2-1.8c2.6-0.1,3.6-2.7,4.2-3.8c0.6-1.1,1.7-0.4,2.9-0.2c1.2,0.1,2.4,0.6,3.5-1.5  c1-2.1-0.8-5-1.7-6.2c-0.9-1.2-3.2-4-2.1-5.7c1.1-1.7,1.8-1.5,3.5-0.2c1.8,1.3,3-0.2,5.1-1.7c2.2-1.5,3.9-3.9,4.5-5.7  c0.6-1.8,3-1,3.6-2.5c0.6-1.5,4.2-4.3,6.6-7.7c2.4-3.4-3.9-6.6-6-8.3c-2.1-1.7,1.9-4.3,1.9-5.4s-5.6-3.4-8.4-5.2  c-1.5-1-2.1-1.9-1.9-2.7c-0.7,0.4-2.7,1.3-3.3,1.7c-0.8,0.5-3,0.6-3.8-1.5c-0.8-2.1-3.9,0.3-5,1.8c-1,1.5-3.5,2.2-7.3,1.2  c-3.8-1-3.1,1.4-4,3c-0.9,1.6-1.5,4.7-3.9,4.4c-2.4-0.3-4,0.9-5.3,2.5c-1.3,1.6-3.4,0.6-4.4-1.4c-1-2-4.4-4-5.7-6.2  c-1.3-2.2-4.4-2.4-6.8-2.7c-2.4-0.2-4.4-1.5-5.5-3.9c-1.2-2.4-1.3-2.1-2.8-2.2c-1.5-0.1-1.5,0.1-2-1.8c-0.5-2-0.9-2.2-3-2.4  c-2.1-0.2-2.4,0.1-3.1,1.8c-0.7,1.7-2.4,2-3.3,0.7c-0.9-1.3-0.7-1.2-2.7-0.3c-2,0.8-3.6-1.7-5.5-2.7c-2-0.9-1.4,6-1.4,8.1  c0,2.1-1.2,4.7-4,7.5c-2.9,2.8-2.8,1-3.5-1c-0.7-2.1-3,0.7-3.7-0.8c-0.7-1.5-1.5-0.9-2.7,1.3c-1.2,2.2-2.1,3.6-5.3,3.6  c-3.2,0-2-1.8-1.5-3.4c0.5-1.5,1.7-2.8-0.6-1.7c-2.3,1-1.2,0-6.1-0.8c-5-0.8-2.3-0.9-4.5,0.5c-2.2,1.4-2.3,1.4-2.3-0.6  c0-2-0.2-1.6-1.6-2.4c-1.4-0.8-2.2,0.9-4.5,2.1c-2.3,1.2-3.2,2.3-6,1c-0.6-0.3-1-0.6-1.2-0.9c-0.5,0.7-3.5,4.5-4.5,5.8  C498.8,194.4,496.3,195.5,496.3,198.9z" stroke-miterlimit="10" stroke="#FFFFFF"/>
<path name="岳阳市" fill="#D3D3D3" id="path8" d="M475.1,95.6c1.7,0.2,3.3,1.7,3.5,3.3c0.2,1.7,0.7,3.4,1.8,3  c1.2-0.4,2.4,0.6,3.5,2.1c1.1,1.6,7.7,4.1,9,5c1.4,0.9,3.2-0.7,3.9-1.9c0.7-1.3,1.1-1.4,3.9-0.5c2.8,0.9,4.4,2.3,4.8,4.4  c0.5,2-2.7,3.8-1.6,5.7c1.2,1.9,0.7,5.7,7.4,5.7c6.7,0,10.5-1.9,12.9,1.3c2.4,3.2,2.9,11.6,1.3,13.4c-1.6,1.8-4.1,3.1-5.1,5.2  c-1,2.1-1.8,4.2-4.3,5.3c-2.5,1.2-4.5,2.2-5.4,3.6c-0.9,1.4-2.2,3.1-4.4,3c-2.2-0.1-4.6-0.9-3.7,1.2c0.9,2.1,1.6,5.4-1.3,5.9  c-2.9,0.5-4.6,0-4.9,1.8c-0.2,1.8-3.8,5.2-5.5,5.7c-1.7,0.5-1.6,4.9-1,6.1c0.6,1.3,4.3,1.4,4.9,2.9c0.6,1.5,0.6,1.6,0.2,3.6  c-0.3,2,0.3,4.9,2.2,5c1.8,0.1,4.5-2.2,5.7-3.8c1.2-1.6,3.3-3.7,4.2-1.8c0.8,1.8,2,2.4,0.1,3.7c-1.8,1.3-4.3,2.4-1.5,3.7  c2.8,1.3,3.7,0.1,6-1c2.3-1.2,3.1-2.9,4.5-2.1c1.4,0.8,1.6,0.5,1.6,2.4c0,2,0.1,2,2.3,0.6c2.2-1.4-0.5-1.3,4.5-0.5  c5,0.8,3.8,1.8,6.1,0.8c2.3-1,1,0.2,0.6,1.7c-0.5,1.5-1.7,3.4,1.5,3.4c3.2,0,4.2-1.4,5.3-3.6c1.2-2.2,2-2.8,2.7-1.3  c0.7,1.5,3-1.3,3.7,0.8c0.7,2.1,0.6,3.8,3.5,1c2.9-2.8,4-5.4,4-7.5c0-2.1-0.6-9,1.4-8.1c2,0.9,3.6,3.5,5.5,2.7  c2-0.8,1.7-0.9,2.7,0.3c0.9,1.3,2.7,1,3.3-0.7c0.7-1.7,1-2.1,3.1-1.8c2.1,0.2,2.5,0.5,3,2.4c0.5,2,0.5,1.7,2,1.8  c1.5,0.1,1.6-0.2,2.8,2.2c1.2,2.4,3.1,3.7,5.5,3.9c2.4,0.2,5.5,0.5,6.8,2.7c1.3,2.2,4.6,4.3,5.7,6.2c1,2,3.1,3,4.4,1.4  c1.3-1.6,2.9-2.9,5.3-2.5c2.4,0.3,3-2.8,3.9-4.4c0.9-1.6,0.2-4,4-3c3.8,1,6.2,0.3,7.3-1.2c1-1.5,4.2-3.9,5-1.8c0.8,2.1,3,2,3.8,1.5  c0.7-0.4,2.6-1.3,3.3-1.7c0.1-0.7,0.7-1.4,1.7-2c2.2-1.3,1.3-6.4,0.7-8.2c-0.6-1.8,0.2-4.1,1.6-6.3c1.5-2.2,0.2-5.5-0.5-8.8  c-0.7-3.3-1.3-2.7-3.5-2.8c-2.2-0.1-3.6-2.6-3.6-5.4s-0.7-1.9-2.1-1.9c-1.4-0.1-1.8-0.8-2.6-2.2c-0.8-1.4-0.9-0.9-2.6-0.9  s-3.5-5.2-3.8-7.7c-0.3-2.5-1.2-1.4-3.7-1.4s-3.5-1.4-4.3-3.2c-0.8-1.8-1.9-2.1-4.3-3.2c-2.4-1.1-2.6,0.1-4,2.4  c-1.4,2.3-3.3,1.1-3.3-1.5c0-2.6-0.6-1.2-1.4,0c-0.8,1.2-2.3-0.9-3.4-3.5c-1.1-2.6-1-5.5,1.2-8.5c2.2-3.1-5.3-3.5-6.7-4.8  c-1.4-1.3,0.7-4.3,2.7-5.8c2-1.5,1.8-4.4,1.8-6.8c0.1-2.3,4.1-2.1,5.6-2.5c1.5-0.4,2.4-1.7,1.4-6.1c-1-4.4-2.9-1.7-3.9-3.5  c-1-1.7-3-1.1-5.7-2c-2.6-0.9,1-2.8,3.5-3.5c2.5-0.7,1.5-2,3.6-3.4c2.2-1.4,0.3-2-0.6-2.4c-0.9-0.4-1.3-1.1-1.3-1.9  c0-0.7-0.3-1.5-1.6-1.5c-1.3-0.1-1.7-2-1.9-3.4c-0.3-1.5-3.3-0.7-5.2,0.3c-1.9,1-4.1,0.3-4.8-0.8c-0.7-1.1-0.9-1.6,0-3  c0.9-1.4,0.7-5,1.5-6.7c0.8-1.7,0.7-2.8-0.1-4c-0.8-1.1-2.7-0.3-3.6,1c-0.9,1.3-3.8,3.7-5.2,4.4c-1.4,0.7-5.9,5-7.6,7.7  c-1.7,2.7-5.7,6.7-8.9,9.6c-3.2,2.9-9.5,12.8-10.4,14.7c-0.8,1.9-2.1,1.3-2.1,0.2s-0.2-1.3-1.7-2.1c-1.5-0.7-2.1,0.9-3.5,2.1  s-1.2-4-1.7-5.1c-0.5-1.2-3.1,0.9-4.6,1.9c-1.5,1-3.8,2.2-5.1-0.9c-1.3-3.1-1.6-12.2-1.4-14.4c0.2-2.1,4.6-3.3,6.2-4.1  c1.6-0.8,1.6-7.4,0.7-8.1c-0.8-0.7-3.8,3.9-5.2,6.4c-1.4,2.5-2.2,0.7-2.5-1.7c-0.2-2.5,0.3-7.4-1.9-8.2c-2.2-0.7-5.9,3.3-7.1,4.5  c-1.2,1.2-2.6,3.3-2.6,5.5s-2.5,3.6-5.4,5c-2.9,1.3-2,2.7-2.8,4.8c-0.8,2.2-2.3,0.8-4.3-0.4c-2-1.3-5.1-0.4-9.2-0.3  c-4.1,0.2-3-0.2-4.5-1.6c-1.5-1.4-5.6,1.2-6.4,3c-0.6,1.5-6.2,5.1-9.4,7C472.2,89.3,473.7,95.4,475.1,95.6z" stroke-miterlimit="10" stroke="#FFFFFF"/>
<path name="常德市" fill="#D3D3D3" id="path9" d="M351.1,142.2c-1.4,3-1,4.3,0.3,5.9c1.3,1.6,2.8,1.6,3.2,3.5  s1.9,5,2.8,6.2c0.9,1.1,3.2,4.1,4.6,5c1.3,0.9,3.6,0.6,2.6,4.1c-1,3.5-0.7,3.6-2.1,3.6c-1.4,0-3.9,1-2.5,2c1.4,0.9,1.2,1.2,0.4,2.2  c-0.7,1.1-1.7,1-3,0.7c-1.2-0.2-2.4-1.8-3.9-0.2c-1.6,1.6-3.6,5.2-3.6,6.8c0,1.6,0.6,1.7,2.5,1.2c1.9-0.6,2.4-0.6,3.2-2  c0.8-1.4,3.4-3.5,3.6-1.7c0.2,1.7,3.5,7.3,2.2,7.3c-1.3,0-2.9-2-4.6-1.3c-1.7,0.7-3.2,0.6-4.2,2.1c-1,1.5-2.4,4-5,5.8  s-5.8,4.9-5.7,6c0.2,1.1,2.1,0.5,3.2,0.2c1.1-0.3,8.2-2.1,9.6-3.6c1.4-1.5,6.2-2.4,7.6-2.5c1.4-0.1,4.7-0.7,4.9-2.6  c0.2-2,0.3-2.2,2.3-2.7c2-0.5,2.9-1.4,4.4-0.7c1.5,0.7,3.7-1.2,5.1-0.5c1.4,0.7,6.7,1.7,7.8,0.3c1.1-1.5,1.8-2.5,3.7-1.7  c1.9,0.8,3.9-1.6,5.3-1.7c1.5-0.1,3.4-1.8,4.6-3.2s4.6-5.7,6.6-4.5c2,1.2,4.3,1.8,5.3,1.2c1-0.6,1.3,1.5,2.7,2.2  c1.4,0.7,5.3,1.1,5.8-0.4c0.5-1.5-2.5-3.7-0.7-4.2c1.9-0.5,3.5-0.4,4.5,0.5s1.9-0.3,3.3,1c1.4,1.3,0.2,1.4,1.9,0.7  c1.7-0.6,2.4-1.7,3.5-0.5c1.1,1.2,1.9,2.4,2.1,1c0.2-1.4-1.5-3.6-0.7-4.1c0.8-0.5,2.1-1.2,3.8,0.6c1.7,1.8,2.7,2.6,4.3,2.8  c1.6,0.2,3,0,3.3-1.3c0.2-1.3-0.8-2.9,0.4-2.9s2-0.1,3.4,1c1.4,1,4.5,2,5.8,1s1-3.4,2.6-2.9c1.6,0.5,2.4,0.9,3.7-0.5  c1.3-1.3,3.3-3.1,4.2-3.1s3.2-1.1,3-3.7c-0.1-2.5,0.4-2.7,1.4-3.6c1.1-0.9,0.9-3.8-0.7-5c-1.6-1.2-2.2-4.1-2.2-4.9  c0-0.8-0.1-5.8,0.6-7.2c0.7-1.4,0.1-5.2-0.2-7.3c-0.3-2,0.1-6.6-1-8c-1.1-1.4-5.8-2.4-5.9-4.6c-0.1-2.2-0.5-3.6,1.2-4.7  c1.8-1.1,2.7-2.7,2.1-4.6c-0.5-1.9-2.4-4.6-1.1-4.7c1.3-0.1,3.5-0.5,2.8-3.3c-0.7-2.7-0.7-2.3,0.5-3.7c1.2-1.4,4-4.8,3.2-7.6  c-0.8-2.8-1.9-6.4-0.8-7.4c-0.5-0.5,0.4-3.3,0.5-5.1c0.2-2.2-0.1-3.3-1.5-3.9c-1.4-0.5-3.3-0.9-3.4-2.4c-0.2-1.6-0.5-2.2-1.9-1.7  c-1.5,0.6-1.8-0.4-2-1.8c-0.3-1.4-0.7-2.6-1.8-1.3c-1,1.3-2.8,1-5.5,0.8s-3.9-7.3-3.7-8.8c0.2-1.5-0.8-1.8-1.4-1.3  c-0.6,0.5-2,0.3-5.9-2.9c-3.9-3.1-1.7-2.4-1.7-3.5c0-1.1-6.5-1.4-8.5-3c-2-1.7-4.2-2.5-8.7-4.2c-4.4-1.6-4.1-1.3-7.5-0.2  s-14-1.3-17.7-2.4c-3.7-1.1-4.7-0.9-6.5,0.1c-1.8,1-2.9-0.5-2.9-1.4c0-1-0.1-2.1-1-2.1s-2.1,0.7-2.8-1c-0.7-1.6-2.2-1.1-3.8-4.9  c-1.6-3.8-19.1-4.3-24.9-4.5c-5.8-0.2-7.6-2.2-7.6-4c0-1.8-1.3-3.1-3.1-3.4c-1.8-0.4-5.9-0.9-8.5,0.2c-2.5,1.1-3.4,0.5-5.4,0.5  c-2,0,1.8,3.4,2,5.6c0.2,2.2-4.9,4.3-6.5,2.2c-1.6-2.2-1.6-2.3-5.6-2.2c-4,0.2-6.7-0.7-10.1,1.6s1.6,4.3,1.6,4.3s1.7,1.1,2.5,1.6  c0.8,0.5-1.1,2-3.6,3.3c-2.5,1.3-0.4,4.7,0.4,6.8c0.8,2.1,5.1,4.9,7.2,6c2.1,1.1,2.8,2.7,1.5,6.9c0,0,0,0.1-0.1,0.1  c0.6,0.6,2.1,2.2,3.1,3.4c1.3,1.5,3,3.3,4.5,4.4s3.3,0.9,3.4-0.3c0.1-1.2,0.9-1.9,1.6-1.3c0.8,0.6-0.2,2.3,0.9,2.8  c1.1,0.4,2.8-1.9,3.9-1.5c1.1,0.4,2.1,2.3,3.5,1.7c1.4-0.6,3-1.3,5.5-0.2c2.5,1.1,5,2,7,2c2,0,3.8,4.8,5.9,4.9  c2.2,0.1,3.3-0.3,4.5,0.4s2.7,0.7,4.3,0.4c1.7-0.4,5-0.9,7.1,1c2.2,2,2.9,4.3,4.2,5.4c1.3,1,1.3,2.6,2.8,3.7c1.5,1.1,3,1.9,0.8,3.6  c-2.2,1.7-1.8,2-1.2,3.8c0.5,1.9,0.7,4-0.5,4.1c-1.1,0.2-1.8,0.3-2.7-0.1c-0.9-0.4-2.6-0.7-2.6,0.4c0,1.1-0.8,2.7-1.4,3.9  c-0.5,1.1-0.2,5.6-0.2,7.1c0,1.4-0.2,5.3-2,5.4s-4.1-1.8-5.2-1.4c-1.1,0.4-1.7,0.8-2.6,2.8c-0.9,1.9-2.5,5.8-4.9,6.4  c-2.4,0.6-4.3-0.2-5.5,0.3s-2.4,2.5-4.1,2.1c-1.7-0.4-2.7-2.6-5.1-1.3c-2.4,1.3-5.1,0.9-5.1,2.6c0,1.7-0.8,3.4,2.3,4.7  c2.6,1.1,3.5,0.9,3.5,2.2C348,136.2,352.4,139.3,351.1,142.2z" stroke-miterlimit="10" stroke="#FFFFFF"/>
<path name="吉首市" fill="#D3D3D3" id="path10" d="M296.2,143.4c-3.3-1.1-0.9-3,0.3-5.4c1.1-2.4-1.1-2.4-3-3.2  c-1.9-0.8-1.4-4.4-3-4.6c-1.6-0.1-0.9-0.8-1.5-2.9c-0.6-2.2-1.6-3-3-3c-1.4,0-2.7-1.5-3.2-2.5c-0.5-1-1-1.4-2.4-0.4  c-1.4,1-3.9,1-5.6-0.6c-1.6-1.6-0.4-2.4,0.6-4.2c1-1.8,1-4.8-0.8-7.5c-1.8-2.7-2.7-0.3-4.7,0.1c-2,0.4-4.9-0.6-7.3-0.6  s-1.1-2-0.6-4.3c0.5-2.3-0.8-5.8-2-8c-1.3-2.2-4.5-0.1-6.7,2.5c-2.1,2.7-3.8-1.8-4.5-4.8s-3.4-4.4-4.9-5.4c-1.5-1-1.5-2.5-0.5-3.7  c1-1.1,2.7-3.2,2.4-6.2c-0.2-2.6-4.2-3-5.2-3c-0.6,0.7-1.4,1.4-2.2,1.8c-2,1.1-3.2,0.4-5.7-2.3c-2.5-2.7-6.1,1.7-8.7,2.8  c-2.5,1.1-3.6,2.4-3.7,3.9c-0.1,1.5-0.4,3.1-2.1,3.1s-0.4,1.5-2.3,3.1c-1.9,1.6-0.4,3.6-1.9,4.8c-1.5,1.2,0.4,2.5,1.1,4.5  c0.7,2-2.7,2.4-5.7,2.4c-3.1,0-1.6,4.7-1.1,7.6c0.5,2.9-2.9,5.2-4.9,5.6s-1.6,4.8-2.1,8c-0.5,3.2-2.4,2.7-4.1,4  c-1.7,1.3,5.6,5.3,8,6.4c2.4,1.1-3.5,9.2-5.7,11.9c-2.3,2.7-1.2,9.7-0.8,14.1c0.4,4.4,2.3,5.5,3.5,7.2c1.2,1.7-3.6,7.6-7.5,10.4  c-3.9,2.8,3.9,2.3,6.1,1.6c2.3-0.7,3.1-0.3,3.2,1.7c0.1,2-3.2,7.1-4.1,9.2c-0.9,2.1,0,5.5,0.1,7.9c0.1,2.4,0.3,3.3,1.1,4.3  c0.8,0.9,0.5,0.7-0.5,2.4c-1.1,1.7,0.4,4.9,0.5,7.3c0.1,2.4,1.1,1.2,2.4,0.7c1.3-0.5,2.3-0.8,2.5,0.4c0.3,1.2,1.1,0.5,2.7,2  c1.6,1.5-2.1,1.2-3.6,3.1s0.3,4,0.4,6.1s-3.2,9.6-4.3,11.3c-1.1,1.7,1.3,1.6,3.6,0.4c2.3-1.2,2,0.3,1.9,2.1s-2.4,3.6-2.9,4.7  c-0.5,1.1,0.1,8.9,0.1,10.8s-0.1,6.5-2.3,8.7c-2.1,2.1,0.5,2.1,2,2.7c1.5,0.5,1.9,1.2,3.2,3.1c1.3,1.9,3.5,0.8,4.8,0.1  c0.4-0.2,0.8-0.3,1-0.4c0.2-0.8,0.7-2.7,0.7-3.8c0-1.3,2.2-1.5,4.5-1.4s0.8-0.3,2.5-0.8c1.6-0.5,1.7,0.2,2.3,1.4  c0.6,1.2,3-0.7,4.9-0.9c1.9-0.2,2.5-1.8,4.2-3c1.7-1.1,0-3.8-1.5-5.3c-1.5-1.5-0.7-3.2,0.8-2.9c1.5,0.3,2.2-0.5,5.4-2.5  c3.1-2,2.8-4.4,3.5-6c0.7-1.6,0.3-2.8,1.6-3.2s2.2,1.4,2.3,3.7c0.1,2.3,2.6,1.3,4.1,1.4c1.5,0.1,3.8,1,5.9,3c2.1,1.9,3.4,0,5.5-0.4  c2.1-0.4,4.6,3,6.6,3.9c1.9,1,2.3-1.2,2.4-2.4c0.1-1.3,1.3-4.1,3.2-4.1c1.8,0,2.5-2.7,3.7-4.6c1.2-1.9,1.2-3.9,0.5-5.3  c-0.7-1.4,0.7-1.8,2.1-2.2c1.4-0.4,1.5-3,2.7-5.2c1.2-2.2,2.8-4.5,3.5-5.1c0.7-0.7,0.9-1.2,0.9-2.7s-2.7-3-3.6-4.4  c-0.9-1.4,0.5-4,0.2-5.7c-0.2-1.7,0.5-1.6,1.8-2.9c1.3-1.3,0.5-1.8-1-2.7c-1.5-0.9-2.6-1.6-3.6-1.6c-1.1,0-2.7-3.1-3.1-5.5  c-0.5-2.5,0.6-1.3,2.7-1.3c2.2,0,1-2.3,1-3.9s-1-2.9,0.2-3.9c1.2-1,0.8-3.9,1.9-5.2c1.1-1.3,2.3,1.1,3.7,2.4  c1.4,1.3,0.5-4.6,0.2-6.7c-0.3-2,0.9-1.7,2.3-1.6c1.4,0.1,1-1.3,2.3-2.4s0.8-5.5,0.7-7.6c-0.2-2,2.5-0.5,4.1-0.2  c1.5,0.3,2-5.7,2.7-7.3c0.7-1.5,1.7-2.5,1.7-4.2c0-1.7,1.6-2.5,2.7-3.1c-0.2-0.6-0.5-1.5-0.5-2.6  C300.7,144.6,299.5,144.5,296.2,143.4z" stroke-miterlimit="10" stroke="#FFFFFF"/>
<path name="张家界市" fill="#D3D3D3" id="path11" d="M383.9,89.2c-1.5-1.1-1.5-2.7-2.8-3.7c-1.3-1-2-3.4-4.2-5.4  c-2.2-2-5.5-1.4-7.1-1c-1.7,0.4-3.1,0.4-4.3-0.4s-2.3-0.3-4.5-0.4c-2.2-0.1-3.9-4.9-5.9-4.9c-2,0-4.5-0.9-7-2  c-2.5-1.1-4.1-0.4-5.5,0.2c-1.4,0.6-2.4-1.3-3.5-1.7c-1.1-0.4-2.8,1.9-3.9,1.5c-1.1-0.4-0.1-2.2-0.9-2.8c-0.8-0.6-1.5,0.1-1.6,1.3  c-0.1,1.2-1.8,1.3-3.4,0.3s-3.3-2.9-4.5-4.4c-1-1.2-2.5-2.8-3.1-3.4c-1.4,4.2-7.9,5.9-11.3,5.6c-3.5-0.3-2.1,0.7-6.1,3.9  c-4,3.2-5.3,0.1-7.6,0c-2.3-0.1-3.2-0.1-6-3.9c-2.8-3.7-9.5-5.6-12.7-7.3c-3.2-1.7-12.3-0.4-15.9-0.9c-3.6-0.5-4.9-0.1-10,0.5  c-5.1,0.7-5.7,3.3-5.9,5.2s-2.5,4.7-5.1,4.7c-2.5,0-0.8,1.3,0,2.7c0.5,0.8,0.1,1.8-0.7,2.7c1,0,5,0.4,5.2,3c0.3,3-1.4,5.1-2.4,6.2  c-1,1.1-1,2.7,0.5,3.7c1.5,1,4.2,2.4,4.9,5.4s2.4,7.5,4.5,4.8c2.1-2.7,5.4-4.7,6.7-2.5c1.3,2.2,2.5,5.7,2,8  c-0.5,2.3-1.8,4.3,0.6,4.3s5.3,1,7.3,0.6c2-0.4,2.9-2.8,4.7-0.1c1.8,2.7,1.8,5.7,0.8,7.5c-1,1.8-2.3,2.5-0.6,4.2  c1.6,1.6,4.2,1.6,5.6,0.6c1.4-1,1.9-0.6,2.4,0.4c0.5,1,1.8,2.5,3.2,2.5c1.4,0,2.4,0.9,3,3c0.6,2.2-0.1,2.8,1.5,2.9  c1.6,0.1,1.1,3.8,3,4.6c1.9,0.8,4.2,0.8,3,3.2c-1.1,2.4-3.5,4.3-0.3,5.4c3.3,1.1,4.5,1.2,4.5,2.9c0,1.1,0.3,2,0.5,2.6  c0,0,0.1,0,0.1-0.1c1-0.6,5,1.5,6.1,1.9c1.1,0.4,1.3-1.8,2.2-2.3c1-0.5,1.2,0.7,1.5,1.5c0.3,0.9,1.1,1.7,2.1,1.7s-0.2-3.9-1-4.8  c-0.8-0.9-0.6-1.8,0.6-2.6c1.2-0.8,0.8-2.2,1.2-4c0.4-1.8,2.7-0.8,3.5,0.5c0.8,1.3,1.3,1.6,2.5,1.4s3.2,2,4,3.8  c0.8,1.8,1.2,0.8,2.7,0.7s1.5,0.8,2.7,0.9c1.2,0.1,1.5-1.5,1.9-0.9c0.4,0.7,1.1,1.8,2.6,1.7c1.6-0.1,2.2-1.2,2.3-2.9  c0.1-1.7,1.4-1.4,3.4-1.7c2-0.4,1.1-3.2,1.3-4.1c0.1-0.9,1.9-1.2,3.5-0.3s2.4-0.1,2.8-2.5c0.4-2.4-0.3-1.9-3.4-3.2  c-3.1-1.3-2.3-2.9-2.3-4.7c0-1.7,2.7-1.3,5.1-2.6c2.4-1.3,3.4,0.9,5.1,1.3c1.7,0.4,2.9-1.5,4.1-2.1s3.1,0.3,5.5-0.3  c2.4-0.6,4-4.5,4.9-6.4c0.9-1.9,1.5-2.4,2.6-2.8c1.1-0.4,3.4,1.6,5.2,1.4s2-4,2-5.4c0-1.4-0.4-5.9,0.2-7.1c0.5-1.1,1.4-2.7,1.4-3.9  c0-1.1,1.7-0.8,2.6-0.4c0.9,0.4,1.6,0.3,2.7,0.1c1.1-0.2,1-2.3,0.5-4.1c-0.5-1.9-0.9-2.1,1.2-3.8C386.9,91.1,385.5,90.3,383.9,89.2z  " stroke-miterlimit="10" stroke="#FFFFFF"/>
<path name="怀化市" fill="#D3D3D3" id="path12" d="M350.2,235.7c-1.5,0.5-2.3,1.4-3.2,2.9c-0.9,1.5-2.8,3.4-4,3.1  c-1.2-0.3-3.2-1.8-2.3-3c0.9-1.2,3.9-3.1,2.3-4.8c-1.6-1.7-1.7-2.4-3-1.3s-3.4,1.5-3.1-0.3c0.3-1.9,3-2.2,1.7-3  c-1.3-0.8-1.8-1-1.4-2.5c0.4-1.5,0.1-2.2-0.9-2.4c-1-0.2-1.6-0.9-1.6-2.9c0-2-0.1-2.7,0.6-4.1c0.7-1.5,0.7-3.1-0.7-3.6  c-1.4-0.5-4.6-2.7-4.1-3.4c0.4-0.7,2.5-3.1,5.1-3.3c2.6-0.2,3.4-1.6,3.5-2.7c0.1-0.9,2.2-4,2.8-4.8c0,0,0,0,0,0  c-0.2-1.1,3-4.3,5.7-6s4-4.3,5-5.8c1-1.5,2.5-1.4,4.2-2.1c1.7-0.7,3.3,1.3,4.6,1.3c1.3,0-2-5.6-2.2-7.3c-0.2-1.7-2.8,0.3-3.6,1.7  c-0.8,1.4-1.3,1.4-3.2,2c-1.9,0.6-2.5,0.5-2.5-1.2c0-1.6,2.1-5.3,3.6-6.8c1.6-1.6,2.7,0,3.9,0.2c1.2,0.2,2.2,0.3,3-0.7  c0.7-1.1,1-1.3-0.4-2.2c-1.4-0.9,1-2,2.5-2c1.4,0,1-0.1,2.1-3.6c1-3.5-1.2-3.1-2.6-4.1c-1.3-0.9-3.6-3.9-4.6-5  c-0.9-1.1-2.4-4.3-2.8-6.2s-1.9-1.9-3.2-3.5c-1.3-1.6-1.7-2.8-0.3-5.9c1.3-2.8-3.1-6-3.6-6.4c0,0.3,0,0.6-0.1,1  c-0.4,2.4-1.2,3.3-2.8,2.5s-3.4-0.6-3.5,0.3c-0.1,0.9,0.7,3.7-1.3,4.1c-2,0.4-3.3,0-3.4,1.7c-0.1,1.7-0.7,2.8-2.3,2.9  c-1.6,0.1-2.3-1-2.6-1.7c-0.4-0.7-0.7,1-1.9,0.9c-1.2-0.1-1.2-1.1-2.7-0.9s-1.9,1.2-2.7-0.7c-0.8-1.8-2.7-4-4-3.8s-1.8-0.1-2.5-1.4  c-0.8-1.3-3.1-2.3-3.5-0.5c-0.4,1.8,0,3.2-1.2,4c-1.2,0.8-1.4,1.6-0.6,2.6c0.8,0.9,2,4.8,1,4.8s-1.8-0.8-2.1-1.7  c-0.3-0.9-0.5-2.1-1.5-1.5c-1,0.5-1.2,2.8-2.2,2.3c-1.1-0.4-5-2.5-6.1-1.9c-1,0.6-2.7,1.4-2.8,3.2c-0.1,1.8-1,2.7-1.7,4.2  c-0.7,1.5-1.1,7.5-2.7,7.3c-1.6-0.3-4.2-1.8-4.1,0.2c0.2,2,0.7,6.4-0.7,7.6s-0.9,2.6-2.3,2.4c-1.4-0.1-2.6-0.4-2.3,1.6  c0.3,2,1.2,8-0.2,6.7c-1.4-1.3-2.6-3.7-3.7-2.4c-1.1,1.3-0.7,4.2-1.9,5.2c-1.2,1-0.2,2.3-0.2,3.9s1.2,3.9-1,3.9  c-2.2,0-3.2-1.2-2.7,1.3c0.5,2.5,2.1,5.5,3.1,5.5c1.1,0,2.2,0.7,3.6,1.6c1.5,0.9,2.3,1.4,1,2.7c-1.3,1.3-2.1,1.2-1.8,2.9  c0.2,1.7-1.2,4.3-0.2,5.7c0.9,1.4,3.6,2.9,3.6,4.4s-0.2,2-0.9,2.7c-0.7,0.7-2.3,2.9-3.5,5.1c-1.2,2.2-1.3,4.9-2.7,5.2  c-1.4,0.4-2.8,0.8-2.1,2.2c0.7,1.4,0.7,3.3-0.5,5.3c-1.2,1.9-1.9,4.6-3.7,4.6c-1.8,0-3,2.8-3.2,4.1c-0.1,1.3-0.5,3.4-2.4,2.4  c-1.9-1-4.5-4.3-6.6-3.9c-2.1,0.4-3.4,2.3-5.5,0.4c-2.1-1.9-4.3-2.9-5.9-3c-1.5-0.1-4.1,0.9-4.1-1.4c-0.1-2.3-1-4.1-2.3-3.7  s-1,1.6-1.6,3.2c-0.7,1.6-0.4,4-3.5,6c-3.1,2-3.9,2.8-5.4,2.5c-1.5-0.3-2.2,1.4-0.8,2.9c1.5,1.5,3.1,4.1,1.5,5.3  c-1.7,1.1-2.3,2.8-4.2,3c-1.9,0.2-4.3,2.1-4.9,0.9c-0.6-1.2-0.7-1.8-2.3-1.4c-1.6,0.5-0.2,0.8-2.5,0.8s-4.5,0.1-4.5,1.4  c0,1.2-0.5,3-0.7,3.8c0.5-0.1,0.4,0.3-0.2,1.2c-0.9,1.3,0.4,1.5,1.5,1.6c1.1,0.1,1.1,10.7,1.2,13.1c0.1,2.4-2,3.7-4.8,3.7  c-2.8,0-3.2,2-6.4,4c-3.2,2-1.7,3.5-3.7,6c-2,2.5-3.9,2.3-6.1,0.3c-2.3-2-2-0.9-3.5,0.1c-1.5,1.1-1.9,0.7-3.5-0.4  c-1.6-1.1-1.5,1.9-2.1,3.6c-0.7,1.7-1.5,3.1-2.5,5.2c-1.1,2.1-4.9,4.7-6.1,6.9c-1.2,2.3-5.5,4.8-8.7,6.9c-3.2,2.1-2.8,4.1-2.8,6.5  c0,2.4-6.5,5.1-8.8,5.7c-2.3,0.7-1.7,1.9-0.3,2.3c1.5,0.4,3.2,2.7,3.7,4.8c0.5,2.1,2.7,1.5,6.3,0.4c3.6-1.1,3.9-2.9,4.5-4.5  c0.7-1.6,1.6-2.5,3.3-2.4c1.7,0.1,4.9-1.7,7.6-3.2s2.3,1.3,1.2,3.2c-1.1,1.9,0.8,2.3,4.1,1.3c3.3-0.9,5.6-3.9,6.4-5.9  c0.8-2,2.4,0.7,5.3,0.1c2.9-0.5,4.9-1.3,6.8-1.9c1.9-0.5,4.4,0,6,2.1c1.6,2.1,2.3,1.1,3.6,1.5c1.3,0.4-0.4,2.9-0.4,4.1  c0,1.2,2.1,2.8,3.9,3.5c1.7,0.7,0.9,1.2,1.3,3.3c0.4,2.1,2.7,4.5,3.7,5.9c1.1,1.3-2.3,2.5-4.1,2.5s-2.8,2.3-4.4,3.2  c-1.6,0.9-0.7,2.9,0.7,1.3c1.3-1.6,2-0.4,3.3-0.4c1.3,0,1.7,1.1,1.6,3.5c-0.1,2.4,0.8,2.3,0.9,3.6c0.1,1.3-0.7,2.5-2.9,2.4  c-2.3-0.1-4.5,1.6-5.6,2.3c-1.1,0.7-3.3,1.6-3.9,2.8c-0.5,1.2-4.1,0.4-5.7,0.1c-1.6-0.3-2.4,0.5-2.9,2.9c-0.5,2.4,1.1,2.1,3.7,2.1  c2.7,0,3.1,0.9,3.1,2.8c0,1.9,0.5,4,1.7,6.1c1.2,2.1-1.1,4.9-2.3,6.5c-1.2,1.6-0.8,4.1-2.9,5.3c-2.1,1.2-2.5,1.6-3.3,3.3  c-0.8,1.7-1.1,4.7-3.1,6.5c-2,1.9,1.1,4.9,2.9,6.9c1.9,2,3.9,1.5,4.7,0.5c0.8-0.9,1.3-1.2,4.3-1.2c2.9,0,3.1-2.3,3.6-3.5  c0.5-1.2,1.1-0.3,2.3,1.5c1.2,1.7-1.6,3.3-3.1,4.7c-1.5,1.3-0.3,2.1,1.1,4.8c1.3,2.7,1.1,4.3,2.8,6.3s-0.9,4.8-2.3,5.6  c-1.3,0.8,0,4.7,0.8,6.9c0.8,2.3,3.5,2.7,4.4,1.5c0.9-1.2,2.1-2.1,4.5-2.1c2.4,0,2.3-1.5,4.3-2c2-0.5,2.5,0.9,3.5,2.7  c0.9,1.7,2.8,0.9,4.9,1.6c2.1,0.7-3.1,6.5-3.1,6.5s-1.2,2.3-1.6,4.5c-0.4,2.3,2.9,1.1,6.3,1.2c3.3,0.1,3.5,0.9,6.1-1.5  c2.7-2.4,1.5-5.1,0-6.7c-1.5-1.6-2.7-3.6-1.6-5.5c1.1-1.9,3.5-0.8,6.3-1.7c2.8-0.9,3.2-6,4.1-8.5c0.9-2.5,0.1-3.9,3.9-5.9  c0.8-0.4,1.4-0.7,1.9-0.8c-0.1-0.6-0.1-2.1,1.9-3.9c2.5-2.3,3.2-4.8,2.7-7c-0.5-2.2,0.2-3,0.5-4.5c0.3-1.5,0.5-12.1-2.2-12  c-2.7,0.2-5.3-0.8-6.7-1.9c-1.4-1.1,0.3-3.5-1.5-5.3c-1.8-1.8-4.2-7.7-2.3-8.2c1.9-0.5,3.2-1.4,3.8-2.9c0.5-1.5,4-5.1,5.9-3.3  c1.9,1.7,3.7,2.3,6.6,0c2.9-2.3,2.7-2.1,2.6-3.7c-0.1-1.6,1.7-5.5,0.3-6.6c-1.5-1-1.9-1.6-0.3-3c1.6-1.4,3.4-4.5,3.3-6.3  c-0.1-1.7-0.7-3.7,1.3-4.9c2-1.2,2.8-2.9,3.1-4.4c0.3-1.5,1.2-2.2,2.2-2.4c1-0.2,3-0.7,3-3.5s2.8-5.7,4.9-5.5s8.5-2.6,8.2-4.6  c-0.2-2-0.9-3.9,0.5-4.5c1.4-0.6,0.7-1.5,4.3-0.4c3.6,1.1,6,0.2,7.6-3.2c1.7-3.4,6.7-4.3,8.3-3.4c1.6,0.8,2.7,0.8,3.4-0.8  c0.8-1.7,1.1-4.7,3.1-5.4c2-0.7,6.3-0.8,4.8-3.4c-1.5-2.5-2.1-2.6-1.1-3.8c1.1-1.2,1.3-3.1,0.2-4c-1.1-0.9-3.7-0.5-3.3-2.2  c0.4-1.8,1-0.7-0.3-2.1c-1.3-1.5-0.7-2.6,0.1-4.5c0.8-1.9,1.4-4,4.3-5.2c2.9-1.2,3-2.6,3.4,2.1c0.5,4.7,3.9,7.6,4.7,5.3  c0.8-2.4,3.9-5.4,5.6-7.6c1.4-1.8,1.4-3.8,1.3-4.5c-1.1-0.7-1.9-1.6-2.9-2.5c-2.3-2-1.4-4.5-3.1-6.3s-3.8-3.2-3.5-5.7  c0.2-2.5,2.9-2.5,6.5-2.8c3.5-0.3,3.7-1.5,4.6-3.2c0.9-1.8,3-1.9,4.9-3.7c1.8-1.8,1.2-2.7,1.5-4.9c0.3-2.2,1.8-1.6,3.4-2.7  c1.6-1.1,0.1-2.1,0-3.6c-0.1-1.2,0.8-1.3,1.9-1.3C354.6,238.2,351.6,235.2,350.2,235.7z" stroke-miterlimit="10" stroke="#FFFFFF"/>
<path name="益阳市" fill="#D3D3D3" id="path13" d="M524.3,123.7c-2.4-3.2-6.1-1.3-12.9-1.3c-6.7,0-6.2-3.7-7.4-5.7  c-1.2-1.9,2-3.7,1.6-5.7c-0.5-2-2-3.5-4.8-4.4c-2.8-0.9-3.2-0.8-3.9,0.5c-0.7,1.3-2.5,2.8-3.9,1.9c-1.4-0.9-7.9-3.4-9-5  c-1.1-1.6-2.3-2.5-3.5-2.1c-1.2,0.4-1.6-1.4-1.8-3c-0.2-1.7-1.7-3.1-3.5-3.3c-1.4-0.2-2.9-6.3-3.4-8.6c-0.9,0.5-1.5,0.9-1.9,1.1  c-0.3,0.2-0.5,0.2-0.6,0c-1.1,1,0,4.6,0.8,7.4c0.8,2.8-1.9,6.2-3.2,7.6c-1.2,1.4-1.2,1-0.5,3.7c0.7,2.7-1.5,3.2-2.8,3.3  c-1.3,0.1,0.5,2.7,1.1,4.7c0.5,1.9-0.4,3.5-2.1,4.6c-1.8,1.1-1.3,2.5-1.2,4.7c0.1,2.2,4.9,3.2,5.9,4.6c1.1,1.4,0.7,5.9,1,8  c0.3,2,0.9,5.8,0.2,7.3c-0.7,1.4-0.6,6.4-0.6,7.2c0,0.8,0.6,3.7,2.2,4.9c1.6,1.2,1.8,4.1,0.7,5c-1.1,0.9-1.6,1.1-1.4,3.6  c0.1,2.5-2.1,3.7-3,3.7s-2.9,1.7-4.2,3.1c-1.3,1.3-2,1-3.7,0.5c-1.6-0.5-1.3,1.9-2.6,2.9s-4.4,0-5.8-1c-1.4-1-2.1-1-3.4-1  s-0.2,1.6-0.4,2.9c-0.2,1.3-1.7,1.5-3.3,1.3c-1.6-0.2-2.6-1-4.3-2.8c-1.7-1.8-3-1.1-3.8-0.6c-0.8,0.5,0.9,2.7,0.7,4.1  c-0.2,1.4-1.1,0.2-2.1-1c-1.1-1.2-1.8-0.1-3.5,0.5c-1.7,0.6-0.6,0.6-1.9-0.7c-1.4-1.3-2.3-0.1-3.3-1s-2.6-1-4.5-0.5  c-1.9,0.5,1.2,2.7,0.7,4.2c-0.5,1.5-4.5,1.1-5.8,0.4c-1.4-0.7-1.7-2.8-2.7-2.2c-1,0.6-3.3,0-5.3-1.2c-2-1.2-5.4,3.1-6.6,4.5  s-3.2,3.1-4.6,3.2c-1.5,0.1-3.4,2.5-5.3,1.7c-1.9-0.8-2.6,0.3-3.7,1.7c-1.1,1.5-6.4,0.4-7.8-0.3c-1.4-0.7-3.6,1.2-5.1,0.5  c-1.5-0.7-2.4,0.2-4.4,0.7c-2,0.5-2.1,0.7-2.3,2.7c-0.2,2-3.5,2.6-4.9,2.6c-1.4,0.1-6.2,1-7.6,2.5c-1.4,1.5-8.5,3.3-9.6,3.6  c-1,0.3-3,0.9-3.2-0.1c-0.6,0.8-2.6,3.9-2.8,4.8c-0.1,1.1-1,2.5-3.5,2.7c-2.6,0.2-4.6,2.7-5.1,3.3c-0.4,0.7,2.7,2.9,4.1,3.4  c1.4,0.5,1.3,2.1,0.7,3.6c-0.7,1.5-0.6,2.1-0.6,4.1c0,2,0.7,2.7,1.6,2.9c1,0.2,1.3,1,0.9,2.4c-0.4,1.5,0.1,1.7,1.4,2.5  c1.3,0.8-1.4,1.1-1.7,3c-0.3,1.9,1.8,1.4,3.1,0.3s1.4-0.4,3,1.3c1.6,1.7-1.4,3.6-2.3,4.8c-0.9,1.2,1.1,2.7,2.3,3  c1.2,0.3,3.1-1.6,4-3.1c0.9-1.5,1.6-2.3,3.2-2.9c1.4-0.5,4.4,2.5,5,3.2c0.3,0,0.6,0,0.9,0c1.5,0.1,3,1.7,4.3,2.4  c1.2,0.7,1.5-1.5,2.3-3.2c0.8-1.7,0.3-2.7,1.9-3.4c1.6-0.7,3-4.6,3.4-6.2c0.4-1.6,3.2-2.6,7-2.7c3.7-0.1,2-2.3,3.2-4  c1.2-1.7,1.3-2.9,4.8-3.3c3.5-0.4,1.4,1.4,0.5,2.6c-0.9,1.2,0.4,0.9,2.2,1.4s3.3,0.8,4.8-0.3c1.5-1,2.4-1.1,2.4,0c0,1.1,0.5,1,1.6,1  s2-2.3,2.9-1.9c0.8,0.4-1.7,8.3-0.8,9.9c1,1.6,3.7,0,4.1,1c0.4,1-2.8,2.3-3.7,4.3c-0.9,2,1.8,0.6,3.9,0.3c2.1-0.3,1.5,0.1,2.7,1.4  c1.2,1.3,1.4,1.6-0.1,2.2s-0.9,1.5,0.6,2.3c1.5,0.8,2.1,0.1,2-2.1c-0.1-2.2,2.1-1.7,4.5-1.2c2.4,0.6,2-1.3,3.1-1.3s2,0.6,2.2,3.6  c0.3,3,3.1,1.7,4.8,1.1c1.7-0.6,2.2-3.2,2.9-4.3c0.7-1,2.2,0.1,3.6,1.2c1.3,1,1.6,0.4,1.9-1c0.2-1.1,4.3-0.4,5.7-0.1  c-0.1-0.8-0.6-1.7-0.2-3c0.6-1.9-0.7-3.4-1.7-3.9c-1.1-0.5-0.3-2.1,1.2-3c1.5-0.9,3.5-3.3,4.6-5.7c1.1-2.4,1.5-3.3,7.9-7.2  c6.4-3.8,9.2-1.3,11.6,0.3c2.5,1.6,3.9,2,5.2,4c1.3,2,3.1-1.1,4.8-3.1c1.7-1.9,4.9-4.3,7.1-4.6c2.2-0.3,4.2-1.2,5.1-2.9  c0.9-1.7,3.2-0.5,5-0.2c1.8,0.3,2.5-1.1,2.6-2.5c0.1-1.4,1.3-1.3,2.6-0.5s2.8,0.2,4-0.1c1.2-0.3,1.7-4.3,1.7-7.6  c0-3.3,2.5-4.5,3.7-5.9c1.1-1.3,4-5.1,4.5-5.8c-0.5-0.9,1.2-1.8,2.7-2.8c1.8-1.3,0.7-1.8-0.1-3.7c-0.8-1.8-3,0.2-4.2,1.8  c-1.2,1.6-3.8,3.9-5.7,3.8c-1.8-0.1-2.5-3-2.2-5c0.3-2,0.3-2.1-0.2-3.6c-0.6-1.5-4.3-1.6-4.9-2.9c-0.6-1.3-0.7-5.7,1-6.1  c1.7-0.5,5.3-3.8,5.5-5.7c0.2-1.8,2-1.4,4.9-1.8c2.9-0.5,2.2-3.8,1.3-5.9c-0.9-2.1,1.5-1.3,3.7-1.2c2.2,0.1,3.5-1.6,4.4-3  c0.9-1.4,2.9-2.4,5.4-3.6c2.5-1.2,3.3-3.2,4.3-5.3c1-2.1,3.5-3.5,5.1-5.2C527.2,135.3,526.7,126.9,524.3,123.7z" stroke-miterlimit="10" stroke="#FFFFFF"/>
</svg>