<?xml version="1.0" encoding="UTF-8" standalone="no"?><!-- Generator: Adobe Illustrator 18.0.0, SVG Export Plug-In . SVG Version: 6.00 Build 0)  --><svg xmlns="http://www.w3.org/2000/svg" xmlns:xlink="http://www.w3.org/1999/xlink" contentScriptType="text/ecmascript" zoomAndPan="magnify" contentStyleType="text/css" id="图层_1" mapName="澳门特别行政区" mapType="省市地图" enable-background="new 0 0 800 600" version="1.1" xml:space="preserve" preserveAspectRatio="xMidYMid meet" viewBox="0 0 800 600" x="0px" y="0px">
<path fill="#D3D3D3" id="path0" d="M373.1,290.4c3.9-4.3,8.5-3.9,13.1-2.8c8.3,2,16.6,4,25.3,3.6  c0.5,0,1,0,1.5,0.1l-0.5-0.7c-2.9-6.6-2.9-13.7-3-20.6c-0.5-23.2-0.8-46.4-1.1-69.6c-0.4-24.4-0.9-48.8-0.9-73.2  c0-7.4-1-14.3-3.7-21.2c-1.2-3-2.1-6.2-3.1-9.3l-1-3c0.2,3.4,0.3,6.8,0.5,10.2c0.3,4.1,0.8,8.2,1.2,12.1c-2.7,1.4-4.8,2.4-6.9,3.5  c-1.7,3.7-3.4,7.5-5.1,11.3l-0.5,1.5c-3.7-2-7.5-3.9-11.2-5.9c-2.2,2.8-5.4,5.2-1.7,9c-2.3,1.2-4.2,2.1-6.7,3.4c0,3.8,0,8,0,12.1  c-4.9,1.6-9.4,3.1-13.9,4.6l-7.7,2.6c6.2-0.9,12.3-1.7,18.1-2.5c4.1,4.6,4.5,11.3,10.7,13.5c-0.4,5.3-3.7,7.8-8.7,9.2  c-7.8,2.2-15.6,4.9-23.2,7.7c-2.5,0.9-4.8,2.7-6.7,4.6c-4.5,4.7-10.3,9.8-17,11.3c6.3,29.9,12.7,60.1,19,90.3l0.1,0.8  c4.4-1.5,8.8-3,13.3-4.3C360,286.8,367,285.3,373.1,290.4z" stroke-miterlimit="10" stroke="#FFFFFF"/>
<path name="路环岛" fill="#D3D3D3" id="path1" d="M547.7,465.5c-4.4-3.4-5.9-8-6.3-13.4c-0.1-1.5-1.2-3-2.2-5.4  c-3.8,3.1-6.7,5.5-8.8,7.3c-3.8-3.5-7-6.4-10.4-9.6c-2,2.2-3.8,4.1-5.4,5.9c-3.7-1.4-6.9-2.6-10.6-3.9c-0.3-2.1-0.6-4.4-1-6.6  c-0.3-0.1-0.6-0.3-1-0.4c-0.8,1.7-1.7,3.3-2.8,5.6c-2-0.3-4.3-0.6-7-1c-1-5.1,2.2-11-2.1-15.4c5.1-7.5,12.6-13.4,15.5-22.3  c-0.3-0.3-0.7-0.6-1-1c-3.7,2.4-7.4,4.7-11,7.2c-3.7,2.5-7.2,5.1-11.1,7.9c0.4,1.4,0.9,2.9,1.5,4.8c-4.4,3.4-8.7,6.3-14.7,5.4  c-2-0.3-4.1,0.1-6.2-0.1c-8.6-0.7-16.8,0.6-22.6,7.4c-5.9,7-13.2,7.8-21.3,7.1c-1.9-0.1-3.8,0-5.7,0l-1,0.1  c-0.1,0.4-0.1,0.8-0.1,1.2c-5.7,6-11.9,12.3-17.9,18.9c-4.1,4.5-8.5,7.5-15,8.5c-7.8,1.2-15.2,4.5-22.7,6.9l-0.6,0.1  c-0.1,8.2-0.4,16.4-0.4,24.7c0,2.1,0.9,4.2,1.5,6.9c-1.8,1.6-4.4,3.6-6.7,6c-3.9,4-4,8.1-1.1,13.4c3.6,6.6,2.8,13.2-1,19.6  c-0.8,1.3-1.7,2.4-2.8,3.8c0.7,2.8,1.4,5.7,2.3,9.2c10.2,3.6,20.6,7.2,31,10.9c-0.1-0.7-0.1-1.4-0.2-2.1c3.4-2.3,6.7-4.5,10.7-7.2  c0-0.6,0-2.2,0-3.8c2.9-2,5.6-4,8-5.7c6,0.6,3.8,6.2,6,8.7c5.6,3.5,9.9,1,14.2-2.5c1.1,0.4,2.3,1,3.5,1.1c6.7,0.4,13.4,1.1,20.1,1  c4.1-0.1,8.4-0.9,12.3-2c4.5-1.3,8.9-11.2,7.1-15.8c-0.5-1.4-2.8-2.7-4.5-3c-3.7-0.6-7.6-0.6-11.9-0.8c0.5-12.5,1.9-24.1,10.3-33.9  c2.6-3,4.4-6.8,7.2-11.3c2.7-1.1,5.9-0.2,9.6,2.9c3,2.5,7.6,3.3,11.7,4.3c3.1,0.7,6.5,0.6,10.3,0.8c3.1-2,6.7-4.3,11.3-7.2  c1.9-2.8,4.2-7,7.3-10.5c5.2-5.8,7.2-5.9,14.9-2.7c1.7,0.7,3.4,1.8,5.2,2c2.5,0.3,5,0.7,6.3-2.9c1.9-5.3,4.1-6.5,9.8-7.3  c0.3-1.7,0.3-3.5,0.9-5.1C550.2,469.2,549.9,467.2,547.7,465.5z" stroke-miterlimit="10" stroke="#FFFFFF"/>
<path name=" 氹仔岛" fill="#D3D3D3" id="path2" d="M379.6,473.5c6.5-1,10.8-4,15-8.5c6-6.6,12.2-12.9,17.9-18.9  c0-0.4,0.1-0.8,0.1-1.2c0.4-3.1,0.9-5.7,0.9-8.3c0.4-21,0.7-41.9,1.1-62.9c0-2.1,0.4-4.1,0.6-6.4c2.6-1.6,5.3-3.3,8.7-5.3  c-0.2-1.5-0.5-3.4-0.8-6c3.7-0.9,7.9-1.9,12.4-3c2.9,1.8,5.8,3.7,9.7,6.1c8.6-4.6,17.6-9,26.1-14.3c6.5-4.1,8.2-11.8,10.8-18.5  c1.3-3.2,1.6-6.8,2.1-10.3c0.5-3.4-0.9-5.3-4.6-6.3c-14-3.9-27.8-8.3-41.8-12.2c-7-2-14.1-3.5-21.1-5.2c-1.2-0.3-2.4-0.7-3.7-0.9  c-0.5-0.1-1-0.1-1.5-0.1c-8.7,0.4-17-1.7-25.3-3.6c-4.6-1.1-9.2-1.5-13.1,2.8c-6.1-5.1-13.1-3.7-19.8-1.7c-4.5,1.3-8.9,2.8-13.3,4.3  c-6.6,2.2-13.1,4.5-19.8,6.2c-6.7,1.7-10.3,4.9-12.5,11.5c-2.9,8.8-2.5,16.8,2.9,24.2c1.5,2.1,2.3,3.8,2.6,6.3  c0.5,3.7,1.7,7.1,4.9,9.9c6.3,5.5,12.4,11.3,18,17.5c3.9,4.3,7.1,9.5,10.4,14.4c2.2,3.3,3.7,7.2,6.3,10.2c3.5,4,4.2,8.4,4.1,13.5  c-0.3,23.7-0.4,47.4-0.6,71.2c0,0.9,0,1.8,0,2.7l0.6-0.1C364.4,478.1,371.8,474.8,379.6,473.5z" stroke-miterlimit="10" stroke="#FFFFFF"/>
<path name="澳门半岛" fill="#D3D3D3" id="path3" d="M337.8,190.7c1.8-1.9,4.2-3.7,6.7-4.6c7.6-2.8,15.4-5.5,23.2-7.7  c5-1.4,8.3-3.9,8.7-9.2c-6.3-2.1-6.6-8.9-10.7-13.5c-5.8,0.8-12,1.6-18.1,2.5l7.7-2.6c4.5-1.5,9-3,13.9-4.6c0-4.1,0-8.3,0-12.1  c2.4-1.2,4.4-2.2,6.7-3.4c-3.7-3.8-0.5-6.2,1.7-9c3.7,1.9,7.4,3.9,11.2,5.9l0.5-1.5c1.7-3.8,3.4-7.6,5.1-11.3  c2.1-1.1,4.2-2.1,6.9-3.5c-0.4-3.8-0.9-7.9-1.2-12.1c-0.2-3.4-0.4-6.8-0.5-10.2c-0.3-6.2-0.6-12.4-1.2-18.6c-0.7-7-1.6-14-5.9-20.2  c-2.2-3.1-4.6-4.5-7.9-5.6c-11.4-3.8-22.8-7.7-34-11.9c-3.7-1.4-6.8-4.4-10.4-6c-5.4-2.4-10.9-4.5-16.5-6.2  c-4.2-1.2-11.7,3.1-13.9,7.1c-1.4,2.5-3.4,4.7-4.5,7.3c-2.4,5.3-7.3,6.2-11.9,7.1c-6,1.2-12,1.7-18.3,2.5c-3.2,8.9,2.7,15.8,4.7,24  c5.2-2.2,10-4.2,15.2-6.4c0-1.5,0-3,0-4.7c2.2-0.8,3.9-1.4,5.7-2c1.2,4.2,2.4,8.3,3.5,12.4c-7,2.9-14,5.8-21.9,9.1  c5.7,5.6,10.8,3.5,16,2.3c2.3,3.9-1,4.6-3.3,5.1c-3.1,0.8-6.2,1.4-9.4,2l-0.4,1.2c-0.9,7.2-1.1,14.6-2.7,21.6  c-3.4,15.2-7.3,30.3-16.4,43.3c-2,2.8-3.8,5.8-6.2,8.2c-4.5,4.3-7.3,8.8-7.4,15.5c0,9.8-1.4,19.6-2.2,29.3c10.9,6.2,22,9.9,34.4,7.8  c7.6-1.3,14.4-4.7,20.1-9.8c4.5-4,9-7.6,16-6.5c0,0.1,0,0.2,0.1,0.3C327.5,200.5,333.4,195.4,337.8,190.7z" stroke-miterlimit="10" stroke="#FFFFFF"/>
<line fill="#D3D3D3" x1="412.6" x2="415.1" y1="445" y2="443.5" stroke="#FFFFFF" stroke-miterlimit="10"/>
<line fill="#D3D3D3" x1="413" x2="416.6" y1="291.4" y2="290.4" stroke="#FFFFFF" stroke-miterlimit="10"/>
<line fill="#D3D3D3" x1="340" x2="336.7" y1="293" y2="291.9" stroke="#FFFFFF" stroke-miterlimit="10"/>
</svg>