<?xml version="1.0" encoding="UTF-8" standalone="no"?><!-- Generator: Adobe Illustrator 18.0.0, SVG Export Plug-In . SVG Version: 6.00 Build 0)  --><svg xmlns="http://www.w3.org/2000/svg" xmlns:xlink="http://www.w3.org/1999/xlink" contentScriptType="text/ecmascript" zoomAndPan="magnify" contentStyleType="text/css" id="图层_1" mapName="甘肃省" mapType="省市地图" enable-background="new 0 0 800 600" version="1.1" xml:space="preserve" preserveAspectRatio="xMidYMid meet" viewBox="0 0 800 600" x="0px" y="0px">
<g>
	<path name="陇南市" fill="#D3D3D3" id="path0" d="M676.5,481.1c-2.7-1.2-2.3-4.8-0.6-6.2c1.8-1.4-0.9-2.7-3.1-2.7   c-2.2,0-1.8-2-1.1-4c0.7-2,0.2-5.4,2.3-8.2c2.1-2.8-0.2-6.2-1.5-7.2c-1-0.7-1.6-1.6-1.5-2c-0.9-0.5-1.4,0.8-2,3.8   c-0.6,3.2-2.7,3.9-3.7,4.7c-1,0.7-2.1-0.4-2.1-2.7c0-2.3-0.9-1.6-2-1.2c-1.1,0.4-0.5,2.7-0.6,4.4c-0.1,1.7-1.8,1.6-3.8,0.4   c-2-1.2-3.9,2.6-4.8,1.4c-0.9-1.2-1-1-4.7-1.5c-3.7-0.5-3.3,1.4-5.3,1.4c-2,0-3.4,0.2-4.7,1.4c-1.2,1.1-1.8,3.1-3.4,3   c-1.6-0.1-2,0.1-3.2,1.6c-1.2,1.5-2.8-9.9-3-12.3c-0.1-2.5-1.1-1.4-2.8-1.2c-1.7,0.1-2-1.7-3.8-3.1c-1.8-1.4-2.6-1.1-7.4-0.4   c-4.8,0.7-2.3,0-5.4-1.7c-3.1-1.7-5.7,4.1-7.4,5.2c-1.7,1.1-0.6,2.6-2,3.7c-1.4,1.1-2.3,3.3-2.2,5.3c0.1,2-1.4,1.7-2.8,3.1   c-1.5,1.4-2.5,1.5-4.2,0.7c-1.7-0.7-2.6-0.4-2.6,1.2c0,1.6-0.2,2.5-1.5,1.8c-1.2-0.6-1.4-1.2-2.3,0.1c-1,1.4-1.6,1-3.1,0.4   c-1.5-0.6-1.7-3.3-1.4-4.3c0.4-1,2.6,1,3,0c0.4-1-2.6-2.1-3.9-1.8c-1.4,0.2-2.5-1.4-3.7-0.7c-1.2,0.6-2.2,1.1-3.9,0.4   c-1.7-0.7-3,1.4-4.6,2.3c-1.6,1,0.4,2.7,0.5,5.3c0.1,2.4-5.4,6.1-6.3,6.7c1,1.4,1.9,2.7,2.4,3.5c1.3,1.9,3.6,3.2,7.1,5.4   c3.5,2.2,7.9,4.6,9.7,4.6c1.8,0,2.8-0.6,3.6,1.2c0.9,1.8,1.5,3,2.7,3s2,0.1,2,1.8c0,1.7,0.4,5.7,1.8,7.4c1.4,1.7,4.5,5.1,7,5.8   c2.6,0.6,2.8,0.6,3.5,2.6c0.7,1.9,2.7,6.3,1.4,6.6c-1.3,0.3-3.1-0.4-3.5,1.3c-0.4,1.7-1.6,3.1-3.1,2.6c-1.5-0.5-1.7-1.2-3-3.8   c-1.3-2.7-4-7.6-5.7-8.3c-1.7-0.7-2.8,0.3-4.3-1c-1.5-1.3-2.1-0.9-2.8-0.2c-0.5,0.5-3,2-3.8,2.5c1.1,1.5,3.1,2.6,5.4,4.8   c3.3,3,6.1,0.4,7.8,1.4c1.8,1-1.4,2.4-3.9,3.4c-2.4,1,3.2,10.5,5.3,13.2c2.1,2.7-0.2,5.8-3,6c-2.8,0.2-2.3,1.3-0.7,4.3   c1.7,3,10.4,4.4,11.3,4.4c0.9,0,2.5,0.2,4.1,2.4c1.5,2.2,1.1-0.4,3-0.1c1.9,0.3,3.1,0.9,4.4,0.4c1.3-0.4,2.2-1,4.8,0.1   c2.5,1.1,4,0.7,5.1-0.3c1.1-1,3.3-0.7,5.3,0.2c2,0.9,5.1-0.9,5.1-2.3c0-1.4,0.7-2.1,3-2.1c2.3,0,6.3-3.7,8-5   c1.7-1.3,1.1-2.7-0.7-2.7c-1.8,0-1.9,0-3.3-2.3c-1.4-2.3,0-4.1,1-5.6c1-1.5,2.9,0.1,5.6,0.1s5.6-0.7,7-2.3c1.3-1.7,4.8-2.2,6.7-3.1   c2-0.9,2.4-2.7,1.8-4.2c-0.7-1.6-1.8-4.7-1.8-6.3c0-1.7,0-1.9,1.2-1.3c1.2,0.6,1.3-0.6,0.3-2.7c-1-2.1-1.9-0.9-5.1-0.4   c-3.2,0.4-6-4.5-7.1-5.9c-1.1-1.3,0.9-2.5,3.3-2.7c2.4-0.1,0.7-3.4,0.2-4.5s-0.1-2.2,0.9-2.4c1-0.2,1.9-1,2.3-3.4   c0.4-2.4,2.8-2.4,4.9-3.5c2.1-1.1,4,1.5,6.3,1.8c2.3,0.2,3.8-0.4,4.2-1.7c0.4-1.2,1.2-1.6,2.3-1.3c1.1,0.2,2.3-0.8,3.5-1.8   c1.2-1,2-0.3,2,1c0,1.3,0.2,0.9,2.3,2.2c2.1,1.3,2.5-1.3,2.5-4.4C680.9,483,679.2,482.4,676.5,481.1z" stroke-miterlimit="10" stroke="#FFFFFF"/>
	<path name="白银市" fill="#D3D3D3" id="path1" d="M571.3,369.1c0.3,2-0.7,6.4,2.8,7.6s6.8,3.2,8.3,4.8   c1.5,1.6,4,0.6,5.2,1.1c1.2,0.5,0.9,4,0.9,5.8c0,1.7-0.8,6.7,3.3,7.2c4.1,0.5,4.5,1.4,5.2,3s2.4-0.2,3.1-1.3   c0.6-1.1,0.9-2.8,2.7-1.8c1.7,1,5.2,0.2,5.6-0.4c-0.3-1,0.1-2.2,1.2-2.8c1.6-1,1-1.5,1.1-3.7c0.1-2.2,1.6-2.2,1.5-3.9   c-0.2-1.7-2.2-1.7-2.8-3.1c-0.5-1.2,1.1-1.6,1.6-1.7c0-0.1-0.1-0.1-0.1-0.2c-0.5-1.7-0.5-1.8-1.6-2c-1.1-0.3-2.8-0.5-2.8-2.2   c0-1.7,0.9-1.5-1.7-1.5c-2.6,0-2.6-1.9-2.6-5.4c0-3.5,2.8-6.5,5.2-8.1c2.4-1.7,1.7-4.3-0.9-4.8c-2.6-0.6-1.5-1.5-1.1-4.3   c0.4-2.8-0.4-0.6-1.7-2c-1.3-1.5-5.8-8.7-7.8-10.6c-2-1.8-4.2-3.9-6.2-5.5c-2-1.6,0.8-5.4,3.1-8.2c2.3-2.8-0.4-4.5-3.5-4.5   c-3.1,0-3.1-0.6-3.2-3.7c-0.1-3.1-1.3-3.1-8-4.2c-6.8-1.1-8.9-5.9-9.4-7.7c-0.5-1.8-2.2-1.8-5.8,1.4c-3.5,3.2-3.8,1.1-4.8,0   c-1-1.1,0.6-3.5,2.7-5.1c2.1-1.6,0.6-1.4,1-3.5c0.3-2.1,0.3-1.6-2.7-0.8c-3,0.8-3.2-0.2-8.5,0.5c-5.3,0.6-4.8,3.9-9.9,3.7   c-3.8-0.1-13.5-7.7-19.9-12.7c-0.3,0.9-1.6,4.2-1,5.6c0.6,1.6,2,2.8,0.8,4.4c-1.2,1.6-1.5,1.7-0.7,3c0.8,1.3,1.5,2.3-0.2,3.3   c-1.7,1-4.2,2.5-4.2,5.3c0,2.8,1,3.9,0.2,5.4c-0.9,1.5,0,2.7,0.1,4.4c0.1,1.7-1.2,6.1-0.1,7.3c0.1,0.2,0.2,0.3,0.2,0.4   c0.6,0.4,1.9,1.4,2,2.9c0.1,1.9-0.1,4.2,0.9,5.1c1,0.9,4.5,3.2,6.6,3.3c2.1,0.2,4.1,1.5,3.8-1c-0.3-2.4,1-2,3-0.7   c2,1.3,1.8,1.1,1.8,2.8c0,1.7,0.4,2.3,2.8,3.1c2.4,0.8,3.6,1,3.6,2.8c0,1.9-0.7,2.6,1.7,2.8c2.4,0.2,4.5,1.2,5.1,3.1   c0.6,1.9,2.5,6.9,4.3,5.3c1.8-1.5,5-3.7,6.2-4.4c1.2-0.7,1.8-1.6,3.7-0.9c1.9,0.8,1.5,2.3,1.5,3.5c0,1.2,0.4,2,1.9,3.6   c1.5,1.5,1.5,3.9,1.2,5.7c-0.4,1.9-1.2,2.9-0.8,4.1c0,0.1,0.1,0.3,0.1,0.5C565.7,369,571,367.3,571.3,369.1z" stroke-miterlimit="10" stroke="#FFFFFF"/>
	<path name="兰州市" fill="#D3D3D3" id="path2" d="M535.6,386.3c0.8,1.4,2.3,1.2,5.8,2.4c3.5,1.2,6.1,3.8,8.2,5.1   c2.1,1.3,2.1,3,4.1,3c2,0,1.6,1.8,3.5,3.2c1.9,1.4,3.6-7,4-8.6c0.4-1.6,1.4-3.3,1.3-6.1c-0.1-2.8,1.2-6.5,2-9   c0.8-2.5,1-6.5,0.5-7.6c-0.5-1.2,0.4-2.2,0.8-4.1c0.4-1.9,0.4-4.2-1.2-5.7c-1.5-1.5-1.9-2.4-1.9-3.6c0-1.2,0.4-2.7-1.5-3.5   c-1.9-0.8-2.6,0.2-3.7,0.9c-1.2,0.7-4.4,2.9-6.2,4.4c-1.8,1.5-3.7-3.5-4.3-5.3c-0.6-1.9-2.7-2.8-5.1-3.1c-2.4-0.2-1.7-1-1.7-2.8   c0-1.9-1.2-2-3.6-2.8c-2.4-0.8-2.8-1.4-2.8-3.1c0-1.7,0.2-1.5-1.8-2.8c-2-1.3-3.3-1.7-3,0.7c0.3,2.4-1.7,1.1-3.8,1   c-2.1-0.2-5.7-2.4-6.6-3.3c-1-0.9-0.8-3.2-0.9-5.1c-0.1-1.5-1.4-2.5-2-2.9c-0.1,0.8-3.1,1-4.6,1c-1.8,0-6.6,1.3-4.9,2.1   c1.7,0.8,8.3,3.3,9.7,3.1c1.4-0.3,1.8,0.2,1.1,1c-0.7,0.8-3.8,2.4-6.6,1.7c-2.9-0.7-3.6-3.6-4.8-3.9c-1.2-0.3-2-1.4-2-2.8   c0-1.4,0.7-1.8-0.1-1.5c-0.8,0.3-2.4,1-1.8,2.3c0.6,1.3-0.2,2.1-1.7,1.8c-1.5-0.4-6.3-1.4-6.4,1.1c-0.1,2.5-0.4,5.2-0.4,6.4   c0,1.2-0.1,1.8-2.3,0.6c-2.2-1.2-5-1-3.8,0.1c1.2,1.1,1.8,1.6,0.4,2.3c-1.4,0.7-3,1.3-1.5,3.1c1.6,1.8,4.4,4.3,3.7,4.9   c-0.7,0.6-3.4-2.4-4.8-4c-1.4-1.6,0.6,2.6,1.4,4c0.8,1.4,0,3.4,1.4,5.4c1.3,1.9,1.4,2.9,0.2,4.6c0.9,2.3,2.9,5.5,3.5,6.6   c0.7,1.3,7,5.1,8.7,6.2c0.2,0.1,0.3,0.3,0.4,0.5c0.1,0,3-1,5.6,0.2c2.7,1.3,8.1,0.7,9.6,1.3c1.5,0.5,9.6,3.6,12,4.4   c2.2,0.7,3.9,2.3,3.6,3.7C532.3,383.7,534.9,384.9,535.6,386.3z" stroke-miterlimit="10" stroke="#FFFFFF"/>
	<path name="临夏回族自治州" fill="#D3D3D3" id="path3" d="M543.1,433.2c-1.1-1.2-1.4-3.4-2.6-4.4c-1.2-1-1.5-2.6-1.5-5.3   c0-2.8-1.3-6.4-1.6-7.5c-0.3-1.1,0.2-2.7,1.7-3.2c1.5-0.5,0.9-3.7,0.9-5.7c0-1.9-2-5.7-3.6-7.5c-1.6-1.8-6.8-5.9-8.2-7.6   c-1.4-1.7,2-6.6,2.9-8.1c0.9-1.5-1-3.4-3.4-4.2c-2.4-0.7-10.5-3.8-12-4.4c-1.5-0.5-6.9,0-9.6-1.3c-2.6-1.3-5.5-0.3-5.6-0.2   c0.4,1.5-3,4.6-4.2,6.4c-1.3,2.1,1.8,3.2,2.8,3.9c1.1,0.8,0.4,1.5,0.2,3c-0.2,1.5,1.2,3.6,1.3,5.7c0.1,2.1-2.6,0.7-7.2,1.8   c-4.6,1.1-3.5,6.5-2.6,7.9c0.8,1.5,2.1,3,4,4c1.9,1-0.3,4-1.6,5.8c-0.1,0.1-0.2,0.2-0.3,0.3c0.1,0.1,2.3,1.4,3.7,2   c1.5,0.6,7.2,3.6,7.5,6c0.2,2.3-2.8,3.6,2.8,3.7c5.5,0.1,6.1,0.1,7.1,1.4c1.1,1.3,6.3-1.4,8,0.9c1.7,2.2,3.2,3.2,4.7,3.2   s6.2-0.3,8.6,1.9c2.4,2.2,4.3,0.6,5.3,3.8c1.1,3.2,2.1,1.1,2.2,0.5c0.1-0.5,1.3-0.4,1.8,0c0.4,0.3-0.2-0.4,0.3-1.1   C544.5,434.9,544.1,434.3,543.1,433.2z" stroke-miterlimit="10" stroke="#FFFFFF"/>
	<path name="甘南藏族自治州" fill="#D3D3D3" id="path4" d="M581.9,510.5c1.5,1.3,2.6,0.2,4.3,1c1.7,0.7,4.5,5.7,5.7,8.3   c1.3,2.7,1.5,3.3,3,3.8c1.5,0.5,2.7-0.9,3.1-2.6c0.4-1.7,2.2-1,3.5-1.3c1.3-0.3-0.6-4.7-1.4-6.6c-0.7-1.9-1-1.9-3.5-2.6   c-2.6-0.6-5.6-4.1-7-5.8c-1.4-1.7-1.8-5.7-1.8-7.4c0-1.7-0.9-1.8-2-1.8s-1.8-1.2-2.7-3c-0.9-1.8-1.8-1.2-3.6-1.2   c-1.8,0-6.2-2.3-9.7-4.6c-3.5-2.2-5.9-3.5-7.1-5.4c-1.3-1.9-5-7.4-7-9c-2-1.6-6.5,1.1-7.7,1.3c-1.2,0.2-1.8-1.5,0.3-3.7   s3.2-6.6,4-10.1c0.9-3.5-0.3-8.2-0.4-10.5c-0.1-2.2,1.8-1.9,4.2-2.1s0.2-2.6-0.4-3.8c-0.6-1.3,0.1-1.9,0.7-4.6   c0.6-2.7-4.9-3.1-6.6-4.5c-1.7-1.4-2.1-0.6-3.9,0.2c-1.8,0.9-0.5,2.1-1.1,1.7c-0.5-0.4-1.7-0.5-1.8,0c-0.1,0.5-1.2,2.7-2.2-0.5   c-1.1-3.2-2.9-1.6-5.3-3.8c-2.4-2.2-7.1-1.9-8.6-1.9s-3-1-4.7-3.2c-1.7-2.2-6.9,0.4-8-0.9c-1.1-1.3-1.6-1.3-7.1-1.4   c-5.5-0.1-2.6-1.4-2.8-3.7c-0.2-2.3-6-5.3-7.5-6c-1.5-0.6-3.6-2-3.7-2c-1.4,1.3-4.1,0.4-7.3-0.2c-3.4-0.7-3.4,3.8-4.2,5.4   c-0.8,1.6-3.3,2.5-5.9,3.2c-2.6,0.7,0.7,2.9,0.8,4.1c0.1,1.2-0.7,1.8,0.7,2.2c1.5,0.5,2.3,2.4,3.5,3.7c1.2,1.3-0.2,3.3-1.4,4.7   c-1.2,1.4-1.3,1.9-1.3,3.3c0,1.4-0.2,2.1-2.4,2.2c-2.2,0.2-4.9,4.3-6.1,5.6c-1.1,1.3-1.4,1.7-2.9,1.4c-1.5-0.3-2.5,1.8-3.5,4   c-0.9,2.2,0.6,5,0.7,6.7c0.1,1.8-2.5,2.4-4.1,2.2c-1.6-0.2-2.7,1.6-3.5,2.9c-0.8,1.3,0.7,2.1,2.3,2.9c1.7,0.8,3.9-1.8,4.9-2.9   c0.9-1.1,1.5,2,1.5,3.5c0,1.5,1.9,2.3,3.4,3.1c1.5,0.7,5,0.7,6.4,0.7c1.4,0,2.3,1.1,3.4,2.4c1,1.3,0.3,2.3,2.6,3.1   c2.2,0.8,0.3,1.6-1.2,2c-1.5,0.3-1.5,1.9-1.5,3.4c0,1.5-3.1,1.5-4.7,2.4c-1.6,0.9-3.1,6.3-3.5,9c-0.4,2.7-1.1,1.5-3.4,0.4   c-2.3-1.1-2.9,1.7-4.4,3.9c-1.5,2.1-3.2-0.3-5-2.5c-1.8-2.1-5.4-1.3-8.3-2c-2.9-0.7-2-1.9-5-2c-3-0.1-6.7-2-7.4-2.8   c-0.7-0.8-1.3-1.9-3.1-0.8c-1.8,1.1-6.1-0.9-7.5-1.8c-1.4-1-3,0.7-3.4,2c-0.4,1.2-3.9,7-4.6,8.6c-0.6,1.6,10.4,14,11.8,16   c1.4,2.1,1.4-0.1,2.7,0.7c1.3,0.8,3.9,0.4,5.2,1.4c1.2,1,0.4,5.6,1.7,7.9c1.3,2.3,2,2.2,2.3,1.5c0.3-0.7,2.3-0.4,5,0.1   c2.6,0.5,2.8-1.3,3.8-2.6c0.9-1.3,3.6-1.2,5.3-1.5c1.7-0.3,2.5,3.6,3.5,5.6c1,2.1,0.4,5.9,3.3,4.2c2.9-1.6,3.1-6,4.5-7.5   c1.4-1.5,6.4,3.3,8.2,6.7c1.8,3.4-1.4,8.3-2.6,11.4c-1.2,3-0.8,2.9,0.3,4c1.1,1.1,0,3,0.1,4.2c0.1,1.2,4-2.3,5.3-3.4   c1.4-1.1,6.3-2.3,6.6-3.6c0.3-1.2,0.5-2.3,2.5-2.2c1.9,0.1,1.8-2.5,1.8-4.4c0-1.9,3.1-4.5,4.1-4c1,0.5,2.7-0.3,3.6-0.8   c0.8-0.5,0.3-2.6,2.2-2.6c1.9,0,1.2-1.1-0.3-4.7c-1.5-3.6-1.8-1.6-3.7-2.5c-1.9-0.8-2.1-2.2-2.5-3.8c-0.4-1.6-0.3-2.6-1.6-2.5   c-1.4,0.1-1,0-1-1.8c0-1.8-1-1.1-1.9-1.1c-1,0-1.5-1.8-0.1-2.7c1.4-1,0.1-2.3-1.9-2.5c-2.1-0.1-1.8-2.2-3-3.6   c-1.2-1.4,1.6-2.3,3-2.3c1.4,0,2.1-1.4,3.6-1.1c1.5,0.3,2.7-2,2.7-3.9c0-1.9,2.7-1.8,7.1-2.1c4.4-0.3,2.2-3.2,1.6-4.9   c-0.6-1.7,1-3.9,2.6-4.9c1.6-1,1.6-3.7,3.7-3.7c2.1,0,2.9-2.3,4.8-2.7c1.9-0.4,3,2.8,4.4,4.6c1.5,1.8,3.8,1.1,6.5,2.9   c2.7,1.8,2.7,3,2.1,4.2c-0.6,1.2-1.2,5.7,0.6,6.5c1.8,0.8,2.4,1,2.4,4.9c0,3.9,7.7,4.1,10.6,4.1c3,0,3.7-3.6,5.3-3.6   c1.6,0,0,0.8-0.4,3.7c-0.4,3,2,1.8,4.5,0.4c2.6-1.4,3,0.8,6.3,1.4c3.3,0.6,8.7-1.2,10.4-2.6c1.8-1.4,6.6,0.3,8.6,1.1   c2,0.8,1.1,2.9,1.5,5.5c0.1,0.8,0.4,1.4,0.9,2c0.8-0.5,3.3-2,3.8-2.5C579.8,509.6,580.4,509.2,581.9,510.5z" stroke-miterlimit="10" stroke="#FFFFFF"/>
	<path name="平凉市" fill="#D3D3D3" id="path5" d="M719.3,396.8c-2-1.4-3.1-3.7-5.5-7s-0.2-4.2,0.7-5.5   c0.1-0.2,0.4-0.4,0.6-0.5c-1.3-0.4-2.6-3.2-3-4.6c-0.5-1.5-0.9-1.3-2.2-1.3c-1.3,0-1.6,0.2-2.7-0.7c-1.1-0.9-2.7-0.9-4.1-1.5   c-1.5-0.6-2.2-0.3-3.8,0.4c-1.6,0.7-1.9,0.5-3.4-0.6c-1.5-1.2-4.8,0.5-5.9,0.5s-4.5,1.6-7,3.1c-2.6,1.5-6.3-0.9-7.9-2.6   c-1.6-1.6-3.7-3.1-6.6-3.7c-2.2-0.4-4-1.6-4.7-2.1c-3.5,0.8-7.1,1.2-8.2,1.4c-2.5,0.5-2.7,4.1-0.5,6.3c2.2,2.2,3.9,6.1,4.4,10.4   c0.5,4.3-0.9,6.9-3.5,10.2c-2.6,3.3-6.5-3.1-7.5-5.2c-0.9-2.1-3.7-1.3-5.3,0c-1.6,1.3-1.8,0.2-2.5-1.4c-0.7-1.6-3.7,1.9-6.6,2   c-2.9,0.2,0.1-3.5,1.8-5.1c1.7-1.6,0.3-2.2-1.4-3c-1.6-0.8-2.5,1.1-4.2,3c-1.8,1.9-3.6-2.5-5.1-4.2c-1.5-1.8-3.1-4.3-4.4-6.4   c-1.3-2-2,0.4-3.7,1.8c-1.6,1.3-5.4,1-6.1-0.5c-0.5,0.1-2.1,0.5-1.6,1.7c0.6,1.4,2.7,1.4,2.8,3.1c0.2,1.7-1.4,1.7-1.5,3.9   c-0.1,2.2,0.6,2.8-1.1,3.7c-1.6,1-1.7,3.1-0.3,4c1.4,0.9,2.8,3.7,3.6,2.9c0.8-0.8,3.2-0.1,3.6,2c0.4,2.1,0.2,3.2,1.1,3.9   c1,0.7,3.4,1.3,3.6,3.2c0.2,2,0.6,3.5,2,4.1c1.4,0.6,2.8,0.3,4.2,1.7c1.3,1.4,2.2,0.2,3.6-0.7c1.4-0.9,3.5,1,4.8-0.5   c1.3-1.5,1.9-3.9,3.6-2.4c1.7,1.4,2.2,1.7,2.7-0.4c0.5-2,0.9-3.5,2-2.5c1.1,0.9,2.3-0.6,3.1-2.1c0.8-1.5,3.6-2.4,4.3-0.1   c0.7,2.3,0.9,2,2.8,2.8c1.7,0.7,6.5,1.3,7.8,1.4c-0.2-2.1,2.5-3.8,5-3.8c2.8,0,5.6-1.8,8.8-2.3c3.2-0.6,3.2-0.8,8.8,0.7   c5.6,1.4,8.8,5.1,11.5,5.4c2.7,0.3,2.7-3.2,6.4-2.7c3.8,0.6,4.9-1.1,5.7-2c0.9-0.9,2.8-0.8,4.5-0.6c1.8,0.2,3.2-1.4,7.1-2.5   C724,400.9,721.3,398.2,719.3,396.8z" stroke-miterlimit="10" stroke="#FFFFFF"/>
	<path name="庆阳市" fill="#D3D3D3" id="path6" d="M745.7,359.9c-1.9-1.3-2.2-2-2.8-5.1c-0.6-3.1-1.2-6.4-2.2-9   c-1-2.5,2.1-5.5,4.9-9.1c2.8-3.5,0.9-7.1-1.8-10c-2.7-2.9-1.1-5.8-1.1-8c0-2.2-2.7-3.4-5.9-4.9c-3.2-1.4-4.3-0.3-5.6,0.1   c-1.3,0.4-3.2,0.3-4.3-1.6c-1.1-1.9-3.6-1.7-6.7-2.3c-3.1-0.7-1.7,0.9-5.2,1c-3.5,0.1-4.3-1.1-4.9-2.5c-0.6-1.4-4.6-1.2-5.5-2.7   c-0.9-1.4-11.7-3.3-13.4-3.4c-1.7-0.1-3.4-0.1-5-1.9c-1.5-1.8-6.7-0.9-9.2-1.3c-2.4-0.4-4-3-4.2-5.8c-0.2-2.8-1.7-3-3.5-3   c-1.9,0-5.9,1.6-6.7,2.8c-0.9,1.2-3.6,1.8-6.4,0.1c-2.8-1.7-3.1-1.8-4.5-1.3c-1.4,0.4,1.1,1.2,1.1,3.1c0,1.9-2.5,0-4.9,0.1   c-2.3,0.1,0,2.4,0,5c0,2.5-0.9,4.3-2.2,4.7c-1.3,0.3-2,2,1.9,3c3.9,1,1.5,2.9,2.7,5.5c1.1,2.7-0.8,3.4-2.1,3.4   c-1.3,0-3.3,5.4-3.3,7.7c0,2.3-0.6,3.2-1.4,3.7c-0.9,0.4-0.4,1.7,2.7,2.3c3.1,0.7,3.7,7.7,3.7,9.6c0,1.9,0.9,2.4,1.8,1.7   c0.8-0.7,4.7-0.5,7,0.2c2.3,0.7,5,0.4,6.1,0.4s1.8,0.3,2.9,2.1c1.1,1.9,2.4,2.5,3.5,3.9c1.1,1.4,0.9,6.4-0.2,9.3s0.7,4.9,0.8,8.6   c0.1,2-3.9,3.3-8,4.2c0.7,0.5,2.5,1.7,4.7,2.1c2.9,0.5,4.9,2,6.6,3.7c1.6,1.6,5.3,4.1,7.9,2.6c2.6-1.5,5.9-3.1,7-3.1   s4.4-1.7,5.9-0.5c1.5,1.2,1.7,1.3,3.4,0.6c1.6-0.7,2.3-1,3.8-0.4c1.5,0.6,3.1,0.6,4.1,1.5c1.1,0.9,1.5,0.7,2.7,0.7   c1.3,0,1.7-0.2,2.2,1.3c0.4,1.4,1.7,4.2,3,4.6c1.3-0.5,3.8,0.1,6,0c2.7-0.1,2.8,0.6,3.6,1.2c0.9,0.7,5.4-3,5.9-4.2   c0.4-1.2,1.4-1.1,3.5-1.2c2.1-0.1,6.6-1.1,9.3-1.2c2.7-0.1,5-1.7,6.3-8.2C751,363.7,747.6,361.2,745.7,359.9z" stroke-miterlimit="10" stroke="#FFFFFF"/>
	<path name="金昌市" fill="#D3D3D3" id="path7" d="M455,275c1.8-2.2,5.2-2,6-1.7c0.8,0.3,2.3-2.9,4.9-2.9   s3.2-0.1,3.9-1.9c0.7-1.8,1.6-6,0.7-8.6c-0.9-2.6-7.3-6-9.6-8.5c-2.2-2.4-4.4-4.2-5.1-4.7c-0.7-0.4-1.4-2.7-1.4-4   c0-1.3,1-4.2-1-4.9c-2-0.7-2.1-1.7-0.9-2.4c1.2-0.8,3.2-1.4,2.1-2.3c-1.1-0.9-2.8-1.9-4.7-1.7c-1.7,0.2-12.9-0.3-15.3-0.4l3,2.5   c0,0-6.2,10.8-6.9,13.2c-0.7,2.4-1.7,3.6-3.6,2.4c-0.5-0.3-1-0.6-1.4-0.8c-0.5,1.3-3.9,10.8-6.2,12.8c-2.5,2.2-2.1,4.1-5,4   c-2.9-0.2-2.6,0.8-1.5,2.2c1.1,1.4,5,3.3,5.7,5c0.7,1.7-0.4,2.1-0.8,4.4c-0.5,2.4-2,7.1-0.3,7s4.7-1.2,5.6-2.5   c0.8-1.2,2.1-2.1,5.4-1c3.3,1,5.5,2.2,8.9,0.9c2.8-1,8.2-2.8,9.2-2.3C447.3,278.8,453.3,277.1,455,275z" stroke-miterlimit="10" stroke="#FFFFFF"/>
	<path name="张掖市" fill="#D3D3D3" id="path8" d="M449.4,296c0.3-3.1,4.3-4.9,4.1-6.6c-0.3-1.7-0.6-2.3-1.4-1.5   c-0.8,0.8-1.8-0.1-2.7-1.6c-0.9-1.5-2.4-0.3-4.3,0.1c-2,0.4-1-2,0.5-3c1.5-1-0.4-1.7,1-3.7c1.4-2-5.8,0.4-9.1,1.6   c-3.4,1.2-5.6,0.1-8.9-0.9c-3.3-1-4.5-0.2-5.4,1c-0.8,1.2-3.9,2.4-5.6,2.5s-0.2-4.6,0.3-7c0.5-2.4,1.5-2.7,0.8-4.4   c-0.7-1.7-4.5-3.6-5.7-5c-1.1-1.4-1.4-2.4,1.5-2.2c2.9,0.2,2.5-1.8,5-4c2.3-2,5.7-11.5,6.2-12.8c-1.2-0.5-2.1-0.5-3.2,0.5   c-1.5,1.4-2.4,1.2-5-1c-2.6-2.2-3.4-2.1-5.7-1.5c-2.2,0.5-2.8,0.7-3.3-2.2c-0.5-2.9-4.8-7.4-5.3-8.3c-0.5-0.9-6,3.1-6,3.1l-4-4.8   l-4.6,0.9l-0.9-19.2l-14,0.7c0,0-1,0-0.8-2c0.2-2-2.2-2.4-4.4-2.2c-2.2,0.2-4.9-0.5-5.1-3.2c-0.2-2.7-1.5-3.2-3-5.2   c-1.5-2-2.9-4.4-6.9-2.7c-4.1,1.7-12.2-4.9-15.2-6.3c-3-1.3-12.6,0-12.8,0c-1.6,1.2-5,2.9-6,3.6c-1.2,0.8-1.8,1.6-3.6,2.8   c-1.8,1.2-4.3-0.7-7.2-0.2c-2.8,0.5-4.1,4.8-2.7,5.8c1.4,1,1.3,0.6,0.7,2c-0.5,1.4,3.5,5,5.8,6.8c2.3,1.7,9.5,6.5,12.1,10.3   c2.6,3.8-2,4.4-3.5,5.3c-1.5,0.9-2.1,2.1-2.5,4c-0.4,1.9-2,1.7-3.2-0.4c-1.2-2.1-2.7-0.8-5.3-3.1c-2.7-2.3-7.2-0.3-8.8-1.6   c-1.6-1.4-5.3-4.2-9.1-4.2c-3.8,0-4.2-0.3-5.8-1.8c-1.7-1.5-5.1,0.8-7.6,0.2c-2.5-0.6,0.3-3.4,1.2-5.4c0.4-0.8,0.7-2,0.9-3.1   c-0.5-0.2-1.8-0.9-2.3-2.1c-0.7-1.5-3.2-1.7-4.2-1.6c-0.9,0.1-2.7,0.8-3.4,2.7c-0.7,1.9-2.6,2-4.7,1.4c-1.9-0.5-5.7-1.5-6.4-1.7   c-0.7,0.5-1.3,0.9-2,1.3c-2.8,1.6-4.9-0.7-7.7,0.5c-2.8,1.2-3.8,9.7-3,11.6c0.8,1.8,1.2,1.5,1.2,4.8c0,3.3,5.4,6.3,6.5,8   c1.1,1.6-3.5,7.8-4.1,8.6c0.3,0.5,0.7,0.9,1.2,1.3c2.2,1.7,8.4,3.5,11.9,4.6c3.4,1,6.4,3.4,7.9,4.8c1.5,1.4,2.9,0.3,6.5-2.6   c3.6-3,3-4.5,3.6-8.1c0.7-3.7,8.6,1.3,11.3,2.3c2.7,1,7.2-4.5,8.8-7.3c1.6-2.9,3.5-0.6,5.2,1.5c1.7,2.1,7.4,2.7,9.2,2.7   s1.7,2.1,1.5,3.3c-0.2,1.3,1.7,2.1,3.4,2.7c1.7,0.7,4.6,3.5,6.7,4c2.2,0.5,2.5,1.8,3.9,3.7c1.4,1.8,1.4,2.7,3,3   c1.6,0.2,1.7,0.2,1.7,1.9c0,1.7,1.1,1.9,3.4,3.2c2.3,1.3,8.6,4.9,12.7,6.4c4.1,1.5,6.6,2.9,9.4,3.7s3.4,2.9,4.6,3.2   c1.1,0.3-1.4-2.7-1.4-4.5c0-1.7-1.1-1.9-2.3-3.8c-1.1-1.8-0.9-5.4-0.1-5.4c0.8,0,15.4,7.7,18,9s3,0.3,4.3,4   c1.4,3.7,3.3,3.5,6.2,5.8c2.9,2.3,6.7,0.9,8.3,0.3c1.6-0.6,4.3,2.8,7.1,4.3c2.8,1.4,1.4,1.9,3.5,3.1c2,1.2,3.5,0,4.6,0.4   c1.2,0.4,19.4,13,21.8,13.9c2.4,0.9,1.6-2.4,0.3-4.8c-1.3-2.3,2.1-4.5,3.1-6.7c1-2.2,2.6-0.5,3.2,1.1c0.6,1.6,1.6,2.8,3.9,4.6   c0.7,0.6,1,1.2,1,1.9C450.3,305.6,449.1,299,449.4,296z" stroke-miterlimit="10" stroke="#FFFFFF"/>
	<path name="嘉峪关市" fill="#D3D3D3" id="path9" d="M270.8,214.7c0.7-1.9,2.4-2.7,3.4-2.7c0.9-0.1,3.4,0.1,4.2,1.6   c0.6,1.2,1.8,1.9,2.3,2.1c0.4-1.5,0.7-3.1,1.2-4.2c0.8-2-0.2-3-1.5-4.7c-1.3-1.8,1.3-3.6,2.3-5c0.9-1.5,0.7-3.3-0.1-5   c-0.7-1.8-3.9-1.2-6-0.1c-2.2,1-4.3,0.7-7.6,0.5c-3.3-0.1-2.6,3.3-2.6,5.7c0,2.4-0.1,3.3-1.4,5.9c-1,2-3,4.1-5.2,5.7   c0.7,0.2,4.5,1.2,6.4,1.7C268.3,216.7,270.1,216.6,270.8,214.7z" stroke-miterlimit="10" stroke="#FFFFFF"/>
	<path name="酒泉市" fill="#D3D3D3" id="path10" d="M254.7,240.5c-1.2-1.7-6.5-4.7-6.5-8c0-3.3-0.4-3-1.2-4.8   c-0.8-1.8,0.2-10.4,3-11.6c2.8-1.2,4.9,1.1,7.7-0.5c2.8-1.6,6-4.4,7.2-7c1.2-2.6,1.4-3.5,1.4-5.9c0-2.4-0.7-5.8,2.6-5.7   c3.3,0.1,5.4,0.5,7.6-0.5c2.2-1,5.3-1.6,6,0.1c0.7,1.8,1,3.6,0.1,5c-0.9,1.5-3.6,3.3-2.3,5c1.3,1.8,2.3,2.8,1.5,4.7   c-0.8,2-1.2,5.3-2.1,7.3c-0.9,2-3.7,4.8-1.2,5.4c2.5,0.6,6-1.8,7.6-0.2c1.7,1.5,2,1.8,5.8,1.8c3.8,0,7.6,2.8,9.1,4.2   c1.6,1.4,6.1-0.6,8.8,1.6c2.6,2.3,4.1,1,5.3,3.1c1.2,2.1,2.8,2.3,3.2,0.4c0.4-1.9,1-3.1,2.5-4c1.5-0.9,6-1.6,3.5-5.3   c-2.6-3.8-9.8-8.5-12.1-10.3c-2.3-1.7-6.3-5.4-5.8-6.8c0.5-1.4,0.6-1-0.7-2c-1.4-1-0.1-5.3,2.7-5.8c2.8-0.5,5.3,1.4,7.2,0.2   c1.8-1.2,2.4-2,3.6-2.8c1-0.7,4.4-2.4,6-3.6c0,0,0,0,0,0s2.2-3.7,4.1-7.1c1.9-3.4,9.3-8.4,11.7-9.5c2.4-1,5.9-13.7,7.5-17.9   c1.5-4.2,4.6-4.8,5.2-8.2c0.6-3.4-3.5-8.1-7.8-12c-4.2-3.9-11.1-3-14.5-2.7c-3.4,0.3-2.5,1.4-4.1,3.6c-1.5,2.2-6.1,2.2-10.2,2.2   c-4.1,0-12.7,3.1-16.1,4.8c-3.4,1.7-12.7,16.8-12.7,16.8s-14.8,1.9-14.4,1.9c0.3,0-0.7-8.2,1.4-15c2-6.8-6.6-8.8-11.9-12.1   c-5.3-3.2-1.7-1.2-3.9-1.4c-2.2-0.2-10.2-12.1-11.6-13.4c-1.4-1.4-7.1-7.8-5.3-8.7c1.9-0.8,7.3-9.9,7.3-9.9l-23.1-46.8   c0,0-6-12.6-5.9-13.3c0.1-0.7-7,2.4-9.3,3.3c-2.3,0.9-3.5,0-6.1,0.3c-2.5,0.3-15,2.2-15,2.2l-11.6,8c0,0-1,11.4-0.8,18.2   c0.2,6.8,0,8.5,0.8,11.6c0.8,3.1,0.3,4.9-1,9c-1.4,4.1-10.8,6.1-17.4,5.7c-6.6-0.3-17.3,4.8-27.9,9.5   c-10.5,4.8-16.6,15.9-30.8,31.5c-14.2,15.6-14.6,22.1-14.6,23.8c0,1.7-15.7,14.2-15.7,14.2l-17.9-1.7v10c0,0,1.5,8.2,1.4,10.6   c-0.1,2.4-5,12.9-5,15.5s6.3,23.4,8,25.7c1.7,2.3,0.9,4.3,0,7.1c-0.9,2.7,0.7,4.2,1.6,4.5c0.9,0.2,18.5-3.7,19-4   c0.6-0.3,1.8-1.8,5.1-1.7c3.3,0.1,7.8-1.8,9.5-2.6c1.7-0.8,4.8,0,8.3,0c3.5,0,6.7-0.6,8.7-2.3c1.9-1.7,4.1,0.1,5.7,0.6   c1.6,0.5,1.9,0.1,5.4-0.7c3.4-0.8,13.3,1,15.9,2.4c2.5,1.4,8.7,3.5,11.5,3.8c2.9,0.2,12.2,1.6,15.4,1.7c3.2,0.1,4.2,4.5,5.1,5.5   c0.9,1,2.4,5.7,5.6,6.3c3.2,0.6,6.8,2.4,7.4,3.8c0.6,1.4,1.3,2.4,3.4,2.1c2.2-0.3,3.6,1.4,4.8,1.8s4.2,3.1,5.6,4   c1.4,0.9,3.1,2.4,4.6,1.8c1.5-0.6,2.3-0.2,2.9,0.1c0.6,0.3,3.6,1.8,5.7,2.1c2.1,0.2,2.2,1.6,2.2,4s4.4,3.2,5,3.2   c0.6,0,4-0.1,5.5,1.6c1.5,1.7,7.4,2.5,8.8,1.9s0.7-3.9-0.2-5.5c-0.9-1.6,0.3-3.5,1.1-6.4s-1.1-3.1-2.4-4c-1.3-0.9-0.1-2.3,1.1-4.1   c1.3-1.8-0.3-10.9-0.8-14.3s-0.2-4.8-1.5-7.7c-1.3-2.9,1.5-4.8,2.3-6.1c0.8-1.3,8.8,0.9,14.1,1.8c4.2,0.7,5.1,3,6.4,4.8   C251.3,248.4,255.8,242.2,254.7,240.5z" stroke-miterlimit="10" stroke="#FFFFFF"/>
	<path name="武威市" fill="#D3D3D3" id="path11" d="M487.6,356.1c-1.4-1.9-0.6-4-1.4-5.4c-0.8-1.4-2.8-5.5-1.4-4   c1.4,1.6,4.1,4.5,4.8,4c0.7-0.6-2.1-3.1-3.7-4.9c-1.6-1.8,0.1-2.3,1.5-3.1c1.4-0.7,0.8-1.2-0.4-2.3c-1.2-1.1,1.6-1.3,3.8-0.1   c2.2,1.2,2.3,0.6,2.3-0.6c0-1.2,0.3-3.9,0.4-6.4c0.1-2.5,4.9-1.5,6.4-1.1c1.5,0.4,2.3-0.5,1.7-1.8c-0.6-1.3,0.9-2,1.8-2.3   c0.8-0.3,0.1,0.1,0.1,1.5c0,1.4,0.8,2.5,2,2.8c1.2,0.3,1.9,3.1,4.8,3.9c2.9,0.7,5.9-0.8,6.6-1.7c0.7-0.8,0.3-1.3-1.1-1   c-1.4,0.3-8-2.2-9.7-3.1c-1.7-0.8,3.1-2.1,4.9-2.1s5.4-0.2,4.4-1.4c-1-1.2,0.2-5.6,0.1-7.3c-0.1-1.7-1-2.9-0.1-4.4   c0.9-1.5-0.2-2.6-0.2-5.4c0-2.8,2.5-4.3,4.2-5.3c1.7-1,1-2,0.2-3.3c-0.8-1.3-0.5-1.4,0.7-3c1.2-1.6-0.2-2.8-0.8-4.4   c-0.5-1.4,0.7-4.7,1-5.6c-2.3-1.8-4.2-3.2-5.2-3.9c-3.8-2.4-10.7-1.4-10.7-1.4l-5.9-13.5l6.4-5.8l-6.2-12.7c0,0,8.5-7.4,11.5-10.3   c3-2.9,6.4-10.9,6.6-15.2c0.2-4.3,0.6-4.5,3-6.4c2.4-1.9,3.7-3,4.8-8.2c1.1-5.1-4.3-8.5-5.6-9.8c-1.3-1.3-2.9-3.7-1.9-5.9   c1-2.2-1.3-3.4-4.5-4.8c-3.2-1.4-6.7,1-10.1,3.2c-3.4,2.2-9.4,6.4-13.3,7.2c-3.8,0.8-11.7,12.5-13.9,15.6c-2.2,3-7.4-0.8-12.2-0.8   c-4.8,0-12.1-3.8-12.1-3.8l-23.6,13.2l7,5.8c2.4,0.1,13.6,0.6,15.3,0.4c1.9-0.2,3.6,0.8,4.7,1.7c1.1,0.9-0.9,1.6-2.1,2.3   c-1.2,0.8-1.1,1.8,0.9,2.4c2,0.7,1,3.6,1,4.9c0,1.3,0.8,3.6,1.4,4c0.7,0.4,2.9,2.2,5.1,4.7c2.2,2.4,8.7,5.9,9.6,8.5   c0.9,2.6,0,6.8-0.7,8.6c-0.7,1.8-1.3,1.9-3.9,1.9s-4.1,3.2-4.9,2.9c-0.8-0.3-4.2-0.6-6,1.7c-1.7,2.1-7.7,3.8-8.5,4   c0.2,0.1,0.2,0.3,0,0.7c-1.4,2,0.5,2.6-1,3.7c-1.5,1-2.5,3.4-0.5,3c2-0.4,3.4-1.6,4.3-0.1c0.9,1.5,1.9,2.4,2.7,1.6   c0.8-0.8,1.1-0.2,1.4,1.5c0.3,1.7-3.8,3.5-4.1,6.6c-0.3,3,0.9,9.6-1.3,10.6c0.1,1.4-0.8,2.8-0.8,4.2c0,2,1.1,1.5,4.2,1.5   s4.3,2,7,2.7c2.7,0.7,1.8,2.1,2.7,4.3c0.9,2.1,4,1.2,5.9,1.2c1.9,0,4,2.2,5.8,3.9c1.8,1.6-0.6,2.2-2.8,2.9c-2.2,0.7-0.4,2-0.4,5.1   c0,3,2,4.8,5.3,5.9c3.3,1.1,6.6,4.2,7.2,5.8c0.7,1.6-0.1,3.3-2.5,3.1c-2.3-0.2-2,1.3-1.6,2.7c0.3,1.4,2.8,2.7,5.1,2.8   c2.3,0.1,4,4.7,4.4,6.8c0.1,0.3,0.2,0.7,0.4,1.1C489,359,488.9,357.9,487.6,356.1z" stroke-miterlimit="10" stroke="#FFFFFF"/>
	<path name="定西市" fill="#D3D3D3" id="path12" d="M593.5,456.3c-2.2,0.1-3.8-0.7-3.8-2.1c0.1-1.4,2.3-2.2-1.6-4   c-3.8-1.8-0.3-2.6-0.3-4.7c0-2.1-1.7-1.9-3.5-1.5c-1.7,0.5-4.6,0.6-4.3-0.4c0.3-1,1.6-5.2,0.9-6c-0.7-0.8-1.4-2.8-1.3-4.6   c0.1-1.7,1.9-1.5,4.8-0.9c2.9,0.5,2.9-0.9,5.4-0.4s2.6-0.4,2.5-1.8c-0.1-1.3,2.1-1.6,2.4-3.1c0.3-1.6,2.5-0.9,3.7-0.5   c1.2,0.3,2.2-0.4,3.3-1.6c1.1-1.2,2.2,0.2,3.3,0.6c1.1,0.5,1.2-1.9,1.2-3.4c0-1.4,3.2-1.5,4.4-2.3c1.2-0.8,2.9-4.7,3.9-5.5   c1-0.9,2,1.9,3.7,1.9c1.6,0,1.3-2.6,0.6-4.3c-0.7-1.6-0.2-1.6,0.7-1c0.7,0.4,1.7,0.6,2.2,0.6c-0.4-0.8-0.7-1.8-0.8-2.9   c-0.2-2-2.6-2.5-3.6-3.2c-1-0.7-0.7-1.8-1.1-3.9c-0.4-2.1-2.8-2.8-3.6-2c-0.8,0.8-2.2-2-3.6-2.9c-0.4-0.3-0.7-0.7-0.9-1.2   c-0.3,0.6-3.8,1.4-5.6,0.4c-1.8-1.1-2,0.7-2.7,1.8c-0.6,1.1-2.4,2.8-3.1,1.3s-1.1-2.5-5.2-3c-4.1-0.5-3.3-5.5-3.3-7.2   c0-1.7,0.3-5.2-0.9-5.8c-1.2-0.5-3.7,0.5-5.2-1.1c-1.5-1.6-4.8-3.6-8.3-4.8s-2.6-5.6-2.8-7.6c-0.2-1.9-5.6-0.2-6.3,0.1   c0.3,1.5,0.1,4.9-0.6,7.2c-0.8,2.5-2.1,6.2-2,9c0.1,2.8-0.9,4.5-1.3,6.1c-0.4,1.6-2.1,9.9-4,8.6c-1.9-1.4-1.5-3.2-3.5-3.2   c-2,0-2-1.7-4.1-3c-2.1-1.3-4.7-3.9-8.2-5.1c-3.5-1.2-5-1-5.8-2.4c-0.8-1.4-3.4-2.6-4.4-2.7c0,0.1-0.1,0.3-0.1,0.4   c-0.9,1.5-4.3,6.4-2.9,8.1c1.4,1.7,6.6,5.8,8.2,7.6c1.6,1.8,3.6,5.5,3.6,7.5c0,1.9,0.6,5.1-0.9,5.7c-1.5,0.5-2,2.1-1.7,3.2   c0.3,1.1,1.6,4.7,1.6,7.5c0,2.8,0.3,4.4,1.5,5.3c1.2,1,1.5,3.2,2.6,4.4c1,1.1,1.4,1.7,1.9,2c0.1-0.2,0.4-0.4,0.8-0.6   c1.8-0.9,2.2-1.6,3.9-0.2c1.7,1.4,7.2,1.8,6.6,4.5c-0.6,2.7-1.4,3.3-0.7,4.6c0.6,1.3,2.8,3.6,0.4,3.8s-4.3-0.1-4.2,2.1   c0.1,2.2,1.3,6.9,0.4,10.5c-0.9,3.5-1.9,7.9-4,10.1s-1.5,3.9-0.3,3.7c1.2-0.2,5.6-2.9,7.7-1.3c1.2,1,3.1,3.3,4.6,5.5   c0.9-0.6,6.4-4.3,6.3-6.7c-0.1-2.6-2.1-4.3-0.5-5.3c1.6-1,2.8-3.1,4.6-2.3c1.7,0.7,2.7,0.2,3.9-0.4c1.2-0.6,2.3,1,3.7,0.7   c1.4-0.2,4.3,0.9,3.9,1.8c-0.4,1-2.6-1-3,0c-0.4,1-0.1,3.7,1.4,4.3c1.5,0.6,2.1,1,3.1-0.4c1-1.4,1.1-0.7,2.3-0.1   c1.2,0.6,1.5-0.2,1.5-1.8c0-1.6,0.9-2,2.6-1.2c1.7,0.7,2.7,0.6,4.2-0.7c1.5-1.4,3-1.1,2.8-3.1c-0.1-2,0.9-4.2,2.2-5.3   c0.5-0.4,0.7-0.9,0.8-1.3C598.3,454,595.7,456.2,593.5,456.3z" stroke-miterlimit="10" stroke="#FFFFFF"/>
	<path name="天水市" fill="#D3D3D3" id="path13" d="M679.2,443.7c-1.2,0-6.2-3.1-9.5-4.7c-3.3-1.5-6.5-0.7-7.6-0.1   c-1.1,0.6-4-2.4-2.1-4.1c1.9-1.7,6-10.4,6.9-11.2c0.9-0.8,0.9-2.8-0.2-4.1c-1.1-1.3-3.4-6.9-4.3-9.2c-0.1-0.2-0.1-0.4-0.1-0.7   c-1.3-0.2-6.1-0.8-7.8-1.4c-2-0.8-2.1-0.6-2.8-2.8c-0.7-2.3-3.5-1.4-4.3,0.1c-0.8,1.5-2,3.1-3.1,2.1c-1.1-0.9-1.6,0.5-2,2.5   c-0.5,2-0.9,1.8-2.7,0.4c-1.7-1.4-2.4,0.9-3.6,2.4c-1.3,1.5-3.4-0.4-4.8,0.5c-1.4,0.9-2.3,2.1-3.6,0.7c-1.3-1.4-2.8-1.2-4.2-1.7   c-0.6-0.2-0.9-0.6-1.2-1.2c-0.5-0.1-1.5-0.2-2.2-0.6c-0.9-0.5-1.4-0.6-0.7,1c0.7,1.6,1,4.3-0.6,4.3c-1.6,0-2.6-2.7-3.7-1.9   c-1,0.9-2.7,4.8-3.9,5.5c-1.2,0.8-4.4,0.9-4.4,2.3c0,1.4-0.2,3.8-1.2,3.4c-1.1-0.5-2.2-1.9-3.3-0.6c-1.1,1.2-2,1.9-3.3,1.6   c-1.2-0.3-3.4-1-3.7,0.5c-0.3,1.6-2.5,1.8-2.4,3.1c0.1,1.3,0,2.3-2.5,1.8s-2.5,0.9-5.4,0.4c-2.9-0.5-4.8-0.8-4.8,0.9   c-0.1,1.7,0.5,3.8,1.3,4.6c0.7,0.8-0.6,5-0.9,6c-0.3,1,2.6,0.8,4.3,0.4c1.7-0.5,3.5-0.6,3.5,1.5c0,2.1-3.6,2.8,0.3,4.7   c3.8,1.8,1.6,2.7,1.6,4c-0.1,1.4,1.6,2.2,3.8,2.1c2.2-0.1,4.8-2.2,6.4-0.1c0.2-0.8,0.1-1.7,1.2-2.4c1.7-1.1,4.3-6.9,7.4-5.2   c3.1,1.7,0.6,2.5,5.4,1.7c4.8-0.7,5.5-1,7.4,0.4c1.8,1.4,2.1,3.2,3.8,3.1c1.7-0.1,2.7-1.2,2.8,1.2c0.1,2.5,1.7,13.8,3,12.3   c1.2-1.5,1.6-1.7,3.2-1.6c1.6,0.1,2.2-1.8,3.4-3c1.2-1.1,2.7-1.4,4.7-1.4c2,0,1.6-1.8,5.3-1.4c3.7,0.5,3.8,0.2,4.7,1.5   c0.9,1.2,2.8-2.6,4.8-1.4c2,1.2,3.7,1.4,3.8-0.4c0.1-1.7-0.5-4.1,0.6-4.4c1.1-0.4,2-1.1,2,1.2c0,2.3,1.1,3.4,2.1,2.7   c1-0.7,3.1-1.5,3.7-4.7c0.6-3,1.1-4.2,2-3.8c0-0.2,0.2-0.2,0.5-0.2c1,0.1,2.9-0.2,6.1-1.4C680.9,448,680.4,443.7,679.2,443.7z" stroke-miterlimit="10" stroke="#FFFFFF"/>
</g>
</svg>