<?xml version="1.0" encoding="UTF-8" standalone="no"?><!-- Generator: Adobe Illustrator 18.0.0, SVG Export Plug-In . SVG Version: 6.00 Build 0)  --><svg xmlns="http://www.w3.org/2000/svg" xmlns:xlink="http://www.w3.org/1999/xlink" contentScriptType="text/ecmascript" zoomAndPan="magnify" contentStyleType="text/css" id="图层_1" mapName="福建省" mapType="省市地图" enable-background="new 0 0 800 600" version="1.1" xml:space="preserve" preserveAspectRatio="xMidYMid meet" viewBox="0 0 800 600" x="0px" y="0px">
<path name="南平市" fill="#D3D3D3" id="path0" d="M456.2,261.5c-0.7-1.1-1.3-1.7-1.3-3.4c0-1.6-1.4-4.1-3.2-3.7  c-1.8,0.4-4.1,1.1-4.5-1c-0.4-2-4.8-4.4-1.8-10.3c1.9-3.7,1.1-4.1,0.9-4.2c-0.1,0-0.1,0,0,0c0.1,0,0.3-0.1,0.7-0.2  c2.4-0.9,3.8-2.8,3.5-4.7s-0.6-4-1.8-6.6c-1.2-2.6,0-4.3,0.6-6.9c0.6-2.6-0.9-5.7,0.1-7.2c1-1.5,2.7-4.2,2.7-5.6s0.4-1.4,1.6-3.8  c1.2-2.4-0.8-6,0.4-6.7c1.2-0.6,6.1-2.5,6.1-4.1s-0.4-4.7-0.4-6.2s1.4-2.5,3.1-2.7c1.7-0.2,1.8,0,3.2,1.6c1.4,1.6,4,0.5,4.3-1.3  c0.3-1.8,0.4-1.8,2.8-3.1c2.4-1.3,2.5-4.2,4.5-4.2c2,0,2.4-1.8,3-3.7c0.6-1.8,4.8-6.8,5.8-8.3c1-1.5,0.3-4.8,1.7-4.6  c1.4,0.2,5.2,3.2,3.4,4.1c-1.7,0.9-1,2.3,0.6,3c1.6,0.8,4.3-1.3,6.3,0c2,1.3,3.1,0.8,4.6,2.7c1.5,1.9,2.8,5.8,2.9,3.7s-1-5.6,1.8-6  s4.1-1.9,5.9-1.7c1.8,0.2,0.3-1-0.3-2c-0.6-1.1,0.1-2.1-1.8-1.9c-1.9,0.2-2.1-0.4-1.7-1.9c0.4-1.5,1.1-1.9-0.3-3.1  c-1.4-1.2-1.3-2.5,0.6-3.1c1.9-0.6,4.2-2.6,6-1.3s3.8,4.6,4.3,1.4c0.5-3.2-1.6-2.9-2.5-3.2c-0.9-0.3-4.7-2.8-3.9-4.9  c0.9-2.1,3.7-6.6,3.2-8.7c-0.4-2.1-1-2.5,0.6-2.9c1.6-0.4,2.7-4.8,2-6.6c-1.2,1.1-3.2,1-4.8,0.4c-1.8-0.7-3.2-0.5-6.7-0.7  c-3.5-0.2-3.2-1.8-3.3-4.3c-0.1-2.4-1.3-2.4-3.5-1.1s-2.9,1.4-6.4-1c-3.5-2.4-2.5,1.1-6.3,0.7c-3.8-0.4-3.1,0.3-5.6,1.5  c-2.6,1.2-2.3,0.1-3.2-1.9c-1-2-0.4-1.6-2.7-3.6c-2.3-2-0.7-2.3,2.1-3.9c2.8-1.6,2.7-3.8,1.3-8.4c-1.3-4.6-1.2-4.9-3.1-6.8  s-0.2-1.8,1.2-3.7c1.4-1.9-3.7-6.5-4-8.5c-0.3-2-1.8-7.8-3.3-11.6c-1.5-3.7-2-5.6-5.8-7.5c-3.8-1.8-3.5-6-3.5-11.5  c0-5.5,3.5-7.4,6.2-9.2c2.7-1.8,1.1-2.8-1-4.5c-2.1-1.8-0.3-3.2,1.4-6.9c1.8-3.7-0.2-2.8-2.4-2.9c-2.3-0.2-4.3-4.7-5-6.9  c-0.6-2.2-2.7-0.4-3.3,1.3c-0.6,1.7-4,2.8-7.1,3.6c-3.1,0.8-4-2-4.6-3.3s-2.7,1.2-6,1.1c-3.2-0.1-1.3,1.1-1.3,3.4  c-0.1,2.4-3.9-1.8-9.2-3.8c-5.3-2-8.8,4.7-9.9,6.4c-1.1,1.7,0.6,5,4.1,5s2.1,1.8,0.1,2.8c-1.9,1-0.7,2.8-0.7,5.9  c0,3.2-2.5,1.1-5.2,2.2c-2.8,1.1-2.6,1.7-5.5,1.7c-2.9,0-8.4,2.6-10.6,2.4c-2.2-0.3-2.8,0.6-2.8,2.6c0,2.1-0.8,2.9-2.2,2.9  c-1.4,0-1.7,0.6-1.4,2.5c0.3,1.9-2.2,2.4-4.3,1.1c-2.1-1.2-2.9-2.2-5.1-1.8c-2.2,0.4-4.7,3.6-7.5,3.2c-2.8-0.4-5.5,2.9-8.4,3.2  s-5.6,2.8-6.3,4.8c-0.7,2-1.9,6.2-2.9,7.8c-1,1.6-2.2,3.4-3.4,2.4s0.7,0.6-6.3-2.7c-7-3.2-8.3-8.3-9.6-10s-2.8-6.4-4.1-7.8  c-1.3-1.4-3.2,0.5-4.5,3c-1.3,2.5-3.2,1.9-5.9,2.4c-2.7,0.5-8.3,5.3-11,7.2c-2.7,1.9-2.7,2.4-2.9-1c-0.2-3.3-1.4-0.3-2.9,1  c-1.4,1.3-1.6,2.1,0.2,3.5c1.8,1.4,0.6,6.2,0.6,7c0,0.8-1.6,1.8-2.4,4c-0.8,2.2-1.1,2.7-4.6,2.9s-3.7,3-5.6,4s-5.9-0.6-8.9,0.3  c-3,1-1.1,3.2,0.3,3.8c1.4,0.6,2.1,1.1,1.6,2.4c-0.5,1.3-2.5,0.8-5.9-3s-3.7-0.6-5.9,1.6c-2.2,2.2-1.4,3,0,3.8  c1.4,0.8,2.4,2.1,1.6,3.8c-0.8,1.8-1.4,2.9,0.2,3.7c1.6,0.8,2.4,0,4.6-1.8c2.2-1.8,2.9,1.4,3,3.7c0.2,2.2,1.8,8.3,2.1,9.6  c0.3,1.3,2.7,2.2,0.2,5.7c-2.5,3.5-2.1,5.7-1.1,8.9c1,3.2,3.3,2.4,5.7,3.8c2.4,1.4-4.3,8.9-5.7,9.6c-1.4,0.6-3.7,4.5-6.1,5.7  c-2.3,1.2-0.7,3.7-1.7,6.8c0.5,0.4,3.3,2.3,5.5,1.6c2.4-0.9,6.9-0.3,8.2,1.7c1.3,2.1,6.1,8.2,8.1,4.7c2-3.5,3.1-5.6,2.6-8  c-0.4-2.4,0.7-3.8,2.1-2.3c1.4,1.5,3.8,5.1,7.4,4c3.6-1.1,3.3,1.1,3.8,2.8c0.5,1.7-0.3,4.8,1.9,3.3c2.2-1.5,2.3-1.1,2.4,0.8  c0.1,1.9,0,4.7,2.5,3.7c2.5-1,6.6,0.8,5.6,4.6c-1,3.8-3.3,4.8-0.3,5.6c2.9,0.8,6.4-1.3,7.4,1.5s2.3,4,3.5,6.3  c1.3,2.3,4.8,2.4,4.8,6.1c0,3.7,0.4,7.8-2.7,8.2c-3.1,0.3-3.7,1.9-2.5,3.4c1.2,1.4,1.4,1.7,1.4,3.5c0,1.8,1.9,1.3,3.2,3.2  s2.9,1.3,4.7-0.3c1.8-1.6,3.2-2.5,5.4-2.2c2.2,0.3,5.8-2.1,7.7-1.3c1.9,0.8,2.2,1.7,2.2,3.8c0,2.1-0.5,4.2,0.9,4.8  c1.4,0.6,0.7,1.6,1.6,3.2c0.9,1.6-0.6,1.9,4.1,1.6c4.6-0.3,6.7-1,9.9,1.7c3.2,2.7,4.4,5.4,5.8,7.4c1.4,2.1,3.3,5.6,3.3,7.3  c0,1.7-1.5,2.8,1.1,2.8s3.6,0.8,4.9,1.7c1.3,0.9,2,1.6,3.8,0.4c1.8-1.2,3.1-1.5,3.5-2.9c0.4-1.4,2.5-0.7,5.3-0.8  c2.7-0.2,7.3-3.2,8.6-0.9c1.2,2.3,1.1,1.9,3.4,1.8c2.3-0.1,1,1,4.3,1.4c3.3,0.4,7.2-0.4,6.1,1.1c-1,1.5-4.1,2.7-2.5,4.1  c1.6,1.4,4.9-1.8,6,0.6c1.1,2.4,2.1,2.5,4.7,3.1c2.6,0.6,8.5,2.1,9.2,4.3c0.8,2.3,2.4,5.8,3.8,5.6c0.1,0,0.2,0,0.3,0.1  C456.8,266.6,456.8,262.4,456.2,261.5z" stroke-miterlimit="10" stroke="#FFFFFF"/>
<path name="泉州市" fill="#D3D3D3" id="path1" d="M475,384.8c-1.7-1-2.5-0.5-4.8,0.3c-2.3,0.7-1.6,2-2.5,3.6  c-0.9,1.6-5.6,1.9-7,2.9c-1.4,1-3.2,1.8-4.2,0.3c-1-1.5-0.8-2.6,0-3.6c0.8-0.9,2-1.8,2.1-3.4c0.1-1.6,0.2-4.9-1.4-5s-2.3-1-1.9-2.2  c0.4-1.1,0.7-1.2-0.7-2c-1.3-0.8-3.3,1.5-4.5,1.1c-1.2-0.4-1.4-1.2-3.2-0.3c-1.8,0.9-4.2,0.7-6.2,0.3c-2-0.4-2.5-2-2.2-3.3  c0.4-1.3-1.5-3.4-2.6-3.8c-1.1-0.5-1.8-1.6-0.3-2.5c1.5-0.9-0.7-2.3-1.8-3.5c-1.1-1.1-0.2-2.5,1.5-3.8c1.7-1.3-0.7-3.7-1.5-4.4  c-0.8-0.8,0.6-2.2,2.2-2.8c1.6-0.7,1.8-2.8,4.3-4.4c2.5-1.6,2.5-3.1,2.3-4.7c-0.1-1.6,1.3-1.7,2-2.8c0.8-1.1-0.8-2-2.2-3.3  c-1.4-1.2-3.2-4.3-5.6-6.5s-2.5-1.8-3.9-3.3c-1.3-1.5-4.2-5.5-4.6-6.5c-0.4-1.1-0.7-0.4-1.6,0.4c-0.9,0.8-1-1-0.9-2.2  c0.1-1.2,1.9-3.5,2.9-4.4c1-0.9,0.9-1.6,0.5-2.4c-0.3-0.6-0.1-1.9,0-2.7c-0.1,0.1-0.1,0.2-0.2,0.3c-0.5,0.7-1.5,1.4-2.2,0.6  s-2-2.8-3.1-2.3c-1.1,0.6-2.2,0.3-3-0.8c-0.8-1.1-6.2-2.9-7.1-0.1c-0.8,2.8-3.3,3.8-5.4,3.4c-2.1-0.4-3-2.5-4.6-1.9  c-1.6,0.7-2.1,0.6-3.3-0.3c-1.2-0.8-1.6-1.6-3.6-0.4c-2,1.2-3.9,1.1-4.6,2.2c-0.8,1-3.8,1.3-5.1-0.5c-1.3-1.8-3.3-1.7-3.3,0.4  s-0.6,2.3-0.6,5.7c0,3.4,1.2,4.9,0.8,7.2c-0.4,2.3-0.5,2.8-1.8,2.9c-1.3,0.1-0.8,2.1,0.5,2.4c1.3,0.3,3.2,2.4,0.3,3  c-2.9,0.7-6.5,3-4.4,5.6s4,6.6,6.6,5.2c2.6-1.4,5.2-2.2,3.8,0.4c-1.4,2.5-0.5,4.2-3.1,5.7c-2.6,1.4-6.7,4.5-9.3,5.3  c-2.6,0.7-6.2,2.1-8.1,2.1c-1.9,0-2.9,0.3-3.3,1.1c-0.4,0.7-1.8,0-2.8-0.5c-1-0.5-1.5-1.9-2.6-1.3c-1.2,0.6-1.4,0.8-2.3-0.1  c-0.9-0.9-1.6-1.8-2.9-1.2c-0.4,0.2-0.8,0.4-1.3,0.5c0.4,0.7,1.2,2.1,1.2,3.1c0,1.4-3.4,3.9-3.4,3.9s0.2,3.5-0.3,5.2  c-0.6,1.8-1.4,3.9-0.6,5.6c0.8,1.8-0.4,1.5-2.8,1.7c-2.4,0.2-2.7,1-4.5,2.3s0.8,2.2,1.8,3.5c0.8,1.1-4.6,6.3-6.4,8  c1.4-0.8,10.4,7.3,10.5,9.2c0.1,1.9,0.5,5.6,2.6,7c2.2,1.4,4.3,3.9,3.4,5.1c-0.9,1.2-1,1.8-4.3,1.5c-3.3-0.3-2.5,1.8-3.6,2.8  s-5.6,3.5-4.5,4.4s2.9,4.8,3.4,6.6c0.5,1.9,3,3,4.3,2.1c1.4-0.9,7.5-6.5,8.6-5.2c1.2,1.2,4.2,5.8,6.6,4.4c2.4-1.4,5.3-3.9,6.1-2.8  c0.8,1.2,2.4,3.8,3.5,4.1c0.1,0,0.2,0,0.3,0.1c2.1-0.3,6.5-0.8,8.4-0.3c2.6,0.6,8.7,1.4,10.7,0c2-1.4,6.3-1.8,7.8-3.5  c1.4-1.6,2.6-2.1,3.6-0.3c1,1.8,3.2,4.1,3.2,5.2c0,1-0.9,2.1,1.5,2.1s6.3-1.7,7.2,1.9c0.8,3.6,1.1,4.1,0.8,5.2  c-0.3,1.1-0.7,2.5,0.4,3.4c1.1,0.9,1.9,2.3,2.2,4.3c0.2,2,0.1,2.4,1,3.4s1.1,3.6,1.1,5c0,1.2,0.7,4.2,1.6,5.4c0,0,0.1,0,0.1-0.1  c1.3-0.7,5.8-1.2,7.4-1.8c1.6-0.6-0.3-4.5-0.3-6.8c0-2.3,0.7-2.6,1-3.9c0.3-1.4,0.2-1.4,1.4-1.3c1.1,0.1,0.8,3.8,0.2,5.1  c-0.6,1.3,0.1,1.3,1,2.1c0.9,0.8,0.2,0.9-1,0.9c-1.2,0-0.3,0.9,0.7,0.9c1,0,5.4,1.7,6.7,2.2c1.4,0.5,3.5,3.9,4.1,3.2  c0.6-0.6,0.7-0.4,2.2,0.1c1.4,0.5,1.6,2.3,0.5,2.8c-1.1,0.5-1.8,0.9-1.6,2.7c0.2,1.8,2.1,1.4,3.4,1.4c1.3,0,1.3-1,2.1-1.3  c0.8-0.3,2.3-1,1.2-1.9c-1.1-0.8-0.9-1.5,0.2-1.5s1.4-0.4,3.5-1.4c2.2-1,1.1-3.1,1.9-3.9c0.8-0.9,1.8-1.8-0.2-1.8  c-2,0-3-0.2-4.1-1.7c-1.1-1.5-1.9-3-1.2-3s1.4-1.6,3.8-2.5c2.3-0.9,0.7,1.9,1.8,1.7c1.1-0.2,1,1.8,2.6,0.6c1.6-1.2,2.8-3.9,2.8-5.8  c0-1.8,0.4-1.7,1.7-2.2c1.3-0.5,2.3-1.8,3.8-3.1s-2.7-2.6-4.3-1.6c-1.5,1-2.7,0-2.8-1.1c-0.1-1.1,0.7-2.4-0.9-2.4  c-1.6,0-2.4,3.5-3.9,3.5c-1.5,0.1-3.7-2.9-4.5-4.6c-0.8-1.7-0.1-2,0.5-3.2c0.6-1.2-2-2.7-3.5-2.4c-1.4,0.2,0.2-1,1.2-1.7  s1.6,1,2.7,2.4c1.1,1.4,1.9,0,3.6-1.9c1.7-1.9-0.1-2.9-1.4-3c-1.4-0.1-2.3-2.3-0.6-3.1c1.8-0.8,0.6-3.1,1.1-4.3  c0.5-1.3,2.6,2.8,2.5,5.1c-0.1,2.3,1.2,3.2,2.1,3.8c0.9,0.6,0.4,1.4-0.8,2.7c-1.2,1.4,1.4,2.2,3.1,1.4c1.7-0.8,5.7-0.7,6.3-1  c0.6-0.2,2.2-1.4,3.3-0.7c1,0.6,1.6-0.2,1.6-1.2c0-1,1.7-0.7,3.3-1.9c1.6-1.2,2.4-0.6,2.5,0.6c0.1,1.2,1.8,0.7,2.9,1.1  c1,0.4,1.5,1.5,2.4,0.6c0.9-1,1.7-0.7,3.1-0.6c1.4,0.2,1.9-0.9,1.7-1.8c-0.2-0.9-1.1-2-2-1.4c-0.8,0.6-1.5,0.3-2.9,0  c-1.5-0.3-2.8-1.9-2.8-2.9c0-1-2-1-2.7-2c-0.7-1,0.5-1.2,1.2-0.5c0.7,0.7,0.6,0.2,1.6-0.2c1-0.4,1.7-1,2.4-2.8  c0.7-1.9,2.4,0.6,3.8,0.7c1.5,0.1,0.6,1.7,0.9,2.6c0.4,0.9,3.4-0.2,4.2-0.7c0.8-0.5,2.1-1.4-0.4-1.4c-2.5,0-1.7-0.5-2.8-1.2  c-1.2-0.7-2.3-2.6,0.5-2.7c2.9-0.1,1.5-1.7,0.9-3.7c-0.6-2.1,0.2-1.4,1.2-2.5c1-1.1-1.1-0.2-2.5,0c-1.4,0.2,0.1,1,0.1,2.3  c0,1.3-0.3,0.9-1.4,2.4s-3.5,0.8-3.5-0.5c0-1.3-0.6-0.9-3.1-0.7c-2.5,0.2-5.1-4.8-6.3-6.8c-1.3-2,0.7-1.4,1.5-2.7  c0.8-1.3,2.5-1,4.4-1.1c1.9-0.1,2.7,0.2,4.9,0.2c2.2,0,0.8-1.4-0.6-2.7c-1.4-1.3-1.4-2.3-0.9-3.2s0.8-1.4,2.4-0.2  c1.6,1.2,2.2-0.4,0.7-1.9c-1.5-1.5-0.4-0.6,0.8-1.8c1.2-1.2-2.7-0.9-4.9-1c-2.2-0.1-1-0.9-1-2.6s-0.5-1.6-4.1-1.1  c-0.9,0.1-1.4,0.2-1.6,0.1C478.6,383.8,476.4,385.6,475,384.8z" stroke-miterlimit="10" stroke="#FFFFFF"/>
<path name="龙岩市" fill="#D3D3D3" id="path2" d="M344.7,379.6c-1-1.4-3.5-2.3-1.8-3.5s2.1-2.2,4.5-2.3  c2.4-0.2,3.6,0.1,2.8-1.7c-0.8-1.8,0.1-3.9,0.6-5.6c0.6-1.8,0.3-5.2,0.3-5.2s3.4-2.5,3.4-3.9c0-1-0.7-2.3-1.2-3.1  c-1,0.3-1.9,0.3-1.9-0.5c0-1.2-0.2-2,0.9-2.6c1.1-0.6,4.2-5.3,2.5-5.3c-1.7-0.1-6.3-3.8-6.8-5c-0.5-1.3,0.4-6.2-1.8-5.9  c-2.2,0.3-3.4,1.9-5,0.9c-1.6-1.1-7.3-6.8-8.7-7.7c-1.5-0.9-4.3-1.5-4.4,0.3c-0.1,1.7-1.7,2.8-2.5,3.4c-0.8,0.6-0.8,4.3-3.3,4.8  c-2.5,0.6-4.6,0.8-4.5-1.6c0.2-2.4,0.4-7.4-1.9-8.2c-2.3-0.9-1.6-2.9-5.1-0.7c-3.5,2.2-7.7,3.3-6.6,5.2c1.1,1.9,1.3,2.7,0.2,4.1  c-1.1,1.4-2.1,3.1-2.1,4.7s-0.5,3.1-1.6,2.4c-1.2-0.7-2.2-1.5-2.4,0c-0.2,1.6,0.1,4.6-1.1,5.6c-1.3,1-2.4,1.9-2.5-0.7  c-0.1-2.6-2.6-7.7-4.7-8.2c-2.1-0.5-5.9-1.2-5.9-4.1c0-2.9-1-5.5-0.5-8c0.5-2.6-0.2-6.2-1.5-8.3c-1.2-2.1-1.7-6.6-4.2-6.1  c-2.5,0.5-7.4,1.4-8.9,1.1c-1.5-0.3-3.2,0.3-3,2.2c0.2,1.9-2.2,2-3.1,3.6c-0.9,1.6-3.3,1.5-5.6,0.4c-2.3-1.1-6.2-2.4-4.7-4.1  c1.4-1.8,3.4-3.3,1.4-3.3s-4.9,0.6-4.7-1.6c0.2-2.3,2.1-4.4,0.2-5c-1.9-0.6-12.5-1.7-12.1-4.1c0.5-2.3,2.3-5.7,1.4-6.7  c-0.9-1-2.1-0.8-4.6,0c-2.4,0.8-6.4-1.6-8.3,0c-1.9,1.6-3.8,4-5,2.2c-1-1.7-6.3-6.6-8.7-7.4c-1.9,1.6-2.3,2.9-3.3,5.8  c-1.3,3.7-3.8,2.4-4.8,4.5c-1,2.1-2.2,3.5-8.6,3.7c-6.4,0.2-6.4,2.5-9.7,4.9c-3.3,2.4-3.2,4.6-1.6,5.6c1.6,1,3.2,1.9,4.3,5.3  c1.1,3.3-1.8,3.5-3.2,2.5s-2.5,0.5-3.2,2.1c-0.6,1.6-2.4,5.3-4.8,5.4c-2.4,0.2-1.4,6.1-2.4,6.7c-1,0.6-1.3,3.7-0.4,4.6  c1,0.9,2,4.1,0.8,5.4c-1.2,1.3-3.5,6.2-4.4,8c-0.9,1.8,0.1,3.8,1.1,4.8c1,1,1.2,5-1.5,5.9c-2.7,0.9,0.4,4.3,1.6,5  c1.2,0.7,0.3,2.4-0.7,3c-1,0.6-3,1-4.6,3.5c-1.6,2.4-7.4,5-8.8,5.3c-1.4,0.4-1.7,3.8-1.9,5.7c-0.1,1.9,1.4,2.2,2.6,3  c1.3,0.8,0.3,1.9-0.8,3.1c-1.1,1.2,2.6,3.2,4.1,5.8c1.5,2.6-2,3.2-2.7,3.2c-0.7,0-1.3,0.5-1.6,2.1c-0.4,1.6,0.7,3.6,1.6,4.8  c0.8,1.3-2.3,1-3.7,0.5c-1.4-0.5,0.8,3,2.2,5.1c1.4,2.2,3.4,1,4.5,0.5c1-0.4,3.3,0.2,4.1,1.2c0.8,1,2.3,1.7,3.5,1.3s2.3,0.2,2.6,1.2  c0.2,1,1,2.3,2.1,3.7c1.1,1.4,4.1,1.5,5.1,1.5c1,0,3.1,0.7,4.3,0.8c1.2,0.1,2.2-1.3,3.4-2.4c1.2-1.1,2.3-0.2,3.1,1.4  c0.8,1.6,3.3,2.7,4.1,2.7s2,1.3,0,2.4s1,1.2,3,1.2c2,0,3.2-0.1,4-1c0.8-0.9,0.9-1.6,2.7-2.2c1.9-0.6,2.1-1.4,2.1-3.8  c0-2.4,2.7-2,4.2-2.1c1.4-0.1,1,3.3,0.9,4.6c-0.1,1.3-2,2.5-2.8,3.5c-0.8,0.9,0.9,1.4,1.8,1.6s4.3,6.5,4.9,7.8  c0.6,1.3,2,2.6,3.4,1.6c1.4-1,2.3,3.2,3.7,5.7c1.4,2.5-1.1,5.6,0.2,6.7c1.3,1.1,9.6-2.6,11.3-3.2c1.6-0.6,7-2.7,9-2.8  c2-0.1,6,0.5,9.1-1c3.1-1.5,3.4,1.6,4.3,2c0.9,0.4-3.6,5.8-5.9,8.8c-2.3,2.9,0.3,6.5,1.5,8.6c1.2,2,3.4,2.3,5.2,2  c1.8-0.3,1.1,3.8,1,5.4c-0.1,1.6,0.5,2.7,2.3,3.8c1.8,1.1,1.5,3,2.8,3.5c0.7,0.3,1.2,1.4,1.4,2.5c1.3-1.7,6-7.7,5.7-9.8  c-0.3-2.3-5.7-9-3.2-9.8c2.5-0.9,9.7-0.7,9.7-2.8c0-2.1,3.1-5.9,1.9-8.1c-1.2-2.2-1.5-15.9,0.3-19.4c1.8-3.5,2.9-3.1,3.7-0.1  c0.7,2.9,3.5,4,5.7,2.3c2.2-1.6,5.8-4.9,6.1-8.5c0.3-3.7,2.2-5.8,3.9-5.8c1.8,0,3.4-1.4,3.6-3.7c0.2-2.3,0.1-4,2.4-5.2  c2.3-1.1,2.2-2.1,4.1-0.2c2,1.9,1.4,0.8,4-0.3c2.6-1.1,2.4,0.7,5.5,1.8c3.1,1.1,10.1,3,11.5-1c1.3-4,1-8.1,0.8-9.9s3.6-5.3,0.4-6.5  c-3.2-1.2-3.4-3.7-1.6-5.3c1.8-1.6,7.8-2.1,9.1-3c0,0,0,0,0,0C340.1,385.9,345.5,380.7,344.7,379.6z" stroke-miterlimit="10" stroke="#FFFFFF"/>
<path name="三明市" fill="#D3D3D3" id="path3" d="M220.8,297.3c1.1,1.8,3.1-0.7,5-2.2c1.9-1.6,5.9,0.8,8.3,0  c2.4-0.8,3.6-1,4.6,0c0.9,1-0.9,4.4-1.4,6.7c-0.5,2.3,10.2,3.4,12.1,4.1c1.9,0.6,0,2.8-0.2,5c-0.2,2.3,2.8,1.6,4.7,1.6  s0,1.5-1.4,3.3c-1.4,1.8,2.5,3,4.7,4.1c2.3,1.1,4.6,1.2,5.6-0.4c0.9-1.6,3.3-1.8,3.1-3.6c-0.2-1.9,1.4-2.5,3-2.2  c1.5,0.3,6.5-0.6,8.9-1.1c2.5-0.5,3,4,4.2,6.1c1.2,2.1,1.9,5.7,1.5,8.3c-0.5,2.6,0.5,5.1,0.5,8c0,2.9,3.8,3.6,5.9,4.1  c2.1,0.5,4.6,5.6,4.7,8.2c0.1,2.6,1.2,1.7,2.5,0.7c1.3-1,0.9-4.1,1.1-5.6c0.2-1.5,1.3-0.7,2.4,0c1.2,0.7,1.6-0.8,1.6-2.4  s1.1-3.4,2.1-4.7c1.1-1.4,0.9-2.1-0.2-4.1c-1.1-1.9,3.1-3,6.6-5.2c3.5-2.2,2.8-0.2,5.1,0.7c2.3,0.9,2.1,5.8,1.9,8.2  c-0.2,2.4,1.9,2.2,4.5,1.6c2.5-0.6,2.5-4.3,3.3-4.8c0.8-0.6,2.4-1.6,2.5-3.4c0.1-1.7,2.9-1.2,4.4-0.3c1.5,0.9,7.1,6.6,8.7,7.7  c1.6,1.1,2.8-0.6,5-0.9c2.2-0.3,1.4,4.6,1.8,5.9c0.5,1.3,5,4.9,6.8,5c1.7,0.1-1.4,4.7-2.5,5.3c-1.1,0.6-0.9,1.4-0.9,2.6  s1.9,0.7,3.2,0.1c1.3-0.6,2,0.2,2.9,1.2c0.9,0.9,1.2,0.7,2.3,0.1c1.2-0.6,1.6,0.7,2.6,1.3c1,0.5,2.4,1.3,2.8,0.5  c0.4-0.7,1.4-1.1,3.3-1.1c1.9,0,5.5-1.4,8.1-2.1c2.6-0.7,6.6-3.9,9.3-5.3c2.6-1.4,1.7-3.1,3.1-5.7c1.4-2.5-1.1-1.8-3.8-0.4  c-2.6,1.4-4.5-2.6-6.6-5.2s1.5-4.9,4.4-5.6c2.9-0.7,1-2.7-0.3-3c-1.3-0.3-1.8-2.3-0.5-2.4c1.3-0.1,1.4-0.7,1.8-2.9  c0.4-2.3-0.8-3.8-0.8-7.2c0-3.4,0.6-3.6,0.6-5.7s2-2.2,3.3-0.4c1.3,1.8,4.3,1.5,5.1,0.5c0.8-1,2.6-0.9,4.6-2.2  c2-1.2,2.4-0.5,3.6,0.4c1.2,0.8,1.7,0.9,3.3,0.3c1.6-0.7,2.5,1.5,4.6,1.9c2.1,0.4,4.5-0.6,5.4-3.4c0.8-2.8,6.2-1,7.1,0.1  c0.8,1.1,1.9,1.4,3,0.8c1.1-0.6,2.5,1.4,3.1,2.3s1.7,0.1,2.2-0.6c0.5-0.7,1.6-2.7,2.8-3c1.2-0.3,1.4,1.8,2,2.9  c0.1,0.2,0.1,0.4,0.1,0.5c0.1-0.2,0.5-1,2.7-2.2c3.9-2.2,4.2-7,4.2-9.2c0-2.3,1.7-3.7-0.1-6.6c-1.8-2.9,3-4.4,4.6-4.4  s2.5-0.7,3.7-3.4c1.1-2.7,0-3.5-1.5-4.3c-1.5-0.8,1.9-4.2,2-6c0.1-1.8,2.5-1.7,4.3-2c1.9-0.3,3.7-4.7,2.4-4.4  c-1.3,0.3-3-3.3-3.8-5.6c-0.8-2.3-6.6-3.8-9.2-4.3c-2.6-0.6-3.6-0.8-4.7-3.1c-1.1-2.4-4.4,0.8-6-0.6c-1.6-1.4,1.4-2.6,2.5-4.1  c1-1.5-2.8-0.8-6.1-1.1c-3.3-0.4-2.1-1.5-4.3-1.4c-2.3,0.1-2.2,0.5-3.4-1.8c-1.2-2.3-5.8,0.8-8.6,0.9c-2.7,0.2-4.9-0.6-5.3,0.8  c-0.4,1.4-1.7,1.7-3.5,2.9c-1.8,1.2-2.4,0.6-3.8-0.4c-1.3-0.9-2.3-1.7-4.9-1.7s-1.1-1.1-1.1-2.8c0-1.7-1.9-5.2-3.3-7.3  c-1.4-2.1-2.6-4.7-5.8-7.4c-3.2-2.7-5.3-2-9.9-1.7c-4.6,0.3-3.1,0-4.1-1.6c-0.9-1.6-0.2-2.6-1.6-3.2c-1.4-0.6-0.9-2.7-0.9-4.8  c0-2.1-0.3-2.9-2.2-3.8c-1.9-0.8-5.5,1.6-7.7,1.3c-2.2-0.3-3.6,0.6-5.4,2.2c-1.8,1.6-3.4,2.3-4.7,0.3s-3.2-1.3-3.2-3.2  c0-1.8-0.3-2.1-1.4-3.5c-1.2-1.4-0.6-3,2.5-3.4c3.1-0.3,2.7-4.5,2.7-8.2c0-3.7-3.5-3.8-4.8-6.1c-1.3-2.3-2.5-3.4-3.5-6.3  s-4.5-0.8-7.4-1.5c-2.9-0.8-0.7-1.7,0.3-5.6c1-3.8-3.1-5.6-5.6-4.6c-2.5,1-2.4-1.9-2.5-3.7c-0.1-1.9-0.2-2.3-2.4-0.8  c-2.2,1.5-1.3-1.5-1.9-3.3c-0.5-1.7-0.2-3.9-3.8-2.8c-3.6,1.1-6-2.5-7.4-4c-1.4-1.5-2.5-0.1-2.1,2.3c0.4,2.4-0.7,4.5-2.6,8  c-2,3.5-6.8-2.6-8.1-4.7c-1.3-2.1-5.8-2.6-8.2-1.7c-2.2,0.8-4.9-1.1-5.5-1.6c0,0.1,0,0.2-0.1,0.2c-1.1,3.2-5.1,2.5-7.5,5.3  c-2.4,2.7-4.5,3.3-7,3.2c-2.5-0.2-5.6,2.9-8.6,1.9c-3-1-4.8,3.2-9.9,2.2c-5.1-1-15.6,12.7-18.6,16.9c-3,4.1-1,6.7-0.5,8.9  s-4.3,5.6-4.6,6.7c-0.3,1.1,0.6,4.8,3.8,6.7c3.2,1.9,1.1,7-0.3,9.1c-1.4,2.1,0.8,5.1,2.4,5.3c1.6,0.2,2.1,2.5,2.2,4.3  c0.2,1.8,1.6,1.9,3.3,1.9s-1.9,9.6-2.7,11.8c-0.8,2.2-3.7,1.6-6.8-1.9c-3.2-3.5-3.3,1.1-4.3,3c-1,1.9-6.8,7.3-7.6,9.2  c-0.8,1.9-3.7,4.3-3,5.6c0.6,1.3,1.4,4.5,0.5,5.6c-1,1.1-0.6,2.4,0.8,3.3s2.9-0.2,5.6-1.3c2.7-1.1,1.4,1.9,1.4,3s1.4,3.2-0.2,5.1  c-1.6,1.9-3.7,4.6-7.6,7.2c-0.9,0.6-1.6,1.1-2.2,1.5C214.5,290.7,219.8,295.6,220.8,297.3z" stroke-miterlimit="10" stroke="#FFFFFF"/>
<path name="厦门市" fill="#D3D3D3" id="path4" d="M421.7,448.4c-1-1-0.8-1.4-1-3.4c-0.2-2-1.1-3.4-2.2-4.3  c-1.1-0.9-0.6-2.3-0.4-3.4c0.3-1.1,0-1.7-0.8-5.2c-0.8-3.6-4.8-1.9-7.2-1.9s-1.5-1-1.5-2.1c0-1-2.2-3.4-3.2-5.2  c-1-1.8-2.2-1.3-3.6,0.3c-1.4,1.6-5.7,2.1-7.8,3.5c-2,1.4-8.1,0.6-10.7,0c-1.9-0.5-6.3,0.1-8.4,0.3c1.4,0.3,5.2,0.6,5.1,3.8  c-0.2,3.4-1.5,7-2.5,8.5c-1,1.5-1.5,3-0.6,4.6c0.9,1.5,5,4.9,2.2,7.2c-2.8,2.3-3.9,4.9-5.6,4.9c-1.7,0-2.9,1.7-1.6,2.9  c1.3,1.2,4.1,3.1,5,6.4c0.8,3.1,4.3,6.1,1.6,7.1c0.3,0.1,0.5,0.3,0.8,0.6c0.9,1.1,2.4,1.3,3.6,1.1c1.2-0.2,1,0.7,3.1,1.6  c2.1,0.9,2.5,1.2,4,0.2c1.5-1-1.6-2-3.6-2.7c-2-0.8,3.8-3.5,5.4-3.9c1.6-0.3,0.8-0.8-0.1-1.5c-1-0.7-0.5-2-1.6-2.2  c-1.2-0.2-1.2-0.2-2-2.2c-0.8-2,1.4-1.3,2.8-1.3s4.2,0.4,5.4,1.2c1.2,0.8-1.1,2.3-0.9,3.1c0.2,0.8-0.3,2.5-1.4,2.9  c-1.1,0.3-1.2,4.6-0.8,7.2c0.5,2.6,3.2,2,3.8,1.3c0.6-0.7,1.2-0.1,1.9,0.5c0.7,0.6,2.3-1.1,3.3-1.2s1.6-1.4,2-2.3  c0.5-0.8,0.4-3.1,1.6-3.3c1.2-0.2,1.1-2.2,0.8-4.2c-0.2-2-2.2-0.2-3.4,1.3c-1.2,1.5,0.5-3.2-0.2-4c-0.7-0.9,0.2-1.1,0.6-3.5  c0.4-2.4-0.2-1.3-1.3-2.5c-1.2-1.2-3,0.5-4.3,1.2c-1.3,0.7-1.2-1,0.1-1.5s2-3.1,2.1-4.2c0.2-1.1,1.5-2.7,2.6-3.1  c1-0.4,0.6-2.8,0.5-4.2c-0.1-1.3,2.6,4.1,3.1,4.6c0.5,0.5,1,1.8,0.2,1.9s-0.8,1-0.9,2.4c-0.1,1.4,0.7,1.5,1,2.8s-0.2,2.5-0.7,3.4  c-0.4,0.9-0.8,1.7,0.1,2.5c0.9,0.7,1.7,0.3,2.2-0.9c0.5-1.2,1.9,0.2,2.2,1.3c0.3,1.1,1.7-0.5,2.1-1.5c0.4-1,1.2-2.1,2.8-2.2  c1.5-0.1,1.3-0.7,1-2.4c-0.4-1.7,1.8-0.7,4.1,0.4c2.3,1,2.7,0.6,3.9-0.1c-0.9-1.2-1.6-4.2-1.6-5.4  C422.8,452,422.7,449.3,421.7,448.4z" stroke-miterlimit="10" stroke="#FFFFFF"/>
<path fill="#D3D3D3" id="path5" d="M435.6,470.5c-0.7-0.2-0.7-0.5-1-1.6c-0.3-1-1.9-1.6-2.7-2.5  c-0.8-0.9-2.3-2.5-2.3,0.2c0,2.7-1.3,3.9-1.4,3.9c-0.1,0-2.8,3.6-4.9,2.3c-2.1-1.4-3.7-2.9-4.5-1.7c-0.8,1.3-1.9,1.8-0.7,1.7  c1.2-0.2,2.2-0.1,1.5,1c-0.7,1-0.7,2.1-0.7,3.2c0,1.2,0.9,2.2-1.3,2.3c-2.2,0.1-1.7,0.8-0.7,1.6c0.9,0.8,5,2.4,6,0.6  c1-1.8,1.7-4.3,6.3-4c4.6,0.3,3.3,2.5,5.1,2.3c1.8-0.3,3.1-3.3,3-5C437.3,473.1,436.4,470.8,435.6,470.5z" stroke-miterlimit="10" stroke="#FFFFFF"/>
<path name="莆田市" fill="#D3D3D3" id="path6" d="M515.6,356.6c-0.8,0.5-1.5,1.6-1.1,1.9c0.6,0.3,1.8,0.6,0,1.2  c-1.8,0.6-3.6,1.3-4.4,2.2c-0.8,0.9-3.3,2.7-4.6,2.7s-1.1,0.8-0.3,1.6c0.8,0.8,1.7,2.3,2.3,2.8s2.9-0.8,2.9-0.2  c0,0.6-1.1,1.9,0.8,2.3c1.8,0.4,2.6,1.3,3.2,0.4c0.6-0.8,1.3-1.1,1.5,0.4c0.2,1.5,0.1,2.9-1.1,3s-2.3-0.1-0.7,2.2s2.3,3.9,2.5,1.5  c0.2-2.4,2.3-1.4,2.4-3.3c0.1-1.9,0-1.6,2-1.5c2,0.1,1.5-0.7,3.1,1.1c1.6,1.8,2.7,1.2,5.2,3c2.5,1.8,4,1.1,1.7,2.3  c-2.3,1.2-2.2,1.9-5,1.9c-2.8,0-4.8-0.4-3.5,0.6c1.3,1,1.1,0.5,1.5,2.4c0.4,1.9,2.3,3.4,0.7,3.6c-1.6,0.2-2.1,2-2.6,1.5  c-0.5-0.5-0.1-2.4-1.9-2.3c-1.8,0.1-3.3,0.2-2.2-0.7c1.1-0.9,0.6-1-0.9-0.1c-1.5,0.9-4.3,2.6-5.9,0.5c-1.6-2.1-3.5-3.9-5-3.3  c-1.5,0.6-1.2,2.3-2.3,2.7c-1.1,0.4-2.6,1.7-1.1,2.6c1.5,0.9,3.3-0.5,4.3,0.5c1,1-0.6,2.1,0.5,2.2c1.1,0.1,3.2-0.3,2.6,1.5  c-0.6,1.8-2.7-0.7-3.7,0.5c-1,1.2-0.9,3.6-2.4,2.2c-1.5-1.4-2.5-2.8-4.1-2.1c-1.6,0.7-2,2.9-2.8,1.2c-0.8-1.7-1-2.2-0.1-2.2  c0.9,0-2.8-3.3,0-4.4s3.5-1.2,3.5-3.3c0-2.1,0.2-3.8-1-3.4c-1.2,0.4-3.7,0.4-4.7,1.2c-1,0.8-1.6,1.3-2.7,1.1c-1.1-0.2-4.2,0.4-2.8-1  c1.4-1.4,2.3-1.2,1.8-2.3c-0.5-1.1-0.5-3.1,1.4-1.6c1.9,1.5,3.8,1.1,3.9,0.1c0.1-1-1.4-2.6-3-2.6c-1.6,0-8.9,2.1-11.3,3.7  c-1.8,1.2-3.7,2.1-3,2.2c-0.7,0.6-2.9,2.5-4.3,1.6c-1.7-1-2.5-0.5-4.8,0.3c-2.3,0.7-1.6,2-2.5,3.6c-0.9,1.6-5.6,1.9-7,2.9  c-1.4,1-3.2,1.8-4.2,0.3c-1-1.5-0.8-2.6,0-3.6c0.8-0.9,2-1.8,2.1-3.4c0.1-1.6,0.2-4.9-1.4-5s-2.3-1-1.9-2.2c0.4-1.1,0.7-1.2-0.7-2  c-1.3-0.8-3.3,1.5-4.5,1.1c-1.2-0.4-1.4-1.2-3.2-0.3c-1.8,0.9-4.2,0.7-6.2,0.3c-2-0.4-2.5-2-2.2-3.3c0.4-1.3-1.5-3.4-2.6-3.8  c-1.1-0.5-1.8-1.6-0.3-2.5c1.5-0.9-0.7-2.3-1.8-3.5c-1.1-1.1-0.2-2.5,1.5-3.8c1.7-1.3-0.7-3.7-1.5-4.4c-0.8-0.8,0.6-2.2,2.2-2.8  c1.6-0.7,1.8-2.8,4.3-4.4c2.5-1.6,2.5-3.1,2.3-4.7c-0.1-1.6,1.3-1.7,2-2.8c0.3-0.5,0.2-1-0.2-1.4c0.4-1,2.1-4.9,5.1-4.9  c3.5,0,10.8-0.9,13.6-1.1c2.8-0.2,5.7-0.2,7.5-1.4c1.7-1.2,2.3-2.2,3.7-0.5c1.5,1.7,3.9,2.3,5.7,1.1c1.8-1.2,1.8-1.7,2.9-1.5  c1.1,0.3,12.3-2.6,15.8-3.7c3.5-1.1,8.1-1.2,9,0.4s1.8,3.8,1.8,5.8s1.4,8,2.1,10c0.8,1.9,1,2.5,3.3,2.1c2.2-0.3,3,0.9,3.2,2.1  c0.3,1.2,0.1,4.5-1.9,5.7C514.6,354.7,515.5,356.5,515.6,356.6z M551.4,386.4c0,0-3-0.1-4.2-1.1c-1.2-1-1.5-1.1-1.5-2.4  c0-1.3-0.6-1.3-1.1-1.3s-1.8-1.8-2.2-0.8c-0.4,1-0.5,2.2-1.7,2.2c-1.2,0-0.3,0.4-0.1,1.8c0.2,1.4,1,1.9,2.1,2  c1.1,0.1,4.9,1.2,4.3,2.2c-0.6,1.1-0.1,1.6,1.7,2.1c1.8,0.5,3.9-0.7,3.4-1.6c-0.6-0.9-1.4-1.4-0.5-1.4c0.9,0,2.4,0,1.6-0.8  C552.5,386.5,551.4,386.4,551.4,386.4z M507.6,401.2c0.6-0.5,1.2-1.1,0.5-2c-0.7-1-1.4-1.1-1.9,0.1c-0.6,1.2-1.7,2.2-1,3  c0.7,0.8,1.1,2,0,1.7s-1.9,0.1-0.7,1.4c1.2,1.3,2.3,1.6,2.7,1c0.4-0.6,0.6-1.1,0.6-1.1s1.1-1.6,0.4-2.2  C507.4,402.4,507,401.7,507.6,401.2z" stroke-miterlimit="10" stroke="#FFFFFF"/>
<path fill="#D3D3D3" id="path7" d="M413.9,476.1c-1-0.8-2.3-1.2-2.9-0.8c-0.6,0.5-1.3,2.2-0.7,3.7  c0.6,1.5,3.1-0.4,4-1.2C415.4,477,414.9,476.8,413.9,476.1z" stroke-miterlimit="10" stroke="#FFFFFF"/>
<path name="福州市" fill="#D3D3D3" id="path8" d="M574.6,231.2c-0.2,0.8-0.5,1.2,0.4,1.9c1.1,0.8,1.3,2.3,2.1,2.7  c0.8,0.4,0.9,0.8-0.1,1.1c-1,0.3-1.3,0.8,0.1,1.5s2.4,0.6,2.3,2c-0.1,1.4-0.2,1.7,0.5,2c0.8,0.3,0.3,1.4-0.2,1.5  c-0.5,0.1,0.2,1.6,1,1.6s0.9,0.5-0.4,0.8c-1.3,0.2-5.2,3.1-5.6,2.1s0.7-2.8-0.6-3.8c-1.3-1-2-2.4-2.1-1.5c-0.2,0.9-1.2,1.6-2.2,0.9  c-1-0.7-1.3-1.6-2.6-1.6s-1.6-0.1-1.5-1c0.2-0.9-0.5-0.9-1.2-0.9c-0.6,0-1.4,0.8-1.1-0.5c0.3-1.3,0.6-2.5-0.6-2.3  c-1.3,0.2-1.9,0.3-1.8,1.3c0.1,1-0.2,1.4-0.8,1.7s-0.9,0.7-0.9,1.3c0,0.6-1.9-0.2-2.2-1.3c-0.3-1.1-2.2-0.8-3.1-0.8  c-0.9,0-0.5,0.3-0.2,1.2c0.3,0.9-0.4,2.2,0.3,2.7c0.7,0.5,0.3,2.3,0.7,2c0.4-0.3,1.9-1.9,2.9-1.2c1,0.7,2.2,2.2,2.5,1.3  c0.3-0.9,2.1-3,2.7-1.6c0.6,1.3-1.1,1.3-0.2,2.3c0.9,1,0.6,1.4,0.5,2.7c-0.2,1.3-0.4,2,0.2,2.7c0.6,0.6,1.1,1.4-0.4,1.6  c-1.5,0.2-1.9,1.2,0.6,1.5c2.5,0.3,4.9,0.9,4,1.6c-0.9,0.7-1.7,0.7-1.5,1.9c0.2,1.2,0.9,1.3,2.5,1.3c1.6,0,2-1,3.2-1.5  c1.3-0.5,1.4,0.6,1.3-1.3c-0.2-2-0.2-5.2,1.2-4.2c1.3,1,1.5,0.9,1.7-0.2c0.2-1.1,1.6,1.3,1-1.3c-0.5-2.6,0.1-2.7,2.4-3.2  c2.3-0.5,5.9-2.7,6.3-0.5s0.9,1.2,0.3,3.4c-0.6,2.3-1.6,2.8,1.3,2.8c3,0,6-0.5,4.3,1.4c-1.7,2-3.5,1.8-3.4,3.1  c0.2,1.3-1.3,1.4-2.9,0.6c-1.6-0.8-3.1-1.5-4.5-0.7c-1.5,0.8-2.8,0.4-2.9,2.2c-0.1,1.8-3.9,2.8-6.1,2.8c-2.1,0-6.8,1.5-8.4,1.3  c-1.6-0.3-6,2-4.2,2.3c1.9,0.3,5.5,2,4.5,2.9c-1,0.9-1.4,1.5-1.4,2.5s-5.7,2.8-4,3.8c1.6,1,5,2.4,4.3,3.7c-0.8,1.3-4.2,2.4-4.4-0.6  c-0.3-3-1.4-3.9-1.4-2.5c0,1.4,0.5,4.4-1,4.4s-1.8-1.5-4.3,2c-2.6,3.4-4.6,6.5-4.6,7.7c0,1.2-3.8,5.7-3.2,6.5  c0.6,0.8,3.7-6.4,8.6-6.1c4.9,0.3,9.7,4.5,11.6,3.6c1.9-0.9,5.2-2.6,5.1-0.7c-0.1,1.9,0.3,7.3-1.2,7.9c-1.6,0.5-2.3,1.2-1.9,2.1  c0.3,0.9,0.2,2.8-1.5,3.6c-1.6,0.8-2.9-1.9-3.8-0.4c-0.9,1.5-3.1,8.5-3.4,5.8c-0.3-2.7-2.4-2.8-2.3-2.2c0.1,0.6-0.9,4.5,2.1,6.3  c3,1.8,2.4,2.1,2.2,4.2c-0.2,2.1-0.8,2.4,0.3,2.9c1.2,0.5,0.5,2.7-1.1,4.2c-1.6,1.5-0.6,2.6-0.3,3.2c0.3,0.5-0.3,2.3-2.6,1.7  c-2.3-0.6-3.5,0.9-3.5-0.4c0-1.4-0.7-1.5-1.9-0.7c-1.2,0.7-4.6,2.7-6.8,1.2c-2.2-1.6-5.5-4.4-4.4-2.8c1.1,1.6,4.2,3.3,2.9,4.6  c-1.3,1.4-2.3,2.7-0.6,2.9c1.7,0.2,3.5,0.2,2.7,1.7s-2,3.5-0.7,2.5c1.3-0.9,2.9-2.6,2.9-0.7c0,1.9-1.7,1.8-1.6,4.1  c0.1,2.3,0.5,2.4,2.7,3.5c2.2,1.1,2.2,1.1,2.3-0.6c0.1-1.7,1.3-2.9,1.7-1.5s0.7,0.7,2.3-0.1c1.6-0.8,3.5-2.5,2.7-0.4  c-0.7,2.1-2.7,2.1-2.7,4.3c0,2.2,0.3,2.9,1.7,2.9c1.4,0-5.5,1.9-4.8,3.3c0.7,1.4,2.4,0.1,3.9-1.2c1.5-1.3,3-1.1,2.4,0.2  c-0.5,1.3-1.9,1.9-0.1,1.4s1.9-0.6,1.4,0.3c-0.5,1-2,1.9-0.1,2.1c1.9,0.2,3.5-1.3,2.6,0.3c-0.8,1.6-2.7,3-2.2,3.7  c0.5,0.7,3.5-1.5,3.7,0.5c0.2,2-0.2,3.8-1.9,5.1c-1.7,1.3-2.7,2.3-0.8,2.3c1.9,0,2.3,0.8,0.5,1.2c-1.8,0.3-5.7,1.2-4.5-0.2  c1.2-1.4,2.6-1.3,1.6-2.6c-1.1-1.4-2.6-3.9-2.5-5.7c0.1-1.8,1.4-4.4-0.2-3.7c-1.6,0.7-2.5-0.2-2.5,1c0,1.2-1-0.7-1.9,0.1  c-1,0.8-0.5,3-1.2,4.8c-0.6,1.8-0.4,2.6,1.2,1.3c1.6-1.4,4.1-3,3.2-1.2c-1,1.8-2,3.3-4.7,3.1c-2.6-0.2-3.5,1.9-3.5,0.4  c0-1.5,2.4-0.1,1.5-2.1c-1-2-2.7-5.3-1.1-6.4c1.7-1.1,1.4-2.8,0.1-2.5c-1.3,0.2-4.1-0.1-4.1,1.4c0,1.5-0.1,3.1-1.3,2.8  c-1.2-0.3,0.4-1.2,0.7-2.5c0.3-1.4-1-3.1,0.6-3.4c1.6-0.3,0.7-3.1-0.2-3.4c-1-0.3-6.2-1.3-7.7-1.2c-1.5,0.1-3.1-0.7-1.9-1.9  c1.1-1.2,3.1-5,1.8-5c-1.2,0-2.2,0.7-1.8-0.6c0.4-1.3,1.7-1.3,0.3-1.3c-1.4,0-1.2-1.5-2.4-1.5s-1,0.4-0.8,1.8  c0.1,1.4-1.5,2.5,0.1,3.2c1.7,0.7,2.1,3.5,1.4,4.7c-0.7,1.3-1.8,1.7-1.7,4.6c0.1,2.9,0.7,6.7-0.8,6.7c-1.5,0-4.3,0.6-3.6-0.6  c0.7-1.1,1.1-2.2,0.3-2.9c-0.8-0.7,0-2.5,0-2.5s-0.7-3.6,0.1-3.6c0.8,0,1.8-1.7,1.5-3.1c-0.3-1.4,2.9-3.2,1.3-2.8  c-1.7,0.4-2.2,1.1-2.8,0.4c-0.6-0.7-1.7-1.3-1.1,0.2c0.6,1.5,1.2,3-0.1,4.2c-1.3,1.2-2,1.5-2.5,2.9c-0.6,1.5-3,2.3-3.6,3  c-0.6,0.7-0.2-2.1-1.1-2.2c-0.2,0-0.5,0.1-0.7,0.2c-0.1-0.1-1-1.9,0.9-3.1c2-1.2,2.2-4.4,1.9-5.7c-0.3-1.2-1-2.5-3.2-2.1  c-2.2,0.3-2.5-0.2-3.3-2.1c-0.8-1.9-2.1-8-2.1-10s-0.9-4.2-1.8-5.8s-5.5-1.5-9-0.4c-3.5,1.1-14.7,4-15.8,3.7  c-1.1-0.3-1.1,0.3-2.9,1.5c-1.8,1.2-4.3,0.6-5.7-1.1c-1.5-1.7-2-0.6-3.7,0.5c-1.7,1.2-4.7,1.2-7.5,1.4c-2.8,0.2-10.1,1.1-13.6,1.1  c-3,0-4.8,3.9-5.1,4.9c-0.5-0.6-1.2-1.2-2-1.8c-1.4-1.2-3.2-4.3-5.6-6.5s-2.5-1.8-3.9-3.3c-1.3-1.5-4.2-5.5-4.6-6.5  c-0.4-1.1-0.7-0.4-1.6,0.4c-0.9,0.8-1-1-0.9-2.2c0.1-1.2,1.9-3.5,2.9-4.4c1-0.9,0.9-1.6,0.5-2.4c-0.3-0.6-0.1-1.9,0-2.7  c0.5-0.8,1.6-2.5,2.6-2.7c1.2-0.3,1.4,1.8,2,2.9c0.1,0.2,0.1,0.4,0.1,0.5c0,0,0,0.1,0,0.1c0,0,0,0,0-0.1c0.1-0.2,0.5-1,2.7-2.2  c3.9-2.2,4.2-7,4.2-9.2c0-2.3,1.7-3.7-0.1-6.6c-1.8-2.9,3-4.4,4.6-4.4s2.5-0.7,3.7-3.4c1.1-2.7,0-3.5-1.5-4.3c-1.5-0.8,1.9-4.2,2-6  c0.1-1.8,2.5-1.7,4.3-2c1.7-0.3,3.3-3.8,2.7-4.4c0-1.3,0.1-4.6-0.3-6c0.9-0.9,8-8,9.5-6.1c1.6,2,2.5,4.1,3.8,1.2  c1.3-2.9-1.1-4.1-2.2-5.7s-0.3-4.9-2.2-5.2c-1.9-0.3-4.3-2.9-0.7-4.3c3.7-1.3,4.1-3.9,5.3-1.8c1.2,2.2,1.3,5.7,3.4,5.3  c2.2-0.4,5.1-3.7,5.9-4.9c0.8-1.3,3.3-1.2,4.3-0.8c1,0.4,2.5-0.3,2.4-1.7c-0.1-1.3-1.3-3.7,1.1-3.7c2.4,0,3.3-1.3,4.4-3.1  c1.1-1.8,5.2-5.4,7.6-5.1c2.5,0.3,1.9,2.8,4.4,4.4c2.6,1.7,3.5,2.8,7.3,1.9c3.8-0.9,3.8,0.2,4.2,1.9c0.4,1.7,1.9,2.5,4-0.4  c2.2-2.9,7.2-8.8,9-8.1c1.8,0.7,2.5,2.4,4.5-0.1c2.1-2.5-0.1-4.7,5.2-2.8c5.3,1.9,8.3,2.4,10.7,5.8c2.5,3.4,4.5,9.7,9.2,7.3  c4.7-2.4,9.6-3.9,11.7-5.3C571.6,229.5,574.4,231.1,574.6,231.2z M446.2,239C446.1,239,446.1,239.1,446.2,239L446.2,239z   M434.1,310.6C434.1,310.7,434.1,310.7,434.1,310.6L434.1,310.6z M594.6,276.8c0,0.3-1.6,1.8-2.5,0.4c-1-1.3-1.4-0.8-1.4,0.1  c0,0.9-0.3,2-1.1,2c-0.8,0,0.4,0.6,1.6,0.6s3.1-0.4,4.2-1.3c1.1-1,0.3-1.6,0.1-1.9C595.3,276.3,594.6,276.5,594.6,276.8z M583,347.4  c-2.9,0-1.4-1.9-1-3.5c0.4-1.6-2.5-2.4-4.8-3.4c-2.3-1-0.8-1.9,0.1-2.7c0.9-0.8,0.7-1-0.2-1.2c-0.9-0.2-2.4,1.1-3.1,0.7  c-0.7-0.4-1.2-0.1-1.2,0.7c0.1,0.7,0.1,0.9-1.1,2.3c-1.2,1.3-4.3,2.6-5.4,2.7c-1.1,0.1,1.2,3.2,2.1,3.7c1,0.5,2-0.7,2.7-1  c0.7-0.2,0.1,3.2-0.4,5.2c-0.5,2,0.4,3.2,0.7,3.2c0.3,0,0.3,0.2,0.3,0.8c0,0.6-1.6-0.7-3.2-1c-1.5-0.3-1.3,1.6-2.1,1.7  s-1.6,0.8-1.9,2.4c-0.3,1.6,2.1,2.1,3.4,2.1c1.3,0-0.6,1.5-1.3,2.1c-0.7,0.6,0.6,1.6,1.8,1.6c1.2,0,2.5,1.5,3.8,3.1  c1.3,1.6,3.5,0.1,3.5-1.3c0-1.3-0.5-1.2-2.1-2c-1.5-0.8,1.7-1.9,2.8-3.4c1.1-1.5,3.6-0.9,5.6-0.7c2,0.2,3.2-1.8,2.9-2.3  c-0.3-0.6-1.7-2-4.9-2.2c-3.2-0.2-0.1-3.7,0.9-4.6s1.6-0.9,2.3-0.1c0.7,0.8,2.6,0.6,3.8-1.7C588.3,346.4,586,347.4,583,347.4z   M600.8,269.2c-0.2-0.8-0.1-1.1-0.4-1.1s-0.7-0.6-1.2,0.1c-0.5,0.7-2.5,1-2.8,2.3c-0.2,1.3-1.3,4.8,0.1,3c1.3-1.8,2.6-2.7,3.5-2.4  c0.9,0.3,1.4,2.5,2.5,1.9c1.1-0.6,1.2-2.5,0.6-3C602.5,269.6,601,270,600.8,269.2z M565.7,339.9c0.9-0.8,2.5-0.3,3.3-0.1  c0.8,0.3,1.3-1.5,1.3-2.7c0-1.1-0.7-0.8-1.7,0c-1,0.8-2.2,0.8-3.1,0.6c-0.9-0.3-1.3,1.4-1.1,1.4S564.8,340.7,565.7,339.9z   M559.4,283.4c-0.1,0-2.4-2-4.5-0.6c-2.1,1.4-4.1,3.7-4.1,5.1c0,1.4,0.2,1.5,2,1.2c1.8-0.3,3.8-0.5,6.3-0.1c2.5,0.4,3.7-1.2,3.5-2  C562.4,286.1,559.5,283.4,559.4,283.4z M555.9,337.9c-1.1,0.9-1.6,1.5-2.3,0.6c-0.7-0.8-1.2-0.1-1.3,0.1c-0.1,0.2,0.6,1.5,1.5,2.2  c0.8,0.6,1.7-0.6,3-1.7c1.3-1,1.5-1.1,1.3-2.5C557.9,335.2,557,337,555.9,337.9z" stroke-miterlimit="10" stroke="#FFFFFF"/>
<path name="宁德市" fill="#D3D3D3" id="path9" d="M644.2,162.3c-1.6,0.3-2-1.1-2.6-0.4c-0.7,0.7-1.7,1.2-0.2,1.3  c1.6,0.1,1.8,0.7,0.3,1.3s-3,0.5-3.7,0c-0.7-0.5-1.2-0.3-0.5,0.6c0.7,0.9-0.7,1.9,0.5,2.3s1,1.3-2.2,0.9c-3.2-0.4-7.3-0.8-8.3-1.5  c-1-0.7-1.9-1.7-2.1-0.6c-0.2,1.2-0.7,1.7,0.6,1.8c1.3,0.1,2.6,1.7,2.5,2.7c-0.1,1-0.3,2.8-1.4,1.9c-1-0.9-1.3-0.1-1.6,0.7  c-0.3,0.8-1.3,1,0.2,2.6c1.5,1.6,1.7,4.1-0.6,4.6c-2.4,0.6-8.7,0.6-7.5,1.6c1.2,1,1.2,2.3,3.2,1.3c2-1,3.3-1.6,3.3,0.2  s-1.5,3.6-3.7,4.4c-2.2,0.8-2.5-0.1-3.3-0.6c-0.8-0.5-1.5-1.4-2.3,0.2c-0.8,1.5-2.1,0.6-2.9-0.2c-0.9-0.7-3.2-1-2.1,0.9  c1.1,1.8,2.4,4.3,1.1,4.7c-1.3,0.4-3-0.8-3.7,0.2c-0.7,0.9-2.6,1.4-4.1,1.1c-1.5-0.3-2.5-0.4-1,2.3c1.5,2.7,2.6,3.6,4,3.3  c1.4-0.4,2.3-0.1,2.3,0.9c0,1-0.4,1.6,1.7,1.6c2,0,2.9,0.7,1.7,1.9c-1.2,1.2-3,1.7-2,3.8c1,2.1,1.8,2.6,3.7,2.2s2.7,1.2,1.7,2.1  s-2.8-1-3.6,0.3c-0.8,1.3-2,2.2-0.9,4c1.1,1.8,0.7,2.5,0.3,3c-0.4,0.5,1.7,1.2-0.4,2.1c-2,0.9-3.4,1.5-2.8,0.7  c0.7-0.7,1.4-2.9-0.8-2c-2.2,0.9-3.5,2.5-4.1,3.6c-0.6,1.1-3.1,1-3.6,0.2c-0.6-0.8-1.1-0.4-1.1,1s-0.5,0.7-1.6,0.5  c-1.1-0.3-2.5,0.1-3.6,1.9s1.6,2.1,0.3,2.9c-1.3,0.7-4.6,1.9-5,3.4c-0.5,1.5-1.5,2-3.4,1.9c-1.9-0.1-3.8-0.4-3.9-2.2  c-0.1-1.9,0.2-3.2,1.1-3.3c0.9-0.1,1.3-1.3,1.4-2.6c0.1-1.3,0.1-1.7,1.9-3.1c1.8-1.4,2.8-3,4.2-2c1.4,1,3.5,1.8,4.4,0.4  c0.8-1.4,0.7-2.4,2-2.4c1.3,0,1.1-0.9,0.7-1.6c-0.4-0.8-0.9-1,0.4-1.7c1.2-0.7,1.1-0.8,0.4-1.7c-0.7-0.9,0.4-1.5,1.4-2.2  c1-0.7,1.8-1.6,2.8-1.5c1,0.1,0.9-0.9,0.4-1.7c-0.6-0.8-1.3-1.7,0.3-1.4c1.6,0.3,2.8,0.5,3-1.4c0.2-1.8,2.7-3.7,1.9-4.8  c-0.8-1.1-1-0.9-1.6-0.3c-0.7,0.6-3.3,1.1-4.5,1.1c-1.2,0-1.6-0.7-2.6,0.4c-1,1.1-2,1.6-2.1,0.1c-0.1-1.5-1-2.3-1.8-2  s-5,1.5-3.8,3.8c1.2,2.3,2.2,3.1,0.8,4.1c-1.4,1-2.7,2.2-2.9,3.3c-0.2,1.2-1.2,1.5-0.5,2.8s0.6,2-0.4,2.3c-1,0.3-1.5,2.2-2.5,1.4  c-1-0.8-1-1.4-0.1-1.9c1-0.6,1.1-1.4-0.2-1.9c-1.4-0.5-2.8-3.3-3.7-2.7c-0.9,0.6-2.3,2.1-2.8,1.9c-0.6-0.2-2.1-2.5-1.2-3  c1-0.4,2.2-1,1.4-2.4c-0.9-1.4-1.5-1.6-0.5-2.6c1-0.9,0.1-2.4,1.4-2.3c1.3,0.1,4-0.2,3.9-1.4c-0.1-1.2-0.7-3.8-1-2.7  s-1.6,2.3-3.7,2.3c-2.1,0-2.8-0.5-1.3-1.9c1.5-1.4,1.5-1.9,2.6-2c1.1-0.1,2.8-2.9,2.3-2.9c-0.5,0-1.5,1.5-2.7,1.3  c-1.2-0.2-4.2,0-4,0.8c0.2,0.8,0.4,2.3-1.1,3.1c-1.5,0.8-0.8,1.5-0.1,2.6c0.7,1.1,0.7,4-0.1,5.1c-0.8,1.1-2.1,0.9-2.7-0.1  c-0.5-1-0.3-1.7,0.3-2.6c0.7-0.9,0.4-1.4-0.7-2.5c-1.1-1.1-0.8-1.5-1.6-2.5c-0.8-0.9-3-1.7-2.8-3.4c0.2-1.7-0.5-3.3-1.2-4.2  c-0.7-0.9-1.7-2.7-2.7-2.9c-1-0.2-0.7-1.3,0.2-1.9c0.9-0.7,1.7-3.1,1.4-4.6c-0.3-1.5,0.3-4.1,1-3.9c0.7,0.2,2.1-0.7,0.9-0.9  c-1.3-0.1-2.2-1.2-2.3,0.3c-0.1,1.5-1.1,2.9-1.1,4.2c0,1.3,0.5,2.1-0.4,3.8c-0.9,1.7-3.1,3.3-0.9,3.9c2.2,0.6,3.1,1.5,3.1,4.3  c-0.1,2.9-0.7,3.8,0.6,4.4c1.3,0.6,2.2,1.1,1.3,2.5c-0.9,1.4-1.5,3.1-0.7,4.1c0.9,0.9,1.8,2.4,2.6,2c0.8-0.4,1.7-0.6,1.9,0.5  c0.2,1.1,1.2,1.4,0.2,2.5c-1.1,1.1-2.9,2.6-3.4,1.4c-0.5-1.2-0.8-2.3-1.6-2.6c-0.8-0.3-2.4-1-2.3-2c0.1-1,0.7-2.4-0.6-2.4  c-1.2,0-3.3,1.1-3.3-0.9s-0.1-4.6-1-3.8c-0.9,0.8-2.1,1.8-3.3,1.9c-1.2,0.1-0.9,1.1-1.2,2c-0.4,0.8-1.3,2.1-2,3.1  c-0.7,1-1.1,3.6,0,3.7c1.1,0.1,2.8-1.3,4.6-1c1.7,0.3,1.5,3.1,1,3.8c-0.5,0.7-0.3,1.1,0.1,1.7c0.4,0.6,0.2,1.5-1.1,1.4  c-1.3-0.1-1.8-0.5-3-1.4c-1.2-0.9-2.2-0.8-1,0.2s3,2.5,1.5,3.5c-1.5,0.9-2.8,1.5-1.9,2c0.8,0.5,1,0.3,1,1.5c0,1.2,0.2,0.8,1.1,0.2  c0.9-0.6,1.2,0.6,1.8,1.5c0.7,0.9,2,2.9,2.7,1.7c0.7-1.2,0.8-2.3,2.6-2.8c1.8-0.5,2.5-1.3,4.1-0.5c1.5,0.8,3.3-0.2,4.5-0.5  c1.2-0.4,1.6-0.1,3.1,0.8c1.5,0.9,4.1,2.8,4.1,4c0,1.2-0.2,1.5-0.8,0.9c-0.6-0.6-0.8-0.5-1.1,0.5c0,0.1-0.1,0.2-0.1,0.4  c-0.2-0.1-3-1.7-5-0.3c-2.1,1.4-7,3-11.7,5.3c-4.7,2.4-6.7-3.9-9.2-7.3c-2.5-3.4-5.5-4-10.7-5.8c-5.3-1.9-3.1,0.3-5.2,2.8  c-2.1,2.5-2.8,0.8-4.5,0.1c-1.8-0.7-6.8,5.2-9,8.1c-2.2,2.9-3.6,2.1-4,0.4c-0.4-1.7-0.4-2.8-4.2-1.9c-3.8,0.9-4.8-0.2-7.3-1.9  c-2.6-1.7-2-4.1-4.4-4.4c-2.5-0.3-6.5,3.3-7.6,5.1c-1.1,1.8-2.1,3.1-4.4,3.1c-2.4,0-1.2,2.4-1.1,3.7c0.1,1.3-1.4,2.1-2.4,1.7  c-1-0.4-3.6-0.5-4.3,0.8c-0.8,1.3-3.7,4.5-5.9,4.9c-2.2,0.4-2.3-3.1-3.4-5.3c-1.2-2.2-1.6,0.4-5.3,1.8c-3.7,1.3-1.3,4,0.7,4.3  c1.9,0.3,1.1,3.6,2.2,5.2s3.4,2.8,2.2,5.7c-1.3,2.9-2.2,0.8-3.8-1.2c-1.5-1.9-8.6,5.2-9.5,6.1c-0.1-0.2-0.1-0.4-0.2-0.5  c-0.7-1.1-1.3-1.7-1.3-3.4c0-1.6-1.4-4.1-3.2-3.7c-1.8,0.4-4.1,1.1-4.5-1c-0.4-2-4.8-4.4-1.8-10.3c1.9-3.7,1.1-4.1,0.9-4.2  c0.1,0,0.3-0.1,0.7-0.2c2.4-0.9,3.8-2.8,3.5-4.7s-0.6-4-1.8-6.6c-1.2-2.6,0-4.3,0.6-6.9c0.6-2.6-0.9-5.7,0.1-7.2  c1-1.5,2.7-4.2,2.7-5.6s0.4-1.4,1.6-3.8c1.2-2.4-0.8-6,0.4-6.7c1.2-0.6,6.1-2.5,6.1-4.1s-0.4-4.7-0.4-6.2s1.4-2.5,3.1-2.7  c1.7-0.2,1.8,0,3.2,1.6c1.4,1.6,4,0.5,4.3-1.3c0.3-1.8,0.4-1.8,2.8-3.1c2.4-1.3,2.5-4.2,4.5-4.2c2,0,2.4-1.8,3-3.7  c0.6-1.8,4.8-6.8,5.8-8.3c1-1.5,0.3-4.8,1.7-4.6c1.4,0.2,5.2,3.2,3.4,4.1c-1.7,0.9-1,2.3,0.6,3c1.6,0.8,4.3-1.3,6.3,0  c2,1.3,3.1,0.8,4.6,2.7c1.5,1.9,2.8,5.8,2.9,3.7s-1-5.6,1.8-6s4.1-1.9,5.9-1.7c1.8,0.2,0.3-1-0.3-2c-0.6-1.1,0.1-2.1-1.8-1.9  c-1.9,0.2-2.1-0.4-1.7-1.9c0.4-1.5,1.1-1.9-0.3-3.1c-1.4-1.2-1.3-2.5,0.6-3.1c1.9-0.6,4.2-2.6,6-1.3s3.8,4.6,4.3,1.4  c0.5-3.2-1.6-2.9-2.5-3.2c-0.9-0.3-4.7-2.8-3.9-4.9c0.9-2.1,3.7-6.6,3.2-8.7c-0.4-2.1-1-2.5,0.6-2.9c1.6-0.4,2.7-4.8,2-6.6  c0.1-0.1,0.3-0.3,0.4-0.5c1.1-1.6,1.8-4.1,4-4.1c2.1,0,3.8-1.3,3.9-3c0.1-1.7,1.2-2.3,2.4-3.9c1.3-1.5,4-3.4,5.4-1.3  c1.4,2.1,3.6,3,4.8,0.9c1.3-2.1,2.2-5.6,2.2-6.4c0-0.8,0.7-1.6,0.8-3.4c0.1-1.8-1-4.4,0.4-4.4s4.2-0.2,4.5-1.3s0.3-2.5,2.5-1.9  c2.2,0.6,6,0,6.9,1c0.8,1,1.2,1.4,0.3,3.7c-0.9,2.3-0.9,6.4,0.6,6.4s3.2,0.5,2.3,2.1s-0.6,3.2,0.7,3.3c1.3,0.1,3.2,0.1,3.6,2.9  c0.4,2.8,0.6,5.9-0.1,7.4c-0.7,1.5-0.5,1.9,0.3,3.2c0.7,1.3-0.9,3,1.1,3c2.1,0,2.7,0,2.8,1.9c0.1,1.9,0.3,2.6,1.9,3  c1.6,0.4,1.8,1.2,1.8,2.1c0,0.8,2.2,1,0.9,1.9c-1.2,0.8-2.2,2.8-0.8,2.8c1.3,0,1.1-1.1,3.1-0.4c2,0.8,3.8,0.7,3.8-1  c0-1.7,0.8-2,2-0.7c1.2,1.3,2.3,2.2,3.5,0.9c1.2-1.2,4.2-2.9,5.1-4.5s4.5-5.8,5.6-4c1.1,1.8,4.5,4.9,5.9,3.2  c1.4-1.7,8.3-8.8,11.4-9.6c3.2-0.8,7.9-1.2,9.3,0.6c1.4,1.7,2.2,2.7,4.6,2.7s4.9-0.1,4.9,1.9c0,2,2.8,4.4,4,6c1.2,1.6,2.7,3.9,4,4.5  c1.3,0.5,1.8,1.2,1.4,3.1c-0.4,1.9-1.8,4.2-0.8,6.1c1,1.9,1.6,3.3,1.6,4.3c0.1,1-1.7,1.3-2.6,0c-0.9-1.3-1.3-1.8-1.3-3.5  c0-1.6-0.5-3.5-1.7-3.5c-1.2,0-4.6-0.4-5.4,0.6c-0.8,1-2.1,1-2.5-0.6c-0.3-1.6-0.2-4.3-0.9-3.4c-0.7,0.9-2.6,1.8-2.6,1.1  s2-2.5,1.6-4.2c-0.4-1.6-0.6-1.7-1.7,0.2c-1.2,1.9-2.1,4-2.5,4.9c-0.3,0.9-1.5,1-1.6-0.7c-0.1-1.7-1.3-3.6-2.3-3.1  c-1,0.5-2.3,1.8-1.6,2.6s0.3,2-0.2,3.5c-0.6,1.5,0.1,4.9,1.3,3.3c1.2-1.6,2.8-3.9,3.9-3.9c1.2,0,1.4-0.9,3,0.9  c1.6,1.8,4.8,3.5,6,2.3c1.2-1.2,2.5-2,3.8-1.9s2.1-0.1,1.8,2.1c-0.3,2.1-0.8,2.5-1.9,3.5c-1.1,0.9-2.3,2.5-0.1,2s2.2-2.6,3.5-0.9  c1.3,1.7,1.2,2.4,2.9,2.4C644,160.4,645.8,162,644.2,162.3z M605.6,234.6c-0.7,0.6-1.8,1-2.4,0.9s-2.1,1-1.5,2.4  c0.6,1.3,2.8,1.1,3.8,0.4c1-0.7,1-1.3,1-2.5C606.4,234.6,606.3,234,605.6,234.6z M556.4,205.8c-1.1,0.3-1.7,1.8-1.9,2.3  c-0.2,0.5-1.5,3.6,0.2,3.2c1.7-0.4,2.6-0.7,3-0.4c0.5,0.3,0.5,0.4,1.1-0.3c0.6-0.7,1.3-1.4,0.4-1.4c-0.9,0-1.1,0-1.3,0.1  c-0.2,0.1-2.2-0.7-1.6-1.4C557,207.1,557.5,205.5,556.4,205.8z M572,216.6c-0.6,0.8-2.5,1.7-3,1.5c-0.5-0.2-1.9-2.1-2.4-1.4  s-0.9,1-1.9,1c-0.9-0.1-1.8-0.8-2,0.2c-0.3,1-0.5,4,0.4,4.3c1,0.3,1.5-0.6,2.8-0.7c1.3-0.1,3.7-0.1,3.7-1.3s2.7-1.7,3.1-2.2  C573.1,217.5,572.6,215.8,572,216.6z M638.8,185.6c-1.4-0.6-2.7-1.8-3.1-2.7c-0.4-0.9-1.3-1.3-2-0.6c-0.7,0.7-1.3,1-1.3,1  s-0.1,1.9-1.6,1.9c-1.6,0.1-2.6,1.5-1.3,1.6c1.3,0.1,3.1-0.6,4.1,0.4c1,1,2.4,0.8,3.1,0.4C637.4,187.3,640.2,186.2,638.8,185.6z   M614.1,226.8c-0.2,0.7-0.8,2.1-2,2.1c-1.2,0-0.7,0.8-0.7,0.8s0.3,0.8,1.1,1.2c0.8,0.4,1.7,0,3-1.4c1.3-1.4,1.3-1.8,0.6-4  C615.4,223.3,614.3,226.1,614.1,226.8z" stroke-miterlimit="10" stroke="#FFFFFF"/>
<path name="漳州市" fill="#D3D3D3" id="path10" d="M377,465.2c-0.9-3.2-3.7-5.2-5-6.4c-1.3-1.2-0.1-2.9,1.6-2.9  c1.7,0,2.9-2.6,5.6-4.9c2.8-2.3-1.3-5.7-2.2-7.2c-0.9-1.5-0.4-3,0.6-4.6c1-1.5,2.3-5.1,2.5-8.5c0.2-3.4-4.2-3.5-5.3-3.8  c-1.1-0.3-2.8-3-3.5-4.1c-0.8-1.2-3.7,1.4-6.1,2.8c-2.4,1.4-5.4-3.2-6.6-4.4c-1.2-1.2-7.3,4.3-8.6,5.2c-1.4,0.9-3.9-0.3-4.3-2.1  c-0.5-1.9-2.2-5.7-3.4-6.6s3.3-3.5,4.5-4.4s0.3-3.1,3.6-2.8c3.3,0.3,3.4-0.3,4.3-1.5c0.9-1.2-1.2-3.7-3.4-5.1  c-2.2-1.4-2.6-5.1-2.6-7c-0.1-1.9-9.2-10.2-10.5-9.2c-1.3,0.9-7.3,1.4-9.1,3c-1.8,1.6-1.6,4,1.6,5.3c3.2,1.2-0.7,4.7-0.4,6.5  s0.6,5.8-0.8,9.9c-1.3,4-8.4,2.2-11.5,1c-3.1-1.1-2.9-2.9-5.5-1.8c-2.6,1.1-2.1,2.2-4,0.3c-2-1.9-1.8-0.9-4.1,0.2  c-2.3,1.1-2.3,2.9-2.4,5.2c-0.2,2.3-1.8,3.7-3.6,3.7c-1.8,0-3.7,2.2-3.9,5.8c-0.3,3.7-3.9,6.9-6.1,8.5c-2.2,1.6-5,0.6-5.7-2.3  c-0.7-2.9-1.9-3.4-3.7,0.1c-1.8,3.5-1.5,17.2-0.3,19.4c1.2,2.2-1.9,6-1.9,8.1c0,2.1-7.2,1.9-9.7,2.8c-2.5,0.9,2.9,7.5,3.2,9.8  c0.3,2-4.4,8.1-5.7,9.8c0.2,0.9,0.2,1.7,0.2,2.3c-0.1,1.4-1.2,2.4-0.6,3.1c0.6,0.7,1.6,1.1,1,2.4c-0.6,1.3-0.6,1.7,1.3,2.6  c1.9,0.9,0.7,4.4,1.6,6.2c0.9,1.8,2.8,3.1,4.5,3.8c1.7,0.7,2.2,2.7-1.6,4.9c-3.8,2.2-3.8,4.3-4.5,6.6s-0.3,3.8,1.2,4.8  c1.5,1,0.7,0.8,1.1,3.2c0.4,2.4,1.6,3.3,3.5,3.9c1.9,0.6,1.7,4.8,1.2,6.6c-0.5,1.8,0.9,4.5,1.3,6.2c0.4,1.7,0.4,2.1,1.6,2.5  c1.2,0.4,0.1,4.9,0.8,5.9c0.7,1,1.7,3,2.2,6.2c0.5,3.2,0.2,5.2,1.8,6.4c1.6,1.2,4.8,5.6,5.7,6c0.9,0.4,4.6,0.8,6.6,1.2  c2,0.4,2.2,2.5,2.2,2.5s0.3,0.2,2,0.2c1.7,0,1.2-2.6,1-4.9c-0.2-2.3,0.5-1.3,2-0.5c1.5,0.8,0.2,1.5-0.3,3.1c-0.5,1.6,0,4.1,1,4  c1-0.1,1.1-2.6,2.9-2.9c1.8-0.3,0.4-1.6-0.4-2.2c-0.8-0.6-1.7-3.5,0.1-3.5c1.8,0,1.4-0.8-0.2-3.7c-1.6-2.9,1.2-4.2,2.2-4.2  c1,0,4.4-0.5,5.5-0.5c1.1,0,0,2.8,1,2.8c1,0,1.1,0.1,1.2,1.2c0.1,1.1-1.7,3-2.6,3c-0.9,0-0.8,1.7-0.3,2.7c0.5,1,2.4-0.2,2.9-1.1  c0.5-0.9,1.6,0.6,3,0.7s1-0.7,2-0.3c1,0.4-4.6,7.5-5.1,8.6c-0.5,1,2.3,1.9,3.5,1.9c1.2,0,1.3-0.1,0.7-1.4c-0.7-1.4,1.8-3.6,2.6-5.2  c0.8-1.6,2.3,0.3,4.1,0.3s1.3-2,0.5-3.2c-0.8-1.2,0.9-3.7,1.6-4.4c0.8-0.7,1.8-0.6,2.2,0.4c0.4,1,1.1,0.2,1.1-0.3  c0.1-0.5,0.4-1.1,1.7-1.5c1.3-0.4-2.6-2.5-3.9-4.1s-1.3,0.5-1.5,1.9c-0.2,1.4-2.6,0.4-4,1.1c-1.5,0.7-1.6-0.8-2.2-2.3  c-0.6-1.5-1.6-3.3-1.3-3.8c0.4-0.5,1.4,0.5,1.8,1.7c0.4,1.1,2,0.5,2.9-0.2c0.9-0.7,0.5-0.9-0.4-1.7c-0.9-0.8,0.8-1.3,2.3-1.5  c1.6-0.2,0.5-2.4,0.1-3.2c-0.5-0.8,0.9-1.8,1.6-1.4c0.7,0.5,1.4,1.3,1.7,0.5c0.4-0.8-0.2-1.5-2-2.3c-1.8-0.8,0.4-0.9,2.3-0.9  c2,0,1.2-1.2,1.4-2c0.2-0.8,0.5-1.2-0.5-1.4s-1-1.4-1.6-2.6c-0.6-1.2-5-1.2-7.3-1c-2.3,0.2-1.1-1.1-0.4-1.3c0.8-0.2,0.8-1,0.8-1.9  c-0.1-0.9-0.1-0.7,1.2-1.1c1.3-0.4,2.3,1,3,2.1c0.7,1,2.5,0.9,3.8,0.5c1.3-0.4,3,0.1,4,0.4c0.9,0.4,3,1,4.6,0.8  c1.6-0.3,4.7,3.2,5.8,4.3c1.1,1.1-0.2,9.5-0.2,11.1c0,1.6-2.2,3.1-3.3,3.9c-1.1,0.8-0.7,2.6-1.3,2.8c-0.7,0.2-1.1,1.7-1.1,2.7  c0,0.9,1.4,0.9,1.6,0.2c0.2-0.7,1.4-1.3,2.4-1.6c1-0.3,1.6-1.2,1.7-2.3c0.1-1.1,1.7-1.5,2.6-1.5c0.8,0,0.9-1.5-0.1-2.7  c-1-1.2-0.2-3,0.4-4.5c0.6-1.5,0.4-7.3,0.2-9.2c-0.2-1.8,1.8-3.8,3.5-5.3c1.7-1.5,0.3-3.7-0.5-4.5c-0.9-0.8-0.4-1.8,0.4-2.1  c0.8-0.3,1-0.4,2-1.5c1-1.1-0.4-2.3-2.8-3.3c-2.4-1,0.5-0.9,1.3-0.9c0.8,0,4.2,2.7,5.5,3.4c1.4,0.7,1.4-0.4,2.6-1.3  c1.1-0.8,0.5,0.3,0.4,1.4c-0.1,1.1,2-0.4,2.7-1.5c0.8-1,0.5,1.6,0.3,2.9c-0.2,1.3-2.9,4.7-3.8,5.9c-0.9,1.2-2.2,2.7-3.8,2.5  c-1.6-0.2,0.8,1.4,0.8,2.7c-0.1,1.3,0.3,1.1,1.6,1.1c1.3,0,2.1-0.9,2.1-2s0.7-2.1,0.7-3c0-0.9,0.4-1,1.6-0.4c1.2,0.7,0.7-1,0.7-2.3  c0-1.3,1.6-3.3,2.1-2.7c0.5,0.5,1.1,1.1,1.3,0c0.1-1.1,0.9-1.9,2-3.4c1.1-1.5,1.6-0.2,2.8,0c1.3,0.2,2.6,1,3.6,0.9  c1-0.1,0.8-1.7,0.2-2.9c-0.6-1.1-0.6-5.4-0.3-7c0.4-1.5,1.5-1.8,2.4-1.4c0.9,0.4,2.2-1.6,2.9-4.1c0.8-2.5-0.6-2.3-1.8-1.4  c-1.1,0.9,1.4-5.3,2.4-6.6c0.9-1.3,0.7,0.4,0.8,1.8c0.1,1.4,1.3-0.5,1.9-0.1c0.6,0.4-0.6,3-1.1,4.1c-0.4,1.1-1.1,2.1,0.6,2.1  c1.7,0,1.4-0.8,1.3-1.7c-0.1-0.9,0.4-1.7,1.7-2.9c1.2-1.2,0.8-1.5,0-1.6c-0.8-0.1-0.5-0.7,0.7-2.2c1.2-1.4,1.4,0.1,1.4,1.7  c0,1.6,0.5,1.2,1.1,0.1c0.6-1.1,2.3-0.3,2.3-1.5s2.7-2.5,3.3-3.6c0.6-1.1,4.4-1.2,6.3-1.5c1.9-0.3,0.9-1-0.3-1.7  c-1.2-0.6-0.4-1.6,0.1-2.4c0.4-0.8,0.1-1.6-0.6-1.5c-0.8,0.1-1-1-1.2-2.8c-0.3-1.8-2-2.7-2.8-1.7c-0.7,1-1.4,0.4-3.5-1.3  c-2.1-1.7,0.8-4,1.5-4.9c0.7-0.8-5.7-1.2-6.9,0c-1.2,1.2-4.5,0.6-4.9,1.1c-0.4,0.5-0.9,1.6-2.5,0.7c-1.5-0.9-1.7-1.3-2.7-0.8  c-1,0.5-5.1-1.5-6.9-2.6c-1.8-1.1-0.3-1.8,1.1-1.5c1.4,0.2,1.5-0.4,1.5-1.4c0-1,0.7-0.5,1.4,0.2c0.8,0.7,0.8,1.4,2,1  c1.2-0.4,0.4-2.1,1.1-3.1c0.7-1-0.5-1-2-1c-1.4,0-3.3-0.8-3.7-1.7c-0.4-0.9,4.4,0.2,5.6,0.4c0.9,0.1,1.6,0,2.4,0.3  C381.3,471.2,377.9,468.3,377,465.2z" stroke-miterlimit="10" stroke="#FFFFFF"/>
</svg>