<?xml version="1.0" encoding="UTF-8" standalone="no"?><!-- Generator: Adobe Illustrator 18.0.0, SVG Export Plug-In . SVG Version: 6.00 Build 0)  --><svg xmlns="http://www.w3.org/2000/svg" xmlns:xlink="http://www.w3.org/1999/xlink" contentScriptType="text/ecmascript" zoomAndPan="magnify" contentStyleType="text/css" id="图层_1" mapName="辽宁省" mapType="省市地图" enable-background="new 0 0 800 600" version="1.1" xml:space="preserve" preserveAspectRatio="xMidYMid meet" viewBox="0 0 800 600" x="0px" y="0px">
<g>
	<path name="本溪市" fill="#D3D3D3" id="path0" d="M696.3,288.9c-1.2-0.9-1.8-4.4-0.9-6.8c0.8-2.5-2-1.2-2.8-1.1   c-0.8,0.1-4.1-3-5.8-3.7c-1.7-0.7-2.1-3.9-2.4-6.8c-0.3-2.9-0.7-3.2-2.5-3.6c-1.8-0.4-3.5-2.6-4.5-4.2c-1-1.6-2.5-2.5-1.6-5   c0.9-2.5,0.2-2.6-1.1-4.4c-1.4-1.7-1.4-2.1-1.4-4.5c0-1.5-1.1-2.8-2.2-4.1c-1.1,0.6-4.6,2.2-5.9,1.3c-1.6-1.1-3.6-0.8-3.8,0.6   c-0.2,1.4-2.2,3.9-3.6,5.7c-1.5,1.8-2.2,3.2-5.1,2.9c-3-0.3-8.2-1.1-10.2-1.2c-2-0.1-6.9-0.2-6.2,0.8c0.7,1,1,2.9-0.9,2.1   c-1.9-0.8-4.7-3.2-6.5-4c-1.8-0.9-2.6-1.8-3.6-0.6c-1.1,1.2-5,3.7-5,5.1c0,1.4-0.3,2.8-1.7,3.2c-1.4,0.4-2.1,1.2-1.7,2.6   c0.4,1.4,1,7.7,1.7,8.7c0.7,1,0.9,3.2-0.6,3.5c-1.5,0.2-2.2,1-2.9,2.3s-4.3,3.2-6,3.8c-1.7,0.6-5.4,0.3-6.6,1.7   c-1.2,1.4-3.6,1.5-3.6,0.1s0.5-1.6-2.1-1.2c-2.5,0.5-3.1-0.7-3.9-2.5c-0.8-1.8-3.5-3.5-4.7-3.6c-1.3-0.1-1.8-3.3-3.8-1.7   c-2,1.6-3.9,3.5-4.4,2.1c-0.5-1.4-1.8-4.3-2.1-5.8c-0.2-1.5-3.5-1.8-3.7-4.5c-0.2-2.7-0.8-3.6,0.7-4.4c1.5-0.8,0.5-1.6-1.2-1.7   c-1.8-0.1-2.9-1-2.9-3.1c0-2.1,0.6-6.3-1.9-6.3c-2.5,0-6.9-0.1-8,1.4c-1.1,1.4-4.6,0.6-5.3,2.1c-0.7,1.5-3,0.4-4.3-0.9   c-1.3-1.3-8.2-5.8-9.7-4.3c-1.5,1.6-2.1,3-3,1.4c-1-1.7-4.8-3-5.4-0.4c-0.5,2.6-2.5,6.2-4.5,5.9s-3.3-0.8-3.3-2.5s-0.9-2.2-1.9-1.5   c-1,0.7-4.1,2.7-5.6,2.2c-1.5-0.5-5.2-0.9-6.1,0.3c-0.9,1.2-2.7-0.5-2.8,3.4c1,1,0.9,2,2,2.2c1.3,0.2,2.3-0.3,3-0.1   c0.7,0.2-0.8,4.1-1.9,5.8c-1.1,1.7,0.1,1.9,0.8,3.2c0.7,1.3-0.1,2.3-1,3.5c-0.9,1.2-0.1,1.7,1,2.7c1.1,1,1.7,5.6,1.8,7.9   c0.1,2.2-3.2,1.8-5,1.8s-1.4,4.1-0.3,5.4c1.1,1.3,0.8,3.8,2.4,5.2c1.7,1.4,2,1.9,2,4.4c0,2.5,1.7,6.1,2.4,7.1   c0.8,1,0.1,2.8-1.2,3.4c-1.3,0.7-1.9,2.8-3.1,4.8c-1.2,2-0.9,4.8-0.2,5.5c0.7,0.8,1,2.2,0.2,3.3c-0.6,0.9-1.7,5.4-2.1,7.2   c0.7,0.1,1.3,0.3,1.7,0.5c1.5,0.8,4.6,3.5,6.3,3.4c1.7-0.1,2-1.7,2.6-2.8c0.7-1.1,1.9-0.6,3-0.5c1.1,0.1,2.6-1.1,4.1-1.2   c1.4-0.2,3.9-0.1,4.5,1.2c0.6,1.3,1.9,1.6,3.2,2.2c1.3,0.6,2.2-0.5,4-1.6c1.8-1.1,1.4-3.4,1.8-4.2c0.4-0.9,1.1-0.8,1.4,0   c0.3,0.8,3.4,1.2,4.5,1.2c1.1,0,2.7,0.2,3.9,1.2c1.1,1,1.8,0.3,3.1,0.2c1.3-0.1,1.3-1.5,1.5-2.2c0.2-0.7,1.1-1.7,0.3-2.9   c-0.8-1.3-0.2-4,0.5-5.3c0.7-1.3,0.3-2-0.3-2.8c-0.6-0.8-1.3-1.2-1.9-2.6c-0.6-1.4-1.3-1.3-2.3-2.5c-1-1.3,0.1-4,2-4.5   c1.9-0.4,2.7,0.7,4.1,1.5c1.4,0.9,2.7,0.4,3.5-0.3c0.8-0.7,1.9-3,2-4c0.2-1,0.5-2.9,1.8-3.5c1.3-0.6,2.4-0.7,2.8-0.1   c0.4,0.6,0.5,2,2.9,1.8c2.4-0.2,2.4,1.3,4,2.9c1.6,1.5,2.5-1,4.1-2.1c1.7-1.1,4.3,1.5,6.6,2.1c2.3,0.5,4-2.7,4.6-4.1   c0.6-1.4,6.4-1.2,7.8-1c1.4,0.2,2.3-0.8,2.6-1.4c0.3-0.6,1.1-1.8,2.9-2.1c1.8-0.3,2.4-2.6,2.7-3.6c0.3-1,2.5,1.9,4,2.9   c1.5,1,2.4-0.7,3.4-1c1.1-0.3,4.4,0.4,5.9,1.1c1.5,0.7,3.3,0.9,4.4,0.9c1.1,0,2.7,0.2,4.5,1.4c1.8,1.1,3.3,0.5,4.4-0.6   c1.1-1.1,3.7,0.6,5.3,1.6c1.7,1,3.9,0.4,4.8-0.5c0.8-0.8,2.3-0.8,3.3-0.2c1.1,0.6,4,0.1,6.7,0.1c2.7-0.1,3.7,2.8,4.2,4.8   c0.5,2,1.7,2.2,2.8,2.2c1.1,0,0.6,1.3,0.6,2.7c0,1.4,1.8,1,2.8,1s2.6-1,3.6-1c1,0,2.1-1.5,2.8-1c0.7,0.5-0.2,3.6-0.6,5.3   c-0.4,1.7,1.4,2,2.6,2.5c1.3,0.5,1.9-1.6,2-3.7c0.2-2.1,1.7-0.3,2.4,0.7c0.7,1-0.4,2.4-1.6,3.4c-1.2,1,0,2.7,0.6,3.7   c0.6,1,3,0,3.5-0.8c0.4-0.6,2.1-0.1,2.7,0.2c0.6-0.7,1.6-1.3,2.8-1.8c2.2-0.9,3.7-3.9,4.5-5.6c0.8-1.7,3.7-6.8,4.8-8.5   c1.1-1.7,0.7-2.9,0-5.5c-0.7-2.7,1.4-4.4,4.3-6C700.7,289.7,697.5,289.9,696.3,288.9z" stroke-miterlimit="10" stroke="#FFFFFF"/>
	<path name="辽阳市" fill="#D3D3D3" id="path1" d="M511.5,320c-0.7-0.8-1-3.5,0.2-5.5c1.2-2,1.8-4.1,3.1-4.8   c1.3-0.7,2-2.4,1.2-3.4c-0.8-1-2.4-4.5-2.4-7.1c0-2.5-0.3-3-2-4.4c-1.7-1.4-1.3-3.9-2.4-5.2c-1.1-1.3-1.4-5.4,0.3-5.4   s5.1,0.4,5-1.8c-0.1-2.2-0.7-6.9-1.8-7.9c-1.1-1-1.9-1.4-1-2.7c0.9-1.2,1.7-2.2,1-3.5c-0.7-1.3-1.9-1.5-0.8-3.2   c1.1-1.7,2.5-5.5,1.9-5.8c-0.7-0.2-1.7,0.3-3,0.1c-1.3-0.2-0.9-1.5-2.7-2.7c-1.8-1.1-1.5,0.6-3.2,0.2c-1.7-0.3-3.2-0.7-5.1,0.8   c-1.9,1.4-4.1,2-5,0.8c-0.9-1.2-4.2-4.5-6.9-4.1c-2.7,0.4-3-0.6-5-2c-2-1.4-5.9-4.2-6.7-3.5c-0.8,0.7-4.7,3.6-5.4,2.3   c-0.7-1.3-0.9-7.2-2.4-7.2c-1.5,0-2.4,0.3-3,3.2c-0.5,2.8-3.5,7.3-5.4,7.4c-1.9,0.1-3.6-0.3-3.9,1c-0.3,1.3-3,6.1-4.8,7.2   c-1.9,1.1-2.5,2.8-5,3.3c-2.5,0.4-0.7,3.1-0.7,3.1s1,1.7-1.4,1.6c-2.4-0.1-3.3-0.1-3.6,0.8c-0.3,0.9-2.7-0.4-2.8,2.2   c-0.1,2.6-0.7,2.8-2.4,3.9c-1.7,1.1-1.4,2.1-1.8,3.6c-0.4,1.6-2.9,1.6-2.7,3.4c0.2,1.8,0.7,3.9-0.8,4c-1,0.1-2.2,0.2-2.9,0.4   c0.1,0.6,0,1.1-1.2,1.4c-2.2,0.6-1.1,2-1.1,3.2c0,1.1,0.3,1.5,2.7,2.6c2.4,1.1,3.4,3.8,5.7,4.6c2.2,0.8,3.2,0,4.9,1   c1.7,1,2.8,1,4.5-0.4c1.7-1.3,7.9-8,8.4-9.4c0.4-1.4,1.3-2,4-1.8c2.6,0.2,4.7,1.4,6.2-0.1c1.4-1.6,1.7,0.4,4,0.9   c2.3,0.4,5.3,1.1,4.6,2.7c-0.7,1.6-0.9,5.2,0.8,6.3c1.7,1.1,3.5,1.8,5.4,3.1c1.9,1.3,2.8,2,2.4,4.8c-0.3,2.8-1,2.3-0.6,4   c0.4,1.7-1.9,3.2-3.4,3.7c-1.5,0.4-2.1,1.3-3.5,0c-1.4-1.3-2.1-1.4-3-0.1c-0.9,1.3-0.8,2.4-0.8,4c0,1.5-0.3,3.1-1.7,5   c-1.3,1.9-2.3,3.9-2,6.1c0.3,2.2,0.6,2.3,2.8,1.8c2.2-0.6,4.6-1.1,2.9,1.9c-1.8,3-4.5,6.2-2.1,8.4c2.4,2.2,6.9,6,9.3,4.8   c2.4-1.2,2.1-3.2,3.1-2.7c1,0.6,1.7,0,1.8-1.6c0.1-1.5,2.4-3,4.1-2.5c1.7,0.4,7.2-1.9,8-3.2c0.8-1.3,1.5-0.7,2.7-0.7   c1.1,0,1.2-2,3-1.2c1.8,0.8,2.5-0.3,3.6-0.9c0.8-0.4,2.2-1.7,2.9-2.4c-0.2-0.5-0.2-0.9,0.1-1.1c0.7-0.4,2.5-0.6,4-0.4   c0.4-1.8,1.5-6.3,2.1-7.2C512.4,322.3,512.1,320.8,511.5,320z" stroke-miterlimit="10" stroke="#FFFFFF"/>
	<path name="鞍山市" fill="#D3D3D3" id="path2" d="M499,335.4c-1.8-0.8-1.9,1.2-3,1.2c-1.1,0-1.9-0.7-2.7,0.7   c-0.8,1.3-6.3,3.7-8,3.2c-1.7-0.4-4,1-4.1,2.5c-0.1,1.6-0.8,2.1-1.8,1.6c-1-0.6-0.7,1.4-3.1,2.7c-2.4,1.2-6.9-2.5-9.3-4.8   c-2.4-2.2,0.3-5.4,2.1-8.4c1.8-3-0.7-2.4-2.9-1.9c-2.2,0.6-2.4,0.4-2.8-1.8c-0.3-2.2,0.7-4.2,2-6.1c1.3-1.9,1.7-3.4,1.7-5   c0-1.6-0.1-2.7,0.8-4c0.9-1.3,1.5-1.2,3,0.1c1.4,1.3,2,0.4,3.5,0c1.5-0.4,3.9-2,3.4-3.7c-0.4-1.7,0.2-1.2,0.6-4   c0.3-2.8-0.6-3.4-2.4-4.8c-1.9-1.3-3.8-2-5.4-3.1c-1.7-1.1-1.4-4.8-0.8-6.3c0.7-1.5-2.3-2.2-4.6-2.7c-2.3-0.4-2.5-2.4-4-0.9   c-1.4,1.5-3.6,0.3-6.2,0.1c-2.6-0.2-3.5,0.4-4,1.8c-0.4,1.4-6.6,8.1-8.4,9.4c-1.7,1.3-2.8,1.3-4.5,0.4c-1.7-1-2.7-0.2-4.9-1   c-2.2-0.8-3.3-3.5-5.7-4.6c-2.4-1.1-2.7-1.4-2.7-2.6c0-1.1-1.1-2.6,1.1-3.2c2.2-0.6,0.9-1.7,0.8-3.3c-0.1-1.6-1.1-1.2-2.7-0.8   c-1.5,0.4,0.4-2,1.4-4c1-2,1-2.4,0.5-4.3c-0.5-1.9-0.3-2.1,1.8-2.7c2-0.6,1.6-2.5,2.1-3.7c0.5-1.1,0.8-2.4-0.1-3.2   c-0.9-0.8-0.8-1.5-0.8-3s0.2-2.5-1.5-4.3c-1.7-1.8,1.2-3.6,1.2-5.9c0-2.3,0.6-2.8-1.4-2.5c-1.9,0.3-3,0.2-5.3-1.2   c-2.2-1.5-5.9-2.4-10.5-3c-4.6-0.7-7.9,1.4-12.2,2.7c-4,1.3-9.5,9-10.1,9.8c0.6,0.2,0.9,1.5,1.8,2.6c1.2,1.6,2.9,6,4.8,7.3   c1.9,1.3-0.1,9.2-0.8,11.2c-0.8,2.1-3.5,3.8-4.6,4c-1.1,0.2,0.9,2.3,2.5,3.7c1.6,1.5,3.5,1.2,6.1,1.2c2.6-0.1,2.1,0.6,3.9,0.7   c1.8,0.1,0.5-1.3-0.4-2.5c-0.9-1.2,0.7-1.5,2-1.5c1.3,0,1.9-0.1,2.3-1.6c0.5-1.4,4.1-2.1,4.9-2.6c0.9-0.5,2.8-0.9,3.6-0.9   c0.8,0-2.5,3.1-3.3,3.8c-0.8,0.7-1.4,2.2-1.5,3.1c-0.1,0.9-0.8,1.8-3.3,1.8s-3.1,4.8-1.6,6.9c1.5,2,1.6,4.7,2,8.2   c0.4,3.4,0.3,5.6-0.6,6.3c-0.8,0.7-2.2,2.1-3.2,2.1c-1,0-1.7,1-2.4,2.1c-0.6,1.1,0,1.8,0.6,2.6c0.6,0.8,1.4,1.4,0.8,2.2   c-0.6,0.8-2.9-2-3.5-2.5c-0.6-0.4-1,1.8-0.6,2.2c0.4,0.4,2,3.1,2.1,3.7c0,0.1,0,0.1,0,0.2c0.8-0.1,2.1-0.6,2.6-1.3   c0.7-1,4.2-1.7,5-2.5c0.8-0.7,3.1-0.8,5-0.8c1.9,0,1.1,1.9,0.6,2.7c-0.4,0.8-0.5,1.9,0.1,3.7c0.6,1.8-0.1,3.8-0.1,5.2   c0,1.4,1.5,3.5,3.7,4.4c2.3,0.9,1.8,2,1.7,3.3c-0.1,1.3,0.7,1.9,2,2.1c1.3,0.2,5.2,0,7,1.1c1.8,1.1-0.7,5.1-1.4,6.3   c-0.8,1.2-0.8,2.7,1.1,3.2c1.9,0.5,1.7-1.3,2.5-0.9c0.8,0.4-0.5,2.4-2.5,5.2c-2,2.9,2.8,3.9,4.5,4.3c1.7,0.3,4.5,2.8,7.3,2.8   c2.8,0,1.5,1.9,2.6,3.8c1.1,2,4.9,0.7,7.8,0.5c2.9-0.2,7.5,5.8,8.3,9.1c0.8,3.3-2.7,3.7-4.7,4.2c-2,0.5-0.7,3.4-0.5,5.5   c0.3,2.1-3.1,5-4.3,6c-1.1,0.9,0.4,10.9,0.8,13.3c0.4-0.2,0.8-0.3,1.2-0.3c2.6,0,1.3,4.6,4.6,5.9c3.3,1.3,3.4,3.3,4.6,4.7   c1.2,1.4,3.5,0.5,5.5,0.6c2,0.1,5.4-1.6,7.2-2.3c1.8-0.7,3.5,0.9,5.4,4.5c1.9,3.6,1.2,6.5,2.4,6.3c1.2-0.2,3.5-0.2,5.6,0.1   c1.7,0.2,3.7-0.8,4.5-1.2c0-0.3-0.1-0.5-0.1-0.7c0-1.1,2.2-3,3.6-3c1.4,0,2.1-0.7,5.6-1.4c3.5-0.7,5.8-2.1,8.2-3.8   c2.4-1.7,3.5-4,4.5-6.4c1-2.3-0.9-1.6-4-1.6c-3.1,0-2.5-2.3-2.5-3.1c0-0.9,1.3-1.8,3.2-2.4c1.9-0.6,5.6-5.5,7.1-6.7   c1.4-1.1,2.3-2.7,2.3-4.3c0-1.7,3.5-4.1,4.4-5.1c1-1,1.4-3.1,0.1-4.5c-1.3-1.4-1.2-2.6-0.4-4.1c0.8-1.5,0.2-3.5,1.8-4.7   c1.7-1.1,1.2-2.7,0.2-3.6c-1-1-1.3-2.4-2.4-3.5c-1.1-1-2.1-1.9-1-5.1c1.1-3.1,0.5-5.2-1.4-7.3c-1.8-2.1-5.4-3.9-8.5-3.8   c-3.1,0.1-3-4.8-4.3-5.4c-1.3-0.7-1.4-2.8-0.4-4.5c1-1.8-0.1-4.1-0.5-5c-0.3-0.6-1.5-2.1-2-3.3c-0.7,0.7-2.1,2-2.9,2.4   C501.5,335.1,500.7,336.2,499,335.4z" stroke-miterlimit="10" stroke="#FFFFFF"/>
	<path name="营口市" fill="#D3D3D3" id="path3" d="M449.8,393.8c1.3-1,4.6-3.9,4.3-6c-0.3-2.1-1.5-5,0.5-5.5   c2-0.5,5.5-0.9,4.7-4.2c-0.8-3.3-5.3-9.3-8.3-9.1c-2.9,0.2-6.7,1.4-7.8-0.5c-1.1-2,0.3-3.8-2.6-3.8c-2.8,0-5.6-2.5-7.3-2.8   c-1.7-0.3-6.4-1.4-4.5-4.3c2-2.9,3.3-4.9,2.5-5.2c-0.8-0.4-0.6,1.4-2.5,0.9c-1.9-0.5-1.9-2-1.1-3.2c0.8-1.2,3.2-5.1,1.4-6.3   c-1.8-1.1-5.7-1-7-1.1c-1.3-0.2-2.1-0.8-2-2.1c0.1-1.3,0.6-2.4-1.7-3.3c-2.3-0.9-3.7-3.1-3.7-4.4c0-1.4,0.7-3.4,0.1-5.2   c-0.6-1.8-0.5-2.8-0.1-3.7c0.4-0.8,1.3-2.7-0.6-2.7c-1.9,0-4.3,0.1-5,0.8c-0.8,0.7-4.2,1.5-5,2.5c-0.5,0.7-1.8,1.2-2.6,1.3   c0.1,0.6,0,1.4-1.9,1.3c-2.2-0.2-1.1,1.2-1.2,2.6c-0.1,1.5-2.2,0.6-3.5-0.3c-1.3-1-1.7,1.1-1.7,2.6c0,1.5-2.3,0.9-3.3-1.7   c-1.1-2.6-0.6-1.9-1.7-2s0.3,3.9,0.4,4.5c0.1,0.6-0.3,1.1-1.7,0.4c-1.4-0.6-1.7-0.2-2.4,1.3c-0.6,1.5-0.9,1.2-2.7,2.7   c-1.8,1.5,0.6,2.5,2.7,3.3c2,0.9,4.5,3.3,5.8,5.1c1.3,1.7,2.3,1.3,3.3,1.2c1.1-0.1,2.3-0.4,2.4,1.4c0.1,1.4-1.4,2.2-2.1,2.4   c0.2,0.5-0.6,0.7-1.4,1c-1.2,0.4-3.8-2.2-4.7-2.9c-0.9-0.7-0.6,1.1-0.2,2.4c0.4,1.3-1.2,4.8-1.7,6.5c-0.5,1.6,8.7,9.8,10.6,11.3   c1.8,1.5,1.3,4.5,1.3,6.9c0,2.4-4.9,5.2-6.5,5.4c-1.6,0.2-1.2,1-0.7,2.3c0.5,1.4-2,6.4-3.2,6.5c-1.3,0.1-2.1,1.9-2.8,2.2   c-0.6,0.3-2.2,1.8-3.3,2.6c-1.1,0.8-0.4,0.8,0.9,2.3c1.3,1.5-0.5,4.1-2.2,6.6c-1.7,2.5-6.4,3.8-8.1,3.9c-1.7,0.1,0,1.6,1.1,2.1   c1.1,0.5,1.1,1.8,0.9,3.5c-0.2,1.6-1.9,2.4-3.6,2.5c1.4,0.9,1.5,3.6,1.5,6c0,2.6,2.4,1.5,3.3,0.7c0.9-0.8,1.7-2.3,2.8-1.1   c1.1,1.1,2.2,0.7,3.3,1.1c1.1,0.5,3.3,1.1,5,1.5c1.7,0.3,1.5,1.3,2.4,2.6c0.9,1.4,2.3,2.4,4.7,1.3c2.4-1.1,1.6,0.8,2.7,3.6   c1.1,2.8,1.9,1.9,2.6,1.4c0.7-0.6,2.3-1.6,3.3-0.6c1,1,2.2,1.1,5.2,0.7c3.1-0.5,7.2,3.5,8.5,4.2c1.4,0.7,3,0.9,5-0.2   c2-1.1,0.1-4.9-1.1-5.9c-1.2-1-1.2-1.7-0.1-3.4c1.1-1.7,0-4.2,0.2-5.2c0.2-1,5.7,1.8,6.9,0.8c1.2-1,1.9-0.6,4.1-0.3   c2.2,0.2,4.3-1.8,6-3.8c1.7-1.9,4.9-1.3,7.3-2c2.4-0.8,2.3-2.3,2.5-4.3c0.2-1.7,2.1-4.6,4.3-5.5   C450.2,404.7,448.6,394.6,449.8,393.8z" stroke-miterlimit="10" stroke="#FFFFFF"/>
	<path name="丹东市" fill="#D3D3D3" id="path4" d="M678.5,318.7c-0.5,0.8-2.9,1.8-3.5,0.8c-0.6-1-1.8-2.7-0.6-3.7   c1.2-1,2.3-2.4,1.6-3.4c-0.7-1-2.2-2.8-2.4-0.7c-0.2,2.1-0.8,4.2-2,3.7c-1.3-0.5-3-0.8-2.6-2.5c0.4-1.7,1.3-4.7,0.6-5.3   c-0.7-0.5-1.8,1-2.8,1c-1,0-2.6,1-3.6,1s-2.8,0.4-2.8-1c0-1.4,0.5-2.7-0.6-2.7c-1.1,0-2.3-0.3-2.8-2.2c-0.5-2-1.5-4.8-4.2-4.8   c-2.7,0.1-5.7,0.5-6.7-0.1c-1.1-0.6-2.5-0.6-3.3,0.2c-0.8,0.8-3.1,1.5-4.8,0.5c-1.7-1-4.3-2.7-5.3-1.6c-1.1,1.1-2.5,1.8-4.4,0.6   c-1.8-1.1-3.4-1.4-4.5-1.4c-1.1,0-2.9-0.2-4.4-0.9c-1.5-0.7-4.8-1.4-5.9-1.1c-1.1,0.3-1.9,2-3.4,1c-1.5-1-3.7-3.9-4-2.9   c-0.3,1-0.9,3.3-2.7,3.6c-1.8,0.3-2.6,1.5-2.9,2.1c-0.3,0.6-1.2,1.5-2.6,1.4c-1.4-0.2-7.1-0.4-7.8,1c-0.6,1.4-2.3,4.6-4.6,4.1   c-2.3-0.5-5-3.1-6.6-2.1c-1.7,1.1-2.5,3.7-4.1,2.1c-1.6-1.5-1.6-3.1-4-2.9c-2.4,0.2-2.5-1.1-2.9-1.8c-0.4-0.6-1.5-0.6-2.8,0.1   c-1.3,0.6-1.7,2.5-1.8,3.5c-0.2,1-1.2,3.3-2,4c-0.8,0.7-2.1,1.2-3.5,0.3c-1.4-0.9-2.1-2-4.1-1.5c-1.9,0.4-3,3.2-2,4.5   c1,1.3,1.7,1.1,2.3,2.5c0.6,1.4,1.3,1.9,1.9,2.6c0.6,0.8,1,1.4,0.3,2.8c-0.7,1.3-1.3,4.1-0.5,5.3c0.8,1.3-0.1,2.2-0.3,2.9   c-0.2,0.7-0.2,2.1-1.5,2.2c-1.3,0.1-1.9,0.8-3.1-0.2c-1.1-1-2.7-1.2-3.9-1.2c-1.1,0-4.2-0.4-4.5-1.2c-0.3-0.8-1-0.9-1.4,0   c-0.4,0.9,0,3.1-1.8,4.2c-1.8,1.1-2.7,2.2-4,1.6c-1.3-0.6-2.6-1-3.2-2.2c-0.6-1.3-3.1-1.3-4.5-1.2c-1.4,0.2-2.9,1.4-4.1,1.2   c-1.1-0.1-2.3-0.6-3,0.5c-0.7,1.1-0.9,2.8-2.6,2.8c-1.7,0.1-4.8-2.6-6.3-3.4c-1.5-0.8-4.6-0.7-5.7-0.1c-1.1,0.6,1.5,3.5,1.9,4.4   c0.4,0.9,1.5,3.2,0.5,5c-1,1.7-0.9,3.8,0.4,4.5c1.3,0.7,1.2,5.6,4.3,5.4c3.1-0.1,6.7,1.7,8.5,3.8c1.8,2.1,2.5,4.2,1.4,7.3   c-1.1,3.1-0.2,4,1,5.1c1.1,1,1.4,2.5,2.4,3.5c1,1,1.4,2.5-0.2,3.6c-1.7,1.1-1,3.1-1.8,4.7c-0.8,1.5-0.9,2.7,0.4,4.1   c1.3,1.4,0.9,3.5-0.1,4.5c-1,1-4.4,3.5-4.4,5.1c0,1.7-0.9,3.2-2.3,4.3c-1.4,1.1-5.1,6-7.1,6.7c-1.9,0.6-3.2,1.5-3.2,2.4   c0,0.9-0.6,3.1,2.5,3.1c3.1,0,5.1-0.7,4,1.6c-1,2.3-2.1,4.7-4.5,6.4c-2.4,1.7-4.8,3.1-8.2,3.8c-3.5,0.7-4.2,1.4-5.6,1.4   c-1.4,0-3.6,1.9-3.6,3c0,1.1,0.7,4,0,5.2c-0.7,1.2-1.8,4.9,1.5,5.4c3.4,0.5,6,0.8,6.4,2.9c0.4,2.2-0.3,5,0.2,6.7   c0.5,1.7,2.2,1.4,2.3,2.9c0,1.4,2.1,2.2,2.5,4.7c0.5,0.1,0.9,0.5,1.5,1.5c1.1,2.1,0.9,1.1,0.9-0.5c0-1.6-0.4-2.1,2.5-2.6   c2.8-0.5,0.4-1.7,1.1-1.7c0.7,0,1.7-0.9,1.7-2.8c0-2,0-2.3,1.6-2.8c1.6-0.5,6.1,4.7,7.4,5.7c1.2,1,9.9-2.4,11.5-3.2   c1.6-0.9,2-1,2,0.4c0,1.5,4.2,0.8,6.1,0.8c1.9,0,3.1,1.1,4.5,2.8c1.4,1.7,5.9-1.1,6.9-2.3c0.9-1.2,2-1,3.7-0.4   c1.7,0.6,1.9,0.7,5.1-1.5c3.2-2.2,3.6-6.3,4.9-8.7c1.2-2.4,8.5-1.6,10.3-2.8c1.8-1.3,1.4-2.3,1.4-4.5c0-2.3,0.5-2.2,1.1-4   c0.6-1.8-2.3-5.6-1.5-6.7c0.8-1.1,2-3.2,2-4.2c0-1,1.3-4.8,3.8-6.2c2.4-1.4,4.6-4.8,6.7-5.9c2.1-1.1,5.2-3.6,6-5.8   c0.8-2.2,5-4.3,8.1-5.1c3.1-0.8,3.7-4.6,4.7-5.9c1-1.3,14.3-13,15.1-14c0.7-1,1.8,1.6,2.5,2.5c0.6,1,1.6-0.5,2-1.4   c0.3-0.9,1.3-0.9,1.6-0.1c0.3,0.7,1.4,0.7,1.8,0.1c0.5-0.6,3.3,0.3,6.4,0.8c3.1,0.5,1.4-1.5,0.3-1.9c-1-0.4-2.7-4.7-3.5-5.8   s2.5-2.7,4.3-3.6c1.8-0.9,5-2.5,5.7-2.5c0.6,0,2.5,0.8,2.5-1.3c0-2.1,2.1-0.6,3.9-1.1c1.8-0.5,0.4-1.5,2.3-2.2c1.9-0.7,2-1,2.9-2.5   c0.9-1.5,4.7-0.8,6.3-0.5c1.6,0.3,3.3,0.7,4.3,2.2c1,1.5,1.7-2.5,1.7-3.7c0-1.2,2.8-4,3.5-5.7c0.7-1.7,2.6-1.4,4.8-1.6   c2.2-0.1,2.5-3.6,2.5-5.6c0-2,3.5-0.3,6.1-0.1c2.7,0.2,2.4,0.7,3.9-1.3c1.5-2,0-3.1-0.9-4c-0.9-0.9,0.4-2.1,1.7-3.3   c1.2-1.2,2.7-1.7,3-2.7c0.3-1,1.3-2,1.1-2.8c-0.2-0.7-2.1-2.7-5.5-3.8c-3.4-1.1-5.8,2-6.7,2c-0.8,0-1.3-0.6-1.3-1.8   c0-0.5,0.3-1.1,0.8-1.6C680.6,318.6,678.9,318.1,678.5,318.7z" stroke-miterlimit="10" stroke="#FFFFFF"/>
	<path name="朝阳市" fill="#D3D3D3" id="path5" d="M312.4,208.8c-3.4-0.9-4.8-4.4-6.5-7.4c-1.8-3.1-5.6-1.5-7.4-1.3   c-1.9,0.2-4.3-1.1-5.1-1.4c-0.8-0.3,1.4-5.8,1.2-7.2c-0.2-1.5,0.2-4.6,1.1-6.4c0.9-1.8,1.2-5.7,0.5-7.1c-0.6-1.1-2.7-8.9-3.5-11.7   c-2.2-0.2-5.7-2.4-6.5-3.2c-1-1-10.2,4.1-11.6,4.9c-1.4,0.8-7.9,2.1-9,3.7c-1.2,1.6-7.3,3.8-8.7,3.2c-1.4-0.6-6.6,3.4-9,4.8   c-2.5,1.4-1,1.7-0.9,4c0.1,2.3-1.2,5.1-2.5,7.6c-1.3,2.6-4.1,3.5-5.9,3.3c-1.8-0.3-2.6,0.6-3.7,1c-1.1,0.4-3.9,3.8-5,4.3   c-1.1,0.5-2.9,2.9-3.7,5.2c-0.7,2.4-8.9,11.9-10.1,12.9c-1.2,1-0.9,2.9-0.8,5.3c0.1,2.4-1.7,4.4-4.7,4.6c-3,0.2-3.1-1.4-3.2-3.4   c-0.1-2,0.9-5.8,1.2-7.1c0.3-1.3-1-3.7-2.2-6c-1.2-2.2-2.8-3.6-3.2-6c-0.4-2.3-2.5-6.2-2.5-8.6c0-2.4-6.6-13.3-8-16.2   c-1.4-2.9-0.1-5.3,0.8-9c0.9-3.7-3.8-4-5.3-4.2s-5-1.1-8.4-1.8c-3.4-0.7-5.1-1.1-5.7-3.6c-0.6-2.5-1.7-2-3.4-5.2   c-1.8-3.2-2.8-7.5-3.4-9.9c-0.6-2.4-1.7,0-1.7,1.4c0,1.4-0.5,1.8-2.6,2.7c-2.1,0.8-4.1,2.1-5,3c-0.9,0.9-1.5,1.8-3.8,1.7   c-2.4-0.2-6.3,3.3-7.4,4.1c-1.1,0.8-2.9,2.4-2.9,3.7c0,1.4-2.8,4-1.9,5c0.9,1,5.6,7.5,8.8,9.9c3.2,2.4,1,9.6-2.3,13.6   c-3.3,4.1-2.1,7.6-2,9.3c0.1,1.7,0.7,7.6-0.9,9c-1.6,1.4-0.7,10.6-1,13.8c-0.4,3.2-0.5,4.6,0,7.1c0.5,2.5,2.1,4,3.5,4.3   c1.4,0.2,2.7-0.4,3.3,1.6c0.5,2-0.5,4.1-2.6,5c-2.1,0.9-0.3,4.7,1.2,5.4c1.4,0.7,0.3,4.7-0.1,6.3c-0.4,1.6-1.4,4.3-3.1,4.6   c-1.7,0.4-2.1,1.3-2.9,3.1c-0.8,1.8,1,2.4,1.3,3.9c0.3,1.5,0.2,2.5-2.2,2.1c-2.5-0.4-2.8,1.1-4.3,1.3c-1.5,0.2-1.4,2.3-1.4,3.3   c0,1-1.4,4.7-3.5,6.4c-2.1,1.8-2.2,1.8-2.2,3.5c0,1.7-0.8,3.3-3.6,5.1c-2.8,1.7-6.1,4.9-6.5,6.8c-0.4,2-2.8,4-4.1,3.9   c-1.3,0-3.9-1.5-5.2-1.9c-1.3-0.3-2.7,2.3-2.7,3.9c0,1.6,2.1,2.1,3.6,2.4c1.5,0.3,2.2,1.5,3.1,3c0.9,1.5-0.6,2.7-1.8,3.5   c-1.2,0.9-4,0.5-5.5,0.3c-1.6-0.2-2.4,1.6-2.5,2.8c-0.1,1.2-0.9,3.4-0.9,4.7c0,1.3-1.6,3.6-2.8,4.2c-1.2,0.6-1.6,4.8-0.7,5.5   c0.9,0.6,3,5.7,5.2,7c2.2,1.3,3.3,4.4,5.4,6.1c2.1,1.7,6.5,3.6,8.5,3.9c2,0.3,2.4-0.2,3.2-1.2c0.8-1,2.8-0.6,4-0.1   c1.2,0.5,0.1,2.9-1,3.6c-1.1,0.7-0.8,2-0.8,3.2c0,1.2,1.6,2.4,4.1,2.5c0.5,0,0.9,0.2,1.2,0.4c2.1-1.1,5.9-3.3,6.8-4.6   c1.2-1.9,2.3-3.9,4.2-3.9c1.9,0,4-1.2,5.1-3.1c1.1-1.9,2.3-4,4-4.3c1.7-0.3,4.8-0.8,5.4-3.7c0.6-2.9,0.6-2.6,2.8-1.7   c2.2,0.9,4.7-2.6,5.3-0.2c0.6,2.5,2.9,3.9,4.3,1.9c1.4-2,0.3-2.9,0.2-4.3c-0.2-1.4,2.3-2.9,4.3-2.9c2,0,7.3,1.6,8.7-1.6   c1.4-3.1,0.2-7.9,2.9-6.4c2.8,1.6,4.7,4,6.8,1.6c2.2-2.5,3.3-3.7,4.3-2.5c1.1,1.2,3.6-1.7,4-5c0.5-3.3,3.3-1.7,1.4-4.6   c-1.9-2.9-3.9-5.5-0.2-6.5s6.7-1.8,8.7,0.8c1.9,2.6,0.9,4.1,3.3,6.3c2.4,2.2,1.4,2.1,2.7,2.3c1.4,0.2,2.6,1.6,1.9,2.1   c-0.7,0.5-0.1,2.3-2.1,2.3c-1.9,0-1.8,1.4-0.7,2.3c1.1,0.9,1.5-0.1,3.8,0c2.3,0.1,3.8-0.6,4.4-2.1c0.7-1.5,2.7-3.4,4.7-2.6   c1.9,0.8,5.8,4.6,7.4,3.4c1.6-1.1,4.7-3.7,3.1-5.5c-1.6-1.8-2.3-6.5-0.2-7.1c2.1-0.6,1.9-0.9,3.9,0.7c1.9,1.6,3.1,2.4,3.4,0.1   c0.4-2.3,0.1-2.4,1.7-2.3c1.5,0.1,3.6-2.1,3.7-3.8c0.1-1.7,0.6-3,2-3.2c1.4-0.2,1.5-3.3,3.4-3.9c1.9-0.6,3.7-1.1,5-0.2   c1,0.6,3.1-0.3,4.5-1.1c-1.2-0.2-2.3-0.4-2.8-1.7c-0.7-1.9,1.9-2.2,0.9-5.2c-0.9-3.1-0.5-3,0.7-4.2c1.2-1.2,1.6-10,4.7-11.4   c3.1-1.5,6.3-0.9,7.1-3.9c0.8-3,1.9-11.2,3.6-11.2c1.7,0,2.7-1.6,3.9-3.8c1.2-2.2,3.6-6.1,6.1-6.5c2.4-0.4,8.5-0.4,9.8-3.4   c1.3-3,2.4-3.8,4.6-3.8c2.2,0,3.8-2.3,3.8-3.2c0-0.9-3.1-5.4-0.9-6.1c2-0.6,2-2.6,3.5-3.1c0.2-1,0.8-2.5,1.1-4.1   c0.3-1.9,2.1-3,3.3-4.4C316.9,211.1,315.8,209.7,312.4,208.8z" stroke-miterlimit="10" stroke="#FFFFFF"/>
	<path name="阜新市" fill="#D3D3D3" id="path6" d="M295.6,185c-0.9,1.8-1.3,4.9-1.1,6.4c0.2,1.5-2,7-1.2,7.2   c0.8,0.3,3.3,1.6,5.1,1.4c1.9-0.2,5.7-1.8,7.4,1.3c1.8,3.1,3.2,6.5,6.5,7.4c3.4,0.9,4.5,2.3,3.4,3.7c-1.2,1.4-3,2.5-3.3,4.4   c-0.2,1.6-0.8,3.1-1.1,4.1c0.1,0,0.2-0.1,0.4-0.1c1.9-0.3,1.9,2,4.2,1.5c2.3-0.5,2.7,0.8,1.7,1.9c-0.9,1.1-1.2,2.2,1.1,2.2   s4.8-1.3,5.4,1.2c0.5,2.6,2.3,4.6,3.4,4c1.1-0.5,4.4-2.7,4.4-3.8c0-1.1-0.5-5.5,1.9-4.6c2.4,0.9,4.6-2.3,6.3-1.5   c1.7,0.8,3.6,1.6,5.5-0.1c1.9-1.7,4.1-2.7,5.7-1.4c1.6,1.3,4.6-1.6,6.2-0.5c1.6,1.1,3.6,0.2,3.5-1.3s-3.6-0.9-1.4-2.7   c2.2-1.7,6.5,0.3,9.7-3c3.2-3.3,10.8-11.4,12.7-13.1c1.9-1.7,8.4-6.5,10.9-8.1c2.5-1.6,20.4-12,26.6-15.2   c6.2-3.2,29.9-16.5,30.2-19.6c0.3-3.2-0.3-5.2-3.5-6.6c-3.2-1.4-4-8.2-0.9-9.5c3-1.3,6-1.3,7.8-4.1c1.7-2.8,5.2-5.4,1.9-6.2   c-3.3-0.8-4.6-1.9-6.3-4.1c-1.7-2.2-4.4-3.3-4.4-5.4c0-2.1-0.5-2.2-1.9-2.2c-1.4,0-3-1.1-0.8-2.2c1.4-0.7,3.3-1.5,4.5-2.1   c-1.9-1.2-4.5-4.5-6.1-6.6c-2.2-2.8-6.6-1.3-9.8-0.8c-3.1,0.4-4.4-2-5.6-4c-1.3-2-3.6-3-7.4-3.7c-3.8-0.7-7.3-0.1-9.4,1.1   c-2.2,1.2-1.9,2.7-1.9,4.4c0,1.7,3.1,2.1,5.4,2.9c2.2,0.8,2.5,3.1,1.6,6c-0.9,3-3.1,3.5-5.9,4.5c-2.8,1-8.9-1.9-11-3.4   c-2.1-1.4-2.7,0.3-3.1,1.4c-0.3,1.1-1.2,3.6-5.4,1.4c-4.2-2.2-9.9-1.8-13.6-1.3c-3.7,0.5-5.3,5.7-4.9,7.2c0.4,1.4-0.1,3.8-0.9,4.5   c-0.7,0.7-1,1.8-1.1,2.6c-0.1,0.7-2.4,4-3.6,4.1c-1.2,0.1-2.4,0.4-2.4,1.1c-0.1,0.7-1.4,2.2-2.8,2c-1.3-0.2-1.1,0.1-1.7,0.9   c-0.6,0.8-0.9,1.3-2.3,1.4c-1.4,0.1-1.8,2.5-3,4.7c-1.1,2.2-3.5-0.7-5.1-1.6c-1.6-0.9-1.2-3.8-2.1-5.7c-0.9-1.9-7,0.6-7.8,1.3   c-0.9,0.7-3,1.4-4.9,0.4c-1.8-1-3.8,0.8-4.6,0.5c-0.9-0.3-1.6-0.2-2.1,1c-0.5,1.2-1.8,2.1-3.4,1.7c-1.6-0.4-2.3,0.6-3.4,1.7   c-1,1.1-3.5,6-4.3,6.7c-0.8,0.8-2,3.2-4.9,3.2c-2.9,0-2.6,1.4-3.2,2.9c-0.6,1.6-9.8,8-11.5,9.2c-0.3,0.2-0.8,0.3-1.3,0.2   c0.7,2.7,2.8,10.5,3.5,11.7C296.8,179.4,296.6,183.3,295.6,185z" stroke-miterlimit="10" stroke="#FFFFFF"/>
	<path name="葫芦岛市" fill="#D3D3D3" id="path7" d="M292.2,335.2c0.1-0.4,0.1-0.2,0.6-0.2c0.5,0,0.9,0.4,1.2,0.8   c0.3,0.4-0.3,1.1-1,0.8C292.2,336.4,292.1,335.6,292.2,335.2L292.2,335.2z M261.9,289.5c-1.3-0.8-3.1-0.4-5,0.2   c-1.9,0.6-2,3.7-3.4,3.9c-1.4,0.2-1.9,1.5-2,3.2c-0.1,1.7-2.1,3.9-3.7,3.8c-1.5-0.1-1.3,0-1.7,2.3c-0.4,2.3-1.5,1.5-3.4-0.1   c-1.9-1.6-1.8-1.3-3.9-0.7c-2.1,0.6-1.4,5.3,0.2,7.1c1.6,1.8-1.5,4.3-3.1,5.5c-1.6,1.1-5.5-2.6-7.4-3.4c-1.9-0.8-4,1.1-4.7,2.6   c-0.7,1.5-2.2,2.2-4.4,2.1c-2.3-0.1-2.6,0.9-3.8,0c-1.1-0.9-1.3-2.3,0.7-2.3c1.9,0,1.4-1.8,2.1-2.3c0.7-0.5-0.6-1.8-1.9-2.1   c-1.4-0.2-0.3-0.1-2.7-2.3c-2.4-2.2-1.4-3.7-3.3-6.3c-1.9-2.6-5-1.8-8.7-0.8s-1.7,3.7,0.2,6.5c1.9,2.9-0.9,1.3-1.4,4.6   c-0.5,3.3-2.9,6.3-4,5c-1.1-1.2-2.2,0-4.3,2.5c-2.2,2.5-4,0-6.8-1.6c-2.8-1.6-1.6,3.3-2.9,6.4c-1.4,3.1-6.7,1.6-8.7,1.6   c-2,0-4.5,1.6-4.3,2.9c0.2,1.4,1.2,2.3-0.2,4.3c-1.4,2-3.7,0.6-4.3-1.9c-0.6-2.5-3.1,1.1-5.3,0.2c-2.2-0.9-2.2-1.2-2.8,1.7   c-0.6,2.9-3.7,3.4-5.4,3.7c-1.7,0.3-2.9,2.5-4,4.3c-1.1,1.9-3.3,3.1-5.1,3.1c-1.9,0-2.9,2-4.2,3.9c-0.9,1.3-4.7,3.5-6.8,4.6   c1.2,0.7,1.1,2.5,1.1,4.1c0,2,5,4,5.8,4.2c0.8,0.2,3.9,0.6,5.2-0.2c1.2-0.8,2.5-1.1,3.3-0.9c0.9,0.2,4.3,1.1,5.3,1.2   c0.9,0.1,1.2-0.9,3.6-1.3c2.4-0.4,4.7,0.8,5.5,1.4c0.8,0.6,1.4,3.5,0.5,3.9c-0.9,0.4-1.2,3,0.5,4.2s0.7,9.9,0.5,11.7   s0.4,3.7,1.7,5.1c1.3,1.4,1.7,4.1,1.5,5.5c-0.3,1.4,2.2,4.8,4.2,5.5c2,0.7,3.6,2,4.6,3.4c1,1.3-0.1,8.9-0.4,10.1   c-0.3,1.2,0.7,4.6,1.9,6.5c1.2,1.9,2.6,2,5.3,1.9c2.7-0.1,2,7.2,2.1,7.5c0.1,0.4,1.8-0.7,3.4-1.1c1.7-0.4,1.7-2.4,2.2-4.2   c0.5-1.8,4.4-3.7,6.4-3.8c2-0.1,4.9-1.7,8.3-2.5c3.3-0.8,6.1-3,8.8-3.3c2.7-0.4,9.7-3.5,9.7-5c0.1-1.5,1.1-1.2,1.8-1.2   c0.7,0,2.1,0.7,2.1-0.4c0-1.1,2.2-0.8,4.1-0.9c1.9-0.1,2.3-0.2,2.7-0.6c0.4-0.4,0.7,0.5,1.6,0.5c0.9,0,2.9-3.6,4.9-5.3   c2-1.7,0.9-2.5,0.1-2.6c-0.8-0.1-2.1-0.6-0.5-1c1.6-0.4,1.4-3.5,1.4-4.9c-0.1-1.4,5-4.4,6.3-4.8c1.2-0.4,3.1-1.3,2.9-2.2   c-0.2-0.9-2,0-3.5,1.2c-1.5,1.1-1.9-2.5-1.6-4.6c0.2-2.1,2.6-1.8,4-1.7c1.4,0,1.4-1.1,0.8-1.9c-0.6-0.7-0.5-1.4,0.4-3.2   c0.9-1.7,3.3-1.6,4.6-1.7c1.3-0.1,1.4-1.7,1.4-3.3c0-1.6,0.9-1.6,1.8-2.1c1-0.5,0.4-1.6,0.4-2.2c0-0.6,2.1-1.1,4.3-1.1   c2.2,0,2.1-1,1.9-2c-0.1-1-0.1-1.8,0.8-1.9c0.9-0.2,3.1-1.1,4.2-2.3c1.1-1.2,1-3.7,1.2-5.8c0.1-2.2,3.1-2,6.4-2   c3.3,0,5.4-1.7,6.2-2.4c0.8-0.8,2.8,0,4,0.9c1.2,0.9,0.8-0.7-0.6-2.7c-1.3-2-3.5-1.2-5.6-1c-2.1,0.2-1-2.9-1-4.2   c0.1-1.3,2.1-0.9,3.7-1c1.6-0.2,0.7-1.6-0.4-2.1c-1-0.5,0-2.1,0.7-2.4c0.7-0.3,0.9-2,1.9-3.1c1-1.1,1.3-0.5,1.8-0.5   c0.2,0,0.3,0,0.5,0c0.4-0.7,2.1-4.3,2.1-6.3c0-2.3-1.3-6.3-0.9-8.3c0.4-2,4.7-8.5,3.4-9.3c-1.3-0.8-1.6,0-2.4,0.8   c-0.8,0.8-3.2,1.9-4,0.5c-0.8-1.3-1.7-3.1-1.7-4.7s-0.9-3.9-2.3-3.5c-1.3,0.4-3.1,0.7-4.6-0.8c-1.5-1.5,0.1-5.1-1.5-4   c-1.6,1.1-4.2,2-5.9,0.7c-1.7-1.3-0.8-4.8-2.3-5.4c-0.4-0.2-0.9-0.2-1.4-0.3C265,289.1,262.9,290.1,261.9,289.5z M269.4,366.6   c0,0,0.2,0.4,0.6,0.6c0.4,0.3,0.8,1.3,0.8,2.8c0,1.5-1.1,1.4-2.1,1c-1-0.4-1.8,1.3-2.9,1.6c-1.1,0.2-0.2-1.7,0.1-2.3   c0.3-0.6,1.1-1.2,1.1-1.7s0.2-0.5,0.6-0.7c0.4-0.2,0.8-0.7,0.8-1.7C268.5,365.2,269.4,366.6,269.4,366.6L269.4,366.6z" stroke-miterlimit="10" stroke="#FFFFFF"/>
	<path name="锦州市" fill="#D3D3D3" id="path8" d="M416.5,243c-0.2,1.7-1.1,5.5-1.3,6.4c-1.1-0.2-2.2-0.4-3.4-0.6   c-4.6-0.7-7.9,1.4-12.2,2.7c-4,1.3-9.5,9-10.1,9.8c-0.2-0.1-0.5,0-0.9,0.5c-1.3,1.6-7.9,6.3-9.1,7.2c-1.1,0.8-1.2,0.2-3,0   c-1.9-0.2-5.2-1.7-6.6-0.3c-1.4,1.5-5.5,6-7.4,5.2c-1.9-0.8-1.8-1.5-3.3-0.4c-1.5,1.1-2.6,0.5-3.9,0.5s-3.9,1.4-5.5,2.2   c-1.6,0.8-4.9,3-7.1,3.4c-2.2,0.4-3.5,3-3.5,4.4c0,1.4,0.1,2.6,1.3,2.6c1.2,0,3.2,1.2,1.9,2.2c-1.3,1-3,2-3.4,2.8   c-0.4,0.8-2.7,5,0.3,7.1c3,2.1,4.8,3,6.4,2.2c1.5-0.8,4.6-0.9,5.7-1.7c1.1-0.7,2.6-1.1,2.6,0.7c0,1.9,0.6,4.2-1.8,3.6   c-2.4-0.6-2.2-2.2-3.8-1.7c-1.6,0.5-2.3,0.7-1.7,2c0.5,1.3,0.3,1.8-1.1,1.8c-1.4,0-1.4,0.6-1.4,2.3c0,1.7,1.8,3.9,1.1,5.7   c-0.7,1.8-2.2,2.4-2.1,4c0.1,1.6-0.7,2.7-1.7,3.9c-0.8,0.9-2.8,3.8-3.9,5.3c-0.6-0.6-0.8-1.3-0.8-2c-0.1-1.3-1.1-2.2-1.7-2.2   s-0.7,0.2-1.6-0.6c-0.9-0.8-1-1.6-1.5-0.9c-0.5,0.7-1.4,0.3-1.5-0.4c-0.1-0.7-0.9-0.3-1.5,0.2c-0.6,0.6-1.6,1-2.5,0.9   c-0.9-0.1-0.3,0.5-1.2,1.2c-0.8,0.7-2.2,1-3.2-0.1c-1.1-1.1-1.7-0.9-2.3-0.8c-0.7,0.1-0.2-5-0.9-4.1c-0.8,0.8-1.8,3.6-2.6,2.8   c-0.8-0.8-0.7-1-0.2-1.6c0.5-0.6,0.5-1.6-0.8-1.6c-1.3,0-1.2,1.6-1.8,0.8c-0.6-0.8-0.8-1.6-1.4-0.9c-0.6,0.7,0,1.5-0.6,2.1   c-0.6,0.6,1,0.9,1.8,1.3c0.8,0.3,1.7,1.6,0.4,1.5c-1.2-0.2-2.9-1.5-3.3-0.7c-0.4,0.8-1.1-0.2-1.1-0.8c0-0.6,0.1-0.7-0.6-0.7   c-0.6,0-1,0.2-1.2-0.6c-0.2-0.8-0.9-1-1.5-0.6c-0.5,0.4-1.6,1.2-1.9,0.4c-0.3-0.8-1.5-2.5-1.6-0.6c-0.1,2-5.2,7.9-6.1,8.1   c-0.8,0.2-3.2-0.5-3.5,0.7c-0.3,1.1-0.5,2.1,0,2.8c0.5,0.7-0.1,2.1-0.9,1.5c-0.8-0.6-1.7-1.3-2.3-1c-0.7,0.3-0.9-0.2-0.9-1   c0-0.6-0.4-0.8-0.7-0.8c0.4-0.7,2.1-4.3,2.1-6.3c0-2.3-1.3-6.3-0.9-8.3c0.4-2,4.7-8.5,3.4-9.3c-1.3-0.8-1.6,0-2.4,0.8   c-0.8,0.8-3.2,1.9-4,0.5c-0.8-1.3-1.7-3.1-1.7-4.7s-0.9-3.9-2.3-3.5c-1.3,0.4-3.1,0.7-4.6-0.8c-1.5-1.5,0.1-5.1-1.5-4   c-1.6,1.1-4.2,2-5.9,0.7c-1.7-1.3-0.8-4.8-2.3-5.4c-1.5-0.5-3.5-0.1-4.2-2c-0.7-1.9,1.9-2.2,0.9-5.2c-0.9-3.1-0.5-3,0.7-4.2   c1.2-1.2,1.6-10,4.7-11.4c3.1-1.5,6.3-0.9,7.1-3.9c0.8-3,1.9-11.2,3.6-11.2c1.7,0,2.7-1.6,3.9-3.8c1.2-2.2,3.6-6.1,6.1-6.5   c2.4-0.4,8.5-0.4,9.8-3.4c1.3-3,2.4-3.8,4.6-3.8c2.2,0,3.8-2.3,3.8-3.2c0-0.9-3.1-5.4-0.9-6.1c2-0.6,2-2.6,3.5-3.1   c0,0.2-0.1,0.4-0.1,0.6c0-0.1,0.1-0.4,0.1-0.6c0.1,0,0.2-0.1,0.4-0.1c1.9-0.3,1.9,2,4.2,1.5c2.3-0.5,2.7,0.8,1.7,1.9   c-0.9,1.1-1.2,2.2,1.1,2.2s4.8-1.3,5.4,1.2c0.5,2.6,2.3,4.6,3.4,4c1.1-0.5,4.4-2.7,4.4-3.8c0-1.1-0.5-5.5,1.9-4.6   c2.4,0.9,4.6-2.3,6.3-1.5c1.7,0.8,3.6,1.6,5.5-0.1c1.9-1.7,4.1-2.7,5.7-1.4c1.6,1.3,4.6-1.6,6.2-0.5c1.6,1.1,3.6,0.2,3.5-1.3   s-3.6-0.9-1.4-2.7c2.2-1.7,6.5,0.3,9.7-3c3.2-3.3,10.8-11.4,12.7-13.1c1.9-1.7,8.4-6.5,10.9-8.1c1.7-1.1,10.7-6.4,18.2-10.6   c0,0.1,0.2,0.7,1.3,0.9c1.2,0.2,1.2,2,0.4,2.2c-0.9,0.2-0.9,1.1-0.5,2.6c0.4,1.5,1.3,4.9,2.2,6.2c0.9,1.2,2.3,4.5,2.2,6.6   c-0.1,2.1-0.9,1.6,0.3,3.1c1.2,1.5,1.9,5.3-0.3,5c-2.2-0.3-2.8-1.8-3.8-0.6c-1,1.3-0.6,2.6,0.6,4.8c1.2,2.2,5.6,6.2,7.4,12.4   c1.8,6.1,1.4,7.8-0.2,10.9C419.1,238.3,416.7,241,416.5,243z M331.6,323.2c-0.6,0.3-1,0.1-0.6,0.9c0.4,0.8,1.7,1.5,2.1,0.9   c0.4-0.6,0.1-0.9-0.3-1.1C332.4,323.7,332.1,322.9,331.6,323.2L331.6,323.2z M335.4,325.1c-0.1,0-1-0.3-1.1,0.4   c-0.2,0.6,0.3,1.1,0.9,1.1c0.6,0,1-0.2,0.8-0.7C335.7,325.4,335.5,325.1,335.4,325.1L335.4,325.1z" stroke-miterlimit="10" stroke="#FFFFFF"/>
	<path name="盘锦市" fill="#D3D3D3" id="path9" d="M393.8,350.6c-0.1-0.2-0.2-0.4-0.6-0.6c-1.3-0.9-5.8-3.8-6.6-2.1   c-0.7,1.7-1.3,1.6-1,2.9c0.3,1.3,0.1,1.2-1.1,0.3c-1.2-0.9-6.2-5.3-6.3-6.5s-1.5-2.7-2.6-3c-1.2-0.3-3.3-2.4-3.4-3.7   c-0.1-1.3-1-1.3-1.2-0.8c-0.2,0.5-1.3,1.2-1.3,0.2s-0.6-1.8,0-2.1c0.6-0.3,1.6,0.1,1.6-1.4c0-1.5,0-2.2,0.4-2.9   c0.3-0.7,3.4-2.1,1.4-2.1s-1.9-0.2-2-0.9c-0.2-0.7-0.6-8.2-0.6-9.2c0-0.9,0.5-1.4-0.5-1.4s-3-0.5-3-1.2c0-0.7,3.5-3.8,1.8-3.7   c-1.6,0.2-1.7-0.1-2.1,0.9c-0.4,1.1-3.2,1.9-3.1,0.1c0-1.9,1.1-3.6,0.6-4.4c-0.5-0.8-0.4-2.5-1.8-2.6c-1.4-0.1-4.4-0.3-3.2-1.2   c1.2-0.9,2.4-2.1,2.2-2.6c-0.3-0.5-1-0.6-2.3,0.1c-1.3,0.7-2.5,3.3-0.9,4.1c1.6,0.7,4,0.4,4.5,2.4c0.4,1.9-0.8,3.6-1.7,4.6   c-0.9,1-3.7,1.1-3.5,0.3c0.2-0.8,0.8-1.2,1.5-1.8c0.7-0.6,1.1-1.7,0-1.3c-1.1,0.4-1.8,1.4-2,0.5c-0.2-1,1.3-2.1,0.9-2.9   c-0.4-0.9-1.1-2.3-1.7-1c-0.6,1.2-1,1.7-1.7,1.3c-0.8-0.5-1.3-0.6-1,0.4c0.3,1,0.4,1.7-0.1,2.8c-0.5,1-0.8,2-0.8,2.7   c0,0.7-2.1,1.6-2.5,0.5c-0.5-1.1-0.5-1-0.8,0.8c-0.3,1.8,0.6,3.5,2.3,4c1.7,0.5,2.5,2.5,1.1,2c-1.4-0.5-5.7-1.2-3.4-0.2   c2.3,1,4.6,2.1,2.5,2.3c-2.2,0.2-5.4-1.7-5.4-0.7c-0.1,1-0.9,2.6-1.2,1.7c-0.4-0.9-0.9-1.1-0.9,0.1c-0.1,1.2-2.3,3.1-4.4,2.6   c-0.9-0.2-1.5-0.6-1.9-1c1.1-1.5,3.2-4.4,3.9-5.3c1.1-1.3,1.8-2.3,1.7-3.9c-0.1-1.6,1.4-2.2,2.1-4c0.7-1.8-1.1-4-1.1-5.7   c0-1.7,0-2.3,1.4-2.3c1.4,0,1.6-0.5,1.1-1.8c-0.5-1.3,0.1-1.5,1.7-2c1.6-0.5,1.5,1.1,3.8,1.7c2.4,0.6,1.8-1.7,1.8-3.6   c0-1.9-1.5-1.5-2.6-0.7c-1.1,0.7-4.2,0.9-5.7,1.7c-1.5,0.8-3.3-0.1-6.4-2.2c-3-2.1-0.7-6.4-0.3-7.1c0.4-0.8,2.1-1.8,3.4-2.8   c1.3-1-0.7-2.2-1.9-2.2c-1.2,0-1.3-1.2-1.3-2.6c0-1.4,1.3-4,3.5-4.4c2.2-0.4,5.5-2.6,7.1-3.4c1.6-0.8,4.2-2.2,5.5-2.2   s2.4,0.6,3.9-0.5c1.5-1.1,1.5-0.4,3.3,0.4c1.9,0.8,6-3.7,7.4-5.2c1.4-1.5,4.8,0.1,6.6,0.3c1.9,0.2,1.9,0.9,3,0   c1.1-0.8,7.8-5.6,9.1-7.2c1.3-1.6,1.4,0.5,2.7,2.1c1.2,1.6,2.9,6,4.8,7.3c1.9,1.3-0.1,9.2-0.8,11.2c-0.8,2.1-3.5,3.8-4.6,4   c-1.1,0.2,0.9,2.3,2.5,3.7c1.6,1.5,3.5,1.2,6.1,1.2c2.6-0.1,2.1,0.6,3.9,0.7c1.8,0.1,0.5-1.3-0.4-2.5c-0.9-1.2,0.7-1.5,2-1.5   c1.3,0,1.9-0.1,2.3-1.6c0.5-1.4,4.1-2.1,4.9-2.6c0.9-0.5,2.8-0.9,3.6-0.9c0.8,0-2.5,3.1-3.3,3.8c-0.8,0.7-1.4,2.2-1.5,3.1   c-0.1,0.9-0.8,1.8-3.3,1.8s-3.1,4.8-1.6,6.9c1.5,2,1.6,4.7,2,8.2c0.4,3.4,0.3,5.6-0.6,6.3c-0.8,0.7-2.2,2.1-3.2,2.1   c-1,0-1.7,1-2.4,2.1c-0.6,1.1,0,1.8,0.6,2.6c0.6,0.8,1.4,1.4,0.8,2.2c-0.6,0.8-2.9-2-3.5-2.5c-0.6-0.4-1,1.8-0.6,2.2   c0.4,0.4,2,3.1,2.1,3.7c0.1,0.6,0.3,1.6-1.9,1.4c-2.2-0.2-1.1,1.2-1.2,2.6c-0.1,1.5-2.2,0.6-3.5-0.3c-1.3-1-1.7,1.1-1.7,2.6   c0,1.5-2.3,0.9-3.3-1.7c-1.1-2.6-0.6-1.9-1.7-2s0.3,3.9,0.4,4.5c0.1,0.6-0.3,1.1-1.7,0.4c-1.4-0.6-1.7-0.2-2.4,1.3   c-0.6,1.5-0.9,1.2-2.7,2.7c-1.8,1.5,0.6,2.5,2.7,3.3c2,0.9,4.5,3.3,5.8,5.1c1.3,1.7,2.3,1.3,3.3,1.2c1.1-0.1,2.3-0.4,2.4,1.4   C396,349.5,394.5,350.3,393.8,350.6z M350.4,317.5c-0.1,0.3-0.7,0.3,0.1,0.6c0.9,0.3,1.3-0.2,1.1-0.5   C351.3,317.3,350.5,317.2,350.4,317.5L350.4,317.5z M352.3,317.1c-0.3-0.1-0.7,0-0.3,0.6c0.4,0.7,0.7,1.3,0.9,0.4   C353.2,317.2,352.6,317.2,352.3,317.1L352.3,317.1z M352.9,315.3c-0.3,0.4,0.1,0.5,0.7,0.8c0.6,0.3,0.9,0.1,0.8-0.5   C354.3,315,353.2,314.9,352.9,315.3L352.9,315.3z M354.2,311.6c-0.3,0.6-0.5,1.1,0,1.2c0.4,0.1,0.9-0.1,0.9-0.6   S354.5,311,354.2,311.6L354.2,311.6z M355.8,317.9c0.4-0.5,0.7-1.9,0-1.7c-0.7,0.3-1.8,1.3-1.5,1.7   C354.4,318.3,355.4,318.5,355.8,317.9L355.8,317.9z M361.5,326.6c0,0-2-0.7-2-0.1c0,0.6-0.1,1.1,0.7,1.1c0.8,0,1.2-0.2,1.3-0.7   C361.6,326.5,361.5,326.6,361.5,326.6L361.5,326.6z M361.6,323.2c0.1-0.1,0.3-2.1-0.5-1.6c-0.8,0.6-1.1,1.2-0.8,1.9   c0.2,0.8,0.4,1.2,0.9,0.9C361.5,324.2,361.6,323.3,361.6,323.2L361.6,323.2z M361.8,319.7c0-0.3-0.4-1.5-1-0.8   c-0.6,0.7-0.5,1.1-0.2,1.1C361,320.1,361.8,320,361.8,319.7L361.8,319.7z M362.3,315.3c-0.2,0-2.9,1.5-3.5,2.5   c-0.6,1-1.4,2.6-0.5,3.2c0.8,0.6,1.3-0.5,1.3-1.5c0-1,0.6-2,1.2-2.2c0.6-0.2,2.4-1.4,2.1-1.8C362.6,315.2,362.5,315.3,362.3,315.3   L362.3,315.3z M365.9,317.8c-0.3-0.4-0.4-0.8-1.1-0.2c-0.7,0.6-0.4,0.9,0.1,1C365.5,318.7,366.2,318.2,365.9,317.8L365.9,317.8z    M368.3,321.5c0,0-0.8-0.1-0.8,0.9c0,1,0.6,1.8,1,1.3c0.3-0.5,1-1.3,0.9-1.6C369.1,321.7,368.3,321.5,368.3,321.5L368.3,321.5z    M365.1,326.2c0,0,0,0.5,0,0.8c0,0.4,0,0.8,0.7,0.8c0.7,0,0.6-0.7,0.2-1.3C365.7,326,365.1,326.2,365.1,326.2L365.1,326.2z    M364.4,330.4c0,0,0.7-3.6-0.7-3.1c-1.5,0.5-2.6,1-2.6,1.7c0,0.7,1.7,3.1,2.4,3.8c0.7,0.7,0.9,0.4,1-0.3   C364.4,331.7,364.4,330.4,364.4,330.4L364.4,330.4z" stroke-miterlimit="10" stroke="#FFFFFF"/>
	<path name="大连市" fill="#D3D3D3" id="path10" d="M491.7,425.4c0.1,1.3,0.5,3.5,0,4.5c-0.7,1.2-1.8,4.9,1.5,5.4   c3.4,0.5,6,0.8,6.4,2.9c0.4,2.2-0.3,5,0.2,6.7c0.5,1.7,2.2,1.4,2.3,2.9c0,1.4,2.1,2.2,2.5,4.7c-0.5-0.1-1,0.1-1.6,0.3   c-1.2,0.2-4.2,1.7-4.2,3.1c0,1.4,1.1,2.8-1.7,3.1c-2.8,0.2-4.1,0.7-3.3-1.1c0.7-1.8,1.2-2.5,0.6-3.1c-0.6-0.6-0.6-2.3-0.6-2.3   s1-2.8-0.5-1.4c-1.5,1.5-1.8,0.2-2.1,2.2c-0.2,2-1.7,1.7-2.9,0.7c-1.2-1-2.6-0.6-3.8-0.6c-1.2,0-2.1,0.2-2.1-1.1   c0-1.4-0.7-2.3-1.1-1.8c-0.4,0.5-0.8,1.2-1.6,0.6c-0.8-0.6,0,0.6,0.7,1.2c0.7,0.6,2.8,4.8,0.3,4.9s-1.9,0.8-2.7,1.7   c-0.8,0.9-1.9,2.3,0.3,1.3c2.2-1.1,2.7-1.1,3.1,0.6c0.4,1.6,1.7,5.1-0.9,3.7c-2.6-1.4-3,0.2-3.1,1.2c-0.1,1-0.7,0.6-1.5,0.6   c-0.8,0-1.1-1.2-2.3,0.8c-1.2,2-2.4,3.3-2.4,1.8c0-1.5-2-4-2.6-4.2c-0.6-0.2-0.8,0.5-0.8,1.5c0,1.1-0.6,1.7-2.7,1.1   c-2.1-0.6-3-1-3.4-0.4c-0.4,0.6-1.3,0.6-1.3-0.2c0-0.8-0.9-0.7-1.7-0.2c-0.8,0.6-3.2,2-1.5,2.6c1.7,0.6,3.1,0.6,2,1.5   c-1.1,0.9-2.8,0.2-2.8,1.6c-0.1,1.4-0.1,0.6-2.5,0.2c-2.4-0.3-3.5-0.8-4.7,0.4c-1.2,1.3-2.1,2.7-2.2,1c-0.1-1.6-0.9-2-1.4-1.2   c-0.5,0.8,0.7,3.4-1.6,3.7c-2.3,0.3-3.2,0.1-3.2,1.5s-0.1,0.1-1.3,1.4c-1.2,1.3-3.4,2.4-3.7,1.5c-0.3-0.9-1.2-1-1.4,0.1   c-0.2,1.2-0.3,2.3-1.7,3c-1.4,0.7-2.4,1.3-2.4,0.3c0-1-0.6-2.1-1.2-1.5c-0.6,0.6-1.7,1.3-1.6,2.6c0.1,1.2,0.4,2.7-0.4,3.7   c-0.9,1-1.3,0-2.1,1c-0.8,1.1-2.4,1.3-2.7,0.9c-0.3-0.4-0.9-2.6-1.2-1.1c-0.3,1.5-2.8,3.7-3.7,3.9c-0.9,0.2-3.4,0.3-3.7,1.6   c-0.3,1.2-1.8,1.2-4.1,1.2c-2.3-0.1-4.2-0.3-5.2,1.1c-1,1.4-5.1,4.6-6,5.2c-0.9,0.6-1.2,0.4-1.6,1.7c-0.4,1.2-1.2,2.8-2.4,2.7   c-1.2,0-2.4-2.5-2.6-1.7c-0.2,0.8-1,3.1,0.2,3.1s2.4,0.4,1.9,1.6c-0.5,1.2-0.6,2.4-2.3,2.5c-1.7,0.1-3.7,0.7-3.7,1.3   c0,0.6-0.1,2-1.4,1.9c-1.2-0.1-2.4-0.6-2.8,1.1c-0.4,1.7-0.5,2.5-1.2,2.6c-0.7,0.1-0.7,1.7-0.7,2.3c0,0.7-1.4,1.8-2.5,1.3   c-1.1-0.4-0.8-2.3-2.7-2.2c-1.9,0.1-1,1-0.1,2.1c0.8,1,1.4,2.1,2.5,1.9c1.1-0.2,1.5,1.2,3.4,1.1c1.9-0.1,4,0.8,2.3,1.2   c-1.8,0.4-3.3,1.1-4.5,2.2c-1.2,1.1-2.9,2.9-3.7,1.7c-0.9-1.2-1.9-3.3-2.2-2.4c-0.3,0.9-0.4,3.7,0.4,4.9c0.8,1.2,3.1,2,1.7,2.7   c-1.5,0.7-3.8-1.8-4.9-1.2c-1.1,0.6-2.6,1.1-3.2,3c-0.6,1.9-2,3-3.1,0.9c-1.1-2.1-2.5-3.5-3.3-3.3c-0.8,0.2-0.6,2.6,0.7,3.7   c1.3,1.1,1.6,2.3,0.1,2.3c-1.5-0.1-1.8-1.1-1.8-2.2c0.1-1.1-1.3-1.6-2.2-1.5c-0.9,0.1-5.6-0.2-3.2,2.9c2.5,3,2.5,1.6,3.3,2.5   c0.8,0.8,4.2,5.1,2.7,6.3c-1.5,1.1-4.8,1.4-5.1-0.4c-0.4-1.8-0.4-1.1-1.3-1.9c-0.9-0.7-2.7-3.4-2.7-4.8c0-1.4-0.4-1.4-1.5-2   c-1-0.6-7.4-3.6-6.4-1.5c1,2.1,4.5,3.5,2.8,4.3c-1.7,0.8-3.4,0-3.4-0.9c0-0.9-0.5-0.7-1.6-0.7c-1,0-1.2-1.9-1.9-1.3   c-0.7,0.5-3.1,3.1-1.9,3.6c1.2,0.4,3.9,0.5,2.5,1.7c-1.4,1.2-2.5,2.2-4,2.2s-4.1,1.2-2.2,1.9c1.9,0.7,3.9-0.1,5.5,1.2   c1.6,1.3,6,3.4,4.1,5.6c-1.9,2.2-4.4,1.5-5.9,2.4c-1.6,0.9-3.9-2.6-4.3-2c-0.4,0.6-2.2-0.4-3.8,1.7c-1.6,2.1-5.4,3.2-4.2,4.1   c1.2,0.9,2.1,2.1,0.5,1.6c-1.6-0.5-3.3-1.3-5.6-0.2c-2.3,1.1-10-1.6-10.7-0.7c-0.8,0.9-4.4,3.8-5.6,3c-1.2-0.8-2.8-2.4-3.5-0.8   c-0.7,1.6-1.7,3.3,0.3,2.1c2-1.2,2.7-0.6,2,0.3c-0.8,0.9-1.3,0-2.4,2.7c-1,2.7-3.2,3.4-5.4,3.5c-2.2,0.1-2.8,1-2.7-0.9   c0.2-1.9,0.1-2.8-1.1-3.8c-1.2-0.9-2.5-1.7-1.2-2.2c1.2-0.5,2-0.8,2.7-0.8c0.7,0,0.8-0.9,0.1-1.7c-0.7-0.8-2.4-0.1-2-1.8   c0.4-1.7,0.2-2.6,0.2-3.5c0-0.9-0.9-1,0.4-2.1c1.3-1,3-2.7,1.7-2.7c-1.3,0-7.4-1.4-4.1-3.6c3.3-2.2,3.8-5,7.5-2.8   c3.7,2.2,4.1,1.1,6,0c1.9-1.1,4.5-2.1,6.2-2.1c1.7,0,4.6-1.7,2.8-3.1c-1.7-1.4-4.8-2-2.8-2.5c2-0.5,2.9-4,5-4.1   c2.1-0.1,2.8-1.1,3.3,1.2c0.5,2.3,1.9,3.3,4.3,2.9c2.4-0.4,2.3-1.4,3.4-1.1c1,0.3,1.3-0.7,2.4-1s8.3-3.4,11.6-4.6   c3.3-1.2,4.5-4.2,4.5-4.2s-1.1-1-2.6-2c-1.5-0.9-3.6-2.5-3.2-3.4c0.4-0.9,1.7-2.8,0-2c-1.7,0.7-3.3,0.1-3.3-0.6   c-0.1-0.7-0.6-1.6,0.5-1.6c1.1,0,1.4-0.4,0.6-1.1c-0.7-0.7-1.4-1.4,0.1-1.4c1.4,0.1,3.8-1.6,1.6-2.5c-2.2-0.9-2-1.9-2.9-1.8   c-0.9,0.1-0.8-1.1,0.4-1.4c1.2-0.3,2.8-0.6,5.3-0.6c2.5,0,1.3-2.2,5.1-2.4c3.8-0.2,2.5-1.4,2-2c-0.5-0.6-3-2.4-1.1-2.3   c2,0.1,1.8-0.2,1.8-1.2c0-1,0.2-1.1,1.1-1.1c0.9,0,0.1-1.9,1.3-1.6c1.2,0.3,1.8,0.1,3.7,0.5c2,0.4,4,0.3,4.9-0.6   c0.9-1,0.1-1.7,2.7-1.7c2.6,0,5-0.4,3.5-2.4c-1.5-2-2.8-3.4-3.7-2.7c-0.9,0.7-0.5,0.6,0.2,1c0.7,0.4,3.3,1.7,1.2,2.1   c-2.2,0.4-3.6-0.4-5.1,0.6c-1.5,1-5.2,0.5-6.1,1.1c-0.9,0.6-3.1,0.5-5-1.4c-1.9-1.9-3.6-2.3-2.6-0.4c1,1.9,2.2,2.5,1,3.2   c-1.2,0.7-6.4,1-7.7,0.3c-1.4-0.8-2.4-0.4-3.6-0.2c-1.2,0.2-2.4-0.8-2.9,0.2c-0.5,0.9-1.9,0.3-2.8-0.8c-0.9-1.1-3.5-3.7-3.5-6.2   c0-2.5-0.2-4.1-0.5-5.2c-0.3-1-2.1-2.9-1.3-3.6c0.8-0.7,3-0.5,4.4-0.6c1.4-0.1,2.6-2.9,3-4.5c0.4-1.7,1.7-5.5,2.9-5.5   s2.3-0.7,1.3-1.1c-1-0.4-2.5,0.7-2.7-1.1c-0.2-1.8-0.7-2.6-1.5-2.9c-0.8-0.4,0-1,0.8-1.3c0.8-0.3,3-2.7-0.6-4.4   c-3.6-1.7-6.1-4.2-5.1-6.2c1.1-2.1,2.9-2.3,2.1-3.4c-0.8-1-2.5-2-1.5-3c1-1,1.1-1.8,2.3-3c1.2-1.2,1.7-1.1,2.1-2.1   c0.4-1,1.5-2.6,2.5-1.9c1,0.7,6,0.3,6.4-0.7c0.4-1,0.5-3.1,1.2-3.1s0.7,0,1.8-1.1c1.1-1.1,4.2-3,4.8-1.9s1.2,1.1,2.6,1.1   c1.3,0,4.1-0.3,4.4-2c0.3-1.7,0.4-3.8,1.9-3.4c1.5,0.4,3.1-1,4-2c0.9-1,3.3-3,0.7-3c-2.6,0-4.9-2-2.8-2.2c2.1-0.2,3.4,0.2,4.6-1.7   c1.2-1.9,4.1-2.7,4.4-4.1c0.3-1.4,0.1-1.3,1-2.3c0.9-1,0.6-2.4,2.4-2.4c0.1,0,0.3,0,0.4,0c1.4,0.9,1.5,3.6,1.5,6   c0,2.6,2.4,1.5,3.3,0.7c0.9-0.8,1.7-2.3,2.8-1.1c1.1,1.1,2.2,0.7,3.3,1.1c1.1,0.5,3.3,1.1,5,1.5c1.7,0.3,1.5,1.3,2.4,2.6   c0.9,1.4,2.3,2.4,4.7,1.3c2.4-1.1,1.6,0.8,2.7,3.6c1.1,2.8,1.9,1.9,2.6,1.4c0.7-0.6,2.3-1.6,3.3-0.6c1,1,2.2,1.1,5.2,0.7   c3.1-0.5,7.2,3.5,8.5,4.2c1.4,0.7,3,0.9,5-0.2c2-1.1,0.1-4.9-1.1-5.9c-1.2-1-1.2-1.7-0.1-3.4c1.1-1.7,0-4.2,0.2-5.2   c0.2-1,5.7,1.8,6.9,0.8c1.2-1,1.9-0.6,4.1-0.3c2.2,0.2,4.3-1.8,6-3.8c1.7-1.9,4.9-1.3,7.3-2c2.4-0.8,2.3-2.3,2.5-4.3   c0.2-2,2.9-5.8,5.5-5.8c2.6,0,1.3,4.6,4.6,5.9c3.3,1.3,3.4,3.3,4.6,4.7c1.2,1.4,3.5,0.5,5.5,0.6c2,0.1,5.4-1.6,7.2-2.3   c1.8-0.7,3.5,0.9,5.4,4.5c1.9,3.6,1.2,6.5,2.4,6.3c1.2-0.2,3.5-0.2,5.6,0.1C488.9,426.8,490.9,425.8,491.7,425.4z M319.3,473.7   c-0.7,0.1-10.1,0.1-10.1,0.7c0,0.6-0.6,1.9-1.8,2.7c-1.2,0.8-2.3,1.1-2.3,2.1c0,1,0.3,1.6-1.2,1.6c-1.5,0-1.5-0.3-1.5,1.5   c0,1.8,3.1,2.7,3.7,2.6c0.6-0.1,2.6-0.4,2.6,0.5c0,1,0.9,1.2,2.7-0.3c1.8-1.5,3.8-4,6-2.8c2.2,1.2,2.2,3.3,3.9,2.2   c1.7-1.1,0.5-2.1,2.6-2.3c2.1-0.2,2.1-2.2,3.4-2.1c1.3,0.1,2.7-2.5,2.9-3.5c0.2-1.1,0.1-4.3-1.2-4.8c-1.3-0.4-2.5-1.6-3-2.6   c-0.4-1-0.7-1.3-1-0.7c-0.3,0.6-1.3,0.8-1.9,0.8c-0.6,0-0.1,0.7,0.4,1.1c0.4,0.3,0.5,1.7-1.2,1.9c-1.7,0.2-1.6-1.1-2.1-0.5   C319.7,472.5,320,473.5,319.3,473.7L319.3,473.7z M306.7,492.8c0,0,0.3,2.4-0.7,1.9c-0.9-0.5-1.9-0.5-1.9,0.2s0.9,0.5,0.9,1.5   c-0.1,1.1-0.5,2.9,0.6,2.9c1.2,0.1,2.1-0.1,2.5-1.3c0.4-1.2,0.2-2.6,1.1-3.2c0.9-0.6,2.9-2.4,4.5-2.4c1.6,0,4.2-0.1,2.3,1.7   c-1.9,1.8-5.5,6.1-3.7,6.1c1.9,0,3.1-0.2,4,0.7c0.9,0.9,4,1.7,4.2-0.9c0.3-2.6,1.2-3.9,0.1-5.1c-1.1-1.1-2.6-2.4-1.3-2.4   c1.4,0,4.2,0.4,2.3-1.5c-1.9-1.9-3.7-4.2-6-3.4c-2.3,0.8-2.4-1-3.3-0.5c-0.8,0.5-1.4-0.2-1.4,1.4s-0.4,2.5-1.9,2.9   c-1.5,0.4-2.5,0-2.5,0.5C306.8,492.4,306.7,492.8,306.7,492.8L306.7,492.8z M296.6,532.8c-0.1,0-1.1,0.4-1,0.7   c0.1,0.3,0.3,0.9,0.8,0.8c0.5-0.1,1-0.4,1-1C297.3,532.7,296.6,532.8,296.6,532.8L296.6,532.8z M279.1,545.4c0.1,0-2.3,1.3-1.2,2.5   c1,1.2,2.2,1.1,2.9,0.1c0.7-1,0.6-1.3,0-1.8C280.2,545.7,279,545.4,279.1,545.4L279.1,545.4z M405.1,522.7c0,0-0.6-0.4,0.2-1.2   c0.8-0.8,0.6-1.9,0.1-1.9c-0.5,0-0.9,0.3-1.3,0.8c-0.3,0.5-0.6,1-1.6,1c-1,0-1.5-0.3-1.7,0.4c-0.3,0.7-0.9,1.5-1.9,1.4   c-1-0.1-1.2,1-1.2,2c0,1,0,2.8,2,2.6c2-0.2,2.7-0.7,3.4-1.6c0.7-1,0-0.9,1.5-0.3c1.6,0.5,2.3,0.4,2.1-0.7   C406.6,524.1,405.1,522.7,405.1,522.7L405.1,522.7z M410.1,515.9c0,0,0.6-1.8-0.7-1.7c-1.3,0.1-2.4,0.6-2.3,1.8   c0.1,1.1,0.3,3.2,1.5,3.3c1.3,0.1,2.3-0.4,1.8-1.2C410,517.2,410.1,515.9,410.1,515.9L410.1,515.9z M424.4,518.5   c-0.9-0.2-2.3,1.1-2,1.9c0.3,0.8,1.1,0.7,1.9-0.1C425.1,519.4,425.3,518.7,424.4,518.5L424.4,518.5z M416.5,517.4   c-0.9,0.5-2,0.9-0.7,1.3c1.3,0.4,3.9,0.5,3.9-0.4C419.7,517.4,417.4,516.9,416.5,517.4L416.5,517.4z M423.6,514.7   c0,0,1.8-1.8,2.7-1c0.9,0.8,4.1,1.5,4.6,0.3c0.4-1.2-3-1.1-3.4-1.6c-0.5-0.6-0.7-0.4-1.5,0.1c-0.8,0.6-2.5,0.1-3.2-0.8   c-0.6-0.9-3.4-1.5-3.9-0.9c-0.5,0.6-0.4,0.6,0.5,1.9c0.8,1.3,2.6,2.6,3,2.6C422.8,515.3,423.6,514.7,423.6,514.7L423.6,514.7z    M429.2,516.1c-0.4,0-3.4,1.4-1.9,1.8c1.5,0.4,5.1-0.1,5.1,1c0,1.1,0.6,1.6,1.8,0.6c1.2-1.1,3.9-1.1,2.7-2.2   C435.6,516.1,429.6,516.1,429.2,516.1L429.2,516.1z M438.6,543.3c-0.6-0.3-1.5-2.3-2.3-2.5c-0.8-0.1-2-3-2.5-2.2   c-0.6,0.8-0.7,1.8-0.1,2.9c0.6,1,3,5.5,4.1,4.4C438.8,544.6,439.1,543.5,438.6,543.3L438.6,543.3z M440.9,535.9   c0.2,0,2.3,0.9,2.2,0c0-0.9-1.7-1.7-2.3-1.7s-2.4,0.1-2,0.9C439.3,535.9,440.6,535.9,440.9,535.9L440.9,535.9z M444.5,537.6   c0,0-3.2,1.4-1.5,1.6c1.7,0.2,2.2-0.8,2.4-1.4C445.5,537.2,444.5,537.6,444.5,537.6L444.5,537.6z M448,537c0,0-1.8-1-1.2,0.6   c0.6,1.6,1.5,1.1,1.7,0.2C448.8,536.8,448,537,448,537L448,537z M473.6,533c0,0-0.5,0.2-1.2,0c-0.7-0.2-0.5,0.1-0.5,1.1   c0,1,1.3,1.4,1.8,1.8c0.5,0.4-0.9,0.7-1.6,0.7c-0.6,0.1,0.6,1.6,1.3,2.6c0.8,1,0.9,0.3,1.6-0.4c0.7-0.7,1.3-1.4,1.6-2.4   c0.3-1-0.9-2.1-1.8-2.6c-0.9-0.4,0-1.5-0.4-2.2C474,531,473.6,533,473.6,533L473.6,533z M460.4,509.1c0,0-3.7,1.3-2.8,1.6   c0.9,0.3,2.5,0.5,3-0.1c0.5-0.6,1-1.5,0.5-1.5C460.6,509.1,460.4,509.1,460.4,509.1L460.4,509.1z M466,492.7c0,0-1.4-0.7-1.1,0.5   c0.3,1.3-0.1,1.5,1.2,1.5c1.3,0,2.1-0.4,2-0.9c-0.1-0.5-0.5-0.6-1-0.8C466.6,492.9,466,492.7,466,492.7L466,492.7z M464.5,486.1   c0,0.1-0.6,1.4,0,2c0.5,0.5,1.1,0.7,1.1-0.3c0-1,0.1-1.7-0.4-1.7C464.7,486,464.6,485.9,464.5,486.1L464.5,486.1z M459.3,481   c-0.6,0.7-0.7,2.7-1.2,1.2c-0.5-1.5-1.7-2-2.3-1.5s-0.9,2.8-0.3,4c0.6,1.2,1.3,3.1,2.9,2.6c1.6-0.5,4.5-4.1,4.1-4.8   C462,481.8,459.9,480.3,459.3,481L459.3,481z" stroke-miterlimit="10" stroke="#FFFFFF"/>
	<path name="沈阳市" fill="#D3D3D3" id="path11" d="M520.6,251.7c-2.1-0.1-0.6-3.9,1.9-5c2.6-1.2,0-2.7-0.6-5.2   c-0.6-2.4,1.9-6.6,3.2-9.8c1.3-3.2-1.5-4.5-1.5-7.1c0-2.6-1.4-1.8-2.1-1c-0.6,0.8-2.4,2.2-4.6,1.3c-2.2-0.9-1.4-4.8-0.4-5.9   c1-1.2,3.4-4,2.2-5c-1.3-1.1-1.8-4.3-2-6c-0.1-1.8,1.1-4.8,4.3-7.6c3.2-2.7,0.7-2.3-0.8-3.2c-1.5-0.8-0.5-2.8,0.8-3.4   c1.3-0.6,1.5-1.7,0.1-2.7c-1.4-1.1-0.7-1.8-1.9-2.7c-1.2-0.9-2.7-1.4-4.9-1.3c-2.3,0.1-8.4-4.9-10.1-5.6c-1.6-0.7-2.3-0.3-2.5-3.7   c-0.2-3.4-2.5-1.3-3.2-2.6s-0.1-4.5-0.6-6.6c-0.5-2.1,0.3-5.3,1.8-7.8c1.5-2.5-0.5-5.7-1.6-6.9c-1.2-1.2-1.1-2.5-0.1-4   c1-1.5-0.3-1.9-0.8-3.7c-0.5-1.9,1.3-5,2-5.9s5.1-1.9,8-2.6c2.9-0.8,2.3-2,2.6-4.1c0.3-2.1,3.2-0.9,4.9-0.9c1.7,0,3.2-0.5,4.4-1.5   c1.2-1.1-0.6-1.5-1.4-1.2c-0.8,0.4-1.8,0.7-1.8-0.2s0.4-2.1-1.4-1.9c-1.8,0.1-1.8-1.5-0.4-2.7c1.4-1.2-1.3-1.9-2.7-3   c-1.4-1-1-1.9-3.5-1.7c-2.4,0.3-2.8-3.9-2.8-6.4c0-2.6,0.9-3.9,2.6-4.4c1.7-0.5,1.3-5-0.1-6.2c-1.4-1.2-1.2-1.4-0.3-3.1   c0.9-1.7,0.6-5.5,0.6-7.7c0-2.2,0.8-4.4-1.4-4.2c-2.2,0.1-1.8-3.1-2.8-4c-1-0.9-0.3-2.2-1.2-2.7c-0.6-0.4-0.7-2.4-0.6-3.6   c-1.1-0.4-2.2-0.9-3-1.1c-2.3-0.5-14.6,5.2-16.5,6c-2,0.8-3.4,2.9-4.8,5c-1.4,2.1-2.2,4.3-2.2,7c0,2.7,1.4,3.6,2.8,4.6   c1.4,1,1.6,1.3,1,2.4c-0.6,1.1-5.7,2.1-8.1,2.3c-2.4,0.3-4.5,4.2-8.1,4.9c-3.6,0.7-6.3-0.9-9.1-1.7c-2.8-0.8-3.5,1.7-4.4,3.5   c-0.9,1.8-0.3,3-2.1,4c-0.5,0.3-1.1,0.1-1.7-0.3c-1.2,0.5-3.1,1.3-4.5,2.1c-2.2,1.1-0.6,2.2,0.8,2.2c1.4,0,1.9,0.2,1.9,2.2   c0,2.1,2.7,3.2,4.4,5.4c1.7,2.2,3,3.3,6.3,4.1c3.3,0.8-0.2,3.3-1.9,6.2c-1.7,2.8-4.7,2.8-7.8,4.1c-3,1.3-2.2,8.1,0.9,9.5   c3.2,1.4,3.8,3.5,3.5,6.6c-0.3,3.2-24,16.5-30.2,19.6c-1.9,1-5,2.7-8.4,4.6c0,0.1,0.2,0.7,1.3,0.9c1.2,0.2,1.2,2,0.4,2.2   c-0.9,0.2-0.9,1.1-0.5,2.6c0.4,1.5,1.3,4.9,2.2,6.2c0.9,1.2,2.3,4.5,2.2,6.6c-0.1,2.1-0.9,1.6,0.3,3.1c1.2,1.5,1.9,5.3-0.3,5   c-2.2-0.3-2.8-1.8-3.8-0.6c-1,1.3-0.6,2.6,0.6,4.8c1.2,2.2,5.6,6.2,7.4,12.4c1.8,6.1,1.4,7.8-0.2,10.9c-1.5,3.1-3.9,5.8-4.1,7.8   c-0.2,1.7-1.1,5.5-1.3,6.4c3,0.6,5.4,1.4,7.1,2.5c2.3,1.5,3.4,1.6,5.3,1.2c1.9-0.3,1.4,0.2,1.4,2.5c0,2.3-2.9,4.1-1.2,5.9   c1.7,1.8,1.5,2.7,1.5,4.3s-0.1,2.3,0.8,3c0.9,0.8,0.6,2,0.1,3.2c-0.4,1.1,0,3.1-2.1,3.7c-2,0.6-2.3,0.8-1.8,2.7   c0.5,1.9,0.4,2.3-0.5,4.3c-1,2-2.9,4.3-1.4,4c1.5-0.4,2.6-0.8,2.7,0.8c0.1,0.7,0.3,1.3,0.5,1.8c0.7-0.2,1.9-0.4,2.9-0.4   c1.5-0.1,1-2.1,0.8-4c-0.2-1.8,2.3-1.8,2.7-3.4c0.4-1.6,0.1-2.5,1.8-3.6c1.7-1.1,2.3-1.3,2.4-3.9c0.1-2.6,2.5-1.3,2.8-2.2   c0.3-0.9,1.2-0.9,3.6-0.8c2.4,0.1,1.4-1.6,1.4-1.6s-1.9-2.6,0.7-3.1c2.5-0.4,3.2-2.2,5-3.3c1.9-1.1,4.5-5.9,4.8-7.2   c0.3-1.3,2.1-0.9,3.9-1c1.9-0.1,4.8-4.6,5.4-7.4c0.5-2.8,1.4-3.2,3-3.2c1.5,0,1.7,5.9,2.4,7.2c0.7,1.3,4.6-1.6,5.4-2.3   c0.8-0.7,4.7,2.1,6.7,3.5c2,1.4,2.3,2.4,5,2c2.7-0.4,6,2.9,6.9,4.1c0.9,1.2,3.1,0.7,5-0.8c1.9-1.4,3.4-1.1,5.1-0.8   c1.7,0.3,1.4-1.3,3.2-0.2c0.3,0.2,0.5,0.3,0.6,0.5c0.1-3.8,1.9-2.2,2.8-3.4c0.9-1.2,4.6-0.8,6.1-0.3c1.5,0.5,4.5-1.5,5.6-2.2   c0.2-0.1,0.4-0.2,0.6-0.3C523.4,250.2,522.6,251.8,520.6,251.7z" stroke-miterlimit="10" stroke="#FFFFFF"/>
	<path name="铁岭市" fill="#D3D3D3" id="path12" d="M528.3,195.1c1.5,0,1.7-0.9,4.6-1.3c2.9-0.4,4.6,1.9,6.5,2.8   c1.9,0.8,3.9-2.6,4.4-4.9c0.6-2.3,6-3.1,7.7-3.8c1.8-0.6,3-0.8,5.1,1c2,1.8,3.2-0.4,5.6-0.3c2.4,0.1,3.1,3.8,3.9,5.5   c0.7,1.8,2.9,0,4.7-1.4c1.8-1.4,3.5-1.1,5.7-1.1c2.2,0,2.5-1.3,3.9-2.7c1.4-1.4,3.3-2.9,4.7-2.9c1.4-0.1,3.6-1.4,3.4-3.1   c-0.2-1.7,0.3-2.4,1.4-3.7c1.1-1.3,0.2-2.8-1.2-3.9c-1.4-1.1-1.7-2.6-2.2-4.9c-0.5-2.2-0.7-4.5,1.2-5.7c1.9-1.2,2.3-3.7,2.3-5.6   c0-1.9-0.3-2.7,0.5-3.2c0.8-0.5,2-0.8,3.3,0.7c1.3,1.5,3.6,2,5.6,2.3c2,0.3,6.5-0.4,7.8-2.2c1.3-1.8,1.8-2.7,1.1-4   c-0.7-1.3-1.5-2.3-0.7-3.9c0.9-1.6,7-0.3,9.5,0.1c2.5,0.4,4.6,1.2,8.3,2.3c3.7,1.2,5.3-2.6,5.3-3.5c0-1-0.5-3.5,0.8-3.6   c0.9-0.1,3.3-3.7,4.4-5.6c-0.2-0.1-0.4-0.2-0.6-0.3c-3.5-1.4-1.7-6.2-0.9-10.9c0.8-4.6-1.4-3.9-2.3-3.9c-1,0-4.3,0.2-4.7-2   c-0.4-2.1-0.5-2-1.5-3.6c-1-1.5-1.6-0.6-1-5.8c0.6-5.2,0.3-6.7-1.9-9.1c-2.2-2.3-2.4-2-5.6,0.6c-3.3,2.5-4.3-5-4.3-9.2   c0-4.2-0.9-11-0.2-12.4c0.6-1.4-1.8-4.5,0.1-8c1.9-3.5,1.2-2.9,1.2-6.8s-5-1.9-6.3,0.6c-1.3,2.5-6.8,5.6-8,6   c-1.2,0.4-0.8,2.9-0.8,4.2c0,1.3-0.4,2.9-1.9,4c-1.5,1.1-4.3,4.5-4.9,6.6c-0.6,2.1-5.1,6.4-7.1,6.4c-2,0-1.8,0.5-2.3,3.4   c-0.5,2.9-2,1-2.6-0.9c-0.6-1.9-0.5-1.9-3.3-2.7c-2.8-0.8-3.1-0.6-3.5-3c-0.5-2.3,1.8-1.7,4.4-4.8c2.6-3.1-3-3.8-6.2-5.1   c-3.2-1.3,1.9-5.7,4.6-7.9c2.7-2.3-4.4-8.3-6.4-9.5c-2-1.2-4.4-4.7-4.6-6.8c-0.1-2.1-1.3-2-2.8-3.3c-1.5-1.2-5.1-2.3-7.8-2.3   c-2.7,0-3.1-0.7-3.7-3.6c-0.6-2.8-1-2-4.3-1.7c-3.2,0.3-5.5-1.9-6.6-4.2c-1.1-2.3-3.1-2.4-4.3-3.3c-1.3-0.9-5.3-3.1-5.3-7.6   c0-4.5,0-1.7-1.8-4.5c-1.8-2.8-3.5-2.3-6-2.1c-2.4,0.2-2,2.7-2.2,4.1c-0.2,1.4,0,3.1-2.4,3.6c-2.4,0.5-2.1,2.9-1.8,3.7   c0.3,0.8-0.3,3.1,0.1,3.9c0.5,0.8,0.8,1.4,0.5,2.4c-0.4,1,0,1.2,0.7,2.1c0.7,0.8-1.6,3.8-2.9,5.6c-1.3,1.8-0.9,2.4-0.9,3.4   c0,1-0.1,2.2-0.5,2.6c-0.4,0.5-0.2,1,0.1,2c0.3,1-0.3,2.3-0.8,2.9c-0.5,0.6-1.1,1.2-0.6,3.1c0.5,1.9-1.6,7.6-3.9,11.9   c-1.5,2.9-4.1,2.3-6.4,1.5c0,1.2,0,3.2,0.6,3.6c0.9,0.5,0.1,1.8,1.2,2.7c1,0.9,0.6,4.1,2.8,4c2.2-0.1,1.4,2.1,1.4,4.2   c0,2.2,0.3,6.1-0.6,7.7c-0.9,1.7-1.2,1.9,0.3,3.1c1.4,1.2,1.8,5.7,0.1,6.2c-1.7,0.5-2.6,1.8-2.6,4.4c0,2.6,0.4,6.7,2.8,6.4   c2.4-0.3,2.1,0.6,3.5,1.7c1.4,1,4.1,1.8,2.7,3c-1.4,1.2-1.4,2.8,0.4,2.7c1.8-0.1,1.4,1,1.4,1.9s1,0.6,1.8,0.2   c0.8-0.4,2.6,0.1,1.4,1.2c-1.2,1.1-2.7,1.5-4.4,1.5c-1.7,0-4.6-1.2-4.9,0.9c-0.3,2.1,0.3,3.3-2.6,4.1c-2.9,0.8-7.3,1.7-8,2.6   s-2.5,4.1-2,5.9c0.5,1.9,1.8,2.2,0.8,3.7c-1,1.5-1.1,2.8,0.1,4c1.2,1.2,3.2,4.3,1.6,6.9c-1.5,2.5-2.3,5.7-1.8,7.8   c0.5,2.1-0.1,5.3,0.6,6.6s2.9-0.8,3.2,2.6c0.2,3.4,0.9,3,2.5,3.7c1.6,0.7,7.8,5.6,10.1,5.6c2.3-0.1,3.8,0.4,4.9,1.3   c1.2,0.9,0.5,1.7,1.9,2.7c1.4,1.1,1.1,2.1-0.1,2.7c-1.3,0.6-2.2,2.6-0.8,3.4c1.1,0.6,2.6,0.6,2.2,1.5   C523.6,198.7,527,195.1,528.3,195.1z" stroke-miterlimit="10" stroke="#FFFFFF"/>
	<path name="抚顺市" fill="#D3D3D3" id="path13" d="M669,242.2c-1.3-2.1-1-4.6-0.4-7.2c0.5-2.6-0.4-1.9-2.5-3.5   c-2.1-1.6-2.9-1.1-5.5-0.4c-2.7,0.7-3,1.3-3.8-0.1c-0.8-1.4-0.8-2.6-0.1-5.6c0.7-3-1-6-2.9-7.6c-1.9-1.6-0.9-10.2-0.9-12.2   c0-2,0.5-1.8,2.5-2.7c2-0.9,1.1-2.7-0.7-3.8c-1.8-1.1,4.6-6.8,6.3-8.7c1.6-1.9,2.1-3.7,2-5.2c-0.1-1.4-0.1-3.5,2.1-3.5   c2.2,0.1,2.6-0.6,3.5-3.2c0.9-2.6-3.4-3.2-6.8-3.6c-3.5-0.5-2.8-0.3-5.1,2.6c-2.3,2.9-2.3-2.1-2.3-5c0-2.9-0.8-2.6-2.1-2.6   c-1.3,0-1.7-1.6-0.7-3c1.1-1.3,0.9-5.3,0.4-7.2c-0.5-1.9-5-2.6-7.8-2.3c-2.8,0.3-2.1-2.9-1.4-5c0.7-2.1,0.6-3.5,0.2-6.4   c-0.4-2.9-1.9-2.7-3.2-4.7c-1.2-1.9-0.9-1.9-3.6-3.1c-1.2,1.9-3.5,5.6-4.4,5.6c-1.2,0.1-0.8,2.7-0.8,3.6c0,1-1.5,4.7-5.3,3.5   c-3.7-1.1-5.8-1.9-8.3-2.3c-2.5-0.4-8.6-1.7-9.5-0.1c-0.9,1.6,0,2.6,0.7,3.9c0.7,1.3,0.2,2.2-1.1,4c-1.3,1.8-5.8,2.5-7.8,2.2   c-2-0.3-4.3-0.9-5.6-2.3c-1.3-1.5-2.6-1.2-3.3-0.7c-0.8,0.5-0.5,1.3-0.5,3.2c0,1.9-0.3,4.3-2.3,5.6c-1.9,1.2-1.7,3.5-1.2,5.7   c0.5,2.2,0.8,3.8,2.2,4.9c1.4,1.1,2.3,2.6,1.2,3.9c-1.1,1.3-1.6,2-1.4,3.7c0.2,1.7-2.1,3-3.4,3.1c-1.4,0.1-3.3,1.6-4.7,2.9   c-1.4,1.4-1.7,2.7-3.9,2.7c-2.2,0-3.9-0.3-5.7,1.1c-1.8,1.4-4,3.1-4.7,1.4c-0.7-1.7-1.5-5.4-3.9-5.5c-2.4-0.1-3.6,2.1-5.6,0.3   c-2-1.8-3.3-1.7-5.1-1c-1.8,0.6-7.2,1.5-7.7,3.8c-0.6,2.3-2.5,5.7-4.4,4.9c-1.9-0.8-3.6-3.1-6.5-2.8c-2.9,0.4-3.1,1.3-4.6,1.3   c-1.3,0-4.7,3.6-5.9,3.6c-0.2,0.4-0.6,0.9-1.5,1.6c-3.1,2.7-4.4,5.8-4.3,7.6c0.1,1.8,0.7,5,2,6c1.3,1.1-1.1,3.9-2.2,5   c-1,1.2-1.8,5,0.4,5.9c2.2,0.9,4-0.5,4.6-1.3c0.6-0.8,2.1-1.5,2.1,1c0,2.6,2.8,3.9,1.5,7.1c-1.3,3.2-3.9,7.3-3.2,9.8   c0.6,2.4,3.2,4,0.6,5.2c-2.6,1.2-4,4.9-1.9,5c2,0.1,2.7-1.5,3.2-0.4c0.7-0.1,1.3,0.5,1.3,1.8c0,1.7,1.2,2.1,3.3,2.5s4-3.3,4.5-5.9   c0.6-2.6,4.4-1.2,5.4,0.4c1,1.7,1.5,0.2,3-1.4c1.5-1.6,8.4,3,9.7,4.3c1.3,1.3,3.6,2.4,4.3,0.9c0.7-1.5,4.2-0.6,5.3-2.1   c1.1-1.4,5.5-1.4,8-1.4c2.5,0,1.9,4.3,1.9,6.3c0,2.1,1.1,3,2.9,3.1c1.8,0.1,2.7,0.9,1.2,1.7c-1.5,0.8-0.9,1.7-0.7,4.4   c0.2,2.7,3.5,3,3.7,4.5c0.2,1.5,1.6,4.4,2.1,5.8c0.5,1.4,2.4-0.5,4.4-2.1c2-1.6,2.5,1.6,3.8,1.7c1.3,0.1,3.9,1.7,4.7,3.6   c0.8,1.8,1.4,3,3.9,2.5c2.5-0.5,2.1-0.2,2.1,1.2s2.4,1.3,3.6-0.1c1.2-1.4,4.8-1.2,6.6-1.7c1.7-0.6,5.3-2.5,6-3.8s1.4-2.1,2.9-2.3   c1.5-0.2,1.3-2.4,0.6-3.5c-0.7-1-1.3-7.3-1.7-8.7c-0.4-1.4,0.3-2.2,1.7-2.6c1.4-0.4,1.7-1.8,1.7-3.2c0-1.4,3.9-3.9,5-5.1   c1.1-1.2,1.9-0.3,3.6,0.6c1.8,0.9,4.6,3.3,6.5,4c1.9,0.8,1.6-1.1,0.9-2.1c-0.7-1,4.2-0.9,6.2-0.8c2,0.1,7.2,0.9,10.2,1.2   c3,0.3,3.6-1.1,5.1-2.9c1.5-1.8,3.5-4.3,3.6-5.7c0.2-1.4,2.3-1.7,3.8-0.6c1.3,0.9,4.8-0.7,5.9-1.3C670.2,243.8,669.5,243,669,242.2   z" stroke-miterlimit="10" stroke="#FFFFFF"/>
	<path fill="#D3D3D3" id="path14" d="M418.8,219.2" stroke-miterlimit="10" stroke="#FFFFFF"/>
</g>
</svg>