<?xml version="1.0" encoding="UTF-8" standalone="no"?><!-- Generator: Adobe Illustrator 18.0.0, SVG Export Plug-In . SVG Version: 6.00 Build 0)  --><svg xmlns="http://www.w3.org/2000/svg" xmlns:xlink="http://www.w3.org/1999/xlink" contentScriptType="text/ecmascript" zoomAndPan="magnify" contentStyleType="text/css" mapName="重庆市" mapType="省市地图" enable-background="new 0 0 1000 1000" version="1.1" xml:space="preserve" preserveAspectRatio="xMidYMid meet" viewBox="0 0 1000 1000" x="0px" y="0px">
<g id="图层_1">
	<path name="巫溪县" fill="#D3D3D3" id="path0" d="M816,271.9c3.6-3.6-3.9-4.1-8-3.4c-4.1,0.8-7.8-3.6-12.1-6   s-8.5,1.3-12.6,0.3s0.3-9.6,0.3-17.9s-7.5-10.6-13.3-10.1c-5.7,0.5-5.1,2.4-7.5-0.8c-2.4-3.1-7.8,0.3-12.6,0.5   c-4.9,0.3-7.8-2.4-11.6,0c-2.8,1.6-8.1,2.4-13.1,2.1c-7.8,6.9-17.5,8.9-22.1,7.6c-4.9-1.3-11.8-0.8-16.9,0c-5.1,0.7-6.1,5.9-12,6.6   c-3.6,0.5-5.7,0.6-8.5-0.4c-0.3,2.5-1.1,6.4-3.3,8.6c-3.3,3.4-4.5,6-6.9,4.3s-4,0.1-4.5,2.3c-0.6,2.1-3.2,9.8-9.1,9.5   c-5.9-0.3-6.3,3.8-4.3,6.3s6.6,6,9.1,6s6,0.3,4.8,2.3s-2.9,4.1,0.5,4.3c3.4,0.1,3.6,2.1,3.6,4.6c0,2.4,1,4.4,6.5,4.1   s-0.5-6.6,7.9-6.6s15.3,2.4,20.9,2.6c5.6,0.3,27.1,0.3,30.4,3c3.3,2.7,4.8,0.8,6.3,6.4c1.5,5.5,1.9,5,3.5,5.1s3.1,2.6,3.5,4.4   s3,4,6.4,3.5c2.6-0.4,13.9-1,18.6-1.3c-0.4-1.8,0.6-4.3,2.6-6c3.6-3.1,10.3-4.3,13.9-2.9c3.6,1.4,4.3-1.4,4.3-6.3s6-3.4,9.8-6   c3.9-2.6,11.8-1.4,17.4-3.6c4.6-1.8,8.3-14.1,9.6-19C814.6,274.9,813.6,274.3,816,271.9z" stroke-miterlimit="10" stroke="#FFFFFF"/>
	<path name="巫山县" fill="#D3D3D3" id="path1" d="M847.3,317.9c-2.1-3.1-2.9-7-2.9-11.4s-0.8-10.1-2.1-14.5   s-1-6-8-6s-7.2-3.6-12.4-7.3c-1.9-1.3-3.6-2.1-4.9-2.7c-1.3,4.9-5,17.3-9.6,19c-5.8,2.1-13.6,1-17.4,3.6c-3.9,2.6-9.8,1.3-9.8,6   s-0.8,7.6-4.3,6.3c-3.6-1.4-10.3-0.3-13.9,2.9c-3.6,3.1-3.9,8.4,0.3,8.4c4,0,7.4,1.4,6.6,5c-0.8,3.6-3.9,3.4,3.6,3.4   c7.4,0,6,4.1,11,1.4c5-2.6,5.8,1.9,5.5,5.8s-7.1,12.1-14.1,13.6c-6.9,1.5-8.9,4.9-8.9,8.4s-3.5,8.6-2,11.5s3.8,4.4-0.3,6   c-4,1.6-4.9,3.8-0.9,5.5c4,1.8,4.4,3.8,4.4,7.8c0,3.3,5.8,8.6,8.5,11.1c0.5-3,4.4-6.3,5.4-9.6c1-3.4,13-9,17.1-11.4   s11.6-4.6,15.5-4.1s6.8,1.8,9-0.8c2.4-2.6,4.4,2.1,4.4,5.1s2.6,7,4.4,9.4c1.8,2.4,7.3,0.5,9.4-3.9s3.6-6.8,3.1-10.6   c-0.5-3.9-0.3-9,1.8-11.9s0-4.9-1.5-6.3c-1.5-1.3-3.6-11.4-4.6-15.3s7.3-7,10.9-11.1C854,327,849.4,321,847.3,317.9z" stroke-miterlimit="10" stroke="#FFFFFF"/>
	<path name="城口县" fill="#D3D3D3" id="path2" d="M626.6,253.9c3.4,4.6,17.6,1,20.3-2.9c2.5-3.9,5.9-9,12.5-4.1   s8.8,4.9,14.6,4.1s6.9-5.9,12-6.6c5.1-0.7,12-1.3,16.9,0c4.6,1.3,14.4-0.7,22.1-7.6c-2-0.1-4-0.4-5.8-0.8c-6.3-1.5-7.2-7.3-6-10.9   c1.3-3.6-2.4-6.3-5.1-6.3s-5.4,0.8-5.7-3.6c-0.3-4.4,0-4.9-3.6-6.5c-3.6-1.5-16.6-11.4-22-15s-10.6-3.1-15-3.1s-6.5-2.4-9-6.5   c-2.6-4.1-4.9-5.4-8.5-6.3c-3.6-0.8-5.1-1.3-6.5-5.4c-1.3-4.1-2.9-2.6-7.3-2.4s-4.9,0.3-9-4.6s-5.4-5.4-10.4-8   c-4.9-2.6-17.1-0.3-21.5-0.3s-4.9,2.6-4.9,4.6c0,2.1,2.1,3.6,5.1,5.1c3.1,1.5,2.1,3.1,5.1,6.5c3.1,3.4-5.1,4.6-7.5,3.9   s-3.4-0.8-5.8,1s-2.1,6.5,0,11.4s-2.6,1.8-7,0.3s-4.9,2.4-4.9,6s2.1,7,4.6,8.3c2.6,1.3,4.9,4.4,7,7.3s8.3,7.8,11.9,8.3   s4.6,1,3.6,4.1s4.1,2.9,7.3,2.9s4.4,1.5,2.1,7.3c-1.1,2.9-1.4,4.3-1,5.3C608.6,241.1,623.6,249.6,626.6,253.9z" stroke-miterlimit="10" stroke="#FFFFFF"/>
	<path name="垫江县" fill="#D3D3D3" id="path3" d="M489,451.1c0.1-0.1,0.1-0.3,0.3-0.3c4.8-6.9-3.9-5.4-9.5-7.4   c-5.6-2.1-7.4-3.3-14-1.8c-5.4,1.3-9.6-4.4-11-6.4c-3.6,5.6-8,12.6-11.4,15.4c-4.9,4.1-7.3,17.4-7.3,17.4s-3.9,7.6-7.6,14.6   c1.7,0.6,5.1,3,5.1,7.1c0,5.3,1.8,8,1.8,8s4,4-0.5,7.1c-4.4,3.1-0.9,6.1,0.9,9.8c1.8,3.5-0.5,9.3,4,9.3c4.4,0,9.7-2.6,14.6-3.5   c3-0.5,2.8,0.9,3.5,2.4c5.4-7,11.3-14.4,14.1-17c5.4-4.7,5-4.7,4.8-8c-0.3-3.3-1.3-4.1,1.5-5.6c1.8-1,2-2,2-2.6   c-5.3,2.9-5.1-9.2-2-13.3c3.3-4.1,3-5.6,0.9-5.9s-3.5-3,0.3-5.4S484.4,457.9,489,451.1z" stroke-miterlimit="10" stroke="#FFFFFF"/>
	<path name="主城区" fill="#D3D3D3" id="path4" d="M337.8,510.5c-0.3,5.8-4.4,3.6-5,9.9c-0.8,6.3-1.9,8.8-4.9,8.8   s-5.8-1.4-6.9,2.1s-4.1,5.5-4.1,2.1c0-3.5-2.1-5-3.9-2.1c-1.9,3-3.9,6.4-6,4.4c-2.1-2.1-0.8-7.4-3.6-5.3c-1.6,1.1-6,5.3-9.8,8.4   c1,0.9,8.3,7.4,5.1,10.8c-3.3,3.6-6.3,9.3-7,13.9c-0.6,4.6-3.3,17.3-6.6,20.9c-3.3,3.6-2.6,2.6-2.4,8.3c0.3,4.2,1.3,10.5,0.8,15.6   c2,0.3,7.9,1.4,9.1,5.5c1.5,5,2.4,5.1,0,5.1s-4.3,0.4-5,2.1c-0.8,1.8,0.8,3.8-2.3,4.6c-3,0.9-0.8,0.8,1.3,4.5   c1.9,3.8,4.1,14.1,8.1,11.8s7.4-2.1,10.5-2.4c3.1-0.2,3.6-1,2.6-3.8s-4.1-3.3-0.5-6c3.6-2.8,8.8-8.1,9.3-5.5s-0.5,7.8,1.7,10.1   c2.3,2.4,2.8,2.4,2.4,5.9s-0.5,4,1,4.9s4.1,1,4.6,5.8c0.5,4.5-3.1,9.9,5.1,10.3c3.4-3.9,9.9-7.1,14.3-7.1c4.8,0,5.1,4.8,12.5,3.9   s6.9-1.8,10.8,1.3c3,2.4,6.5,2.9,7.9,3c-0.6-3.6,3.9-5.8,7.6-9c4.1-3.6-0.5-9.5-4.1-16.1c-1.9-3.5,0.9-18.5,4.5-33.5   c-0.6,0-1,0-1,0s0.4,0,1,0c3.3-13.4,7-26.9,8.4-31.9c0.5-1.6,1.1-3,1.9-4.1c-0.9-3.1-7.4-8.9-9.9-11.9c-2.8-3.1,2-14.7,3.8-20.9   c1.4-4.8-3.1-7.4-5-8.3c0,0.1-0.1,0.3-0.1,0.3c-1.5,3.4-4.9,3.9-7.3,2.4s-4.6-2.9-8.3,0.3s-4.9,1-10.9-1.9s-3.9-11.4-6-17.4   c-1.1-3.3-3-4.9-4.9-6.1C345.6,504,337.9,505.1,337.8,510.5z" stroke-miterlimit="10" stroke="#FFFFFF"/>
	<path name="合川市" fill="#D3D3D3" id="path5" d="M293.5,538.8c3.8-3.1,8.1-7.3,9.8-8.4c3-2.1,1.6,3.3,3.6,5.3   c2.1,2.1,4.1-1.4,6-4.4s3.9-1.4,3.9,2.1s3,1.4,4.1-2.1s3.9-2.1,6.9-2.1s4.1-2.5,4.9-8.8s4.9-4.1,5-9.9c0.3-5.4,7.9-6.5,8.9-6.6   c-1.5-1-2.9-1.6-3.8-2.8c-1.7-2.4-2.1-5.8,0.3-7.5c2.4-1.8,1-3.4-1.3-3.6c-2.4-0.3-1.5-2.4-2.6-6.7c-1-4.4-7.8-4.4-8-1.5   c-0.3,2.9-3.9,2.9-10.1,2.6c-6.3-0.3-5.4,2.6-7.3,7.5c-1.7,4.9-4.9,0.3-7.3,2.1c-2.4,1.8-3.9,3.4-7.3,2.1s-1.3,1.8-3.9,5.8   s-6.5,1.5-10.6-0.3s-7.3-6.5-6.8-11.9s-1.5-5.4-5.8-5.4c-4.1,0-6.5-0.3-7.3-3.9s-2.4-3.1-5.8-5.1c-2.4-1.5-4.6-2.8-7.2-3.5   c-0.4,1.5-1.1,3.6-2,5.9c-1.2,3.5,0.3,1.9,1.6,5c1.4,3.1,0,4.3-2.5,6.4c-2.5,2.2,0,2,0.3,6.3c0.3,4.2,0,6.3-0.3,9.5   c0,0.3,0,0.5,0,0.8c0.1-0.1,0.3-0.1,0.3-0.3c-0.1,0.1-0.3,0.1-0.3,0.3c-0.1,3,0,5.3,4.3,6.4c4.6,1.1,0.9,1.8,0.5,5.4   c-0.5,3.5,4.8,2,8.8,0.4c3.9-1.6,4.1,1.4,2.8,5.5c-1.4,4.1,0.5,5.5,3,6.3s10.6,1.9,15.4,3.9s1.4,7.1,3.3,9c0.1,0.1,0.3,0.1,0.4,0.1   L293.5,538.8z" stroke-miterlimit="10" stroke="#FFFFFF"/>
	<path fill="#D3D3D3" id="path6" d="M287.4,542.5c1.1,0.1,3.5-1.5,6.1-3.8" stroke-miterlimit="10" stroke="#FFFFFF"/>
	<path name="长寿区" fill="#D3D3D3" id="path7" d="M389,534.5c-1.7,6-6.5,17.8-3.8,20.9c2.5,2.9,9,8.8,9.9,11.9   c4.1-6.4,12-6.1,17.5-8.4c6.5-2.6,8.6-3.9,11.9-8.9c3.3-5.1,5.4-2.4,9.8-1.5c4.5,0.9,10.1-6.9,13.4-11.6c1.5-2.3,5.8-8,10.3-14   c-0.8-1.5-0.6-3-3.5-2.4c-4.9,0.9-10.1,3.5-14.6,3.5c-4.4,0-2.3-5.8-4-9.3c-1.8-3.5-5.3-6.6-0.9-9.8s0.5-7.1,0.5-7.1   s-1.8-2.6-1.8-8c0-4.1-3.4-6.5-4.9-7.4c-2,3.6-3.9,7.1-5.1,9.1c-3.6,6-15.8,21-18.9,24.9s-1.8,5.1-6,7.5c-4.1,2.4-8,3.6-9.9,0.3   c-1.8-3.3-3.5-1.1-5,2C385.9,527.1,390.4,529.6,389,534.5z" stroke-miterlimit="10" stroke="#FFFFFF"/>
	<path name="潼南县" fill="#D3D3D3" id="path8" d="M215.6,547.8c3.4-2.3,4-4.4,5.3-7.4c1.5-3.3,2.4-9,8.8-6.9   c6.4,2.1,7.9,7.3,9.2,1.5s2.1-11.5-1.9-13.5c-4.1-1.9-5.4-3-4.9-6.3c0.4-3.3,3-11.1,4.9-11.1s9.1,3.4,12.1,1.5c0-0.3,0-0.5,0-0.8   c0.3-3.4,0.5-5.4,0.3-9.5c-0.3-4.3-2.6-4-0.3-6.3c2.5-2.3,3.8-3.4,2.5-6.4c-1.4-3.1-2.9-1.5-1.4-5.4c0.9-2.2,1.6-4.4,2-5.9   c-1.1-0.3-2.1-0.5-3.4-0.5c-4.1,0-11.4-1.8-20.5-6.5c-9-4.6-12.6,7.8-14.8,8.8c-2.1,1-3.9,10.1-3.9,13.5s0.3,2.4,0.8,5.1   c0.5,2.9-5.8,0.8-10.1-1.3c-4.4-2.1-3.4-2.9-4.9,0s1.7,7,3.9,8c2.1,1,2.6,0.3,2.9,2.9c0.3,2.6-7,3.6-10.6,2.1s-2.9-1.5-6,3.4   s0,4.4,2.4,4.1s1.7,1.2,2.6,5.1c0.8,3.9,4.1-0.3,6.5,2.4c2.4,2.6,3.6,4.1,7,7s4.4,5.4,7.8,6s3.9,1.5,2.1,5.1   c-1.4,2.8-3.6,6.3-4.6,9.8c0.3,1.3,1.5,3.5,5.1,1.9C214.9,548.1,215.3,548,215.6,547.8z" stroke-miterlimit="10" stroke="#FFFFFF"/>
	<path name="荣昌县" fill="#D3D3D3" id="path9" d="M210.1,619.9c-1.5-10-4.4-11.5-10.6-16.1s-7.7-3.8-11.5-7.5   c-2.8-2.8-2-7.9-1.4-10.4c-1.7,2.8-5.1,2.8-9.1,0.1c-4.4-2.9-2.9,2.9-2.9,6.3c0,3.4-3.4,1.8-7-0.5c-3.6-2.4-3.6,1.5-5.4,5.8   c-1.7,4.1-0.8,4.4-3.1,4.6c-2.4,0.3-4.4,4.1-7.8,6.5c-3.4,2.4-3.6,6.3-2.4,9.6c1.3,3.4,4.9,8.8,4.9,11.4c0,2.6,3.6,1.5,6.3,1.5   c2.6,0,3.4,1,2.1,3.4s2.6,2.6,5.8,3.1s1,5.4-0.8,10.9c-1.9,5.4,1.3,4.6,4.1,4.4c2.9-0.3,3.4,2.4,4.4,5.1c1,2.9,7.8,3.9,12.1,3.6   c3.1-0.1,6.9,0.4,9.9,1c0.4-7.6,11.3-32.4,13.9-38.3C210.9,623.4,210.4,622,210.1,619.9z" stroke-miterlimit="10" stroke="#FFFFFF"/>
	<path name="铜梁" fill="#D3D3D3" id="path10" d="M267.3,573.5c3.8-1.9,5.8-3,4.1-5.8c-1.5-2.6-3-1.5,2.3-9.9   c4.3-6.8,11.1-13.1,13.6-15.4c-0.1,0-0.4-0.1-0.4-0.1c-1.9-1.9,1.6-6.9-3.3-9s-12.9-3.3-15.4-3.9c-2.5-0.8-4.4-2.1-3-6.3   c1.4-4.1,1.1-7.1-2.8-5.5s-9.1,3.3-8.8-0.4c0.5-3.5,4.3-4.3-0.5-5.4c-4.2-1-4.4-3.4-4.2-6.4c-3,2-10.3-1.5-12.1-1.5   s-4.5,7.9-4.9,11.1c-0.4,3.3,0.9,4.3,4.9,6.3c4.1,1.9,3.3,7.8,1.9,13.5c-1.3,5.8-2.7,0.6-9.2-1.5c-6.4-2.1-7.3,3.6-8.8,6.9   c-1.4,2.9-1.8,5.4-5.3,7.4c-1.6,5.6,4.5,5.9,8.4,8.4c4,2.5,6.5-1.3,7.1-5.6s1.5,1.9,5.2,3.4c3.8,1.5,9.4,0,15.5,3.4   c6.2,3.4-4.6,9-10.9,18c-4.2,6.1-7.5,9.7-10.8,12.6c0.3,1.1,1.9,2.8,8.6,3.6c10.1,1.5,14.9,2.6,19.5-0.9c0.1-0.8,0.3-1.4,0.3-1.7   C259.6,583,263.4,575.4,267.3,573.5z" stroke-miterlimit="10" stroke="#FFFFFF"/>
	<path name="开县" fill="#D3D3D3" id="path11" d="M540.5,377.9c5.1,3.5,9.5-7.3,9.9,1.1s4.9,9.1,9.9,8.8   c4.9-0.4,21.6-9.9,25-14.8s-0.4-5.3,3.8-6.9c4.1-1.6,4.9-5.3,8.4-6.9c2.6-1.1,5.1-1.6,6.3-1.9c0.9-1.8,1.8-3.5,1.8-5.5   c0-3.6,1-4,4.8-4c3.6,0,6.3-2.9,9.2-9.3c2.9-6.3,2.6-7.4,1.4-12.1c-1.4-4.8,6-11.3,9.7-15c3.6-3.6-0.5-3.4-2.6-6.3s3.6-2.6,7.1-1.4   c3.4,1.4,2.1-0.5,2.1-3.6c0-2.6,6.2-11,8.1-13.4c-2.5-0.9-5.9-3.6-7.5-5.6c-2-2.5-1.6-6.5,4.3-6.3c5.9,0.2,8.5-7.4,9.1-9.5   s2.3-4,4.5-2.3s3.6-0.9,6.9-4.3c2.1-2.3,3-6.1,3.2-8.6c-1.6-0.6-3.6-1.8-6.1-3.6c-6.6-4.9-10,0.2-12.5,4.1   c-2.5,3.9-16.9,7.4-20.3,2.9c-3-4.1-18.1-12.7-21.1-14.5c0.4,1,1.1,1.6,2.1,2.8c1.9,2.4,3.4,2.6-0.3,2.9s-7.8,4.6-11.9,6   c-4.1,1.4-5.8,7.5-5.8,10.4s-1.5,5.1-4.6,5.4s-2.6,1.5-2.6,4.9s-13.8,1-17.6,1.5s-1.5,2.4-1.3,6.5s-2.1,9.4-5.4,13.3   c-3.4,3.9-0.5,3.6,0,8s-7.5,10.6-16,14.8c-8.5,4.1-1.5,6.5,2.4,9.9s-3.6,11.4-7.5,15.8s1,7.3,3.6,9.4s-6.8,9.4-11.1,11.9   s-5.4,5.4-5.4,5.4s1.9,6.8,4.6,8c1.6,0.8,3.3,1,3.5,1.5C533.4,376.6,536.5,375.1,540.5,377.9z" stroke-miterlimit="10" stroke="#FFFFFF"/>
	<path name="璧山" fill="#D3D3D3" id="path12" d="M283.8,608.3c0.6-5.1-0.8-11.5-1-15.8c-0.4-5.6-1-4.6,2.4-8.3   c3.3-3.6,6-16.3,6.6-20.9c0.6-4.6,3.6-10.3,7-13.9c3.1-3.4-4.1-9.9-5.1-10.8c-2.6,2.1-5,3.9-6.1,3.8c-2.5,2.3-9.4,8.8-13.6,15.4   c-5.4,8.4-3.8,7.3-2.3,9.9s-0.4,3.8-4.1,5.8c-3.8,1.9-7.6,9.5-8.4,15.6c0,0.5-0.1,1.1-0.3,1.8c0.3-0.3,0.5-0.4,0.8-0.6   c-0.2,0.3-0.5,0.4-0.8,0.6c-1,6.9-4.2,24-6.4,33.9c1.1,1.9,4.1,6.1,7.4,8.8c4.3,3.3,14.3-2.6,17.9-7.9s2.6-7.6,5-12.9   C283.4,611.5,283.6,609.9,283.8,608.3z" stroke-miterlimit="10" stroke="#FFFFFF"/>
	<path fill="#D3D3D3" id="path13" d="M494.4,586.9c0.1,0.8,1,1,3.8,1c6.6,0,5.8,1.8,8.9,5.3   s6.6,6.1,6.6,0.5c0-5.8-2.2-15.5,3.1-15c5.4,0.5,10.1,1.4,10.6,5.3c0.5,4,4.9,6.1,7.5,3.5s7.5-0.9,12.4,0.9   c0.4,0.1,0.8,0.3,1.3,0.4" stroke-miterlimit="10" stroke="#FFFFFF"/>
	<path name="涪陵区" fill="#D3D3D3" id="path14" d="M495.4,580.8c0-5.3-3.5-3.5-8.4-5.8s-2.6-8.4-2.6-13.3   s0-4.9-2.3-8.9c-2.2-4-1.7-3.5-1.4-9.3c0.5-5.8-1.8-8.9-6.6-13.6c-4.9-4.9-7-3.5-12.8-4.9c-2.2-0.5-3-1.5-3.5-2.5   c-4.6,6-8.8,11.8-10.3,14c-3.3,4.8-8.9,12.5-13.4,11.6s-6.5-3.6-9.7,1.5c-3.3,5.1-5.4,6.3-11.9,8.9c-5.5,2.3-13.4,2-17.5,8.4   c0.1,0.3,0.1,0.5,0.1,0.8c0-0.3,0-0.5-0.1-0.8c-0.8,1.1-1.4,2.5-1.9,4.1c-1.4,5.1-5.1,18.5-8.4,31.9c3.4,0.1,13.8,1,12.9,8.4   c-1.1,8.9,5,15.3,7.8,15.1c2.8-0.1,7.1-11,10.1-10.1s4.4,1.6,5.9,6.6c1.4,4.9,4.8,5.6,6.9-1.3c-0.5-0.5-0.8-0.8-1.9-2.1   c-1.9-2.3,3.8-5.1,8.3-7.9c4.5-2.9,1.9-7.6,5.4-7.9c3.5-0.4,4.1-2.3,5.1-4.5c1-2.3,4.8-0.4,7,3.5c2.3,3.9,5.1,2.5,7.6,0.4   c2.5-2.3,6,2.5,7.9,7.6s3.8,3.5,6.6,1c2.9-2.5,1-3.1,0-6s9.5-7.3,12.8-9.5c2.6-1.9,6-7.5,7.3-9.5   C494.1,585.8,495.4,583.9,495.4,580.8z" stroke-miterlimit="10" stroke="#FFFFFF"/>
	<path name="忠县" fill="#D3D3D3" id="path15" d="M480.4,489.4c0.1-0.1,0.3-0.1,0.4-0.3c5.6-3.9,8-13.4,10.4-9.5   s-1.5,3.5,8.3,3.3c9.7-0.3,3.5,0.9,3.5,3.9s8.3,3.5,8.3,3.5s3.5,1.5,0.9,5.4c-2.6,3.9-2.1,6.3,3,6.3c5.1,0,6.9,0.6,9.5,4.1   c2.4,3.1,8.1,6.3,12.5,7c-0.1-0.5-0.1-0.8-0.1-0.8s0,0.3,0.1,0.8c0.6,0.1,1.1,0.1,1.8,0.1c4.5,0,10.4-5.9,9.5-10.6   c-0.9-4.8-3.3-5.6-1.1-8.6s9.5-2.4,7.4-5.6s-6.3-6.5-2.1-8.3c4.1-1.8,6.9-2.1,7.1-5.9c0.3-3.9,0.6-6.3-3.5-6.3s-8-1.1-2.6-4.5   c5.4-3.3,11-8.9,13-8c0.5,0.3,1.3,0.5,1.9,0.6c1.4-3.1,2.8-6.6,0.6-11.5c-2.1-4.9-8-7.6-9.8-13.3s-4.5-3.5-8-3.5   c-2.6,0-6,0.8-8.1-1c-1,1.5-4.2,6.1-7.9,7c-4.4,1-0.8,3.9-6.3,5.5s-6.8-4.8-8.4-7.3c-1.6-2.4-6.5-1.3-8.1,6.5s-3.1,3.9-6.5,1   s-4.4-2.9-6.7,3.1c-2.1,5.3-8.4,7.8-10,8.2c-4.6,6.6-5.8,11.6-9.6,14c-3.9,2.4-2.4,5-0.3,5.4c2.1,0.3,2.4,1.8-0.9,5.9   C475.2,480.1,475.1,492.4,480.4,489.4z" stroke-miterlimit="10" stroke="#FFFFFF"/>
	<path name="梁平县" fill="#D3D3D3" id="path16" d="M465.9,441.5c6.5-1.5,8.3-0.3,14,1.8c5.6,2.1,14.3,0.6,9.5,7.4   c-0.1,0.1-0.1,0.3-0.3,0.3c1.5-0.5,7.9-3,10-8.3c2.4-6,3.4-6,6.7-3.1c3.4,2.9,4.8,6.8,6.5-1c1.6-7.8,6.5-8.9,8.1-6.5   s2.9,8.9,8.4,7.3s1.9-4.6,6.3-5.5c3.6-0.8,6.9-5.5,7.9-7c-0.8-0.6-1.3-1.5-1.6-2.8c-1.4-5.2,1-8.4,4.9-10.1   c3.9-1.8,3.1-0.8,2.8-4.5c-0.4-3.9-3.1-1.8-12.9-3.5c-8.9-1.6-14.1-16.3-15-19c-1.8,2.4-3.5,4.9-4.9,6.8c-3.6,4.9-3.4,3.1-6.7,2.4   c-3.4-0.8-4.1-1.8-7.8-1.8c-3.6,0-6-4.4-7-11.6c-1-7.3-5.8,3.4-10.1,7s-4.1,4.6-8.8,1.3c-4.6-3.4-5.8-1.9-11.1-2.1   s-7,7.5-12.1,14.8s2.9,14,6.5,17.4s3.9,3.1,0.3,7.8c-1.1,1.5-2.8,3.9-4.4,6.6C456.3,437,460.4,442.6,465.9,441.5z" stroke-miterlimit="10" stroke="#FFFFFF"/>
	<path name="綦江县" fill="#D3D3D3" id="path17" d="M367.3,743.8c0-5.1-1.9-21.5-5.1-23.4c-3.3-1.9-8-6.1-3.8-8.4   c4.3-2.1,14.3-14,14.3-17.1c0-3.3-4-2.4-2.1-7.5s4.3-7,1.9-10.5c-2.1-3.1,4.6-2.8,7.6-2.6c-1.4-2.5-1.1-7.9-2.6-11.1   c-0.3-0.5-0.3-0.9-0.4-1.3c-1.5-0.1-5-0.6-7.9-3c-3.9-3-3.5-2.1-10.8-1.3c-7.4,0.9-7.8-3.9-12.5-3.9c-4.4,0-10.9,3.3-14.2,7.1   c0.3,0,0.4,0,0.6,0c-0.3,0-0.4,0-0.6,0c-0.4,0.4-0.6,0.8-0.9,1.1c-3,4.4,5.1,10.8,2.6,17.8c-2.6,6.9-9.9-3.5-15.5-8.3   s-7.4,7.8-10.8,6.5c-3.5-1.3-4.4,8.6-2.1,13.9c2.1,5.1,5.6,10.4,5.6,18.1c0,7.3,8.6,23.3,9.8,25.3c0.8-0.8,2.6,1.4,4.1,3.1   c2.1,2.4,5.1,3.1,6.8,6.3c1.5,3.1,3.4,5.1,6,7.3c2.6,2.1,2.9,5.8,2.9,9c0,3.4,6,3.9,8.8,4.1c2.9,0.3,0,2.6-2.4,6.5s-2.6,4.6-2.4,8   c0.3,3.4-2.6,8.8-5.8,12.4c-3.1,3.6,0.3,3.1,2.6,1.3c2.4-1.8,4.9-2.1,6,0c1,2.1,2.4,3.4,4.4,2.6s3.1-1,4.4,2.4s3.6,1.3,7.2-0.5   s0-5.8-1.7-8.8c-1.9-3.1-0.5-6.3,3.4-6.3s1.5-3.6,1.5-6.5s2.9-3.1,4.6-1c1.8,2.1,3.1,0.7,3.1-2.4s0.8-1,2.6-4.1   c1.8-3.1,3.4-4.4,4.1-7.8c0.8-3.4-1.3-4.6-4.9-6c-1.9-0.8-2.8-1.7-3-3.1C371,750.8,367.3,747.9,367.3,743.8z" stroke-miterlimit="10" stroke="#FFFFFF"/>
	<path name="石柱土家族自治县" fill="#D3D3D3" id="path18" d="M594.5,435.5c-2.4-1.1-11.6,9.7-12.1,14.9c-0.6,5-5.6,7.1-8,6.9   c-1.8-0.3-4.1-0.6-6.1-1.1l0,0l0,0c-0.8-0.3-1.4-0.4-1.9-0.6c-2.1-0.9-7.8,4.7-13,8c-5.4,3.3-1.5,4.5,2.6,4.5s3.9,2.4,3.5,6.3   c-0.3,3.9-3,4.1-7.1,5.9s0,5,2.1,8.3s-5.4,2.6-7.4,5.6s0.3,3.9,1.1,8.6c0.9,4.8-5,10.6-9.5,10.6c-0.5,0-1.1,0-1.8-0.1   c0.4,1.9,1.3,7.1,2.1,11.3c1,5.1-0.8,7.1,2.5,10.4s2.5,6.6,3.5,10.4s4,3.3,6.6,3.3c2.8,0,10.9,2.2,12.1,6.4   c1.3,4.1,1.3,6.9-1.5,10.9s-2.5,10.1-4.6,11.1c-2.3,1-2.8,2,1.5,4.1c3,1.6,4.3,3,4.8,3.6c1-1.9,1.9-4.5,2.8-8.9   c1.4-6.6,2.3-12.4,5.3-8c3.1,4.4,8,4.9,11.9,4.9c4,0,5.3-2.6,5.3-4.9c0-1.8,0.5-1.9,0.8-1.9c-0.1-0.5,0-1.1,0-2.4   c0-2.6-1.5-3.9,1.3-3.9c2.9,0,3.4-1,5.4-3.1c2.1-2.1,4.1-2.6,9,0.3c4.9,2.9,3.4-9,3.9-15.5s-0.3-8.8-0.3-12.1c0-3.4,0-3.4-1.5-2.4   s2.6-7,6-10.1s1.5-3.9-0.8-7c-2.4-3.1,0-2.6,1.5-10.6s-7.8-16-9-20.3c-1.3-4.1-8.5-4.6-11.9-6.7s-5.1-4.6-2.1-6.3   c3.1-1.5,0-2.4,1.5-11.1c0.8-4.5,1.6-5.5,2.5-5.5C594.1,445.8,596.8,436.6,594.5,435.5z" stroke-miterlimit="10" stroke="#FFFFFF"/>
	<path name="万州区" fill="#D3D3D3" id="path19" d="M543,427c2.2,1.8,5.5,1,8.1,1c3.5,0,6.3-2.1,8,3.5   s7.6,8.4,9.8,13.3c2.1,4.9,0.8,8.4-0.6,11.5c2,0.5,4.4,0.9,6.1,1.1c2.4,0.3,7.4-1.8,8-6.9c0.6-5,9.8-16,12.1-14.9   c2.2,1.1-0.5,10.3,0.9,13.6c0.9,0,1.9,0.9,3.1,0.4c2.6-1,8.8-1,12.1,2.6c3.4,3.6,4.9-2.1,11.6-6c6.8-3.9,0.3-7.3,2.6-10.4   s10.1,2.6,10.4,7c0.3,4.4,3.9,4.9,6.5,3.6s3.1-1,6,0.8s4.9-0.3,7.8-2.4c2.9-2.1,6.5-7.8,7.5-10.1c0.6-1.5,2.6-3.9,4.9-5.9   c-4.4-1-7.5-7.8-5-9.5c2.8-1.9,1.8-3.1,1-7c-0.6-3.8-8-0.9-10.8-0.4c-2.8,0.4-7.3-4.9-9.1-8s-1-9.8-5-11.5c-4-1.9-6.6-8.1-9.8-12.9   s-2.9-0.5-2.9-5.5s0-4.5-3.6-1c-3.6,3.4-3.1,2.1-6.3-1s-3.6-2.9-3.4-7.9s-1.4-3.6-4.5-2.4c-3.1,1.4-5.5,4-6,0.5   c-0.3-1.6,0.4-3.1,1.1-4.8c-1.1,0.1-3.6,0.6-6.3,1.9c-3.4,1.5-4.1,5.3-8.4,6.9c-4.3,1.6-0.4,1.9-3.8,6.9   c-3.4,4.9-20.1,14.4-25,14.8s-9.5-0.4-9.9-8.8s-4.7,2.4-9.9-1.1c-4.1-2.8-7.3-1.3-8.4-0.5c0.3,0.3-0.4,0.6-2.2,1.1   c-2.8,0.8-5.9,4.5-8.9,8.4c0.9,2.8,6.1,17.4,15,19c9.8,1.8,12.5-0.4,12.9,3.5s1,2.8-2.8,4.5s-6.3,4.9-4.9,10.1   C541.8,425.5,542.3,426.4,543,427z" stroke-miterlimit="10" stroke="#FFFFFF"/>
	<path name="彭水苗族土家族自治县" fill="#D3D3D3" id="path20" d="M563.9,584.4c-0.5,1-1.1,1.9-1.8,2.6c-1.6,2-8.9,3-13.8,1.6   c-1.6,2.9-9.5,17.4-11.1,22.1c-1.8,5.3-1.1,19.5-0.6,26.9s-7.4,18.3-9.8,18.3s-5.9,6.3-7.1,14.8c-1,7.6-13.3,14.3-16,15.6   c-0.4,3.5-0.1,8,1.4,11.4c1.5,3.6,3.9,4.9,1.8,7s2.6,7,5.1,8.5c2.6,1.5,4.6-1.5,4.9-4.6s0.8-2.6,3.1-2.6s3.1-2.1,5.4-3.9   c2.4-1.9,4.9-0.8,8-0.8s7.5-4.4,9.9-7.5s6.3-0.8,8.3,2.1c2.1,2.9,5.8,0.3,9.4-1.5c3.6-1.9,5.4,4.4,8.8,6.8c3.4,2.4,3.9-5.1,5.8-8   c1.5-2.4,4-2.9,4.3-1.9c0.4-0.4,16.3-17.1,21.3-16.5c5.1,0.6,8.1-3.8,10.5-6.8c1.4-1.8,2.8-3.3,4.2-2.9c0.4-0.1,1.9-0.6,0.9-4.3   c-1.1-4.3-2.4-6.9-1-8.3c1.4-1.4,3.1-6.6,1.6-12.1c-1.4-5.5-2.1-6.9-1.4-10.6c0.8-3.8-3.4-5,0.8-8.8c4-3.8,6.9-9.7,0.3-11.1   c-6.6-1.4-7.6-6.4-5.9-8.5c1.6-2.1,3.5-9,0.8-11.6c-2.8-2.5-6.4-0.9-5.4-4.6c-0.5-0.4-0.9-1-1.4-1.8c-1.8-3.4-2.9-1.8-5.1-1.8   c-2.4,0-2.1-2.6-2.1-5.4c0-2.9-2.1-1-2.1-3.6s-0.3-4.6-3.4-5.4c-1.8-0.4-2.3-0.8-2.4-1.3c-0.2-0.5-0.7-0.3-0.7,1.4   c0,2.3-1.4,4.9-5.3,4.9c-4,0-8.9-0.5-11.9-4.9c-3.1-4.4-4,1.4-5.3,8C565.8,579.8,564.9,582.4,563.9,584.4z" stroke-miterlimit="10" stroke="#FFFFFF"/>
	<path name="黔江区" fill="#D3D3D3" id="path21" d="M611.5,589.8c2.9,2.6,1,9.5-0.8,11.6c-1.6,2.1-0.8,7.1,5.9,8.5   c6.6,1.4,3.8,7.4-0.3,11.1s0,5-0.8,8.8s0,5.3,1.4,10.6c1.4,5.5-0.3,10.6-1.6,12.1c-1.4,1.4-0.3,4,1,8.3c1,3.6-0.4,4.1-0.9,4.2   c1,0.3,2.1,1.3,3.5,3.6c3.4,5.8,4.4,11.9,9.1,8.8c4.8-3,0-5.8,6.1-3.4c6.1,2.4,4,1,8.8-2s0-3.8,8.8-2.8s7.8,1.4,9.1-4   c1.3-5.1,6.3-12,7.9-14.7c-0.6-2.4,2-9.1,3.5-13.1c1.8-5.1-5.4-6.8-7.8-7.5c-2.4-0.8-3.6-3.6-2.6-6s1.9-3.6,0.5-6   c-1.3-2.4,2.6-6.8,4.9-8.3c2.4-1.5-0.3-3.9-3.4-4.9s-3.1-2.9-4.9-8.3s-1.8-1.9-5.7,1s-3.9,0.5-4.6-2.6c-0.7-3.1-2.1-3.1-2.6-0.3   c-0.5,2.9-2.1,3.9-3.6,1s-4.1-4.4-7.8-7.3c-3.6-2.9-3.4-14.5-4.4-22.5s-3.6-8.5-5.8-10.1c-2.1-1.5-11.1,10.4-13.8,14.3   s-1.5,4.9,0,8.3s0,2.4-1,5.1c-0.8,2.1-2.4,2.9-3.8,1.5C605.1,588.8,608.8,587.1,611.5,589.8z" stroke-miterlimit="10" stroke="#FFFFFF"/>
	<path name="云阳县" fill="#D3D3D3" id="path22" d="M686.3,391c0-8.3,4.3-7.1,10.4-7.1c6,0,5-4.3,5-8.5   s1.8-6.4,6.4-3.9c4.6,2.5,2.5-1.8,3.9-8.5c1.4-6.8,3.6-5,0-8.9s-8.3-5-13.9-2.9c-5.7,2.1-5.4,0.4-6-5c-0.8-5.4-1.1-7.9-4.6-11.7   c-3.6-3.9-0.7-7.1,3.9-7.9c4.6-0.8-4.3-12.1-5.8-15.6c-1.3-3.3,1.1-11,1.6-12.5c-4.9-0.8-10.5-2.3-17.3-2.3c-8.4,0-2.4,6.4-7.9,6.6   s-6.5-1.6-6.5-4.1c0-2.4-0.3-4.5-3.6-4.6c-3.4-0.1-1.8-2.1-0.5-4.3c1.3-2-2.1-2.3-4.8-2.3c-0.5,0-1-0.1-1.6-0.4   c-1.9,2.5-8.1,10.8-8.1,13.4c0,3.1,1.4,5-2.1,3.6c-3.4-1.4-9.2-1.6-7.1,1.4c2.1,2.9,6.3,2.6,2.6,6.3c-3.6,3.6-11,10.3-9.7,15   c1.4,4.8,1.6,5.8-1.4,12.1c-2.9,6.3-5.5,9.3-9.2,9.3c-3.6,0-4.8,0.3-4.8,4c0,2-1,3.8-1.8,5.5c0.4,0,0.5-0.1,0.5-0.1s-0.3,0-0.5,0.1   c-0.8,1.6-1.4,3.1-1.1,4.8c0.5,3.4,2.9,0.8,6-0.5c3.1-1.4,4.8-2.6,4.5,2.4s0.3,4.8,3.4,7.9s2.6,4.5,6.3,1c3.6-3.4,3.6-4,3.6,1   s-0.3,0.8,2.9,5.5s5.8,11,9.8,12.9s3.1,8.4,5,11.5s6.4,8.4,9.1,8c2.8-0.4,10.1-3.4,10.7,0.4s1.8,5.1-1,7c-2.5,1.8,0.6,8.5,5,9.4   c1.3-1.1,2.6-2.1,3.9-2.8c3.4-1.5,7-3.4,8-4.6c0.5-0.6,1.4-1,2.4-1.1c0.4-3.3,1.5-11.6,4-16.1C689.4,398.5,686.3,399.3,686.3,391z" stroke-miterlimit="10" stroke="#FFFFFF"/>
	<path name="奉节县" fill="#D3D3D3" id="path23" d="M783.5,331.9c-5,2.6-3.6-1.4-11-1.4s-4.3,0.3-3.6-3.4   c0.7-3.6-2.6-5-6.6-5c-1.8,0-2.6-1-2.9-2.4c-4.6,0.3-15.9,0.9-18.6,1.3c-3.4,0.5-6-1.8-6.4-3.5s-1.9-4.3-3.5-4.4s-2,0.4-3.5-5.1   s-3-3.6-6.3-6.4c-3.2-2.8-24.7-2.8-30.4-3c-1.1,0-2.4-0.3-3.6-0.4c-0.5,1.6-3,9.4-1.6,12.5c1.4,3.6,10.4,15,5.8,15.6   c-4.6,0.8-7.5,3.9-3.9,7.9c3.6,3.9,3.9,6.4,4.6,11.8c0.7,5.4,0.4,7.1,6,5c5.8-2.1,10.4-1.1,13.9,2.9c3.6,3.9,1.4,2.1,0,8.9   s0.8,11-3.9,8.5s-6.4-0.4-6.4,3.9s1.1,8.5-5,8.5c-6,0-10.4-1.1-10.4,7.1c0,8.3,3.3,7.5,0,13.3c-2.5,4.5-3.6,12.8-4,16.1   c1.1-0.1,2.4,0.1,3.1,1.5c1.3,2.4,5.1-1,8.8-0.8s0.7,4.1-0.7,10.1c-1.5,6-0.8,5.1,1.8,8.3c2.6,3.1,8.3,0,11.1-2.1   c2.9-2.1,5.1-2.6,5.1-5.4c0-2.9,0.8-3.1,4.1-3.1s4.1-1.5,5.1-3.4c1-1.7,3.9-2.9,3.9-0.8s0.5,2.9,3.4,5.8s1.8,5.4,1.3,7.5   s-2.6,4.9-1,8c1.5,3.1,6-2.6,8.8-7.8c2.9-5.1,11.6-15.3,15.5-18.9s2.9-3.6,6-1.8c3.1,1.8,4.6-1.9,4.9-4.1c0.3-2.4,2.6-3.1,6.3-4.6   s5.8-3.6,6-6.7c0-0.1,0-0.1,0-0.3c-2.8-2.5-8.5-7.9-8.5-11.1c0-4-0.3-6-4.4-7.8c-4-1.8-3.1-3.8,0.9-5.5s1.8-3.1,0.3-6s2-8,2-11.5   s2-6.9,8.9-8.4s13.9-9.8,14.1-13.6C789.3,333.8,788.5,329.3,783.5,331.9z" stroke-miterlimit="10" stroke="#FFFFFF"/>
	<path name="秀山土家族苗族自治县" fill="#D3D3D3" id="path24" d="M696.4,738.5c-0.8,7.9-8.9,11.5-12.3,11.8s-2.3,11.5-11.8,12.2   c-9.4,0.8-21.1,9.8-23,12.8c-1.6,2.8-6.3,11.8-7,15c1.8,0.9,4.9,6.6,6.9,8.8c2.4,2.6,2.4,3.9,1.3,6.3c-1,2.4-1,2.9,0.5,5.1   c1.5,2.4,2.6,2.1,0.3,3.9c-2.4,1.8-0.3,3.6,1.5,6.3c1.8,2.6-2.9,3.9-6.8,5.1s-1,6,0.5,10.4s5.4,2.4,8.3-0.3c2.9-2.6,4.9-0.3,7,2.1   c2.1,2.4,7.5,0.8,10.4-1s3.9,0,2.9,2.4s4.1,3.4,9.4,4.4c5.1,1,4.6-3.1,4.9-6c0.3-2.9,4.6-2.9,8,0s3.1,0.3,3.1-3.9   c0-4.1,2.9-7.8,4.9-13c2.1-5.1,2.1-5.1,0.8-8s-1.3-4.9,2.6-7.8c3.9-2.9,2.4-6.8,4.1-9c1.8-2.4,5.1-4.9,8-4.9s4.4-5.1,4.9-8.3   s3.4-5.1,5.1-7.5c1.9-2.4,0.7-5.4-2.4-6.3c-3.1-0.7-3.6-1-5.7,1.3c-2.1,2.4-2.1-0.7-5.4-0.3c-3.4,0.5-4.6,3.1-4.6-1s2.1-5.1,6-6.8   c3.9-1.5,6.8-3.6,10.1-8.5c3.4-4.9-0.5-7.5-4.4-9s-4.6-2.4-6-7c-0.9-3.3-1.5-9.5-0.7-14.4C713,725.3,697,731.9,696.4,738.5z" stroke-miterlimit="10" stroke="#FFFFFF"/>
	<path name="万盛区" fill="#D3D3D3" id="path25" d="M397.1,696.1c-3.4-2.5-3.6-2.8-2-6.4c1.6-3.6,0-4.8-3.4-9.3   s-5.9-4.8-9.8-4.8c-1,0-1.6-0.5-2.1-1.4c-3-0.1-9.8-0.5-7.6,2.6c2.4,3.5,0,5.4-1.9,10.5s2.1,4.3,2.1,7.5s-9.9,15-14.3,17.1   c-4.3,2.1,0.5,6.5,3.8,8.4s5.1,18.3,5.1,23.4c0,4.1,3.8,6.9,5.3,7.9c-0.3-1.3-0.1-2.6,0.1-4.4c0.5-3.6,7.8-8.8,9.9-10.6   c0.1-0.1,0.6-0.5,0.4-0.1c-0.5,0.6-1.2,2.2,1.4,4c4.4,2.9,3.1-3.9,2.9-7.8c-0.3-3.9,0.3-3.4,2.6-6.5s3.9-2.4,7.2-2.1   c3.4,0.3,5.8,1.8,6.5,0c0.4-0.8,0.6-1,1-1.3c-0.8-2-3.1-8.4-3.1-15.9C401.3,698.3,400.5,698.6,397.1,696.1z" stroke-miterlimit="10" stroke="#FFFFFF"/>
	<path name="南川市" fill="#D3D3D3" id="path26" d="M451.9,646.4c0.6-5.8,2.3-6-1.9-7s-1-3.5-1-6s-1.3-3.1-4.1-1.6   c-2.9,1.6-2.9,1.3-7-2.2s-5.1-2.9-7.6-5.8c-1-1.1-1.5-1.6-1.9-2c-2.1,7-5.5,6.1-6.9,1.3c-1.4-5-2.9-5.6-5.9-6.6   c-3-0.9-7.3,10-10.1,10.1c-2.9,0.1-8.9-6.3-7.8-15.1c0.9-7.5-9.5-8.4-12.9-8.4c-3.5,15-6.4,30-4.5,33.5c3.6,6.8,8.4,12.5,4.1,16.1   c-3.8,3.3-8.3,5.4-7.6,9c0.4,0,0.8,0,0.8,0s-0.3,0-0.8,0c0.1,0.4,0.1,0.9,0.4,1.3c1.5,3.4,1.3,8.6,2.6,11.1c0.4,0,0.6,0,0.9,0   c-0.3,0-0.5,0-0.9,0c0.5,0.9,1.1,1.4,2.1,1.4c3.9,0,6.4,0.3,9.7,4.8c3.4,4.5,5,5.6,3.4,9.3s-1.4,3.9,2,6.4s4.1,2.3,4.1,11.1   c0,7.5,2.4,13.9,3.1,15.9c0.6-0.3,1.4-0.1,2.9-0.6c2.6-0.8,6.3,4.1,8.3,7.3c2.1,3.1,6.5,5.4,7.3,10.9c0.7,5.5,3.4,4.9,4.9,2.4   c1.5-2.6,4.1-4.4,6-5.4c1.8-1,5.1-2.9,5.1-5.1c0-2.4,1.5-2.9,3.9-1.8c2.4,1,3.9-1,3.9-4.4s2.9-6.3,4.6-8.5c1.8-2.4,1.3-2.9-0.8-3.4   c-2.1-0.5-2.4-4.6-5.8-7s-0.3-6.8,0.5-11.1s-2.4-4.1-2.6-7c-0.3-2.9,2.4,1.3,6-0.5s0.5-8-0.8-10.9s0-3.1,2.4-6   c0.8-0.9,1.6-1.1,2.4-0.8C451.8,666.3,451.3,651.9,451.9,646.4z" stroke-miterlimit="10" stroke="#FFFFFF"/>
	<path name="江津市" fill="#D3D3D3" id="path27" d="M304.6,691.8c-2.1-5.1-1.3-15.1,2.1-13.9   c3.5,1.3,5.1-11.3,10.8-6.5c5.6,4.7,13,15.1,15.5,8.3c2.6-6.9-5.6-13.4-2.6-17.8c0.3-0.4,0.6-0.8,0.9-1.1   c-8.3-0.4-4.6-5.6-5.1-10.3c-0.5-4.6-3.1-4.9-4.6-5.8c-1.5-0.9-1.4-1.4-1-4.9s-0.1-3.5-2.4-5.9s-1.3-7.6-1.8-10.1   c-0.5-2.6-5.6,2.8-9.3,5.5c-3.6,2.8-0.5,3.3,0.5,6c1,2.8,0.5,3.5-2.6,3.8s-6.5,0-10.5,2.4s-6.3-7.9-8.1-11.8   c-1.9-3.8-4.1-3.6-1.3-4.5c2.9-0.9,1.5-2.9,2.3-4.6c0.8-1.8,2.6-2.1,5-2.1s1.5-0.1,0-5.1c-1.3-4.1-7.3-5.3-9.1-5.5   c-0.1,1.6-0.5,3.3-1,4.5c-2.4,5.3-1.4,7.6-5,12.9s-13.5,11.3-17.9,7.9c-3.4-2.5-6.3-6.9-7.4-8.8c-0.5,2.4-1,4.4-1.4,5.8   c-1.9,7.2-9.1,30.4-16.4,31.3c-7.3,0.8-2.3,0.4-1.5,5.4s1.9,3.8-3.4,6.9c-5.4,3-1.1,8.4-6.1,10.3c-4.9,1.9-0.9,29.6-0.8,30   c1.5,0.9,0.4,1.9,0.5,5.8c0.2,4.1,8.3,0.8,11.1,0.3c2.9-0.5,0.5,4.6,3.1,4.9s6.5-8.3,8.8-10.9c2.4-2.6,2.9-1.3,4.9-1   c2.1,0.3,6,4.9,6.3,8.5s2.6,2.9,8,2.9s8.8,1.5,12.1-0.5c3.4-2.1,7.3,6,11.6,10.4s1.8,8.3,2.4,14c0.5,5.8,7.3,10.4,7.3,15.8   c0,5.4,0.3,7.3,3.1,9.6c2.9,2.4,0.8,6.5-0.5,9.4s-0.8,4.1,3.4,4.6c4.1,0.5,6.8-2.4,9.4-4.1c2.6-1.8,8.8,4.4,11.4,3.9   s-2.4-3.1-3.6-6.3s2.6-4.6,6-6.3c3.4-1.5,1.5-7.2,0.5-11.4c-1-4.1-4.4-10.1-7.5-11.9s-3.4-4.1-1.3-6.3s0.8-3.1,0.3-8   c-0.1-1.4,0-2,0.2-2.4c-1.1-2.1-9.8-18-9.8-25.3C310.3,702.1,306.8,696.9,304.6,691.8z" stroke-miterlimit="10" stroke="#FFFFFF"/>
	<path name="永川市" fill="#D3D3D3" id="path28" d="M252.3,624.6c2.7-9.7,5.4-27.1,6.4-33.9   c-4.6,3.5-9.4,2.2-19.5,0.9c-6.7-1-8.4-2.6-8.6-3.6c-1.5,1.4-3,2.5-4.5,3.9c-5,4-2.5,22.1-5.6,28c-2.5,4.6-6.5,8.1-8.8,4.5   c-2.6,6-13.5,30.8-13.9,38.3c1.3,0.3,2.3,0.5,3.1,0.8c2.9,0.8,3.9-3.6,6.5-6.5s0.8,2.4,0.2,6.3c-0.5,3.9,0.5,5.1,1.8,8.3   s1.5,3.4,1.3,6.8c-0.3,3.4,2.6,6.3,2.6,9.6s-1.3,5.4,1.5,7.8c2.9,2.4,1.7,5.1,2.1,11.1c0.2,6,3.1,6.3,5.4,7.3   c0.3,0.1,0.4,0.1,0.5,0.3c-0.1-0.3-4.1-28.1,0.8-30c5-1.9,0.8-7.3,6.1-10.3c5.4-3,4.1-1.9,3.4-6.9c-0.8-5-5.8-4.6,1.5-5.4   c7.3-0.8,14.5-24,16.4-31.3C251.3,629.1,251.6,627.1,252.3,624.6z" stroke-miterlimit="10" stroke="#FFFFFF"/>
	<path name="酉阳土家族苗族自治县" fill="#D3D3D3" id="path29" d="M651.9,669.3c-8.8-1-4-0.4-8.8,2.8c-4.8,3-2.8,4.4-8.8,2   c-6.1-2.4-1.4,0.4-6.1,3.4s-5.8-3-9.1-8.8c-1.4-2.4-2.5-3.4-3.5-3.6c-0.1,0-0.1,0-0.1,0s0,0,0.1,0c-1.5-0.4-2.8,1.1-4.3,2.9   c-2.4,3-5.4,7.4-10.5,6.8c-5-0.6-20.9,16.1-21.3,16.5c0,0.3,0,0.5-0.1,0.8c-0.8,2.1,1.3,8.3,1.3,14.2c0,6,2.4,7.5,5.1,9.6   c2.9,2.1,0.3,8,0.3,13c0,4.9,1,5.4,3.1,8.5s1,4.6,0,8.3c-1,3.6-1.8,9-1.8,11.4s2.1,4.4,5.4,7.2c3.4,2.9,11.6,5.8,14,6.5   s7.3-3.1,9-6c1.8-2.9,3.6-2.9,4.6-0.8c1,2.1,4.6,2.6,6.8,3.4c2.1,0.7,2.9,2.1-0.3,4.9c-3.1,2.9-2.1,3.4-1.5,5.8   c0.5,2.4,1.8,1.8-1.5,2.1c-3.4,0.3-2.1,2.4-2.6,8.3c-0.5,6,1,8.2,4.9,11.1c3.9,2.9-3.4,8.5-4.1,11.9c-0.8,3.4,0.3,1.8,2.9,5.4   s4.9,1.8,9.6,1.8c4.6,0,3.4-2.1,1-3.1s-0.8-4.4-0.3-6.8c0.5-2.4-1-4.6-2.9-7.8c-1.8-3.1,1-4.6,4.1-5.1s3.4-3.1,4.6-5.1   c0.3-0.4,0.5-0.4,0.9-0.3c0.8-3.4,5.5-12.4,7-15c1.8-3,13.5-12,23-12.8c9.4-0.8,8.4-12,11.8-12.3c3.4-0.3,11.5-3.9,12.2-11.8   c0.6-6.8,16.6-13.4,21.5-15.1c0.4-2,0.9-3.9,1.9-5c3.1-4.1,5.7-12.6,8.5-20.5c2.9-7.8-4.1-8-7.5-8.3s-3.6-1-3.6-4.1   s-3.9-6.3-6.8-9.6s-2.9-1.8-8.5-1.8c-5.8,0-1.9-5.4-0.8-11.4c1-6,0-6.3-2.1-9.9s-1-8.3-1-11.1c0-2.9-3.9-2.6-7.3-4.6   c-3.4-2.1-2.4,2.6-3.9,5.4c-1.5,2.9-3.4,4.4-7.5,4.6s-5.4,3.4-9,4.1c-0.8,0.1-1.3-0.1-1.4-0.9c-1.6,2.6-6.5,9.6-7.9,14.8   C659.8,670.6,660.8,670.3,651.9,669.3z" stroke-miterlimit="10" stroke="#FFFFFF"/>
	<path name="武隆县" fill="#D3D3D3" id="path30" d="M428.3,621.8c0.3,0.5,0.9,0.9,1.9,2c2.5,2.9,3.5,2.2,7.6,5.8   c4.1,3.5,4.1,3.8,7,2.2s4.1-1,4.1,1.6c0,2.5-3.1,5.1,1,6c4.1,1,2.5,1.3,1.9,7c-0.6,5.5,0,19.9,0.9,24.5c1.8,0.5,3.6,2.9,5.9,3.9   c3.4,1.5,8.3-2.9,11.4-5.1c3.1-2.4,2.4,2.4,3.9,6.8c1.5,4.4,5.1,0.8,7,0.3c1.7-0.5,3.1-1.3,3.1,2.4s0,1.5,4.1,2.4   c4.1,0.8,5.1-3.1,5.8-5.1c0.5-2.1,3.4-3.1,4.6-1s3.1,3.9,5.1,6.3c2.1,2.4,0.8,0.5,0.3,4.1c0,0.3,0,0.5-0.1,0.8   c2.9-1.5,15.1-8.3,16.1-15.8c1.1-8.5,4.8-14.8,7.1-14.8s10.4-10.9,9.8-18.3s-1.1-21.5,0.6-26.9c1.6-4.8,9.6-19.3,11.1-22.1   c-0.4-0.1-0.9-0.3-1.3-0.4c-4.9-1.8-9.8-3.5-12.4-0.9s-7.1,0.5-7.5-3.5c-0.5-4-5.3-4.9-10.6-5.3s-3.1,9.3-3.1,15s-3.5,3.1-6.6-0.5   c-3.1-3.5-2.3-5.3-8.9-5.3c-2.8,0-3.6-0.3-3.8-1c-1.1,2-4.6,7.6-7.3,9.5c-3.1,2.3-13.6,6.6-12.8,9.5c1,2.9,2.9,3.5,0,6   s-4.8,4.1-6.6-1s-5.4-9.9-7.9-7.6s-5.4,3.5-7.6-0.4c-2.3-3.9-6-5.8-7-3.5c-1,2.2-1.6,4.1-5.1,4.5s-1,5.1-5.4,7.9   c-4.5,2.9-10.1,5.8-8.3,7.9C427.5,621,427.8,621.1,428.3,621.8z" stroke-miterlimit="10" stroke="#FFFFFF"/>
	<path name="丰都县" fill="#D3D3D3" id="path31" d="M548.5,588.8c-0.4-0.1-0.9-0.3-1.3-0.4c-4.9-1.8-9.8-3.5-12.4-0.9   s-7.1,0.5-7.5-3.5c-0.5-4-5.3-4.9-10.6-5.3s-3.1,9.3-3.1,15s-3.5,3.1-6.6-0.5c-3.1-3.5-2.3-5.3-8.9-5.3c-2.8,0-3.6-0.3-3.8-1l0-0.2   c-0.3-1,1.1-2.9,1.1-6c0-5.3-3.5-3.6-8.4-5.8c-4.8-2.3-2.6-8.4-2.6-13.3s0-4.9-2.2-8.9c-2.3-3.9-1.9-3.4-1.4-9.2   c0.5-5.6-1.7-8.7-6.6-13.6c-4.8-4.9-7-3.5-12.8-4.9c-2.2-0.6-3-1.5-3.5-2.5c5.3-7,11.2-14.4,14.1-17c5.4-4.7,5.1-4.7,4.8-8   c-0.2-3.2-1.1-4.1,1.5-5.6c1.7-1,2-2,2-2.6c0.1-0.2,0.3-0.2,0.4-0.3c5.6-3.9,8-13.4,10.4-9.5s-1.5,3.6,8.3,3.3   c9.8-0.2,3.5,0.9,3.5,3.9c0,2.9,8.3,3.5,8.3,3.5s3.5,1.5,0.9,5.4c-2.6,3.9-2,6.3,3,6.3s6.9,0.6,9.5,4.1c2.4,3.1,8.1,6.3,12.5,6.9   c0.3,1.9,1.3,7.2,2.1,11.3c1,5.3-0.8,7.1,2.5,10.4c3.2,3.3,2.5,6.6,3.5,10.4s3.8,3.3,6.6,3.3c2.7,0,10.8,2.3,12.1,6.4   c1.3,4.3,1.3,6.9-1.5,10.9c-2.6,4-2.3,10.1-4.6,11.1c-2.3,0.8-2.6,1.8,1.5,4.1c3.2,1.6,4.3,3,4.8,3.6c-0.7,1-1.2,1.8-1.8,2.6   c-1.7,2-8.9,2.9-13.8,1.6L548.5,588.8z" stroke-miterlimit="10" stroke="#FFFFFF"/>
	<path name="双桥区" fill="#D3D3D3" id="path32" d="M211.6,624.4c2.2,3.7,6.4,0.1,8.8-4.5c3.1-5.9,0.6-24,5.6-28   c1.6-1.3,3-2.5,4.5-3.9c-2.8,0.7-11-0.3-16.3,1.3c-4.8,1.5-11.5,11.4-16.2,13.3c0.5,0.3,1,0.7,1.5,1.1c6.3,4.6,9,6.3,10.6,16.1   C210.5,622,211,623.4,211.6,624.4z" stroke-miterlimit="10" stroke="#FFFFFF"/>
	<path name="大足县" fill="#D3D3D3" id="path33" d="M230.5,588c4.3-1.1,6.5-6.5,10.8-12.6c6.3-9,17.1-14.6,10.9-18   c-6.3-3.4-11.9-1.9-15.5-3.4c-3.8-1.5-4.6-7.8-5.3-3.4s-3.1,8.1-7.1,5.6c-3.9-2.4-10.1-2.6-8.4-8.4c-0.4,0.3-0.8,0.4-1.1,0.6   c-3.6,1.6-4.9-0.5-5.3-1.6c-0.2,1.1-0.5,2.1-0.5,3.1c0,4.4,4.9,5.4,5.1,8.3c0.3,2.9-7.8,4.6-13.5,5.8c-5.8,1-8.8,4.9-9.4,8   c-0.5,3.1-2.6,9.6-4.1,13.3c-0.1,0.4-0.4,0.6-0.5,0.9c-0.6,2.3-1.4,7.4,1.4,10.1c3.4,3.4,5,2.9,10,6.4c4.7-2,11.4-11.8,16.2-13.3   C219.5,587.7,227.7,588.7,230.5,588z" stroke-miterlimit="10" stroke="#FFFFFF"/>
</g>
<g id="图层_2">
</g>
<g id="图层_3">
</g>
</svg>