<?xml version="1.0" encoding="UTF-8" standalone="no"?><!-- Generator: Adobe Illustrator 18.0.0, SVG Export Plug-In . SVG Version: 6.00 Build 0)  --><svg xmlns="http://www.w3.org/2000/svg" xmlns:xlink="http://www.w3.org/1999/xlink" contentScriptType="text/ecmascript" zoomAndPan="magnify" contentStyleType="text/css" id="图层_1" mapName="青海省" mapType="省市地图" enable-background="new 0 0 800 600" version="1.1" xml:space="preserve" preserveAspectRatio="xMidYMid meet" viewBox="0 0 800 600" x="0px" y="0px">
<g>
	<path name="西宁市" fill="#D3D3D3" id="path0" d="M687.9,234c-0.6-1.8-1.7-4.3,0-5.8c1.7-1.5,4.3-3.7,2-5.7   c-2.3-2-4-4-4.5-4.9c-0.5-0.9-0.6-7.8-1.2-10.9c-0.6-3.1-2.9-5.2,0.6-8.2c3.2-2.6,7.6-10.5,8.4-12.1c-4-3-9.1-4.8-11.4-6.2   c-2.6-1.6-6.9-0.4-8.8-2c-1.9-1.6,1.2-3.6-12.2-4.5c-13.3-0.9-11-2.3-13.3-3.5c-2.3-1.2-5.9,0.6-7.2,3c-1.3,2.5,0,6.2,3.5,7.1   c3.5,0.9,4.9,0.9,6.8,3.8c1.9,2.9,1.4,3.6,4.3,4.9c2.9,1.3,2.9,2.2,1.9,4.2c-1,2,4.3,3,4.1,5.7c-0.3,2.6-1,3-1.4,6.4   c-0.4,3.3-1.7,3.4-3.5,2.7c-1.7-0.8-3.6-0.1-4.3,1.2c-0.7,1.3-2.9,2.9-5,1.8c-2-1.1-6.5-3.7-7.3-0.8c0.8,1.4,0.4,3.5,1.2,6.2   c1.1,3.6,4.9,9,8.5,12.6c3.6,3.6,4.5,7.3,7,9.3c2.5,2,3.3-1.3,3.8-2.9c0.5-1.6,7.4-0.4,11.1,2c3.7,2.4,4.9,0.5,5.3,0.9   c0.1,0.1,0.2,0.2,0.3,0.3c0.5-0.1,2.5-0.6,6-0.7C686.6,237.7,688.5,235.8,687.9,234z" stroke-miterlimit="10" stroke="#FFFFFF"/>
	<path name="海西蒙古族藏族自治州" fill="#D3D3D3" id="path1" d="M561.9,184.8c0-1.6,2.2-9.5,1.9-13.7c-0.3-4.2,0.7-7.1,2.3-9   c1.6-1.9,7.9-5.5,7.5-8.8c-0.4-3.3-1.2-8.2-3.9-10.8c-2.6-2.6-3.2-2.8-6.3-2.8c-3.2,0-8,0.6-6.2-2.4c1.9-3,2.6-4.5,6-4.5   c3.4,0,10.8-1.5,11.6-3.7c0.7-2.2-3-6.2-6.9-6.2c-3.9,0-9-3.7-11.2-4.5c-2.2-0.7-2.2-0.9-5.8,0.6c-3.5,1.5-8.6,0.9-8-1.3   c0.6-2.2,2.8-5,0.4-5.8c-2.4-0.7-2.1-1.9-5-1.5c-3,0.4-6.7-2.2-9.3-3c-2.6-0.7-7.6,1.1-15.5-5.6c-7.8-6.7-11.9-8.6-14.9-8.4   c-2.7,0.2-4.3-4.1-4.9-5.8c-1.8-0.3-4.7-2.8-7.6-4.6c-3.6-2.3-8.9-6.1-11.9-6.8c-3-0.8-5.7-2.3-7.8-4c-2.1-1.7-8.9-7.4-12.5-8.9   c-3.6-1.5-8.5-2.5-11.5-0.8c-3,1.7-3.4,3.8-2.5,6.1c0.9,2.3,0.4,4.5,0.6,6.8c0.2,2.3,1.7,4.5,0,5.9c-1.7,1.3-1.3,2.5,0.9,3.6   c2.3,1.1-0.4,4.7-0.2,6.6c0.2,1.9-0.6,1.3-1.9,2.3c-1.3,0.9-1.7,3.6,0.2,5.1c1.9,1.5,1.5,2.3,0.8,5.5c-0.8,3.2,0,5.7,0,8.1   s-2.3,2.8-4,2.1s-3.2-1.5-6.4-3c-3.2-1.5-2.6-2.5-6.4-3.2c-3.8-0.8-4.3-1.3-4.9-4.4c-0.6-3-0.4-2.5-2.5-3.2c-2.1-0.8-4.2-1.9-6.2-4   c-2.1-2.1-1.9-1.1-4.2-0.4c-2.3,0.8-3.6-0.2-4.7-2.5c-1.1-2.3-1.5-1.5-3.8-0.4c-2.3,1.1-1.7-1.7-2.6-4.5c-0.9-2.8-0.6-3.2-3.6-3.2   c-3,0-4.2-2.3-6.1-4.5c-1.9-2.3-2.3-2.5-5.5-2.8c-3.2-0.4-4.9-4.5-7-8.1c-2.1-3.6-6.8-6.3-10.6-8.1c-3.8-1.9-12.3-2.1-16.5-2.8   s-14.9-6.8-17.8-8c-2.8-1.1-7.9-2.3-10.4-1.5c-2.5,0.8-10.2-0.6-10.2-0.6s-3.6-1.7-6.6,0c-3,1.7-7,0.8-13.6,1.1   c-6.6,0.4-11.2,2.1-14.8,0c-3.6-2.1-2.5-0.2-4,1.7c-1.5,1.9-2.5,2.7-5.1,2.3c-2.6-0.4-3.4-1.1-6.1,0.2c-2.6,1.3-6.4,2.5-10.2,2.5   c-3.8,0-12.9,1.7-19.7,1.7c-6.8,0-14.4,6.3-16.5,6.6c-2.1,0.4-4.2,0.4-7.6,2.5c-3.4,2.1-8.3-0.4-11.3,2.5c-3,2.8-13,4.7-14.7,4.7   c-1.7,0-6.4,0.2-9.5,1.9c-3,1.7-9.6,4.2-11.7,4.2c-2.1,0-11.3,1.9-14.2,2.1c-2.8,0.2-6.4,1.5-10.2,0.6c-3.8-0.9-4.5-0.8-4.9,0.9   c-0.4,1.7-2.1,2.8-4.9,3.4c-2.8,0.6-5.1,1.7-7.9,4.9c-2.8,3.2-4.5,1.9-9.8,2.5c-5.3,0.6-0.6,9.3,1.5,11c2.1,1.7,1.9,3.6,1.9,6.3   c0,2.7,4.3,8.9,6.2,12.5c1.9,3.6,0.2,4.4-2.5,6.1c-2.6,1.7,0,7,2.3,10c2.3,3,7.2,2.3,8.1,2.3c0.9,0,7.6,6.1,7.6,6.1   s0.6,0.4,2.3,1.1c1.7,0.8,1.1,1.5,1.3,4.2c0.2,2.7,3.4,2.7,5.5,4.4c2.1,1.7,4.2,1.1,5.1,1.5c0.9,0.4,2.3,0.9,2.1,3.8   c-0.2,2.8,1.3,3.4,2.1,5.9c0.8,2.5,2.5,1.3,2.5,3.8s0.4,5.1,3.2,6.8c2.8,1.7,0.6,4.2,0.6,6.3s-2.3,3.6-4.5,2.1   c-2.3-1.5-3.2-0.8-4.5,1.7c-1.3,2.5-1.9,0.4-3.6,2.5c-1.7,2.1-5.7,1.1-8.5,1.1s-7.8,3.6-9.8,6.3c-2.1,2.7-0.4,3.8,0.6,5.5   c0.9,1.7,0.9,1.7-1.1,2.8c-2.1,1.1-0.6,0.9-0.2,3.4c0.4,2.5,1.7,2.5,6.2,4.4c4.5,1.9,5.1,1.3,6.6,1.3c1.5,0,3,4.5,2.8,6.4   s0.6,8.7,0.6,11.7c0,2.9,1.5,5.8,2.7,8.5c2.3,0.9,10.1,3.9,15.1,3.7c5.9-0.2,9.8,7.3,17.7,8c7.9,0.7,13.6,6.4,20.7,7.3   c7,0.9,23.4,3.6,27.9,4.5c4.5,0.9,17.5,0,20.2,3c2.7,3,7.9,2.7,11.1,3c3.2,0.2,9.5,2.3,14.3,3.2c4.8,0.9,12.7-0.9,16.3,1.1   c3.6,2,11.3,5.2,22.1,5.8c10.8,0.6,12.8,0.9,12.8,7.2c0,6.3,3.5,6.1,7.2,7.1c3.7,0.9,3.5,2.6,10.6,1.7c7.1-0.9,9.8,0.7,13.4,2   c3.5,1.3,7.6,8.7,11.7,8.7c4.1,0,9.6-0.7,14.1,5.4c4.5,6.1,5.3-1.1,12.5-1.1c7.2,0,6.1,0.9,8.5-2.7c2.4-3.6,6.9-9.4,10.5-6.9   c3.6,2.5,8.8,0.9,10.5,4.2c1.7,3.3,5.2,8,8.2,0.3c3-7.7,11.5-9.9,13.6-12.9c2.2-3,3.9-6,5.2-1.3c1.3,4.7,2,5.5,6.7,7.2   c4.7,1.7,9.7,4.2,11.8,4.2c2,0,5.6,2.5,8.3,0.6c2.7-1.9,2.7-4.5,5.6-2c3,2.5,14.2,5.4,20.7-0.2c6.6-5.6,6.2-2.9,8.1-5.4   c1.9-2.5,4.7-1.5,8.3-1.5c3.5,0,7.1,2.7,9.6-1.3c2.5-4,7.2-3.5,8.1-5.2c0.8-1.7,2.4-2.5,3.5-0.3c1.2,2.2,5.4,2.9,6.7-0.2   c1.3-3,2.7-4.4,5.7-4.4c1.6,0,4.2-1.6,6-1.2c-0.1-0.6-0.3-2.3,1.2-3.8c1.9-1.9-3.7-4.2-6.2-6.7c-2.5-2.5-0.8-12.8-1-16.5   c-0.2-3.7-4.4-3-7.2-4.7c-2.9-1.7-0.7-3.9,0.3-4.5c1-0.7,0.2-3.4,0-5.7c-0.2-2.4,8.4-7.8,11.1-9.8c2.7-2,1.5-4,0.5-6.4   c-1-2.4,0.5-6.6,3.9-8.9c3.4-2.4,1-5.3-0.7-7.5c-1.7-2.3-0.7-4.4-2.8-6.7c-2-2.3-0.7-5.5-0.7-8s0.2-4.1,3.6-5.2   c3.4-1.1-0.7,1.1,7.3,2.3c8,1.2,3.4,0.5,3.6-1.4c0.2-1.3,0.8-1.9,1.8-2C568.5,190.9,561.9,186.5,561.9,184.8z" stroke-miterlimit="10" stroke="#FFFFFF"/>
	<path name="果洛藏族自治州" fill="#D3D3D3" id="path2" d="M692.2,424c1.5-2.5,2.6-4,1.1-5.5c-1.5-1.5-3,3-6.4,2.5   c-3.4-0.6-2.5-6.4-3-9.5c-0.6-3-1.5-3.4-4.2-3.6c-2.6-0.2-3.8,0.8-5.5,2.8c-1.7,2.1-3.4,1.7-5.3,0.8c-1.9-0.9-3.4-0.9-6.6-0.8   c-3.2,0.2-0.8-5.9-1.1-8.9c-0.4-3-3.8-1.9-5.9-4c-2.1-2.1-3.2,0-4.7-0.2c-1.5-0.2-3.2-3-3.2-5.7c0-2.7-1.9-3.2-3.6-5.7   c-1.7-2.5-0.4-3.4-4.2-4.5c-3.8-1.1-0.2-6.4,0.2-8.9c0.4-2.5,3.2-4.5,4-5.9c0.2-0.4,0.7-0.7,1.3-0.9c0.3-2.2,1-7.4,0.9-8.9   c-0.1-1.9-1.5-8.5-3.1-12.1c-1.6-3.6-2.8-0.2-5.9,1.6c-3.1,1.8-5-0.9-7.7-1.5c-2.7-0.6-6.4-5.1-8.3-6.3c-1.8-1.2-5.2-0.4-7.7-1.4   c-2.5-1-2.9,0.2-10.3,1.9c-7.4,1.7-8.4,0-14.7-1.9c-6.2-1.9-11.3-4.4-15.3-5.2c-4-0.8-6.6-2.7-10.1-8.8c-3.5-6.1-5.9-9.6-10.8-12   c-4.9-2.4,3-5.1,4-17c1-12-5.2-6.4-8.3-6.4c-3,0-4.4,1.3-5.7,4.4c-1.3,3-5.6,2.4-6.7,0.2c-1.2-2.2-2.7-1.3-3.5,0.3   c-0.8,1.7-5.6,1.2-8.1,5.2c-2.5,4-6.1,1.3-9.6,1.3c-3.5,0-6.4-1-8.3,1.5c-1.9,2.5-1.5-0.2-8.1,5.4c-6.6,5.6-17.7,2.7-20.7,0.2   c-3-2.5-3,0.2-5.6,2c-2.7,1.9-6.3-0.6-8.3-0.6c-1,0-2.6-0.6-4.6-1.4c-0.3,2-1.4,9.5-2.8,11.2c-1.6,2-3.1,2-3.1,4.4   c0,2.5-1,9.7-4.4,10.5c-3.4,0.8-7.9,2.3-8,5.9c-0.2,3.6,0.8,12.3,4.4,12.5c3.6,0.2,9.3-1,9,1.2c-0.3,2.1-3,8.2-0.5,7.6   c2.5-0.7,4.4-2.3,6.7,1.2c2.3,3.5,0.8,5.9,4.6,9.7c3.8,3.8,2.8,8.8,3.7,6.9c0.9-1.9,2.9-3.5,4-0.7c1.1,2.8,3.1-1.5,3.5,3.2   c0.3,3.8,1.3,8.9,1.7,10.8c0.8-0.1,1.8,0.3,2.5,1c1.1,1.1,0.2,6.8,0.2,8c0,1.1,0,0.9,3.4,1.3c3.4,0.4,6.4-4.5,7.6-5.7   c1.1-1.1,7.6,1.5,11.2,1.7c3.6,0.2,3.2,3.8,3.2,5.5c0,1.7,3.6,0,5.9-0.9c2.3-0.9,5.3,1.5,7.2,3.4c1.9,1.9,4.9,6.8,6.8,8.7   c1.9,1.9,0.2,2.5,0.6,4.5c0.4,2.1,0.2,4.2,2.6,6.1c2.5,1.9,3,2.5,3,4.4s0.9,2.7,1.1,5.3c0.2,2.7,0.8,4.9,1.9,7   c1.1,2.1,0.8,4.2,2.1,5.5c1.3,1.3,6.2,3.6,7.9,4.9c1.7,1.3,1.9,1.5,2.3,0c0.4-1.5,5.3,1.5,7.9,2.5c2.6,0.9,3.4,6.6,4,8.9   c0.6,2.3,3,2.3,4.5,1.7c1.5-0.6,0.2,0.4,2.6,1.1c2.5,0.8,4.4,0.2,6.4,1.3c2.1,1.1,2.5,3.4,5.5,3.6c3,0.2,4.2,0,6.1,1.9   c1.9,1.9,3-2.1,3.4-5.3c0.4-3.2-1.7-3.2-2.1-5.1c-0.4-1.9,1.3-2.5,3.4-1.9c2.1,0.6,2.8-2.3,3.8-4.7c0.9-2.5,3,1.1,3.2,3.2   c0.2,2.1,1.9,1.3,3.6,1.3c1.7,0,2.6,0.8,4.9,3.4c2.3,2.7,2.8,11,1.7,13.6c-1.1,2.7,0.9,1.5,3.6,3.2c2.6,1.7,2.8-0.2,2.8-2.3   c0-2.1,0.6-2.3,1.7-4.4s5.1,0,7.2,0c2.1,0,7.6,5.3,8.5,8c0.9,2.7-2.5,4.9-4.2,5.7c-1.7,0.8-0.2,3.4,0.2,5.3   c0.4,1.9,2.1,1.7,3.8,0.6c1.7-1.1,4.7-3.6,4.7-5.5s0.6-1.9,2.5-3.2c1.9-1.3-1.7-3.8,0.4-3.4c2.1,0.4,3-0.2,1.1-2.7   c-1.9-2.5,0.9-0.6,2.8-0.6c1.9,0,4,0,6.2,0.9c2.3,0.9,6.4,1.1,9.1-1.7c2.6-2.8,4-1.3,5.1-0.8c1.1,0.6,5.1-0.2,5.1-5.7   c0-5.5-1.5-8.1-3.8-9.3c-2.3-1.1-2.1-1.1-2.5-3.2c-0.4-2.1,0-4.9,0.6-7.4c0.6-2.5,2.1-2.5,0.9-4.4c-1.1-1.9,1.1-3,5.7-4.9   c4.5-1.9,4,0.2,6.4,1.3c2.5,1.1,2.3-3.4,4.3-4.4c2.1-0.9,6.6,4.7,8.5,6.8c1.9,2.1,2.1,0.6,1.1-1.7c-0.9-2.3,0.4-4.9,1.7-6.3   c1.3-1.3,3.4-4.2,0.9-3.8c-2.5,0.4-3.6,1.5-3.8-2.1C686.7,428,690.7,426.5,692.2,424z" stroke-miterlimit="10" stroke="#FFFFFF"/>
	<path name="玉树藏族自治州" fill="#D3D3D3" id="path3" d="M472.3,377c-1.1-2.8-3.1-1.2-4,0.7c-0.9,1.9,0.1-3.1-3.7-6.9   c-3.8-3.8-2.3-6.2-4.6-9.7c-2.3-3.5-4.3-1.8-6.7-1.2c-2.5,0.7,0.2-5.4,0.5-7.6c0.3-2.1-5.4-1-9-1.2c-3.6-0.2-4.6-8.9-4.4-12.5   c0.2-3.6,4.6-5.1,8-5.9c3.4-0.8,4.4-8.1,4.4-10.5c0-2.5,1.5-2.5,3.1-4.4c1.4-1.7,2.6-9.2,2.8-11.2c-2.2-0.9-4.7-2-7.2-2.9   c-4.7-1.7-5.5-2.5-6.7-7.2c-1.3-4.7-3-1.7-5.2,1.3c-2.2,3-10.7,5.2-13.6,12.9c-3,7.7-6.4,3-8.2-0.3c-1.7-3.3-6.9-1.7-10.5-4.2   c-3.6-2.5-8.2,3.3-10.5,6.9c-2.4,3.6-1.3,2.7-8.5,2.7c-7.2,0-8.1,7.2-12.5,1.1c-4.5-6.1-10-5.4-14.1-5.4c-4.1,0-8.2-7.4-11.7-8.7   c-3.5-1.3-6.3-3-13.4-2c-7.1,0.9-6.9-0.7-10.6-1.7c-3.7-0.9-7.2-0.7-7.2-7.1c0-6.3-2-6.7-12.8-7.2c-10.8-0.6-18.5-3.7-22.1-5.8   c-3.6-2-11.6-0.2-16.3-1.1c-4.8-0.9-11.1-3-14.3-3.2c-3.2-0.2-8.4,0-11.1-3c-2.7-3-15.7-2-20.2-3c-4.5-0.9-20.9-3.6-27.9-4.5   c-7-0.9-12.7-6.6-20.7-7.3c-7.9-0.7-11.8-8.2-17.7-8c-5,0.2-12.8-2.8-15.1-3.7c0.1,0.1,0.1,0.3,0.2,0.4c1.1,2.8-1.5,4-4.5,2.8   c-3-1.1-3.8,0.8-4.2,3c-0.4,2.3-1.7,1.7-4.5,1.7c-2.8,0-4.9-4.4-8.5-7s-8.3-2.7-12.9-2.7c-4.5,0-6.1-2.5-10-3   c-4-0.6-7.2-2.5-9.6-5.5c-2.5-3-2.3,0.4-2.6,2.8c-0.4,2.5-2.6,1.9-4.7,5.1c-2.1,3.2-9.8,2.8-13.8,2.8c-4,0-4.9,2.8-8.5,1.3   c-3.6-1.5-4,0.2-4.3,3.4c-0.4,3.2,2.1,4.5,3.2,4.7c1.1,0.2,1.1,0.8,3.2,2.8c2.1,2.1,8.5,0.6,11,0.6c2.5,0,0.9,4.4-0.6,6.1   c-1.5,1.7-1.5,4.7-1.5,7c0,2.3-0.8,4-3,4.2c-2.3,0.2,0.6,5.9,0.2,8.3c-0.4,2.5-1.3,3.2-4.3,2.8c-3-0.4-4.3,1.7-7.4,1.5   c-3-0.2,0,3.8,0.2,6.3c0.2,2.5-3.4,3-3.4,5.1c0,2.1,3.6,5.1,4.9,7.4c1.3,2.3-1.7,8.5-0.9,11c0.8,2.5,2.3,3.6,3.8,2.1   c1.5-1.5,3.2-0.6,5.9-0.6c0.9,0,1.5,0.3,2,0.7c1.6-0.4,5-1.1,6.4-0.1c1.9,1.3,5-3.5,8.6-0.8c3.6,2.6,2.6,1.5,6.7,0.6   c4-1,11-0.3,16.5,1.3c5.6,1.5,14.4,5.8,16.4,9.2c1.9,3.3,4.9,4.6,6.1,2.9c1.3-1.7,1.7-3.2,6.8-2.6c5.1,0.6,26.3,9.9,33.4,12.7   c7.1,2.7,11.7,5.6,9.7,6.4c-2,0.8-2.5,2.6,0.4,4.2c2.9,1.6,7.8,5.5,12.1,6.5c4.4,1.1,10.6,3.5,13.9,2.6c3.3-1,6.5-1.5,7.9,1.4   c1.4,2.9,0.9,10.6,1.9,11.4c1.1,0.7,2.5,2.7,2.8,4.7c0.3,2,0.1,3.6,4,3.3c4-0.3,4-1.4,6.2-1.4c2.2,0,5.3,0.1,2.2,1.3   c-3.1,1.2-4.4,2.3-6.1,2.3c-1.7,0-1.8,1.5-2.8,2.9c-1,1.3-1.9,1.8-1.2,4.6c0.7,2.8-0.4,10.8,1,12.6c1.4,1.8,2.2,6.3,2.2,8.9   c0,2.6,0.5,4.2-1.6,4.2c-2.2,0-5.3-0.3-5.5,2.7c-0.1,3,0,4-1.9,5.3c-1.9,1.4-3.5,4.9-1.4,6.5c2.2,1.6,3.7,1.6,3.7,4.8   c0,3.1-2,4.1-0.1,6.1c1.9,2,2.3,3.5,0.5,6.7c-1.8,3.1-2.7,5.3-4.9,7.2c-2.1,1.8-3.7,8.5-2.8,11.4c1.1-0.1,2.2-0.4,3.3-0.7   c3-0.9,5.5-0.2,8.9,1.7c3.4,1.9,4.9,0.9,7.8,0c2.8-0.9,2.6,0.8,4,3.2c1.3,2.5,5.9,1.3,8.5,1.3c2.6,0,4.2,4.2,6.4,6.3   c2.3,2.1,3.4,0.9,5.1,0.2c1.7-0.8,2.8,0.2,3.4,3.4c0.6,3.2,5.1,0,6.4-1.1c1.3-1.1,5.5-1.1,7.9-0.9c2.5,0.2,4.5,0.9,5.9,3.2   c1.3,2.3,2.6,1.3,4.7,0.8c2.1-0.6,2.8,2.8,4.5,2.1c1.7-0.8,2.8-0.6,4.4,0.6c1.5,1.1,3.8,0,4.5-1.9c0.8-1.9,0.8-2.5,2.5-1.9   c1.7,0.6,2.6,2.5,4.9,0.8c2.3-1.7,0.9-0.9,2.3-0.6c1.3,0.4,2.1-1.5,0.9-3.8c-1.1-2.3,5.1-1.7,8.1-1.7c3,0,3.4-1.3,3.8-3.8   c0.4-2.5,4.2,2.8,6.8,4.9c2.6,2.1,2.8,1.7,3,4.2c0.2,2.5,3.2,2.8,5.1,4.2c1.9,1.3,1.9,3.2,1.9,5.7c0,2.5,0.4,2.3,3.4,2.8   c3,0.6,3.8,2.7,4.9,4.7c1.1,2.1,5.9,1.5,8.7,2.1c2.8,0.6,4,0,5.3,1.5c1.3,1.5,1.7,2.7,4.3,3.8c2.6,1.1,1.9,0.8,2.1,3.8   c0.2,3-1.7,6.6-3.8,8.7c-2.1,2.1,3.4,5.1,3.4,7.2c0,2.1,3.2,5.5,4.9,7.6c1.7,2.1,3.4-0.9,5.1-2.5c1.7-1.5,7.6,0.9,8.7,2.7   c1.1,1.7,3,3.4,4,1.7c0.9-1.7,2.6-1.1,4-0.2c1.3,0.9,3.8,1.5,7.6-0.4c3.8-1.9,6.8,7.4,7.8,10c0.9,2.7,4,1.7,4.3,0   c0.4-1.7,0-2.1-1.3-2.5c-1.3-0.4-2.1-2.5-0.6-4c1.5-1.5,0-2.5,0.2-4.9c0.2-2.5-2.6-3.2-4.2-4.9c-1.5-1.7-1.5-3.4,0.2-3.8   c1.7-0.4,3.6-3.8,5.5-4.9c1.9-1.1,3.2,0.9,3.2,3.8c0,2.8,2.1,3.2,4.2,5.3c2.1,2.1,5.3,2.8,8.3,3.4c3,0.6,6.2,1.3,7.8,2.8   c1.5,1.5,1.5,2.8,4.7,0.8c3.2-2.1,0.9-3.6-0.9-5.5c-1.9-1.9-2.5-4.4-1.3-4.5c1.1-0.2,1.9-3,2.3-5.9c0.4-2.8-2.3-4-2.5-5.3   c-0.2-1.3,2.8-2.1,4.2-1.9c1.3,0.2,0.9,2.7,2.6,2.5c1.7-0.2,4-0.4,4-2.7c0-2.3,6.6-0.8,10-1.5c3.4-0.8,3-0.6,3.4-2.7   c0.4-2.1,0-1.5,2.5-1.1c2.5,0.4,1.3-2.8-0.2-3.8c-1.5-0.9,0.4-6.4,0.8-8.7c0.4-2.3,0.8-1.3,3.4-0.4c2.6,0.9,0.6-1.5,0.6-1.5   s-2.6-1.7-0.4-3.2c2.3-1.5,1.1-1.7-0.2-2.7c-1.3-0.9-0.9-3.6,0.4-5.9c1.3-2.3,1.5-3.2,3.4-3.2c1.9,0,3.2-1.1,5.1,1.7   c1.9,2.8,4.9,3,6.1,0.6c1.1-2.5-0.2-3.4-3-5.1c-2.8-1.7-4-4.4-6.1-6.3s-2.3-1.7-3.6-2.8c-1.3-1.1-2.6-9.7-2.6-12.1   c0-2.5,0.4-5.7,4.3-5.9c4-0.2,1.1-5.1-0.6-8.1c-1.7-3,2.6-6.6,2.6-6.6s3.8,1.7,4.7-0.9c0.9-2.7,2.3-4.9,5.9-5.9   c3.6-0.9-2.3-4.4-4.9-4.4c-2.6,0-2.8-1.5-4.7-3.2c-1.9-1.7-1.7-3.6-0.6-5.5c1.1-1.9-0.8-3.4-1.7-2.5c-0.9,0.9-4.7-1.5-3.6-4.9   c1.1-3.4,0.4-4.5-0.4-6.4c-0.8-1.9-1.9-1.7-0.9-5.7c0.9-4,6.6-2.7,8.7-0.8c2.1,1.9,4.7-4,5.1-5.9c0.2-0.8,0.6-1.1,1.1-1.2   c-0.4-1.9-1.4-7-1.7-10.8C475.4,375.4,473.4,379.8,472.3,377z" stroke-miterlimit="10" stroke="#FFFFFF"/>
	<path name="海西蒙古族藏族自治州" fill="#D3D3D3" id="path4" d="M209.7,458.9c2.2-1.9,3.1-4.1,4.9-7.2c1.8-3.1,1.4-4.6-0.5-6.7   c-1.9-2,0.1-3,0.1-6.1c0-3.1-1.5-3.1-3.7-4.8c-2.2-1.6-0.5-5.2,1.4-6.5c1.9-1.4,1.8-2.3,1.9-5.3c0.1-3,3.3-2.7,5.5-2.7   c2.2,0,1.6-1.6,1.6-4.2c0-2.6-0.8-7.1-2.2-8.9c-1.4-1.8-0.3-9.8-1-12.6c-0.7-2.8,0.2-3.2,1.2-4.6c1-1.4,1.1-2.9,2.8-2.9   c1.7,0,3-1.2,6.1-2.3c3.1-1.2,0-1.3-2.2-1.3c-2.2,0-2.2,1.2-6.2,1.4c-4,0.3-3.8-1.4-4-3.3c-0.3-2-1.7-4-2.8-4.7   c-1.1-0.7-0.6-8.5-1.9-11.4c-1.4-2.9-4.6-2.3-7.9-1.4c-3.3,1-9.6-1.5-13.9-2.6c-4.4-1.1-9.3-4.9-12.1-6.5c-2.9-1.6-2.5-3.4-0.4-4.2   c2-0.8-2.6-3.7-9.7-6.4c-7.1-2.7-28.2-12.1-33.4-12.7c-5.1-0.6-5.6,1-6.8,2.6c-1.3,1.7-4.2,0.4-6.1-2.9c-1.9-3.3-10.8-7.7-16.4-9.2   c-5.6-1.5-12.5-2.2-16.5-1.3c-4,1-3.1,2.1-6.7-0.6c-3.6-2.6-6.7,2.1-8.6,0.8c-1.5-0.9-4.8-0.3-6.4,0.1c1,0.9,1.6,2.6,2.7,4.6   c1.7,3-4.5,5.7-7.4,8.3c-2.8,2.7,0.2,4.5,2.6,6.3c2.5,1.7,0.6,6.8,0.6,8.9s-1.9,6.1-0.2,6.1c1.7,0,0.6,0.9,2.1,3   c1.5,2.1-1.5,2.5-1.7,4.5c-0.2,2.1-0.6,0.9-2.8,4.4c-2.3,3.4-5.3,5.5-8.1,5.5c-2.8,0,0.2,4.2,2.3,8.7c2.1,4.5,4.7,7,8.5,8   c3.8,0.9,1.3,4.5,3.4,8.1c2.1,3.6-1.1,3.4,1.1,8c2.3,4.5,6.2,2.5,8.7,3c2.5,0.6,1.9,8.1,2.1,11.2c0.2,3,7,9.3,10.4,10   c3.4,0.8,6.6,3.4,8.3,4.5c1.7,1.1,10.8,6.1,14,6.6c3.2,0.6,5.9-4.5,7-6.8c1.1-2.3,2.1-2.3,3.6-1.1c1.5,1.1,3.4,0.9,6.8,0.9   c3.4,0,2.5-2.7,2.8-4.4c0.4-1.7,3.8-0.6,6.4,0.4c2.6,0.9,1.1,3.6,2.6,6.1c1.5,2.5,4.5,1.9,4.7,3.8c0.2,1.9,0.6,2.8,3,4.4   c2.5,1.5,5.1,5.7,6.6,8.3c1.5,2.7,6.2,2.3,8.5,2.5c2.3,0.2,6.4,6.1,8.1,7.6c1.7,1.5,4.9,0.4,6.6-0.9c1.7-1.3,3.6-2.7,5.7-0.9   c2.1,1.7,0.2,3.8,0.4,6.6c0.2,2.8,5.1,1.5,9.1,0.8c4-0.8,3.6-0.4,7,1.5c2.1,1.2,3.8,1.5,5.6,1.3C206,467.3,207.6,460.7,209.7,458.9   z" stroke-miterlimit="10" stroke="#FFFFFF"/>
	<path name="黄南藏族自治州" fill="#D3D3D3" id="path5" d="M720,284c-2.3-3.4-5.9-3.9-8.7-5.9c-2.8-2-5.8-0.7-7.2,0.4   c-1.4,1.1-3-0.8-3.7-2.8c-0.7-2,0-4.4,0-7.2s0.4-5.1,0.4-7.9c0-2.8-1.4-2-4.1-2.3c-2.7-0.3-1.1-1-2-2.5c-0.8-1.5-1.3-1.4-2.4-3.1   c-1.1-1.7-0.8-1.4-3-1.4c-2,0-2.8-1.3-3-1.8c-0.2-0.1-0.3-0.2-0.5-0.3c-1.1-1.1-6.3-0.5-6.3,0.4c0,0.9,1,2.2,1,4.2   c0,2-0.7,3.8-2.2,5.5c-1.5,1.7,2,3.1,3,4.3c1,1.2-0.1,6.9,0.1,9.9c0.2,2.9,2.7,1,4.3,2.4c1.6,1.4-0.3,4.3-1,6   c-0.7,1.7-2.2,2.9-2.4,4.8c-0.2,1.9-2.7,4.7-4,5.4c-1.3,0.7-3.5,1.1-7.1,1.1c-3.5,0-1.6,3.4,0.3,5.4c1.8,2,1.8,3.3-0.1,4.1   c-2,0.8-11.2-1.7-15.3-3.3c-4.1-1.6-6.2-0.7-10.5-0.8c-4.2-0.1-5.7-1.3-7.1-0.1c-1.4,1.1-3-0.1-5.7,0.1c-2.7,0.3,0.1,3.1,2.3,4.2   c2.1,1.1,4,2.4,6.8,3.7c2.8,1.3,0.4,4.8-2.5,5.9c-3,1.1-6.6,1.4-6.5,4.1c0.1,2.7,7.8,5.7,9.6,5.7c1.8,0,2.1,1.7,2.1,4.5   s1.8,2.4,4.5,3.5c2.7,1.1,3.3,2.3,3.5,5.2c0.3,3,1.6,5.8-0.7,9.9c-1.9,3.5-6.9,2.4-8.4,2c1.2,3.6,2.1,8.2,2.2,9.8   c0.1,1.5-0.6,6.7-0.9,8.9c1.5-0.6,3.6-0.5,4.6,0.5c1.3,1.5,5.3,3.2,8.5,3.2s5.5,0.2,6.6,1.9c1.1,1.7,9.5,4.9,14.2,4.4   c4.7-0.6,6.1,4.2,10.2,7.4c4.2,3.2,4.7-2.1,4.7-3.4c0-1.3,1.7-2.1,2.3-0.8c0.6,1.3,4.2,2.1,4.2,0.8c0-1.3,4.2-4.5,4.9-6.3   c0.8-1.7,1.3-3.2,3-2.7c1.7,0.6,1.5-1.7,1.7-4c0.2-2.3,2.5-1.5,5.1-2.1c2.6-0.6-0.4-2.8-3.2-4.4c-2.8-1.5-2.3-3.4-3.8-6.4   c-1.5-3-3.8-1.3-7-1.7c-3.2-0.4-4.2-2.1-4.3-5.1c-0.2-3,0-3-1.9-0.9c-1.9,2.1-2.5,2.1-4.9,0.2c-2.5-1.9-0.6-3.6,1.1-4.9   c1.7-1.3,0.8-3,1.1-4.7c0.4-1.7,0.4,0.6,3.2,2.8c2.8,2.3,2.5-1.9,1.9-4.7c-0.6-2.8-0.4-3.2,1.9-4.7c2.3-1.5,1.1-4,2.6-3.4   c1.5,0.6,3.8-2.5,5.1-4.4c1.3-1.9,4.3-3.8,6.8-4c2.5-0.2,3.2-1.5,3.4-3.2c0.2-1.7,0.6-2.3,2.8-4.7c2.3-2.5-2.5-5.9-4.5-6.8   c-2.1-0.9-2.3-2.3,0-2.8c2.3-0.6-0.4-3-0.9-5.3c-0.6-2.3,3.6-2.1,6.4-2.1c1.3,0,2.2-1.2,2.9-2.6C719.7,290.8,722.2,287.3,720,284z" stroke-miterlimit="10" stroke="#FFFFFF"/>
	<path name="海东地区" fill="#D3D3D3" id="path6" d="M745.9,248c1.9-0.6,1.5-4.2,3.4-5.9c1.9-1.7-0.2-2.8-3-3.2   c-2.8-0.4-6.1-3.2-6.6-6.8c-0.6-3.6-4.5-8.5-5.3-10.2c-0.8-1.7-0.6-4.2-3.2-4.2c-2.6,0-4.3-0.9-4.5-4c-0.2-3,2.6-4.2,4.7-4.4   c2.1-0.2,1.9-1.7,0-3.8c-1.9-2.1-10.2-9.3-11.3-9.9c-1.1-0.6-1.5-2.5-1.5-2.5s1.3-3.8,0.2-5.5c-0.5-0.7-0.4-1.2,0.1-1.7   c-0.5-0.3-2.2-1.2-3.9-0.2c-2.1,1.3-3.6,3.2-8,3.2c-4.4,0-8.1,1.7-12.3-1.9c-0.4-0.3-0.8-0.6-1.2-0.9c-0.9,1.6-5.3,9.5-8.4,12.1   c-3.5,2.9-1.2,5.1-0.6,8.2c0.6,3.1,0.8,10,1.2,10.9c0.5,0.9,2.2,2.9,4.5,4.9c2.3,2-0.3,4.2-2,5.7c-1.7,1.5-0.6,4,0,5.8   c0.6,1.8-1.2,3.7-5.4,3.8c-3.5,0.1-5.5,0.6-6,0.7c0.6,0.9,1.7,3,2.4,5.9c0.8,3.4,1.5,2.3,3.8,2.3c2.3,0,4.4,0.5,4.7,1.3   c0.2,0.7-0.2,1.7-1,1.4c0.2,0.6,1,1.8,3,1.8c2.1,0,1.8-0.3,3,1.4c1.1,1.7,1.5,1.6,2.4,3.1c0.8,1.5-0.7,2.3,2,2.5   c2.7,0.3,4.1-0.6,4.1,2.3c0,2.8-0.4,5.1-0.4,7.9s-0.7,5.2,0,7.2c0.7,2,2.3,3.9,3.7,2.8c1.4-1.1,4.4-2.4,7.2-0.4   c2.8,2,6.5,2.5,8.7,5.9c2.2,3.3-0.2,6.9,3.9,7.2c0.8-1.7,1.2-3.5,1.2-3.5s1.5-3.6,2.6-2.7c1.1,0.9,3.8,1.7,8.3,0.8   c4.5-0.9-0.2-10.6-1.9-13.3c-1.7-2.7,0-3.2,1.1-4s2.3-1.5,2.8-3c0.6-1.5,4.7-0.6,7.6,0.2s1.9-4.5,1.9-7.8c0-3.2-0.8-4.4-2.8-6.1   C742.7,250.1,744,248.6,745.9,248z" stroke-miterlimit="10" stroke="#FFFFFF"/>
	<path name="海南藏族自治州" fill="#D3D3D3" id="path7" d="M687.4,248.1c-0.3-0.8-2.4-1.3-4.7-1.3c-2.3,0-3,1.1-3.8-2.3   c-0.8-3.4-2.2-5.7-2.6-6.2c-0.5-0.5-1.7,1.5-5.3-0.9c-3.7-2.4-10.6-3.7-11.1-2c-0.5,1.6-1.3,4.9-3.8,2.9c-2.5-2-3.4-5.7-7-9.3   c-3.6-3.6-7.5-9-8.5-12.6c-1.1-3.6,0-6.2-2.6-7.5c-2.6-1.3-4.9,2.8-5.1,4.5c-0.1,1.1-1.7,1.6-2.8,1.9c-0.1-0.1-0.2-0.3-0.4-0.4   c-1.4-1.4-1.1-2.9,0.3-2.8c1.4,0.1,2-2.4,1.3-4.4c-0.8-2-3.4-1.6-6.8-0.8c-3.4,0.9-4-3.2-4.8-5.7c-0.8-2.5-3.8-5.9-5.8-6.3   c-2-0.4-7.6-8.4-8.2-10.8c-0.6-2.4-1.3,1-3.2,1.4c-1.9,0.4-1.3-1.6-3-1.6c-1.8,0-0.9,1.9-2.9,1.9c-2,0-2.9,0.3-4.4-1.3   c-1.5-1.5-1.5,0.1-2.8,0.5c-1.3,0.4-3.7-0.4-6.2,0.1c-2.5,0.5-3,3.2-3.2,5.8c-0.1,2.7,1.3,3.5,3.2,4.8s1.4,3,0,4.4   c-0.3,0.3-0.7,0.7-1,1c-1.3-1-4.7-1.1-5.2-3.8c-0.5-2.9-4.8-5.5-6.6-6.1c-1.8-0.6-3.1-0.1-3.4,1.8c-0.2,1.9,4.4,2.6-3.6,1.4   c-8-1.2-4-3.4-7.3-2.3c-3.4,1.1-3.6,2.6-3.6,5.2s-1.3,5.8,0.7,8c2,2.3,1.1,4.4,2.8,6.7c1.7,2.3,4.1,5.2,0.7,7.5   c-3.4,2.4-4.9,6.6-3.9,8.9c1,2.4,2.2,4.4-0.5,6.4c-2.7,2-11.3,7.4-11.1,9.8c0.2,2.4,1,5.1,0,5.7c-1,0.7-3.2,2.9-0.3,4.5   c2.9,1.7,7.1,1,7.2,4.7c0.2,3.7-1.5,14,1,16.5c2.5,2.5,8.1,4.9,6.2,6.7c-1.5,1.5-1.3,3.3-1.2,3.8c1.6,0.3,2.7,2.1,2.2,7.6   c-1,12-8.9,14.7-4,17c4.9,2.4,7.2,5.9,10.8,12c3.5,6.1,6.1,7.9,10.1,8.8c4,0.8,9.1,3.4,15.3,5.2c6.2,1.9,7.2,3.5,14.7,1.9   c7.4-1.7,7.8-2.9,10.3-1.9c2.5,1,5.9,0.2,7.7,1.4c1.8,1.2,5.5,5.8,8.3,6.3c2.7,0.6,4.6,3.3,7.7,1.5c3.1-1.8,4.3-5.2,5.9-1.6   c0.3,0.7,0.6,1.5,0.9,2.3c1.5,0.4,6.5,1.4,8.4-2c2.3-4.1,1-6.9,0.7-9.9c-0.3-3-0.8-4.1-3.5-5.2c-2.7-1.1-4.5-0.7-4.5-3.5   s-0.3-4.5-2.1-4.5c-1.8,0-9.5-3-9.6-5.7c-0.1-2.7,3.5-3,6.5-4.1c3-1.1,5.4-4.7,2.5-5.9c-2.8-1.3-4.7-2.5-6.8-3.7   c-2.1-1.1-4.9-4-2.3-4.2c2.7-0.3,4.2,1,5.7-0.1c1.4-1.1,2.8,0,7.1,0.1c4.2,0.1,6.4-0.7,10.5,0.8c4.1,1.6,13.3,4.1,15.3,3.3   c2-0.8,2-2.1,0.1-4.1c-1.8-2-3.8-5.4-0.3-5.4c3.5,0,5.8-0.4,7.1-1.1c1.3-0.7,3.7-3.5,4-5.4c0.2-1.9,1.7-3.1,2.4-4.8   c0.7-1.7,2.6-4.6,1-6c-1.6-1.4-4.1,0.5-4.3-2.4c-0.2-2.9,0.9-8.7-0.1-9.9c-1-1.2-4.5-2.6-3-4.3c1.5-1.7,2.2-3.5,2.2-5.5   c0-2-1-3.3-1-4.2c0-0.9,5.2-1.5,6.3-0.4C687.1,250.2,687.7,248.9,687.4,248.1z" stroke-miterlimit="10" stroke="#FFFFFF"/>
	<path name="海北藏族自治州" fill="#D3D3D3" id="path8" d="M723,181.7c-1.7-2.3-6.2-4.4-10-5.1c-3.8-0.8-3-3.2-4.9-6.3   c-1.9-3-7.9-5.3-10.8-5.3s-4.2-1.5-3-3.4c1.1-1.9,2.1-1.9,2.3-5.3s-3.4-3.4-4.5-4.2c-1.1-0.8-0.6-1.9-0.6-4.5s-4.2,1.7-5.9,3.8   c-1.7,2.1-0.8,3.2-0.8,6.3c0,3,0.4,4.9-1.7,5.1c-2.1,0.2-3.6-3-4.4-5.1c-0.8-2.1-1.9-3.4-4.5-3.4c-2.6,0-10.8-5.9-13.8-8.1   c-3-2.3-4.2-3-7.2-3s-5.9-6.3-7.9-7.4c-2.1-1.1-4.5-3.2-9.1-3.2c-4.5,0-3.6-1.3-10.4-4.7c-6.8-3.4-4.5-5.1-5.1-7   c-0.6-1.9-1.1-5.3-7.8-6.1c-6.6-0.8-7-4.7-8.1-4.7c-1.1,0-3,2.1-3.4-0.2c-0.4-2.3-0.8-2.8-2.8-5.3c-2.1-2.5-4.7-0.6-5.1,1.1   c-0.4,1.7,1.9,4.2,3.4,5.7c1.5,1.5,2.1,6.3,2.1,8.3c0,2.1-4.9-2.5-8.7-4.9c-3.8-2.5-10.4-5.3-15.1-7c-4.7-1.7-6.2-4.7-7.9-7   c-1.7-2.3-1.5-4.4-3.8-4.4c-2.3,0-4.7-5.1-6.1-7.6c-1.3-2.5-1.7-1.5-3.8-1.5c-2.1,0-2.8-3-6.2-4.5c-3.4-1.5-4-2.5-4-4.9   c0-2.5-0.6-1.9-2.6-1.7c-2.1,0.2-0.9-1.5-3.6-1.7c-2.6-0.2-1.9-0.2-4.4-2.1c-2.5-1.9-1.7-1.9-4.2-3c-2.5-1.1-4,0-4.2,1.9   c-0.2,1.9-0.9,0.9-2.6,4.4c-1.7,3.4-5.1,2.1-8.1,2.1s-1.7-0.6-3.6-2.7s-1.1-1.5-4.9-1.3c-3.8,0.2-1.7,2.8-1.5,4.4   c0.2,1.5-7.6,8.1-8.9,9.5c-0.3,0.3-0.6,0.3-1.1,0.2c0.6,1.7,2.2,6,4.9,5.8c3-0.2,7.1,1.7,14.9,8.4c7.8,6.7,12.9,4.9,15.5,5.6   c2.6,0.7,6.3,3.4,9.3,3c3-0.4,2.6,0.7,5,1.5c2.4,0.7,0.2,3.5-0.4,5.8c-0.6,2.2,4.5,2.8,8,1.3c3.5-1.5,3.5-1.3,5.8-0.6   c2.2,0.7,7.3,4.5,11.2,4.5c3.9,0,7.7,3.9,6.9,6.2c-0.7,2.2-8.2,3.7-11.6,3.7c-3.4,0-4.1,1.5-6,4.5c-1.9,3,3,2.4,6.2,2.4   c3.2,0,3.7,0.2,6.3,2.8c2.6,2.6,3.4,7.6,3.9,10.8c0.4,3.3-5.9,6.9-7.5,8.8c-1.6,1.9-2.6,4.8-2.3,9c0.3,4.2-1.9,12.1-1.9,13.7   c0,1.6,6.6,6,6.8,6.2c0.2,0,0.4,0,0.7,0c0,0,0.1,0,0.1,0c0.3,0,0.5,0.1,0.8,0.2c1.8,0.6,6.1,3.2,6.6,6.1c0.1,0.4,0.2,0.7,0.3,0.9   c0,0.1,0.1,0.1,0.1,0.2c0.1,0.2,0.3,0.4,0.4,0.5c0,0,0.1,0.1,0.1,0.1c0.2,0.2,0.4,0.3,0.6,0.4c0,0,0,0,0,0c1.2,0.7,2.7,1,3.5,1.6   c0.3-0.3,0.7-0.7,1-1c1.4-1.4,1.9-3.2,0-4.4s-3.3-2.2-3.2-4.8c0.1-2.7,0.6-5.3,3.2-5.8c2.5-0.5,4.9,0.3,6.2-0.1   c1.3-0.4,1.3-2,2.8-0.5c1.5,1.5,2.4,1.3,4.4,1.3c2,0,1.1-1.9,2.9-1.9c1.8,0,1.1,2,3,1.6c1.9-0.4,2.5-3.8,3.2-1.4   c0.6,2.4,6.2,10.4,8.2,10.8c2,0.4,5.1,3.8,5.8,6.3c0.8,2.5,1.4,6.6,4.8,5.7c3.4-0.9,6.1-1.3,6.8,0.8c0.8,2,0.1,4.6-1.3,4.4   c-1.4-0.1-1.6,1.4-0.3,2.8c0.1,0.1,0.2,0.3,0.4,0.4c0,0,0,0,0,0c0,0,0,0,0,0c0.2,0,0.4-0.1,0.6-0.2c0,0,0.1,0,0.1,0   c0.2-0.1,0.4-0.2,0.6-0.2c0,0,0.1,0,0.1,0c0.2-0.1,0.4-0.2,0.5-0.3c0,0,0.1,0,0.1-0.1c0.2-0.1,0.3-0.3,0.4-0.4c0,0,0-0.1,0.1-0.1   c0.1-0.2,0.2-0.3,0.2-0.5c0.2-1.7,2.6-5.8,5.1-4.5c0.3,0.2,0.6,0.4,0.8,0.6c0,0,0,0,0,0.1c0.2,0.2,0.4,0.4,0.5,0.7c0,0,0,0,0,0   c0.8-3,5.3-0.3,7.3,0.8c2.1,1.1,4.3-0.5,5-1.8c0.7-1.3,2.6-2,4.3-1.2c1.7,0.8,3,0.7,3.5-2.7c0.4-3.3,1.2-3.8,1.4-6.4   c0.3-2.6-5.1-3.6-4.1-5.7c1-2,1-2.9-1.9-4.2c-2.9-1.3-2.5-2-4.3-4.9c-1.9-2.9-3.3-2.9-6.8-3.8c-3.5-0.9-4.8-4.6-3.5-7.1   c1.3-2.5,4.9-4.2,7.2-3c2.3,1.2,0,2.6,13.3,3.5c13.3,0.9,10.3,2.9,12.2,4.5c1.9,1.6,6.2,0.4,8.8,2c2.6,1.6,8.4,3.5,12.6,7.2   c4.2,3.6,7.9,1.9,12.3,1.9c4.4,0,5.9-1.9,8-3.2c1.8-1.1,3.4-0.2,3.9,0.2c0.6-0.6,2-1,3.7-1C725.3,185.1,724.7,184,723,181.7z" stroke-miterlimit="10" stroke="#FFFFFF"/>
</g>
</svg>