<?xml version="1.0" encoding="UTF-8" standalone="no"?><!-- Generator: Adobe Illustrator 18.0.0, SVG Export Plug-In . SVG Version: 6.00 Build 0)  --><svg xmlns="http://www.w3.org/2000/svg" xmlns:xlink="http://www.w3.org/1999/xlink" contentScriptType="text/ecmascript" zoomAndPan="magnify" contentStyleType="text/css" id="图层_1" mapName="香港特别行政区" mapType="省市地图" enable-background="new 0 0 800 600" version="1.1" xml:space="preserve" preserveAspectRatio="xMidYMid meet" viewBox="0 0 800 600" x="0px" y="0px">
<g>
	<path name="黄大仙区" fill="#D3D3D3" id="path0" d="M446.1,299.3c-7.8-1-12.1,3-19.6,3.2l-0.2,0.2   c-2.9,1.2-5.5,3.1-8.7,3.6c2.2,9.3,5,17.4,14,20.1c3.9-1.3,7.6-2.6,12.5-4.2c-0.2,1.1,0.1,2,0,2.7c1.7-0.5,4.3-1.2,6.3-1.7   c0,0.2,0,0.2,0,0.2c3,0,6.8,0,10.6,0c-0.8-8-2-20.4-2.7-28.4C455.3,298.3,451,300,446.1,299.3z" stroke-miterlimit="10" stroke="#FFFFFF"/>
	<path name="西贡区" fill="#D3D3D3" id="path1" d="M748.4,444.5c-0.5-45.7-0.7-91.5-1.3-137.2   c-0.1-7-0.9-14.1-2.3-21c-3.3-16.4-8.4-32.6-17.7-46.3c-13.9-20.5-20.1-43.4-24.7-67.1l-0.4-1.2c-11.9,3.7-23.6,7.4-35.3,10.8   c-18.1,5.4-36.3,10.6-54.4,15.9c-6.6,1.9-7.9,5.8-5.8,14.8c1.1,4.8,2,9.9,1.6,14.7c-0.6,7.7-6.8,11.3-12.8,14.8   c-2.6-1.4-5.2-2.7-7.9-4.1c-2.5-3.2-5.3-6.8-8.5-10.8c-2.3,2.2-3.7,3.5-5.2,5c-5.6-1.5-9.6-4.4-11.7-10.1c-4.4-1.8-9.1-3.9-14-5.9   c-1.7,5.4,2,11.7-3.7,14.7c-5.7,0-10.6,0-15.2,0c-3.7,13-6.6,14.8-14.7,14.7c-0.9,1.4-1.8,3.3-2.7,4.3c-5,0-10.1,0-15.2,0   c0.4,2,0.8,1.4,1.2,1.8c-1.4,0.9-4.2,3-6.1,4.3c-0.1,1.9-0.3,4-0.4,5.8c-3.2,2.4-5.6,5.4-8.3,7.9c-4,3.7-7.9,9.5-12.5,10.3   c-5.5,0.9-6.7,3.5-7.8,7.4c-0.8,2.9-2.3,5.2-4.2,7.1c0.7,8,1.9,20.4,2.7,28.4c1.2,0,2.4,0,3.6,0c2.1,5,4.1,9,6.2,12   c2.4,0,4.7,0,6.9,0c2.3,8,5.8,13.1-1.4,18.6c2.2,2.5,3.9,4.7,5.5,6.5c-0.4,2-0.6,3.9-1.2,5.5c-2.4,6.2-3,9.6-0.8,12.4   c0.1,0,0.2,0.1,0.3,0.2l0.1,0.1c1.3,1.4,3.2,2.7,6.2,4.5c3.3,2,6.6,4.1,9.8,6.2l1.3,0.6c0,10.2,0,20.4,0,30.5l1,1.8   c15.7,18.9,31.3,37.8,47,56.7l0,0c0,0,0,0,0,0l0.5,1.1c0.6,12.9,1.1,25.7,1.7,38.6c0.2,4.6,0.9,9.2,1.3,13.6c10,0,19,0.1,28.1,0   c18-0.1,35.9-0.4,53.9-0.5c34.6-0.2,69.2-0.4,103.8-0.6c4.9,0,9.9-0.5,15.3-0.8C749.4,501.6,748.7,473,748.4,444.5z" stroke-miterlimit="10" stroke="#FFFFFF"/>
	<path name="观塘区" fill="#D3D3D3" id="path2" d="M480.7,366.3c0.6-1.6,0.8-3.4,1.2-5.3c-1.6-1.8-3.3-4.2-5.5-6.8   c7.3-5.6,3.7-10.6,1.4-18.6c-2.2,0-4.5,0-6.9,0c-2.1-3-4.1-7-6.2-12c-5,0-10.2,0-14.2,0c0,0,0,0.1,0-0.2c-2,0.5-4.6,1.2-6.3,1.7   c-0.2,1.4-0.6,2.3-0.6,3.2c0.2,2.8,0.3,5.8,1,8.5c0.9,3.2,2.4,6.2,2.9,9.6c6.2,4.6,11.5,10.5,9.2,19.6c7.9,3.7,15.4,8.4,23.1,12.6   C477.7,375.8,478.2,372.4,480.7,366.3z" stroke-miterlimit="10" stroke="#FFFFFF"/>
	<path name="九龙塘区" fill="#D3D3D3" id="path3" d="M447.5,346.3c-0.5-3.4-2.1-6.4-3-9.6c-0.8-2.7-1-5.6-1.2-8.5   c-0.1-1.5,0.4-3,0.8-6c-4.9,1.6-8.6,2.9-12.5,4.2c-9-2.7-11.8-10.8-14-20.1c-1,0.2-2.1,0.2-3.3,0c-1.3-0.2-2.7,0.7-4.2,1.6   c1.1,3.5,2.8,8.3,3.6,11.8c0.5,2.2,0.9,5-0.1,6.7c-4.3,7.6-4,14.4,1.1,21.7c4,5.7,8.8,13.3,8.2,21.6c3-1.5,5.9-3.1,8.8-4.7   c6.9-3.9,14.4-3.5,21-0.8c1.3,0.5,2.6,1.1,3.9,1.7C459,356.8,453.7,350.9,447.5,346.3z" stroke-miterlimit="10" stroke="#FFFFFF"/>
	<path name="深水埗区" fill="#D3D3D3" id="path4" d="M408.9,331c0,0,1.2,1.5,2,2.6c0.4-2.3,1.3-4.6,2.7-7   c1-1.7,0.5-4.5,0.1-6.7c-0.8-3.4-2.5-8.2-3.6-11.8c-0.9,0.6-1.7,1.1-2.5,1.5c-2.6-1.3-5.2-2.5-7.7-3.8c0,0.5,0,1,0,1.5   c-5,0.8-12.5,2.1-18.1,3c0.4,1,0.8,2,1.2,3c-4,2-7.7,3.8-12.8,6.2c3.8,3.3,6.8,5.5,9.5,7.9c-4,2.6-8.1,5.3-11.1,7.5   c0,4.2,0,6.7,0,11.7c5,0,10.3,0,15.8,0l0.7-0.4c0.2-3.3,0.3-7,0.5-10.4C393,334.2,400.7,332.6,408.9,331z" stroke-miterlimit="10" stroke="#FFFFFF"/>
	<path name="油尖旺区" fill="#D3D3D3" id="path5" d="M414.8,348.2c-3.5-5-4.8-9.7-3.8-14.7c-0.8-1-2.1-2.6-2-2.6   c-8.3,1.7-16,3.2-23.4,4.7c-0.2,3.5-0.4,7.2-0.5,10.4c-0.3,6-0.8,12.6-1.1,18.6l0.1,0.2c6,1.8,11.6,3.5,17.3,5.2   c4.9,1.4,11.3,3.1,15.8,4.6c0,0,0.6-2.1,0.6-2.1c1.7-0.9,3.5-1.8,5.2-2.7C423.6,361.6,418.8,354,414.8,348.2z" stroke-miterlimit="10" stroke="#FFFFFF"/>
	<path name="大埔区" fill="#D3D3D3" id="path6" d="M496.6,250.5c5.1,0,10.2,0,15.2,0c0.9-1,1.8-2.8,2.7-4.3   c8.1,0.1,11-1.7,14.7-14.7c4.7,0,9.6,0,15.2,0c5.7-3,2-9.3,3.7-14.7c4.9,1.9,9.5,4,14,5.7c2.1,5.7,6.1,8.6,11.7,10.2   c1.5-1.4,2.9-2.7,5.2-4.9c3.1,4,5.9,7.6,8.5,10.8c2.8,1.4,5.3,2.8,7.9,4.1c5.9-3.5,12.2-7.1,12.8-14.8c0.4-4.8-0.5-9.9-1.6-14.7   c-2.1-8.9-0.9-12.8,5.8-14.8c18.1-5.3,36.3-10.5,54.4-15.9c11.7-3.5,23.4-7.2,35.3-10.8c-4.5-27.8-1.4-55.9-2.7-85   c-4.9-3.7-10.7-7.9-16.2-12.4c-8-6.5-17-8.7-27.2-8.6c-15.9,0.1-31.8-0.5-47.6-1.1c-5.7-0.2-11.3-1.4-17-2.2   c-4.1-0.5-8.1-1.3-12.2-1.8c-0.4,2.2-0.8,4.4-0.9,5.2c-0.4,18.3-0.8,36.7-1.1,55c-0.1,4-2.5,6.5-5.2,8.4   c-9.1,6.6-18.4,13-26.9,18.9c-7.6-2.6-14.6-5.9-21.8-7.3c-5.2-1-10.9,0.4-16.4,0.9c-4,0.4-7.9,1.4-11.9,1.5c-2.1,0-4.6-0.9-6.1-2.2   c-2.9-2.7-5.3-6.1-8.1-9.4c-6,6.2-11.7,12.1-16.5,17c-15.1-2.3-28.7-4.8-42.4-6.2c-8.4-0.9-9.7,0.9-11.4,9.5   c-0.2,0.9-0.7,1.6-1.4,2.6c-6.1-3.4-11.5-9.9-19.5-2.7c0,1.6,0,3.7,0,6.4c-7,4.6-17.1,10.6-24.7,15.3c0.9,0.5,1.7,1.1,2.6,1.8   c-5.1,7.4-10.2,14.6-15.6,22.4c2.9,7,5.3,14.3,8.9,21c2.2,4.1,4.6,7.8,4.9,12.6l0.5,1.4c6.2-4.2,13.3-3.3,16.3,2.9   c6.4,0.3,12.6,0.8,18.8,0.7c2.8,0,7.6-0.4,8.1-1.7c1-3,2.8-2,4.4-2.1c2.6-0.2,5.3-0.1,7.4-0.1c1-2.1,1.7-3.4,2.3-4.5   c4.3,0.5,8.1,0.9,11.1,1.2c6.7-9.7,15.7-15.1,24.7-20.5c2-1.2,4.1-3.1,6.2-3.3c7-0.4,14-0.2,21.1-0.2c-0.5,11.5-1,22.5,3.3,32.9   c2.6,6.3,2.3,12.6,1.8,18.8c1.9-1.3,4.8-3.7,6.1-4.6C497.4,251.9,497,252.5,496.6,250.5z" stroke-miterlimit="10" stroke="#FFFFFF"/>
	<path name="葵青区" fill="#D3D3D3" id="path7" d="M384.3,346.5c-5.5,0-10.8,0-15.8,0c0-5,0-7.4,0-11.7   c3-2.2,7.1-4.9,11.1-7.5c-2.7-2.3-5.5-4.6-9.3-7.9c5-2.5,8.7-4.3,12.7-6.2c-2.4-6.2-4.5-11.4-6.4-16.4c1.8-2.2,3.3-4,4.6-5.5   c-1.5-7.7,0.8-14.1,3.8-20.4l0.4-0.9c-2.2-1.1-4.2-2.9-6.3-4.1c-7,2.9-6.3,9.3-7.7,14.6l-0.6,1.1c-5.6-2.3-10-1.1-13.8,3.8   c-1,1.4-4,1.7-6.1,1.7c-11.5,0.3-23.1,0.3-34.6,0.7c-2.9,0.1-5.8,1.5-9.1,2.4c0,14,0.1,27.6,0,41.2c0,4.8-0.3,10.9-0.5,15.9   c6.2,0.4,12.4,0.8,18.7,1.1c6.6,0.3,13.2,0.1,20.7,0.1c-0.3,5.1-0.7,9.9-1,14.7c1.6,0.2,4,0.6,5.2,0.6c11-0.3,21.9-0.7,32.9-1.1   l0.7,1.6c0.3-5.9,0.8-12.4,1.1-18.4L384.3,346.5z" stroke-miterlimit="10" stroke="#FFFFFF"/>
	<path name="湾仔区" fill="#D3D3D3" id="path8" d="M402.5,371.9c2.3,10.7-3.7,20.3-4,30.6c0,0.8,0,2.8,0,4.2   c3.6-0.3,7.3,0.5,11.1,3.5c3.3-0.4,6.3-1.7,8.1-0.7c4.6,2.4,8.4,0.1,12.6-0.7c1.3-0.3,2.6-0.4,4-0.5c0-2.9,0-7.2,0-8.9   c3.3-2.7,5.9-4.8,9.3-7.6c-2.3-2.6-3.9-4.4-5.5-6.2c-2.7,2.8-4.4,4.1-6.1,1c-1.2-2.1-2.6-4.2-4-6.2l-1.1-1.1   c-1.9,3.5-3.8,3.2-5.7-0.3l-0.6-1.5c-0.9,0-1.9,0-3.1,0c-0.1-1-0.3-2.7-0.3-3.3c-5-1.5-10.7-3-15.6-4.5L402.5,371.9z" stroke-miterlimit="10" stroke="#FFFFFF"/>
	<path name="中西区" fill="#D3D3D3" id="path9" d="M402.5,371.9l-0.9-2c-5.7-1.7-11.5-3.4-17.5-5.2l-0.9-1.8   c-11,0.4-21.9,0.8-32.9,1.1c-1.3,0-3.6-0.3-5.2-0.6c-0.2,2.7-0.3,5.3-0.4,8c-0.1,6.4,0.7,12.9,0.9,19.3l1.9,0c0,0,0,0.1,0,0.1   c4,0.6,6.6,1.1,9,1.6c4.6-0.5,8.5-1,12.3-1.4c4.2,8.1,8,15.3,11.7,22.4c5.9-2.1,11.8-6,18-6.5c0-1.5,0-3.4,0-4.2   C398.8,392.2,404.8,382.6,402.5,371.9z" stroke-miterlimit="10" stroke="#FFFFFF"/>
	<path name="东区" fill="#D3D3D3" id="path10" d="M496.2,389.5c-3.2-2.1-6.4-4.3-9.7-6.2c-2.9-1.8-4.9-3-6.2-4.5   l-0.1-0.1c-9.1-4.9-17.8-10.6-27.3-14.5c-6.5-2.7-14-3.1-20.9,0.8c-4.6,2.6-9.4,4.9-14.2,7.4l-0.6,1.7c0.1,0.6,0.2,2.3,0.3,3.3   c1.2,0,2.1,0,3.1,0l0.6,1.5c1.9,3.6,3.8,3.7,5.7,0.2l1.1,1.2c1.3,2.1,2.7,4.2,4,6.3c1.8,3,3.4,1.8,6.1-1c1.6,1.8,3.2,3.6,5.5,6.2   c-3.4,2.8-6,4.9-9.3,7.6c0,1.8,0,6,0,9c3-0.3,6.1-0.4,9.1-0.7l2.3-0.5c0.9-3.8,3-2.9,5.1-1.1c3,2.6,6.7,2.1,10.2,2.3   c2.3,0.1,4.5,1.2,6.8,1.6c2.2,0.4,4.2,3.5,6.4,0.1l0.4-0.8c2.3-3.1,5,2.9,9.2,3.7c1.3,7.1,4.9,8.9,13.9,7.7c0-10.1,0-20.3,0-30.5   L496.2,389.5z" stroke-miterlimit="10" stroke="#FFFFFF"/>
	<path name="南区" fill="#D3D3D3" id="path11" d="M498.4,422.4l-1.2-1.8c-9.3,1.2-12.4-0.6-13.7-7.7   c-4.2-0.9-6.7-6.8-9-3.7l-0.4,0.8c-2.3,3.4-4.2,0.3-6.4-0.1c-2.3-0.4-4.5-1.4-6.8-1.6c-3.6-0.2-7.2,0.3-10.2-2.3   c-2.1-1.8-4.1-2.7-5.1,1.1l-2.3,0.5c-4.3,0.5-8.8,0.4-13,1.3c-4.2,0.8-8,3.1-12.6,0.7c-1.8-0.9-4.8,0.4-8.1,0.7   c-10.4-8.1-19.8-0.3-29.1,3c-3.7-7.1-7.5-14.3-11.7-22.4c-3.8,0.4-7.6,0.9-12.2,1.4c-2.4-0.4-5-0.9-9-1.6c0,4.6,0,8.2,0,12.2   c15,12.5,29.7,25,44.6,37.6c11.7,9.9,22.9,20,34.4,30c2.8,2.5,5.4,5.1,8.5,7.3c1.5,1.1,3.7,1.7,5.6,1.7c34.6,0.1,69.2,0.1,103.8,0   c0.4,0,0.2-0.3,1.2-0.5v0C529.5,460.2,514,441.3,498.4,422.4z" stroke-miterlimit="10" stroke="#FFFFFF"/>
	<path name="北区" fill="#D3D3D3" id="path12" d="M389.5,151.8c8-7.2,13.4-0.7,19.5,2.7c0.7-1,1.3-1.7,1.5-2.6   c1.7-8.6,2.9-10.3,11.3-9.5c13.7,1.4,27.3,3.9,42.3,6.2c4.8-4.9,10.5-10.9,16.5-17c2.8,3.4,5.2,6.7,8.1,9.4   c1.5,1.4,4.1,2.3,6.1,2.2c4-0.1,7.9-1.1,11.9-1.5c5.5-0.5,11.2-1.9,16.4-0.9c7.3,1.4,14.2,4.6,21.8,7.3c8.5-6,17.8-12.3,26.9-18.9   c2.7-2,5.2-4.4,5.2-8.4c0.3-18.3,0.7-36.7,1.1-55c0-0.8,0.4-3,0.9-5.2c-1.6-0.2-3.2-0.3-4.8-0.4c-7-0.2-14,0.5-21,1.1   c-6.4,0.5-13,1-19.3,2.3c-10.5,2.2-21.1,4.5-31.1,8c-10.6,3.7-22.4,5.8-29,16.8c-0.7,1.1-2.1,1.7-4.3,3.6c-1.4-3.4-2.4-5.9-3.6-8.5   c-1.3-2.9-2.9-6-4.5-9c-13.4,0-26.8,0-41.3,0c-3.6-10-12.7-3.7-20.4-6.2c-2.2,2.8-5.1,5.9-7.4,9.5c-2.1,3.4-3.5,7.3-4.7,9.8   c-7.2,0.8-13.8,0.1-19.1,2.3c-6.6,2.8-12.2,8-18.2,12.2c-1.5-2.1-2.9-4-4.3-5.8c-2.4,1.4-4.4,2.7-6.3,3.8c-6.8-6-11.3-7.9-22.1,2.5   c1.4,3.8,2.7,7.9,4,10.9c2.8,0,6.6,0,8.8,0c0.5,10,1.7,19.5,1.3,29.1c-0.4,9.6-2.2,19.3-3.6,30c4.4-0.6,8-0.4,11.1-1.6   c9.2-3.5,17.7-2,25.3,2.5c7.5-4.7,17.7-10.7,24.7-15.3C389.5,155.6,389.5,153.5,389.5,151.8z" stroke-miterlimit="10" stroke="#FFFFFF"/>
	<path name="元朗区" fill="#D3D3D3" id="path13" d="M310.6,255.9c5.6-3,11.2-6.1,16.8-9.1c0.8,1.6,1.4,2.8,2.3,4.6   c3.2-3.4,5.1-5.5,7.1-7.5c2-2,3.7-5,7.4-2.8c2.4,0.7,3.1,1.4,5.2,2.1c2.6-2.8,4.8-5.1,6.6-7.1c2.3,0.5,4,0.8,5.7,1.1   c1.4-1.8,3-3.3,4.6-4.4l-0.5-1.4c-0.3-4.7-2.7-8.5-4.9-12.6c-3.6-6.7-6.1-14-8.9-21c5.4-7.8,10.4-15,15.5-22.4   c-8.5-5.8-17.5-8.2-27.8-4.3c-3.1,1.2-6.7,1.1-11.1,1.7c1.3-10.7,3.2-20.5,3.6-30.2c0.4-9.6-0.8-19.1-1.3-29.1c-2.3,0-6,0-8.8,0   l3,1.4c-2.8,0.6-6.1,2.5-8.4,1.6c-8.1-3-13.1,1.3-17.6,6.6c-2.8,3.3-4.9,7.2-7.8,11.6c-3-1-6.1-2.6-9.3-2.9   c-4.7-0.5-8.8-3.5-14.3-1.5c-5.1,1.9-10.9,2.1-16.4,2.4c-2.4,0.1-5.2-0.9-7.3-2.2c-2.3-1.5-4.1-3.9-6.7-6.5   c-10,8-20,15.7-29.7,23.6c-19.1,15.8-39.3,30-60.7,42.4c-9.4,5.5-19,10.8-29,15.2c-4.2,1.8-6.6,4.6-8,7.9c7,0.3,15.6,0.6,22.3,1.4   c8.7,1.1,17.4,3,26.1,4.4c6.3,1,12.6,1.9,20.2,3.1c2.2-3.2,5.2-7.7,8.4-12.5c7.2,2.2,15.7-3.2,22.5,3.7c0.4,0.4,1.5,0,2.2,0.1   c2.3,0.2,4.6,0.1,6.8,0.6c4.3,1,8.9,0.9,13.3-2c0.3,8.3,4,12.2,13,10.8c0,3.1,0,5.8,0,8.8c2,0,3.2,0,5.2,0c0.4,4,0.8,7,1.2,12   c13.2,0,26.3,0,39.7,0c0.1-2,0.3-3,0.4-5c2.6,0,4.9,0,6.5,0c-0.7,3-1.4,8-2.1,12c4,0,6.8,0,10.1,0c-0.2,3-0.5,5-0.7,7.3   c1.9-0.3,5-0.5,6.5-0.8C311,256.6,310.8,256.3,310.6,255.9z" stroke-miterlimit="10" stroke="#FFFFFF"/>
	<path name="离岛区" fill="#D3D3D3" id="path14" d="M545.9,480.2l-0.5-1.1c-0.4,0.2-0.8,0.6-1.2,0.6   c-34.6,0-69.2,0.1-103.8,0c-1.9,0-4.1-0.6-5.6-1.7c-3-2.2-5.7-4.8-8.6-7.3c-11.5-10-22.5-20.1-34.2-30   c-14.9-12.7-29.6-25.1-44.6-37.6c0-4,0-7.6,0-12.3l-1.9,0c-0.2-6.4-0.9-12.9-0.7-19.3c0.2-7.4,0.8-14.7,1.3-22.7   c-7.5,0-14.2,0.3-20.8-0.1c-15.3-0.8-30.6-2-46-2.7c-16.8-0.9-33.7-1.4-50.1-2.1c-0.4-3.1-1.1-8.3-1.6-12.2c-0.2,0-0.3,0-0.5,0   c-38.2,0.3-76.4,0.5-114.5,0.6c-4.7,0-9.5-0.4-14-0.6c-6.8,18.1-13.4,36.7-20.8,55c-2.1,5.2-6.2,9.6-9.5,14.2   c-8.5,12.1-14.3,25.4-17.5,39.7c-3.5,15.9,2.2,29.4,11.7,42c9,11.8,21.1,19.5,33,27.7c10.6,7.3,20.7,15.5,31.9,21.9   c11.6,6.6,23.7,7.6,36.3,0.4c10.1-5.8,21.4-8.4,33.4-5.3c1.2,0.3,2.6,0,4,0c88.8,0,177.7,0,266.5,0c8,0,15.3,2.3,20.9,8   c6.7,6.8,9.2,4.5,15.4,2.2c1-0.4,2.1-0.5,2.8-1.2c4.4-4.4,9.8-6.1,15.9-6.2c8.3-0.2,16.6-0.7,24.9-1.1l1.4,3.4   c-0.4-4.5-1.1-9-1.3-13.6C547,505.9,546.5,493.1,545.9,480.2z" stroke-miterlimit="10" stroke="#FFFFFF"/>
	<path name="屯门区" fill="#D3D3D3" id="path15" d="M227.3,331.6c2.1,0,4.7-0.4,6.1-1.7   c11.2-10.1,22.2-20.5,33.3-30.7c-0.3-0.2-0.7-0.4-1-0.6c0.8-2.2,1.1-4.8,2.5-6.5c2.6-3,5.8-5.5,8.6-8.1c-2.7-3.2-5-6-8-9.6   c5.5-2.9,9.9-6.8,16.4-5c0.3-1.3,0.7-2.5,1-3.9l0.6-1c5.3,0,10.6,0,17.3,0c0.4-4,0.9-9,1.3-14c-3.3,0-6.1,0-10.1,0   c0.8-4,1.4-9,2.1-12c-1.6,0-3.8,0-6.5,0c-0.1,2-0.3,3-0.4,5c-13.4,0-26.4,0-39.7,0c-0.4-5-0.8-8-1.2-12c-2,0-3.2,0-5.2,0   c0-3,0-5.7,0-8.8c-9,1.4-12.7-2.5-13-10.8c-4.4,2.8-8.8,3-13.1,2c-2.2-0.5-4.6-0.4-6.9-0.6c-0.8-0.1-1.9,0.3-2.3-0.1   c-6.8-6.8-15.3-1.5-22.5-3.7c-3.2,4.8-6.3,9.3-8.4,12.5c-7.6-1.2-13.9-2.1-20.2-3.1c-8.7-1.5-17.4-3.3-26.1-4.4   c-6.7-0.8-15.3-1.1-22.3-1.4c-0.9,2-1.5,4.2-2,6.5c-0.9,3.9-1.1,7.9-1.2,11.9c-0.1,13.4,0.1,26.8-0.1,40.3   c-0.2,12.9-0.5,25.7-1.2,38.6c-0.3,6.4-1.4,12.9-2.3,19.3c-0.1,0.6-1.1,1.1-1.6,1.7l-2.7,0.5c4.5,0.2,9.3,0.7,14,0.6   C150.9,332.1,189.1,331.9,227.3,331.6z" stroke-miterlimit="10" stroke="#FFFFFF"/>
	<path name="沙田区" fill="#D3D3D3" id="path16" d="M489.8,238.1c-4.2-10.4-3.8-21.4-3.3-32.9   c-7.2,0-14.2-0.3-21.1,0.2c-2.1,0.1-4.2,2-6.2,3.3c-9,5.3-18,10.7-24.7,20.5c-3-0.3-6.7-0.7-11.1-1.2c-0.6,1.1-1.2,2.4-2.3,4.5   c-2,0-4.7-0.1-7.4,0.1c-1.5,0.1-3.3-1-4.4,2.1c-0.4,1.1-3.7,1.6-6.5,1.7c0.6,5.9,1.3,13.3,1.9,18.9c-4.6,3.8-10.7,6.4-10.6,12.7   c-3.5,3.6-6.4,3.5-9,2.2l-0.4,0.9c-3,6.3-5.3,12.7-3.8,20.4c-1.3,1.5-2.7,3.3-4.6,5.5c1.6,4.2,3.3,8.5,5.2,13.4   c5.6-0.9,13.1-2.2,18.1-3c0-0.5,0-1,0-1.5c2.6,1.3,5.2,2.5,7.7,3.8c2.3-1.1,4.7-3.5,6.8-3.2c4.8,0.8,8.1-2.1,11.9-3.6l0.2-0.2   c7.5-0.3,11.9-4.3,19.6-3.2c7.7,1,14.2-3.6,16.5-11.3c1.1-3.9,2.4-6.4,7.8-7.4c4.6-0.8,8.5-6.5,12.5-10.2c2.7-2.5,5.1-5.5,8.3-7.8   C491.6,254.7,493.2,246.3,489.8,238.1z" stroke-miterlimit="10" stroke="#FFFFFF"/>
	<path name="荃湾区" fill="#D3D3D3" id="path17" d="M394.3,267.9c-0.1-6.4,6-9,10.6-12.7c-0.6-5.6-1.3-13-1.9-18.9   c-0.6,0-1.1,0-1.6,0c-6.2,0-11.8-0.5-18.2-0.7c-3-6.2-9.7-7.1-15.7-2.9v0c-2,1.1-3.8,2.6-5.2,4.4c-1.7-0.3-3.7-0.7-6-1.1   c-1.8,2-4.2,4.3-6.8,7.1c-2.1-0.6-2.9-1.3-5.3-2.1c-3.7-2.2-5.4,0.8-7.4,2.8c-2,2-3.9,4.1-7.1,7.5c-0.9-1.8-1.5-2.9-2.3-4.6   c-5.6,3.1-11.2,6.1-16.8,9.1c0.2,0.4,0.4,0.9,0.6,1.3c-1.5,0.2-4.6,0.5-6.5,0.8c-0.2,2.2-0.5,4.5-0.7,6.5c-6.7,0-12,0-17.3,0   l-0.6,1c-0.3,1.3-0.7,2.6-1,3.9c-6.6-1.7-10.9,2.1-16.4,5c3,3.6,5.4,6.4,8,9.6c-2.8,2.6-6.1,5.1-8.6,8.1c-1.4,1.7-1.7,4.3-2.5,6.5   c0.3,0.2,0.7,0.4,1,0.6c-11.1,10.3-22.1,20.6-33.3,30.7c-1.3,1.2-3.7,1.6-5.7,1.7c0.5,3.8,1.2,9,1.6,12.2   c16.4,0.7,33.2,1.3,50.1,2.1c9.1,0.5,18.2,1.1,27.3,1.6c0.2-4.9,0.5-11.1,0.5-15.9c0.1-13.6,0-27.2,0-41.2c3.3-0.9,6.2-2.3,9.1-2.4   c11.5-0.4,23.1-0.4,34.6-0.7c2.1-0.1,5-0.4,6.1-1.7c3.8-4.9,8.2-6.1,13.8-3.8l0.6-1.1c1.4-5.3,0.7-11.6,7.7-14.6   c2.1,1.2,4.1,3,6.3,4.1C387.9,271.4,390.8,271.5,394.3,267.9z" stroke-miterlimit="10" stroke="#FFFFFF"/>
</g>
</svg>