<?xml version="1.0" encoding="UTF-8" standalone="no"?><!-- Generator: Adobe Illustrator 18.0.0, SVG Export Plug-In . SVG Version: 6.00 Build 0)  --><svg xmlns="http://www.w3.org/2000/svg" xmlns:xlink="http://www.w3.org/1999/xlink" contentScriptType="text/ecmascript" zoomAndPan="magnify" contentStyleType="text/css" id="图层_1" mapName="黑龙江省" mapType="省市地图" enable-background="new 0 0 800 600" version="1.1" xml:space="preserve" preserveAspectRatio="xMidYMid meet" viewBox="0 0 800 600" x="0px" y="0px">
<path name="伊春市" fill="#D3D3D3" id="path0" d="M449.4,359.8c-0.4-0.9-2.5-3-2.2-5.2c0.3-2.2,1.4-6.3,2.4-8.6  c1-2.3,0.5-4.6-0.5-5.1c-1-0.5-3.8-2.8-4.8-6.1c-0.9-3.2-1.8-3.8-0.9-4.4c0.9-0.5,2.4-2.7,2.2-4c-0.3-1.3-2.1-5.4,0.1-5.1  c2.2,0.2,1.5-2.3,0.8-3c-0.7-0.7-0.7-1.4,1.5-1.7c2.1-0.4,5.1-1.1,5.2,0.7c0.1,1.8,1.2,1.9,2,2.7c0.7,0.8,2,1.2,2.5,0.4  c0.6-0.8,1.7-0.7,2.8-0.6c1,0.1,1.5-1.2,1.5-2.7s0.9-2.8,2.1-3.4c1.2-0.7,3.2-2,4.6-1.8c1.5,0.2,4.8,1.5,7,0.9  c1.6-0.4,2.9-0.9,3.6-1.2c-1-1.8-2.2-3.5-2.1-5.2c0.1-1.8,0.9-5.4-0.4-4c-1.3,1.4-1.7,2.9-3,0.9c-1.3-2-0.3-3.3-1.3-4.3  c-1.1-1-2.8-3.1-1.5-5.2c1.3-2.1,2.1-2.7,1.8-3.9c-0.3-1.2-0.3-1.5,0.8-2.8c1.1-1.3,2.1-3.4,0-2.9c-2.1,0.5-3.9,1.3-4.9,0.5  c-1-0.8-1.7-1.8-3.4-0.7c-1.7,1.1-5.8,1.9-7.5-0.1c-1.7-2-5.3-4.2-6.7-5.9c-1.4-1.7-4-7.5-5.7-8.1c-1.7-0.6-2-2.7-3.1-3.4  c-1.1-0.7-2.5-1.5-4.3-2c-1.8-0.6,0.7-5.8-1.1-5.8c-1.7,0-4.8-0.7-4.5,0.8c0.3,1.5,0.4,3.1-1.5,2.3c-1.4-0.6-2.6-1.3-3.8-1.5  c-0.5,0.6-1.5,1.6-2.1,2.2c-0.9,0.9-0.3,2.4,0.3,3.6c0.6,1.2,0.3,3.7,0.2,6.3c-0.1,2.6,1.7,1.7,3.3,4c1.6,2.3,4.7,6.4,5.7,8  c1,1.6,1.2,2.3,0.2,3.7c-1,1.4-6.1,4.8-7.5,5.6c-1.5,0.8-3-0.8-4-0.5c-1,0.3,0,1.7,1.5,3.1c1.5,1.5-2,3.5-4.4,3.8  c-2.3,0.3-2.9,2.6-2.4,4.3c0.5,1.7,0.7,3.6,0.6,6.1c-0.1,2.6-2.1,1.9-3,2.1c-0.9,0.2-0.6,1.3,0.1,2.3c0.8,1,0.4,1.8-0.8,3.2  c-1.1,1.4-2.4,0.2-2.6-1.3c-0.2-1.6-0.5-3.3-2.1-5.4c-1.6-2.1-5.3,1.3-7,1.8c-1.6,0.5-2.6,0.9-3.1,2c-0.4,1.1-1.4,2.8-2.3,3.5  c-0.9,0.7-1.8,0.9-2,3.7c-0.1,2.8-2.6,3.3-3.6,3.7c-0.2,0.1-0.5,0.1-1,0.2c0.1,0.4,0.3,2.8-0.8,3.9c-1.3,1.2-2.2,3.7,0.1,3  c2.4-0.7,4.1-0.9,5.5,0.5c1.4,1.4,5.3,3.7,3.8,4.7c-1.5,1-3.3,1.8-5,1.8c-1.8,0.1-3,1.3-1.1,2c1.8,0.7,3.3,1.6,1.6,1.9  c-1.6,0.4-2.7,0.6-1.6,1.8c1.1,1.3,1.6,2.7,0.1,3.5c-1.4,0.7-1.8,2.1-0.1,3c1.8,1,4.1,1.9,4.4,3.5c0.4,1.6,0,2.7,2.7,2.7  c2.7-0.1,3.6-0.2,3.6,1.2c0,1.4-0.8,1.7-1.1,3c-0.3,1.3-0.2,4.5-2.7,4.7c-2.4,0.2-7.3,2.4-8.3,2.4c-1,0-2.9-0.1-3.7,0.9  c-0.8,1-0.9,1.2-3.7,1.2c-2.8,0-4.1,0.5-5.1,1.6c-1,1.1-2.9,1.6-4.1,1.5c-1.3-0.1-4.1,0.3-4.1,1.1c0,0.8,2.6,2.6,3.6,3.5  c1,1,5.1,3.6,7,6.9c1.9,3.3,2.6,3.8,3.4,4c0.8,0.2,2.1,1.7,2.4,2.9c0.3,1.2,0.6,2.3,2,2.6c1.4,0.3,2.8,0.2,3.1,0.6l0,0  c0.7-0.6,1.9-0.5,3.1-0.4c1.4,0.1,2.4-0.1,2.8-1.2c0.4-1.1,1-2.6,1.9-1.1c1,1.4,2.5,1.4,4,1.3c1.4-0.1,3.4-0.1,3.2,1.7  c-0.2,1.8-0.5,2.6,2.4,2.9c2.9,0.3,4-1.8,6.4-1.1c2.4,0.7,3.6,2,4.7,0.3c1.1-1.8,2.3-2.4,5-3.9c2.7-1.5,3.5-3.8,7.5-2.6  c0.7,0.2,1.2,0.4,1.8,0.6c1-0.8,4.1-3.5,5-5.1c1.1-1.9,0.4-2.9,1.2-3.4c0.8-0.6,2.9-0.8,2.3-3.4c-0.6-2.6-1.2-5.3-2.7-6.3  c-1.5-1-1.6-2.1-0.3-2.2c1.3-0.1,1-0.9,1-2.6c0-1.6,3.4-6.3,4.3-5.9C447.7,363.5,449.8,360.5,449.4,359.8z" stroke-miterlimit="10" stroke="#FFFFFF"/>
<path name="鹤岗市" fill="#D3D3D3" id="path1" d="M535.9,341.5c-2.2-1.7,0.6-3-3.4-2.3c-4.1,0.7-6.6,3.4-9.3,2.7  c-2.6-0.7-9.1,1-9.1,1s-7.9,1.6-9.8,0c-1.9-1.6-2.7-2.4-7.5-2.1c-4.8,0.3-4.4,3.2-8.1,2.4c-3.7-0.8-3.9-2.4-3.9-5.3  c0-2.9-0.5-4.6-2.6-6.3c-2.1-1.7-7.1-5.6-5.6-9.7c1.5-4.1,4-8.1,2.9-10c-0.1-0.1-0.2-0.3-0.2-0.4c-0.6,0.3-2,0.8-3.6,1.2  c-2.2,0.5-5.5-0.7-7-0.9c-1.5-0.2-3.5,1.2-4.6,1.8c-1.2,0.7-2.1,1.9-2.1,3.4s-0.5,2.8-1.5,2.7c-1-0.1-2.2-0.2-2.8,0.6  c-0.6,0.8-1.8,0.4-2.5-0.4c-0.7-0.8-1.8-0.9-2-2.7c-0.1-1.8-3.1-1.1-5.2-0.7c-2.1,0.4-2.1,1.1-1.5,1.7c0.7,0.7,1.4,3.2-0.8,3  c-2.2-0.2-0.4,3.9-0.1,5.1c0.3,1.3-1.3,3.4-2.2,4c-0.9,0.5-0.1,1.1,0.9,4.4c0.9,3.2,3.8,5.6,4.8,6.1c1,0.5,1.5,2.8,0.5,5.1  c-1,2.3-2.1,6.4-2.4,8.6c-0.3,2.2,1.8,4.3,2.2,5.2c0.4,0.8-1.7,3.7-2.4,4.8c0,0,0,0,0.1,0c0.7,0.6,1.1,1.1,3.5,1.4  c2.4,0.3,5.2,0.7,6.8,0.7c1.5,0,1.9,1.2,2.5,2.3c0.6,1.1,2,2.7,4.1,3.4c2,0.6,5.1,1.6,4.1,0.3c-1-1.3-4-3.3-2.3-3.6  c1.7-0.3,4.4-0.8,5.9-0.2c1.5,0.6,2.3,0.2,3.2-0.9c0.9-1.1,4.6-2.4,2.4-3.8c-2.2-1.4-1-1.7,0.6-1.3c1.6,0.4,5.1,0.8,6,0  c0.9-0.8,2.3-2.2,3-0.6c0.7,1.6,0.8,2.9,2.4,2.5c1.6-0.3,5.8-0.3,7.4,0.2c1.6,0.4,3.3,1.4,4.6,0.3c1.3-1.1,4.2-3.3,5.7-3.1  c1.5,0.2,0.6,0.4,2.4,0.8c1.7,0.4,3.9-1.3,5.2-1.3c1.3,0,2.7-0.2,4.3,0.4c1.7,0.6,3.2-1.1,3.9-2.4c0.8-1.3,1-4.5,3.6-5.1  c2.7-0.7,4.5-1.6,5.2-3.4c0.7-1.8,1.5-3.6,2.5-4.4c1-0.8,1.7-2.2,1.8-3.3c0-0.6,0.4-1.1,0.8-1.5  C536.3,341.8,536.1,341.7,535.9,341.5z" stroke-miterlimit="10" stroke="#FFFFFF"/>
<path name="佳木斯市" fill="#D3D3D3" id="path2" d="M620.7,298.3c-0.8,0.8-0.8,2.3-2,1.8c-1.2-0.5-2.6-0.7-3.9,0.6  c-1.3,1.2-1.5,3-2.8,2.6c-1.2-0.4-5.8-2.6-7-1.9c-1.2,0.8-4.7,0.6-7,1.7c-2.3,1.1-7.6,3.4-9.4,4.5c-1.7,1.1-3.4,4.4-5.9,3.8  c-2.5-0.6-3.3,0.4-3.7,1.9c-0.4,1.5-2,2.5-3,2.2c-1-0.3-1.5-0.2-2.2,1.2c-0.7,1.4-1.8,2.5-4.2,2.7c-2.5,0.2-4.4,0.5-7.9,0.5  c-3.5,0-4.5,0.3-5.6,2c-1.1,1.8-2.6,1.6-4.6,3.2c-2,1.6-3.3,4.3-5.1,4.2c-1.9-0.1-2.8,0.5-3,2.1c-0.2,1.6-0.8,3.6-1.4,4.7  c-0.6,1-3.3,5.9-5.5,5.7c-0.4,0.4-0.7,1-0.8,1.5c0,1.1-0.8,2.5-1.8,3.3c-1,0.8-1.8,2.6-2.5,4.4c-0.7,1.8-2.6,2.8-5.2,3.4  c-2.7,0.7-2.9,3.8-3.6,5.1c-0.8,1.3-2.3,2.9-3.9,2.4c-1.7-0.6-3-0.4-4.3-0.4c-1.3,0-3.5,1.7-5.2,1.3c-1.7-0.4-0.9-0.6-2.4-0.8  c-1.5-0.2-4.3,1.9-5.7,3.1c-1.3,1.1-3,0.1-4.6-0.3c-1.6-0.4-5.8-0.5-7.4-0.2c-1.6,0.3-1.7-0.9-2.4-2.5c-0.7-1.6-2.1-0.2-3,0.6  c-0.9,0.8-4.4,0.4-6,0c-1.6-0.3-2.8-0.1-0.6,1.3c2.2,1.4-1.5,2.7-2.4,3.8c-0.9,1.1-1.7,1.5-3.2,0.9c-1.5-0.6-4.2-0.1-5.9,0.2  c-1.7,0.3,1.3,2.3,2.3,3.6c1,1.3-2,0.3-4.1-0.3c-2-0.6-3.5-2.3-4.1-3.4c-0.6-1.1-1-2.3-2.5-2.3c-1.5,0-4.3-0.4-6.8-0.7  c-2.4-0.3-2.8-0.7-3.5-1.4c-0.7-0.6-4.3,4.2-4.3,5.9c0,1.7,0.3,2.5-1,2.6c-1.3,0.1-1.2,1.2,0.3,2.2c1.5,1,2.1,3.7,2.7,6.3  c0.6,2.6-1.5,2.8-2.3,3.4c-0.8,0.6-0.2,1.5-1.2,3.4c-0.9,1.6-4,4.3-5,5.1c2.7,1.1,3.9,2.4,4.5,3.4c0.7,1.2,4.4,3.2,5.3,3.2  c1,0,3.4-1.6,3.4-2.1c0.1-0.6,2-2.8,3.7-1.2c1.7,1.6,5.8,1.6,7.3,0.3c1.4-1.3,5.3-2.6,4.8-0.2c-0.6,2.4-1.6,5.6-2,6.6  c-0.4,1-1.1,1.4-1.8,1.3c-0.7-0.1-1.4,0.8-1.9,1.5c-0.4,0.7-0.6,1.2-2.8,1c-2.2-0.2-4.1,0.2-3.2,0.6c0.8,0.4,3.3,2.7,5.6,5.4  c2.3,2.8,3.4,1.1,3.5,3.2c0,1.4,0.2,2.3,0.6,2.8l0,0c0,0,0,0,0,0c0.2,0.3,0.4,0.4,0.7,0.5c0.9,0.4,4.9,1.5,5.8,2.4  c0.9,0.9,8.2,5.4,9,5.7c0.8,0.2,1.9-1.2,3.7-1.5c1.8-0.3,2.8-1.6,4.2-1.5c1.4,0.1,5.5,2,5.4-0.8c-0.1-2.8,0.2-3.1,0.8-3.5  c0.5-0.4-0.8-4.1,0.8-6.3c1.6-2.2,4.2-5.1,5.5-5.1c0-0.1-0.1-0.2-0.1-0.3c0-0.8,0.6-2.2-2.7-2.3c-3.3-0.1-6.1-1.2-6.6-3.2  c-0.5-2-0.5-4.1-1.9-4.1c-1.4,0-2.5,0.6-3.5-0.2c-1-0.8-1.1-0.8-1.8-0.8c-0.7,0-2.6,0-2.6-1.9c0-1.9,0.9-4.1,0.1-4.5  c-0.8-0.5-2.6-1.8-2.7-4.1c-0.1-2.2-0.5-3.3,1.3-3.3c1.7,0,5.6,0.6,5.7-1c0.1-1.6,0.2-3.1,2.3-4.7c2.1-1.6,3.1-2.5,5-1.8  c1.9,0.6,5.6,1.2,9.6-0.3c3.9-1.5,5.1-2.6,5.4-1c0.2,1.6,0.4,4.5,3.5,4.6c3.1,0.1,4.3-0.2,6.1-0.6c1.9-0.4,1.5-1.2,2.2-2.3  c0.7-1.1,1.9-0.9,4-0.9c2.1,0,4.5,0.2,6-0.2c1.6-0.4,2.8,0.2,3.8,0.7c1,0.5,1,1.5,0.5,2.4c-0.5,0.8-0.8,1.5,1,3.5  c1.8,2.1,3.6,3.1,3.5,1.5c-0.1-1.6,0.2-2.1,1.3-1.8c1.1,0.3,2.1,0.1,2.4,0.9c0.3,0.8,1.9,0.5,2.3,0.1c0.4-0.4,4.1-1.3,7.8-0.7  c3.7,0.6,4.4-0.9,5.8-1.9c1.4-1,6.7-4.1,6.9-7.6c0.2-3.4,1.3-8.9,3.5-12.5c2.2-3.7,3-7.9,3.3-9c0.3-1.1,1.1-2.2,2.7-1.9  c1.6,0.3,4,1.5,4.8-1.1c0.8-2.6,1.3-4.2,2.8-4.2c1.6-0.1,3.7-0.8,5.6,0c1.9,0.8,5,1.1,5.6,0c0.6-1,0.6-0.9,1.5,0.2  c0.8,1,3.7,4,4.4,5.3c0.8-1.1,1.7-1.9,2.4-1.9c1.6,0,5.4-1.1,5.7-2.8c0.3-1.7,2.7-1.6,2.9-2.9c0.2-1.3,6.6-8.2,3.9-10.6  c-2.7-2.3-2.5-2.3-2.5-3.8c0-1.5-0.9-0.9-1.7-1.5c-0.9-0.5-3.9-3-2.7-5.3c1.2-2.3,2.8-5.2,2.8-6.6c0-1.5,1-4.7,2.7-6.4  c1.7-1.7,2.2-3.1,3.8-3.1c1.6,0,5.7-3.3,6.7-5.3C622.5,297.9,621.5,297.5,620.7,298.3z" stroke-miterlimit="10" stroke="#FFFFFF"/>
<path fill="#D3D3D3" id="path3" d="M463,419.3C463,419.3,463,419.4,463,419.3  C463,419.4,463,419.4,463,419.3L463,419.3z" stroke-miterlimit="10" stroke="#FFFFFF"/>
<path name="七台河市" fill="#D3D3D3" id="path4" d="M493.5,414.4c-1.6,2.2-0.3,5.9-0.8,6.3c-0.5,0.4-0.9,0.6-0.8,3.5  c0.1,2.8-4,0.9-5.4,0.8c-1.4-0.1-2.4,1.2-4.2,1.5c-1.8,0.3-2.8,1.7-3.7,1.5c-0.8-0.2-8.1-4.8-9-5.7c-0.9-0.9-4.9-2-5.8-2.4  c-0.3-0.1-0.5-0.3-0.7-0.5c-0.1,1.9-1.7,2.5-2.7,3.1c-1,0.6-1.3,3.4-1.3,4.1s-1.9,3.1,0.3,3.3c2.2,0.2,1.6,2.6,2.6,3.9  c1,1.2-0.3,7.5-0.6,9.9c-0.3,2.4,1,2.2,1.9,1.7c0.8-0.5,2.3-0.1,3.5,0.5c1.2,0.6,1.8,0,2.1-1.9c0.3-1.9,1.7-0.5,2.1,1.6  c0.4,2.1,1.7,2.1,3,2.1c1.4,0,4.5-0.1,5.3-2.2c0.8-2.1,1.6-1.8,2.1-1.1c0.5,0.6,2.6,0.6,4.9,0.5c2.3-0.1,2.9-1,3.2-2  c0.4-1,1.7-1.4,2.7-0.8c1,0.6,1.8,1,3.4,0.6c1.6-0.4,2.2,1.9,3,1.4c0.7-0.5,0.8,0,2.6,0c1.7-0.1,1.1-1.8,0.9-3.9  c-0.2-2,2.5-1.6,4.2-1.5c1.7,0.1,1.8-1,1.1-2.4c-0.6-1.4-0.4-2.8,0-4.3c0.4-1.4,4.7-3.1,5.8-3.8c0.1-0.1,0.2-0.1,0.3-0.1  c-0.1-0.7-0.3-4.2,0.6-4.8c1.1-0.7,1.5-1.3,3.4-1.8c1.9-0.4,1.6-1.8,1.3-2.9c-0.4-1-2-2.4-3.6-2.4c-1.7,0-2.3-1.3-2.8-2  c-0.5-0.7-1.5-1.5-4.3-1.6c-2.8-0.1-5.9-1.7-6.8-2c-0.8-0.3-1.9-0.6-2.1-1.2C497.7,409.3,495,412.2,493.5,414.4z" stroke-miterlimit="10" stroke="#FFFFFF"/>
<path name="双鸭山市" fill="#D3D3D3" id="path5" d="M591.7,344.7c-0.6,1-3.7,0.8-5.6,0c-1.9-0.8-4.1-0.1-5.6,0  c-1.6,0.1-2,1.6-2.8,4.2c-0.8,2.6-3.2,1.3-4.8,1.1c-1.6-0.3-2.4,0.8-2.7,1.9c-0.3,1.1-1.1,5.3-3.3,9c-2.2,3.7-3.3,9.1-3.5,12.5  c-0.2,3.4-5.5,6.5-6.9,7.6c-1.4,1-2.1,2.5-5.8,1.9c-3.7-0.6-7.4,0.4-7.8,0.7c-0.4,0.4-2,0.7-2.3-0.1c-0.3-0.8-1.3-0.6-2.4-0.9  c-1.1-0.3-1.4,0.3-1.3,1.8c0.1,1.6-1.7,0.5-3.5-1.5c-1.8-2.1-1.5-2.7-1-3.5c0.5-0.8,0.5-1.8-0.5-2.4c-1-0.5-2.2-1.1-3.8-0.7  c-1.6,0.4-3.9,0.2-6,0.2c-2.1,0-3.3-0.2-4,0.9c-0.7,1.1-0.3,1.9-2.2,2.3c-1.9,0.4-3.1,0.7-6.1,0.6c-3.1-0.1-3.2-3-3.5-4.6  c-0.2-1.6-1.4-0.5-5.4,1c-3.9,1.5-7.7,0.9-9.6,0.3c-1.9-0.6-2.9,0.2-5,1.8c-2.1,1.6-2.2,3.1-2.3,4.7c-0.1,1.6-4,1-5.7,1  c-1.7,0-1.4,1.1-1.3,3.3c0.1,2.2,1.9,3.6,2.7,4.1c0.8,0.5-0.1,2.6-0.1,4.5c0,1.9,1.9,1.9,2.6,1.9c0.7,0,0.8,0,1.8,0.8  c1,0.8,2.1,0.2,3.5,0.2c1.4,0,1.4,2.1,1.9,4.1c0.5,2,3.3,3.1,6.6,3.2c3.3,0.1,2.7,1.5,2.7,2.3c0,0.8,1.2,1.2,2.2,1.5  c1,0.3,4,1.9,6.8,2c2.8,0.1,3.8,0.9,4.3,1.6c0.5,0.7,1.1,2,2.8,2c1.7,0,3.3,1.3,3.6,2.4c0.4,1,0.6,2.5-1.3,2.9  c-1.9,0.4-2.3,1.1-3.4,1.8c-1,0.6-0.7,4.1-0.6,4.8c1-0.1,2.2,2.5,3,2.6c0.9,0.1,0.8-1.4,1.9-1.4c1.1,0,0.2,2.7,0.1,4.2  c-0.1,1.5,0.1,2.8,1.4,2.7c1.2-0.1,1.7-2.2,1.7-3.6c0-1.4,1.1-1.4,1.9-1.7c0.8-0.3,1.2,1.5,3.1,2c1.9,0.5,2.1-1,3.5-0.8  c1.4,0.2,1.7,0,1.8-1.1c0.1-1.1,0.6,0.1,1.5-1c0.9-1.1,1.6-0.9,1.1-2.1c-0.5-1.2-0.2-3-0.2-4.6c0-1.5,1.5-2.4,2.1-1.2  c0.6,1.2,2.4,0.8,4.2,1.2c1.9,0.3,3.9-2.4,4.5-4.1c0.6-1.7,1.4-3.3,1.9-3.6c0.4-0.3,2-2.2,3.7-1.2c1.7,1,4.4,1.5,5.9,0.9  c1.5-0.6,1.2-1.9,1.2-3.9c0-2,0.3-3.3,1.2-4.2c0.8-0.9,0.4-1.3-0.1-2.3c-0.5-1,0.1-1.5,1-1.7c1-0.1,1.6-0.7,1.8-2  c0.2-1.3,0-2.9,0.9-3.5c0.9-0.6-0.1,1,2.5,0.7c2.6-0.3,1.3-2.2,1.7-4.3c0.4-2.2,4.4-1.7,5.2-0.5c0.8,1.2,1.5,1.4,3.4,1.4  c1.9,0,2.6-0.1,3.2-0.8c0.7-0.7,2.5-0.1,3.5,0c0.8,0.2,4.5,0.4,5.8,0.5c0.1-0.3,0.3-0.6,0.5-0.9c1.9-2.8,4-8.1,4-11.4  c0-3.3-0.5-3.8,0-6.1c0.5-2.3-1.3-6.1,0.4-8.2c1.6-2.1,4.9-4.5,3.4-6.6c-1.5-2-3.8-4.3-1.8-6.7c1.1-1.4,2.3-3.3,3.4-4.8  c-0.7-1.3-3.6-4.2-4.4-5.3C592.3,343.8,592.2,343.6,591.7,344.7z" stroke-miterlimit="10" stroke="#FFFFFF"/>
<path name="绥化市" fill="#D3D3D3" id="path6" d="M316.3,440c1.6-0.1,4.1-0.1,4.8,0.4s1.6-0.9,3.5-0.6  c2,0.3,4.1,0.8,4.8-1c0.7-1.8,1.5-3.1,0.6-5.2c-0.8-2.1-1.6-6.4-4-7.9c-2.4-1.5-4.9-5.2-3-5.2c1.9,0.1,6.7-0.6,7.6,0  c0.9,0.6,1.8,0.1,1.8-1c0-1,1.4-3.5,2.3-3.9c0.9-0.3,2-0.8,2-2.3c0-1.5,2.7-5.5,3.5-5.9c0.8-0.4,4.5-3.5,6-4.2c1.5-0.7,2.9-3.4,4-4  c1.1-0.6,6-2.8,8.3-4.4c2.3-1.7,5.5-2.5,7.1-1.1c1.5,1.3,3.6,2.9,3.6,4.1c-0.1,1.3,0.2,3,2,2.2c1.7-0.8,1.9-2.4,4.1-3  c2.2-0.6,5.5-2.4,6.6-1.5c1.1,0.8,5.1,5.4,7.5,4.9c2.4-0.5,2.9-2.1,3.6-3.1c0.1-0.1,0.2-0.2,0.3-0.3l0,0c-0.3-0.3-1.7-0.3-3.1-0.6  c-1.4-0.3-1.7-1.4-2-2.6c-0.3-1.2-1.6-2.7-2.4-2.9c-0.8-0.2-1.5-0.7-3.4-4c-1.9-3.3-6-5.9-7-6.9c-1-1-3.6-2.7-3.6-3.5  c0-0.8,2.8-1.2,4.1-1.1c1.3,0.1,3.1-0.4,4.1-1.5c1-1.1,2.3-1.6,5.1-1.6c2.8,0,2.9-0.2,3.7-1.2c0.8-1,2.7-0.9,3.7-0.9  c1,0,5.9-2.1,8.3-2.4c2.4-0.2,2.4-3.5,2.7-4.7c0.3-1.3,1.1-1.6,1.1-3c0-1.4-1-1.3-3.6-1.2c-2.7,0.1-2.3-1-2.7-2.7  c-0.4-1.6-2.7-2.6-4.4-3.5c-1.8-1-1.3-2.3,0.1-3c1.4-0.7,1-2.2-0.1-3.5c-1.1-1.3,0-1.5,1.6-1.8c1.6-0.4,0.2-1.2-1.6-1.9  c-1.8-0.7-0.7-1.9,1.1-2c1.8-0.1,3.5-0.9,5-1.8c1.5-1-2.4-3.2-3.8-4.7c-1.4-1.4-3.2-1.2-5.5-0.5c-2.4,0.7-1.4-1.8-0.1-3  c1.2-1.1,0.9-3.5,0.8-3.9c-2.4,0.4-7.7,1-8.9,1.6c-1.4,0.8-2.5,2.5-1.4,3.7c1.1,1.3,0.9,2,0.1,3.1c-0.8,1-0.3,2.3-1.7,4.9  c-1.4,2.6-3.8,0.8-4.5-0.4c-0.7-1.3-1.3-0.9-2.5-0.1s-1.9,0.8-3,0.2c-1.1-0.6-5.7-0.3-8.3-0.3c-2.6,0-5.5-0.3-6.9,0.9  c-1.4,1.2-3.6,2.1-7.1,1.1c-2.8-0.8-7.2,2.4-8.9,3.7c-0.2,0.9-1.2,2.1-0.9,3.3c0.3,1.6-0.2,2.6-0.8,3.7c-0.6,1.1-2.4,2.6-2.5,3.3  c-0.1,0.7-0.6,0.4-1.5,0.4c-1,0-11,0.9-12.1,1.5c-1.1,0.6-6.1,1.6-7.8,1.6c-1.6,0-6.9,0.3-8.4,0.7c-1.5,0.4-5.7,0.9-6.9,0  c-1.2-0.9-2.3-0.8-2.5,0.6c-0.2,1.4-0.6,3.7,0.1,5.1c0.7,1.4-0.6,5.7-1.6,6.8c-1,1.1-1.3,3.4-4.8,4.8c-3.5,1.5-4.6,3.5-4.7,4.3  c-0.1,0.8,0,3.1-0.6,4.2c-0.6,1.1,0.4,1.8,1.1,2.1c0.7,0.3,2.9,0.4,2.6,2.7c-0.3,2.3-0.6,3.6,0.5,4.6c1.2,1,3.7,4.6,3.5,5.5  c-0.2,0.8-1.2,1.5-2.4,0.4c-1.2-1.1-1.9-2.3-3.2-1.7c-1.3,0.6-5,1.7-3.8,3.4c1.2,1.7,4.5,5.9,2.4,6.9c-2.1,0.9-6.5,4.4-5.3,5.5  c1.2,1.2,1.3,1.9,0.1,2.9c-1.2,1-1.7,1.9-0.2,2c1.5,0.1,7.6,1.5,8.9,0.3c1.4-1.2,1.4-2.5,0.1-2.8c-1.3-0.3-3.2-0.5-2.8-1.8  c0.4-1.3,2-3,3.2-2.1c1.2,1,2.6,3.9,3.9,3.6c1.4-0.3,2.8,0,2.8,2.4c0,2.5,1,8.3,2.6,8.5c1.5,0.2,6.4-1.4,7.1-0.6  c0.6,0.8,0.5,1.5,0.3,2.8c-0.1,1.4,0.3,3.5,2.5,3.1c2.2-0.3,2.1,0.2,1.7,1c-0.4,0.8-1.3,1.9,0.6,1.9c1.9,0,2,0.5,0.7,1.4  c-1.3,0.9-1.2,1.5-0.5,3c0.7,1.5,0.5,4.3,1.6,4.5l0,0c0-0.1,0-0.3,0.1-0.4C311.7,443.2,314.7,440.1,316.3,440z" stroke-miterlimit="10" stroke="#FFFFFF"/>
<path name="黑河市" fill="#D3D3D3" id="path7" d="M347.1,341.3c3.5,1,5.8,0.1,7.1-1.1c1.4-1.2,4.2-0.9,6.9-0.9  c2.6,0,7.2-0.3,8.3,0.3c1.1,0.6,1.7,0.7,3-0.2s1.9-1.2,2.5,0.1c0.7,1.3,3.1,3.1,4.5,0.4c1.4-2.6,0.8-3.9,1.7-4.9  c0.8-1,1-1.8-0.1-3.1c-1.1-1.3,0-3,1.4-3.7c1.4-0.8,9-1.5,9.9-1.9c0.9-0.4,3.4-0.9,3.6-3.7c0.1-2.8,1.1-3,2-3.7  c0.9-0.7,1.8-2.3,2.3-3.5c0.4-1.1,1.4-1.5,3.1-2c1.6-0.5,5.4-3.9,7-1.8c1.6,2.1,1.8,3.8,2.1,5.4c0.2,1.6,1.5,2.8,2.6,1.3  c1.1-1.4,1.6-2.2,0.8-3.2c-0.8-1-1-2.1-0.1-2.3c0.9-0.2,2.9,0.4,3-2.1c0.1-2.6-0.1-4.5-0.6-6.1c-0.5-1.7,0.1-4,2.4-4.3  c2.3-0.3,5.9-2.3,4.4-3.8c-1.5-1.5-2.5-2.9-1.5-3.1c1-0.3,2.5,1.3,4,0.5c1.5-0.8,6.6-4.3,7.5-5.6c1-1.4,0.8-2-0.2-3.7  c-1-1.6-4.1-5.7-5.7-8c-1.6-2.3-3.3-1.4-3.3-4c0.1-2.6,0.4-5.1-0.2-6.3c-0.6-1.2-1.2-2.8-0.3-3.6c0.6-0.6,1.5-1.6,2.1-2.2  c-0.4-0.1-0.9,0-1.3,0.1c-1.4,0.6-3,1.6-4.6,0.2c-1.6-1.4-2.1-2.3-3.8-3.3c-1.8-1.1-5.5-0.6-6-2.3c-0.5-1.6-0.4-2.4,0.5-2.9  c0.9-0.5,0.8-1.1-0.6-1.1c-1.4,0-2.3,1.5-4,0.3c-1.7-1.2-4.5-2.6-7-0.9c-2.5,1.7-3.8,1.9-5.2,1.8c-1.4-0.1-3.4,1-5.4,0  c-2-1.1-3.3-3.8-4.9-2.2c-1.6,1.5-2.3,2.5-4.2,1c-1.9-1.5-5.5-5.3-5.5-7.4c0-2,0.3-3.2-1.5-3.2c-1.8,0-3.1-1-3.1-2.6  c0-1.6,0.5-5.1,0-7.5c-0.5-2.4,0-3.3,0.6-4.6c0.6-1.4,4.9-7.1,0.8-8.4c-4.2-1.4-6.6-3.2-6.2-5.8c0.4-2.6,0.3-2.8-0.8-3.7  c-1.1-0.9-0.9-1.9,0.2-3.3c1.1-1.4,1.6-3.2,0.8-5.6c-0.9-2.4-1.4-2.3-1.4-4.4c0-2-0.5-2.8-1.4-3.6c-0.9-0.8-1.1-1.1-1.6-2.7  c-0.5-1.6-1.6-4.2-2.5-5.3c-0.4-0.5-1.5-1.6-2.7-2.8c-1.3,1.1-3.2,2.7-4.3,3.4c-1.7,1.1-3.9,0.2-6.6,0.2c-2.7,0-6.6-0.3-7.8-1.5  c-1.2-1.1-2.7-1.5-4.3-3.6c-1.6-2.1-4.1-1.2-4.6-0.4c-0.5,0.7-3,2-3.7,2.4c-0.1,1.6-0.4,3.1-1.2,2.9c-0.9-0.2-2.3,0.1-2.1,1.1  c0.1,1,0,2.2-0.9,2.2c-0.9,0-2,1.3-2.4,2.3c-0.4,1-1,1.4-1.7,1.4c-0.7,0-1.5,0.6-0.7,1.2c0.7,0.6,1.2,0.8,1.1,2.4  c-0.2,1.5-0.4,2.6,0.1,3.7c0.6,1.1,0.1,4.4-1.5,4.6c-1.6,0.2-2.9,0.6-2.9,1.6c0,1.1-0.4,1.7-1.3,1.6c-0.9-0.2-2,0.5-2.5,1.3  c-0.5,0.9-0.9,1.9-0.5,2.6c0.4,0.7-2,3.2-2.4,3.2c-0.4,0-1.5,1.4-1.5,2.3c0,0.9,0.3,1.2-0.6,2.1c-0.8,0.9-2.1,1.5-2.3,2.4  c-0.2,0.9-0.6,2-1.6,1.9c-1-0.1-2.1,0-1.2,1.2c0.9,1.2,1.4,2.7,0.3,2.7c-1.1,0-1,0.7-0.8,1.5c0.3,0.8,0.1,1.7-1,2.3  c-1,0.6-1.2,1.7-0.6,3s0.7,3.2-0.2,3.6c-0.9,0.5-0.4,1.6-0.4,2.7c0,1.1,0.5,5.8-0.8,6.3c-1.4,0.5-3.2,0.5-1.4,2.3  c1.8,1.8,2.7,1.7,2.6,4.7c-0.1,3,0.8,9.3,0.1,10.8c-0.6,1.5-3,9.1-6.9,7.6c-4-1.4-7.9-1.7-7.9,1.1c0,2.4-1.8,5.7-3,8.3  c0.9,0.9,2.8,2.5,4.5,2.3c2.4-0.2,3.6,0.6,2.9,2.2c-0.7,1.6-0.5,6.2,1.9,7.1c2.3,0.9,4.3,2.1,6.8,1c2.5-1.2,9-6.3,11.2-7.2  c2.2-0.9,4-0.9,4.8,0.8c0.8,1.8,1,4.2,3.1,4.5c2.1,0.4,6.4,1.2,4.7,1.7c-1.6,0.5-7,0.7-7.3,3.6c-0.3,2.9-2.7,4.8-1.2,5.4  c1.5,0.6,2.7,1.6,2.3,3.4c-0.4,1.8,0,4,2.5,6.2c2.5,2.2,5.7,5.6,9.8,5.2c4.1-0.4,6.2-0.7,5.8,0.7c-0.4,1.4,0.2,2.7,2.2,1.8  c2-0.9,6.7-1.5,7.9,0.3c1.2,1.8,3,2.8,0.5,3.7c-2.4,0.9-2.6,3.5-1,4.6c1.6,1.1,1.7,2.9,0.3,3.8c-1.4,0.9-2.1,1.5-1.7,4.4  c0.4,2.9,0.4,4.7-0.3,5.4c-0.7,0.7-0.8,2.7-0.3,3.5c0.1,0.2,0.1,0.5,0,0.7C339.8,343.7,344.3,340.5,347.1,341.3z" stroke-miterlimit="10" stroke="#FFFFFF"/>
<path name="大兴安岭地区" fill="#D3D3D3" id="path8" d="M328.2,178.3c0.5-0.8,3-1.7,4.6,0.4c1.6,2.1,3.1,2.5,4.3,3.6  c1.2,1.1,5.2,1.5,7.8,1.5c2.7,0,4.9,0.9,6.6-0.2c1.1-0.7,3.1-2.3,4.3-3.4c-1.5-1.6-3.1-3.5-3.1-4.6c0-1.9-2.1-5-0.4-7  c1.6-1.9,2.8-4.7,1.7-5.3c-1.1-0.6-2.6-1-2.7,0.4c-0.1,1.4,1.6,2.8-0.2,3.2c-1.8,0.4-1.4-0.8-2.1-1.5c-0.6-0.8-1.1-2.1-0.1-2.6  c1-0.4,3.8-0.6,3.6-2c-0.2-1.4-0.2-1.8-2-2.5c-1.8-0.7-2.7-0.6-2.4-2c0.3-1.4,1.9-4.1,0.2-5.1c-1.7-1.1-2.5-1.3-2.5-2.6  c0-1.2-0.6-2.8-0.6-4.2c0-1.4,0.9-3.1-0.7-3.4c-1.6-0.2-2.2-0.9-2.9-2.6c-0.7-1.7-1.5-5.2-2.8-6.3c-1.3-1.1-2.1-3.3-0.7-4.2  c1.4-1,4-2.1,2.9-4c-1-2-2.5-3.4-4.6-3.9c-2.1-0.5-3.4-0.7-2.1-2.2c1.3-1.5,3.9-3.1,2.2-3.6c-1.7-0.5-1.7,0.1-1.5-1.6  c0.2-1.7,0.9-4.1-1.9-5.3c-2.8-1.1-3.1-2.1-2.5-3.2c0.6-1,1.6-1.4-0.2-2.6c-1.9-1.1-1.9-3.1-3-2.4c-1.1,0.6-1.9,0.9-2.6-0.8  c-0.8-1.6-0.9-4.1,0.4-3.9c1.3,0.2,1.2,0.6,1.2-0.8c0-1.4,0.1-1.4,1.1-2.2c0.9-0.8,1.1-2.9-0.3-2.4c-1.4,0.6-2.4,2.1-3.6,0.6  c-1.1-1.5-1.4-4.9-4.9-4.3c-3.4,0.7-4.8,0.1-4.1-1.4c0.7-1.4,2.7-2.9,2.5-4c-0.1-1.1-0.9-0.3-1.6-1.9c-0.7-1.6-1.2-4.5-2.5-3  c-1.4,1.4-2.3,2.2-3.3-0.1c-1-2.3-3.8-2.8-5.3-3.8c-1.4-0.9-9.1-4.3-10.9-3.3c-1.7,1.1-1.1,0.9-1.2,2.6c-0.1,1.7-0.8,3.5-1.7,2  c-0.9-1.5-0.9-2.2-2.2-2.2c-1.2,0-1.3,0.1-1.7-0.7c-0.4-0.8-1.4-2.9-3-2.7c-1.6,0.2-3.3,1.5-4.6,0.1c-1.4-1.4-4.6-4.5-4.4-5.6  s-0.5-2.9-1.7-3c-1.2-0.1-2.5,0.5-4.4-0.8c-1.9-1.3-5.6-4.9-8.1-5.6c-2.5-0.7-3.9-1.5-4.6-2.4c-0.7-0.9-1.9-1.2-2.4-0.2  c-0.5,1.1-1.5,2.4-1.5,0.5c0-1.9-1.1-3.6-1.2-2.4c-0.1,1.3-0.8,3.6-1.9,2.4c-1.1-1.3-2.3-2.8-4.2-2.8c-1.9-0.1-2.3,1.1-2.7,1.8  c-0.4,0.7-2.3,2-4.6,1.2c-2.3-0.8-3.9,0.1-4.7,0.3c-0.8,0.1-3.5,1.5-5.8,1.3c-2.3-0.3-3.4-1.1-4.5-0.5c-1.2,0.6-3.5,0.5-3.6,0.4  c-0.1-0.1-3-3.9-4.6-3c-1.7,0.9-6.1,2.4-8,2.5c-1.9,0.1-5.7,0.3-6.8,0.3c-1.2-0.1-1.7,0.5-2.6,0.9c-1,0.4-7.3,2-6.4,2.6  c0.9,0.6,3.9,2.9,4.5,5.1c0.6,2.2-0.8,4,0,4.4c0.8,0.4,0.8,0.9,1.8,0.8c1-0.1,1.6,0.1,1.3,1.6c-0.3,1.5-0.1,1.7,0.7,2.4  c0.8,0.7,1.1,1.9-1,2.4c-2.1,0.5-3,0.6-3,1.9c0,1.3-0.7,3.5-1.5,3.7c-0.8,0.2-1.6,0.5-1.6,1.5c0,1.1-0.8,2.2-2.1,3  c-1.3,0.9-3.6,3.1-4,3.9c-0.3,0.8-0.9,1.8-2.2,1.7c-1.3-0.2-2.4-0.5-2.2,0.6c0.2,1.1-0.1,1.3-1.2,1.7c-1.1,0.3-3.2,1.2-1.1,2  c2.1,0.8,3.8,0.6,4.3,2.4c0.5,1.7,1.4,2.2,2.4,3.3c1,1.1,1.5,1.6,2.8,1.8c1.3,0.2,3.4,1.1,3.4,2.5c0,1.4,0.5,5,1.4,4.8  c0.9-0.2,1.9-0.4,2.2,0.3c0.3,0.7-0.1,1.8,1.7,1.7c1.8-0.1,2.1,0.1,3.8-2.7c1.7-2.8,3.8-5.6,4.5-6.6c0.7-1,1.8-1.3,2.9-0.3  c1,1,7.8,6.4,7.5,7.5c-0.3,1.1-1,2.1,0.2,3c1.1,0.9,0.4,1.2,3,1c2.6-0.2,4.1-0.2,4.9,0.6c0.8,0.8,0.8,4-0.9,5.1  c-1.7,1.2-2.8,1.4-2.9,3.9c-0.1,2.5,0.2,5,1.2,5.6c1,0.6,0.3,0.7,0.2,2.4c-0.1,1.7-0.3,2.9,0.6,4c0.9,1.2,0.3,1.9,0.3,3  c0,1.1,0.1,5.2,1.1,6.3c1,1.1,0.9,2.1,0.9,2.9c-0.1,0.7,0.3,1.4,0.8,2.1c0.5,0.7,0.3,2,0.1,3.4c-0.2,1.4-0.3,2.4,0.9,3.2  c1.1,0.9,1.3,2,1.4,3.2c0.1,1.2-1.1,2,2.2,2.6c3.3,0.6,3.9,0.9,4.9,2c1,1.1,3.3,1.3,4.9,1.3c1.6,0,4-1.7,4.9-1.6  c1,0.1,2.5,1.4,4-1.3c1.5-2.6,2-3.3,3.3-3.4c1.3-0.1,1.8,0.9,2.2,1.6c0.3,0.6,2.4,2.9,5,3.3c2.6,0.5,5.3,0.4,6.5-0.5  c1.1-0.9,2.5-0.4,3,0.7c0.6,1.1,0.7,2.4,2.4,2.1c1.7-0.3,2.6-1,2.8-2.4c0.2-1.3,1.7-3.4,2.7-2.8c1,0.6,3.1,3.4,4.4,2.7  c1.3-0.7,2.8-3.3,4-2.7c1.2,0.6,2.8,1,3.3-0.1c0.5-1,1.4-2.7,1.4-3.5c0-0.8,0.3-1,1.3-1c1,0,3.8-2.6,3.6-4.9c-0.2-2.3,0.7-2.9,2-2.6  c1.3,0.3,1.6,0.7,2.8,0.3c1.1-0.3,1.1-0.1,1.8,0.8c0.7,0.9,2.3,1.4,3.2,2.2c0.9,0.8,2.8,2.1,3.4,3.5c0.6,1.4,1.8,3.8,3.2,5.5  c1.4,1.7,5.7,9.2,6.4,9.7c0.7,0.5,0.7-0.2,1.4,1.6c0.7,1.8,1.1,3.9,2.5,3.7c1.3-0.2,1.9-0.3,2.4,0.9c0.5,1.2,1.1,4.1,1.1,5.8  c0,0.2,0,0.4,0,0.6C325.2,180.3,327.8,178.9,328.2,178.3z" stroke-miterlimit="10" stroke="#FFFFFF"/>
<path name="哈尔滨市" fill="#D3D3D3" id="path9" d="M404.4,491.8c1.4,0.6,3.9-0.1,5.4-0.7c1.5-0.6,2.4-2.4,1.3-3.1  c-1.1-0.6,0.1-1.6,0.9-1.7c0.8-0.1,2.3-1.4,4.1-3.1c1.8-1.8-0.9-2,3.6-3.3c4.5-1.3,2.5-3.1,1.7-4.9c-0.8-1.8,1.5-3.1,2.5-3.5  c1-0.4,1.2-1,0.8-2.2c-0.4-1.2-0.5-1.7,1.4-4.1c1.8-2.4,0.5-3.1-2.6-4.3c-3-1.2-0.8-3.5,1.8-5.1c2.6-1.6,1.6-2.7,0.4-3.3  c-1.2-0.6-0.2-2.8-0.2-3.9c0-1.1-0.5-3.2,0.4-2.7c0.9,0.5,3.2,0.5,5.3,0.1c2.1-0.5,2.6-3.4,2.1-4.4c-0.5-1,1.9-2.2,3.2-3.1  c1.3-0.9,5.4-1.8,6.7-2.2c1.3-0.4,1.8-1.6,1.8-2.5c0.1-0.9,1.3-1.8,1.9-2.1c0.6-0.4,4.5,2,5.6,2.6c1.1,0.7,2.4-1.4,2.6-3  c0.2-1.2,2.5-1.8,3.6-2c-0.7-0.7,0.5-2.4,0.5-3c0-0.7,0.3-3.5,1.3-4.1c1-0.6,2.6-1.2,2.7-3.1l0,0c-0.4-0.5-0.6-1.4-0.6-2.8  c-0.1-2.1-1.2-0.4-3.5-3.2c-2.3-2.8-4.8-5-5.6-5.4c-0.8-0.4,1-0.8,3.2-0.6c2.2,0.2,2.4-0.3,2.8-1c0.4-0.7,1.2-1.6,1.9-1.5  c0.7,0.1,1.4-0.3,1.8-1.3c0.4-1,1.4-4.1,2-6.6c0.6-2.4-3.3-1.1-4.8,0.2c-1.4,1.3-5.6,1.3-7.3-0.3c-1.7-1.6-3.6,0.7-3.7,1.2  c-0.1,0.6-2.5,2.1-3.4,2.1c-1,0-4.6-2-5.3-3.2c-0.7-1.2-2.3-2.8-6.2-4c-4-1.2-4.7,1.1-7.5,2.6c-2.7,1.5-3.9,2.1-5,3.9  c-1.1,1.8-2.4,0.4-4.7-0.3c-2.4-0.7-3.5,1.3-6.4,1.1c-2.9-0.3-2.5-1.1-2.4-2.9c0.2-1.8-1.8-1.8-3.2-1.7c-1.4,0.1-3,0.1-4-1.3  c-1-1.4-1.5,0.1-1.9,1.1c-0.4,1.1-1.4,1.2-2.8,1.2c-1.2,0-2.4-0.2-3.1,0.4c-0.1,0.1-0.2,0.2-0.3,0.3c-0.6,1-1.1,2.5-3.6,3.1  c-2.4,0.5-6.4-4-7.5-4.9c-1.1-0.8-4.4,0.9-6.6,1.5c-2.2,0.6-2.3,2.2-4.1,3c-1.7,0.8-2-0.9-2-2.2c0.1-1.3-2-2.8-3.6-4.1  c-1.5-1.3-4.8-0.5-7.1,1.1c-2.3,1.7-7.2,3.8-8.3,4.4c-1.1,0.6-2.5,3.3-4,4c-1.5,0.7-5.2,3.8-6,4.2c-0.8,0.4-3.5,4.4-3.5,5.9  c0,1.5-1.1,2-2,2.3c-0.9,0.3-2.3,2.8-2.3,3.9c0,1-0.9,1.6-1.8,1c-0.9-0.6-5.7,0.1-7.6,0c-1.9-0.1,0.6,3.7,3,5.2  c2.4,1.5,3.2,5.8,4,7.9c0.8,2.1,0.1,3.4-0.6,5.2c-0.7,1.8-2.8,1.2-4.8,1c-2-0.3-2.8,1.1-3.5,0.6s-3.2-0.4-4.8-0.4  c-1.6,0.1-4.6,3.2-5.1,4.3c-0.1,0.2-0.1,0.3-0.1,0.4c0,0.7,1,0.8,1.3,0.8c0.4,0,0.1,1.2-2.1,2.5c-1.6,0.9-3.9,1.3-5.1,1.4  c0.4,0.2,0.6,0.4,0.6,0.9c-0.2,1.4-0.6,1.5-0.3,2.7c0.4,1.2-0.1,1.6-0.2,2.8c-0.1,1.2-1.4,1.9-0.1,2.4c1.2,0.5,1.4,0.1,1.8,1.6  c0.4,1.5,2.1,3.7,3.6,4.3c1.5,0.5,3.3,2.6,5.4,3.3c2.2,0.8,6.1,0.3,8,1.1c1.9,0.8,1.6-1,3.1-1.8c1.5-0.8,7.9-4.4,9.5-3  c1.6,1.5,2.6,2.2,4,2.3c1.3,0.2,1.1,1.9,2.7,2.7c1.6,0.9,3.2,1.1,4.6,0.9c1.4-0.2,1.2,0.1,1.4,2.1c0.2,2,0.5,3.5,2.2,4.2  c1.6,0.7,3.8,4.2,0.1,6.1c-3.7,1.9-0.5,8.2-0.5,9.3c0.1,1.1-0.4,3.9,0.2,5.1c0.6,1.2,2.4-0.2,3.2-1.2c0.8-1,1.6-1.7,2.9-0.8  c1.2,0.9,2,1.2,3.4,0.7c1.4-0.5,2.4-0.2,3.5,0.5c1.1,0.6,3.3,1.6,4.6,1.6c1.2,0,2.6,1.6,1.2,2.2c-1.3,0.6-4.3,1.6-3.5,3.3  c0.8,1.6,0.8,1.7,1.2,3.2c0.4,1.5,0.2,1.7,1.6,2.6c1.3,0.9,1.3,2.8,1.9,3.5c0.5,0.7,0.9,1.2,0.5,2.9c-0.5,1.6-1,3.1,0.9,3  c1.9-0.2,3.1-1.5,3.5-0.2c0.4,1.2-0.8,3.3,0.9,4.3c1.6,1,3.1,0.7,4.2,1.5c1.1,0.8,1.7-0.2,3-0.8c1.2-0.6,5.6-0.8,4.4-6.5  c-1.2-5.7-1.1-7.2,0.7-6.9c1.9,0.2,3.9-2.3,5.2-4c1.1-1.4,2.2-3.7,3.8-3.5c0.1-2.6,0.6-9.2,1-10.5  C399.6,490,403.1,491.2,404.4,491.8z" stroke-miterlimit="10" stroke="#FFFFFF"/>
<path name="大庆市" fill="#D3D3D3" id="path10" d="M290.7,355.2c-1.6-0.2-3.2-0.7-3.5-2.4c-0.3-1.7-0.9-2.6-1.6-3.5  c-0.7-0.8-4.4,3.5-8.9,6.6c-4.5,3.1-4.2,0.7-5.6-0.5c-1.4-1.2-4.2-1.4-4.6,0.6c-0.4,2-2.5,4.4-2.8,6.7c-0.3,2.2-1.4,2.3-3.9,1.9  c-2.5-0.4-2.1,0.4-3.9,1.8c-1.8,1.4-2.7,1.8-2.9,3.2c-0.2,1.4-5.5,6.5-6.2,8.1c-0.7,1.6-0.5,3.1,0.8,4.4c1.2,1.3,1.8,2.4,1.9,5.7  c0.1,3.3-6.3,4.2-7.2,4.2c-0.9,0,0.4,3.9-0.3,5.7c-0.7,1.8,0,2.5,0.7,2.8c0.7,0.3,1.1,0.8,0.5,2.9c-0.6,1.8,0.4,4.9,0.7,5.9  c0.6-0.1,0.3,0.6,1.1,0.3c1-0.3,1.2-0.8,1.2,0.7c0,1.5-0.5,1.6,0.3,4.1c0.8,2.5,0.4,4.7,0.8,5.9c0.3,1.2,0.4,2-0.6,3.1  c-1.1,1.2-0.9,3.2,0.4,4.2c1.2,1,1.9,2.2,0.8,3.5c-1.1,1.2-1.3,3.5-0.3,4.3c0.9,0.7,0.9,2.2,2.4,3.8c1.6,1.6,1.5,2.8,2.9,2.8  c1.4,0,1.8-0.6,2.1,1.2c0.3,1.9,1.2,2.9,2.3,3.1c1.1,0.2,1.3,0.6,1.4,2.2c0.1,1.6,0.9,2,2.1,2c1.2,0,1.5,0.4,2.1,1.2  c0.6,0.9,2.3,0.6,3.3,0c1-0.6,1.6-0.1,3.1-0.1c1.4,0,2.6-0.4,3.9-0.2c1.3,0.2,2.3-1.2,2.5-2.4c0.2-1.2,0.9-3.1,1.6-1.3  c0.6,1.9,0.6,1.6,2,1.6c1.4-0.1,2.5,0.2,2.9,2c0.4,1.8,0.6,3.2,1.9,2.7c1.2-0.5,0.6-0.4,2.9,0.2c2.2,0.6,2.6,1,3.9,0  c1.3-1,3.4-0.5,4.6-1.9c1.1-1.4,1.5-1.1,2.3-1c0.8,0.1,2-1.1,3.8-1.6c1.2-0.3,3-0.6,3.9-0.2c1.2-0.1,3.5-0.5,5.1-1.4  c2.3-1.3,2.5-2.5,2.1-2.5c-0.3,0-1.3-0.1-1.3-0.8l0,0c-1.1-0.2-0.9-2.9-1.6-4.5c-0.7-1.5-0.9-2,0.5-3c1.3-0.9,1.3-1.4-0.7-1.4  c-1.9,0-1-1.1-0.6-1.9c0.4-0.8,0.5-1.3-1.7-1c-2.2,0.3-2.6-1.8-2.5-3.1c0.1-1.4,0.3-2-0.3-2.8c-0.6-0.8-5.5,0.8-7.1,0.6  c-1.5-0.2-2.6-6.1-2.6-8.5c0-2.4-1.5-2.7-2.8-2.4c-1.4,0.3-2.7-2.6-3.9-3.6c-1.2-1-2.8,0.8-3.2,2.1c-0.4,1.3,1.5,1.5,2.8,1.8  c1.3,0.3,1.2,1.6-0.1,2.8c-1.4,1.2-7.4-0.1-8.9-0.3c-1.5-0.1-1-1,0.2-2c1.2-1,1-1.7-0.1-2.9c-1.2-1.2,3.2-4.6,5.3-5.5  c2.1-0.9-1.2-5.1-2.4-6.9c-1.2-1.7,2.5-2.8,3.8-3.4c1.3-0.6,2,0.6,3.2,1.7c1.2,1.1,2.2,0.4,2.4-0.4c0.2-0.8-2.3-4.5-3.5-5.5  c-1.2-1-0.8-2.2-0.5-4.6c0.3-2.3-1.9-2.4-2.6-2.7c-0.7-0.3-1.7-1-1.1-2.1c0.6-1.1,0.5-3.4,0.6-4.2c0.1-0.8,1.2-2.8,4.7-4.3  c3.5-1.5,3.7-3.7,4.8-4.8c1-1.1,2.3-5.4,1.6-6.8c-0.7-1.4-0.3-3.7-0.1-5.1c0.1-0.6,0.4-1,0.8-1.1c-0.2-0.7-0.5-2-0.8-3.3  C294.3,353.6,292.3,355.4,290.7,355.2z" stroke-miterlimit="10" stroke="#FFFFFF"/>
<path name="齐齐哈尔市" fill="#D3D3D3" id="path11" d="M341,322.5c2.4-0.9,0.7-1.9-0.5-3.7c-1.2-1.8-6-1.3-7.9-0.3  c-2,0.9-2.6-0.4-2.2-1.8c0.4-1.4-1.7-1.1-5.8-0.7c-4.1,0.4-7.3-3-9.8-5.2c-2.5-2.2-2.9-4.3-2.5-6.2c0.4-1.8-0.9-2.8-2.3-3.4  c-1.5-0.6,0.9-2.5,1.2-5.4c0.3-2.9,5.7-3.2,7.3-3.6c1.6-0.5-2.6-1.3-4.7-1.7c-2.1-0.4-2.3-2.8-3.1-4.5c-0.8-1.8-2.6-1.8-4.8-0.8  c-2.2,0.9-8.8,6-11.2,7.2c-2.5,1.2-4.5-0.1-6.8-1c-2.3-0.9-2.6-5.5-1.9-7.1c0.7-1.6-0.5-2.4-2.9-2.2c-1.7,0.1-3.5-1.4-4.5-2.3  c-0.3,0.5-0.5,1.1-0.7,1.5c-1.1,2.8-4.1,6.3-4.1,8.7c0,2.3-0.2,4-1,5.7c-0.8,1.7-1.9,3.9-1.1,5.9c0.8,2-0.8,4.6-0.8,6.2  c0,1.7-0.3,7.2-0.8,10.2c-0.5,3-3.2,4.4-3.3,2.1c-0.2-2.3-0.2-4.9-2-7.2c-1.8-2.3-2.6-6.2-2.6-8.2c0-2,1.7-5.9-2-2.9  c-3.6,3-6.2,3.5-8.4,7c-2.1,3.5-5.2,3.4-7.3,8.1c-2.1,4.7-7.6,6.6-8.7,7.4c-1.1,0.8-9.6,2.9-9.6,4.6c0,1.7-2.9,7-6.4,7.6  c-3.5,0.6-7.5,4-8.7,5.2c-1.1,1.2-7.8,2.6-8.5,4.6c-0.7,2-3.7,7.6-2.6,9c1.1,1.5,1.8,1.5,1.8,3.8c0,2.3-0.3,3.3,1.8,4.6  c2.1,1.3,8.6,3.6,6.8,5c-1.8,1.4-3.1,5.7-1.2,5.6c1.9-0.1,4.3-1.1,3.5,0.6c-0.8,1.7-1.2,2.2-0.8,4.3c0.4,2.1-0.6,4.8,2.8,5.5  c3.4,0.6,5,0.1,6.1-1.5c1.1-1.5,2.8-5.3,4.8-4.2c2,1.1,2.5,1.4,2.5-1.1c0-2.5-2.2-4.4-1.8-5.5c0.4-1.1,1.2-3.9,2.2-1.5  c1,2.4,1.7,1.8,2,3c0.3,1.2,1,1.7,1.7,1.6c0.7-0.1,1.2-0.3,1.1,0.9c-0.1,1.2-2,1.4-1.2,3.1c0.8,1.6,1.7,2.3,2,1.2  c0.3-1.1,0.5-2,1.4-2.3c0.9-0.3,1.4-0.6,1.4,1.2c0,1.7-2.3,5.2-2.1,6.4c0.2,1.2,0.7,3-1.3,2.8c-2-0.2-4.8-0.5-6.2,0.6  c-1.4,1-3.2,1.2-3.7,2.5c-0.5,1.3-3.1,1.4-4.8,1.5c-1.7,0.1-5,0.5-5.2,4.5c-0.2,4,2.3,8.1,3.9,9.5c1.6,1.4,4.5,1.4,5.9,2.7  c1.5,1.3,1.1,2.2,3.6,1.7c2.6-0.6,5.5-0.8,9.2-0.7c3.7,0.1,6.4-0.9,7.4-1.3c0.1-0.1,0.3-0.1,0.4-0.1c-0.3-1-1.3-4.2-0.7-5.9  c0.7-2.1,0.2-2.6-0.5-2.9c-0.7-0.3-1.3-1-0.7-2.8c0.7-1.8-0.6-5.7,0.3-5.7c0.9,0,7.3-0.9,7.2-4.2c-0.1-3.3-0.7-4.4-1.9-5.7  c-1.2-1.3-1.4-2.8-0.8-4.4c0.7-1.6,5.9-6.8,6.2-8.1c0.2-1.4,1.1-1.8,2.9-3.2c1.8-1.4,1.4-2.2,3.9-1.8c2.5,0.4,3.6,0.3,3.9-1.9  c0.3-2.2,2.4-4.7,2.8-6.7c0.4-2,3.2-1.8,4.6-0.6c1.4,1.2,1.2,3.6,5.6,0.5c4.5-3.1,8.2-7.4,8.9-6.6c0.7,0.8,1.3,1.8,1.6,3.5  c0.3,1.7,2,2.2,3.5,2.4c1.6,0.2,3.5-1.6,4,0.4c0.3,1.3,0.6,2.6,0.8,3.3c0.5-0.2,1.1,0,1.7,0.5c1.2,0.9,5.4,0.4,6.9,0  c1.5-0.4,6.7-0.7,8.4-0.7c1.6,0,6.7-1,7.8-1.6c1.1-0.6,11.2-1.5,12.1-1.5c1,0,1.4,0.4,1.5-0.4c0.1-0.7,1.9-2.3,2.5-3.3  c0.6-1.1,1.1-2.1,0.8-3.7c-0.3-1.6,1.4-3.2,0.9-4c-0.5-0.8-0.5-2.7,0.3-3.5c0.7-0.7,0.7-2.5,0.3-5.4c-0.4-2.9,0.3-3.5,1.7-4.4  c1.4-0.9,1.3-2.7-0.3-3.8C338.5,326.1,338.6,323.4,341,322.5z" stroke-miterlimit="10" stroke="#FFFFFF"/>
<path name="牡丹江市" fill="#D3D3D3" id="path12" d="M488.9,478.6c-0.2-1.2-0.5-1.6-2.2-3.3c-1.7-1.8-3.8-1.4-4.6-0.4  c-0.7,1-1.4,1-1.9-0.6c-0.4-1.6-2.7-2.6-3.6-3.7c-0.9-1.1-2.6-1.7-3.5-0.7c-1,1-1.6,1-3.5-0.7c-1.9-1.7-0.4-3.6,0.5-4.3  c0.9-0.6,2.5-1.5,2.2-3.7c-0.3-2.1,0.4-3.9,2-4.6c1.5-0.7,2.4-3.1,2.4-3.8c0.1-0.8,2.3-1.9,3.1-2.1c0.8-0.2,1.1-2,0.7-2.7  c-0.3-0.6,1-2.4,1.6-3.2c-0.4-0.1-0.7-0.2-0.9-0.4c-0.5-0.6-1.2-0.9-2.1,1.1c-0.8,2.1-3.9,2.2-5.3,2.2c-1.4,0-2.6,0-3-2.1  c-0.4-2.1-1.8-3.4-2.1-1.6c-0.3,1.9-0.8,2.5-2.1,1.9c-1.2-0.6-2.7-1-3.5-0.5c-0.8,0.5-2.2,0.7-1.9-1.7c0.3-2.4,1.7-8.6,0.6-9.9  c-1-1.2-0.4-3.6-2.6-3.9c-0.4,0-0.7-0.2-0.9-0.3c-1.1,0.2-3.4,0.7-3.6,2c-0.2,1.6-1.6,3.6-2.6,3c-1.1-0.7-5-3-5.6-2.6  c-0.6,0.4-1.8,1.2-1.9,2.1c-0.1,0.9-0.5,2.1-1.8,2.5c-1.3,0.4-5.4,1.3-6.7,2.2c-1.3,0.9-3.7,2.1-3.2,3.1c0.5,1,0,3.9-2.1,4.4  c-2.1,0.5-4.3,0.4-5.3-0.1c-0.9-0.5-0.4,1.6-0.4,2.7c0,1.1-1,3.2,0.2,3.9c1.2,0.6,2.2,1.8-0.4,3.3c-2.6,1.6-4.8,3.9-1.8,5.1  c3,1.2,4.4,1.8,2.6,4.3c-1.8,2.4-1.8,2.9-1.4,4.1c0.4,1.2,0.2,1.8-0.8,2.2c-1,0.4-3.3,1.8-2.5,3.5c0.8,1.8,2.9,3.6-1.7,4.9  c-4.5,1.3-1.8,1.6-3.6,3.3c-1.8,1.8-3.2,3.1-4.1,3.1c-0.8,0.1-2,1-0.9,1.7c1.1,0.6,0.2,2.4-1.3,3.1c-1.5,0.6-4,1.4-5.4,0.7  c-1.4-0.6-4.8-1.8-5.3-0.4c-0.4,1.3-1,7.9-1,10.5c0.2,0,0.5,0.1,0.7,0.2c2.1,1.1,3.8,2.5,3.8,5.4c0,3-1.6,10.1,0.4,13  c2,2.8,3.7,3.3,4.6,7.7c0.9,4.3,4.4,8,5.4,10.4c1,2.3,2.2,4.4,2.6,7c0.4,2.6,1.2,3.5,2.7,3.1c1.5-0.4,1.1-0.2,3.2,0.6  c2.1,0.9,2.7-1.4,4.6-1.4c1.9,0,4.2-1.1,4.1-3.1c-0.1-2-2.1-6.1-0.9-7.7c1.2-1.6,0.6-1.4,3.7-1.1c3.1,0.2,4.4-4,9.5-3.7  c5,0.4,6.8,0.6,6.9-0.9c0.1-1.5,3.2-6.3,5.2-6.6c2-0.3,3,0.3,3.9,2.9c0.9,2.6-1.5,2.9,0.1,4.4c1.6,1.5,2.5,3.8,3.8,0.8  c1.3-3,0.4-4,3-4.7c2.6-0.6,3.3-4.9,4.7-4.4c1.4,0.5,0.6,1.4,0.6,3.5c0,2.1,0.3,8.6,1.5,9.3c1.3,0.8,2,0.8,2,2.9c0,2.1,0.9,2.8,4,4  c3.2,1.3,5.9,2.3,7.2,3.9c1.3,1.6,4,5.6,5.4,4.7c1.4-0.9,3-3.7,5.4-2.6c2.4,1,1.9,2.1,5,2.1c3.2,0,5,1.6,4.7-0.5  c-0.4-2.1-2.8-3.4-3.3-4.5c-0.5-1.1-0.3-5.2-1-7.4c-0.8-2.3-1.5-6.2-0.8-7.6c0.8-1.4,1.3-3.5,1.5-6.2c0.3-2.6,2.1-3.7,1.3-7.7  c-0.9-4-5.6-25.9-5.6-25.9s-0.9-4.2-2.3-5.3c-1.4-1.1-6.1-3.8-3.8-5c0.1,0,0.2-0.1,0.2-0.1c-0.6,0-1.4-0.1-2-0.2  C489.6,481.2,489,479.8,488.9,478.6z" stroke-miterlimit="10" stroke="#FFFFFF"/>
<path name="鸡西市" fill="#D3D3D3" id="path13" d="M589.2,403.5c-0.9-4.7-2.6-6.5-1.6-8.8c-1.4-0.1-5-0.4-5.8-0.5  c-1-0.2-2.8-0.7-3.5,0c-0.7,0.7-1.3,0.8-3.2,0.8c-1.9,0-2.6-0.2-3.4-1.4c-0.8-1.2-4.7-1.6-5.2,0.5c-0.4,2.2,0.9,4-1.7,4.3  c-2.6,0.3-1.6-1.3-2.5-0.7c-0.9,0.6-0.7,2.3-0.9,3.5c-0.2,1.3-0.9,1.9-1.8,2c-1,0.1-1.5,0.7-1,1.7c0.5,1,1,1.4,0.1,2.3  c-0.8,0.9-1.2,2.2-1.2,4.2c0,2,0.4,3.3-1.2,3.9c-1.5,0.6-4.2,0.1-5.9-0.9c-1.7-1-3.3,1-3.7,1.2c-0.4,0.3-1.3,1.9-1.9,3.6  c-0.6,1.7-2.6,4.4-4.5,4.1c-1.9-0.3-3.7,0.1-4.2-1.2c-0.6-1.2-2.1-0.3-2.1,1.2c0,1.5-0.3,3.4,0.2,4.6c0.5,1.2-0.2,1-1.1,2.1  c-0.9,1.1-1.4-0.1-1.5,1c-0.1,1.1-0.4,1.3-1.8,1.1c-1.4-0.2-1.6,1.3-3.5,0.8c-1.9-0.5-2.3-2.3-3.1-2c-0.8,0.3-1.9,0.3-1.9,1.7  c0,1.4-0.5,3.6-1.7,3.6c-1.2,0.1-1.4-1.2-1.4-2.7c0.1-1.5,0.9-4.2-0.1-4.2c-1.1,0-0.9,1.5-1.9,1.4c-0.9-0.1-2.3-3.3-3.4-2.5  c-1.1,0.8-5.4,2.4-5.8,3.8c-0.4,1.4-0.6,2.8,0,4.3c0.6,1.4,0.5,2.5-1.1,2.4c-1.7-0.1-4.4-0.5-4.2,1.5c0.2,2,0.8,3.8-0.9,3.9  c-1.7,0.1-1.8-0.5-2.6,0c-0.7,0.5-1.3-1.8-3-1.4c-1.6,0.4-2.4,0-3.4-0.6c-1-0.6-2.3-0.1-2.7,0.8c-0.4,1-1,1.9-3.2,2  c-1.6,0.1-3.1,0.1-4-0.1c-0.6,0.8-1.9,2.6-1.6,3.2c0.4,0.8,0.1,2.5-0.7,2.7c-0.8,0.2-3,1.3-3.1,2.1c-0.1,0.8-0.9,3.1-2.4,3.8  c-1.5,0.7-2.2,2.5-2,4.6c0.3,2.1-1.4,3-2.2,3.7c-0.9,0.6-2.4,2.6-0.5,4.3c1.9,1.7,2.5,1.7,3.5,0.7c1-1,2.7-0.4,3.5,0.7  c0.9,1.1,3.2,2.2,3.6,3.7c0.4,1.6,1.1,1.6,1.9,0.6c0.7-1,2.9-1.4,4.6,0.4c1.7,1.8,2,2.1,2.2,3.3c0.2,1.2,0.7,2.6,1.6,2.9  c0.6,0.1,1.4,0.2,2,0.2c2.2-1.2,3.8-2.4,4.3-3.5c0.5-1.1,1.5-1.3,2.9,0.3c1.4,1.5,1.9,1,2.9-1.3c1-2.3,0.3-2.8,2.3-2.5  c2,0.3,4.7,1.1,5.7-0.8c1-1.9,1.5-2.1,3.5-2.1s2.1-2.3,2.1-3.4c0-1.1-2.4-2.5-0.5-3.3c1.9-0.8,3.5-0.8,4.3-1.9  c0.8-1.1,1-5.8,2.4-5.8c1.4,0,3.5,4.7,7.7,5.8c4.2,1.1,27.1,6.8,27.1,6.8s5.7,1.8,7.2-0.6c1.5-2.4,3-4.3,2.5-6.1  c-0.5-1.8-2.8-5.3-1.9-7.8c0.9-2.5,2.5-3.9,2.3-5.2c-0.3-1.3-1-3.7,2.3-4.7c3.3-1,6.2-2.1,6.9-6.8c0.8-4.7,0.9-6.6,0.3-7.7  c-0.6-1.1-0.4-3,1.5-3.5c1.9-0.5,2.9-1.5,3.2-2.9c0.3-1.4,3.4-2.6,3-7.2c-0.4-4.5-1.4-4.4,1-5.6S590.3,408.8,589.2,403.5z" stroke-miterlimit="10" stroke="#FFFFFF"/>
</svg>